%TF.GenerationSoftware,KiCad,Pcbnew,9.0.1*%
%TF.CreationDate,2025-04-26T03:22:33-04:00*%
%TF.ProjectId,MainBoardPCB,4d61696e-426f-4617-9264-5043422e6b69,rev?*%
%TF.SameCoordinates,Original*%
%TF.FileFunction,Copper,L2,Inr*%
%TF.FilePolarity,Positive*%
%FSLAX46Y46*%
G04 Gerber Fmt 4.6, Leading zero omitted, Abs format (unit mm)*
G04 Created by KiCad (PCBNEW 9.0.1) date 2025-04-26 03:22:33*
%MOMM*%
%LPD*%
G01*
G04 APERTURE LIST*
G04 Aperture macros list*
%AMRoundRect*
0 Rectangle with rounded corners*
0 $1 Rounding radius*
0 $2 $3 $4 $5 $6 $7 $8 $9 X,Y pos of 4 corners*
0 Add a 4 corners polygon primitive as box body*
4,1,4,$2,$3,$4,$5,$6,$7,$8,$9,$2,$3,0*
0 Add four circle primitives for the rounded corners*
1,1,$1+$1,$2,$3*
1,1,$1+$1,$4,$5*
1,1,$1+$1,$6,$7*
1,1,$1+$1,$8,$9*
0 Add four rect primitives between the rounded corners*
20,1,$1+$1,$2,$3,$4,$5,0*
20,1,$1+$1,$4,$5,$6,$7,0*
20,1,$1+$1,$6,$7,$8,$9,0*
20,1,$1+$1,$8,$9,$2,$3,0*%
%AMRotRect*
0 Rectangle, with rotation*
0 The origin of the aperture is its center*
0 $1 length*
0 $2 width*
0 $3 Rotation angle, in degrees counterclockwise*
0 Add horizontal line*
21,1,$1,$2,0,0,$3*%
G04 Aperture macros list end*
%TA.AperFunction,ComponentPad*%
%ADD10RoundRect,0.760000X1.140000X1.140000X-1.140000X1.140000X-1.140000X-1.140000X1.140000X-1.140000X0*%
%TD*%
%TA.AperFunction,ComponentPad*%
%ADD11C,3.800000*%
%TD*%
%TA.AperFunction,ComponentPad*%
%ADD12RotRect,2.250000X2.250000X205.000000*%
%TD*%
%TA.AperFunction,ComponentPad*%
%ADD13C,2.250000*%
%TD*%
%TA.AperFunction,ComponentPad*%
%ADD14R,1.700000X1.700000*%
%TD*%
%TA.AperFunction,ComponentPad*%
%ADD15C,1.700000*%
%TD*%
%TA.AperFunction,ComponentPad*%
%ADD16C,3.600000*%
%TD*%
%TA.AperFunction,ComponentPad*%
%ADD17R,2.250000X2.250000*%
%TD*%
%TA.AperFunction,ComponentPad*%
%ADD18RoundRect,0.250000X-0.600000X-0.725000X0.600000X-0.725000X0.600000X0.725000X-0.600000X0.725000X0*%
%TD*%
%TA.AperFunction,ComponentPad*%
%ADD19O,1.700000X1.950000*%
%TD*%
%TA.AperFunction,HeatsinkPad*%
%ADD20O,1.350000X1.700000*%
%TD*%
%TA.AperFunction,HeatsinkPad*%
%ADD21O,1.100000X1.500000*%
%TD*%
%TA.AperFunction,HeatsinkPad*%
%ADD22C,0.500000*%
%TD*%
%TA.AperFunction,ComponentPad*%
%ADD23RoundRect,0.250000X-0.600000X-0.750000X0.600000X-0.750000X0.600000X0.750000X-0.600000X0.750000X0*%
%TD*%
%TA.AperFunction,ComponentPad*%
%ADD24O,1.700000X2.000000*%
%TD*%
%TA.AperFunction,ViaPad*%
%ADD25C,0.600000*%
%TD*%
G04 APERTURE END LIST*
D10*
%TO.N,GND*%
%TO.C,J6*%
X58300000Y-33700000D03*
D11*
%TO.N,VAA*%
X53300000Y-33700000D03*
%TD*%
D12*
%TO.N,Net-(U4-IO0)*%
%TO.C,BTSEL3*%
X79297019Y-91891000D03*
D13*
%TO.N,GND*%
X76549999Y-86000000D03*
%TD*%
D14*
%TO.N,VAA*%
%TO.C,J4*%
X94540000Y-60890000D03*
D15*
X92000000Y-60890000D03*
X94540000Y-58350000D03*
X92000000Y-58350000D03*
X94540000Y-55810000D03*
X92000000Y-55810000D03*
%TO.N,GND*%
X94540000Y-53270000D03*
X92000000Y-53270000D03*
X94540000Y-50730000D03*
X92000000Y-50730000D03*
X94540000Y-48190000D03*
X92000000Y-48190000D03*
%TO.N,+5V*%
X94540000Y-45650000D03*
X92000000Y-45650000D03*
%TO.N,/GPIO5*%
X94540000Y-43110000D03*
%TO.N,/GPIO4*%
X92000000Y-43110000D03*
%TD*%
D16*
%TO.N,N/C*%
%TO.C,H1*%
X53535500Y-25000000D03*
%TD*%
D14*
%TO.N,Net-(J9-Pin_1)*%
%TO.C,J9*%
X73460000Y-23460000D03*
D15*
%TO.N,Net-(J9-Pin_2)*%
X73460000Y-26000000D03*
%TO.N,Net-(J9-Pin_3)*%
X70920000Y-23460000D03*
%TO.N,Net-(J9-Pin_4)*%
X70920000Y-26000000D03*
%TO.N,Net-(J9-Pin_5)*%
X68380000Y-23460000D03*
%TO.N,Net-(J9-Pin_6)*%
X68380000Y-26000000D03*
%TO.N,+5V*%
X65840000Y-23460000D03*
%TO.N,+3V3*%
X65840000Y-26000000D03*
%TO.N,GND*%
X63300000Y-23460000D03*
X63300000Y-26000000D03*
%TD*%
D17*
%TO.N,GND*%
%TO.C,BTSEL1*%
X61600000Y-59450000D03*
D13*
%TO.N,/~{USB_BOOT}*%
X61600000Y-52950000D03*
%TD*%
D18*
%TO.N,GND*%
%TO.C,J7*%
X75550000Y-40000000D03*
D19*
%TO.N,+5V*%
X78050000Y-40000000D03*
%TO.N,Servo1*%
X80550000Y-40000000D03*
%TD*%
D16*
%TO.N,N/C*%
%TO.C,H2*%
X83535500Y-25000000D03*
%TD*%
D20*
%TO.N,GND*%
%TO.C,J2*%
X58230000Y-91470000D03*
D21*
X58540000Y-88470000D03*
X63380000Y-88470000D03*
D20*
X63690000Y-91470000D03*
%TD*%
D18*
%TO.N,GND*%
%TO.C,J8*%
X75550000Y-48050000D03*
D19*
%TO.N,+5V*%
X78050000Y-48050000D03*
%TO.N,Servo2*%
X80550000Y-48050000D03*
%TD*%
D17*
%TO.N,GND*%
%TO.C,BTSEL2*%
X81950000Y-55700000D03*
D13*
%TO.N,Net-(U4-EN)*%
X75450000Y-55700000D03*
%TD*%
D16*
%TO.N,N/C*%
%TO.C,H4*%
X53535500Y-89000000D03*
%TD*%
%TO.N,N/C*%
%TO.C,H3*%
X83535500Y-89000000D03*
%TD*%
D20*
%TO.N,GND*%
%TO.C,J1*%
X67920000Y-91500000D03*
D21*
X68230000Y-88500000D03*
X73070000Y-88500000D03*
D20*
X73380000Y-91500000D03*
%TD*%
D14*
%TO.N,VAA*%
%TO.C,J3*%
X42460000Y-43110000D03*
D15*
X45000000Y-43110000D03*
X42460000Y-45650000D03*
X45000000Y-45650000D03*
X42460000Y-48190000D03*
X45000000Y-48190000D03*
%TO.N,GND*%
X42460000Y-50730000D03*
X45000000Y-50730000D03*
X42460000Y-53270000D03*
X45000000Y-53270000D03*
X42460000Y-55810000D03*
X45000000Y-55810000D03*
%TO.N,+5V*%
X42460000Y-58350000D03*
X45000000Y-58350000D03*
%TO.N,/GPIO5*%
X42460000Y-60890000D03*
%TO.N,/GPIO4*%
X45000000Y-60890000D03*
%TD*%
D22*
%TO.N,GND*%
%TO.C,U3*%
X55175000Y-69337500D03*
X55175000Y-72037500D03*
X57875000Y-69337500D03*
X57875000Y-72037500D03*
%TD*%
D23*
%TO.N,RX*%
%TO.C,J5*%
X76450000Y-34000000D03*
D24*
%TO.N,GND*%
X78950000Y-34000000D03*
%TD*%
D25*
%TO.N,GND*%
X60100000Y-62100000D03*
X65800000Y-73900000D03*
X71650000Y-75850000D03*
X46250000Y-54600000D03*
X67950000Y-74900000D03*
X53000000Y-77700000D03*
X93350000Y-52100000D03*
X48400000Y-52350000D03*
X73950000Y-73850000D03*
X74050000Y-86900000D03*
X48400000Y-47850000D03*
X67500000Y-55650000D03*
X81750000Y-52200000D03*
X53000000Y-76450000D03*
X66150000Y-50200000D03*
X49400000Y-64350000D03*
X76050000Y-76300000D03*
X65850000Y-89600000D03*
X49300000Y-65650000D03*
X49300000Y-63550000D03*
X76800000Y-52300000D03*
X66550000Y-57300000D03*
X67950000Y-79900000D03*
X53550000Y-62600000D03*
X62400000Y-62100000D03*
X78450000Y-68750000D03*
X61850000Y-64700000D03*
X75500000Y-53200000D03*
X79400000Y-74400000D03*
X65900000Y-88300000D03*
X68800000Y-54650000D03*
X46500000Y-50250000D03*
X55250000Y-80750000D03*
X67950000Y-77550000D03*
X53700000Y-75200000D03*
X74350000Y-54300000D03*
X68500000Y-51850000D03*
X75100000Y-66250000D03*
X43750000Y-59800000D03*
X61850000Y-83050000D03*
X71800000Y-90100000D03*
X73150000Y-86300000D03*
X77050000Y-76100000D03*
X93600000Y-44500000D03*
X81600000Y-78700000D03*
X48600000Y-43850000D03*
X72100000Y-85500000D03*
X52600000Y-60850000D03*
X43700000Y-57000000D03*
X43650000Y-50200000D03*
X55950000Y-68650000D03*
X69800000Y-65050000D03*
X56200000Y-55350000D03*
X56150000Y-80800000D03*
X74050000Y-86000000D03*
X65800000Y-92200000D03*
X81900000Y-82050000D03*
X59700000Y-84800000D03*
X73350000Y-87100000D03*
X72150000Y-47550000D03*
X58800000Y-77450000D03*
X72750000Y-68850000D03*
X68050000Y-61800000D03*
X84200000Y-50600000D03*
X71600000Y-72950000D03*
X58650000Y-62550000D03*
X67950000Y-74100000D03*
X68000000Y-76600000D03*
X67650000Y-49500000D03*
X81400000Y-75100000D03*
X65800000Y-74900000D03*
X67350000Y-36550000D03*
X76950000Y-82150000D03*
X68400000Y-62500000D03*
X43800000Y-52000000D03*
X43800000Y-63150000D03*
X71500000Y-64800000D03*
X73350000Y-85450000D03*
X58550000Y-80950000D03*
X46400000Y-59700000D03*
X65800000Y-75800000D03*
X84100000Y-48850000D03*
X93200000Y-49450000D03*
X48050000Y-55550000D03*
X55400000Y-59200000D03*
X79400000Y-73000000D03*
X65950000Y-90650000D03*
X52950000Y-80050000D03*
X53000000Y-65900000D03*
X66900000Y-71600000D03*
X60000000Y-81150000D03*
X68050000Y-64000000D03*
X78100000Y-76200000D03*
X73950000Y-75200000D03*
X53450000Y-60000000D03*
X67950000Y-75700000D03*
X84200000Y-52500000D03*
X58150000Y-83500000D03*
X57050000Y-54000000D03*
X67950000Y-78650000D03*
X68200000Y-60000000D03*
X73700000Y-82000000D03*
X93200000Y-46950000D03*
X70500000Y-49700000D03*
X67300000Y-83200000D03*
X52900000Y-78850000D03*
X43650000Y-54450000D03*
X72050000Y-86700000D03*
X54600000Y-68900000D03*
X74350000Y-51700000D03*
X62050000Y-83950000D03*
X46200000Y-51950000D03*
X60100000Y-77300000D03*
X71800000Y-81050000D03*
X55850000Y-72700000D03*
X73950000Y-73050000D03*
X74500000Y-75900000D03*
X80700000Y-51350000D03*
X54500000Y-70700000D03*
X65800000Y-76900000D03*
%TO.N,+3V3*%
X63300000Y-72500000D03*
X64250000Y-68850000D03*
X71350000Y-54650000D03*
X64200000Y-67700000D03*
X62650000Y-72000000D03*
X63600000Y-78950000D03*
X65100000Y-66950000D03*
X66250000Y-69000000D03*
X63700000Y-77550000D03*
X61150000Y-66450000D03*
%TO.N,+1V1*%
X57227500Y-68577500D03*
X57527500Y-75177500D03*
X57127470Y-72777500D03*
X56700000Y-66100000D03*
%TO.N,/GPIO5*%
X51700000Y-71550000D03*
X65800000Y-48950000D03*
%TO.N,/GPIO4*%
X64100000Y-50050000D03*
X52000000Y-68850000D03*
%TO.N,/USB_D+*%
X68150000Y-85950000D03*
X69800000Y-90000000D03*
%TO.N,/USB_D-*%
X66500000Y-86500000D03*
X70600000Y-87300000D03*
%TO.N,VUSB*%
X63900000Y-86499999D03*
X60880000Y-90000000D03*
%TO.N,VAA*%
X45900000Y-40450000D03*
X45800000Y-46750000D03*
X89525000Y-55575000D03*
X45650000Y-44500000D03*
X43700000Y-47600000D03*
X93400000Y-61300000D03*
X59100000Y-21200000D03*
X41450000Y-44600000D03*
X43750000Y-48700000D03*
X95700000Y-55100000D03*
X55450000Y-21200000D03*
X85550000Y-22050000D03*
X82150000Y-21450000D03*
X53550000Y-29450000D03*
X43700000Y-38050000D03*
X50550000Y-29850000D03*
X48000000Y-38650000D03*
X86600000Y-28000000D03*
X92850000Y-59300000D03*
X89300000Y-47900000D03*
X73850000Y-21300000D03*
X89300000Y-41550000D03*
X91950000Y-39600000D03*
X43850000Y-44400000D03*
X66950000Y-21300000D03*
X90900000Y-59600000D03*
X89950000Y-59000000D03*
X41700000Y-40350000D03*
X95500000Y-57050000D03*
X43800000Y-46250000D03*
X86400000Y-33200000D03*
X87600000Y-35600000D03*
X89300000Y-51150000D03*
X41650000Y-46950000D03*
X86000000Y-30100000D03*
X93000000Y-56950000D03*
%TO.N,+5V*%
X68950000Y-48700000D03*
X50500000Y-82800000D03*
X52100000Y-56000000D03*
X60100000Y-49350000D03*
%TO.N,Net-(D3-K)*%
X62050000Y-82150000D03*
X65400000Y-84900000D03*
X62050000Y-78900000D03*
%TO.N,D+*%
X69850000Y-83450000D03*
X61300000Y-86300000D03*
%TO.N,D-*%
X60600000Y-85500000D03*
X68000000Y-81350000D03*
%TO.N,GYROSCL*%
X64650000Y-52850000D03*
X61032282Y-68682282D03*
%TO.N,GYROSDA*%
X61062500Y-69687500D03*
X65850000Y-55450000D03*
%TO.N,Net-(J9-Pin_1)*%
X85550000Y-71800000D03*
%TO.N,Net-(J9-Pin_3)*%
X83750000Y-71950000D03*
%TO.N,BATT_READ*%
X63900000Y-58600000D03*
X60900000Y-67500000D03*
%TO.N,RX*%
X77000000Y-70700000D03*
%TO.N,Servo2*%
X77550000Y-69550000D03*
%TO.N,Servo1*%
X72800000Y-65950000D03*
X72500000Y-54900000D03*
X78500000Y-51100000D03*
%TO.N,Net-(J9-Pin_2)*%
X84650000Y-71900000D03*
X76400000Y-26000000D03*
%TO.N,Net-(J9-Pin_5)*%
X81850000Y-72000000D03*
%TO.N,Net-(J9-Pin_4)*%
X82800000Y-71950000D03*
%TO.N,Net-(J9-Pin_6)*%
X80900000Y-72000000D03*
%TO.N,2040RX*%
X62000000Y-70100000D03*
X67900000Y-72200000D03*
%TO.N,2040TX*%
X67950000Y-73200000D03*
X62550000Y-70750000D03*
%TD*%
%TA.AperFunction,Conductor*%
%TO.N,GND*%
G36*
X83538088Y-20500616D02*
G01*
X83920915Y-20517277D01*
X83931632Y-20518211D01*
X84308878Y-20567711D01*
X84319483Y-20569574D01*
X84691015Y-20651662D01*
X84701412Y-20654439D01*
X85064396Y-20768487D01*
X85074525Y-20772160D01*
X85426222Y-20917307D01*
X85436000Y-20921850D01*
X85773760Y-21097001D01*
X85783104Y-21102374D01*
X86104364Y-21306199D01*
X86113198Y-21312358D01*
X86174659Y-21359309D01*
X86415558Y-21543337D01*
X86423833Y-21550249D01*
X86704960Y-21806597D01*
X86712604Y-21814201D01*
X86970414Y-22094017D01*
X86977368Y-22102257D01*
X87150596Y-22326612D01*
X87209889Y-22403404D01*
X87216090Y-22412200D01*
X87389778Y-22682863D01*
X87421576Y-22732415D01*
X87426998Y-22741733D01*
X87603889Y-23078585D01*
X87608483Y-23088340D01*
X87697703Y-23301400D01*
X87728414Y-23374740D01*
X87755444Y-23439287D01*
X87759170Y-23449399D01*
X87785077Y-23530390D01*
X87875088Y-23811786D01*
X87877923Y-23822189D01*
X87961919Y-24193264D01*
X87963840Y-24203874D01*
X88015284Y-24580847D01*
X88016276Y-24591583D01*
X88034887Y-24973847D01*
X88035034Y-24979877D01*
X88035034Y-31207711D01*
X88034787Y-31384661D01*
X88034743Y-31416006D01*
X88034744Y-31416032D01*
X88069857Y-31858407D01*
X88069860Y-31858432D01*
X88140492Y-32296549D01*
X88140494Y-32296559D01*
X88177654Y-32448093D01*
X88246194Y-32727585D01*
X88246199Y-32727600D01*
X88246201Y-32727607D01*
X88386270Y-33148697D01*
X88386271Y-33148699D01*
X88559805Y-33557140D01*
X88559811Y-33557154D01*
X88765695Y-33950314D01*
X88765700Y-33950323D01*
X89002569Y-34325596D01*
X89002570Y-34325598D01*
X89002573Y-34325602D01*
X89002575Y-34325605D01*
X89268916Y-34680596D01*
X89268920Y-34680601D01*
X89268925Y-34680607D01*
X89268930Y-34680613D01*
X89541189Y-34988342D01*
X89562987Y-35012980D01*
X89882877Y-35320596D01*
X90226506Y-35601445D01*
X90591641Y-35853702D01*
X90975909Y-36075726D01*
X91376813Y-36266076D01*
X91791747Y-36423513D01*
X92218015Y-36547016D01*
X92218024Y-36547017D01*
X92218036Y-36547021D01*
X92361942Y-36576403D01*
X92361950Y-36576404D01*
X92370854Y-36578222D01*
X92370864Y-36578228D01*
X92392278Y-36582599D01*
X92392822Y-36582887D01*
X92432584Y-36590839D01*
X92438221Y-36592103D01*
X92803852Y-36683197D01*
X92814022Y-36686198D01*
X93168249Y-36807433D01*
X93178107Y-36811286D01*
X93520665Y-36962353D01*
X93530162Y-36967035D01*
X93858573Y-37146843D01*
X93867634Y-37152322D01*
X94114419Y-37316315D01*
X94179442Y-37359524D01*
X94188018Y-37365767D01*
X94480993Y-37598881D01*
X94488979Y-37605814D01*
X94577449Y-37689511D01*
X94760948Y-37863112D01*
X94768336Y-37870726D01*
X95017308Y-38150323D01*
X95024018Y-38158541D01*
X95072868Y-38223887D01*
X95232916Y-38437981D01*
X95248178Y-38458396D01*
X95254159Y-38467156D01*
X95330984Y-38590693D01*
X95451860Y-38785065D01*
X95457069Y-38794300D01*
X95483298Y-38845837D01*
X95626881Y-39127966D01*
X95631284Y-39137618D01*
X95771948Y-39484567D01*
X95775510Y-39494561D01*
X95886001Y-39852267D01*
X95888695Y-39862528D01*
X95968202Y-40228358D01*
X95970010Y-40238813D01*
X96017956Y-40610113D01*
X96018863Y-40620683D01*
X96034920Y-40995306D01*
X96035034Y-41000616D01*
X96035034Y-54561780D01*
X96015349Y-54628819D01*
X95962545Y-54674574D01*
X95893387Y-54684518D01*
X95878941Y-54681555D01*
X95801525Y-54660811D01*
X95759309Y-54649500D01*
X95640691Y-54649500D01*
X95526114Y-54680201D01*
X95526112Y-54680201D01*
X95526112Y-54680202D01*
X95423387Y-54739511D01*
X95423384Y-54739513D01*
X95339513Y-54823384D01*
X95339511Y-54823387D01*
X95276137Y-54933153D01*
X95274402Y-54932151D01*
X95237341Y-54978135D01*
X95171046Y-55000195D01*
X95103347Y-54982912D01*
X95097737Y-54979376D01*
X95013920Y-54923371D01*
X95013907Y-54923364D01*
X94831839Y-54847950D01*
X94831829Y-54847947D01*
X94638543Y-54809500D01*
X94638541Y-54809500D01*
X94441459Y-54809500D01*
X94441457Y-54809500D01*
X94248170Y-54847947D01*
X94248160Y-54847950D01*
X94066092Y-54923364D01*
X94066079Y-54923371D01*
X93902218Y-55032860D01*
X93902214Y-55032863D01*
X93762863Y-55172214D01*
X93762860Y-55172218D01*
X93653371Y-55336079D01*
X93653364Y-55336092D01*
X93577950Y-55518160D01*
X93577947Y-55518170D01*
X93539500Y-55711456D01*
X93539500Y-55711459D01*
X93539500Y-55908541D01*
X93539500Y-55908543D01*
X93539499Y-55908543D01*
X93577947Y-56101829D01*
X93577950Y-56101839D01*
X93653364Y-56283907D01*
X93653371Y-56283920D01*
X93762860Y-56447781D01*
X93762863Y-56447785D01*
X93902214Y-56587136D01*
X93902218Y-56587139D01*
X94066079Y-56696628D01*
X94066092Y-56696635D01*
X94176298Y-56742283D01*
X94248165Y-56772051D01*
X94248169Y-56772051D01*
X94248170Y-56772052D01*
X94441456Y-56810500D01*
X94441459Y-56810500D01*
X94638543Y-56810500D01*
X94768582Y-56784632D01*
X94831835Y-56772051D01*
X94910266Y-56739563D01*
X94979735Y-56732095D01*
X95042214Y-56763370D01*
X95077866Y-56823459D01*
X95077493Y-56886218D01*
X95061986Y-56944092D01*
X95049500Y-56990691D01*
X95049500Y-57109309D01*
X95080201Y-57223886D01*
X95081777Y-57226615D01*
X95100113Y-57258374D01*
X95116586Y-57326274D01*
X95093734Y-57392301D01*
X95038813Y-57435492D01*
X94969260Y-57442134D01*
X94945274Y-57434936D01*
X94831839Y-57387950D01*
X94831829Y-57387947D01*
X94638543Y-57349500D01*
X94638541Y-57349500D01*
X94441459Y-57349500D01*
X94441457Y-57349500D01*
X94248170Y-57387947D01*
X94248160Y-57387950D01*
X94066092Y-57463364D01*
X94066079Y-57463371D01*
X93902218Y-57572860D01*
X93902214Y-57572863D01*
X93762863Y-57712214D01*
X93762860Y-57712218D01*
X93653371Y-57876079D01*
X93653364Y-57876092D01*
X93577950Y-58058160D01*
X93577947Y-58058170D01*
X93539500Y-58251456D01*
X93539500Y-58251459D01*
X93539500Y-58448541D01*
X93539500Y-58448543D01*
X93539499Y-58448543D01*
X93577947Y-58641829D01*
X93577950Y-58641839D01*
X93653364Y-58823907D01*
X93653371Y-58823920D01*
X93762860Y-58987781D01*
X93762863Y-58987785D01*
X93902214Y-59127136D01*
X93902218Y-59127139D01*
X94066079Y-59236628D01*
X94066092Y-59236635D01*
X94162609Y-59276613D01*
X94248165Y-59312051D01*
X94248169Y-59312051D01*
X94248170Y-59312052D01*
X94441456Y-59350500D01*
X94441459Y-59350500D01*
X94638543Y-59350500D01*
X94808121Y-59316768D01*
X94831835Y-59312051D01*
X95006956Y-59239514D01*
X95013907Y-59236635D01*
X95013907Y-59236634D01*
X95013914Y-59236632D01*
X95177782Y-59127139D01*
X95317139Y-58987782D01*
X95426632Y-58823914D01*
X95502051Y-58641835D01*
X95540500Y-58448541D01*
X95540500Y-58251459D01*
X95540500Y-58251456D01*
X95502052Y-58058170D01*
X95502051Y-58058169D01*
X95502051Y-58058165D01*
X95502049Y-58058160D01*
X95426635Y-57876092D01*
X95426628Y-57876079D01*
X95317139Y-57712218D01*
X95317136Y-57712214D01*
X95309934Y-57705012D01*
X95276449Y-57643689D01*
X95281433Y-57573997D01*
X95323305Y-57518064D01*
X95388769Y-57493647D01*
X95429704Y-57497556D01*
X95440691Y-57500500D01*
X95440695Y-57500500D01*
X95559306Y-57500500D01*
X95559309Y-57500500D01*
X95673886Y-57469799D01*
X95776613Y-57410489D01*
X95823353Y-57363749D01*
X95884676Y-57330264D01*
X95954368Y-57335248D01*
X96010301Y-57377120D01*
X96034718Y-57442584D01*
X96035034Y-57451430D01*
X96035034Y-63199397D01*
X96034920Y-63204702D01*
X96018790Y-63581377D01*
X96017883Y-63591948D01*
X95969951Y-63963236D01*
X95968144Y-63973691D01*
X95888648Y-64339527D01*
X95885954Y-64349789D01*
X95775472Y-64707498D01*
X95771910Y-64717492D01*
X95631258Y-65064436D01*
X95626855Y-65074089D01*
X95457055Y-65407748D01*
X95451842Y-65416990D01*
X95254147Y-65734902D01*
X95248164Y-65743664D01*
X95024009Y-66043519D01*
X95017299Y-66051737D01*
X94768338Y-66331327D01*
X94760950Y-66338942D01*
X94488986Y-66596239D01*
X94480973Y-66603194D01*
X94188030Y-66836283D01*
X94179453Y-66842528D01*
X93867634Y-67049736D01*
X93858554Y-67055224D01*
X93530187Y-67235005D01*
X93520671Y-67239698D01*
X93178123Y-67390756D01*
X93168241Y-67394618D01*
X92814035Y-67515841D01*
X92803859Y-67518844D01*
X92439081Y-67609718D01*
X92433908Y-67610889D01*
X92218238Y-67654915D01*
X92218228Y-67654918D01*
X91792404Y-67778253D01*
X91377863Y-67935462D01*
X90977338Y-68125508D01*
X90593399Y-68347170D01*
X90593392Y-68347175D01*
X90228536Y-68599012D01*
X89885122Y-68879395D01*
X89885119Y-68879398D01*
X89565386Y-69186501D01*
X89271395Y-69518344D01*
X89005073Y-69872749D01*
X89005072Y-69872751D01*
X88768111Y-70247468D01*
X88562092Y-70640001D01*
X88562086Y-70640014D01*
X88388315Y-71047864D01*
X88388305Y-71047890D01*
X88247928Y-71468370D01*
X88247919Y-71468400D01*
X88196540Y-71676851D01*
X88143834Y-71890691D01*
X88141822Y-71898852D01*
X88141819Y-71898863D01*
X88070708Y-72336429D01*
X88035034Y-72778322D01*
X88035034Y-88997313D01*
X88034916Y-89002722D01*
X88018148Y-89386769D01*
X88017205Y-89397546D01*
X87967383Y-89775974D01*
X87965505Y-89786627D01*
X87882887Y-90159292D01*
X87880087Y-90169740D01*
X87765309Y-90533770D01*
X87761609Y-90543936D01*
X87615536Y-90896587D01*
X87610964Y-90906391D01*
X87434713Y-91244964D01*
X87429304Y-91254332D01*
X87224223Y-91576243D01*
X87218019Y-91585105D01*
X86985639Y-91887947D01*
X86978685Y-91896233D01*
X86720823Y-92177639D01*
X86713174Y-92185289D01*
X86431743Y-92443170D01*
X86423456Y-92450123D01*
X86120639Y-92682483D01*
X86111778Y-92688688D01*
X85789848Y-92893778D01*
X85780479Y-92899187D01*
X85441901Y-93075438D01*
X85432098Y-93080009D01*
X85079459Y-93226076D01*
X85069293Y-93229776D01*
X84705257Y-93344554D01*
X84694808Y-93347354D01*
X84322146Y-93429969D01*
X84311493Y-93431847D01*
X83933063Y-93481667D01*
X83922286Y-93482610D01*
X83538095Y-93499381D01*
X83532689Y-93499499D01*
X83500068Y-93499499D01*
X83469645Y-93499499D01*
X83469641Y-93499499D01*
X83462037Y-93499500D01*
X83462036Y-93499499D01*
X83462035Y-93499500D01*
X79424997Y-93499500D01*
X79357958Y-93479815D01*
X79312203Y-93427011D01*
X79302259Y-93357853D01*
X79331284Y-93294297D01*
X79372592Y-93263118D01*
X79444094Y-93229776D01*
X80869096Y-92565287D01*
X80905194Y-92538818D01*
X80936255Y-92487633D01*
X80945362Y-92428458D01*
X80934723Y-92384978D01*
X79971306Y-90318923D01*
X79944837Y-90282825D01*
X79944836Y-90282824D01*
X79924712Y-90270612D01*
X79893652Y-90251764D01*
X79893650Y-90251763D01*
X79893649Y-90251763D01*
X79834478Y-90242657D01*
X79834477Y-90242657D01*
X79791000Y-90253295D01*
X79790993Y-90253297D01*
X77724942Y-91216713D01*
X77688843Y-91243182D01*
X77657783Y-91294367D01*
X77657782Y-91294369D01*
X77648676Y-91353540D01*
X77648676Y-91353541D01*
X77659314Y-91397018D01*
X77659316Y-91397025D01*
X77888229Y-91887929D01*
X78557458Y-93323097D01*
X78567950Y-93392173D01*
X78539430Y-93455957D01*
X78480954Y-93494196D01*
X78445076Y-93499500D01*
X53538206Y-93499500D01*
X53532797Y-93499382D01*
X53148754Y-93482614D01*
X53137977Y-93481671D01*
X52759550Y-93431849D01*
X52748897Y-93429971D01*
X52376238Y-93347354D01*
X52365789Y-93344554D01*
X52001757Y-93229773D01*
X51991592Y-93226073D01*
X51638948Y-93080001D01*
X51629144Y-93075429D01*
X51290578Y-92899181D01*
X51281209Y-92893772D01*
X50959285Y-92688680D01*
X50950424Y-92682475D01*
X50647611Y-92450114D01*
X50639324Y-92443161D01*
X50357898Y-92185278D01*
X50350255Y-92177634D01*
X50092380Y-91896207D01*
X50085442Y-91887938D01*
X49853066Y-91585092D01*
X49846865Y-91576236D01*
X49641776Y-91254301D01*
X49636383Y-91244960D01*
X49501164Y-90985197D01*
X49460134Y-90906376D01*
X49455562Y-90896572D01*
X49309492Y-90543915D01*
X49305793Y-90533750D01*
X49238062Y-90318923D01*
X49191019Y-90169714D01*
X49188222Y-90159274D01*
X49171971Y-90085965D01*
X49105612Y-89786615D01*
X49103735Y-89775965D01*
X49053921Y-89397536D01*
X49052978Y-89386759D01*
X49046029Y-89227522D01*
X49036151Y-89001193D01*
X49036034Y-88995806D01*
X49036036Y-88934119D01*
X49036034Y-88934111D01*
X49036034Y-88872149D01*
X51585000Y-88872149D01*
X51585000Y-89127850D01*
X51598119Y-89227492D01*
X51618374Y-89381340D01*
X51671659Y-89580202D01*
X51684550Y-89628312D01*
X51684553Y-89628322D01*
X51782394Y-89864531D01*
X51782399Y-89864542D01*
X51910234Y-90085957D01*
X51910245Y-90085973D01*
X52065888Y-90288811D01*
X52065894Y-90288818D01*
X52246681Y-90469605D01*
X52246687Y-90469610D01*
X52449535Y-90625261D01*
X52449542Y-90625265D01*
X52670957Y-90753100D01*
X52670962Y-90753102D01*
X52670965Y-90753104D01*
X52907187Y-90850950D01*
X53154160Y-90917126D01*
X53407657Y-90950500D01*
X53407664Y-90950500D01*
X53663336Y-90950500D01*
X53663343Y-90950500D01*
X53916840Y-90917126D01*
X54163813Y-90850950D01*
X54400035Y-90753104D01*
X54621465Y-90625261D01*
X54824313Y-90469610D01*
X55005110Y-90288813D01*
X55160761Y-90085965D01*
X55244634Y-89940693D01*
X55244635Y-89940691D01*
X60429500Y-89940691D01*
X60429500Y-90059309D01*
X60460201Y-90173886D01*
X60519511Y-90276613D01*
X60603387Y-90360489D01*
X60706114Y-90419799D01*
X60820691Y-90450500D01*
X60820694Y-90450500D01*
X60939306Y-90450500D01*
X60939309Y-90450500D01*
X61053886Y-90419799D01*
X61156613Y-90360489D01*
X61240489Y-90276613D01*
X61299799Y-90173886D01*
X61330500Y-90059309D01*
X61330500Y-89940691D01*
X69349500Y-89940691D01*
X69349500Y-90059309D01*
X69380201Y-90173886D01*
X69439511Y-90276613D01*
X69523387Y-90360489D01*
X69626114Y-90419799D01*
X69740691Y-90450500D01*
X69740694Y-90450500D01*
X69859306Y-90450500D01*
X69859309Y-90450500D01*
X69973886Y-90419799D01*
X70076613Y-90360489D01*
X70160489Y-90276613D01*
X70219799Y-90173886D01*
X70250500Y-90059309D01*
X70250500Y-89940691D01*
X70219799Y-89826114D01*
X70160489Y-89723387D01*
X70076613Y-89639511D01*
X69973886Y-89580201D01*
X69859309Y-89549500D01*
X69740691Y-89549500D01*
X69626114Y-89580201D01*
X69626112Y-89580201D01*
X69626112Y-89580202D01*
X69523387Y-89639511D01*
X69523384Y-89639513D01*
X69439513Y-89723384D01*
X69439511Y-89723387D01*
X69380201Y-89826114D01*
X69349500Y-89940691D01*
X61330500Y-89940691D01*
X61299799Y-89826114D01*
X61240489Y-89723387D01*
X61156613Y-89639511D01*
X61053886Y-89580201D01*
X60939309Y-89549500D01*
X60820691Y-89549500D01*
X60706114Y-89580201D01*
X60706112Y-89580201D01*
X60706112Y-89580202D01*
X60603387Y-89639511D01*
X60603384Y-89639513D01*
X60519513Y-89723384D01*
X60519511Y-89723387D01*
X60460201Y-89826114D01*
X60429500Y-89940691D01*
X55244635Y-89940691D01*
X55285124Y-89870564D01*
X55285124Y-89870563D01*
X55288598Y-89864545D01*
X55288600Y-89864542D01*
X55288604Y-89864535D01*
X55386450Y-89628313D01*
X55452626Y-89381340D01*
X55486000Y-89127843D01*
X55486000Y-88872157D01*
X55485999Y-88872149D01*
X81585000Y-88872149D01*
X81585000Y-89127850D01*
X81598119Y-89227492D01*
X81618374Y-89381340D01*
X81671659Y-89580202D01*
X81684550Y-89628312D01*
X81684553Y-89628322D01*
X81782394Y-89864531D01*
X81782399Y-89864542D01*
X81910234Y-90085957D01*
X81910245Y-90085973D01*
X82065888Y-90288811D01*
X82065894Y-90288818D01*
X82246681Y-90469605D01*
X82246687Y-90469610D01*
X82449535Y-90625261D01*
X82449542Y-90625265D01*
X82670957Y-90753100D01*
X82670962Y-90753102D01*
X82670965Y-90753104D01*
X82907187Y-90850950D01*
X83154160Y-90917126D01*
X83407657Y-90950500D01*
X83407664Y-90950500D01*
X83663336Y-90950500D01*
X83663343Y-90950500D01*
X83916840Y-90917126D01*
X84163813Y-90850950D01*
X84400035Y-90753104D01*
X84621465Y-90625261D01*
X84824313Y-90469610D01*
X85005110Y-90288813D01*
X85160761Y-90085965D01*
X85288604Y-89864535D01*
X85386450Y-89628313D01*
X85452626Y-89381340D01*
X85486000Y-89127843D01*
X85486000Y-88872157D01*
X85452626Y-88618660D01*
X85386450Y-88371687D01*
X85288604Y-88135465D01*
X85288602Y-88135462D01*
X85288600Y-88135457D01*
X85160765Y-87914042D01*
X85160761Y-87914035D01*
X85005110Y-87711187D01*
X85005105Y-87711181D01*
X84824318Y-87530394D01*
X84824311Y-87530388D01*
X84621473Y-87374745D01*
X84621471Y-87374743D01*
X84621465Y-87374739D01*
X84621460Y-87374736D01*
X84621457Y-87374734D01*
X84400042Y-87246899D01*
X84400031Y-87246894D01*
X84163822Y-87149053D01*
X84163815Y-87149051D01*
X84163813Y-87149050D01*
X83916840Y-87082874D01*
X83860507Y-87075457D01*
X83663350Y-87049500D01*
X83663343Y-87049500D01*
X83407657Y-87049500D01*
X83407649Y-87049500D01*
X83182326Y-87079165D01*
X83154160Y-87082874D01*
X82992793Y-87126112D01*
X82907187Y-87149050D01*
X82907177Y-87149053D01*
X82670968Y-87246894D01*
X82670957Y-87246899D01*
X82449542Y-87374734D01*
X82449526Y-87374745D01*
X82246688Y-87530388D01*
X82246681Y-87530394D01*
X82065894Y-87711181D01*
X82065888Y-87711188D01*
X81910245Y-87914026D01*
X81910234Y-87914042D01*
X81782399Y-88135457D01*
X81782394Y-88135468D01*
X81684553Y-88371677D01*
X81684550Y-88371687D01*
X81618374Y-88618661D01*
X81585000Y-88872149D01*
X55485999Y-88872149D01*
X55452626Y-88618660D01*
X55386450Y-88371687D01*
X55288604Y-88135465D01*
X55288602Y-88135462D01*
X55288600Y-88135457D01*
X55160765Y-87914042D01*
X55160761Y-87914035D01*
X55005110Y-87711187D01*
X55005105Y-87711181D01*
X54824318Y-87530394D01*
X54824311Y-87530388D01*
X54621473Y-87374745D01*
X54621471Y-87374743D01*
X54621465Y-87374739D01*
X54621460Y-87374736D01*
X54621457Y-87374734D01*
X54561211Y-87339951D01*
X54400042Y-87246899D01*
X54400031Y-87246894D01*
X54385056Y-87240691D01*
X70149500Y-87240691D01*
X70149500Y-87359309D01*
X70180201Y-87473886D01*
X70239511Y-87576613D01*
X70323387Y-87660489D01*
X70426114Y-87719799D01*
X70540691Y-87750500D01*
X70540694Y-87750500D01*
X70659306Y-87750500D01*
X70659309Y-87750500D01*
X70773886Y-87719799D01*
X70876613Y-87660489D01*
X70960489Y-87576613D01*
X71019799Y-87473886D01*
X71050500Y-87359309D01*
X71050500Y-87240691D01*
X71019799Y-87126114D01*
X70960489Y-87023387D01*
X70876613Y-86939511D01*
X70773886Y-86880201D01*
X70659309Y-86849500D01*
X70540691Y-86849500D01*
X70426114Y-86880201D01*
X70426112Y-86880201D01*
X70426112Y-86880202D01*
X70323387Y-86939511D01*
X70323384Y-86939513D01*
X70239513Y-87023384D01*
X70239511Y-87023387D01*
X70224435Y-87049500D01*
X70180201Y-87126114D01*
X70149500Y-87240691D01*
X54385056Y-87240691D01*
X54163822Y-87149053D01*
X54163815Y-87149051D01*
X54163813Y-87149050D01*
X53916840Y-87082874D01*
X53860507Y-87075457D01*
X53663350Y-87049500D01*
X53663343Y-87049500D01*
X53407657Y-87049500D01*
X53407649Y-87049500D01*
X53182326Y-87079165D01*
X53154160Y-87082874D01*
X52992793Y-87126112D01*
X52907187Y-87149050D01*
X52907177Y-87149053D01*
X52670968Y-87246894D01*
X52670957Y-87246899D01*
X52449542Y-87374734D01*
X52449526Y-87374745D01*
X52246688Y-87530388D01*
X52246681Y-87530394D01*
X52065894Y-87711181D01*
X52065888Y-87711188D01*
X51910245Y-87914026D01*
X51910234Y-87914042D01*
X51782399Y-88135457D01*
X51782394Y-88135468D01*
X51684553Y-88371677D01*
X51684550Y-88371687D01*
X51618374Y-88618661D01*
X51585000Y-88872149D01*
X49036034Y-88872149D01*
X49036034Y-85440691D01*
X60149500Y-85440691D01*
X60149500Y-85559309D01*
X60180201Y-85673886D01*
X60239511Y-85776613D01*
X60323387Y-85860489D01*
X60426114Y-85919799D01*
X60540691Y-85950500D01*
X60540694Y-85950500D01*
X60659306Y-85950500D01*
X60659309Y-85950500D01*
X60751415Y-85925820D01*
X60821261Y-85927483D01*
X60879123Y-85966645D01*
X60906628Y-86030873D01*
X60895042Y-86099775D01*
X60890893Y-86107594D01*
X60880202Y-86126111D01*
X60880202Y-86126112D01*
X60880201Y-86126114D01*
X60849500Y-86240691D01*
X60849500Y-86359309D01*
X60880201Y-86473886D01*
X60939511Y-86576613D01*
X61023387Y-86660489D01*
X61126114Y-86719799D01*
X61240691Y-86750500D01*
X61240694Y-86750500D01*
X61359306Y-86750500D01*
X61359309Y-86750500D01*
X61473886Y-86719799D01*
X61576613Y-86660489D01*
X61660489Y-86576613D01*
X61719799Y-86473886D01*
X61728694Y-86440690D01*
X63449500Y-86440690D01*
X63449500Y-86559308D01*
X63480201Y-86673885D01*
X63539511Y-86776612D01*
X63623387Y-86860488D01*
X63726114Y-86919798D01*
X63840691Y-86950499D01*
X63840694Y-86950499D01*
X63959306Y-86950499D01*
X63959309Y-86950499D01*
X64073886Y-86919798D01*
X64176613Y-86860488D01*
X64260489Y-86776612D01*
X64319799Y-86673885D01*
X64350500Y-86559308D01*
X64350500Y-86440691D01*
X66049500Y-86440691D01*
X66049500Y-86559309D01*
X66080201Y-86673886D01*
X66139511Y-86776613D01*
X66223387Y-86860489D01*
X66326114Y-86919799D01*
X66440691Y-86950500D01*
X66440694Y-86950500D01*
X66559306Y-86950500D01*
X66559309Y-86950500D01*
X66673886Y-86919799D01*
X66776613Y-86860489D01*
X66860489Y-86776613D01*
X66919799Y-86673886D01*
X66950500Y-86559309D01*
X66950500Y-86440691D01*
X66919799Y-86326114D01*
X66860489Y-86223387D01*
X66776613Y-86139511D01*
X66673886Y-86080201D01*
X66559309Y-86049500D01*
X66440691Y-86049500D01*
X66326114Y-86080201D01*
X66326112Y-86080201D01*
X66326112Y-86080202D01*
X66223387Y-86139511D01*
X66223384Y-86139513D01*
X66139513Y-86223384D01*
X66139512Y-86223386D01*
X66139511Y-86223387D01*
X66080201Y-86326114D01*
X66049500Y-86440691D01*
X64350500Y-86440691D01*
X64350500Y-86440690D01*
X64319799Y-86326113D01*
X64260489Y-86223386D01*
X64176613Y-86139510D01*
X64073886Y-86080200D01*
X63959309Y-86049499D01*
X63840691Y-86049499D01*
X63726114Y-86080200D01*
X63726112Y-86080200D01*
X63726112Y-86080201D01*
X63623387Y-86139510D01*
X63623384Y-86139512D01*
X63539513Y-86223383D01*
X63539511Y-86223386D01*
X63489222Y-86310489D01*
X63480201Y-86326113D01*
X63449500Y-86440690D01*
X61728694Y-86440690D01*
X61750500Y-86359309D01*
X61750500Y-86240691D01*
X61719799Y-86126114D01*
X61660489Y-86023387D01*
X61576613Y-85939511D01*
X61492055Y-85890691D01*
X67699500Y-85890691D01*
X67699500Y-86009309D01*
X67730201Y-86123886D01*
X67789511Y-86226613D01*
X67873387Y-86310489D01*
X67976114Y-86369799D01*
X68090691Y-86400500D01*
X68090694Y-86400500D01*
X68209306Y-86400500D01*
X68209309Y-86400500D01*
X68323886Y-86369799D01*
X68426613Y-86310489D01*
X68510489Y-86226613D01*
X68569799Y-86123886D01*
X68600500Y-86009309D01*
X68600500Y-85890691D01*
X68569799Y-85776114D01*
X68510489Y-85673387D01*
X68426613Y-85589511D01*
X68323886Y-85530201D01*
X68209309Y-85499500D01*
X68090691Y-85499500D01*
X67976114Y-85530201D01*
X67976112Y-85530201D01*
X67976112Y-85530202D01*
X67873387Y-85589511D01*
X67873384Y-85589513D01*
X67789513Y-85673384D01*
X67789511Y-85673387D01*
X67730201Y-85776114D01*
X67699500Y-85890691D01*
X61492055Y-85890691D01*
X61473886Y-85880201D01*
X61359309Y-85849500D01*
X61240691Y-85849500D01*
X61148587Y-85874179D01*
X61078737Y-85872516D01*
X61020875Y-85833353D01*
X60993371Y-85769124D01*
X61004958Y-85700222D01*
X61009099Y-85692417D01*
X61019799Y-85673886D01*
X61050500Y-85559309D01*
X61050500Y-85440691D01*
X61019799Y-85326114D01*
X60960489Y-85223387D01*
X60876613Y-85139511D01*
X60773886Y-85080201D01*
X60659309Y-85049500D01*
X60540691Y-85049500D01*
X60426114Y-85080201D01*
X60426112Y-85080201D01*
X60426112Y-85080202D01*
X60323387Y-85139511D01*
X60323384Y-85139513D01*
X60239513Y-85223384D01*
X60239511Y-85223387D01*
X60218091Y-85260488D01*
X60180201Y-85326114D01*
X60149500Y-85440691D01*
X49036034Y-85440691D01*
X49036034Y-84840691D01*
X64949500Y-84840691D01*
X64949500Y-84959309D01*
X64980201Y-85073886D01*
X65039511Y-85176613D01*
X65123387Y-85260489D01*
X65226114Y-85319799D01*
X65340691Y-85350500D01*
X65340694Y-85350500D01*
X65459306Y-85350500D01*
X65459309Y-85350500D01*
X65573886Y-85319799D01*
X65676613Y-85260489D01*
X65760489Y-85176613D01*
X65819799Y-85073886D01*
X65850500Y-84959309D01*
X65850500Y-84840691D01*
X65819799Y-84726114D01*
X65760489Y-84623387D01*
X65676613Y-84539511D01*
X65573886Y-84480201D01*
X65459309Y-84449500D01*
X65340691Y-84449500D01*
X65226114Y-84480201D01*
X65226112Y-84480201D01*
X65226112Y-84480202D01*
X65123387Y-84539511D01*
X65123384Y-84539513D01*
X65039513Y-84623384D01*
X65039511Y-84623387D01*
X64980201Y-84726114D01*
X64949500Y-84840691D01*
X49036034Y-84840691D01*
X49036034Y-83390691D01*
X69399500Y-83390691D01*
X69399500Y-83509309D01*
X69430201Y-83623886D01*
X69489511Y-83726613D01*
X69573387Y-83810489D01*
X69676114Y-83869799D01*
X69790691Y-83900500D01*
X69790694Y-83900500D01*
X69909306Y-83900500D01*
X69909309Y-83900500D01*
X70023886Y-83869799D01*
X70126613Y-83810489D01*
X70210489Y-83726613D01*
X70269799Y-83623886D01*
X70300500Y-83509309D01*
X70300500Y-83390691D01*
X70269799Y-83276114D01*
X70210489Y-83173387D01*
X70126613Y-83089511D01*
X70023886Y-83030201D01*
X69909309Y-82999500D01*
X69790691Y-82999500D01*
X69676114Y-83030201D01*
X69676112Y-83030201D01*
X69676112Y-83030202D01*
X69573387Y-83089511D01*
X69573384Y-83089513D01*
X69489513Y-83173384D01*
X69489511Y-83173387D01*
X69430201Y-83276114D01*
X69399500Y-83390691D01*
X49036034Y-83390691D01*
X49036034Y-82740691D01*
X50049500Y-82740691D01*
X50049500Y-82859309D01*
X50080201Y-82973886D01*
X50139511Y-83076613D01*
X50223387Y-83160489D01*
X50326114Y-83219799D01*
X50440691Y-83250500D01*
X50440694Y-83250500D01*
X50559306Y-83250500D01*
X50559309Y-83250500D01*
X50673886Y-83219799D01*
X50776613Y-83160489D01*
X50860489Y-83076613D01*
X50919799Y-82973886D01*
X50950500Y-82859309D01*
X50950500Y-82740691D01*
X50919799Y-82626114D01*
X50860489Y-82523387D01*
X50776613Y-82439511D01*
X50673886Y-82380201D01*
X50559309Y-82349500D01*
X50440691Y-82349500D01*
X50326114Y-82380201D01*
X50326112Y-82380201D01*
X50326112Y-82380202D01*
X50223387Y-82439511D01*
X50223384Y-82439513D01*
X50139513Y-82523384D01*
X50139511Y-82523387D01*
X50080201Y-82626114D01*
X50049500Y-82740691D01*
X49036034Y-82740691D01*
X49036034Y-82090691D01*
X61599500Y-82090691D01*
X61599500Y-82209309D01*
X61630201Y-82323886D01*
X61689511Y-82426613D01*
X61773387Y-82510489D01*
X61876114Y-82569799D01*
X61990691Y-82600500D01*
X61990694Y-82600500D01*
X62109306Y-82600500D01*
X62109309Y-82600500D01*
X62223886Y-82569799D01*
X62326613Y-82510489D01*
X62410489Y-82426613D01*
X62469799Y-82323886D01*
X62500500Y-82209309D01*
X62500500Y-82090691D01*
X62469799Y-81976114D01*
X62410489Y-81873387D01*
X62326613Y-81789511D01*
X62223886Y-81730201D01*
X62109309Y-81699500D01*
X61990691Y-81699500D01*
X61876114Y-81730201D01*
X61876112Y-81730201D01*
X61876112Y-81730202D01*
X61773387Y-81789511D01*
X61773384Y-81789513D01*
X61689513Y-81873384D01*
X61689511Y-81873387D01*
X61630201Y-81976114D01*
X61599500Y-82090691D01*
X49036034Y-82090691D01*
X49036034Y-81290691D01*
X67549500Y-81290691D01*
X67549500Y-81409309D01*
X67580201Y-81523886D01*
X67639511Y-81626613D01*
X67723387Y-81710489D01*
X67826114Y-81769799D01*
X67940691Y-81800500D01*
X67940694Y-81800500D01*
X68059306Y-81800500D01*
X68059309Y-81800500D01*
X68173886Y-81769799D01*
X68276613Y-81710489D01*
X68360489Y-81626613D01*
X68419799Y-81523886D01*
X68450500Y-81409309D01*
X68450500Y-81290691D01*
X68419799Y-81176114D01*
X68360489Y-81073387D01*
X68276613Y-80989511D01*
X68173886Y-80930201D01*
X68059309Y-80899500D01*
X67940691Y-80899500D01*
X67826114Y-80930201D01*
X67826112Y-80930201D01*
X67826112Y-80930202D01*
X67723387Y-80989511D01*
X67723384Y-80989513D01*
X67639513Y-81073384D01*
X67639511Y-81073387D01*
X67580201Y-81176114D01*
X67549500Y-81290691D01*
X49036034Y-81290691D01*
X49036034Y-78840691D01*
X61599500Y-78840691D01*
X61599500Y-78959309D01*
X61630201Y-79073886D01*
X61689511Y-79176613D01*
X61773387Y-79260489D01*
X61876114Y-79319799D01*
X61990691Y-79350500D01*
X61990694Y-79350500D01*
X62109306Y-79350500D01*
X62109309Y-79350500D01*
X62223886Y-79319799D01*
X62326613Y-79260489D01*
X62410489Y-79176613D01*
X62469799Y-79073886D01*
X62500500Y-78959309D01*
X62500500Y-78890691D01*
X63149500Y-78890691D01*
X63149500Y-79009309D01*
X63180201Y-79123886D01*
X63239511Y-79226613D01*
X63323387Y-79310489D01*
X63426114Y-79369799D01*
X63540691Y-79400500D01*
X63540694Y-79400500D01*
X63659306Y-79400500D01*
X63659309Y-79400500D01*
X63773886Y-79369799D01*
X63876613Y-79310489D01*
X63960489Y-79226613D01*
X64019799Y-79123886D01*
X64050500Y-79009309D01*
X64050500Y-78890691D01*
X64019799Y-78776114D01*
X63960489Y-78673387D01*
X63876613Y-78589511D01*
X63773886Y-78530201D01*
X63659309Y-78499500D01*
X63540691Y-78499500D01*
X63426114Y-78530201D01*
X63426112Y-78530201D01*
X63426112Y-78530202D01*
X63323387Y-78589511D01*
X63323384Y-78589513D01*
X63239513Y-78673384D01*
X63239511Y-78673387D01*
X63180201Y-78776114D01*
X63149500Y-78890691D01*
X62500500Y-78890691D01*
X62500500Y-78840691D01*
X62469799Y-78726114D01*
X62410489Y-78623387D01*
X62326613Y-78539511D01*
X62223886Y-78480201D01*
X62109309Y-78449500D01*
X61990691Y-78449500D01*
X61876114Y-78480201D01*
X61876112Y-78480201D01*
X61876112Y-78480202D01*
X61773387Y-78539511D01*
X61773384Y-78539513D01*
X61689513Y-78623384D01*
X61689511Y-78623387D01*
X61630201Y-78726114D01*
X61599500Y-78840691D01*
X49036034Y-78840691D01*
X49036034Y-77490691D01*
X63249500Y-77490691D01*
X63249500Y-77609309D01*
X63280201Y-77723886D01*
X63339511Y-77826613D01*
X63423387Y-77910489D01*
X63526114Y-77969799D01*
X63640691Y-78000500D01*
X63640694Y-78000500D01*
X63759306Y-78000500D01*
X63759309Y-78000500D01*
X63873886Y-77969799D01*
X63976613Y-77910489D01*
X64060489Y-77826613D01*
X64119799Y-77723886D01*
X64150500Y-77609309D01*
X64150500Y-77490691D01*
X64119799Y-77376114D01*
X64060489Y-77273387D01*
X63976613Y-77189511D01*
X63873886Y-77130201D01*
X63759309Y-77099500D01*
X63640691Y-77099500D01*
X63526114Y-77130201D01*
X63526112Y-77130201D01*
X63526112Y-77130202D01*
X63423387Y-77189511D01*
X63423384Y-77189513D01*
X63339513Y-77273384D01*
X63339511Y-77273387D01*
X63280201Y-77376114D01*
X63249500Y-77490691D01*
X49036034Y-77490691D01*
X49036034Y-75118191D01*
X57077000Y-75118191D01*
X57077000Y-75236809D01*
X57107701Y-75351386D01*
X57167011Y-75454113D01*
X57250887Y-75537989D01*
X57353614Y-75597299D01*
X57468191Y-75628000D01*
X57468194Y-75628000D01*
X57586806Y-75628000D01*
X57586809Y-75628000D01*
X57701386Y-75597299D01*
X57804113Y-75537989D01*
X57887989Y-75454113D01*
X57947299Y-75351386D01*
X57978000Y-75236809D01*
X57978000Y-75118191D01*
X57947299Y-75003614D01*
X57887989Y-74900887D01*
X57804113Y-74817011D01*
X57701386Y-74757701D01*
X57586809Y-74727000D01*
X57468191Y-74727000D01*
X57353614Y-74757701D01*
X57353612Y-74757701D01*
X57353612Y-74757702D01*
X57250887Y-74817011D01*
X57250884Y-74817013D01*
X57167013Y-74900884D01*
X57167011Y-74900887D01*
X57107701Y-75003614D01*
X57077000Y-75118191D01*
X49036034Y-75118191D01*
X49036034Y-72810089D01*
X49036184Y-72742384D01*
X49036237Y-72718191D01*
X56676970Y-72718191D01*
X56676970Y-72836809D01*
X56707671Y-72951386D01*
X56766981Y-73054113D01*
X56850857Y-73137989D01*
X56953584Y-73197299D01*
X57068161Y-73228000D01*
X57068164Y-73228000D01*
X57186776Y-73228000D01*
X57186779Y-73228000D01*
X57301356Y-73197299D01*
X57404083Y-73137989D01*
X57487959Y-73054113D01*
X57547269Y-72951386D01*
X57577970Y-72836809D01*
X57577970Y-72718191D01*
X57547269Y-72603614D01*
X57487959Y-72500887D01*
X57404083Y-72417011D01*
X57301356Y-72357701D01*
X57186779Y-72327000D01*
X57068161Y-72327000D01*
X56953584Y-72357701D01*
X56953582Y-72357701D01*
X56953582Y-72357702D01*
X56850857Y-72417011D01*
X56850854Y-72417013D01*
X56766983Y-72500884D01*
X56766981Y-72500887D01*
X56737784Y-72551458D01*
X56707671Y-72603614D01*
X56676970Y-72718191D01*
X49036237Y-72718191D01*
X49036256Y-72709790D01*
X49036256Y-72709789D01*
X49036387Y-72650500D01*
X49036524Y-72588506D01*
X49001741Y-72145797D01*
X48936740Y-71740691D01*
X48931388Y-71707336D01*
X48927166Y-71690069D01*
X48888081Y-71530201D01*
X48883634Y-71512013D01*
X48878421Y-71490691D01*
X51249500Y-71490691D01*
X51249500Y-71609309D01*
X51280201Y-71723886D01*
X51339511Y-71826613D01*
X51423387Y-71910489D01*
X51526114Y-71969799D01*
X51640691Y-72000500D01*
X51640694Y-72000500D01*
X51759306Y-72000500D01*
X51759309Y-72000500D01*
X51873886Y-71969799D01*
X51924302Y-71940691D01*
X62199500Y-71940691D01*
X62199500Y-72059309D01*
X62230201Y-72173886D01*
X62289511Y-72276613D01*
X62373387Y-72360489D01*
X62476114Y-72419799D01*
X62590691Y-72450500D01*
X62590694Y-72450500D01*
X62709300Y-72450500D01*
X62709309Y-72450500D01*
X62709317Y-72450497D01*
X62710074Y-72450398D01*
X62710729Y-72450500D01*
X62717436Y-72450500D01*
X62717436Y-72451545D01*
X62779111Y-72461155D01*
X62831373Y-72507528D01*
X62847190Y-72551513D01*
X62847397Y-72551458D01*
X62848057Y-72553923D01*
X62849214Y-72557139D01*
X62849499Y-72559303D01*
X62849500Y-72559306D01*
X62849500Y-72559309D01*
X62880201Y-72673886D01*
X62939511Y-72776613D01*
X63023387Y-72860489D01*
X63126114Y-72919799D01*
X63240691Y-72950500D01*
X63240694Y-72950500D01*
X63359306Y-72950500D01*
X63359309Y-72950500D01*
X63473886Y-72919799D01*
X63576613Y-72860489D01*
X63660489Y-72776613D01*
X63719799Y-72673886D01*
X63750500Y-72559309D01*
X63750500Y-72440691D01*
X63719799Y-72326114D01*
X63660489Y-72223387D01*
X63577793Y-72140691D01*
X67449500Y-72140691D01*
X67449500Y-72259309D01*
X67480201Y-72373886D01*
X67539511Y-72476613D01*
X67623387Y-72560489D01*
X67698078Y-72603612D01*
X67704027Y-72607047D01*
X67752242Y-72657615D01*
X67765464Y-72726222D01*
X67739496Y-72791087D01*
X67704027Y-72821820D01*
X67673393Y-72839506D01*
X67673384Y-72839513D01*
X67589513Y-72923384D01*
X67589511Y-72923387D01*
X67530201Y-73026114D01*
X67499500Y-73140691D01*
X67499500Y-73259309D01*
X67530201Y-73373886D01*
X67589511Y-73476613D01*
X67673387Y-73560489D01*
X67776114Y-73619799D01*
X67890691Y-73650500D01*
X67890694Y-73650500D01*
X68009306Y-73650500D01*
X68009309Y-73650500D01*
X68123886Y-73619799D01*
X68226613Y-73560489D01*
X68310489Y-73476613D01*
X68369799Y-73373886D01*
X68400500Y-73259309D01*
X68400500Y-73140691D01*
X68369799Y-73026114D01*
X68310489Y-72923387D01*
X68226613Y-72839511D01*
X68226610Y-72839509D01*
X68226606Y-72839506D01*
X68145972Y-72792951D01*
X68097757Y-72742384D01*
X68084535Y-72673776D01*
X68110503Y-72608912D01*
X68145971Y-72578180D01*
X68176613Y-72560489D01*
X68260489Y-72476613D01*
X68319799Y-72373886D01*
X68350500Y-72259309D01*
X68350500Y-72140691D01*
X68319799Y-72026114D01*
X68270480Y-71940691D01*
X80449500Y-71940691D01*
X80449500Y-72059309D01*
X80480201Y-72173886D01*
X80539511Y-72276613D01*
X80623387Y-72360489D01*
X80726114Y-72419799D01*
X80840691Y-72450500D01*
X80840694Y-72450500D01*
X80959306Y-72450500D01*
X80959309Y-72450500D01*
X81073886Y-72419799D01*
X81176613Y-72360489D01*
X81260489Y-72276613D01*
X81267613Y-72264274D01*
X81318180Y-72216058D01*
X81386787Y-72202836D01*
X81451652Y-72228804D01*
X81482387Y-72264274D01*
X81489508Y-72276609D01*
X81489510Y-72276611D01*
X81489511Y-72276613D01*
X81573387Y-72360489D01*
X81676114Y-72419799D01*
X81790691Y-72450500D01*
X81790694Y-72450500D01*
X81909306Y-72450500D01*
X81909309Y-72450500D01*
X82023886Y-72419799D01*
X82126613Y-72360489D01*
X82210489Y-72276613D01*
X82232506Y-72238477D01*
X82283071Y-72190264D01*
X82351678Y-72177040D01*
X82416543Y-72203008D01*
X82438267Y-72224991D01*
X82439509Y-72226610D01*
X82439511Y-72226613D01*
X82523387Y-72310489D01*
X82626114Y-72369799D01*
X82740691Y-72400500D01*
X82740694Y-72400500D01*
X82859306Y-72400500D01*
X82859309Y-72400500D01*
X82973886Y-72369799D01*
X83076613Y-72310489D01*
X83160489Y-72226613D01*
X83167613Y-72214274D01*
X83218180Y-72166058D01*
X83286787Y-72152836D01*
X83351652Y-72178804D01*
X83382387Y-72214274D01*
X83389508Y-72226609D01*
X83389510Y-72226611D01*
X83389511Y-72226613D01*
X83473387Y-72310489D01*
X83576114Y-72369799D01*
X83690691Y-72400500D01*
X83690694Y-72400500D01*
X83809306Y-72400500D01*
X83809309Y-72400500D01*
X83923886Y-72369799D01*
X84026613Y-72310489D01*
X84110489Y-72226613D01*
X84113517Y-72221367D01*
X84164083Y-72173153D01*
X84232690Y-72159929D01*
X84297555Y-72185897D01*
X84308585Y-72195687D01*
X84373387Y-72260489D01*
X84476114Y-72319799D01*
X84590691Y-72350500D01*
X84590694Y-72350500D01*
X84709306Y-72350500D01*
X84709309Y-72350500D01*
X84823886Y-72319799D01*
X84926613Y-72260489D01*
X85010489Y-72176613D01*
X85031819Y-72139667D01*
X85082384Y-72091454D01*
X85150991Y-72078230D01*
X85215856Y-72104198D01*
X85226886Y-72113988D01*
X85273387Y-72160489D01*
X85376114Y-72219799D01*
X85490691Y-72250500D01*
X85490694Y-72250500D01*
X85609306Y-72250500D01*
X85609309Y-72250500D01*
X85723886Y-72219799D01*
X85826613Y-72160489D01*
X85910489Y-72076613D01*
X85969799Y-71973886D01*
X86000500Y-71859309D01*
X86000500Y-71740691D01*
X85969799Y-71626114D01*
X85910489Y-71523387D01*
X85826613Y-71439511D01*
X85723886Y-71380201D01*
X85609309Y-71349500D01*
X85490691Y-71349500D01*
X85376114Y-71380201D01*
X85376112Y-71380201D01*
X85376112Y-71380202D01*
X85273387Y-71439511D01*
X85273384Y-71439513D01*
X85189513Y-71523384D01*
X85189509Y-71523390D01*
X85168180Y-71560332D01*
X85117612Y-71608547D01*
X85049005Y-71621768D01*
X84984141Y-71595799D01*
X84973113Y-71586011D01*
X84926615Y-71539513D01*
X84926613Y-71539511D01*
X84823886Y-71480201D01*
X84709309Y-71449500D01*
X84590691Y-71449500D01*
X84476114Y-71480201D01*
X84476112Y-71480201D01*
X84476112Y-71480202D01*
X84373387Y-71539511D01*
X84373384Y-71539513D01*
X84289513Y-71623384D01*
X84289506Y-71623393D01*
X84286477Y-71628640D01*
X84235906Y-71676851D01*
X84167297Y-71690069D01*
X84102435Y-71664095D01*
X84091414Y-71654312D01*
X84026615Y-71589513D01*
X84026613Y-71589511D01*
X83923886Y-71530201D01*
X83809309Y-71499500D01*
X83690691Y-71499500D01*
X83576114Y-71530201D01*
X83576112Y-71530201D01*
X83576112Y-71530202D01*
X83473387Y-71589511D01*
X83473384Y-71589513D01*
X83389513Y-71673384D01*
X83389511Y-71673387D01*
X83382386Y-71685728D01*
X83331817Y-71733942D01*
X83263210Y-71747163D01*
X83198346Y-71721194D01*
X83167614Y-71685728D01*
X83160489Y-71673387D01*
X83076613Y-71589511D01*
X82973886Y-71530201D01*
X82859309Y-71499500D01*
X82740691Y-71499500D01*
X82626114Y-71530201D01*
X82626112Y-71530201D01*
X82626112Y-71530202D01*
X82523387Y-71589511D01*
X82523384Y-71589513D01*
X82439513Y-71673384D01*
X82439509Y-71673390D01*
X82417493Y-71711522D01*
X82366925Y-71759736D01*
X82298318Y-71772958D01*
X82233454Y-71746989D01*
X82211731Y-71725006D01*
X82210487Y-71723385D01*
X82126615Y-71639513D01*
X82126613Y-71639511D01*
X82023886Y-71580201D01*
X81909309Y-71549500D01*
X81790691Y-71549500D01*
X81676114Y-71580201D01*
X81676112Y-71580201D01*
X81676112Y-71580202D01*
X81573387Y-71639511D01*
X81573384Y-71639513D01*
X81489513Y-71723384D01*
X81489511Y-71723387D01*
X81482386Y-71735728D01*
X81431817Y-71783942D01*
X81363210Y-71797163D01*
X81298346Y-71771194D01*
X81267614Y-71735728D01*
X81262063Y-71726114D01*
X81260489Y-71723387D01*
X81176613Y-71639511D01*
X81073886Y-71580201D01*
X80959309Y-71549500D01*
X80840691Y-71549500D01*
X80726114Y-71580201D01*
X80726112Y-71580201D01*
X80726112Y-71580202D01*
X80623387Y-71639511D01*
X80623384Y-71639513D01*
X80539513Y-71723384D01*
X80539511Y-71723387D01*
X80506709Y-71780202D01*
X80480201Y-71826114D01*
X80449500Y-71940691D01*
X68270480Y-71940691D01*
X68260489Y-71923387D01*
X68176613Y-71839511D01*
X68073886Y-71780201D01*
X67959309Y-71749500D01*
X67840691Y-71749500D01*
X67726114Y-71780201D01*
X67726112Y-71780201D01*
X67726112Y-71780202D01*
X67623387Y-71839511D01*
X67623384Y-71839513D01*
X67539513Y-71923384D01*
X67539511Y-71923387D01*
X67510355Y-71973887D01*
X67480201Y-72026114D01*
X67449500Y-72140691D01*
X63577793Y-72140691D01*
X63576613Y-72139511D01*
X63473886Y-72080201D01*
X63359309Y-72049500D01*
X63240691Y-72049500D01*
X63239909Y-72049603D01*
X63239248Y-72049500D01*
X63232564Y-72049500D01*
X63232564Y-72048457D01*
X63170874Y-72038838D01*
X63118618Y-71992458D01*
X63102810Y-71948486D01*
X63102603Y-71948542D01*
X63101937Y-71946059D01*
X63100784Y-71942850D01*
X63100500Y-71940694D01*
X63100500Y-71940693D01*
X63100500Y-71940691D01*
X63069799Y-71826114D01*
X63010489Y-71723387D01*
X62926613Y-71639511D01*
X62823886Y-71580201D01*
X62709309Y-71549500D01*
X62590691Y-71549500D01*
X62476114Y-71580201D01*
X62476112Y-71580201D01*
X62476112Y-71580202D01*
X62373387Y-71639511D01*
X62373384Y-71639513D01*
X62289513Y-71723384D01*
X62289511Y-71723387D01*
X62256709Y-71780202D01*
X62230201Y-71826114D01*
X62199500Y-71940691D01*
X51924302Y-71940691D01*
X51976613Y-71910489D01*
X52060489Y-71826613D01*
X52119799Y-71723886D01*
X52150500Y-71609309D01*
X52150500Y-71490691D01*
X52119799Y-71376114D01*
X52060489Y-71273387D01*
X51976613Y-71189511D01*
X51873886Y-71130201D01*
X51759309Y-71099500D01*
X51640691Y-71099500D01*
X51526114Y-71130201D01*
X51526112Y-71130201D01*
X51526112Y-71130202D01*
X51423387Y-71189511D01*
X51423384Y-71189513D01*
X51339513Y-71273384D01*
X51339511Y-71273387D01*
X51280201Y-71376114D01*
X51249500Y-71490691D01*
X48878421Y-71490691D01*
X48825923Y-71275965D01*
X48825919Y-71275952D01*
X48686031Y-70854503D01*
X48686027Y-70854493D01*
X48605505Y-70664657D01*
X48512624Y-70445682D01*
X48512617Y-70445668D01*
X48306839Y-70052188D01*
X48306826Y-70052166D01*
X48069988Y-69676530D01*
X48069985Y-69676527D01*
X48069982Y-69676521D01*
X47803646Y-69321208D01*
X47803644Y-69321206D01*
X47803639Y-69321199D01*
X47509517Y-68988493D01*
X47303965Y-68790691D01*
X51549500Y-68790691D01*
X51549500Y-68909309D01*
X51580201Y-69023886D01*
X51639511Y-69126613D01*
X51723387Y-69210489D01*
X51826114Y-69269799D01*
X51940691Y-69300500D01*
X51940694Y-69300500D01*
X52059306Y-69300500D01*
X52059309Y-69300500D01*
X52173886Y-69269799D01*
X52276613Y-69210489D01*
X52360489Y-69126613D01*
X52419799Y-69023886D01*
X52450500Y-68909309D01*
X52450500Y-68790691D01*
X52419799Y-68676114D01*
X52360489Y-68573387D01*
X52305293Y-68518191D01*
X56777000Y-68518191D01*
X56777000Y-68636809D01*
X56807701Y-68751386D01*
X56867011Y-68854113D01*
X56950887Y-68937989D01*
X57053614Y-68997299D01*
X57168191Y-69028000D01*
X57168194Y-69028000D01*
X57286806Y-69028000D01*
X57286809Y-69028000D01*
X57401386Y-68997299D01*
X57504113Y-68937989D01*
X57587989Y-68854113D01*
X57647299Y-68751386D01*
X57678000Y-68636809D01*
X57678000Y-68622973D01*
X60581782Y-68622973D01*
X60581782Y-68741591D01*
X60612483Y-68856168D01*
X60671793Y-68958895D01*
X60755669Y-69042771D01*
X60830937Y-69086227D01*
X60879152Y-69136795D01*
X60892374Y-69205402D01*
X60866406Y-69270266D01*
X60830938Y-69301000D01*
X60785890Y-69327009D01*
X60785884Y-69327013D01*
X60702013Y-69410884D01*
X60702011Y-69410887D01*
X60655935Y-69490693D01*
X60642701Y-69513614D01*
X60612000Y-69628191D01*
X60612000Y-69746809D01*
X60642701Y-69861386D01*
X60702011Y-69964113D01*
X60785887Y-70047989D01*
X60888614Y-70107299D01*
X61003191Y-70138000D01*
X61003194Y-70138000D01*
X61121806Y-70138000D01*
X61121809Y-70138000D01*
X61236386Y-70107299D01*
X61339113Y-70047989D01*
X61339120Y-70047981D01*
X61345559Y-70043042D01*
X61346648Y-70044461D01*
X61399142Y-70015798D01*
X61468834Y-70020782D01*
X61524767Y-70062654D01*
X61549184Y-70128118D01*
X61549500Y-70136964D01*
X61549500Y-70159309D01*
X61580201Y-70273886D01*
X61639511Y-70376613D01*
X61723387Y-70460489D01*
X61826114Y-70519799D01*
X61940691Y-70550500D01*
X61940694Y-70550500D01*
X61976562Y-70550500D01*
X62043601Y-70570185D01*
X62089356Y-70622989D01*
X62098282Y-70682564D01*
X62099500Y-70682564D01*
X62099500Y-70690691D01*
X62099500Y-70809309D01*
X62130201Y-70923886D01*
X62189511Y-71026613D01*
X62273387Y-71110489D01*
X62376114Y-71169799D01*
X62490691Y-71200500D01*
X62490694Y-71200500D01*
X62609306Y-71200500D01*
X62609309Y-71200500D01*
X62723886Y-71169799D01*
X62826613Y-71110489D01*
X62910489Y-71026613D01*
X62969799Y-70923886D01*
X63000500Y-70809309D01*
X63000500Y-70690691D01*
X62987102Y-70640691D01*
X76549500Y-70640691D01*
X76549500Y-70759309D01*
X76580201Y-70873886D01*
X76639511Y-70976613D01*
X76723387Y-71060489D01*
X76826114Y-71119799D01*
X76940691Y-71150500D01*
X76940694Y-71150500D01*
X77059306Y-71150500D01*
X77059309Y-71150500D01*
X77173886Y-71119799D01*
X77276613Y-71060489D01*
X77360489Y-70976613D01*
X77419799Y-70873886D01*
X77450500Y-70759309D01*
X77450500Y-70640691D01*
X77419799Y-70526114D01*
X77360489Y-70423387D01*
X77276613Y-70339511D01*
X77173886Y-70280201D01*
X77059309Y-70249500D01*
X76940691Y-70249500D01*
X76826114Y-70280201D01*
X76826112Y-70280201D01*
X76826112Y-70280202D01*
X76723387Y-70339511D01*
X76723384Y-70339513D01*
X76639513Y-70423384D01*
X76639511Y-70423387D01*
X76581803Y-70523340D01*
X76580201Y-70526114D01*
X76549500Y-70640691D01*
X62987102Y-70640691D01*
X62969799Y-70576114D01*
X62910489Y-70473387D01*
X62826613Y-70389511D01*
X62723886Y-70330201D01*
X62609309Y-70299500D01*
X62573438Y-70299500D01*
X62506399Y-70279815D01*
X62460644Y-70227011D01*
X62451718Y-70167436D01*
X62450500Y-70167436D01*
X62450500Y-70040693D01*
X62450500Y-70040691D01*
X62419799Y-69926114D01*
X62360489Y-69823387D01*
X62276613Y-69739511D01*
X62173886Y-69680201D01*
X62059309Y-69649500D01*
X61940691Y-69649500D01*
X61826114Y-69680201D01*
X61826112Y-69680201D01*
X61826112Y-69680202D01*
X61723387Y-69739511D01*
X61716941Y-69744458D01*
X61715851Y-69743038D01*
X61663358Y-69771702D01*
X61593666Y-69766718D01*
X61537733Y-69724846D01*
X61513316Y-69659382D01*
X61513000Y-69650536D01*
X61513000Y-69628193D01*
X61513000Y-69628191D01*
X61482299Y-69513614D01*
X61469064Y-69490691D01*
X77099500Y-69490691D01*
X77099500Y-69609309D01*
X77130201Y-69723886D01*
X77189511Y-69826613D01*
X77273387Y-69910489D01*
X77376114Y-69969799D01*
X77490691Y-70000500D01*
X77490694Y-70000500D01*
X77609306Y-70000500D01*
X77609309Y-70000500D01*
X77723886Y-69969799D01*
X77826613Y-69910489D01*
X77910489Y-69826613D01*
X77969799Y-69723886D01*
X78000500Y-69609309D01*
X78000500Y-69490691D01*
X77969799Y-69376114D01*
X77910489Y-69273387D01*
X77826613Y-69189511D01*
X77723886Y-69130201D01*
X77609309Y-69099500D01*
X77490691Y-69099500D01*
X77376114Y-69130201D01*
X77376112Y-69130201D01*
X77376112Y-69130202D01*
X77273387Y-69189511D01*
X77273384Y-69189513D01*
X77189513Y-69273384D01*
X77189511Y-69273387D01*
X77130201Y-69376114D01*
X77099500Y-69490691D01*
X61469064Y-69490691D01*
X61422989Y-69410887D01*
X61339113Y-69327011D01*
X61263844Y-69283554D01*
X61215629Y-69232986D01*
X61202407Y-69164379D01*
X61228375Y-69099514D01*
X61263841Y-69068782D01*
X61308895Y-69042771D01*
X61392771Y-68958895D01*
X61452081Y-68856168D01*
X61469626Y-68790691D01*
X63799500Y-68790691D01*
X63799500Y-68909309D01*
X63830201Y-69023886D01*
X63889511Y-69126613D01*
X63973387Y-69210489D01*
X64076114Y-69269799D01*
X64190691Y-69300500D01*
X64190694Y-69300500D01*
X64309306Y-69300500D01*
X64309309Y-69300500D01*
X64423886Y-69269799D01*
X64526613Y-69210489D01*
X64610489Y-69126613D01*
X64669799Y-69023886D01*
X64692091Y-68940691D01*
X65799500Y-68940691D01*
X65799500Y-69059309D01*
X65830201Y-69173886D01*
X65889511Y-69276613D01*
X65973387Y-69360489D01*
X66076114Y-69419799D01*
X66190691Y-69450500D01*
X66190694Y-69450500D01*
X66309306Y-69450500D01*
X66309309Y-69450500D01*
X66423886Y-69419799D01*
X66526613Y-69360489D01*
X66610489Y-69276613D01*
X66669799Y-69173886D01*
X66700500Y-69059309D01*
X66700500Y-68940691D01*
X66669799Y-68826114D01*
X66610489Y-68723387D01*
X66526613Y-68639511D01*
X66423886Y-68580201D01*
X66309309Y-68549500D01*
X66190691Y-68549500D01*
X66076114Y-68580201D01*
X66076112Y-68580201D01*
X66076112Y-68580202D01*
X65973387Y-68639511D01*
X65973384Y-68639513D01*
X65889513Y-68723384D01*
X65889511Y-68723387D01*
X65850652Y-68790693D01*
X65830201Y-68826114D01*
X65799500Y-68940691D01*
X64692091Y-68940691D01*
X64700500Y-68909309D01*
X64700500Y-68790691D01*
X64669799Y-68676114D01*
X64610489Y-68573387D01*
X64526613Y-68489511D01*
X64423886Y-68430201D01*
X64309309Y-68399500D01*
X64190691Y-68399500D01*
X64076114Y-68430201D01*
X64076112Y-68430201D01*
X64076112Y-68430202D01*
X63973387Y-68489511D01*
X63973384Y-68489513D01*
X63889513Y-68573384D01*
X63889511Y-68573387D01*
X63879111Y-68591401D01*
X63830201Y-68676114D01*
X63799500Y-68790691D01*
X61469626Y-68790691D01*
X61482782Y-68741591D01*
X61482782Y-68622973D01*
X61452081Y-68508396D01*
X61392771Y-68405669D01*
X61308895Y-68321793D01*
X61206168Y-68262483D01*
X61091591Y-68231782D01*
X60972973Y-68231782D01*
X60858396Y-68262483D01*
X60858394Y-68262483D01*
X60858394Y-68262484D01*
X60755669Y-68321793D01*
X60755666Y-68321795D01*
X60671795Y-68405666D01*
X60671793Y-68405669D01*
X60612483Y-68508396D01*
X60581782Y-68622973D01*
X57678000Y-68622973D01*
X57678000Y-68518191D01*
X57647299Y-68403614D01*
X57587989Y-68300887D01*
X57504113Y-68217011D01*
X57401386Y-68157701D01*
X57286809Y-68127000D01*
X57168191Y-68127000D01*
X57053614Y-68157701D01*
X57053612Y-68157701D01*
X57053612Y-68157702D01*
X56950887Y-68217011D01*
X56950884Y-68217013D01*
X56867013Y-68300884D01*
X56867011Y-68300887D01*
X56810105Y-68399451D01*
X56807701Y-68403614D01*
X56777000Y-68518191D01*
X52305293Y-68518191D01*
X52276613Y-68489511D01*
X52173886Y-68430201D01*
X52059309Y-68399500D01*
X51940691Y-68399500D01*
X51826114Y-68430201D01*
X51826112Y-68430201D01*
X51826112Y-68430202D01*
X51723387Y-68489511D01*
X51723384Y-68489513D01*
X51639513Y-68573384D01*
X51639511Y-68573387D01*
X51629111Y-68591401D01*
X51580201Y-68676114D01*
X51549500Y-68790691D01*
X47303965Y-68790691D01*
X47189535Y-68680576D01*
X47189530Y-68680572D01*
X47189527Y-68680569D01*
X46845790Y-68399462D01*
X46845780Y-68399454D01*
X46831187Y-68389367D01*
X46480476Y-68146949D01*
X46185798Y-67976612D01*
X46096008Y-67924709D01*
X45694901Y-67734193D01*
X45694889Y-67734188D01*
X45694887Y-67734187D01*
X45536006Y-67673886D01*
X45279713Y-67576613D01*
X45193614Y-67551664D01*
X44853185Y-67453015D01*
X44792833Y-67440691D01*
X60449500Y-67440691D01*
X60449500Y-67559309D01*
X60480201Y-67673886D01*
X60539511Y-67776613D01*
X60623387Y-67860489D01*
X60726114Y-67919799D01*
X60840691Y-67950500D01*
X60840694Y-67950500D01*
X60959306Y-67950500D01*
X60959309Y-67950500D01*
X61073886Y-67919799D01*
X61176613Y-67860489D01*
X61260489Y-67776613D01*
X61319799Y-67673886D01*
X61328694Y-67640691D01*
X63749500Y-67640691D01*
X63749500Y-67759309D01*
X63780201Y-67873886D01*
X63839511Y-67976613D01*
X63923387Y-68060489D01*
X64026114Y-68119799D01*
X64140691Y-68150500D01*
X64140694Y-68150500D01*
X64259306Y-68150500D01*
X64259309Y-68150500D01*
X64373886Y-68119799D01*
X64476613Y-68060489D01*
X64560489Y-67976613D01*
X64619799Y-67873886D01*
X64650500Y-67759309D01*
X64650500Y-67640691D01*
X64619799Y-67526114D01*
X64560489Y-67423387D01*
X64476613Y-67339511D01*
X64373886Y-67280201D01*
X64259309Y-67249500D01*
X64140691Y-67249500D01*
X64026114Y-67280201D01*
X64026112Y-67280201D01*
X64026112Y-67280202D01*
X63923387Y-67339511D01*
X63923384Y-67339513D01*
X63839513Y-67423384D01*
X63839511Y-67423387D01*
X63780201Y-67526114D01*
X63749500Y-67640691D01*
X61328694Y-67640691D01*
X61350500Y-67559309D01*
X61350500Y-67440691D01*
X61319799Y-67326114D01*
X61260489Y-67223387D01*
X61176613Y-67139511D01*
X61161926Y-67131031D01*
X61113711Y-67080465D01*
X61100489Y-67011858D01*
X61126457Y-66946993D01*
X61183371Y-66906465D01*
X61207744Y-66900706D01*
X61209304Y-66900500D01*
X61209309Y-66900500D01*
X61245916Y-66890691D01*
X64649500Y-66890691D01*
X64649500Y-67009309D01*
X64680201Y-67123886D01*
X64739511Y-67226613D01*
X64823387Y-67310489D01*
X64926114Y-67369799D01*
X65040691Y-67400500D01*
X65040694Y-67400500D01*
X65159306Y-67400500D01*
X65159309Y-67400500D01*
X65273886Y-67369799D01*
X65376613Y-67310489D01*
X65460489Y-67226613D01*
X65519799Y-67123886D01*
X65550500Y-67009309D01*
X65550500Y-66890691D01*
X65519799Y-66776114D01*
X65460489Y-66673387D01*
X65376613Y-66589511D01*
X65273886Y-66530201D01*
X65159309Y-66499500D01*
X65040691Y-66499500D01*
X64926114Y-66530201D01*
X64926112Y-66530201D01*
X64926112Y-66530202D01*
X64823387Y-66589511D01*
X64823384Y-66589513D01*
X64739513Y-66673384D01*
X64739511Y-66673387D01*
X64708780Y-66726615D01*
X64680201Y-66776114D01*
X64649500Y-66890691D01*
X61245916Y-66890691D01*
X61323886Y-66869799D01*
X61426613Y-66810489D01*
X61510489Y-66726613D01*
X61569799Y-66623886D01*
X61600500Y-66509309D01*
X61600500Y-66390691D01*
X61569799Y-66276114D01*
X61510489Y-66173387D01*
X61426613Y-66089511D01*
X61323886Y-66030201D01*
X61219901Y-66002338D01*
X61216352Y-66001387D01*
X61209309Y-65999500D01*
X61090691Y-65999500D01*
X60976114Y-66030201D01*
X60976112Y-66030201D01*
X60976112Y-66030202D01*
X60873387Y-66089511D01*
X60873384Y-66089513D01*
X60789513Y-66173384D01*
X60789511Y-66173387D01*
X60758780Y-66226615D01*
X60730201Y-66276114D01*
X60699500Y-66390691D01*
X60699500Y-66509309D01*
X60730201Y-66623886D01*
X60789511Y-66726613D01*
X60873387Y-66810489D01*
X60888072Y-66818967D01*
X60936287Y-66869533D01*
X60949511Y-66938139D01*
X60923544Y-67003005D01*
X60866630Y-67043534D01*
X60842270Y-67049292D01*
X60840695Y-67049499D01*
X60840691Y-67049500D01*
X60726114Y-67080201D01*
X60726112Y-67080201D01*
X60726112Y-67080202D01*
X60623387Y-67139511D01*
X60623384Y-67139513D01*
X60539513Y-67223384D01*
X60539511Y-67223387D01*
X60482217Y-67322623D01*
X60480201Y-67326114D01*
X60449500Y-67440691D01*
X44792833Y-67440691D01*
X44707559Y-67423278D01*
X44700212Y-67421777D01*
X44700194Y-67421769D01*
X44646333Y-67410775D01*
X44640192Y-67409521D01*
X44638260Y-67409127D01*
X44633085Y-67407955D01*
X44267209Y-67316808D01*
X44257033Y-67313805D01*
X43902830Y-67192583D01*
X43892948Y-67188721D01*
X43550403Y-67037663D01*
X43540887Y-67032970D01*
X43212514Y-66853185D01*
X43203434Y-66847696D01*
X42891634Y-66640498D01*
X42883063Y-66634259D01*
X42590090Y-66401144D01*
X42582091Y-66394199D01*
X42515636Y-66331327D01*
X42310141Y-66136912D01*
X42302754Y-66129299D01*
X42300906Y-66127224D01*
X42290043Y-66115024D01*
X42290042Y-66115022D01*
X42223855Y-66040691D01*
X56249500Y-66040691D01*
X56249500Y-66159309D01*
X56280201Y-66273886D01*
X56339511Y-66376613D01*
X56423387Y-66460489D01*
X56526114Y-66519799D01*
X56640691Y-66550500D01*
X56640694Y-66550500D01*
X56759306Y-66550500D01*
X56759309Y-66550500D01*
X56873886Y-66519799D01*
X56976613Y-66460489D01*
X57060489Y-66376613D01*
X57119799Y-66273886D01*
X57150500Y-66159309D01*
X57150500Y-66040691D01*
X57119799Y-65926114D01*
X57099347Y-65890691D01*
X72349500Y-65890691D01*
X72349500Y-66009309D01*
X72380201Y-66123886D01*
X72439511Y-66226613D01*
X72523387Y-66310489D01*
X72626114Y-66369799D01*
X72740691Y-66400500D01*
X72740694Y-66400500D01*
X72859306Y-66400500D01*
X72859309Y-66400500D01*
X72973886Y-66369799D01*
X73076613Y-66310489D01*
X73160489Y-66226613D01*
X73219799Y-66123886D01*
X73250500Y-66009309D01*
X73250500Y-65890691D01*
X73219799Y-65776114D01*
X73160489Y-65673387D01*
X73076613Y-65589511D01*
X72973886Y-65530201D01*
X72859309Y-65499500D01*
X72740691Y-65499500D01*
X72626114Y-65530201D01*
X72626112Y-65530201D01*
X72626112Y-65530202D01*
X72523387Y-65589511D01*
X72523384Y-65589513D01*
X72439513Y-65673384D01*
X72439511Y-65673387D01*
X72401391Y-65739413D01*
X72380201Y-65776114D01*
X72349500Y-65890691D01*
X57099347Y-65890691D01*
X57060489Y-65823387D01*
X56976613Y-65739511D01*
X56873886Y-65680201D01*
X56759309Y-65649500D01*
X56640691Y-65649500D01*
X56526114Y-65680201D01*
X56526112Y-65680201D01*
X56526112Y-65680202D01*
X56423387Y-65739511D01*
X56423384Y-65739513D01*
X56339513Y-65823384D01*
X56339511Y-65823387D01*
X56300652Y-65890693D01*
X56280201Y-65926114D01*
X56249500Y-66040691D01*
X42223855Y-66040691D01*
X42053792Y-65849703D01*
X42047081Y-65841484D01*
X41822929Y-65541624D01*
X41816946Y-65532862D01*
X41619257Y-65214951D01*
X41614045Y-65205710D01*
X41444252Y-64872056D01*
X41439849Y-64862403D01*
X41299193Y-64515437D01*
X41295644Y-64505480D01*
X41185166Y-64147763D01*
X41182473Y-64137507D01*
X41102976Y-63771642D01*
X41101176Y-63761226D01*
X41053246Y-63389898D01*
X41052342Y-63379367D01*
X41036146Y-63000953D01*
X41036034Y-62995684D01*
X41036035Y-62934120D01*
X41036034Y-62934116D01*
X41036034Y-60988543D01*
X41459499Y-60988543D01*
X41497947Y-61181829D01*
X41497950Y-61181839D01*
X41573364Y-61363907D01*
X41573371Y-61363920D01*
X41682860Y-61527781D01*
X41682863Y-61527785D01*
X41822214Y-61667136D01*
X41822218Y-61667139D01*
X41986079Y-61776628D01*
X41986092Y-61776635D01*
X42168160Y-61852049D01*
X42168165Y-61852051D01*
X42168169Y-61852051D01*
X42168170Y-61852052D01*
X42361456Y-61890500D01*
X42361459Y-61890500D01*
X42558543Y-61890500D01*
X42688582Y-61864632D01*
X42751835Y-61852051D01*
X42933914Y-61776632D01*
X43097782Y-61667139D01*
X43237139Y-61527782D01*
X43346632Y-61363914D01*
X43348540Y-61359309D01*
X43422049Y-61181839D01*
X43422051Y-61181835D01*
X43460500Y-60988543D01*
X43999499Y-60988543D01*
X44037947Y-61181829D01*
X44037950Y-61181839D01*
X44113364Y-61363907D01*
X44113371Y-61363920D01*
X44222860Y-61527781D01*
X44222863Y-61527785D01*
X44362214Y-61667136D01*
X44362218Y-61667139D01*
X44526079Y-61776628D01*
X44526092Y-61776635D01*
X44708160Y-61852049D01*
X44708165Y-61852051D01*
X44708169Y-61852051D01*
X44708170Y-61852052D01*
X44901456Y-61890500D01*
X44901459Y-61890500D01*
X45098543Y-61890500D01*
X45228582Y-61864632D01*
X45291835Y-61852051D01*
X45473914Y-61776632D01*
X45637782Y-61667139D01*
X45777139Y-61527782D01*
X45886632Y-61363914D01*
X45888540Y-61359309D01*
X45962049Y-61181839D01*
X45962051Y-61181835D01*
X46000500Y-60988543D01*
X90999499Y-60988543D01*
X91037947Y-61181829D01*
X91037950Y-61181839D01*
X91113364Y-61363907D01*
X91113371Y-61363920D01*
X91222860Y-61527781D01*
X91222863Y-61527785D01*
X91362214Y-61667136D01*
X91362218Y-61667139D01*
X91526079Y-61776628D01*
X91526092Y-61776635D01*
X91708160Y-61852049D01*
X91708165Y-61852051D01*
X91708169Y-61852051D01*
X91708170Y-61852052D01*
X91901456Y-61890500D01*
X91901459Y-61890500D01*
X92098543Y-61890500D01*
X92228582Y-61864632D01*
X92291835Y-61852051D01*
X92473914Y-61776632D01*
X92637782Y-61667139D01*
X92777139Y-61527782D01*
X92791981Y-61505568D01*
X92845593Y-61460763D01*
X92914918Y-61452056D01*
X92977946Y-61482210D01*
X93002470Y-61512456D01*
X93039511Y-61576613D01*
X93123387Y-61660489D01*
X93226114Y-61719799D01*
X93340691Y-61750500D01*
X93340694Y-61750500D01*
X93449733Y-61750500D01*
X93516772Y-61770185D01*
X93552835Y-61805610D01*
X93581496Y-61848504D01*
X93631278Y-61881767D01*
X93631281Y-61881767D01*
X93631282Y-61881768D01*
X93675177Y-61890500D01*
X93675180Y-61890500D01*
X95404822Y-61890500D01*
X95448717Y-61881768D01*
X95448717Y-61881767D01*
X95448722Y-61881767D01*
X95498504Y-61848504D01*
X95531767Y-61798722D01*
X95540500Y-61754820D01*
X95540500Y-60025180D01*
X95540500Y-60025177D01*
X95531768Y-59981282D01*
X95531767Y-59981281D01*
X95531767Y-59981278D01*
X95498504Y-59931496D01*
X95493197Y-59927950D01*
X95448724Y-59898234D01*
X95448717Y-59898231D01*
X95404822Y-59889500D01*
X95404820Y-59889500D01*
X93675180Y-59889500D01*
X93675178Y-59889500D01*
X93631282Y-59898231D01*
X93631275Y-59898234D01*
X93581496Y-59931495D01*
X93581495Y-59931496D01*
X93548234Y-59981275D01*
X93548231Y-59981282D01*
X93539500Y-60025177D01*
X93539500Y-60725500D01*
X93519815Y-60792539D01*
X93467011Y-60838294D01*
X93415500Y-60849500D01*
X93340691Y-60849500D01*
X93226114Y-60880201D01*
X93226112Y-60880201D01*
X93226112Y-60880202D01*
X93186501Y-60903072D01*
X93118601Y-60919545D01*
X93052574Y-60896693D01*
X93009383Y-60841772D01*
X93000500Y-60795685D01*
X93000500Y-60791456D01*
X92962052Y-60598170D01*
X92962051Y-60598169D01*
X92962051Y-60598165D01*
X92962049Y-60598160D01*
X92886635Y-60416092D01*
X92886628Y-60416079D01*
X92777139Y-60252218D01*
X92777136Y-60252214D01*
X92637785Y-60112863D01*
X92637781Y-60112860D01*
X92473920Y-60003371D01*
X92473907Y-60003364D01*
X92291839Y-59927950D01*
X92291829Y-59927947D01*
X92098543Y-59889500D01*
X92098541Y-59889500D01*
X91901459Y-59889500D01*
X91901457Y-59889500D01*
X91708170Y-59927947D01*
X91708160Y-59927950D01*
X91526092Y-60003364D01*
X91526074Y-60003374D01*
X91397074Y-60089568D01*
X91397059Y-60089580D01*
X91362218Y-60112861D01*
X91307272Y-60167806D01*
X91307257Y-60167820D01*
X91222860Y-60252218D01*
X91113371Y-60416079D01*
X91113364Y-60416092D01*
X91037950Y-60598160D01*
X91037947Y-60598170D01*
X90999500Y-60791456D01*
X90999500Y-60791459D01*
X90999500Y-60988541D01*
X90999500Y-60988543D01*
X90999499Y-60988543D01*
X46000500Y-60988543D01*
X46000500Y-60988541D01*
X46000500Y-60791459D01*
X46000500Y-60791456D01*
X45962052Y-60598170D01*
X45962051Y-60598169D01*
X45962051Y-60598165D01*
X45962049Y-60598160D01*
X45886635Y-60416092D01*
X45886628Y-60416079D01*
X45777139Y-60252218D01*
X45777136Y-60252214D01*
X45637785Y-60112863D01*
X45637781Y-60112860D01*
X45473920Y-60003371D01*
X45473907Y-60003364D01*
X45291839Y-59927950D01*
X45291829Y-59927947D01*
X45098543Y-59889500D01*
X45098541Y-59889500D01*
X44901459Y-59889500D01*
X44901457Y-59889500D01*
X44708170Y-59927947D01*
X44708160Y-59927950D01*
X44526092Y-60003364D01*
X44526079Y-60003371D01*
X44362218Y-60112860D01*
X44362214Y-60112863D01*
X44222863Y-60252214D01*
X44222860Y-60252218D01*
X44113371Y-60416079D01*
X44113364Y-60416092D01*
X44037950Y-60598160D01*
X44037947Y-60598170D01*
X43999500Y-60791456D01*
X43999500Y-60791459D01*
X43999500Y-60988541D01*
X43999500Y-60988543D01*
X43999499Y-60988543D01*
X43460500Y-60988543D01*
X43460500Y-60988541D01*
X43460500Y-60791459D01*
X43460500Y-60791456D01*
X43422052Y-60598170D01*
X43422051Y-60598169D01*
X43422051Y-60598165D01*
X43422049Y-60598160D01*
X43346635Y-60416092D01*
X43346628Y-60416079D01*
X43237139Y-60252218D01*
X43237136Y-60252214D01*
X43097785Y-60112863D01*
X43097781Y-60112860D01*
X42933920Y-60003371D01*
X42933907Y-60003364D01*
X42751839Y-59927950D01*
X42751829Y-59927947D01*
X42558543Y-59889500D01*
X42558541Y-59889500D01*
X42361459Y-59889500D01*
X42361457Y-59889500D01*
X42168170Y-59927947D01*
X42168160Y-59927950D01*
X41986092Y-60003364D01*
X41986079Y-60003371D01*
X41822218Y-60112860D01*
X41822214Y-60112863D01*
X41682863Y-60252214D01*
X41682860Y-60252218D01*
X41573371Y-60416079D01*
X41573364Y-60416092D01*
X41497950Y-60598160D01*
X41497947Y-60598170D01*
X41459500Y-60791456D01*
X41459500Y-60791459D01*
X41459500Y-60988541D01*
X41459500Y-60988543D01*
X41459499Y-60988543D01*
X41036034Y-60988543D01*
X41036034Y-59540691D01*
X90449500Y-59540691D01*
X90449500Y-59659309D01*
X90480201Y-59773886D01*
X90539511Y-59876613D01*
X90623387Y-59960489D01*
X90726114Y-60019799D01*
X90840691Y-60050500D01*
X90840694Y-60050500D01*
X90959306Y-60050500D01*
X90959309Y-60050500D01*
X91073886Y-60019799D01*
X91176613Y-59960489D01*
X91260489Y-59876613D01*
X91319799Y-59773886D01*
X91350500Y-59659309D01*
X91350500Y-59540691D01*
X91319799Y-59426114D01*
X91278034Y-59353776D01*
X91261562Y-59285878D01*
X91284414Y-59219851D01*
X91339335Y-59176660D01*
X91408888Y-59170018D01*
X91454313Y-59188675D01*
X91526079Y-59236628D01*
X91526092Y-59236635D01*
X91622609Y-59276613D01*
X91708165Y-59312051D01*
X91708169Y-59312051D01*
X91708170Y-59312052D01*
X91901456Y-59350500D01*
X91901459Y-59350500D01*
X92098543Y-59350500D01*
X92268122Y-59316768D01*
X92337714Y-59322995D01*
X92392891Y-59365858D01*
X92412089Y-59406291D01*
X92430201Y-59473887D01*
X92459856Y-59525249D01*
X92489511Y-59576613D01*
X92573387Y-59660489D01*
X92676114Y-59719799D01*
X92790691Y-59750500D01*
X92790694Y-59750500D01*
X92909306Y-59750500D01*
X92909309Y-59750500D01*
X93023886Y-59719799D01*
X93126613Y-59660489D01*
X93210489Y-59576613D01*
X93269799Y-59473886D01*
X93300500Y-59359309D01*
X93300500Y-59240691D01*
X93269799Y-59126114D01*
X93210489Y-59023387D01*
X93126613Y-58939511D01*
X93067302Y-58905267D01*
X93023885Y-58880200D01*
X93015928Y-58878068D01*
X92956270Y-58841700D01*
X92925744Y-58778852D01*
X92933466Y-58710843D01*
X92962051Y-58641835D01*
X93000500Y-58448541D01*
X93000500Y-58251459D01*
X93000500Y-58251456D01*
X92962052Y-58058170D01*
X92962051Y-58058169D01*
X92962051Y-58058165D01*
X92962049Y-58058160D01*
X92886635Y-57876092D01*
X92886628Y-57876079D01*
X92777139Y-57712218D01*
X92777136Y-57712214D01*
X92637785Y-57572863D01*
X92637781Y-57572860D01*
X92473920Y-57463371D01*
X92473907Y-57463364D01*
X92291839Y-57387950D01*
X92291829Y-57387947D01*
X92098543Y-57349500D01*
X92098541Y-57349500D01*
X91901459Y-57349500D01*
X91901457Y-57349500D01*
X91708170Y-57387947D01*
X91708160Y-57387950D01*
X91526092Y-57463364D01*
X91526079Y-57463371D01*
X91362218Y-57572860D01*
X91362214Y-57572863D01*
X91222863Y-57712214D01*
X91222860Y-57712218D01*
X91113371Y-57876079D01*
X91113364Y-57876092D01*
X91037950Y-58058160D01*
X91037947Y-58058170D01*
X90999500Y-58251456D01*
X90999500Y-58251459D01*
X90999500Y-58448541D01*
X90999500Y-58448543D01*
X90999499Y-58448543D01*
X91037947Y-58641829D01*
X91037950Y-58641839D01*
X91113364Y-58823907D01*
X91113371Y-58823920D01*
X91222860Y-58987782D01*
X91224795Y-58990139D01*
X91225422Y-58991615D01*
X91226245Y-58992847D01*
X91226011Y-58993003D01*
X91252108Y-59054448D01*
X91240317Y-59123316D01*
X91193165Y-59174876D01*
X91125623Y-59192760D01*
X91082508Y-59180636D01*
X91081400Y-59183313D01*
X91073890Y-59180202D01*
X91050318Y-59173886D01*
X90959309Y-59149500D01*
X90840691Y-59149500D01*
X90726114Y-59180201D01*
X90726112Y-59180201D01*
X90726112Y-59180202D01*
X90623387Y-59239511D01*
X90623383Y-59239514D01*
X90589600Y-59273297D01*
X90589598Y-59273299D01*
X90539511Y-59323387D01*
X90480201Y-59426114D01*
X90449500Y-59540691D01*
X41036034Y-59540691D01*
X41036034Y-58448543D01*
X41459499Y-58448543D01*
X41497947Y-58641829D01*
X41497950Y-58641839D01*
X41573364Y-58823907D01*
X41573371Y-58823920D01*
X41682860Y-58987781D01*
X41682863Y-58987785D01*
X41822214Y-59127136D01*
X41822218Y-59127139D01*
X41986079Y-59236628D01*
X41986092Y-59236635D01*
X42082609Y-59276613D01*
X42168165Y-59312051D01*
X42168169Y-59312051D01*
X42168170Y-59312052D01*
X42361456Y-59350500D01*
X42361459Y-59350500D01*
X42558543Y-59350500D01*
X42728121Y-59316768D01*
X42751835Y-59312051D01*
X42926956Y-59239514D01*
X42933907Y-59236635D01*
X42933907Y-59236634D01*
X42933914Y-59236632D01*
X43097782Y-59127139D01*
X43237139Y-58987782D01*
X43346632Y-58823914D01*
X43422051Y-58641835D01*
X43460500Y-58448543D01*
X43999499Y-58448543D01*
X44037947Y-58641829D01*
X44037950Y-58641839D01*
X44113364Y-58823907D01*
X44113371Y-58823920D01*
X44222860Y-58987781D01*
X44222863Y-58987785D01*
X44362214Y-59127136D01*
X44362218Y-59127139D01*
X44526079Y-59236628D01*
X44526092Y-59236635D01*
X44622609Y-59276613D01*
X44708165Y-59312051D01*
X44708169Y-59312051D01*
X44708170Y-59312052D01*
X44901456Y-59350500D01*
X44901459Y-59350500D01*
X45098543Y-59350500D01*
X45268121Y-59316768D01*
X45291835Y-59312051D01*
X45466956Y-59239514D01*
X45473907Y-59236635D01*
X45473907Y-59236634D01*
X45473914Y-59236632D01*
X45637782Y-59127139D01*
X45777139Y-58987782D01*
X45886632Y-58823914D01*
X45962051Y-58641835D01*
X45982170Y-58540691D01*
X63449500Y-58540691D01*
X63449500Y-58659309D01*
X63480201Y-58773886D01*
X63539511Y-58876613D01*
X63623387Y-58960489D01*
X63726114Y-59019799D01*
X63840691Y-59050500D01*
X63840694Y-59050500D01*
X63959306Y-59050500D01*
X63959309Y-59050500D01*
X64073886Y-59019799D01*
X64176613Y-58960489D01*
X64196411Y-58940691D01*
X89499500Y-58940691D01*
X89499500Y-59059309D01*
X89530201Y-59173886D01*
X89589511Y-59276613D01*
X89673387Y-59360489D01*
X89776114Y-59419799D01*
X89890691Y-59450500D01*
X89890694Y-59450500D01*
X90009306Y-59450500D01*
X90009309Y-59450500D01*
X90123886Y-59419799D01*
X90226613Y-59360489D01*
X90310489Y-59276613D01*
X90369799Y-59173886D01*
X90400500Y-59059309D01*
X90400500Y-58940691D01*
X90369799Y-58826114D01*
X90310489Y-58723387D01*
X90226613Y-58639511D01*
X90123886Y-58580201D01*
X90009309Y-58549500D01*
X89890691Y-58549500D01*
X89776114Y-58580201D01*
X89776112Y-58580201D01*
X89776112Y-58580202D01*
X89673387Y-58639511D01*
X89673384Y-58639513D01*
X89589513Y-58723384D01*
X89589511Y-58723387D01*
X89560355Y-58773887D01*
X89530201Y-58826114D01*
X89499500Y-58940691D01*
X64196411Y-58940691D01*
X64260489Y-58876613D01*
X64319799Y-58773886D01*
X64350500Y-58659309D01*
X64350500Y-58540691D01*
X64319799Y-58426114D01*
X64260489Y-58323387D01*
X64176613Y-58239511D01*
X64073886Y-58180201D01*
X63959309Y-58149500D01*
X63840691Y-58149500D01*
X63726114Y-58180201D01*
X63726112Y-58180201D01*
X63726112Y-58180202D01*
X63623387Y-58239511D01*
X63623384Y-58239513D01*
X63539513Y-58323384D01*
X63539511Y-58323387D01*
X63480201Y-58426114D01*
X63449500Y-58540691D01*
X45982170Y-58540691D01*
X46000500Y-58448541D01*
X46000500Y-58251459D01*
X46000500Y-58251456D01*
X45962052Y-58058170D01*
X45962051Y-58058169D01*
X45962051Y-58058165D01*
X45962049Y-58058160D01*
X45886635Y-57876092D01*
X45886628Y-57876079D01*
X45777139Y-57712218D01*
X45777136Y-57712214D01*
X45637785Y-57572863D01*
X45637781Y-57572860D01*
X45473920Y-57463371D01*
X45473907Y-57463364D01*
X45291839Y-57387950D01*
X45291829Y-57387947D01*
X45098543Y-57349500D01*
X45098541Y-57349500D01*
X44901459Y-57349500D01*
X44901457Y-57349500D01*
X44708170Y-57387947D01*
X44708160Y-57387950D01*
X44526092Y-57463364D01*
X44526079Y-57463371D01*
X44362218Y-57572860D01*
X44362214Y-57572863D01*
X44222863Y-57712214D01*
X44222860Y-57712218D01*
X44113371Y-57876079D01*
X44113364Y-57876092D01*
X44037950Y-58058160D01*
X44037947Y-58058170D01*
X43999500Y-58251456D01*
X43999500Y-58251459D01*
X43999500Y-58448541D01*
X43999500Y-58448543D01*
X43999499Y-58448543D01*
X43460500Y-58448543D01*
X43460500Y-58448541D01*
X43460500Y-58251459D01*
X43460500Y-58251456D01*
X43422052Y-58058170D01*
X43422051Y-58058169D01*
X43422051Y-58058165D01*
X43422049Y-58058160D01*
X43346635Y-57876092D01*
X43346628Y-57876079D01*
X43237139Y-57712218D01*
X43237136Y-57712214D01*
X43097785Y-57572863D01*
X43097781Y-57572860D01*
X42933920Y-57463371D01*
X42933907Y-57463364D01*
X42751839Y-57387950D01*
X42751829Y-57387947D01*
X42558543Y-57349500D01*
X42558541Y-57349500D01*
X42361459Y-57349500D01*
X42361457Y-57349500D01*
X42168170Y-57387947D01*
X42168160Y-57387950D01*
X41986092Y-57463364D01*
X41986079Y-57463371D01*
X41822218Y-57572860D01*
X41822214Y-57572863D01*
X41682863Y-57712214D01*
X41682860Y-57712218D01*
X41573371Y-57876079D01*
X41573364Y-57876092D01*
X41497950Y-58058160D01*
X41497947Y-58058170D01*
X41459500Y-58251456D01*
X41459500Y-58251459D01*
X41459500Y-58448541D01*
X41459500Y-58448543D01*
X41459499Y-58448543D01*
X41036034Y-58448543D01*
X41036034Y-55940691D01*
X51649500Y-55940691D01*
X51649500Y-56059309D01*
X51680201Y-56173886D01*
X51739511Y-56276613D01*
X51823387Y-56360489D01*
X51926114Y-56419799D01*
X52040691Y-56450500D01*
X52040694Y-56450500D01*
X52159306Y-56450500D01*
X52159309Y-56450500D01*
X52273886Y-56419799D01*
X52376613Y-56360489D01*
X52460489Y-56276613D01*
X52519799Y-56173886D01*
X52550500Y-56059309D01*
X52550500Y-55940691D01*
X52519799Y-55826114D01*
X52460489Y-55723387D01*
X52376613Y-55639511D01*
X52273886Y-55580201D01*
X52159309Y-55549500D01*
X52040691Y-55549500D01*
X51926114Y-55580201D01*
X51926112Y-55580201D01*
X51926112Y-55580202D01*
X51823387Y-55639511D01*
X51823384Y-55639513D01*
X51739513Y-55723384D01*
X51739511Y-55723387D01*
X51680201Y-55826114D01*
X51649500Y-55940691D01*
X41036034Y-55940691D01*
X41036034Y-55390691D01*
X65399500Y-55390691D01*
X65399500Y-55509309D01*
X65430201Y-55623886D01*
X65489511Y-55726613D01*
X65573387Y-55810489D01*
X65676114Y-55869799D01*
X65790691Y-55900500D01*
X65790694Y-55900500D01*
X65909306Y-55900500D01*
X65909309Y-55900500D01*
X66023886Y-55869799D01*
X66126613Y-55810489D01*
X66210489Y-55726613D01*
X66269799Y-55623886D01*
X66276302Y-55599616D01*
X74174500Y-55599616D01*
X74174500Y-55800384D01*
X74178575Y-55826112D01*
X74205907Y-55998680D01*
X74267949Y-56189626D01*
X74315992Y-56283914D01*
X74359095Y-56368508D01*
X74477103Y-56530932D01*
X74619068Y-56672897D01*
X74781492Y-56790905D01*
X74833307Y-56817306D01*
X74960373Y-56882050D01*
X74960375Y-56882050D01*
X74960378Y-56882052D01*
X75151320Y-56944093D01*
X75349616Y-56975500D01*
X75349617Y-56975500D01*
X75550383Y-56975500D01*
X75550384Y-56975500D01*
X75748680Y-56944093D01*
X75939622Y-56882052D01*
X76118508Y-56790905D01*
X76280932Y-56672897D01*
X76422897Y-56530932D01*
X76540905Y-56368508D01*
X76632052Y-56189622D01*
X76694093Y-55998680D01*
X76725500Y-55800384D01*
X76725500Y-55599616D01*
X76722425Y-55580201D01*
X76713993Y-55526961D01*
X76712208Y-55515691D01*
X89074500Y-55515691D01*
X89074500Y-55634309D01*
X89105201Y-55748886D01*
X89164511Y-55851613D01*
X89248387Y-55935489D01*
X89351114Y-55994799D01*
X89465691Y-56025500D01*
X89465694Y-56025500D01*
X89584306Y-56025500D01*
X89584309Y-56025500D01*
X89698886Y-55994799D01*
X89801613Y-55935489D01*
X89828559Y-55908543D01*
X90999499Y-55908543D01*
X91037947Y-56101829D01*
X91037950Y-56101839D01*
X91113364Y-56283907D01*
X91113371Y-56283920D01*
X91222860Y-56447781D01*
X91222863Y-56447785D01*
X91362214Y-56587136D01*
X91362218Y-56587139D01*
X91526079Y-56696628D01*
X91526092Y-56696635D01*
X91636298Y-56742283D01*
X91708165Y-56772051D01*
X91708169Y-56772051D01*
X91708170Y-56772052D01*
X91901456Y-56810500D01*
X91901459Y-56810500D01*
X92098543Y-56810500D01*
X92228582Y-56784632D01*
X92291835Y-56772051D01*
X92385121Y-56733410D01*
X92454588Y-56725942D01*
X92517068Y-56757217D01*
X92552720Y-56817306D01*
X92552347Y-56880062D01*
X92549500Y-56890691D01*
X92549500Y-57009309D01*
X92580201Y-57123886D01*
X92639511Y-57226613D01*
X92723387Y-57310489D01*
X92826114Y-57369799D01*
X92940691Y-57400500D01*
X92940694Y-57400500D01*
X93059306Y-57400500D01*
X93059309Y-57400500D01*
X93173886Y-57369799D01*
X93276613Y-57310489D01*
X93360489Y-57226613D01*
X93419799Y-57123886D01*
X93450500Y-57009309D01*
X93450500Y-56890691D01*
X93419799Y-56776114D01*
X93360489Y-56673387D01*
X93276613Y-56589511D01*
X93173886Y-56530201D01*
X93059309Y-56499500D01*
X92974570Y-56499500D01*
X92907531Y-56479815D01*
X92861776Y-56427011D01*
X92851832Y-56357853D01*
X92871468Y-56306608D01*
X92886632Y-56283914D01*
X92962051Y-56101835D01*
X92983342Y-55994799D01*
X93000500Y-55908543D01*
X93000500Y-55711456D01*
X92962052Y-55518170D01*
X92962051Y-55518169D01*
X92962051Y-55518165D01*
X92938161Y-55460489D01*
X92886635Y-55336092D01*
X92886628Y-55336079D01*
X92777139Y-55172218D01*
X92777136Y-55172214D01*
X92637785Y-55032863D01*
X92637781Y-55032860D01*
X92473920Y-54923371D01*
X92473907Y-54923364D01*
X92291839Y-54847950D01*
X92291829Y-54847947D01*
X92098543Y-54809500D01*
X92098541Y-54809500D01*
X91901459Y-54809500D01*
X91901457Y-54809500D01*
X91708170Y-54847947D01*
X91708160Y-54847950D01*
X91526092Y-54923364D01*
X91526079Y-54923371D01*
X91362218Y-55032860D01*
X91362214Y-55032863D01*
X91222863Y-55172214D01*
X91222860Y-55172218D01*
X91113371Y-55336079D01*
X91113364Y-55336092D01*
X91037950Y-55518160D01*
X91037947Y-55518170D01*
X90999500Y-55711456D01*
X90999500Y-55711459D01*
X90999500Y-55908541D01*
X90999500Y-55908543D01*
X90999499Y-55908543D01*
X89828559Y-55908543D01*
X89885489Y-55851613D01*
X89944799Y-55748886D01*
X89975500Y-55634309D01*
X89975500Y-55515691D01*
X89944799Y-55401114D01*
X89885489Y-55298387D01*
X89801613Y-55214511D01*
X89698886Y-55155201D01*
X89584309Y-55124500D01*
X89465691Y-55124500D01*
X89351114Y-55155201D01*
X89351112Y-55155201D01*
X89351112Y-55155202D01*
X89248387Y-55214511D01*
X89248384Y-55214513D01*
X89164513Y-55298384D01*
X89164511Y-55298387D01*
X89111218Y-55390693D01*
X89105201Y-55401114D01*
X89074500Y-55515691D01*
X76712208Y-55515691D01*
X76694093Y-55401319D01*
X76648333Y-55260486D01*
X76632052Y-55210378D01*
X76632050Y-55210375D01*
X76632050Y-55210373D01*
X76545592Y-55040691D01*
X76540905Y-55031492D01*
X76422897Y-54869068D01*
X76280932Y-54727103D01*
X76118508Y-54609095D01*
X76082392Y-54590693D01*
X75939626Y-54517949D01*
X75748680Y-54455907D01*
X75708228Y-54449500D01*
X75550384Y-54424500D01*
X75349616Y-54424500D01*
X75250468Y-54440203D01*
X75151319Y-54455907D01*
X74960373Y-54517949D01*
X74781491Y-54609095D01*
X74754344Y-54628819D01*
X74619068Y-54727103D01*
X74619066Y-54727105D01*
X74619065Y-54727105D01*
X74477105Y-54869065D01*
X74477105Y-54869066D01*
X74477103Y-54869068D01*
X74426423Y-54938822D01*
X74359095Y-55031491D01*
X74267949Y-55210373D01*
X74205907Y-55401319D01*
X74188803Y-55509308D01*
X74174500Y-55599616D01*
X66276302Y-55599616D01*
X66300500Y-55509309D01*
X66300500Y-55390691D01*
X66269799Y-55276114D01*
X66210489Y-55173387D01*
X66126613Y-55089511D01*
X66023886Y-55030201D01*
X65909309Y-54999500D01*
X65790691Y-54999500D01*
X65676114Y-55030201D01*
X65676112Y-55030201D01*
X65676112Y-55030202D01*
X65573387Y-55089511D01*
X65573384Y-55089513D01*
X65489513Y-55173384D01*
X65489511Y-55173387D01*
X65430201Y-55276114D01*
X65399500Y-55390691D01*
X41036034Y-55390691D01*
X41036034Y-54590691D01*
X70899500Y-54590691D01*
X70899500Y-54709309D01*
X70930201Y-54823886D01*
X70989511Y-54926613D01*
X71073387Y-55010489D01*
X71176114Y-55069799D01*
X71290691Y-55100500D01*
X71290694Y-55100500D01*
X71409306Y-55100500D01*
X71409309Y-55100500D01*
X71523886Y-55069799D01*
X71626613Y-55010489D01*
X71710489Y-54926613D01*
X71760097Y-54840691D01*
X72049500Y-54840691D01*
X72049500Y-54959309D01*
X72080201Y-55073886D01*
X72139511Y-55176613D01*
X72223387Y-55260489D01*
X72326114Y-55319799D01*
X72440691Y-55350500D01*
X72440694Y-55350500D01*
X72559306Y-55350500D01*
X72559309Y-55350500D01*
X72673886Y-55319799D01*
X72776613Y-55260489D01*
X72860489Y-55176613D01*
X72919799Y-55073886D01*
X72950500Y-54959309D01*
X72950500Y-54840691D01*
X72919799Y-54726114D01*
X72860489Y-54623387D01*
X72776613Y-54539511D01*
X72673886Y-54480201D01*
X72559309Y-54449500D01*
X72440691Y-54449500D01*
X72326114Y-54480201D01*
X72326112Y-54480201D01*
X72326112Y-54480202D01*
X72223387Y-54539511D01*
X72223384Y-54539513D01*
X72139513Y-54623384D01*
X72139511Y-54623387D01*
X72089905Y-54709307D01*
X72080201Y-54726114D01*
X72049500Y-54840691D01*
X71760097Y-54840691D01*
X71769799Y-54823886D01*
X71800500Y-54709309D01*
X71800500Y-54590691D01*
X71769799Y-54476114D01*
X71710489Y-54373387D01*
X71626613Y-54289511D01*
X71523886Y-54230201D01*
X71409309Y-54199500D01*
X71290691Y-54199500D01*
X71176114Y-54230201D01*
X71176112Y-54230201D01*
X71176112Y-54230202D01*
X71073387Y-54289511D01*
X71073384Y-54289513D01*
X70989513Y-54373384D01*
X70989511Y-54373387D01*
X70941868Y-54455907D01*
X70930201Y-54476114D01*
X70899500Y-54590691D01*
X41036034Y-54590691D01*
X41036034Y-52849616D01*
X60324500Y-52849616D01*
X60324500Y-53050384D01*
X60336574Y-53126615D01*
X60355907Y-53248680D01*
X60417949Y-53439626D01*
X60509095Y-53618508D01*
X60627103Y-53780932D01*
X60769068Y-53922897D01*
X60931492Y-54040905D01*
X61016007Y-54083967D01*
X61110373Y-54132050D01*
X61110375Y-54132050D01*
X61110378Y-54132052D01*
X61301320Y-54194093D01*
X61499616Y-54225500D01*
X61499617Y-54225500D01*
X61700383Y-54225500D01*
X61700384Y-54225500D01*
X61898680Y-54194093D01*
X62089622Y-54132052D01*
X62268508Y-54040905D01*
X62430932Y-53922897D01*
X62572897Y-53780932D01*
X62690905Y-53618508D01*
X62782052Y-53439622D01*
X62844093Y-53248680D01*
X62875500Y-53050384D01*
X62875500Y-52849616D01*
X62866167Y-52790691D01*
X64199500Y-52790691D01*
X64199500Y-52909309D01*
X64230201Y-53023886D01*
X64289511Y-53126613D01*
X64373387Y-53210489D01*
X64476114Y-53269799D01*
X64590691Y-53300500D01*
X64590694Y-53300500D01*
X64709306Y-53300500D01*
X64709309Y-53300500D01*
X64823886Y-53269799D01*
X64926613Y-53210489D01*
X65010489Y-53126613D01*
X65069799Y-53023886D01*
X65100500Y-52909309D01*
X65100500Y-52790691D01*
X65069799Y-52676114D01*
X65010489Y-52573387D01*
X64926613Y-52489511D01*
X64823886Y-52430201D01*
X64709309Y-52399500D01*
X64590691Y-52399500D01*
X64476114Y-52430201D01*
X64476112Y-52430201D01*
X64476112Y-52430202D01*
X64373387Y-52489511D01*
X64373384Y-52489513D01*
X64289513Y-52573384D01*
X64289511Y-52573387D01*
X64244517Y-52651319D01*
X64230201Y-52676114D01*
X64199500Y-52790691D01*
X62866167Y-52790691D01*
X62844093Y-52651320D01*
X62782052Y-52460378D01*
X62782050Y-52460375D01*
X62782050Y-52460373D01*
X62690904Y-52281491D01*
X62572897Y-52119068D01*
X62430932Y-51977103D01*
X62268508Y-51859095D01*
X62089626Y-51767949D01*
X61898680Y-51705907D01*
X61700384Y-51674500D01*
X61499616Y-51674500D01*
X61400468Y-51690203D01*
X61301319Y-51705907D01*
X61110373Y-51767949D01*
X60931491Y-51859095D01*
X60838822Y-51926423D01*
X60769068Y-51977103D01*
X60769066Y-51977105D01*
X60769065Y-51977105D01*
X60627105Y-52119065D01*
X60627105Y-52119066D01*
X60627103Y-52119068D01*
X60576423Y-52188822D01*
X60509095Y-52281491D01*
X60417949Y-52460373D01*
X60408482Y-52489511D01*
X60355907Y-52651320D01*
X60324500Y-52849616D01*
X41036034Y-52849616D01*
X41036034Y-51040691D01*
X78049500Y-51040691D01*
X78049500Y-51159309D01*
X78080201Y-51273886D01*
X78139511Y-51376613D01*
X78223387Y-51460489D01*
X78326114Y-51519799D01*
X78440691Y-51550500D01*
X78440694Y-51550500D01*
X78559306Y-51550500D01*
X78559309Y-51550500D01*
X78673886Y-51519799D01*
X78776613Y-51460489D01*
X78860489Y-51376613D01*
X78919799Y-51273886D01*
X78950500Y-51159309D01*
X78950500Y-51090691D01*
X88849500Y-51090691D01*
X88849500Y-51209309D01*
X88880201Y-51323886D01*
X88939511Y-51426613D01*
X89023387Y-51510489D01*
X89126114Y-51569799D01*
X89240691Y-51600500D01*
X89240694Y-51600500D01*
X89359306Y-51600500D01*
X89359309Y-51600500D01*
X89473886Y-51569799D01*
X89576613Y-51510489D01*
X89660489Y-51426613D01*
X89719799Y-51323886D01*
X89750500Y-51209309D01*
X89750500Y-51090691D01*
X89719799Y-50976114D01*
X89660489Y-50873387D01*
X89576613Y-50789511D01*
X89473886Y-50730201D01*
X89359309Y-50699500D01*
X89240691Y-50699500D01*
X89126114Y-50730201D01*
X89126112Y-50730201D01*
X89126112Y-50730202D01*
X89023387Y-50789511D01*
X89023384Y-50789513D01*
X88939513Y-50873384D01*
X88939511Y-50873387D01*
X88880201Y-50976114D01*
X88849500Y-51090691D01*
X78950500Y-51090691D01*
X78950500Y-51040691D01*
X78919799Y-50926114D01*
X78860489Y-50823387D01*
X78776613Y-50739511D01*
X78673886Y-50680201D01*
X78559309Y-50649500D01*
X78440691Y-50649500D01*
X78326114Y-50680201D01*
X78326112Y-50680201D01*
X78326112Y-50680202D01*
X78223387Y-50739511D01*
X78223384Y-50739513D01*
X78139513Y-50823384D01*
X78139511Y-50823387D01*
X78080201Y-50926114D01*
X78049500Y-51040691D01*
X41036034Y-51040691D01*
X41036034Y-49990691D01*
X63649500Y-49990691D01*
X63649500Y-50109309D01*
X63680201Y-50223886D01*
X63739511Y-50326613D01*
X63823387Y-50410489D01*
X63926114Y-50469799D01*
X64040691Y-50500500D01*
X64040694Y-50500500D01*
X64159306Y-50500500D01*
X64159309Y-50500500D01*
X64273886Y-50469799D01*
X64376613Y-50410489D01*
X64460489Y-50326613D01*
X64519799Y-50223886D01*
X64550500Y-50109309D01*
X64550500Y-49990691D01*
X64519799Y-49876114D01*
X64460489Y-49773387D01*
X64376613Y-49689511D01*
X64273886Y-49630201D01*
X64159309Y-49599500D01*
X64040691Y-49599500D01*
X63926114Y-49630201D01*
X63926112Y-49630201D01*
X63926112Y-49630202D01*
X63823387Y-49689511D01*
X63823384Y-49689513D01*
X63739513Y-49773384D01*
X63739511Y-49773387D01*
X63680201Y-49876114D01*
X63649500Y-49990691D01*
X41036034Y-49990691D01*
X41036034Y-49290691D01*
X59649500Y-49290691D01*
X59649500Y-49409309D01*
X59680201Y-49523886D01*
X59739511Y-49626613D01*
X59823387Y-49710489D01*
X59926114Y-49769799D01*
X60040691Y-49800500D01*
X60040694Y-49800500D01*
X60159306Y-49800500D01*
X60159309Y-49800500D01*
X60273886Y-49769799D01*
X60376613Y-49710489D01*
X60460489Y-49626613D01*
X60519799Y-49523886D01*
X60550500Y-49409309D01*
X60550500Y-49290691D01*
X60519799Y-49176114D01*
X60460489Y-49073387D01*
X60376613Y-48989511D01*
X60273886Y-48930201D01*
X60159309Y-48899500D01*
X60040691Y-48899500D01*
X59926114Y-48930201D01*
X59926112Y-48930201D01*
X59926112Y-48930202D01*
X59823387Y-48989511D01*
X59823384Y-48989513D01*
X59739513Y-49073384D01*
X59739511Y-49073387D01*
X59710355Y-49123887D01*
X59680201Y-49176114D01*
X59649500Y-49290691D01*
X41036034Y-49290691D01*
X41036034Y-47250352D01*
X41055719Y-47183313D01*
X41108523Y-47137558D01*
X41177681Y-47127614D01*
X41241237Y-47156639D01*
X41267420Y-47188351D01*
X41289511Y-47226613D01*
X41373387Y-47310489D01*
X41476114Y-47369799D01*
X41587701Y-47399698D01*
X41647360Y-47436063D01*
X41677889Y-47498910D01*
X41669594Y-47568286D01*
X41658708Y-47588363D01*
X41573374Y-47716074D01*
X41573364Y-47716092D01*
X41497950Y-47898160D01*
X41497947Y-47898170D01*
X41459500Y-48091456D01*
X41459500Y-48091459D01*
X41459500Y-48288541D01*
X41459500Y-48288543D01*
X41459499Y-48288543D01*
X41497947Y-48481829D01*
X41497950Y-48481839D01*
X41573364Y-48663907D01*
X41573371Y-48663920D01*
X41682860Y-48827781D01*
X41682863Y-48827785D01*
X41822214Y-48967136D01*
X41822218Y-48967139D01*
X41986079Y-49076628D01*
X41986092Y-49076635D01*
X42168160Y-49152049D01*
X42168165Y-49152051D01*
X42168169Y-49152051D01*
X42168170Y-49152052D01*
X42361456Y-49190500D01*
X42361459Y-49190500D01*
X42558543Y-49190500D01*
X42707112Y-49160947D01*
X42751835Y-49152051D01*
X42933914Y-49076632D01*
X43097782Y-48967139D01*
X43164995Y-48899925D01*
X43226316Y-48866442D01*
X43296008Y-48871426D01*
X43351942Y-48913297D01*
X43360061Y-48925606D01*
X43375379Y-48952136D01*
X43389511Y-48976613D01*
X43473387Y-49060489D01*
X43576114Y-49119799D01*
X43690691Y-49150500D01*
X43690694Y-49150500D01*
X43809306Y-49150500D01*
X43809309Y-49150500D01*
X43923886Y-49119799D01*
X44026613Y-49060489D01*
X44110489Y-48976613D01*
X44125296Y-48950965D01*
X44175864Y-48902751D01*
X44244471Y-48889529D01*
X44309335Y-48915497D01*
X44320364Y-48925286D01*
X44362214Y-48967136D01*
X44362218Y-48967139D01*
X44526079Y-49076628D01*
X44526092Y-49076635D01*
X44708160Y-49152049D01*
X44708165Y-49152051D01*
X44708169Y-49152051D01*
X44708170Y-49152052D01*
X44901456Y-49190500D01*
X44901459Y-49190500D01*
X45098543Y-49190500D01*
X45247114Y-49160947D01*
X45275607Y-49155278D01*
X45291835Y-49152051D01*
X45473914Y-49076632D01*
X45637782Y-48967139D01*
X45714230Y-48890691D01*
X65349500Y-48890691D01*
X65349500Y-49009309D01*
X65380201Y-49123886D01*
X65439511Y-49226613D01*
X65523387Y-49310489D01*
X65626114Y-49369799D01*
X65740691Y-49400500D01*
X65740694Y-49400500D01*
X65859306Y-49400500D01*
X65859309Y-49400500D01*
X65973886Y-49369799D01*
X66076613Y-49310489D01*
X66160489Y-49226613D01*
X66219799Y-49123886D01*
X66250500Y-49009309D01*
X66250500Y-48890691D01*
X66219799Y-48776114D01*
X66172715Y-48694562D01*
X66160493Y-48673393D01*
X66160490Y-48673390D01*
X66160489Y-48673387D01*
X66127793Y-48640691D01*
X68499500Y-48640691D01*
X68499500Y-48759309D01*
X68530201Y-48873886D01*
X68589511Y-48976613D01*
X68673387Y-49060489D01*
X68776114Y-49119799D01*
X68890691Y-49150500D01*
X68890694Y-49150500D01*
X69009306Y-49150500D01*
X69009309Y-49150500D01*
X69123886Y-49119799D01*
X69226613Y-49060489D01*
X69310489Y-48976613D01*
X69369799Y-48873886D01*
X69400500Y-48759309D01*
X69400500Y-48640691D01*
X69369799Y-48526114D01*
X69310489Y-48423387D01*
X69226613Y-48339511D01*
X69123886Y-48280201D01*
X69099038Y-48273543D01*
X77049499Y-48273543D01*
X77087947Y-48466829D01*
X77087950Y-48466839D01*
X77163364Y-48648907D01*
X77163371Y-48648920D01*
X77272860Y-48812781D01*
X77272863Y-48812785D01*
X77412214Y-48952136D01*
X77412218Y-48952139D01*
X77576079Y-49061628D01*
X77576092Y-49061635D01*
X77726384Y-49123887D01*
X77758165Y-49137051D01*
X77758169Y-49137051D01*
X77758170Y-49137052D01*
X77951456Y-49175500D01*
X77951459Y-49175500D01*
X78148543Y-49175500D01*
X78278582Y-49149632D01*
X78341835Y-49137051D01*
X78523914Y-49061632D01*
X78687782Y-48952139D01*
X78827139Y-48812782D01*
X78936632Y-48648914D01*
X79012051Y-48466835D01*
X79047516Y-48288543D01*
X79050500Y-48273543D01*
X79549499Y-48273543D01*
X79587947Y-48466829D01*
X79587950Y-48466839D01*
X79663364Y-48648907D01*
X79663371Y-48648920D01*
X79772860Y-48812781D01*
X79772863Y-48812785D01*
X79912214Y-48952136D01*
X79912218Y-48952139D01*
X80076079Y-49061628D01*
X80076092Y-49061635D01*
X80226384Y-49123887D01*
X80258165Y-49137051D01*
X80258169Y-49137051D01*
X80258170Y-49137052D01*
X80451456Y-49175500D01*
X80451459Y-49175500D01*
X80648543Y-49175500D01*
X80778582Y-49149632D01*
X80841835Y-49137051D01*
X81023914Y-49061632D01*
X81187782Y-48952139D01*
X81327139Y-48812782D01*
X81436632Y-48648914D01*
X81512051Y-48466835D01*
X81547516Y-48288543D01*
X81550500Y-48273543D01*
X81550500Y-47840691D01*
X88849500Y-47840691D01*
X88849500Y-47959309D01*
X88880201Y-48073886D01*
X88939511Y-48176613D01*
X89023387Y-48260489D01*
X89126114Y-48319799D01*
X89240691Y-48350500D01*
X89240694Y-48350500D01*
X89359306Y-48350500D01*
X89359309Y-48350500D01*
X89473886Y-48319799D01*
X89576613Y-48260489D01*
X89660489Y-48176613D01*
X89719799Y-48073886D01*
X89750500Y-47959309D01*
X89750500Y-47840691D01*
X89719799Y-47726114D01*
X89660489Y-47623387D01*
X89576613Y-47539511D01*
X89473886Y-47480201D01*
X89359309Y-47449500D01*
X89240691Y-47449500D01*
X89126114Y-47480201D01*
X89126112Y-47480201D01*
X89126112Y-47480202D01*
X89023387Y-47539511D01*
X89023384Y-47539513D01*
X88939513Y-47623384D01*
X88939511Y-47623387D01*
X88933869Y-47633160D01*
X88880201Y-47726114D01*
X88849500Y-47840691D01*
X81550500Y-47840691D01*
X81550500Y-47826456D01*
X81512052Y-47633170D01*
X81512051Y-47633169D01*
X81512051Y-47633165D01*
X81493494Y-47588363D01*
X81436635Y-47451092D01*
X81436628Y-47451079D01*
X81327139Y-47287218D01*
X81327136Y-47287214D01*
X81187785Y-47147863D01*
X81187781Y-47147860D01*
X81023920Y-47038371D01*
X81023907Y-47038364D01*
X80841839Y-46962950D01*
X80841829Y-46962947D01*
X80648543Y-46924500D01*
X80648541Y-46924500D01*
X80451459Y-46924500D01*
X80451457Y-46924500D01*
X80258170Y-46962947D01*
X80258160Y-46962950D01*
X80076092Y-47038364D01*
X80076079Y-47038371D01*
X79912218Y-47147860D01*
X79912214Y-47147863D01*
X79772863Y-47287214D01*
X79772860Y-47287218D01*
X79663371Y-47451079D01*
X79663364Y-47451092D01*
X79587950Y-47633160D01*
X79587947Y-47633170D01*
X79549500Y-47826456D01*
X79549500Y-47826459D01*
X79549500Y-48273541D01*
X79549500Y-48273543D01*
X79549499Y-48273543D01*
X79050500Y-48273543D01*
X79050500Y-47826456D01*
X79012052Y-47633170D01*
X79012051Y-47633169D01*
X79012051Y-47633165D01*
X78993494Y-47588363D01*
X78936635Y-47451092D01*
X78936628Y-47451079D01*
X78827139Y-47287218D01*
X78827136Y-47287214D01*
X78687785Y-47147863D01*
X78687781Y-47147860D01*
X78523920Y-47038371D01*
X78523907Y-47038364D01*
X78341839Y-46962950D01*
X78341829Y-46962947D01*
X78148543Y-46924500D01*
X78148541Y-46924500D01*
X77951459Y-46924500D01*
X77951457Y-46924500D01*
X77758170Y-46962947D01*
X77758160Y-46962950D01*
X77576092Y-47038364D01*
X77576079Y-47038371D01*
X77412218Y-47147860D01*
X77412214Y-47147863D01*
X77272863Y-47287214D01*
X77272860Y-47287218D01*
X77163371Y-47451079D01*
X77163364Y-47451092D01*
X77087950Y-47633160D01*
X77087947Y-47633170D01*
X77049500Y-47826456D01*
X77049500Y-47826459D01*
X77049500Y-48273541D01*
X77049500Y-48273543D01*
X77049499Y-48273543D01*
X69099038Y-48273543D01*
X69009309Y-48249500D01*
X68890691Y-48249500D01*
X68776114Y-48280201D01*
X68776112Y-48280201D01*
X68776112Y-48280202D01*
X68673387Y-48339511D01*
X68673384Y-48339513D01*
X68589513Y-48423384D01*
X68589511Y-48423387D01*
X68564430Y-48466829D01*
X68530201Y-48526114D01*
X68499500Y-48640691D01*
X66127793Y-48640691D01*
X66076613Y-48589511D01*
X65973886Y-48530201D01*
X65859309Y-48499500D01*
X65740691Y-48499500D01*
X65626114Y-48530201D01*
X65626112Y-48530201D01*
X65626112Y-48530202D01*
X65523387Y-48589511D01*
X65523384Y-48589513D01*
X65439513Y-48673384D01*
X65439511Y-48673387D01*
X65380201Y-48776114D01*
X65349500Y-48890691D01*
X45714230Y-48890691D01*
X45777139Y-48827782D01*
X45886632Y-48663914D01*
X45962051Y-48481835D01*
X45984644Y-48368254D01*
X46000500Y-48288543D01*
X46000500Y-48091456D01*
X45962052Y-47898170D01*
X45962051Y-47898169D01*
X45962051Y-47898165D01*
X45890785Y-47726112D01*
X45886635Y-47716092D01*
X45886628Y-47716079D01*
X45777139Y-47552218D01*
X45777136Y-47552214D01*
X45635923Y-47411001D01*
X45602438Y-47349678D01*
X45607422Y-47279986D01*
X45649294Y-47224053D01*
X45714758Y-47199636D01*
X45739795Y-47200382D01*
X45740691Y-47200500D01*
X45859306Y-47200500D01*
X45859309Y-47200500D01*
X45973886Y-47169799D01*
X46076613Y-47110489D01*
X46160489Y-47026613D01*
X46219799Y-46923886D01*
X46250500Y-46809309D01*
X46250500Y-46690691D01*
X46219799Y-46576114D01*
X46160489Y-46473387D01*
X46076613Y-46389511D01*
X46017302Y-46355267D01*
X45973885Y-46330200D01*
X45973886Y-46330200D01*
X45950119Y-46323832D01*
X45890459Y-46287466D01*
X45859931Y-46224618D01*
X45868228Y-46155243D01*
X45879115Y-46135164D01*
X45886629Y-46123918D01*
X45886632Y-46123914D01*
X45962051Y-45941835D01*
X45989480Y-45803944D01*
X46000500Y-45748543D01*
X90999499Y-45748543D01*
X91037947Y-45941829D01*
X91037950Y-45941839D01*
X91113364Y-46123907D01*
X91113371Y-46123920D01*
X91222860Y-46287781D01*
X91222863Y-46287785D01*
X91362214Y-46427136D01*
X91362218Y-46427139D01*
X91526079Y-46536628D01*
X91526092Y-46536635D01*
X91704394Y-46610489D01*
X91708165Y-46612051D01*
X91708169Y-46612051D01*
X91708170Y-46612052D01*
X91901456Y-46650500D01*
X91901459Y-46650500D01*
X92098543Y-46650500D01*
X92228582Y-46624632D01*
X92291835Y-46612051D01*
X92473914Y-46536632D01*
X92637782Y-46427139D01*
X92777139Y-46287782D01*
X92886632Y-46123914D01*
X92962051Y-45941835D01*
X92989480Y-45803944D01*
X93000500Y-45748543D01*
X93539499Y-45748543D01*
X93577947Y-45941829D01*
X93577950Y-45941839D01*
X93653364Y-46123907D01*
X93653371Y-46123920D01*
X93762860Y-46287781D01*
X93762863Y-46287785D01*
X93902214Y-46427136D01*
X93902218Y-46427139D01*
X94066079Y-46536628D01*
X94066092Y-46536635D01*
X94244394Y-46610489D01*
X94248165Y-46612051D01*
X94248169Y-46612051D01*
X94248170Y-46612052D01*
X94441456Y-46650500D01*
X94441459Y-46650500D01*
X94638543Y-46650500D01*
X94768582Y-46624632D01*
X94831835Y-46612051D01*
X95013914Y-46536632D01*
X95177782Y-46427139D01*
X95317139Y-46287782D01*
X95426632Y-46123914D01*
X95502051Y-45941835D01*
X95529480Y-45803944D01*
X95540500Y-45748543D01*
X95540500Y-45551456D01*
X95502052Y-45358170D01*
X95502051Y-45358169D01*
X95502051Y-45358165D01*
X95502049Y-45358160D01*
X95426635Y-45176092D01*
X95426628Y-45176079D01*
X95317139Y-45012218D01*
X95317136Y-45012214D01*
X95177785Y-44872863D01*
X95177781Y-44872860D01*
X95013920Y-44763371D01*
X95013907Y-44763364D01*
X94831839Y-44687950D01*
X94831829Y-44687947D01*
X94638543Y-44649500D01*
X94638541Y-44649500D01*
X94441459Y-44649500D01*
X94441457Y-44649500D01*
X94248170Y-44687947D01*
X94248160Y-44687950D01*
X94066092Y-44763364D01*
X94066079Y-44763371D01*
X93902218Y-44872860D01*
X93902214Y-44872863D01*
X93762863Y-45012214D01*
X93762860Y-45012218D01*
X93653371Y-45176079D01*
X93653364Y-45176092D01*
X93577950Y-45358160D01*
X93577947Y-45358170D01*
X93539500Y-45551456D01*
X93539500Y-45551459D01*
X93539500Y-45748541D01*
X93539500Y-45748543D01*
X93539499Y-45748543D01*
X93000500Y-45748543D01*
X93000500Y-45551456D01*
X92962052Y-45358170D01*
X92962051Y-45358169D01*
X92962051Y-45358165D01*
X92962049Y-45358160D01*
X92886635Y-45176092D01*
X92886628Y-45176079D01*
X92777139Y-45012218D01*
X92777136Y-45012214D01*
X92637785Y-44872863D01*
X92637781Y-44872860D01*
X92473920Y-44763371D01*
X92473907Y-44763364D01*
X92291839Y-44687950D01*
X92291829Y-44687947D01*
X92098543Y-44649500D01*
X92098541Y-44649500D01*
X91901459Y-44649500D01*
X91901457Y-44649500D01*
X91708170Y-44687947D01*
X91708160Y-44687950D01*
X91526092Y-44763364D01*
X91526079Y-44763371D01*
X91362218Y-44872860D01*
X91362214Y-44872863D01*
X91222863Y-45012214D01*
X91222860Y-45012218D01*
X91113371Y-45176079D01*
X91113364Y-45176092D01*
X91037950Y-45358160D01*
X91037947Y-45358170D01*
X90999500Y-45551456D01*
X90999500Y-45551459D01*
X90999500Y-45748541D01*
X90999500Y-45748543D01*
X90999499Y-45748543D01*
X46000500Y-45748543D01*
X46000500Y-45551456D01*
X45962052Y-45358170D01*
X45962051Y-45358169D01*
X45962051Y-45358165D01*
X45962049Y-45358160D01*
X45886635Y-45176092D01*
X45886628Y-45176079D01*
X45819145Y-45075084D01*
X45798267Y-45008407D01*
X45816751Y-44941026D01*
X45860245Y-44898806D01*
X45926613Y-44860489D01*
X46010489Y-44776613D01*
X46069799Y-44673886D01*
X46100500Y-44559309D01*
X46100500Y-44440691D01*
X46069799Y-44326114D01*
X46010489Y-44223387D01*
X45926613Y-44139511D01*
X45861239Y-44101767D01*
X45823885Y-44080200D01*
X45732302Y-44055660D01*
X45672642Y-44019295D01*
X45642114Y-43956448D01*
X45650409Y-43887072D01*
X45676713Y-43848207D01*
X45777139Y-43747782D01*
X45886632Y-43583914D01*
X45962051Y-43401835D01*
X46000500Y-43208543D01*
X90999499Y-43208543D01*
X91037947Y-43401829D01*
X91037950Y-43401839D01*
X91113364Y-43583907D01*
X91113371Y-43583920D01*
X91222860Y-43747781D01*
X91222863Y-43747785D01*
X91362214Y-43887136D01*
X91362218Y-43887139D01*
X91526079Y-43996628D01*
X91526092Y-43996635D01*
X91708160Y-44072049D01*
X91708165Y-44072051D01*
X91708169Y-44072051D01*
X91708170Y-44072052D01*
X91901456Y-44110500D01*
X91901459Y-44110500D01*
X92098543Y-44110500D01*
X92228582Y-44084632D01*
X92291835Y-44072051D01*
X92473914Y-43996632D01*
X92637782Y-43887139D01*
X92777139Y-43747782D01*
X92886632Y-43583914D01*
X92962051Y-43401835D01*
X93000500Y-43208543D01*
X93539499Y-43208543D01*
X93577947Y-43401829D01*
X93577950Y-43401839D01*
X93653364Y-43583907D01*
X93653371Y-43583920D01*
X93762860Y-43747781D01*
X93762863Y-43747785D01*
X93902214Y-43887136D01*
X93902218Y-43887139D01*
X94066079Y-43996628D01*
X94066092Y-43996635D01*
X94248160Y-44072049D01*
X94248165Y-44072051D01*
X94248169Y-44072051D01*
X94248170Y-44072052D01*
X94441456Y-44110500D01*
X94441459Y-44110500D01*
X94638543Y-44110500D01*
X94768582Y-44084632D01*
X94831835Y-44072051D01*
X95013914Y-43996632D01*
X95177782Y-43887139D01*
X95317139Y-43747782D01*
X95426632Y-43583914D01*
X95502051Y-43401835D01*
X95540500Y-43208541D01*
X95540500Y-43011459D01*
X95540500Y-43011456D01*
X95502052Y-42818170D01*
X95502051Y-42818169D01*
X95502051Y-42818165D01*
X95502049Y-42818160D01*
X95426635Y-42636092D01*
X95426628Y-42636079D01*
X95317139Y-42472218D01*
X95317136Y-42472214D01*
X95177785Y-42332863D01*
X95177781Y-42332860D01*
X95013920Y-42223371D01*
X95013907Y-42223364D01*
X94831839Y-42147950D01*
X94831829Y-42147947D01*
X94638543Y-42109500D01*
X94638541Y-42109500D01*
X94441459Y-42109500D01*
X94441457Y-42109500D01*
X94248170Y-42147947D01*
X94248160Y-42147950D01*
X94066092Y-42223364D01*
X94066079Y-42223371D01*
X93902218Y-42332860D01*
X93902214Y-42332863D01*
X93762863Y-42472214D01*
X93762860Y-42472218D01*
X93653371Y-42636079D01*
X93653364Y-42636092D01*
X93577950Y-42818160D01*
X93577947Y-42818170D01*
X93539500Y-43011456D01*
X93539500Y-43011459D01*
X93539500Y-43208541D01*
X93539500Y-43208543D01*
X93539499Y-43208543D01*
X93000500Y-43208543D01*
X93000500Y-43208541D01*
X93000500Y-43011459D01*
X93000500Y-43011456D01*
X92962052Y-42818170D01*
X92962051Y-42818169D01*
X92962051Y-42818165D01*
X92962049Y-42818160D01*
X92886635Y-42636092D01*
X92886628Y-42636079D01*
X92777139Y-42472218D01*
X92777136Y-42472214D01*
X92637785Y-42332863D01*
X92637781Y-42332860D01*
X92473920Y-42223371D01*
X92473907Y-42223364D01*
X92291839Y-42147950D01*
X92291829Y-42147947D01*
X92098543Y-42109500D01*
X92098541Y-42109500D01*
X91901459Y-42109500D01*
X91901457Y-42109500D01*
X91708170Y-42147947D01*
X91708160Y-42147950D01*
X91526092Y-42223364D01*
X91526079Y-42223371D01*
X91362218Y-42332860D01*
X91362214Y-42332863D01*
X91222863Y-42472214D01*
X91222860Y-42472218D01*
X91113371Y-42636079D01*
X91113364Y-42636092D01*
X91037950Y-42818160D01*
X91037947Y-42818170D01*
X90999500Y-43011456D01*
X90999500Y-43011459D01*
X90999500Y-43208541D01*
X90999500Y-43208543D01*
X90999499Y-43208543D01*
X46000500Y-43208543D01*
X46000500Y-43208541D01*
X46000500Y-43011459D01*
X46000500Y-43011456D01*
X45962052Y-42818170D01*
X45962051Y-42818169D01*
X45962051Y-42818165D01*
X45962049Y-42818160D01*
X45886635Y-42636092D01*
X45886628Y-42636079D01*
X45777139Y-42472218D01*
X45777136Y-42472214D01*
X45637785Y-42332863D01*
X45637781Y-42332860D01*
X45473920Y-42223371D01*
X45473907Y-42223364D01*
X45291839Y-42147950D01*
X45291829Y-42147947D01*
X45098543Y-42109500D01*
X45098541Y-42109500D01*
X44901459Y-42109500D01*
X44901457Y-42109500D01*
X44708170Y-42147947D01*
X44708160Y-42147950D01*
X44526092Y-42223364D01*
X44526079Y-42223371D01*
X44362218Y-42332860D01*
X44362214Y-42332863D01*
X44222863Y-42472214D01*
X44222860Y-42472218D01*
X44113371Y-42636079D01*
X44113364Y-42636092D01*
X44037950Y-42818160D01*
X44037947Y-42818170D01*
X43999500Y-43011456D01*
X43999500Y-43011459D01*
X43999500Y-43208541D01*
X43999500Y-43208543D01*
X43999499Y-43208543D01*
X44037947Y-43401829D01*
X44037950Y-43401839D01*
X44113364Y-43583907D01*
X44113371Y-43583920D01*
X44222860Y-43747781D01*
X44222863Y-43747785D01*
X44362214Y-43887136D01*
X44362218Y-43887139D01*
X44526079Y-43996628D01*
X44526092Y-43996635D01*
X44708160Y-44072049D01*
X44708165Y-44072051D01*
X44708169Y-44072051D01*
X44708170Y-44072052D01*
X44901456Y-44110500D01*
X44901459Y-44110500D01*
X45098543Y-44110500D01*
X45109741Y-44108272D01*
X45119499Y-44106331D01*
X45189090Y-44112555D01*
X45244269Y-44155416D01*
X45267516Y-44221305D01*
X45251451Y-44289303D01*
X45251082Y-44289946D01*
X45230202Y-44326111D01*
X45230202Y-44326112D01*
X45230201Y-44326114D01*
X45199500Y-44440691D01*
X45199500Y-44440693D01*
X45199500Y-44525500D01*
X45179815Y-44592539D01*
X45127011Y-44638294D01*
X45075500Y-44649500D01*
X44901457Y-44649500D01*
X44708170Y-44687947D01*
X44708160Y-44687950D01*
X44526092Y-44763364D01*
X44526074Y-44763374D01*
X44369733Y-44867837D01*
X44369724Y-44867845D01*
X44362218Y-44872861D01*
X44283873Y-44951205D01*
X44283805Y-44951272D01*
X44222860Y-45012218D01*
X44113371Y-45176079D01*
X44113364Y-45176092D01*
X44037950Y-45358160D01*
X44037947Y-45358170D01*
X43999500Y-45551456D01*
X43999500Y-45676561D01*
X43979815Y-45743600D01*
X43927011Y-45789355D01*
X43867436Y-45798285D01*
X43867436Y-45799500D01*
X43859331Y-45799500D01*
X43859324Y-45799501D01*
X43859316Y-45799500D01*
X43859309Y-45799500D01*
X43740691Y-45799500D01*
X43626114Y-45830201D01*
X43626112Y-45830202D01*
X43618264Y-45832305D01*
X43617471Y-45829346D01*
X43562437Y-45835242D01*
X43499970Y-45803944D01*
X43464340Y-45743842D01*
X43460500Y-45713221D01*
X43460500Y-45551456D01*
X43422052Y-45358170D01*
X43422051Y-45358169D01*
X43422051Y-45358165D01*
X43422049Y-45358160D01*
X43346635Y-45176092D01*
X43346628Y-45176079D01*
X43237139Y-45012218D01*
X43237136Y-45012214D01*
X43097785Y-44872863D01*
X43097781Y-44872860D01*
X42933920Y-44763371D01*
X42933907Y-44763364D01*
X42751839Y-44687950D01*
X42751829Y-44687947D01*
X42558543Y-44649500D01*
X42558541Y-44649500D01*
X42361459Y-44649500D01*
X42361457Y-44649500D01*
X42168170Y-44687947D01*
X42168165Y-44687949D01*
X42071951Y-44727801D01*
X42002482Y-44735269D01*
X41940003Y-44703993D01*
X41904351Y-44643903D01*
X41900500Y-44613239D01*
X41900500Y-44540693D01*
X41900500Y-44540691D01*
X41869799Y-44426114D01*
X41810489Y-44323387D01*
X41809283Y-44322181D01*
X41808592Y-44320916D01*
X41805542Y-44316941D01*
X41806161Y-44316465D01*
X41775798Y-44260858D01*
X41780782Y-44191166D01*
X41822654Y-44135233D01*
X41888118Y-44110816D01*
X41896964Y-44110500D01*
X43299580Y-44110500D01*
X43366619Y-44130185D01*
X43412374Y-44182989D01*
X43422318Y-44252147D01*
X43419357Y-44266583D01*
X43399500Y-44340691D01*
X43399500Y-44459309D01*
X43430201Y-44573886D01*
X43489511Y-44676613D01*
X43573387Y-44760489D01*
X43676114Y-44819799D01*
X43790691Y-44850500D01*
X43790694Y-44850500D01*
X43909306Y-44850500D01*
X43909309Y-44850500D01*
X44023886Y-44819799D01*
X44126613Y-44760489D01*
X44210489Y-44676613D01*
X44269799Y-44573886D01*
X44300500Y-44459309D01*
X44300500Y-44340691D01*
X44269799Y-44226114D01*
X44210489Y-44123387D01*
X44126613Y-44039511D01*
X44023886Y-43980201D01*
X43909309Y-43949500D01*
X43790691Y-43949500D01*
X43696196Y-43974820D01*
X43676110Y-43980202D01*
X43646500Y-43997298D01*
X43578600Y-44013771D01*
X43512573Y-43990918D01*
X43469382Y-43935997D01*
X43460500Y-43889911D01*
X43460500Y-42245177D01*
X43451768Y-42201282D01*
X43451767Y-42201281D01*
X43451767Y-42201278D01*
X43418504Y-42151496D01*
X43413197Y-42147950D01*
X43368724Y-42118234D01*
X43368717Y-42118231D01*
X43324822Y-42109500D01*
X43324820Y-42109500D01*
X41595180Y-42109500D01*
X41595178Y-42109500D01*
X41551282Y-42118231D01*
X41551275Y-42118234D01*
X41501496Y-42151495D01*
X41501495Y-42151496D01*
X41468234Y-42201275D01*
X41468231Y-42201282D01*
X41459500Y-42245177D01*
X41459500Y-42245180D01*
X41459500Y-43974820D01*
X41459500Y-43974822D01*
X41459499Y-43974822D01*
X41466348Y-44009249D01*
X41463373Y-44042494D01*
X41461260Y-44075833D01*
X41460269Y-44077178D01*
X41460121Y-44078841D01*
X41439643Y-44105201D01*
X41419842Y-44132104D01*
X41418068Y-44132974D01*
X41417258Y-44134018D01*
X41389003Y-44149268D01*
X41383014Y-44151556D01*
X41276114Y-44180201D01*
X41213508Y-44216346D01*
X41204306Y-44219864D01*
X41178904Y-44221887D01*
X41154135Y-44227897D01*
X41144656Y-44224616D01*
X41134657Y-44225413D01*
X41112189Y-44213379D01*
X41088108Y-44205045D01*
X41081908Y-44197161D01*
X41073065Y-44192425D01*
X41060669Y-44170154D01*
X41044917Y-44150124D01*
X41042478Y-44137471D01*
X41039085Y-44131375D01*
X41039633Y-44122714D01*
X41036034Y-44104037D01*
X41036034Y-41490691D01*
X88849500Y-41490691D01*
X88849500Y-41609309D01*
X88880201Y-41723886D01*
X88939511Y-41826613D01*
X89023387Y-41910489D01*
X89126114Y-41969799D01*
X89240691Y-42000500D01*
X89240694Y-42000500D01*
X89359306Y-42000500D01*
X89359309Y-42000500D01*
X89473886Y-41969799D01*
X89576613Y-41910489D01*
X89660489Y-41826613D01*
X89719799Y-41723886D01*
X89750500Y-41609309D01*
X89750500Y-41490691D01*
X89719799Y-41376114D01*
X89660489Y-41273387D01*
X89576613Y-41189511D01*
X89473886Y-41130201D01*
X89359309Y-41099500D01*
X89240691Y-41099500D01*
X89126114Y-41130201D01*
X89126112Y-41130201D01*
X89126112Y-41130202D01*
X89023387Y-41189511D01*
X89023384Y-41189513D01*
X88939513Y-41273384D01*
X88939511Y-41273387D01*
X88880201Y-41376114D01*
X88849500Y-41490691D01*
X41036034Y-41490691D01*
X41036034Y-40800602D01*
X41036148Y-40795297D01*
X41043625Y-40620683D01*
X41045590Y-40574799D01*
X41068124Y-40508664D01*
X41122837Y-40465210D01*
X41192358Y-40458234D01*
X41254614Y-40489952D01*
X41276863Y-40518104D01*
X41280200Y-40523885D01*
X41280201Y-40523886D01*
X41339511Y-40626613D01*
X41423387Y-40710489D01*
X41526114Y-40769799D01*
X41640691Y-40800500D01*
X41640694Y-40800500D01*
X41759306Y-40800500D01*
X41759309Y-40800500D01*
X41873886Y-40769799D01*
X41976613Y-40710489D01*
X42060489Y-40626613D01*
X42119799Y-40523886D01*
X42150500Y-40409309D01*
X42150500Y-40390691D01*
X45449500Y-40390691D01*
X45449500Y-40509309D01*
X45480201Y-40623886D01*
X45539511Y-40726613D01*
X45623387Y-40810489D01*
X45726114Y-40869799D01*
X45840691Y-40900500D01*
X45840694Y-40900500D01*
X45959306Y-40900500D01*
X45959309Y-40900500D01*
X46073886Y-40869799D01*
X46176613Y-40810489D01*
X46260489Y-40726613D01*
X46319799Y-40623886D01*
X46350500Y-40509309D01*
X46350500Y-40390691D01*
X46319799Y-40276114D01*
X46289447Y-40223543D01*
X77049499Y-40223543D01*
X77087947Y-40416829D01*
X77087950Y-40416839D01*
X77163364Y-40598907D01*
X77163371Y-40598920D01*
X77272860Y-40762781D01*
X77272863Y-40762785D01*
X77412214Y-40902136D01*
X77412218Y-40902139D01*
X77576079Y-41011628D01*
X77576092Y-41011635D01*
X77758160Y-41087049D01*
X77758165Y-41087051D01*
X77758169Y-41087051D01*
X77758170Y-41087052D01*
X77951456Y-41125500D01*
X77951459Y-41125500D01*
X78148543Y-41125500D01*
X78279250Y-41099500D01*
X78341835Y-41087051D01*
X78523914Y-41011632D01*
X78687782Y-40902139D01*
X78827139Y-40762782D01*
X78936632Y-40598914D01*
X79012051Y-40416835D01*
X79028047Y-40336420D01*
X79050500Y-40223543D01*
X79549499Y-40223543D01*
X79587947Y-40416829D01*
X79587950Y-40416839D01*
X79663364Y-40598907D01*
X79663371Y-40598920D01*
X79772860Y-40762781D01*
X79772863Y-40762785D01*
X79912214Y-40902136D01*
X79912218Y-40902139D01*
X80076079Y-41011628D01*
X80076092Y-41011635D01*
X80258160Y-41087049D01*
X80258165Y-41087051D01*
X80258169Y-41087051D01*
X80258170Y-41087052D01*
X80451456Y-41125500D01*
X80451459Y-41125500D01*
X80648543Y-41125500D01*
X80779250Y-41099500D01*
X80841835Y-41087051D01*
X81023914Y-41011632D01*
X81187782Y-40902139D01*
X81327139Y-40762782D01*
X81436632Y-40598914D01*
X81512051Y-40416835D01*
X81528047Y-40336420D01*
X81550500Y-40223543D01*
X81550500Y-39776456D01*
X81512052Y-39583170D01*
X81512051Y-39583169D01*
X81512051Y-39583165D01*
X81494458Y-39540691D01*
X91499500Y-39540691D01*
X91499500Y-39659309D01*
X91530201Y-39773886D01*
X91589511Y-39876613D01*
X91673387Y-39960489D01*
X91776114Y-40019799D01*
X91890691Y-40050500D01*
X91890694Y-40050500D01*
X92009306Y-40050500D01*
X92009309Y-40050500D01*
X92123886Y-40019799D01*
X92226613Y-39960489D01*
X92310489Y-39876613D01*
X92369799Y-39773886D01*
X92400500Y-39659309D01*
X92400500Y-39540691D01*
X92369799Y-39426114D01*
X92310489Y-39323387D01*
X92226613Y-39239511D01*
X92123886Y-39180201D01*
X92009309Y-39149500D01*
X91890691Y-39149500D01*
X91776114Y-39180201D01*
X91776112Y-39180201D01*
X91776112Y-39180202D01*
X91673387Y-39239511D01*
X91673384Y-39239513D01*
X91589513Y-39323384D01*
X91589511Y-39323387D01*
X91544648Y-39401092D01*
X91530201Y-39426114D01*
X91499500Y-39540691D01*
X81494458Y-39540691D01*
X81446998Y-39426112D01*
X81436635Y-39401092D01*
X81436628Y-39401079D01*
X81327139Y-39237218D01*
X81327136Y-39237214D01*
X81187785Y-39097863D01*
X81187781Y-39097860D01*
X81023920Y-38988371D01*
X81023907Y-38988364D01*
X80841839Y-38912950D01*
X80841829Y-38912947D01*
X80648543Y-38874500D01*
X80648541Y-38874500D01*
X80451459Y-38874500D01*
X80451457Y-38874500D01*
X80258170Y-38912947D01*
X80258160Y-38912950D01*
X80076092Y-38988364D01*
X80076079Y-38988371D01*
X79912218Y-39097860D01*
X79912214Y-39097863D01*
X79772863Y-39237214D01*
X79772860Y-39237218D01*
X79663371Y-39401079D01*
X79663364Y-39401092D01*
X79587950Y-39583160D01*
X79587947Y-39583170D01*
X79549500Y-39776456D01*
X79549500Y-39776459D01*
X79549500Y-40223541D01*
X79549500Y-40223543D01*
X79549499Y-40223543D01*
X79050500Y-40223543D01*
X79050500Y-39776456D01*
X79012052Y-39583170D01*
X79012051Y-39583169D01*
X79012051Y-39583165D01*
X78994458Y-39540691D01*
X78936635Y-39401092D01*
X78936628Y-39401079D01*
X78827139Y-39237218D01*
X78827136Y-39237214D01*
X78687785Y-39097863D01*
X78687781Y-39097860D01*
X78523920Y-38988371D01*
X78523907Y-38988364D01*
X78341839Y-38912950D01*
X78341829Y-38912947D01*
X78148543Y-38874500D01*
X78148541Y-38874500D01*
X77951459Y-38874500D01*
X77951457Y-38874500D01*
X77758170Y-38912947D01*
X77758160Y-38912950D01*
X77576092Y-38988364D01*
X77576079Y-38988371D01*
X77412218Y-39097860D01*
X77412214Y-39097863D01*
X77272863Y-39237214D01*
X77272860Y-39237218D01*
X77163371Y-39401079D01*
X77163364Y-39401092D01*
X77087950Y-39583160D01*
X77087947Y-39583170D01*
X77049500Y-39776456D01*
X77049500Y-39776459D01*
X77049500Y-40223541D01*
X77049500Y-40223543D01*
X77049499Y-40223543D01*
X46289447Y-40223543D01*
X46260489Y-40173387D01*
X46176613Y-40089511D01*
X46073886Y-40030201D01*
X45959309Y-39999500D01*
X45840691Y-39999500D01*
X45726114Y-40030201D01*
X45726112Y-40030201D01*
X45726112Y-40030202D01*
X45623387Y-40089511D01*
X45623384Y-40089513D01*
X45539513Y-40173384D01*
X45539511Y-40173387D01*
X45504776Y-40233550D01*
X45480201Y-40276114D01*
X45449500Y-40390691D01*
X42150500Y-40390691D01*
X42150500Y-40290691D01*
X42119799Y-40176114D01*
X42060489Y-40073387D01*
X41976613Y-39989511D01*
X41873886Y-39930201D01*
X41759309Y-39899500D01*
X41640691Y-39899500D01*
X41526114Y-39930201D01*
X41526112Y-39930201D01*
X41526112Y-39930202D01*
X41423387Y-39989511D01*
X41423384Y-39989513D01*
X41339513Y-40073384D01*
X41334563Y-40079836D01*
X41332879Y-40078544D01*
X41329162Y-40082087D01*
X41321325Y-40096449D01*
X41304397Y-40105696D01*
X41290434Y-40119009D01*
X41274366Y-40122104D01*
X41260009Y-40129948D01*
X41240766Y-40128576D01*
X41221825Y-40132225D01*
X41206638Y-40126143D01*
X41190317Y-40124980D01*
X41174869Y-40113421D01*
X41156963Y-40106251D01*
X41147474Y-40092923D01*
X41134374Y-40083121D01*
X41127628Y-40065048D01*
X41116440Y-40049333D01*
X41115427Y-40032359D01*
X41109942Y-40017662D01*
X41112452Y-39982457D01*
X41117227Y-39960486D01*
X41182421Y-39660465D01*
X41185109Y-39650223D01*
X41295600Y-39292484D01*
X41299151Y-39282523D01*
X41439814Y-38935550D01*
X41444206Y-38925921D01*
X41614016Y-38592243D01*
X41614892Y-38590691D01*
X47549500Y-38590691D01*
X47549500Y-38709309D01*
X47580201Y-38823886D01*
X47639511Y-38926613D01*
X47723387Y-39010489D01*
X47826114Y-39069799D01*
X47940691Y-39100500D01*
X47940694Y-39100500D01*
X48059306Y-39100500D01*
X48059309Y-39100500D01*
X48173886Y-39069799D01*
X48276613Y-39010489D01*
X48360489Y-38926613D01*
X48419799Y-38823886D01*
X48450500Y-38709309D01*
X48450500Y-38590691D01*
X48419799Y-38476114D01*
X48360489Y-38373387D01*
X48276613Y-38289511D01*
X48173886Y-38230201D01*
X48059309Y-38199500D01*
X47940691Y-38199500D01*
X47826114Y-38230201D01*
X47826112Y-38230201D01*
X47826112Y-38230202D01*
X47723387Y-38289511D01*
X47723384Y-38289513D01*
X47639513Y-38373384D01*
X47639511Y-38373387D01*
X47590431Y-38458396D01*
X47580201Y-38476114D01*
X47549500Y-38590691D01*
X41614892Y-38590691D01*
X41619225Y-38583010D01*
X41726508Y-38410489D01*
X41816929Y-38265083D01*
X41822886Y-38256357D01*
X42021483Y-37990691D01*
X43249500Y-37990691D01*
X43249500Y-38109309D01*
X43280201Y-38223886D01*
X43339511Y-38326613D01*
X43423387Y-38410489D01*
X43526114Y-38469799D01*
X43640691Y-38500500D01*
X43640694Y-38500500D01*
X43759306Y-38500500D01*
X43759309Y-38500500D01*
X43873886Y-38469799D01*
X43976613Y-38410489D01*
X44060489Y-38326613D01*
X44119799Y-38223886D01*
X44150500Y-38109309D01*
X44150500Y-37990691D01*
X44119799Y-37876114D01*
X44060489Y-37773387D01*
X43976613Y-37689511D01*
X43873886Y-37630201D01*
X43759309Y-37599500D01*
X43640691Y-37599500D01*
X43526114Y-37630201D01*
X43526112Y-37630201D01*
X43526112Y-37630202D01*
X43423387Y-37689511D01*
X43423384Y-37689513D01*
X43339513Y-37773384D01*
X43339511Y-37773387D01*
X43280201Y-37876114D01*
X43249500Y-37990691D01*
X42021483Y-37990691D01*
X42047063Y-37956472D01*
X42053762Y-37948268D01*
X42302747Y-37668650D01*
X42310097Y-37661075D01*
X42582102Y-37403741D01*
X42590072Y-37396823D01*
X42883050Y-37163705D01*
X42891601Y-37157479D01*
X43203441Y-36950256D01*
X43212504Y-36944778D01*
X43540898Y-36764984D01*
X43550378Y-36760308D01*
X43892964Y-36609232D01*
X43902804Y-36605386D01*
X44257054Y-36484150D01*
X44267208Y-36481155D01*
X44633193Y-36389980D01*
X44638286Y-36388825D01*
X44700194Y-36376189D01*
X44700195Y-36376188D01*
X44852820Y-36345034D01*
X45278653Y-36221704D01*
X45693181Y-36064507D01*
X45693182Y-36064506D01*
X45693184Y-36064506D01*
X46089179Y-35876615D01*
X46093715Y-35874463D01*
X46477657Y-35652806D01*
X46842519Y-35400972D01*
X47185932Y-35120595D01*
X47505670Y-34813493D01*
X47799660Y-34481658D01*
X48065994Y-34127243D01*
X48302945Y-33752545D01*
X48401063Y-33565602D01*
X51249500Y-33565602D01*
X51249500Y-33834397D01*
X51284582Y-34100880D01*
X51284583Y-34100885D01*
X51284584Y-34100891D01*
X51319368Y-34230708D01*
X51354152Y-34360524D01*
X51457011Y-34608850D01*
X51457019Y-34608866D01*
X51498443Y-34680613D01*
X51591413Y-34841641D01*
X51591415Y-34841644D01*
X51591416Y-34841645D01*
X51755042Y-35054888D01*
X51755048Y-35054895D01*
X51945104Y-35244951D01*
X51945110Y-35244956D01*
X52158359Y-35408587D01*
X52307968Y-35494964D01*
X52391133Y-35542980D01*
X52391149Y-35542988D01*
X52532278Y-35601445D01*
X52639474Y-35645847D01*
X52899109Y-35715416D01*
X53036162Y-35733459D01*
X53165602Y-35750500D01*
X53165603Y-35750500D01*
X53434398Y-35750500D01*
X53494905Y-35742534D01*
X53700891Y-35715416D01*
X53960526Y-35645847D01*
X54147457Y-35568417D01*
X54208850Y-35542988D01*
X54208853Y-35542986D01*
X54208859Y-35542984D01*
X54212831Y-35540691D01*
X87149500Y-35540691D01*
X87149500Y-35659309D01*
X87180201Y-35773886D01*
X87239511Y-35876613D01*
X87323387Y-35960489D01*
X87426114Y-36019799D01*
X87540691Y-36050500D01*
X87540694Y-36050500D01*
X87659306Y-36050500D01*
X87659309Y-36050500D01*
X87773886Y-36019799D01*
X87876613Y-35960489D01*
X87960489Y-35876613D01*
X88019799Y-35773886D01*
X88050500Y-35659309D01*
X88050500Y-35540691D01*
X88019799Y-35426114D01*
X87960489Y-35323387D01*
X87876613Y-35239511D01*
X87773886Y-35180201D01*
X87659309Y-35149500D01*
X87540691Y-35149500D01*
X87426114Y-35180201D01*
X87426112Y-35180201D01*
X87426112Y-35180202D01*
X87323387Y-35239511D01*
X87323384Y-35239513D01*
X87239513Y-35323384D01*
X87239511Y-35323387D01*
X87180743Y-35425176D01*
X87180201Y-35426114D01*
X87149500Y-35540691D01*
X54212831Y-35540691D01*
X54441641Y-35408587D01*
X54654890Y-35244956D01*
X54844956Y-35054890D01*
X55008587Y-34841641D01*
X55142984Y-34608859D01*
X55245847Y-34360526D01*
X55315416Y-34100891D01*
X55350500Y-33834397D01*
X55350500Y-33565603D01*
X55315416Y-33299109D01*
X55293810Y-33218475D01*
X75449500Y-33218475D01*
X75449500Y-34781517D01*
X75458508Y-34838390D01*
X75464354Y-34875304D01*
X75521950Y-34988342D01*
X75521952Y-34988344D01*
X75521954Y-34988347D01*
X75611652Y-35078045D01*
X75611654Y-35078046D01*
X75611658Y-35078050D01*
X75724694Y-35135645D01*
X75724698Y-35135647D01*
X75818475Y-35150499D01*
X75818481Y-35150500D01*
X77081518Y-35150499D01*
X77175304Y-35135646D01*
X77288342Y-35078050D01*
X77378050Y-34988342D01*
X77435646Y-34875304D01*
X77435646Y-34875302D01*
X77435647Y-34875301D01*
X77450499Y-34781524D01*
X77450500Y-34781519D01*
X77450499Y-33218482D01*
X77439964Y-33151960D01*
X77439964Y-33151957D01*
X77438180Y-33140691D01*
X85949500Y-33140691D01*
X85949500Y-33259309D01*
X85980201Y-33373886D01*
X86039511Y-33476613D01*
X86123387Y-33560489D01*
X86226114Y-33619799D01*
X86340691Y-33650500D01*
X86340694Y-33650500D01*
X86459306Y-33650500D01*
X86459309Y-33650500D01*
X86573886Y-33619799D01*
X86676613Y-33560489D01*
X86760489Y-33476613D01*
X86819799Y-33373886D01*
X86850500Y-33259309D01*
X86850500Y-33140691D01*
X86819799Y-33026114D01*
X86760489Y-32923387D01*
X86676613Y-32839511D01*
X86573886Y-32780201D01*
X86459309Y-32749500D01*
X86340691Y-32749500D01*
X86226114Y-32780201D01*
X86226112Y-32780201D01*
X86226112Y-32780202D01*
X86123387Y-32839511D01*
X86123384Y-32839513D01*
X86039513Y-32923384D01*
X86039511Y-32923387D01*
X85980201Y-33026114D01*
X85949500Y-33140691D01*
X77438180Y-33140691D01*
X77435647Y-33124699D01*
X77435646Y-33124697D01*
X77435646Y-33124696D01*
X77378050Y-33011658D01*
X77378046Y-33011654D01*
X77378045Y-33011652D01*
X77288347Y-32921954D01*
X77288344Y-32921952D01*
X77288342Y-32921950D01*
X77181155Y-32867335D01*
X77175301Y-32864352D01*
X77081524Y-32849500D01*
X75818482Y-32849500D01*
X75737519Y-32862323D01*
X75724696Y-32864354D01*
X75611658Y-32921950D01*
X75611657Y-32921951D01*
X75611652Y-32921954D01*
X75521954Y-33011652D01*
X75521951Y-33011657D01*
X75521950Y-33011658D01*
X75502751Y-33049337D01*
X75464352Y-33124698D01*
X75449500Y-33218475D01*
X55293810Y-33218475D01*
X55245847Y-33039474D01*
X55167158Y-32849501D01*
X55142988Y-32791149D01*
X55142980Y-32791133D01*
X55094964Y-32707968D01*
X55008587Y-32558359D01*
X54844956Y-32345110D01*
X54844951Y-32345104D01*
X54654895Y-32155048D01*
X54654888Y-32155042D01*
X54441645Y-31991416D01*
X54441644Y-31991415D01*
X54441641Y-31991413D01*
X54348832Y-31937830D01*
X54208866Y-31857019D01*
X54208850Y-31857011D01*
X53960524Y-31754152D01*
X53830708Y-31719368D01*
X53700891Y-31684584D01*
X53700885Y-31684583D01*
X53700880Y-31684582D01*
X53434398Y-31649500D01*
X53434397Y-31649500D01*
X53165603Y-31649500D01*
X53165602Y-31649500D01*
X52899119Y-31684582D01*
X52899112Y-31684583D01*
X52899109Y-31684584D01*
X52844239Y-31699286D01*
X52639475Y-31754152D01*
X52391149Y-31857011D01*
X52391133Y-31857019D01*
X52158354Y-31991416D01*
X51945111Y-32155042D01*
X51945104Y-32155048D01*
X51755048Y-32345104D01*
X51755042Y-32345111D01*
X51591416Y-32558354D01*
X51457019Y-32791133D01*
X51457011Y-32791149D01*
X51354152Y-33039475D01*
X51284585Y-33299106D01*
X51284582Y-33299119D01*
X51249500Y-33565602D01*
X48401063Y-33565602D01*
X48508976Y-33359995D01*
X48682752Y-32952140D01*
X48823144Y-32531623D01*
X48929243Y-32101173D01*
X48929246Y-32101154D01*
X48929247Y-32101152D01*
X48985641Y-31754152D01*
X49000360Y-31663582D01*
X49036034Y-31221686D01*
X49036034Y-31000020D01*
X49036034Y-30934128D01*
X49036034Y-29790691D01*
X50099500Y-29790691D01*
X50099500Y-29909309D01*
X50130201Y-30023886D01*
X50189511Y-30126613D01*
X50273387Y-30210489D01*
X50376114Y-30269799D01*
X50490691Y-30300500D01*
X50490694Y-30300500D01*
X50609306Y-30300500D01*
X50609309Y-30300500D01*
X50723886Y-30269799D01*
X50826613Y-30210489D01*
X50910489Y-30126613D01*
X50960097Y-30040691D01*
X85549500Y-30040691D01*
X85549500Y-30159309D01*
X85580201Y-30273886D01*
X85639511Y-30376613D01*
X85723387Y-30460489D01*
X85826114Y-30519799D01*
X85940691Y-30550500D01*
X85940694Y-30550500D01*
X86059306Y-30550500D01*
X86059309Y-30550500D01*
X86173886Y-30519799D01*
X86276613Y-30460489D01*
X86360489Y-30376613D01*
X86419799Y-30273886D01*
X86450500Y-30159309D01*
X86450500Y-30040691D01*
X86419799Y-29926114D01*
X86360489Y-29823387D01*
X86276613Y-29739511D01*
X86173886Y-29680201D01*
X86059309Y-29649500D01*
X85940691Y-29649500D01*
X85826114Y-29680201D01*
X85826112Y-29680201D01*
X85826112Y-29680202D01*
X85723387Y-29739511D01*
X85723384Y-29739513D01*
X85639513Y-29823384D01*
X85639511Y-29823387D01*
X85589905Y-29909307D01*
X85580201Y-29926114D01*
X85549500Y-30040691D01*
X50960097Y-30040691D01*
X50969799Y-30023886D01*
X51000500Y-29909309D01*
X51000500Y-29790691D01*
X50969799Y-29676114D01*
X50910489Y-29573387D01*
X50826613Y-29489511D01*
X50723886Y-29430201D01*
X50609309Y-29399500D01*
X50490691Y-29399500D01*
X50376114Y-29430201D01*
X50376112Y-29430201D01*
X50376112Y-29430202D01*
X50273387Y-29489511D01*
X50273384Y-29489513D01*
X50189513Y-29573384D01*
X50189511Y-29573387D01*
X50160355Y-29623887D01*
X50130201Y-29676114D01*
X50099500Y-29790691D01*
X49036034Y-29790691D01*
X49036034Y-29390691D01*
X53099500Y-29390691D01*
X53099500Y-29509309D01*
X53130201Y-29623886D01*
X53189511Y-29726613D01*
X53273387Y-29810489D01*
X53376114Y-29869799D01*
X53490691Y-29900500D01*
X53490694Y-29900500D01*
X53609306Y-29900500D01*
X53609309Y-29900500D01*
X53723886Y-29869799D01*
X53826613Y-29810489D01*
X53910489Y-29726613D01*
X53969799Y-29623886D01*
X54000500Y-29509309D01*
X54000500Y-29390691D01*
X53969799Y-29276114D01*
X53910489Y-29173387D01*
X53826613Y-29089511D01*
X53723886Y-29030201D01*
X53609309Y-28999500D01*
X53490691Y-28999500D01*
X53376114Y-29030201D01*
X53376112Y-29030201D01*
X53376112Y-29030202D01*
X53273387Y-29089511D01*
X53273384Y-29089513D01*
X53189513Y-29173384D01*
X53189511Y-29173387D01*
X53130201Y-29276114D01*
X53099500Y-29390691D01*
X49036034Y-29390691D01*
X49036034Y-27940691D01*
X86149500Y-27940691D01*
X86149500Y-28059309D01*
X86180201Y-28173886D01*
X86239511Y-28276613D01*
X86323387Y-28360489D01*
X86426114Y-28419799D01*
X86540691Y-28450500D01*
X86540694Y-28450500D01*
X86659306Y-28450500D01*
X86659309Y-28450500D01*
X86773886Y-28419799D01*
X86876613Y-28360489D01*
X86960489Y-28276613D01*
X87019799Y-28173886D01*
X87050500Y-28059309D01*
X87050500Y-27940691D01*
X87019799Y-27826114D01*
X86960489Y-27723387D01*
X86876613Y-27639511D01*
X86773886Y-27580201D01*
X86659309Y-27549500D01*
X86540691Y-27549500D01*
X86426114Y-27580201D01*
X86426112Y-27580201D01*
X86426112Y-27580202D01*
X86323387Y-27639511D01*
X86323384Y-27639513D01*
X86239513Y-27723384D01*
X86239511Y-27723387D01*
X86180201Y-27826114D01*
X86149500Y-27940691D01*
X49036034Y-27940691D01*
X49036034Y-25002727D01*
X49036152Y-24997324D01*
X49041612Y-24872149D01*
X51585000Y-24872149D01*
X51585000Y-25127850D01*
X51610957Y-25325007D01*
X51618374Y-25381340D01*
X51671659Y-25580202D01*
X51684550Y-25628312D01*
X51684553Y-25628322D01*
X51782394Y-25864531D01*
X51782399Y-25864542D01*
X51910234Y-26085957D01*
X51910245Y-26085973D01*
X52065888Y-26288811D01*
X52065894Y-26288818D01*
X52246681Y-26469605D01*
X52246687Y-26469610D01*
X52449535Y-26625261D01*
X52449542Y-26625265D01*
X52670957Y-26753100D01*
X52670962Y-26753102D01*
X52670965Y-26753104D01*
X52907187Y-26850950D01*
X53154160Y-26917126D01*
X53407657Y-26950500D01*
X53407664Y-26950500D01*
X53663336Y-26950500D01*
X53663343Y-26950500D01*
X53916840Y-26917126D01*
X54163813Y-26850950D01*
X54400035Y-26753104D01*
X54621465Y-26625261D01*
X54824313Y-26469610D01*
X55005110Y-26288813D01*
X55151110Y-26098543D01*
X64839499Y-26098543D01*
X64877947Y-26291829D01*
X64877950Y-26291839D01*
X64953364Y-26473907D01*
X64953371Y-26473920D01*
X65062860Y-26637781D01*
X65062863Y-26637785D01*
X65202214Y-26777136D01*
X65202218Y-26777139D01*
X65366079Y-26886628D01*
X65366092Y-26886635D01*
X65520278Y-26950500D01*
X65548165Y-26962051D01*
X65548169Y-26962051D01*
X65548170Y-26962052D01*
X65741456Y-27000500D01*
X65741459Y-27000500D01*
X65938543Y-27000500D01*
X66068582Y-26974632D01*
X66131835Y-26962051D01*
X66313914Y-26886632D01*
X66477782Y-26777139D01*
X66617139Y-26637782D01*
X66726632Y-26473914D01*
X66802051Y-26291835D01*
X66840500Y-26098543D01*
X67379499Y-26098543D01*
X67417947Y-26291829D01*
X67417950Y-26291839D01*
X67493364Y-26473907D01*
X67493371Y-26473920D01*
X67602860Y-26637781D01*
X67602863Y-26637785D01*
X67742214Y-26777136D01*
X67742218Y-26777139D01*
X67906079Y-26886628D01*
X67906092Y-26886635D01*
X68060278Y-26950500D01*
X68088165Y-26962051D01*
X68088169Y-26962051D01*
X68088170Y-26962052D01*
X68281456Y-27000500D01*
X68281459Y-27000500D01*
X68478543Y-27000500D01*
X68608582Y-26974632D01*
X68671835Y-26962051D01*
X68853914Y-26886632D01*
X69017782Y-26777139D01*
X69157139Y-26637782D01*
X69266632Y-26473914D01*
X69342051Y-26291835D01*
X69380500Y-26098543D01*
X69919499Y-26098543D01*
X69957947Y-26291829D01*
X69957950Y-26291839D01*
X70033364Y-26473907D01*
X70033371Y-26473920D01*
X70142860Y-26637781D01*
X70142863Y-26637785D01*
X70282214Y-26777136D01*
X70282218Y-26777139D01*
X70446079Y-26886628D01*
X70446092Y-26886635D01*
X70600278Y-26950500D01*
X70628165Y-26962051D01*
X70628169Y-26962051D01*
X70628170Y-26962052D01*
X70821456Y-27000500D01*
X70821459Y-27000500D01*
X71018543Y-27000500D01*
X71148582Y-26974632D01*
X71211835Y-26962051D01*
X71393914Y-26886632D01*
X71557782Y-26777139D01*
X71697139Y-26637782D01*
X71806632Y-26473914D01*
X71882051Y-26291835D01*
X71920500Y-26098543D01*
X72459499Y-26098543D01*
X72497947Y-26291829D01*
X72497950Y-26291839D01*
X72573364Y-26473907D01*
X72573371Y-26473920D01*
X72682860Y-26637781D01*
X72682863Y-26637785D01*
X72822214Y-26777136D01*
X72822218Y-26777139D01*
X72986079Y-26886628D01*
X72986092Y-26886635D01*
X73140278Y-26950500D01*
X73168165Y-26962051D01*
X73168169Y-26962051D01*
X73168170Y-26962052D01*
X73361456Y-27000500D01*
X73361459Y-27000500D01*
X73558543Y-27000500D01*
X73688582Y-26974632D01*
X73751835Y-26962051D01*
X73933914Y-26886632D01*
X74097782Y-26777139D01*
X74237139Y-26637782D01*
X74346632Y-26473914D01*
X74422051Y-26291835D01*
X74460500Y-26098541D01*
X74460500Y-25940691D01*
X75949500Y-25940691D01*
X75949500Y-26059309D01*
X75980201Y-26173886D01*
X76039511Y-26276613D01*
X76123387Y-26360489D01*
X76226114Y-26419799D01*
X76340691Y-26450500D01*
X76340694Y-26450500D01*
X76459306Y-26450500D01*
X76459309Y-26450500D01*
X76573886Y-26419799D01*
X76676613Y-26360489D01*
X76760489Y-26276613D01*
X76819799Y-26173886D01*
X76850500Y-26059309D01*
X76850500Y-25940691D01*
X76819799Y-25826114D01*
X76760489Y-25723387D01*
X76676613Y-25639511D01*
X76573886Y-25580201D01*
X76459309Y-25549500D01*
X76340691Y-25549500D01*
X76226114Y-25580201D01*
X76226112Y-25580201D01*
X76226112Y-25580202D01*
X76123387Y-25639511D01*
X76123384Y-25639513D01*
X76039513Y-25723384D01*
X76039511Y-25723387D01*
X75980201Y-25826114D01*
X75949500Y-25940691D01*
X74460500Y-25940691D01*
X74460500Y-25901459D01*
X74460500Y-25901456D01*
X74422052Y-25708170D01*
X74422051Y-25708169D01*
X74422051Y-25708165D01*
X74388979Y-25628322D01*
X74346635Y-25526092D01*
X74346628Y-25526079D01*
X74237139Y-25362218D01*
X74237136Y-25362214D01*
X74097785Y-25222863D01*
X74097781Y-25222860D01*
X73933920Y-25113371D01*
X73933907Y-25113364D01*
X73751839Y-25037950D01*
X73751829Y-25037947D01*
X73558543Y-24999500D01*
X73558541Y-24999500D01*
X73361459Y-24999500D01*
X73361457Y-24999500D01*
X73168170Y-25037947D01*
X73168160Y-25037950D01*
X72986092Y-25113364D01*
X72986079Y-25113371D01*
X72822218Y-25222860D01*
X72822214Y-25222863D01*
X72682863Y-25362214D01*
X72682860Y-25362218D01*
X72573371Y-25526079D01*
X72573364Y-25526092D01*
X72497950Y-25708160D01*
X72497947Y-25708170D01*
X72459500Y-25901456D01*
X72459500Y-25901459D01*
X72459500Y-26098541D01*
X72459500Y-26098543D01*
X72459499Y-26098543D01*
X71920500Y-26098543D01*
X71920500Y-26098541D01*
X71920500Y-25901459D01*
X71920500Y-25901456D01*
X71882052Y-25708170D01*
X71882051Y-25708169D01*
X71882051Y-25708165D01*
X71848979Y-25628322D01*
X71806635Y-25526092D01*
X71806628Y-25526079D01*
X71697139Y-25362218D01*
X71697136Y-25362214D01*
X71557785Y-25222863D01*
X71557781Y-25222860D01*
X71393920Y-25113371D01*
X71393907Y-25113364D01*
X71211839Y-25037950D01*
X71211829Y-25037947D01*
X71018543Y-24999500D01*
X71018541Y-24999500D01*
X70821459Y-24999500D01*
X70821457Y-24999500D01*
X70628170Y-25037947D01*
X70628160Y-25037950D01*
X70446092Y-25113364D01*
X70446079Y-25113371D01*
X70282218Y-25222860D01*
X70282214Y-25222863D01*
X70142863Y-25362214D01*
X70142860Y-25362218D01*
X70033371Y-25526079D01*
X70033364Y-25526092D01*
X69957950Y-25708160D01*
X69957947Y-25708170D01*
X69919500Y-25901456D01*
X69919500Y-25901459D01*
X69919500Y-26098541D01*
X69919500Y-26098543D01*
X69919499Y-26098543D01*
X69380500Y-26098543D01*
X69380500Y-26098541D01*
X69380500Y-25901459D01*
X69380500Y-25901456D01*
X69342052Y-25708170D01*
X69342051Y-25708169D01*
X69342051Y-25708165D01*
X69308979Y-25628322D01*
X69266635Y-25526092D01*
X69266628Y-25526079D01*
X69157139Y-25362218D01*
X69157136Y-25362214D01*
X69017785Y-25222863D01*
X69017781Y-25222860D01*
X68853920Y-25113371D01*
X68853907Y-25113364D01*
X68671839Y-25037950D01*
X68671829Y-25037947D01*
X68478543Y-24999500D01*
X68478541Y-24999500D01*
X68281459Y-24999500D01*
X68281457Y-24999500D01*
X68088170Y-25037947D01*
X68088160Y-25037950D01*
X67906092Y-25113364D01*
X67906079Y-25113371D01*
X67742218Y-25222860D01*
X67742214Y-25222863D01*
X67602863Y-25362214D01*
X67602860Y-25362218D01*
X67493371Y-25526079D01*
X67493364Y-25526092D01*
X67417950Y-25708160D01*
X67417947Y-25708170D01*
X67379500Y-25901456D01*
X67379500Y-25901459D01*
X67379500Y-26098541D01*
X67379500Y-26098543D01*
X67379499Y-26098543D01*
X66840500Y-26098543D01*
X66840500Y-26098541D01*
X66840500Y-25901459D01*
X66840500Y-25901456D01*
X66802052Y-25708170D01*
X66802051Y-25708169D01*
X66802051Y-25708165D01*
X66768979Y-25628322D01*
X66726635Y-25526092D01*
X66726628Y-25526079D01*
X66617139Y-25362218D01*
X66617136Y-25362214D01*
X66477785Y-25222863D01*
X66477781Y-25222860D01*
X66313920Y-25113371D01*
X66313907Y-25113364D01*
X66131839Y-25037950D01*
X66131829Y-25037947D01*
X65938543Y-24999500D01*
X65938541Y-24999500D01*
X65741459Y-24999500D01*
X65741457Y-24999500D01*
X65548170Y-25037947D01*
X65548160Y-25037950D01*
X65366092Y-25113364D01*
X65366079Y-25113371D01*
X65202218Y-25222860D01*
X65202214Y-25222863D01*
X65062863Y-25362214D01*
X65062860Y-25362218D01*
X64953371Y-25526079D01*
X64953364Y-25526092D01*
X64877950Y-25708160D01*
X64877947Y-25708170D01*
X64839500Y-25901456D01*
X64839500Y-25901459D01*
X64839500Y-26098541D01*
X64839500Y-26098543D01*
X64839499Y-26098543D01*
X55151110Y-26098543D01*
X55160761Y-26085965D01*
X55288604Y-25864535D01*
X55304519Y-25826114D01*
X55381811Y-25639513D01*
X55386450Y-25628313D01*
X55452626Y-25381340D01*
X55486000Y-25127843D01*
X55486000Y-24872157D01*
X55485999Y-24872149D01*
X81585000Y-24872149D01*
X81585000Y-25127850D01*
X81610957Y-25325007D01*
X81618374Y-25381340D01*
X81671659Y-25580202D01*
X81684550Y-25628312D01*
X81684553Y-25628322D01*
X81782394Y-25864531D01*
X81782399Y-25864542D01*
X81910234Y-26085957D01*
X81910245Y-26085973D01*
X82065888Y-26288811D01*
X82065894Y-26288818D01*
X82246681Y-26469605D01*
X82246687Y-26469610D01*
X82449535Y-26625261D01*
X82449542Y-26625265D01*
X82670957Y-26753100D01*
X82670962Y-26753102D01*
X82670965Y-26753104D01*
X82907187Y-26850950D01*
X83154160Y-26917126D01*
X83407657Y-26950500D01*
X83407664Y-26950500D01*
X83663336Y-26950500D01*
X83663343Y-26950500D01*
X83916840Y-26917126D01*
X84163813Y-26850950D01*
X84400035Y-26753104D01*
X84621465Y-26625261D01*
X84824313Y-26469610D01*
X85005110Y-26288813D01*
X85160761Y-26085965D01*
X85288604Y-25864535D01*
X85386450Y-25628313D01*
X85452626Y-25381340D01*
X85486000Y-25127843D01*
X85486000Y-24872157D01*
X85452626Y-24618660D01*
X85386450Y-24371687D01*
X85288604Y-24135465D01*
X85288602Y-24135462D01*
X85288600Y-24135457D01*
X85160765Y-23914042D01*
X85160761Y-23914035D01*
X85086243Y-23816921D01*
X85005111Y-23711188D01*
X85005105Y-23711181D01*
X84824318Y-23530394D01*
X84824311Y-23530388D01*
X84621473Y-23374745D01*
X84621466Y-23374740D01*
X84621465Y-23374739D01*
X84621460Y-23374736D01*
X84621457Y-23374734D01*
X84400042Y-23246899D01*
X84400031Y-23246894D01*
X84163822Y-23149053D01*
X84163815Y-23149051D01*
X84163813Y-23149050D01*
X83916840Y-23082874D01*
X83860507Y-23075457D01*
X83663350Y-23049500D01*
X83663343Y-23049500D01*
X83407657Y-23049500D01*
X83407649Y-23049500D01*
X83186738Y-23078585D01*
X83154160Y-23082874D01*
X82907187Y-23149050D01*
X82907177Y-23149053D01*
X82670968Y-23246894D01*
X82670957Y-23246899D01*
X82449542Y-23374734D01*
X82449526Y-23374745D01*
X82246688Y-23530388D01*
X82246681Y-23530394D01*
X82065894Y-23711181D01*
X82065888Y-23711188D01*
X81910245Y-23914026D01*
X81910234Y-23914042D01*
X81782399Y-24135457D01*
X81782394Y-24135468D01*
X81684553Y-24371677D01*
X81684550Y-24371687D01*
X81663093Y-24451768D01*
X81618374Y-24618661D01*
X81585000Y-24872149D01*
X55485999Y-24872149D01*
X55452626Y-24618660D01*
X55386450Y-24371687D01*
X55288604Y-24135465D01*
X55288602Y-24135462D01*
X55288600Y-24135457D01*
X55160765Y-23914042D01*
X55160761Y-23914035D01*
X55086243Y-23816921D01*
X55005111Y-23711188D01*
X55005105Y-23711181D01*
X54852467Y-23558543D01*
X64839499Y-23558543D01*
X64877947Y-23751829D01*
X64877950Y-23751839D01*
X64953364Y-23933907D01*
X64953371Y-23933920D01*
X65062860Y-24097781D01*
X65062863Y-24097785D01*
X65202214Y-24237136D01*
X65202218Y-24237139D01*
X65366079Y-24346628D01*
X65366092Y-24346635D01*
X65548160Y-24422049D01*
X65548165Y-24422051D01*
X65548169Y-24422051D01*
X65548170Y-24422052D01*
X65741456Y-24460500D01*
X65741459Y-24460500D01*
X65938543Y-24460500D01*
X66068582Y-24434632D01*
X66131835Y-24422051D01*
X66313914Y-24346632D01*
X66477782Y-24237139D01*
X66617139Y-24097782D01*
X66726632Y-23933914D01*
X66802051Y-23751835D01*
X66840500Y-23558543D01*
X67379499Y-23558543D01*
X67417947Y-23751829D01*
X67417950Y-23751839D01*
X67493364Y-23933907D01*
X67493371Y-23933920D01*
X67602860Y-24097781D01*
X67602863Y-24097785D01*
X67742214Y-24237136D01*
X67742218Y-24237139D01*
X67906079Y-24346628D01*
X67906092Y-24346635D01*
X68088160Y-24422049D01*
X68088165Y-24422051D01*
X68088169Y-24422051D01*
X68088170Y-24422052D01*
X68281456Y-24460500D01*
X68281459Y-24460500D01*
X68478543Y-24460500D01*
X68608582Y-24434632D01*
X68671835Y-24422051D01*
X68853914Y-24346632D01*
X69017782Y-24237139D01*
X69157139Y-24097782D01*
X69266632Y-23933914D01*
X69342051Y-23751835D01*
X69380500Y-23558543D01*
X69919499Y-23558543D01*
X69957947Y-23751829D01*
X69957950Y-23751839D01*
X70033364Y-23933907D01*
X70033371Y-23933920D01*
X70142860Y-24097781D01*
X70142863Y-24097785D01*
X70282214Y-24237136D01*
X70282218Y-24237139D01*
X70446079Y-24346628D01*
X70446092Y-24346635D01*
X70628160Y-24422049D01*
X70628165Y-24422051D01*
X70628169Y-24422051D01*
X70628170Y-24422052D01*
X70821456Y-24460500D01*
X70821459Y-24460500D01*
X71018543Y-24460500D01*
X71148582Y-24434632D01*
X71211835Y-24422051D01*
X71393914Y-24346632D01*
X71426555Y-24324822D01*
X72459499Y-24324822D01*
X72468231Y-24368717D01*
X72468232Y-24368721D01*
X72468233Y-24368722D01*
X72501496Y-24418504D01*
X72551278Y-24451767D01*
X72551281Y-24451767D01*
X72551282Y-24451768D01*
X72595177Y-24460500D01*
X72595180Y-24460500D01*
X74324822Y-24460500D01*
X74368717Y-24451768D01*
X74368717Y-24451767D01*
X74368722Y-24451767D01*
X74418504Y-24418504D01*
X74451767Y-24368722D01*
X74460500Y-24324820D01*
X74460500Y-22595180D01*
X74460500Y-22595177D01*
X74451768Y-22551282D01*
X74451767Y-22551281D01*
X74451767Y-22551278D01*
X74418504Y-22501496D01*
X74418503Y-22501495D01*
X74368724Y-22468234D01*
X74368717Y-22468231D01*
X74324822Y-22459500D01*
X74324820Y-22459500D01*
X72595180Y-22459500D01*
X72595178Y-22459500D01*
X72551282Y-22468231D01*
X72551275Y-22468234D01*
X72501496Y-22501495D01*
X72501495Y-22501496D01*
X72468234Y-22551275D01*
X72468231Y-22551282D01*
X72459500Y-22595177D01*
X72459500Y-22595180D01*
X72459500Y-24324820D01*
X72459500Y-24324822D01*
X72459499Y-24324822D01*
X71426555Y-24324822D01*
X71557782Y-24237139D01*
X71697139Y-24097782D01*
X71806632Y-23933914D01*
X71882051Y-23751835D01*
X71920500Y-23558541D01*
X71920500Y-23361459D01*
X71920500Y-23361456D01*
X71882052Y-23168170D01*
X71882051Y-23168169D01*
X71882051Y-23168165D01*
X71812692Y-23000716D01*
X71806635Y-22986092D01*
X71806628Y-22986079D01*
X71697139Y-22822218D01*
X71697136Y-22822214D01*
X71557785Y-22682863D01*
X71557782Y-22682861D01*
X71393920Y-22573371D01*
X71393907Y-22573364D01*
X71211839Y-22497950D01*
X71211829Y-22497947D01*
X71018543Y-22459500D01*
X71018541Y-22459500D01*
X70821459Y-22459500D01*
X70821457Y-22459500D01*
X70628170Y-22497947D01*
X70628160Y-22497950D01*
X70446092Y-22573364D01*
X70446079Y-22573371D01*
X70282218Y-22682860D01*
X70282214Y-22682863D01*
X70142863Y-22822214D01*
X70142860Y-22822218D01*
X70033371Y-22986079D01*
X70033364Y-22986092D01*
X69957950Y-23168160D01*
X69957947Y-23168170D01*
X69919500Y-23361456D01*
X69919500Y-23361459D01*
X69919500Y-23558541D01*
X69919500Y-23558543D01*
X69919499Y-23558543D01*
X69380500Y-23558543D01*
X69380500Y-23558541D01*
X69380500Y-23361459D01*
X69380500Y-23361456D01*
X69342052Y-23168170D01*
X69342051Y-23168169D01*
X69342051Y-23168165D01*
X69272692Y-23000716D01*
X69266635Y-22986092D01*
X69266628Y-22986079D01*
X69157139Y-22822218D01*
X69157136Y-22822214D01*
X69017785Y-22682863D01*
X69017781Y-22682860D01*
X68853920Y-22573371D01*
X68853907Y-22573364D01*
X68671839Y-22497950D01*
X68671829Y-22497947D01*
X68478543Y-22459500D01*
X68478541Y-22459500D01*
X68281459Y-22459500D01*
X68281457Y-22459500D01*
X68088170Y-22497947D01*
X68088160Y-22497950D01*
X67906092Y-22573364D01*
X67906079Y-22573371D01*
X67742218Y-22682860D01*
X67742214Y-22682863D01*
X67602863Y-22822214D01*
X67602860Y-22822218D01*
X67493371Y-22986079D01*
X67493364Y-22986092D01*
X67417950Y-23168160D01*
X67417947Y-23168170D01*
X67379500Y-23361456D01*
X67379500Y-23361459D01*
X67379500Y-23558541D01*
X67379500Y-23558543D01*
X67379499Y-23558543D01*
X66840500Y-23558543D01*
X66840500Y-23558541D01*
X66840500Y-23361459D01*
X66840500Y-23361456D01*
X66802052Y-23168170D01*
X66802051Y-23168169D01*
X66802051Y-23168165D01*
X66732692Y-23000716D01*
X66726635Y-22986092D01*
X66726628Y-22986079D01*
X66617139Y-22822218D01*
X66617136Y-22822214D01*
X66477785Y-22682863D01*
X66477781Y-22682860D01*
X66313920Y-22573371D01*
X66313907Y-22573364D01*
X66131839Y-22497950D01*
X66131829Y-22497947D01*
X65938543Y-22459500D01*
X65938541Y-22459500D01*
X65741459Y-22459500D01*
X65741457Y-22459500D01*
X65548170Y-22497947D01*
X65548160Y-22497950D01*
X65366092Y-22573364D01*
X65366079Y-22573371D01*
X65202218Y-22682860D01*
X65202214Y-22682863D01*
X65062863Y-22822214D01*
X65062860Y-22822218D01*
X64953371Y-22986079D01*
X64953364Y-22986092D01*
X64877950Y-23168160D01*
X64877947Y-23168170D01*
X64839500Y-23361456D01*
X64839500Y-23361459D01*
X64839500Y-23558541D01*
X64839500Y-23558543D01*
X64839499Y-23558543D01*
X54852467Y-23558543D01*
X54824318Y-23530394D01*
X54824311Y-23530388D01*
X54724435Y-23453751D01*
X54621465Y-23374739D01*
X54621459Y-23374735D01*
X54621457Y-23374734D01*
X54400042Y-23246899D01*
X54400031Y-23246894D01*
X54163822Y-23149053D01*
X54163815Y-23149051D01*
X54163813Y-23149050D01*
X53916840Y-23082874D01*
X53860507Y-23075457D01*
X53663350Y-23049500D01*
X53663343Y-23049500D01*
X53407657Y-23049500D01*
X53407649Y-23049500D01*
X53186738Y-23078585D01*
X53154160Y-23082874D01*
X52907187Y-23149050D01*
X52907177Y-23149053D01*
X52670968Y-23246894D01*
X52670957Y-23246899D01*
X52449542Y-23374734D01*
X52449526Y-23374745D01*
X52246688Y-23530388D01*
X52246681Y-23530394D01*
X52065894Y-23711181D01*
X52065888Y-23711188D01*
X51910245Y-23914026D01*
X51910234Y-23914042D01*
X51782399Y-24135457D01*
X51782394Y-24135468D01*
X51684553Y-24371677D01*
X51684550Y-24371687D01*
X51663093Y-24451768D01*
X51618374Y-24618661D01*
X51585000Y-24872149D01*
X49041612Y-24872149D01*
X49042024Y-24862695D01*
X49045947Y-24772751D01*
X49052886Y-24613651D01*
X49053827Y-24602893D01*
X49103554Y-24224801D01*
X49105423Y-24214188D01*
X49187885Y-23841849D01*
X49190666Y-23831458D01*
X49305242Y-23467687D01*
X49308920Y-23457572D01*
X49454727Y-23105178D01*
X49459269Y-23095427D01*
X49635207Y-22757061D01*
X49640582Y-22747738D01*
X49845313Y-22425978D01*
X49851491Y-22417143D01*
X50083460Y-22114431D01*
X50090370Y-22106185D01*
X50196045Y-21990691D01*
X85099500Y-21990691D01*
X85099500Y-22109309D01*
X85130201Y-22223886D01*
X85189511Y-22326613D01*
X85273387Y-22410489D01*
X85376114Y-22469799D01*
X85490691Y-22500500D01*
X85490694Y-22500500D01*
X85609306Y-22500500D01*
X85609309Y-22500500D01*
X85723886Y-22469799D01*
X85826613Y-22410489D01*
X85910489Y-22326613D01*
X85969799Y-22223886D01*
X86000500Y-22109309D01*
X86000500Y-21990691D01*
X85969799Y-21876114D01*
X85910489Y-21773387D01*
X85826613Y-21689511D01*
X85723886Y-21630201D01*
X85609309Y-21599500D01*
X85490691Y-21599500D01*
X85376114Y-21630201D01*
X85376112Y-21630201D01*
X85376112Y-21630202D01*
X85273387Y-21689511D01*
X85273384Y-21689513D01*
X85189513Y-21773384D01*
X85189511Y-21773387D01*
X85168091Y-21810488D01*
X85130201Y-21876114D01*
X85099500Y-21990691D01*
X50196045Y-21990691D01*
X50347802Y-21824833D01*
X50355435Y-21817189D01*
X50636377Y-21559329D01*
X50644635Y-21552388D01*
X50946971Y-21319962D01*
X50955806Y-21313764D01*
X51226882Y-21140691D01*
X54999500Y-21140691D01*
X54999500Y-21259309D01*
X55030201Y-21373886D01*
X55089511Y-21476613D01*
X55173387Y-21560489D01*
X55276114Y-21619799D01*
X55390691Y-21650500D01*
X55390694Y-21650500D01*
X55509306Y-21650500D01*
X55509309Y-21650500D01*
X55623886Y-21619799D01*
X55726613Y-21560489D01*
X55810489Y-21476613D01*
X55869799Y-21373886D01*
X55900500Y-21259309D01*
X55900500Y-21140691D01*
X58649500Y-21140691D01*
X58649500Y-21259309D01*
X58680201Y-21373886D01*
X58739511Y-21476613D01*
X58823387Y-21560489D01*
X58926114Y-21619799D01*
X59040691Y-21650500D01*
X59040694Y-21650500D01*
X59159306Y-21650500D01*
X59159309Y-21650500D01*
X59273886Y-21619799D01*
X59376613Y-21560489D01*
X59460489Y-21476613D01*
X59519799Y-21373886D01*
X59550500Y-21259309D01*
X59550500Y-21240691D01*
X66499500Y-21240691D01*
X66499500Y-21359309D01*
X66530201Y-21473886D01*
X66589511Y-21576613D01*
X66673387Y-21660489D01*
X66776114Y-21719799D01*
X66890691Y-21750500D01*
X66890694Y-21750500D01*
X67009306Y-21750500D01*
X67009309Y-21750500D01*
X67123886Y-21719799D01*
X67226613Y-21660489D01*
X67310489Y-21576613D01*
X67369799Y-21473886D01*
X67400500Y-21359309D01*
X67400500Y-21240691D01*
X73399500Y-21240691D01*
X73399500Y-21359309D01*
X73430201Y-21473886D01*
X73489511Y-21576613D01*
X73573387Y-21660489D01*
X73676114Y-21719799D01*
X73790691Y-21750500D01*
X73790694Y-21750500D01*
X73909306Y-21750500D01*
X73909309Y-21750500D01*
X74023886Y-21719799D01*
X74126613Y-21660489D01*
X74210489Y-21576613D01*
X74269799Y-21473886D01*
X74292091Y-21390691D01*
X81699500Y-21390691D01*
X81699500Y-21509309D01*
X81730201Y-21623886D01*
X81789511Y-21726613D01*
X81873387Y-21810489D01*
X81976114Y-21869799D01*
X82090691Y-21900500D01*
X82090694Y-21900500D01*
X82209306Y-21900500D01*
X82209309Y-21900500D01*
X82323886Y-21869799D01*
X82426613Y-21810489D01*
X82510489Y-21726613D01*
X82569799Y-21623886D01*
X82600500Y-21509309D01*
X82600500Y-21390691D01*
X82569799Y-21276114D01*
X82510489Y-21173387D01*
X82426613Y-21089511D01*
X82323886Y-21030201D01*
X82209309Y-20999500D01*
X82090691Y-20999500D01*
X81976114Y-21030201D01*
X81976112Y-21030201D01*
X81976112Y-21030202D01*
X81873387Y-21089511D01*
X81873384Y-21089513D01*
X81789513Y-21173384D01*
X81789511Y-21173387D01*
X81750652Y-21240693D01*
X81730201Y-21276114D01*
X81699500Y-21390691D01*
X74292091Y-21390691D01*
X74300500Y-21359309D01*
X74300500Y-21240691D01*
X74269799Y-21126114D01*
X74210489Y-21023387D01*
X74126613Y-20939511D01*
X74023886Y-20880201D01*
X73909309Y-20849500D01*
X73790691Y-20849500D01*
X73676114Y-20880201D01*
X73676112Y-20880201D01*
X73676112Y-20880202D01*
X73573387Y-20939511D01*
X73573384Y-20939513D01*
X73489513Y-21023384D01*
X73489511Y-21023387D01*
X73439356Y-21110258D01*
X73430201Y-21126114D01*
X73399500Y-21240691D01*
X67400500Y-21240691D01*
X67369799Y-21126114D01*
X67310489Y-21023387D01*
X67226613Y-20939511D01*
X67123886Y-20880201D01*
X67009309Y-20849500D01*
X66890691Y-20849500D01*
X66776114Y-20880201D01*
X66776112Y-20880201D01*
X66776112Y-20880202D01*
X66673387Y-20939511D01*
X66673384Y-20939513D01*
X66589513Y-21023384D01*
X66589511Y-21023387D01*
X66539356Y-21110258D01*
X66530201Y-21126114D01*
X66499500Y-21240691D01*
X59550500Y-21240691D01*
X59550500Y-21140691D01*
X59519799Y-21026114D01*
X59460489Y-20923387D01*
X59376613Y-20839511D01*
X59273886Y-20780201D01*
X59159309Y-20749500D01*
X59040691Y-20749500D01*
X58926114Y-20780201D01*
X58926112Y-20780201D01*
X58926112Y-20780202D01*
X58823387Y-20839511D01*
X58823384Y-20839513D01*
X58739513Y-20923384D01*
X58739511Y-20923387D01*
X58680201Y-21026114D01*
X58649500Y-21140691D01*
X55900500Y-21140691D01*
X55869799Y-21026114D01*
X55810489Y-20923387D01*
X55726613Y-20839511D01*
X55623886Y-20780201D01*
X55509309Y-20749500D01*
X55390691Y-20749500D01*
X55276114Y-20780201D01*
X55276112Y-20780201D01*
X55276112Y-20780202D01*
X55173387Y-20839511D01*
X55173384Y-20839513D01*
X55089513Y-20923384D01*
X55089511Y-20923387D01*
X55030201Y-21026114D01*
X54999500Y-21140691D01*
X51226882Y-21140691D01*
X51277225Y-21108549D01*
X51286547Y-21103154D01*
X51624634Y-20926694D01*
X51634399Y-20922127D01*
X51986563Y-20775776D01*
X51996686Y-20772078D01*
X52360240Y-20656951D01*
X52370647Y-20654147D01*
X52742850Y-20571109D01*
X52753489Y-20569219D01*
X52759545Y-20568413D01*
X53131482Y-20518908D01*
X53142238Y-20517951D01*
X53525780Y-20500626D01*
X53531376Y-20500500D01*
X83469508Y-20500500D01*
X83532698Y-20500500D01*
X83538088Y-20500616D01*
G37*
%TD.AperFunction*%
%TD*%
M02*
