%TF.GenerationSoftware,KiCad,Pcbnew,9.0.1*%
%TF.CreationDate,2025-04-26T03:22:33-04:00*%
%TF.ProjectId,MainBoardPCB,4d61696e-426f-4617-9264-5043422e6b69,rev?*%
%TF.SameCoordinates,Original*%
%TF.FileFunction,Legend,Top*%
%TF.FilePolarity,Positive*%
%FSLAX46Y46*%
G04 Gerber Fmt 4.6, Leading zero omitted, Abs format (unit mm)*
G04 Created by KiCad (PCBNEW 9.0.1) date 2025-04-26 03:22:33*
%MOMM*%
%LPD*%
G01*
G04 APERTURE LIST*
%ADD10C,0.000000*%
%ADD11C,0.150000*%
%ADD12C,0.120000*%
%ADD13C,0.152400*%
%ADD14C,0.200000*%
G04 APERTURE END LIST*
D10*
G36*
X68467783Y-47098736D02*
G01*
X68471040Y-47098978D01*
X68474270Y-47099378D01*
X68477468Y-47099937D01*
X68480625Y-47100649D01*
X68483741Y-47101513D01*
X68486805Y-47102527D01*
X68489815Y-47103689D01*
X68492766Y-47104996D01*
X68495650Y-47106447D01*
X68498463Y-47108038D01*
X68501200Y-47109768D01*
X68503856Y-47111634D01*
X68506423Y-47113634D01*
X68508898Y-47115766D01*
X68511275Y-47118028D01*
X68885452Y-47492205D01*
X68886989Y-47493794D01*
X68888465Y-47495426D01*
X68889881Y-47497099D01*
X68891236Y-47498812D01*
X68892530Y-47500563D01*
X68893761Y-47502350D01*
X68894930Y-47504172D01*
X68896037Y-47506029D01*
X68897080Y-47507914D01*
X68898059Y-47509831D01*
X68898975Y-47511775D01*
X68899825Y-47513745D01*
X68900610Y-47515741D01*
X68901330Y-47517759D01*
X68901984Y-47519798D01*
X68902572Y-47521858D01*
X68903093Y-47523935D01*
X68903546Y-47526028D01*
X68903931Y-47528135D01*
X68904248Y-47530256D01*
X68904498Y-47532388D01*
X68904677Y-47534530D01*
X68904787Y-47536679D01*
X68904828Y-47538834D01*
X68904796Y-47540994D01*
X68904695Y-47543157D01*
X68904523Y-47545320D01*
X68904277Y-47547483D01*
X68903961Y-47549644D01*
X68903571Y-47551802D01*
X68903109Y-47553953D01*
X68902572Y-47556097D01*
X68901289Y-47560317D01*
X68899742Y-47564410D01*
X68897940Y-47568366D01*
X68895893Y-47572175D01*
X68893611Y-47575828D01*
X68891104Y-47579314D01*
X68888380Y-47582625D01*
X68885452Y-47585750D01*
X68882327Y-47588678D01*
X68879017Y-47591401D01*
X68875531Y-47593909D01*
X68871877Y-47596191D01*
X68868068Y-47598238D01*
X68864112Y-47600040D01*
X68860020Y-47601587D01*
X68855800Y-47602870D01*
X68851504Y-47603869D01*
X68847186Y-47604575D01*
X68842859Y-47604993D01*
X68838537Y-47605125D01*
X68834232Y-47604975D01*
X68829958Y-47604546D01*
X68825730Y-47603843D01*
X68821560Y-47602870D01*
X68817462Y-47601628D01*
X68813448Y-47600122D01*
X68809534Y-47598357D01*
X68805731Y-47596335D01*
X68802053Y-47594058D01*
X68798515Y-47591534D01*
X68795128Y-47588763D01*
X68791908Y-47585750D01*
X68530638Y-47324480D01*
X68530638Y-47945989D01*
X68557738Y-47945275D01*
X68584835Y-47945941D01*
X68611873Y-47947986D01*
X68638796Y-47951412D01*
X68665547Y-47956217D01*
X68692069Y-47962402D01*
X68718306Y-47969969D01*
X68744200Y-47978916D01*
X68769695Y-47989245D01*
X68794735Y-48000955D01*
X68819262Y-48014047D01*
X68843220Y-48028521D01*
X68866552Y-48044377D01*
X68889201Y-48061616D01*
X68911110Y-48080238D01*
X68932224Y-48100244D01*
X68951531Y-48120558D01*
X68969642Y-48141760D01*
X68986542Y-48163795D01*
X69002208Y-48186612D01*
X69016618Y-48210154D01*
X69029754Y-48234369D01*
X69041595Y-48259206D01*
X69052119Y-48284608D01*
X69061307Y-48310525D01*
X69069138Y-48336902D01*
X69075591Y-48363684D01*
X69080647Y-48390820D01*
X69084284Y-48418256D01*
X69086482Y-48445939D01*
X69087221Y-48473814D01*
X69086478Y-48501829D01*
X69240266Y-48501829D01*
X69240172Y-48380876D01*
X69240319Y-48376463D01*
X69240755Y-48372103D01*
X69241473Y-48367811D01*
X69242465Y-48363596D01*
X69243725Y-48359472D01*
X69245246Y-48355450D01*
X69247023Y-48351542D01*
X69249045Y-48347762D01*
X69251308Y-48344120D01*
X69253805Y-48340628D01*
X69256526Y-48337300D01*
X69259468Y-48334146D01*
X69262621Y-48331179D01*
X69265981Y-48328411D01*
X69269538Y-48325854D01*
X69273287Y-48323520D01*
X69277182Y-48321441D01*
X69281175Y-48319638D01*
X69285252Y-48318113D01*
X69289399Y-48316865D01*
X69293601Y-48315895D01*
X69297845Y-48315202D01*
X69302116Y-48314785D01*
X69306401Y-48314647D01*
X69310687Y-48314786D01*
X69314959Y-48315201D01*
X69319203Y-48315894D01*
X69323405Y-48316865D01*
X69327551Y-48318113D01*
X69331627Y-48319638D01*
X69335620Y-48321441D01*
X69339517Y-48323520D01*
X69343265Y-48325854D01*
X69346822Y-48328411D01*
X69350181Y-48331179D01*
X69353336Y-48334145D01*
X69356276Y-48337300D01*
X69358999Y-48340628D01*
X69361496Y-48344120D01*
X69363758Y-48347761D01*
X69365781Y-48351543D01*
X69367556Y-48355450D01*
X69369078Y-48359472D01*
X69370339Y-48363596D01*
X69371331Y-48367811D01*
X69372049Y-48372103D01*
X69372484Y-48376463D01*
X69372631Y-48380877D01*
X69372537Y-48501829D01*
X69707987Y-48501829D01*
X69540262Y-48334104D01*
X69538725Y-48332515D01*
X69537249Y-48330883D01*
X69535833Y-48329210D01*
X69534479Y-48327498D01*
X69533185Y-48325746D01*
X69531954Y-48323959D01*
X69530784Y-48322137D01*
X69529678Y-48320282D01*
X69528634Y-48318395D01*
X69527655Y-48316478D01*
X69526741Y-48314534D01*
X69525890Y-48312564D01*
X69525104Y-48310568D01*
X69524384Y-48308550D01*
X69523731Y-48306511D01*
X69523142Y-48304452D01*
X69522622Y-48302374D01*
X69522169Y-48300282D01*
X69521783Y-48298174D01*
X69521466Y-48296053D01*
X69521217Y-48293921D01*
X69521037Y-48291780D01*
X69520928Y-48289631D01*
X69520887Y-48287475D01*
X69520918Y-48285315D01*
X69521019Y-48283153D01*
X69521192Y-48280989D01*
X69521437Y-48278826D01*
X69521754Y-48276665D01*
X69522143Y-48274508D01*
X69522606Y-48272356D01*
X69523142Y-48270212D01*
X69524425Y-48265992D01*
X69525972Y-48261899D01*
X69527774Y-48257944D01*
X69529821Y-48254135D01*
X69532103Y-48250482D01*
X69534611Y-48246994D01*
X69537334Y-48243684D01*
X69540262Y-48240560D01*
X69543387Y-48237632D01*
X69546697Y-48234908D01*
X69550184Y-48232401D01*
X69553837Y-48230119D01*
X69557646Y-48228071D01*
X69561602Y-48226270D01*
X69565695Y-48224723D01*
X69569915Y-48223440D01*
X69574210Y-48222441D01*
X69578529Y-48221734D01*
X69582855Y-48221317D01*
X69587178Y-48221184D01*
X69591482Y-48221335D01*
X69595756Y-48221763D01*
X69599984Y-48222466D01*
X69604154Y-48223440D01*
X69608252Y-48224682D01*
X69612267Y-48226187D01*
X69616181Y-48227953D01*
X69619984Y-48229976D01*
X69623662Y-48232250D01*
X69627200Y-48234776D01*
X69630586Y-48237547D01*
X69633807Y-48240560D01*
X69914440Y-48521193D01*
X69916702Y-48523569D01*
X69918834Y-48526045D01*
X69920834Y-48528612D01*
X69922700Y-48531268D01*
X69924430Y-48534004D01*
X69926021Y-48536818D01*
X69927472Y-48539702D01*
X69928778Y-48542652D01*
X69929940Y-48545662D01*
X69930955Y-48548727D01*
X69931818Y-48551842D01*
X69932531Y-48555000D01*
X69933089Y-48558197D01*
X69933490Y-48561428D01*
X69933732Y-48564685D01*
X69933813Y-48567965D01*
X69933732Y-48571245D01*
X69933490Y-48574502D01*
X69933089Y-48577733D01*
X69932531Y-48580930D01*
X69931818Y-48584088D01*
X69930955Y-48587203D01*
X69929940Y-48590268D01*
X69928778Y-48593278D01*
X69927472Y-48596228D01*
X69926021Y-48599112D01*
X69924430Y-48601926D01*
X69922700Y-48604662D01*
X69920834Y-48607318D01*
X69918834Y-48609885D01*
X69916702Y-48612361D01*
X69914440Y-48614737D01*
X69633807Y-48895370D01*
X69632218Y-48896907D01*
X69630586Y-48898383D01*
X69628913Y-48899799D01*
X69627200Y-48901154D01*
X69625449Y-48902448D01*
X69623662Y-48903680D01*
X69621840Y-48904848D01*
X69619984Y-48905954D01*
X69618098Y-48906998D01*
X69616181Y-48907977D01*
X69614237Y-48908892D01*
X69612267Y-48909743D01*
X69610271Y-48910529D01*
X69608252Y-48911248D01*
X69606214Y-48911902D01*
X69604154Y-48912490D01*
X69602077Y-48913011D01*
X69599984Y-48913464D01*
X69597876Y-48913849D01*
X69595756Y-48914167D01*
X69593624Y-48914416D01*
X69591482Y-48914595D01*
X69589333Y-48914705D01*
X69587178Y-48914746D01*
X69585018Y-48914715D01*
X69582855Y-48914613D01*
X69580692Y-48914441D01*
X69578529Y-48914196D01*
X69576368Y-48913879D01*
X69574210Y-48913489D01*
X69572059Y-48913027D01*
X69569915Y-48912490D01*
X69565695Y-48911207D01*
X69561602Y-48909660D01*
X69557646Y-48907859D01*
X69553837Y-48905811D01*
X69550184Y-48903529D01*
X69546697Y-48901022D01*
X69543387Y-48898298D01*
X69540262Y-48895370D01*
X69537334Y-48892246D01*
X69534611Y-48888936D01*
X69532103Y-48885448D01*
X69529821Y-48881795D01*
X69527774Y-48877986D01*
X69525972Y-48874031D01*
X69524425Y-48869938D01*
X69523142Y-48865718D01*
X69522143Y-48861422D01*
X69521437Y-48857104D01*
X69521019Y-48852777D01*
X69520887Y-48848455D01*
X69521037Y-48844150D01*
X69521466Y-48839877D01*
X69522169Y-48835648D01*
X69523142Y-48831478D01*
X69524384Y-48827380D01*
X69525890Y-48823366D01*
X69527655Y-48819452D01*
X69529678Y-48815648D01*
X69531954Y-48811971D01*
X69534479Y-48808432D01*
X69537249Y-48805047D01*
X69540262Y-48801826D01*
X69707987Y-48634101D01*
X69372537Y-48634101D01*
X69372631Y-48755053D01*
X69372484Y-48759467D01*
X69372049Y-48763827D01*
X69371331Y-48768119D01*
X69370339Y-48772334D01*
X69369078Y-48776458D01*
X69367556Y-48780480D01*
X69365781Y-48784387D01*
X69363758Y-48788169D01*
X69361496Y-48791810D01*
X69358999Y-48795302D01*
X69356276Y-48798630D01*
X69353336Y-48801785D01*
X69350182Y-48804752D01*
X69346823Y-48807519D01*
X69343265Y-48810076D01*
X69339517Y-48812410D01*
X69335621Y-48814490D01*
X69331627Y-48816292D01*
X69327551Y-48817817D01*
X69323405Y-48819065D01*
X69319203Y-48820036D01*
X69314959Y-48820729D01*
X69310688Y-48821145D01*
X69306401Y-48821283D01*
X69302116Y-48821145D01*
X69297845Y-48820728D01*
X69293601Y-48820035D01*
X69289399Y-48819065D01*
X69285252Y-48817817D01*
X69281175Y-48816292D01*
X69277182Y-48814489D01*
X69273287Y-48812410D01*
X69269538Y-48810076D01*
X69265981Y-48807519D01*
X69262621Y-48804751D01*
X69259468Y-48801784D01*
X69256526Y-48798630D01*
X69253805Y-48795302D01*
X69251308Y-48791810D01*
X69249045Y-48788168D01*
X69247023Y-48784388D01*
X69245246Y-48780480D01*
X69243725Y-48776458D01*
X69242465Y-48772334D01*
X69241473Y-48768119D01*
X69240755Y-48763827D01*
X69240319Y-48759467D01*
X69240172Y-48755054D01*
X69240266Y-48634101D01*
X69062625Y-48634007D01*
X69051950Y-48664534D01*
X69039520Y-48694156D01*
X69025396Y-48722814D01*
X69009641Y-48750446D01*
X68992314Y-48776991D01*
X68973478Y-48802389D01*
X68953193Y-48826577D01*
X68931521Y-48849496D01*
X68929901Y-48851017D01*
X68908523Y-48871084D01*
X68884260Y-48891280D01*
X68858794Y-48910023D01*
X68832185Y-48927252D01*
X68804496Y-48942906D01*
X68775788Y-48956925D01*
X68746120Y-48969247D01*
X68715554Y-48979811D01*
X68684403Y-48988492D01*
X68652989Y-48995217D01*
X68621400Y-49000000D01*
X68589720Y-49002858D01*
X68558036Y-49003807D01*
X68526429Y-49002859D01*
X68494988Y-49000033D01*
X68463796Y-48995343D01*
X68432938Y-48988805D01*
X68402500Y-48980432D01*
X68372567Y-48970242D01*
X68343224Y-48958250D01*
X68314555Y-48944470D01*
X68286646Y-48928919D01*
X68259582Y-48911612D01*
X68233448Y-48892564D01*
X68043553Y-49082459D01*
X68183869Y-49222776D01*
X68185407Y-49224364D01*
X68186883Y-49225996D01*
X68188299Y-49227669D01*
X68189654Y-49229382D01*
X68190947Y-49231133D01*
X68192179Y-49232920D01*
X68193347Y-49234743D01*
X68194455Y-49236598D01*
X68195497Y-49238485D01*
X68196477Y-49240401D01*
X68197392Y-49242345D01*
X68198243Y-49244316D01*
X68199028Y-49246311D01*
X68199748Y-49248329D01*
X68200401Y-49250368D01*
X68200990Y-49252427D01*
X68201510Y-49254505D01*
X68201963Y-49256597D01*
X68202350Y-49258706D01*
X68202666Y-49260826D01*
X68202915Y-49262958D01*
X68203095Y-49265099D01*
X68203204Y-49267248D01*
X68203245Y-49269404D01*
X68203214Y-49271564D01*
X68203112Y-49273727D01*
X68202940Y-49275891D01*
X68202695Y-49278054D01*
X68202378Y-49280215D01*
X68201989Y-49282371D01*
X68201526Y-49284523D01*
X68200989Y-49286668D01*
X68199707Y-49290887D01*
X68198160Y-49294980D01*
X68196358Y-49298936D01*
X68194310Y-49302745D01*
X68192029Y-49306398D01*
X68189521Y-49309885D01*
X68186798Y-49313195D01*
X68183870Y-49316319D01*
X68180745Y-49319248D01*
X68177435Y-49321971D01*
X68173949Y-49324479D01*
X68170295Y-49326761D01*
X68166486Y-49328808D01*
X68162530Y-49330610D01*
X68158437Y-49332157D01*
X68154217Y-49333439D01*
X68149922Y-49334438D01*
X68145603Y-49335145D01*
X68141277Y-49335563D01*
X68136954Y-49335695D01*
X68132649Y-49335545D01*
X68128376Y-49335116D01*
X68124148Y-49334413D01*
X68119978Y-49333439D01*
X68115879Y-49332198D01*
X68111866Y-49330693D01*
X68107951Y-49328927D01*
X68104148Y-49326905D01*
X68100470Y-49324629D01*
X68096932Y-49322104D01*
X68093546Y-49319333D01*
X68090325Y-49316319D01*
X67950009Y-49176003D01*
X67809692Y-49316320D01*
X67808104Y-49317857D01*
X67806472Y-49319333D01*
X67804799Y-49320749D01*
X67803086Y-49322104D01*
X67801334Y-49323397D01*
X67799547Y-49324629D01*
X67797725Y-49325798D01*
X67795870Y-49326904D01*
X67793983Y-49327947D01*
X67792067Y-49328926D01*
X67790123Y-49329841D01*
X67788152Y-49330692D01*
X67786156Y-49331478D01*
X67784138Y-49332198D01*
X67782099Y-49332852D01*
X67780040Y-49333440D01*
X67777962Y-49333960D01*
X67775870Y-49334414D01*
X67773762Y-49334799D01*
X67771642Y-49335116D01*
X67769509Y-49335365D01*
X67767368Y-49335545D01*
X67765219Y-49335655D01*
X67763063Y-49335695D01*
X67760903Y-49335664D01*
X67758740Y-49335563D01*
X67756577Y-49335390D01*
X67754414Y-49335145D01*
X67752253Y-49334828D01*
X67750096Y-49334439D01*
X67747944Y-49333976D01*
X67745800Y-49333440D01*
X67741580Y-49332157D01*
X67737488Y-49330610D01*
X67733531Y-49328808D01*
X67729722Y-49326761D01*
X67726070Y-49324479D01*
X67722583Y-49321971D01*
X67719273Y-49319248D01*
X67716148Y-49316320D01*
X67713219Y-49313195D01*
X67710496Y-49309885D01*
X67707989Y-49306398D01*
X67705707Y-49302745D01*
X67703660Y-49298936D01*
X67701857Y-49294980D01*
X67700310Y-49290887D01*
X67699028Y-49286668D01*
X67698029Y-49282372D01*
X67697323Y-49278054D01*
X67696905Y-49273727D01*
X67696772Y-49269404D01*
X67696922Y-49265099D01*
X67697352Y-49260826D01*
X67698054Y-49256598D01*
X67699028Y-49252428D01*
X67700270Y-49248330D01*
X67701775Y-49244315D01*
X67703542Y-49240401D01*
X67705564Y-49236598D01*
X67707839Y-49232920D01*
X67710364Y-49229382D01*
X67713134Y-49225996D01*
X67716148Y-49222776D01*
X67856465Y-49082459D01*
X67716148Y-48942142D01*
X67714611Y-48940553D01*
X67713135Y-48938922D01*
X67711719Y-48937249D01*
X67710364Y-48935536D01*
X67709070Y-48933785D01*
X67707839Y-48931997D01*
X67706670Y-48930175D01*
X67705563Y-48928320D01*
X67704520Y-48926433D01*
X67703541Y-48924517D01*
X67702626Y-48922573D01*
X67701775Y-48920602D01*
X67700990Y-48918607D01*
X67700269Y-48916588D01*
X67699616Y-48914549D01*
X67699028Y-48912489D01*
X67698508Y-48910413D01*
X67698054Y-48908320D01*
X67697668Y-48906212D01*
X67697352Y-48904091D01*
X67697103Y-48901960D01*
X67696922Y-48899818D01*
X67696813Y-48897669D01*
X67696773Y-48895514D01*
X67696804Y-48893354D01*
X67696905Y-48891191D01*
X67697078Y-48889028D01*
X67697323Y-48886864D01*
X67697639Y-48884703D01*
X67698029Y-48882545D01*
X67698491Y-48880394D01*
X67699028Y-48878250D01*
X67700310Y-48874031D01*
X67701857Y-48869938D01*
X67703660Y-48865982D01*
X67705707Y-48862172D01*
X67707989Y-48858519D01*
X67710496Y-48855033D01*
X67713219Y-48851723D01*
X67716148Y-48848597D01*
X67719273Y-48845669D01*
X67722583Y-48842946D01*
X67726070Y-48840439D01*
X67729722Y-48838157D01*
X67733531Y-48836110D01*
X67737488Y-48834307D01*
X67741580Y-48832760D01*
X67745800Y-48831478D01*
X67750096Y-48830478D01*
X67754414Y-48829773D01*
X67758740Y-48829355D01*
X67763064Y-48829223D01*
X67767368Y-48829372D01*
X67771642Y-48829801D01*
X67775870Y-48830504D01*
X67780040Y-48831478D01*
X67784138Y-48832719D01*
X67788152Y-48834225D01*
X67792067Y-48835991D01*
X67795870Y-48838013D01*
X67799547Y-48840289D01*
X67803086Y-48842814D01*
X67806472Y-48845585D01*
X67809692Y-48848598D01*
X67950009Y-48988915D01*
X68139904Y-48799020D01*
X68120863Y-48772889D01*
X68103562Y-48745829D01*
X68088016Y-48717925D01*
X68074242Y-48689260D01*
X68062254Y-48659921D01*
X68052067Y-48629994D01*
X68043698Y-48599561D01*
X68037162Y-48568710D01*
X68032473Y-48537524D01*
X68029648Y-48506089D01*
X68028701Y-48474489D01*
X68028780Y-48471832D01*
X68161091Y-48471832D01*
X68161766Y-48497774D01*
X68164123Y-48523513D01*
X68168136Y-48548971D01*
X68173780Y-48574067D01*
X68181029Y-48598722D01*
X68189856Y-48622858D01*
X68200235Y-48646393D01*
X68212140Y-48669250D01*
X68225546Y-48691349D01*
X68240426Y-48712611D01*
X68256753Y-48732956D01*
X68274502Y-48752306D01*
X68293645Y-48770580D01*
X68303685Y-48779249D01*
X68313962Y-48787542D01*
X68324467Y-48795459D01*
X68335189Y-48802997D01*
X68346118Y-48810153D01*
X68357245Y-48816926D01*
X68368559Y-48823314D01*
X68380049Y-48829314D01*
X68391706Y-48834924D01*
X68403519Y-48840142D01*
X68427572Y-48849396D01*
X68452127Y-48857056D01*
X68477104Y-48863106D01*
X68502419Y-48867529D01*
X68527992Y-48870308D01*
X68553739Y-48871426D01*
X68566654Y-48871357D01*
X68579580Y-48870866D01*
X68592511Y-48869952D01*
X68605434Y-48868611D01*
X68618339Y-48866843D01*
X68631217Y-48864644D01*
X68644057Y-48862013D01*
X68656849Y-48858948D01*
X68669582Y-48855446D01*
X68682246Y-48851506D01*
X68707094Y-48842392D01*
X68731091Y-48831736D01*
X68754183Y-48819600D01*
X68776313Y-48806045D01*
X68797425Y-48791134D01*
X68817465Y-48774929D01*
X68836378Y-48757494D01*
X68854105Y-48738888D01*
X68870593Y-48719177D01*
X68885786Y-48698419D01*
X68899628Y-48676681D01*
X68912063Y-48654021D01*
X68923037Y-48630505D01*
X68932493Y-48606193D01*
X68940376Y-48581147D01*
X68946630Y-48555430D01*
X68951167Y-48529356D01*
X68953943Y-48503246D01*
X68954984Y-48477180D01*
X68954316Y-48451237D01*
X68951965Y-48425498D01*
X68947957Y-48400039D01*
X68942318Y-48374942D01*
X68935075Y-48350286D01*
X68926253Y-48326148D01*
X68915878Y-48302610D01*
X68903978Y-48279750D01*
X68890577Y-48257648D01*
X68875703Y-48236383D01*
X68859379Y-48216034D01*
X68841635Y-48196681D01*
X68822495Y-48178402D01*
X68812458Y-48169732D01*
X68802183Y-48161436D01*
X68791680Y-48153517D01*
X68780959Y-48145978D01*
X68770030Y-48138818D01*
X68758905Y-48132043D01*
X68747593Y-48125653D01*
X68736105Y-48119650D01*
X68724449Y-48114037D01*
X68712637Y-48108817D01*
X68688586Y-48099558D01*
X68664032Y-48091893D01*
X68639056Y-48085838D01*
X68613742Y-48081409D01*
X68588170Y-48078624D01*
X68562423Y-48077500D01*
X68549509Y-48077567D01*
X68536582Y-48078055D01*
X68523651Y-48078967D01*
X68510728Y-48080305D01*
X68497823Y-48082070D01*
X68484944Y-48084266D01*
X68472104Y-48086894D01*
X68459311Y-48089957D01*
X68446578Y-48093455D01*
X68433911Y-48097393D01*
X68409062Y-48106501D01*
X68385062Y-48117152D01*
X68361968Y-48129284D01*
X68339835Y-48142836D01*
X68318718Y-48157745D01*
X68298674Y-48173949D01*
X68279757Y-48191385D01*
X68262024Y-48209994D01*
X68245530Y-48229711D01*
X68230330Y-48250475D01*
X68216480Y-48272225D01*
X68204037Y-48294898D01*
X68193054Y-48318432D01*
X68183588Y-48342766D01*
X68175694Y-48367835D01*
X68169429Y-48393580D01*
X68164898Y-48419655D01*
X68162127Y-48445766D01*
X68161091Y-48471832D01*
X68028780Y-48471832D01*
X68029648Y-48442810D01*
X68032505Y-48411136D01*
X68037286Y-48379554D01*
X68044008Y-48348147D01*
X68052685Y-48317000D01*
X68063245Y-48286441D01*
X68075561Y-48256778D01*
X68089574Y-48228074D01*
X68105222Y-48200388D01*
X68122444Y-48173783D01*
X68141181Y-48148319D01*
X68161369Y-48124058D01*
X68182949Y-48101061D01*
X68205860Y-48079389D01*
X68230040Y-48059105D01*
X68255428Y-48040267D01*
X68281965Y-48022938D01*
X68309587Y-48007180D01*
X68338236Y-47993052D01*
X68367849Y-47980617D01*
X68398367Y-47969936D01*
X68398367Y-47324480D01*
X68137098Y-47585749D01*
X68135509Y-47587286D01*
X68133878Y-47588763D01*
X68132204Y-47590179D01*
X68130491Y-47591533D01*
X68128740Y-47592827D01*
X68126952Y-47594059D01*
X68125130Y-47595228D01*
X68123274Y-47596334D01*
X68121388Y-47597378D01*
X68119472Y-47598357D01*
X68117528Y-47599272D01*
X68115557Y-47600122D01*
X68113562Y-47600907D01*
X68111544Y-47601627D01*
X68109504Y-47602282D01*
X68107445Y-47602869D01*
X68105368Y-47603390D01*
X68103275Y-47603843D01*
X68101167Y-47604229D01*
X68099046Y-47604546D01*
X68096915Y-47604795D01*
X68094774Y-47604975D01*
X68092624Y-47605085D01*
X68090469Y-47605125D01*
X68088309Y-47605094D01*
X68086146Y-47604992D01*
X68083983Y-47604820D01*
X68081819Y-47604575D01*
X68079658Y-47604258D01*
X68077501Y-47603869D01*
X68075350Y-47603406D01*
X68073206Y-47602869D01*
X68068986Y-47601587D01*
X68064894Y-47600040D01*
X68060937Y-47598238D01*
X68057127Y-47596191D01*
X68053475Y-47593908D01*
X68049989Y-47591401D01*
X68046677Y-47588678D01*
X68043553Y-47585749D01*
X68040624Y-47582625D01*
X68037902Y-47579314D01*
X68035394Y-47575828D01*
X68033112Y-47572176D01*
X68031065Y-47568366D01*
X68029263Y-47564410D01*
X68027715Y-47560317D01*
X68026433Y-47556097D01*
X68025434Y-47551802D01*
X68024727Y-47547483D01*
X68024311Y-47543157D01*
X68024178Y-47538834D01*
X68024328Y-47534529D01*
X68024756Y-47530256D01*
X68025459Y-47526028D01*
X68026433Y-47521857D01*
X68027675Y-47517759D01*
X68029180Y-47513746D01*
X68030946Y-47509831D01*
X68032968Y-47506028D01*
X68035244Y-47502351D01*
X68037769Y-47498812D01*
X68040540Y-47495425D01*
X68043553Y-47492205D01*
X68417730Y-47118028D01*
X68420107Y-47115766D01*
X68422582Y-47113634D01*
X68425150Y-47111633D01*
X68427805Y-47109767D01*
X68430541Y-47108038D01*
X68433356Y-47106447D01*
X68436240Y-47104996D01*
X68439189Y-47103689D01*
X68442200Y-47102528D01*
X68445265Y-47101513D01*
X68448380Y-47100649D01*
X68451538Y-47099937D01*
X68454735Y-47099379D01*
X68457965Y-47098978D01*
X68461223Y-47098735D01*
X68464502Y-47098654D01*
X68467783Y-47098736D01*
G37*
D11*
X66654819Y-69592857D02*
X66178628Y-69926190D01*
X66654819Y-70164285D02*
X65654819Y-70164285D01*
X65654819Y-70164285D02*
X65654819Y-69783333D01*
X65654819Y-69783333D02*
X65702438Y-69688095D01*
X65702438Y-69688095D02*
X65750057Y-69640476D01*
X65750057Y-69640476D02*
X65845295Y-69592857D01*
X65845295Y-69592857D02*
X65988152Y-69592857D01*
X65988152Y-69592857D02*
X66083390Y-69640476D01*
X66083390Y-69640476D02*
X66131009Y-69688095D01*
X66131009Y-69688095D02*
X66178628Y-69783333D01*
X66178628Y-69783333D02*
X66178628Y-70164285D01*
X66654819Y-68640476D02*
X66654819Y-69211904D01*
X66654819Y-68926190D02*
X65654819Y-68926190D01*
X65654819Y-68926190D02*
X65797676Y-69021428D01*
X65797676Y-69021428D02*
X65892914Y-69116666D01*
X65892914Y-69116666D02*
X65940533Y-69211904D01*
X65750057Y-68259523D02*
X65702438Y-68211904D01*
X65702438Y-68211904D02*
X65654819Y-68116666D01*
X65654819Y-68116666D02*
X65654819Y-67878571D01*
X65654819Y-67878571D02*
X65702438Y-67783333D01*
X65702438Y-67783333D02*
X65750057Y-67735714D01*
X65750057Y-67735714D02*
X65845295Y-67688095D01*
X65845295Y-67688095D02*
X65940533Y-67688095D01*
X65940533Y-67688095D02*
X66083390Y-67735714D01*
X66083390Y-67735714D02*
X66654819Y-68307142D01*
X66654819Y-68307142D02*
X66654819Y-67688095D01*
X67954819Y-52761904D02*
X68764342Y-52761904D01*
X68764342Y-52761904D02*
X68859580Y-52714285D01*
X68859580Y-52714285D02*
X68907200Y-52666666D01*
X68907200Y-52666666D02*
X68954819Y-52571428D01*
X68954819Y-52571428D02*
X68954819Y-52380952D01*
X68954819Y-52380952D02*
X68907200Y-52285714D01*
X68907200Y-52285714D02*
X68859580Y-52238095D01*
X68859580Y-52238095D02*
X68764342Y-52190476D01*
X68764342Y-52190476D02*
X67954819Y-52190476D01*
X67954819Y-51809523D02*
X67954819Y-51142857D01*
X67954819Y-51142857D02*
X68954819Y-51571428D01*
X66954819Y-54082799D02*
X67192914Y-54082799D01*
X67097676Y-54320894D02*
X67192914Y-54082799D01*
X67192914Y-54082799D02*
X67097676Y-53844704D01*
X67383390Y-54225656D02*
X67192914Y-54082799D01*
X67192914Y-54082799D02*
X67383390Y-53939942D01*
X66954819Y-54082799D02*
X67192914Y-54082799D01*
X67097676Y-54320894D02*
X67192914Y-54082799D01*
X67192914Y-54082799D02*
X67097676Y-53844704D01*
X67383390Y-54225656D02*
X67192914Y-54082799D01*
X67192914Y-54082799D02*
X67383390Y-53939942D01*
X50993195Y-61689819D02*
X50993195Y-62499342D01*
X50993195Y-62499342D02*
X51040814Y-62594580D01*
X51040814Y-62594580D02*
X51088433Y-62642200D01*
X51088433Y-62642200D02*
X51183671Y-62689819D01*
X51183671Y-62689819D02*
X51374147Y-62689819D01*
X51374147Y-62689819D02*
X51469385Y-62642200D01*
X51469385Y-62642200D02*
X51517004Y-62594580D01*
X51517004Y-62594580D02*
X51564623Y-62499342D01*
X51564623Y-62499342D02*
X51564623Y-61689819D01*
X51993195Y-61785057D02*
X52040814Y-61737438D01*
X52040814Y-61737438D02*
X52136052Y-61689819D01*
X52136052Y-61689819D02*
X52374147Y-61689819D01*
X52374147Y-61689819D02*
X52469385Y-61737438D01*
X52469385Y-61737438D02*
X52517004Y-61785057D01*
X52517004Y-61785057D02*
X52564623Y-61880295D01*
X52564623Y-61880295D02*
X52564623Y-61975533D01*
X52564623Y-61975533D02*
X52517004Y-62118390D01*
X52517004Y-62118390D02*
X51945576Y-62689819D01*
X51945576Y-62689819D02*
X52564623Y-62689819D01*
X47300000Y-58904819D02*
X47300000Y-59142914D01*
X47061905Y-59047676D02*
X47300000Y-59142914D01*
X47300000Y-59142914D02*
X47538095Y-59047676D01*
X47157143Y-59333390D02*
X47300000Y-59142914D01*
X47300000Y-59142914D02*
X47442857Y-59333390D01*
X48100000Y-58904819D02*
X48100000Y-59142914D01*
X47861905Y-59047676D02*
X48100000Y-59142914D01*
X48100000Y-59142914D02*
X48338095Y-59047676D01*
X47957143Y-59333390D02*
X48100000Y-59142914D01*
X48100000Y-59142914D02*
X48242857Y-59333390D01*
X66257142Y-72159580D02*
X66209523Y-72207200D01*
X66209523Y-72207200D02*
X66066666Y-72254819D01*
X66066666Y-72254819D02*
X65971428Y-72254819D01*
X65971428Y-72254819D02*
X65828571Y-72207200D01*
X65828571Y-72207200D02*
X65733333Y-72111961D01*
X65733333Y-72111961D02*
X65685714Y-72016723D01*
X65685714Y-72016723D02*
X65638095Y-71826247D01*
X65638095Y-71826247D02*
X65638095Y-71683390D01*
X65638095Y-71683390D02*
X65685714Y-71492914D01*
X65685714Y-71492914D02*
X65733333Y-71397676D01*
X65733333Y-71397676D02*
X65828571Y-71302438D01*
X65828571Y-71302438D02*
X65971428Y-71254819D01*
X65971428Y-71254819D02*
X66066666Y-71254819D01*
X66066666Y-71254819D02*
X66209523Y-71302438D01*
X66209523Y-71302438D02*
X66257142Y-71350057D01*
X67209523Y-72254819D02*
X66638095Y-72254819D01*
X66923809Y-72254819D02*
X66923809Y-71254819D01*
X66923809Y-71254819D02*
X66828571Y-71397676D01*
X66828571Y-71397676D02*
X66733333Y-71492914D01*
X66733333Y-71492914D02*
X66638095Y-71540533D01*
X67685714Y-72254819D02*
X67876190Y-72254819D01*
X67876190Y-72254819D02*
X67971428Y-72207200D01*
X67971428Y-72207200D02*
X68019047Y-72159580D01*
X68019047Y-72159580D02*
X68114285Y-72016723D01*
X68114285Y-72016723D02*
X68161904Y-71826247D01*
X68161904Y-71826247D02*
X68161904Y-71445295D01*
X68161904Y-71445295D02*
X68114285Y-71350057D01*
X68114285Y-71350057D02*
X68066666Y-71302438D01*
X68066666Y-71302438D02*
X67971428Y-71254819D01*
X67971428Y-71254819D02*
X67780952Y-71254819D01*
X67780952Y-71254819D02*
X67685714Y-71302438D01*
X67685714Y-71302438D02*
X67638095Y-71350057D01*
X67638095Y-71350057D02*
X67590476Y-71445295D01*
X67590476Y-71445295D02*
X67590476Y-71683390D01*
X67590476Y-71683390D02*
X67638095Y-71778628D01*
X67638095Y-71778628D02*
X67685714Y-71826247D01*
X67685714Y-71826247D02*
X67780952Y-71873866D01*
X67780952Y-71873866D02*
X67971428Y-71873866D01*
X67971428Y-71873866D02*
X68066666Y-71826247D01*
X68066666Y-71826247D02*
X68114285Y-71778628D01*
X68114285Y-71778628D02*
X68161904Y-71683390D01*
X66759580Y-64392857D02*
X66807200Y-64440476D01*
X66807200Y-64440476D02*
X66854819Y-64583333D01*
X66854819Y-64583333D02*
X66854819Y-64678571D01*
X66854819Y-64678571D02*
X66807200Y-64821428D01*
X66807200Y-64821428D02*
X66711961Y-64916666D01*
X66711961Y-64916666D02*
X66616723Y-64964285D01*
X66616723Y-64964285D02*
X66426247Y-65011904D01*
X66426247Y-65011904D02*
X66283390Y-65011904D01*
X66283390Y-65011904D02*
X66092914Y-64964285D01*
X66092914Y-64964285D02*
X65997676Y-64916666D01*
X65997676Y-64916666D02*
X65902438Y-64821428D01*
X65902438Y-64821428D02*
X65854819Y-64678571D01*
X65854819Y-64678571D02*
X65854819Y-64583333D01*
X65854819Y-64583333D02*
X65902438Y-64440476D01*
X65902438Y-64440476D02*
X65950057Y-64392857D01*
X65950057Y-64011904D02*
X65902438Y-63964285D01*
X65902438Y-63964285D02*
X65854819Y-63869047D01*
X65854819Y-63869047D02*
X65854819Y-63630952D01*
X65854819Y-63630952D02*
X65902438Y-63535714D01*
X65902438Y-63535714D02*
X65950057Y-63488095D01*
X65950057Y-63488095D02*
X66045295Y-63440476D01*
X66045295Y-63440476D02*
X66140533Y-63440476D01*
X66140533Y-63440476D02*
X66283390Y-63488095D01*
X66283390Y-63488095D02*
X66854819Y-64059523D01*
X66854819Y-64059523D02*
X66854819Y-63440476D01*
X65854819Y-62821428D02*
X65854819Y-62726190D01*
X65854819Y-62726190D02*
X65902438Y-62630952D01*
X65902438Y-62630952D02*
X65950057Y-62583333D01*
X65950057Y-62583333D02*
X66045295Y-62535714D01*
X66045295Y-62535714D02*
X66235771Y-62488095D01*
X66235771Y-62488095D02*
X66473866Y-62488095D01*
X66473866Y-62488095D02*
X66664342Y-62535714D01*
X66664342Y-62535714D02*
X66759580Y-62583333D01*
X66759580Y-62583333D02*
X66807200Y-62630952D01*
X66807200Y-62630952D02*
X66854819Y-62726190D01*
X66854819Y-62726190D02*
X66854819Y-62821428D01*
X66854819Y-62821428D02*
X66807200Y-62916666D01*
X66807200Y-62916666D02*
X66759580Y-62964285D01*
X66759580Y-62964285D02*
X66664342Y-63011904D01*
X66664342Y-63011904D02*
X66473866Y-63059523D01*
X66473866Y-63059523D02*
X66235771Y-63059523D01*
X66235771Y-63059523D02*
X66045295Y-63011904D01*
X66045295Y-63011904D02*
X65950057Y-62964285D01*
X65950057Y-62964285D02*
X65902438Y-62916666D01*
X65902438Y-62916666D02*
X65854819Y-62821428D01*
X65454819Y-54792857D02*
X64978628Y-55126190D01*
X65454819Y-55364285D02*
X64454819Y-55364285D01*
X64454819Y-55364285D02*
X64454819Y-54983333D01*
X64454819Y-54983333D02*
X64502438Y-54888095D01*
X64502438Y-54888095D02*
X64550057Y-54840476D01*
X64550057Y-54840476D02*
X64645295Y-54792857D01*
X64645295Y-54792857D02*
X64788152Y-54792857D01*
X64788152Y-54792857D02*
X64883390Y-54840476D01*
X64883390Y-54840476D02*
X64931009Y-54888095D01*
X64931009Y-54888095D02*
X64978628Y-54983333D01*
X64978628Y-54983333D02*
X64978628Y-55364285D01*
X65454819Y-53840476D02*
X65454819Y-54411904D01*
X65454819Y-54126190D02*
X64454819Y-54126190D01*
X64454819Y-54126190D02*
X64597676Y-54221428D01*
X64597676Y-54221428D02*
X64692914Y-54316666D01*
X64692914Y-54316666D02*
X64740533Y-54411904D01*
X64454819Y-52935714D02*
X64454819Y-53411904D01*
X64454819Y-53411904D02*
X64931009Y-53459523D01*
X64931009Y-53459523D02*
X64883390Y-53411904D01*
X64883390Y-53411904D02*
X64835771Y-53316666D01*
X64835771Y-53316666D02*
X64835771Y-53078571D01*
X64835771Y-53078571D02*
X64883390Y-52983333D01*
X64883390Y-52983333D02*
X64931009Y-52935714D01*
X64931009Y-52935714D02*
X65026247Y-52888095D01*
X65026247Y-52888095D02*
X65264342Y-52888095D01*
X65264342Y-52888095D02*
X65359580Y-52935714D01*
X65359580Y-52935714D02*
X65407200Y-52983333D01*
X65407200Y-52983333D02*
X65454819Y-53078571D01*
X65454819Y-53078571D02*
X65454819Y-53316666D01*
X65454819Y-53316666D02*
X65407200Y-53411904D01*
X65407200Y-53411904D02*
X65359580Y-53459523D01*
X49504819Y-57966666D02*
X49028628Y-58299999D01*
X49504819Y-58538094D02*
X48504819Y-58538094D01*
X48504819Y-58538094D02*
X48504819Y-58157142D01*
X48504819Y-58157142D02*
X48552438Y-58061904D01*
X48552438Y-58061904D02*
X48600057Y-58014285D01*
X48600057Y-58014285D02*
X48695295Y-57966666D01*
X48695295Y-57966666D02*
X48838152Y-57966666D01*
X48838152Y-57966666D02*
X48933390Y-58014285D01*
X48933390Y-58014285D02*
X48981009Y-58061904D01*
X48981009Y-58061904D02*
X49028628Y-58157142D01*
X49028628Y-58157142D02*
X49028628Y-58538094D01*
X48600057Y-57585713D02*
X48552438Y-57538094D01*
X48552438Y-57538094D02*
X48504819Y-57442856D01*
X48504819Y-57442856D02*
X48504819Y-57204761D01*
X48504819Y-57204761D02*
X48552438Y-57109523D01*
X48552438Y-57109523D02*
X48600057Y-57061904D01*
X48600057Y-57061904D02*
X48695295Y-57014285D01*
X48695295Y-57014285D02*
X48790533Y-57014285D01*
X48790533Y-57014285D02*
X48933390Y-57061904D01*
X48933390Y-57061904D02*
X49504819Y-57633332D01*
X49504819Y-57633332D02*
X49504819Y-57014285D01*
X61866666Y-33254819D02*
X61866666Y-33969104D01*
X61866666Y-33969104D02*
X61819047Y-34111961D01*
X61819047Y-34111961D02*
X61723809Y-34207200D01*
X61723809Y-34207200D02*
X61580952Y-34254819D01*
X61580952Y-34254819D02*
X61485714Y-34254819D01*
X62771428Y-33254819D02*
X62580952Y-33254819D01*
X62580952Y-33254819D02*
X62485714Y-33302438D01*
X62485714Y-33302438D02*
X62438095Y-33350057D01*
X62438095Y-33350057D02*
X62342857Y-33492914D01*
X62342857Y-33492914D02*
X62295238Y-33683390D01*
X62295238Y-33683390D02*
X62295238Y-34064342D01*
X62295238Y-34064342D02*
X62342857Y-34159580D01*
X62342857Y-34159580D02*
X62390476Y-34207200D01*
X62390476Y-34207200D02*
X62485714Y-34254819D01*
X62485714Y-34254819D02*
X62676190Y-34254819D01*
X62676190Y-34254819D02*
X62771428Y-34207200D01*
X62771428Y-34207200D02*
X62819047Y-34159580D01*
X62819047Y-34159580D02*
X62866666Y-34064342D01*
X62866666Y-34064342D02*
X62866666Y-33826247D01*
X62866666Y-33826247D02*
X62819047Y-33731009D01*
X62819047Y-33731009D02*
X62771428Y-33683390D01*
X62771428Y-33683390D02*
X62676190Y-33635771D01*
X62676190Y-33635771D02*
X62485714Y-33635771D01*
X62485714Y-33635771D02*
X62390476Y-33683390D01*
X62390476Y-33683390D02*
X62342857Y-33731009D01*
X62342857Y-33731009D02*
X62295238Y-33826247D01*
X48728571Y-33814700D02*
X49871429Y-33814700D01*
X49300000Y-34386128D02*
X49300000Y-33243271D01*
X59804819Y-81216666D02*
X59328628Y-81549999D01*
X59804819Y-81788094D02*
X58804819Y-81788094D01*
X58804819Y-81788094D02*
X58804819Y-81407142D01*
X58804819Y-81407142D02*
X58852438Y-81311904D01*
X58852438Y-81311904D02*
X58900057Y-81264285D01*
X58900057Y-81264285D02*
X58995295Y-81216666D01*
X58995295Y-81216666D02*
X59138152Y-81216666D01*
X59138152Y-81216666D02*
X59233390Y-81264285D01*
X59233390Y-81264285D02*
X59281009Y-81311904D01*
X59281009Y-81311904D02*
X59328628Y-81407142D01*
X59328628Y-81407142D02*
X59328628Y-81788094D01*
X58804819Y-80883332D02*
X58804819Y-80216666D01*
X58804819Y-80216666D02*
X59804819Y-80645237D01*
X88711905Y-68504819D02*
X88711905Y-67504819D01*
X88711905Y-67504819D02*
X88950000Y-67504819D01*
X88950000Y-67504819D02*
X89092857Y-67552438D01*
X89092857Y-67552438D02*
X89188095Y-67647676D01*
X89188095Y-67647676D02*
X89235714Y-67742914D01*
X89235714Y-67742914D02*
X89283333Y-67933390D01*
X89283333Y-67933390D02*
X89283333Y-68076247D01*
X89283333Y-68076247D02*
X89235714Y-68266723D01*
X89235714Y-68266723D02*
X89188095Y-68361961D01*
X89188095Y-68361961D02*
X89092857Y-68457200D01*
X89092857Y-68457200D02*
X88950000Y-68504819D01*
X88950000Y-68504819D02*
X88711905Y-68504819D01*
X90235714Y-68504819D02*
X89664286Y-68504819D01*
X89950000Y-68504819D02*
X89950000Y-67504819D01*
X89950000Y-67504819D02*
X89854762Y-67647676D01*
X89854762Y-67647676D02*
X89759524Y-67742914D01*
X89759524Y-67742914D02*
X89664286Y-67790533D01*
X75366978Y-89350334D02*
X75384194Y-89499931D01*
X75384194Y-89499931D02*
X75361162Y-89563213D01*
X75361162Y-89563213D02*
X75294971Y-89646620D01*
X75294971Y-89646620D02*
X75165499Y-89706994D01*
X75165499Y-89706994D02*
X75059059Y-89704086D01*
X75059059Y-89704086D02*
X74995777Y-89681053D01*
X74995777Y-89681053D02*
X74912370Y-89614863D01*
X74912370Y-89614863D02*
X74751373Y-89269603D01*
X74751373Y-89269603D02*
X75657680Y-88846984D01*
X75657680Y-88846984D02*
X75798553Y-89149087D01*
X75798553Y-89149087D02*
X75795645Y-89255527D01*
X75795645Y-89255527D02*
X75772612Y-89318809D01*
X75772612Y-89318809D02*
X75706422Y-89402216D01*
X75706422Y-89402216D02*
X75620107Y-89442465D01*
X75620107Y-89442465D02*
X75513667Y-89439557D01*
X75513667Y-89439557D02*
X75450385Y-89416524D01*
X75450385Y-89416524D02*
X75366978Y-89350334D01*
X75366978Y-89350334D02*
X75226105Y-89048231D01*
X76019925Y-89623820D02*
X76261421Y-90141710D01*
X75234365Y-90305383D02*
X76140673Y-89882765D01*
X75519019Y-90803149D02*
X75536235Y-90952746D01*
X75536235Y-90952746D02*
X75636859Y-91168533D01*
X75636859Y-91168533D02*
X75720265Y-91234724D01*
X75720265Y-91234724D02*
X75783548Y-91257757D01*
X75783548Y-91257757D02*
X75889987Y-91260665D01*
X75889987Y-91260665D02*
X75976302Y-91220415D01*
X75976302Y-91220415D02*
X76042493Y-91137008D01*
X76042493Y-91137008D02*
X76065526Y-91073726D01*
X76065526Y-91073726D02*
X76068434Y-90967287D01*
X76068434Y-90967287D02*
X76031092Y-90774532D01*
X76031092Y-90774532D02*
X76034001Y-90668092D01*
X76034001Y-90668092D02*
X76057033Y-90604810D01*
X76057033Y-90604810D02*
X76123224Y-90521403D01*
X76123224Y-90521403D02*
X76209539Y-90481154D01*
X76209539Y-90481154D02*
X76315979Y-90484062D01*
X76315979Y-90484062D02*
X76379261Y-90507095D01*
X76379261Y-90507095D02*
X76462668Y-90573285D01*
X76462668Y-90573285D02*
X76563291Y-90789073D01*
X76563291Y-90789073D02*
X76580508Y-90938670D01*
X76373212Y-91508210D02*
X76514085Y-91810312D01*
X76099726Y-92161156D02*
X75898479Y-91729581D01*
X75898479Y-91729581D02*
X76804787Y-91306963D01*
X76804787Y-91306963D02*
X77006034Y-91738538D01*
X76482095Y-92981149D02*
X76280848Y-92549574D01*
X76280848Y-92549574D02*
X77187156Y-92126956D01*
X77489026Y-92774319D02*
X77750647Y-93335366D01*
X77750647Y-93335366D02*
X77264514Y-93194261D01*
X77264514Y-93194261D02*
X77324888Y-93323734D01*
X77324888Y-93323734D02*
X77321980Y-93430173D01*
X77321980Y-93430173D02*
X77298947Y-93493456D01*
X77298947Y-93493456D02*
X77232757Y-93576862D01*
X77232757Y-93576862D02*
X77016969Y-93677486D01*
X77016969Y-93677486D02*
X76910530Y-93674578D01*
X76910530Y-93674578D02*
X76847248Y-93651545D01*
X76847248Y-93651545D02*
X76763841Y-93585354D01*
X76763841Y-93585354D02*
X76643093Y-93326409D01*
X76643093Y-93326409D02*
X76646001Y-93219970D01*
X76646001Y-93219970D02*
X76669034Y-93156687D01*
X92936666Y-62724819D02*
X92936666Y-63439104D01*
X92936666Y-63439104D02*
X92889047Y-63581961D01*
X92889047Y-63581961D02*
X92793809Y-63677200D01*
X92793809Y-63677200D02*
X92650952Y-63724819D01*
X92650952Y-63724819D02*
X92555714Y-63724819D01*
X93841428Y-63058152D02*
X93841428Y-63724819D01*
X93603333Y-62677200D02*
X93365238Y-63391485D01*
X93365238Y-63391485D02*
X93984285Y-63391485D01*
X60759580Y-62966666D02*
X60807200Y-63014285D01*
X60807200Y-63014285D02*
X60854819Y-63157142D01*
X60854819Y-63157142D02*
X60854819Y-63252380D01*
X60854819Y-63252380D02*
X60807200Y-63395237D01*
X60807200Y-63395237D02*
X60711961Y-63490475D01*
X60711961Y-63490475D02*
X60616723Y-63538094D01*
X60616723Y-63538094D02*
X60426247Y-63585713D01*
X60426247Y-63585713D02*
X60283390Y-63585713D01*
X60283390Y-63585713D02*
X60092914Y-63538094D01*
X60092914Y-63538094D02*
X59997676Y-63490475D01*
X59997676Y-63490475D02*
X59902438Y-63395237D01*
X59902438Y-63395237D02*
X59854819Y-63252380D01*
X59854819Y-63252380D02*
X59854819Y-63157142D01*
X59854819Y-63157142D02*
X59902438Y-63014285D01*
X59902438Y-63014285D02*
X59950057Y-62966666D01*
X60283390Y-62395237D02*
X60235771Y-62490475D01*
X60235771Y-62490475D02*
X60188152Y-62538094D01*
X60188152Y-62538094D02*
X60092914Y-62585713D01*
X60092914Y-62585713D02*
X60045295Y-62585713D01*
X60045295Y-62585713D02*
X59950057Y-62538094D01*
X59950057Y-62538094D02*
X59902438Y-62490475D01*
X59902438Y-62490475D02*
X59854819Y-62395237D01*
X59854819Y-62395237D02*
X59854819Y-62204761D01*
X59854819Y-62204761D02*
X59902438Y-62109523D01*
X59902438Y-62109523D02*
X59950057Y-62061904D01*
X59950057Y-62061904D02*
X60045295Y-62014285D01*
X60045295Y-62014285D02*
X60092914Y-62014285D01*
X60092914Y-62014285D02*
X60188152Y-62061904D01*
X60188152Y-62061904D02*
X60235771Y-62109523D01*
X60235771Y-62109523D02*
X60283390Y-62204761D01*
X60283390Y-62204761D02*
X60283390Y-62395237D01*
X60283390Y-62395237D02*
X60331009Y-62490475D01*
X60331009Y-62490475D02*
X60378628Y-62538094D01*
X60378628Y-62538094D02*
X60473866Y-62585713D01*
X60473866Y-62585713D02*
X60664342Y-62585713D01*
X60664342Y-62585713D02*
X60759580Y-62538094D01*
X60759580Y-62538094D02*
X60807200Y-62490475D01*
X60807200Y-62490475D02*
X60854819Y-62395237D01*
X60854819Y-62395237D02*
X60854819Y-62204761D01*
X60854819Y-62204761D02*
X60807200Y-62109523D01*
X60807200Y-62109523D02*
X60759580Y-62061904D01*
X60759580Y-62061904D02*
X60664342Y-62014285D01*
X60664342Y-62014285D02*
X60473866Y-62014285D01*
X60473866Y-62014285D02*
X60378628Y-62061904D01*
X60378628Y-62061904D02*
X60331009Y-62109523D01*
X60331009Y-62109523D02*
X60283390Y-62204761D01*
X67211905Y-84254819D02*
X67211905Y-83254819D01*
X67211905Y-83254819D02*
X67450000Y-83254819D01*
X67450000Y-83254819D02*
X67592857Y-83302438D01*
X67592857Y-83302438D02*
X67688095Y-83397676D01*
X67688095Y-83397676D02*
X67735714Y-83492914D01*
X67735714Y-83492914D02*
X67783333Y-83683390D01*
X67783333Y-83683390D02*
X67783333Y-83826247D01*
X67783333Y-83826247D02*
X67735714Y-84016723D01*
X67735714Y-84016723D02*
X67688095Y-84111961D01*
X67688095Y-84111961D02*
X67592857Y-84207200D01*
X67592857Y-84207200D02*
X67450000Y-84254819D01*
X67450000Y-84254819D02*
X67211905Y-84254819D01*
X68116667Y-83254819D02*
X68735714Y-83254819D01*
X68735714Y-83254819D02*
X68402381Y-83635771D01*
X68402381Y-83635771D02*
X68545238Y-83635771D01*
X68545238Y-83635771D02*
X68640476Y-83683390D01*
X68640476Y-83683390D02*
X68688095Y-83731009D01*
X68688095Y-83731009D02*
X68735714Y-83826247D01*
X68735714Y-83826247D02*
X68735714Y-84064342D01*
X68735714Y-84064342D02*
X68688095Y-84159580D01*
X68688095Y-84159580D02*
X68640476Y-84207200D01*
X68640476Y-84207200D02*
X68545238Y-84254819D01*
X68545238Y-84254819D02*
X68259524Y-84254819D01*
X68259524Y-84254819D02*
X68164286Y-84207200D01*
X68164286Y-84207200D02*
X68116667Y-84159580D01*
X52773595Y-21654819D02*
X52773595Y-20654819D01*
X52773595Y-21131009D02*
X53345023Y-21131009D01*
X53345023Y-21654819D02*
X53345023Y-20654819D01*
X54345023Y-21654819D02*
X53773595Y-21654819D01*
X54059309Y-21654819D02*
X54059309Y-20654819D01*
X54059309Y-20654819D02*
X53964071Y-20797676D01*
X53964071Y-20797676D02*
X53868833Y-20892914D01*
X53868833Y-20892914D02*
X53773595Y-20940533D01*
X53554819Y-78188094D02*
X52554819Y-78188094D01*
X52554819Y-78188094D02*
X52554819Y-77949999D01*
X52554819Y-77949999D02*
X52602438Y-77807142D01*
X52602438Y-77807142D02*
X52697676Y-77711904D01*
X52697676Y-77711904D02*
X52792914Y-77664285D01*
X52792914Y-77664285D02*
X52983390Y-77616666D01*
X52983390Y-77616666D02*
X53126247Y-77616666D01*
X53126247Y-77616666D02*
X53316723Y-77664285D01*
X53316723Y-77664285D02*
X53411961Y-77711904D01*
X53411961Y-77711904D02*
X53507200Y-77807142D01*
X53507200Y-77807142D02*
X53554819Y-77949999D01*
X53554819Y-77949999D02*
X53554819Y-78188094D01*
X52554819Y-77283332D02*
X52554819Y-76616666D01*
X52554819Y-76616666D02*
X53554819Y-77045237D01*
X53504819Y-80088094D02*
X52504819Y-80088094D01*
X52504819Y-80088094D02*
X52504819Y-79849999D01*
X52504819Y-79849999D02*
X52552438Y-79707142D01*
X52552438Y-79707142D02*
X52647676Y-79611904D01*
X52647676Y-79611904D02*
X52742914Y-79564285D01*
X52742914Y-79564285D02*
X52933390Y-79516666D01*
X52933390Y-79516666D02*
X53076247Y-79516666D01*
X53076247Y-79516666D02*
X53266723Y-79564285D01*
X53266723Y-79564285D02*
X53361961Y-79611904D01*
X53361961Y-79611904D02*
X53457200Y-79707142D01*
X53457200Y-79707142D02*
X53504819Y-79849999D01*
X53504819Y-79849999D02*
X53504819Y-80088094D01*
X52933390Y-78945237D02*
X52885771Y-79040475D01*
X52885771Y-79040475D02*
X52838152Y-79088094D01*
X52838152Y-79088094D02*
X52742914Y-79135713D01*
X52742914Y-79135713D02*
X52695295Y-79135713D01*
X52695295Y-79135713D02*
X52600057Y-79088094D01*
X52600057Y-79088094D02*
X52552438Y-79040475D01*
X52552438Y-79040475D02*
X52504819Y-78945237D01*
X52504819Y-78945237D02*
X52504819Y-78754761D01*
X52504819Y-78754761D02*
X52552438Y-78659523D01*
X52552438Y-78659523D02*
X52600057Y-78611904D01*
X52600057Y-78611904D02*
X52695295Y-78564285D01*
X52695295Y-78564285D02*
X52742914Y-78564285D01*
X52742914Y-78564285D02*
X52838152Y-78611904D01*
X52838152Y-78611904D02*
X52885771Y-78659523D01*
X52885771Y-78659523D02*
X52933390Y-78754761D01*
X52933390Y-78754761D02*
X52933390Y-78945237D01*
X52933390Y-78945237D02*
X52981009Y-79040475D01*
X52981009Y-79040475D02*
X53028628Y-79088094D01*
X53028628Y-79088094D02*
X53123866Y-79135713D01*
X53123866Y-79135713D02*
X53314342Y-79135713D01*
X53314342Y-79135713D02*
X53409580Y-79088094D01*
X53409580Y-79088094D02*
X53457200Y-79040475D01*
X53457200Y-79040475D02*
X53504819Y-78945237D01*
X53504819Y-78945237D02*
X53504819Y-78754761D01*
X53504819Y-78754761D02*
X53457200Y-78659523D01*
X53457200Y-78659523D02*
X53409580Y-78611904D01*
X53409580Y-78611904D02*
X53314342Y-78564285D01*
X53314342Y-78564285D02*
X53123866Y-78564285D01*
X53123866Y-78564285D02*
X53028628Y-78611904D01*
X53028628Y-78611904D02*
X52981009Y-78659523D01*
X52981009Y-78659523D02*
X52933390Y-78754761D01*
X75294819Y-25063333D02*
X76009104Y-25063333D01*
X76009104Y-25063333D02*
X76151961Y-25110952D01*
X76151961Y-25110952D02*
X76247200Y-25206190D01*
X76247200Y-25206190D02*
X76294819Y-25349047D01*
X76294819Y-25349047D02*
X76294819Y-25444285D01*
X76294819Y-24539523D02*
X76294819Y-24349047D01*
X76294819Y-24349047D02*
X76247200Y-24253809D01*
X76247200Y-24253809D02*
X76199580Y-24206190D01*
X76199580Y-24206190D02*
X76056723Y-24110952D01*
X76056723Y-24110952D02*
X75866247Y-24063333D01*
X75866247Y-24063333D02*
X75485295Y-24063333D01*
X75485295Y-24063333D02*
X75390057Y-24110952D01*
X75390057Y-24110952D02*
X75342438Y-24158571D01*
X75342438Y-24158571D02*
X75294819Y-24253809D01*
X75294819Y-24253809D02*
X75294819Y-24444285D01*
X75294819Y-24444285D02*
X75342438Y-24539523D01*
X75342438Y-24539523D02*
X75390057Y-24587142D01*
X75390057Y-24587142D02*
X75485295Y-24634761D01*
X75485295Y-24634761D02*
X75723390Y-24634761D01*
X75723390Y-24634761D02*
X75818628Y-24587142D01*
X75818628Y-24587142D02*
X75866247Y-24539523D01*
X75866247Y-24539523D02*
X75913866Y-24444285D01*
X75913866Y-24444285D02*
X75913866Y-24253809D01*
X75913866Y-24253809D02*
X75866247Y-24158571D01*
X75866247Y-24158571D02*
X75818628Y-24110952D01*
X75818628Y-24110952D02*
X75723390Y-24063333D01*
X68109580Y-64442857D02*
X68157200Y-64490476D01*
X68157200Y-64490476D02*
X68204819Y-64633333D01*
X68204819Y-64633333D02*
X68204819Y-64728571D01*
X68204819Y-64728571D02*
X68157200Y-64871428D01*
X68157200Y-64871428D02*
X68061961Y-64966666D01*
X68061961Y-64966666D02*
X67966723Y-65014285D01*
X67966723Y-65014285D02*
X67776247Y-65061904D01*
X67776247Y-65061904D02*
X67633390Y-65061904D01*
X67633390Y-65061904D02*
X67442914Y-65014285D01*
X67442914Y-65014285D02*
X67347676Y-64966666D01*
X67347676Y-64966666D02*
X67252438Y-64871428D01*
X67252438Y-64871428D02*
X67204819Y-64728571D01*
X67204819Y-64728571D02*
X67204819Y-64633333D01*
X67204819Y-64633333D02*
X67252438Y-64490476D01*
X67252438Y-64490476D02*
X67300057Y-64442857D01*
X67300057Y-64061904D02*
X67252438Y-64014285D01*
X67252438Y-64014285D02*
X67204819Y-63919047D01*
X67204819Y-63919047D02*
X67204819Y-63680952D01*
X67204819Y-63680952D02*
X67252438Y-63585714D01*
X67252438Y-63585714D02*
X67300057Y-63538095D01*
X67300057Y-63538095D02*
X67395295Y-63490476D01*
X67395295Y-63490476D02*
X67490533Y-63490476D01*
X67490533Y-63490476D02*
X67633390Y-63538095D01*
X67633390Y-63538095D02*
X68204819Y-64109523D01*
X68204819Y-64109523D02*
X68204819Y-63490476D01*
X68204819Y-62538095D02*
X68204819Y-63109523D01*
X68204819Y-62823809D02*
X67204819Y-62823809D01*
X67204819Y-62823809D02*
X67347676Y-62919047D01*
X67347676Y-62919047D02*
X67442914Y-63014285D01*
X67442914Y-63014285D02*
X67490533Y-63109523D01*
X58334819Y-63166666D02*
X57858628Y-63499999D01*
X58334819Y-63738094D02*
X57334819Y-63738094D01*
X57334819Y-63738094D02*
X57334819Y-63357142D01*
X57334819Y-63357142D02*
X57382438Y-63261904D01*
X57382438Y-63261904D02*
X57430057Y-63214285D01*
X57430057Y-63214285D02*
X57525295Y-63166666D01*
X57525295Y-63166666D02*
X57668152Y-63166666D01*
X57668152Y-63166666D02*
X57763390Y-63214285D01*
X57763390Y-63214285D02*
X57811009Y-63261904D01*
X57811009Y-63261904D02*
X57858628Y-63357142D01*
X57858628Y-63357142D02*
X57858628Y-63738094D01*
X57334819Y-62833332D02*
X57334819Y-62214285D01*
X57334819Y-62214285D02*
X57715771Y-62547618D01*
X57715771Y-62547618D02*
X57715771Y-62404761D01*
X57715771Y-62404761D02*
X57763390Y-62309523D01*
X57763390Y-62309523D02*
X57811009Y-62261904D01*
X57811009Y-62261904D02*
X57906247Y-62214285D01*
X57906247Y-62214285D02*
X58144342Y-62214285D01*
X58144342Y-62214285D02*
X58239580Y-62261904D01*
X58239580Y-62261904D02*
X58287200Y-62309523D01*
X58287200Y-62309523D02*
X58334819Y-62404761D01*
X58334819Y-62404761D02*
X58334819Y-62690475D01*
X58334819Y-62690475D02*
X58287200Y-62785713D01*
X58287200Y-62785713D02*
X58239580Y-62833332D01*
X56027142Y-44659580D02*
X55979523Y-44707200D01*
X55979523Y-44707200D02*
X55836666Y-44754819D01*
X55836666Y-44754819D02*
X55741428Y-44754819D01*
X55741428Y-44754819D02*
X55598571Y-44707200D01*
X55598571Y-44707200D02*
X55503333Y-44611961D01*
X55503333Y-44611961D02*
X55455714Y-44516723D01*
X55455714Y-44516723D02*
X55408095Y-44326247D01*
X55408095Y-44326247D02*
X55408095Y-44183390D01*
X55408095Y-44183390D02*
X55455714Y-43992914D01*
X55455714Y-43992914D02*
X55503333Y-43897676D01*
X55503333Y-43897676D02*
X55598571Y-43802438D01*
X55598571Y-43802438D02*
X55741428Y-43754819D01*
X55741428Y-43754819D02*
X55836666Y-43754819D01*
X55836666Y-43754819D02*
X55979523Y-43802438D01*
X55979523Y-43802438D02*
X56027142Y-43850057D01*
X56408095Y-43850057D02*
X56455714Y-43802438D01*
X56455714Y-43802438D02*
X56550952Y-43754819D01*
X56550952Y-43754819D02*
X56789047Y-43754819D01*
X56789047Y-43754819D02*
X56884285Y-43802438D01*
X56884285Y-43802438D02*
X56931904Y-43850057D01*
X56931904Y-43850057D02*
X56979523Y-43945295D01*
X56979523Y-43945295D02*
X56979523Y-44040533D01*
X56979523Y-44040533D02*
X56931904Y-44183390D01*
X56931904Y-44183390D02*
X56360476Y-44754819D01*
X56360476Y-44754819D02*
X56979523Y-44754819D01*
X57550952Y-44183390D02*
X57455714Y-44135771D01*
X57455714Y-44135771D02*
X57408095Y-44088152D01*
X57408095Y-44088152D02*
X57360476Y-43992914D01*
X57360476Y-43992914D02*
X57360476Y-43945295D01*
X57360476Y-43945295D02*
X57408095Y-43850057D01*
X57408095Y-43850057D02*
X57455714Y-43802438D01*
X57455714Y-43802438D02*
X57550952Y-43754819D01*
X57550952Y-43754819D02*
X57741428Y-43754819D01*
X57741428Y-43754819D02*
X57836666Y-43802438D01*
X57836666Y-43802438D02*
X57884285Y-43850057D01*
X57884285Y-43850057D02*
X57931904Y-43945295D01*
X57931904Y-43945295D02*
X57931904Y-43992914D01*
X57931904Y-43992914D02*
X57884285Y-44088152D01*
X57884285Y-44088152D02*
X57836666Y-44135771D01*
X57836666Y-44135771D02*
X57741428Y-44183390D01*
X57741428Y-44183390D02*
X57550952Y-44183390D01*
X57550952Y-44183390D02*
X57455714Y-44231009D01*
X57455714Y-44231009D02*
X57408095Y-44278628D01*
X57408095Y-44278628D02*
X57360476Y-44373866D01*
X57360476Y-44373866D02*
X57360476Y-44564342D01*
X57360476Y-44564342D02*
X57408095Y-44659580D01*
X57408095Y-44659580D02*
X57455714Y-44707200D01*
X57455714Y-44707200D02*
X57550952Y-44754819D01*
X57550952Y-44754819D02*
X57741428Y-44754819D01*
X57741428Y-44754819D02*
X57836666Y-44707200D01*
X57836666Y-44707200D02*
X57884285Y-44659580D01*
X57884285Y-44659580D02*
X57931904Y-44564342D01*
X57931904Y-44564342D02*
X57931904Y-44373866D01*
X57931904Y-44373866D02*
X57884285Y-44278628D01*
X57884285Y-44278628D02*
X57836666Y-44231009D01*
X57836666Y-44231009D02*
X57741428Y-44183390D01*
X60509580Y-43692857D02*
X60557200Y-43740476D01*
X60557200Y-43740476D02*
X60604819Y-43883333D01*
X60604819Y-43883333D02*
X60604819Y-43978571D01*
X60604819Y-43978571D02*
X60557200Y-44121428D01*
X60557200Y-44121428D02*
X60461961Y-44216666D01*
X60461961Y-44216666D02*
X60366723Y-44264285D01*
X60366723Y-44264285D02*
X60176247Y-44311904D01*
X60176247Y-44311904D02*
X60033390Y-44311904D01*
X60033390Y-44311904D02*
X59842914Y-44264285D01*
X59842914Y-44264285D02*
X59747676Y-44216666D01*
X59747676Y-44216666D02*
X59652438Y-44121428D01*
X59652438Y-44121428D02*
X59604819Y-43978571D01*
X59604819Y-43978571D02*
X59604819Y-43883333D01*
X59604819Y-43883333D02*
X59652438Y-43740476D01*
X59652438Y-43740476D02*
X59700057Y-43692857D01*
X59604819Y-43359523D02*
X59604819Y-42740476D01*
X59604819Y-42740476D02*
X59985771Y-43073809D01*
X59985771Y-43073809D02*
X59985771Y-42930952D01*
X59985771Y-42930952D02*
X60033390Y-42835714D01*
X60033390Y-42835714D02*
X60081009Y-42788095D01*
X60081009Y-42788095D02*
X60176247Y-42740476D01*
X60176247Y-42740476D02*
X60414342Y-42740476D01*
X60414342Y-42740476D02*
X60509580Y-42788095D01*
X60509580Y-42788095D02*
X60557200Y-42835714D01*
X60557200Y-42835714D02*
X60604819Y-42930952D01*
X60604819Y-42930952D02*
X60604819Y-43216666D01*
X60604819Y-43216666D02*
X60557200Y-43311904D01*
X60557200Y-43311904D02*
X60509580Y-43359523D01*
X60604819Y-41788095D02*
X60604819Y-42359523D01*
X60604819Y-42073809D02*
X59604819Y-42073809D01*
X59604819Y-42073809D02*
X59747676Y-42169047D01*
X59747676Y-42169047D02*
X59842914Y-42264285D01*
X59842914Y-42264285D02*
X59890533Y-42359523D01*
X50257142Y-54509580D02*
X50209523Y-54557200D01*
X50209523Y-54557200D02*
X50066666Y-54604819D01*
X50066666Y-54604819D02*
X49971428Y-54604819D01*
X49971428Y-54604819D02*
X49828571Y-54557200D01*
X49828571Y-54557200D02*
X49733333Y-54461961D01*
X49733333Y-54461961D02*
X49685714Y-54366723D01*
X49685714Y-54366723D02*
X49638095Y-54176247D01*
X49638095Y-54176247D02*
X49638095Y-54033390D01*
X49638095Y-54033390D02*
X49685714Y-53842914D01*
X49685714Y-53842914D02*
X49733333Y-53747676D01*
X49733333Y-53747676D02*
X49828571Y-53652438D01*
X49828571Y-53652438D02*
X49971428Y-53604819D01*
X49971428Y-53604819D02*
X50066666Y-53604819D01*
X50066666Y-53604819D02*
X50209523Y-53652438D01*
X50209523Y-53652438D02*
X50257142Y-53700057D01*
X50590476Y-53604819D02*
X51209523Y-53604819D01*
X51209523Y-53604819D02*
X50876190Y-53985771D01*
X50876190Y-53985771D02*
X51019047Y-53985771D01*
X51019047Y-53985771D02*
X51114285Y-54033390D01*
X51114285Y-54033390D02*
X51161904Y-54081009D01*
X51161904Y-54081009D02*
X51209523Y-54176247D01*
X51209523Y-54176247D02*
X51209523Y-54414342D01*
X51209523Y-54414342D02*
X51161904Y-54509580D01*
X51161904Y-54509580D02*
X51114285Y-54557200D01*
X51114285Y-54557200D02*
X51019047Y-54604819D01*
X51019047Y-54604819D02*
X50733333Y-54604819D01*
X50733333Y-54604819D02*
X50638095Y-54557200D01*
X50638095Y-54557200D02*
X50590476Y-54509580D01*
X51590476Y-53700057D02*
X51638095Y-53652438D01*
X51638095Y-53652438D02*
X51733333Y-53604819D01*
X51733333Y-53604819D02*
X51971428Y-53604819D01*
X51971428Y-53604819D02*
X52066666Y-53652438D01*
X52066666Y-53652438D02*
X52114285Y-53700057D01*
X52114285Y-53700057D02*
X52161904Y-53795295D01*
X52161904Y-53795295D02*
X52161904Y-53890533D01*
X52161904Y-53890533D02*
X52114285Y-54033390D01*
X52114285Y-54033390D02*
X51542857Y-54604819D01*
X51542857Y-54604819D02*
X52161904Y-54604819D01*
X77423095Y-70574819D02*
X77423095Y-71384342D01*
X77423095Y-71384342D02*
X77470714Y-71479580D01*
X77470714Y-71479580D02*
X77518333Y-71527200D01*
X77518333Y-71527200D02*
X77613571Y-71574819D01*
X77613571Y-71574819D02*
X77804047Y-71574819D01*
X77804047Y-71574819D02*
X77899285Y-71527200D01*
X77899285Y-71527200D02*
X77946904Y-71479580D01*
X77946904Y-71479580D02*
X77994523Y-71384342D01*
X77994523Y-71384342D02*
X77994523Y-70574819D01*
X78899285Y-70908152D02*
X78899285Y-71574819D01*
X78661190Y-70527200D02*
X78423095Y-71241485D01*
X78423095Y-71241485D02*
X79042142Y-71241485D01*
X68050700Y-65314819D02*
X68050700Y-65552914D01*
X67812605Y-65457676D02*
X68050700Y-65552914D01*
X68050700Y-65552914D02*
X68288795Y-65457676D01*
X67907843Y-65743390D02*
X68050700Y-65552914D01*
X68050700Y-65552914D02*
X68193557Y-65743390D01*
X68050700Y-65314819D02*
X68050700Y-65552914D01*
X67812605Y-65457676D02*
X68050700Y-65552914D01*
X68050700Y-65552914D02*
X68288795Y-65457676D01*
X67907843Y-65743390D02*
X68050700Y-65552914D01*
X68050700Y-65552914D02*
X68193557Y-65743390D01*
X51754819Y-68588094D02*
X50754819Y-68588094D01*
X50754819Y-68588094D02*
X50754819Y-68349999D01*
X50754819Y-68349999D02*
X50802438Y-68207142D01*
X50802438Y-68207142D02*
X50897676Y-68111904D01*
X50897676Y-68111904D02*
X50992914Y-68064285D01*
X50992914Y-68064285D02*
X51183390Y-68016666D01*
X51183390Y-68016666D02*
X51326247Y-68016666D01*
X51326247Y-68016666D02*
X51516723Y-68064285D01*
X51516723Y-68064285D02*
X51611961Y-68111904D01*
X51611961Y-68111904D02*
X51707200Y-68207142D01*
X51707200Y-68207142D02*
X51754819Y-68349999D01*
X51754819Y-68349999D02*
X51754819Y-68588094D01*
X50754819Y-67159523D02*
X50754819Y-67349999D01*
X50754819Y-67349999D02*
X50802438Y-67445237D01*
X50802438Y-67445237D02*
X50850057Y-67492856D01*
X50850057Y-67492856D02*
X50992914Y-67588094D01*
X50992914Y-67588094D02*
X51183390Y-67635713D01*
X51183390Y-67635713D02*
X51564342Y-67635713D01*
X51564342Y-67635713D02*
X51659580Y-67588094D01*
X51659580Y-67588094D02*
X51707200Y-67540475D01*
X51707200Y-67540475D02*
X51754819Y-67445237D01*
X51754819Y-67445237D02*
X51754819Y-67254761D01*
X51754819Y-67254761D02*
X51707200Y-67159523D01*
X51707200Y-67159523D02*
X51659580Y-67111904D01*
X51659580Y-67111904D02*
X51564342Y-67064285D01*
X51564342Y-67064285D02*
X51326247Y-67064285D01*
X51326247Y-67064285D02*
X51231009Y-67111904D01*
X51231009Y-67111904D02*
X51183390Y-67159523D01*
X51183390Y-67159523D02*
X51135771Y-67254761D01*
X51135771Y-67254761D02*
X51135771Y-67445237D01*
X51135771Y-67445237D02*
X51183390Y-67540475D01*
X51183390Y-67540475D02*
X51231009Y-67588094D01*
X51231009Y-67588094D02*
X51326247Y-67635713D01*
X51607142Y-44559580D02*
X51559523Y-44607200D01*
X51559523Y-44607200D02*
X51416666Y-44654819D01*
X51416666Y-44654819D02*
X51321428Y-44654819D01*
X51321428Y-44654819D02*
X51178571Y-44607200D01*
X51178571Y-44607200D02*
X51083333Y-44511961D01*
X51083333Y-44511961D02*
X51035714Y-44416723D01*
X51035714Y-44416723D02*
X50988095Y-44226247D01*
X50988095Y-44226247D02*
X50988095Y-44083390D01*
X50988095Y-44083390D02*
X51035714Y-43892914D01*
X51035714Y-43892914D02*
X51083333Y-43797676D01*
X51083333Y-43797676D02*
X51178571Y-43702438D01*
X51178571Y-43702438D02*
X51321428Y-43654819D01*
X51321428Y-43654819D02*
X51416666Y-43654819D01*
X51416666Y-43654819D02*
X51559523Y-43702438D01*
X51559523Y-43702438D02*
X51607142Y-43750057D01*
X51940476Y-43654819D02*
X52559523Y-43654819D01*
X52559523Y-43654819D02*
X52226190Y-44035771D01*
X52226190Y-44035771D02*
X52369047Y-44035771D01*
X52369047Y-44035771D02*
X52464285Y-44083390D01*
X52464285Y-44083390D02*
X52511904Y-44131009D01*
X52511904Y-44131009D02*
X52559523Y-44226247D01*
X52559523Y-44226247D02*
X52559523Y-44464342D01*
X52559523Y-44464342D02*
X52511904Y-44559580D01*
X52511904Y-44559580D02*
X52464285Y-44607200D01*
X52464285Y-44607200D02*
X52369047Y-44654819D01*
X52369047Y-44654819D02*
X52083333Y-44654819D01*
X52083333Y-44654819D02*
X51988095Y-44607200D01*
X51988095Y-44607200D02*
X51940476Y-44559580D01*
X53178571Y-43654819D02*
X53273809Y-43654819D01*
X53273809Y-43654819D02*
X53369047Y-43702438D01*
X53369047Y-43702438D02*
X53416666Y-43750057D01*
X53416666Y-43750057D02*
X53464285Y-43845295D01*
X53464285Y-43845295D02*
X53511904Y-44035771D01*
X53511904Y-44035771D02*
X53511904Y-44273866D01*
X53511904Y-44273866D02*
X53464285Y-44464342D01*
X53464285Y-44464342D02*
X53416666Y-44559580D01*
X53416666Y-44559580D02*
X53369047Y-44607200D01*
X53369047Y-44607200D02*
X53273809Y-44654819D01*
X53273809Y-44654819D02*
X53178571Y-44654819D01*
X53178571Y-44654819D02*
X53083333Y-44607200D01*
X53083333Y-44607200D02*
X53035714Y-44559580D01*
X53035714Y-44559580D02*
X52988095Y-44464342D01*
X52988095Y-44464342D02*
X52940476Y-44273866D01*
X52940476Y-44273866D02*
X52940476Y-44035771D01*
X52940476Y-44035771D02*
X52988095Y-43845295D01*
X52988095Y-43845295D02*
X53035714Y-43750057D01*
X53035714Y-43750057D02*
X53083333Y-43702438D01*
X53083333Y-43702438D02*
X53178571Y-43654819D01*
X59614819Y-63166666D02*
X59138628Y-63499999D01*
X59614819Y-63738094D02*
X58614819Y-63738094D01*
X58614819Y-63738094D02*
X58614819Y-63357142D01*
X58614819Y-63357142D02*
X58662438Y-63261904D01*
X58662438Y-63261904D02*
X58710057Y-63214285D01*
X58710057Y-63214285D02*
X58805295Y-63166666D01*
X58805295Y-63166666D02*
X58948152Y-63166666D01*
X58948152Y-63166666D02*
X59043390Y-63214285D01*
X59043390Y-63214285D02*
X59091009Y-63261904D01*
X59091009Y-63261904D02*
X59138628Y-63357142D01*
X59138628Y-63357142D02*
X59138628Y-63738094D01*
X58948152Y-62309523D02*
X59614819Y-62309523D01*
X58567200Y-62547618D02*
X59281485Y-62785713D01*
X59281485Y-62785713D02*
X59281485Y-62166666D01*
X53884642Y-83834819D02*
X53551309Y-83358628D01*
X53313214Y-83834819D02*
X53313214Y-82834819D01*
X53313214Y-82834819D02*
X53694166Y-82834819D01*
X53694166Y-82834819D02*
X53789404Y-82882438D01*
X53789404Y-82882438D02*
X53837023Y-82930057D01*
X53837023Y-82930057D02*
X53884642Y-83025295D01*
X53884642Y-83025295D02*
X53884642Y-83168152D01*
X53884642Y-83168152D02*
X53837023Y-83263390D01*
X53837023Y-83263390D02*
X53789404Y-83311009D01*
X53789404Y-83311009D02*
X53694166Y-83358628D01*
X53694166Y-83358628D02*
X53313214Y-83358628D01*
X54265595Y-82930057D02*
X54313214Y-82882438D01*
X54313214Y-82882438D02*
X54408452Y-82834819D01*
X54408452Y-82834819D02*
X54646547Y-82834819D01*
X54646547Y-82834819D02*
X54741785Y-82882438D01*
X54741785Y-82882438D02*
X54789404Y-82930057D01*
X54789404Y-82930057D02*
X54837023Y-83025295D01*
X54837023Y-83025295D02*
X54837023Y-83120533D01*
X54837023Y-83120533D02*
X54789404Y-83263390D01*
X54789404Y-83263390D02*
X54217976Y-83834819D01*
X54217976Y-83834819D02*
X54837023Y-83834819D01*
X55456071Y-82834819D02*
X55551309Y-82834819D01*
X55551309Y-82834819D02*
X55646547Y-82882438D01*
X55646547Y-82882438D02*
X55694166Y-82930057D01*
X55694166Y-82930057D02*
X55741785Y-83025295D01*
X55741785Y-83025295D02*
X55789404Y-83215771D01*
X55789404Y-83215771D02*
X55789404Y-83453866D01*
X55789404Y-83453866D02*
X55741785Y-83644342D01*
X55741785Y-83644342D02*
X55694166Y-83739580D01*
X55694166Y-83739580D02*
X55646547Y-83787200D01*
X55646547Y-83787200D02*
X55551309Y-83834819D01*
X55551309Y-83834819D02*
X55456071Y-83834819D01*
X55456071Y-83834819D02*
X55360833Y-83787200D01*
X55360833Y-83787200D02*
X55313214Y-83739580D01*
X55313214Y-83739580D02*
X55265595Y-83644342D01*
X55265595Y-83644342D02*
X55217976Y-83453866D01*
X55217976Y-83453866D02*
X55217976Y-83215771D01*
X55217976Y-83215771D02*
X55265595Y-83025295D01*
X55265595Y-83025295D02*
X55313214Y-82930057D01*
X55313214Y-82930057D02*
X55360833Y-82882438D01*
X55360833Y-82882438D02*
X55456071Y-82834819D01*
X60483333Y-86959580D02*
X60435714Y-87007200D01*
X60435714Y-87007200D02*
X60292857Y-87054819D01*
X60292857Y-87054819D02*
X60197619Y-87054819D01*
X60197619Y-87054819D02*
X60054762Y-87007200D01*
X60054762Y-87007200D02*
X59959524Y-86911961D01*
X59959524Y-86911961D02*
X59911905Y-86816723D01*
X59911905Y-86816723D02*
X59864286Y-86626247D01*
X59864286Y-86626247D02*
X59864286Y-86483390D01*
X59864286Y-86483390D02*
X59911905Y-86292914D01*
X59911905Y-86292914D02*
X59959524Y-86197676D01*
X59959524Y-86197676D02*
X60054762Y-86102438D01*
X60054762Y-86102438D02*
X60197619Y-86054819D01*
X60197619Y-86054819D02*
X60292857Y-86054819D01*
X60292857Y-86054819D02*
X60435714Y-86102438D01*
X60435714Y-86102438D02*
X60483333Y-86150057D01*
X61435714Y-87054819D02*
X60864286Y-87054819D01*
X61150000Y-87054819D02*
X61150000Y-86054819D01*
X61150000Y-86054819D02*
X61054762Y-86197676D01*
X61054762Y-86197676D02*
X60959524Y-86292914D01*
X60959524Y-86292914D02*
X60864286Y-86340533D01*
X58881009Y-57519047D02*
X58928628Y-57376190D01*
X58928628Y-57376190D02*
X58976247Y-57328571D01*
X58976247Y-57328571D02*
X59071485Y-57280952D01*
X59071485Y-57280952D02*
X59214342Y-57280952D01*
X59214342Y-57280952D02*
X59309580Y-57328571D01*
X59309580Y-57328571D02*
X59357200Y-57376190D01*
X59357200Y-57376190D02*
X59404819Y-57471428D01*
X59404819Y-57471428D02*
X59404819Y-57852380D01*
X59404819Y-57852380D02*
X58404819Y-57852380D01*
X58404819Y-57852380D02*
X58404819Y-57519047D01*
X58404819Y-57519047D02*
X58452438Y-57423809D01*
X58452438Y-57423809D02*
X58500057Y-57376190D01*
X58500057Y-57376190D02*
X58595295Y-57328571D01*
X58595295Y-57328571D02*
X58690533Y-57328571D01*
X58690533Y-57328571D02*
X58785771Y-57376190D01*
X58785771Y-57376190D02*
X58833390Y-57423809D01*
X58833390Y-57423809D02*
X58881009Y-57519047D01*
X58881009Y-57519047D02*
X58881009Y-57852380D01*
X58404819Y-56995237D02*
X58404819Y-56423809D01*
X59404819Y-56709523D02*
X58404819Y-56709523D01*
X59357200Y-56138094D02*
X59404819Y-55995237D01*
X59404819Y-55995237D02*
X59404819Y-55757142D01*
X59404819Y-55757142D02*
X59357200Y-55661904D01*
X59357200Y-55661904D02*
X59309580Y-55614285D01*
X59309580Y-55614285D02*
X59214342Y-55566666D01*
X59214342Y-55566666D02*
X59119104Y-55566666D01*
X59119104Y-55566666D02*
X59023866Y-55614285D01*
X59023866Y-55614285D02*
X58976247Y-55661904D01*
X58976247Y-55661904D02*
X58928628Y-55757142D01*
X58928628Y-55757142D02*
X58881009Y-55947618D01*
X58881009Y-55947618D02*
X58833390Y-56042856D01*
X58833390Y-56042856D02*
X58785771Y-56090475D01*
X58785771Y-56090475D02*
X58690533Y-56138094D01*
X58690533Y-56138094D02*
X58595295Y-56138094D01*
X58595295Y-56138094D02*
X58500057Y-56090475D01*
X58500057Y-56090475D02*
X58452438Y-56042856D01*
X58452438Y-56042856D02*
X58404819Y-55947618D01*
X58404819Y-55947618D02*
X58404819Y-55709523D01*
X58404819Y-55709523D02*
X58452438Y-55566666D01*
X58881009Y-55138094D02*
X58881009Y-54804761D01*
X59404819Y-54661904D02*
X59404819Y-55138094D01*
X59404819Y-55138094D02*
X58404819Y-55138094D01*
X58404819Y-55138094D02*
X58404819Y-54661904D01*
X59404819Y-53757142D02*
X59404819Y-54233332D01*
X59404819Y-54233332D02*
X58404819Y-54233332D01*
X59404819Y-52899999D02*
X59404819Y-53471427D01*
X59404819Y-53185713D02*
X58404819Y-53185713D01*
X58404819Y-53185713D02*
X58547676Y-53280951D01*
X58547676Y-53280951D02*
X58642914Y-53376189D01*
X58642914Y-53376189D02*
X58690533Y-53471427D01*
X53945180Y-48908333D02*
X53945180Y-48432143D01*
X53945180Y-48432143D02*
X54945180Y-48432143D01*
X53945180Y-49765476D02*
X53945180Y-49194048D01*
X53945180Y-49479762D02*
X54945180Y-49479762D01*
X54945180Y-49479762D02*
X54802323Y-49384524D01*
X54802323Y-49384524D02*
X54707085Y-49289286D01*
X54707085Y-49289286D02*
X54659466Y-49194048D01*
X54945180Y-44509000D02*
X54707085Y-44509000D01*
X54802323Y-44270905D02*
X54707085Y-44509000D01*
X54707085Y-44509000D02*
X54802323Y-44747095D01*
X54516609Y-44366143D02*
X54707085Y-44509000D01*
X54707085Y-44509000D02*
X54516609Y-44651857D01*
X53854819Y-44508999D02*
X54092914Y-44508999D01*
X53997676Y-44747094D02*
X54092914Y-44508999D01*
X54092914Y-44508999D02*
X53997676Y-44270904D01*
X54283390Y-44651856D02*
X54092914Y-44508999D01*
X54092914Y-44508999D02*
X54283390Y-44366142D01*
X70916666Y-39954819D02*
X70916666Y-40669104D01*
X70916666Y-40669104D02*
X70869047Y-40811961D01*
X70869047Y-40811961D02*
X70773809Y-40907200D01*
X70773809Y-40907200D02*
X70630952Y-40954819D01*
X70630952Y-40954819D02*
X70535714Y-40954819D01*
X71297619Y-39954819D02*
X71964285Y-39954819D01*
X71964285Y-39954819D02*
X71535714Y-40954819D01*
X94607142Y-63704819D02*
X94273809Y-63228628D01*
X94035714Y-63704819D02*
X94035714Y-62704819D01*
X94035714Y-62704819D02*
X94416666Y-62704819D01*
X94416666Y-62704819D02*
X94511904Y-62752438D01*
X94511904Y-62752438D02*
X94559523Y-62800057D01*
X94559523Y-62800057D02*
X94607142Y-62895295D01*
X94607142Y-62895295D02*
X94607142Y-63038152D01*
X94607142Y-63038152D02*
X94559523Y-63133390D01*
X94559523Y-63133390D02*
X94511904Y-63181009D01*
X94511904Y-63181009D02*
X94416666Y-63228628D01*
X94416666Y-63228628D02*
X94035714Y-63228628D01*
X95559523Y-63704819D02*
X94988095Y-63704819D01*
X95273809Y-63704819D02*
X95273809Y-62704819D01*
X95273809Y-62704819D02*
X95178571Y-62847676D01*
X95178571Y-62847676D02*
X95083333Y-62942914D01*
X95083333Y-62942914D02*
X94988095Y-62990533D01*
X96511904Y-63704819D02*
X95940476Y-63704819D01*
X96226190Y-63704819D02*
X96226190Y-62704819D01*
X96226190Y-62704819D02*
X96130952Y-62847676D01*
X96130952Y-62847676D02*
X96035714Y-62942914D01*
X96035714Y-62942914D02*
X95940476Y-62990533D01*
X61554819Y-40766666D02*
X61078628Y-41099999D01*
X61554819Y-41338094D02*
X60554819Y-41338094D01*
X60554819Y-41338094D02*
X60554819Y-40957142D01*
X60554819Y-40957142D02*
X60602438Y-40861904D01*
X60602438Y-40861904D02*
X60650057Y-40814285D01*
X60650057Y-40814285D02*
X60745295Y-40766666D01*
X60745295Y-40766666D02*
X60888152Y-40766666D01*
X60888152Y-40766666D02*
X60983390Y-40814285D01*
X60983390Y-40814285D02*
X61031009Y-40861904D01*
X61031009Y-40861904D02*
X61078628Y-40957142D01*
X61078628Y-40957142D02*
X61078628Y-41338094D01*
X61554819Y-40290475D02*
X61554819Y-40099999D01*
X61554819Y-40099999D02*
X61507200Y-40004761D01*
X61507200Y-40004761D02*
X61459580Y-39957142D01*
X61459580Y-39957142D02*
X61316723Y-39861904D01*
X61316723Y-39861904D02*
X61126247Y-39814285D01*
X61126247Y-39814285D02*
X60745295Y-39814285D01*
X60745295Y-39814285D02*
X60650057Y-39861904D01*
X60650057Y-39861904D02*
X60602438Y-39909523D01*
X60602438Y-39909523D02*
X60554819Y-40004761D01*
X60554819Y-40004761D02*
X60554819Y-40195237D01*
X60554819Y-40195237D02*
X60602438Y-40290475D01*
X60602438Y-40290475D02*
X60650057Y-40338094D01*
X60650057Y-40338094D02*
X60745295Y-40385713D01*
X60745295Y-40385713D02*
X60983390Y-40385713D01*
X60983390Y-40385713D02*
X61078628Y-40338094D01*
X61078628Y-40338094D02*
X61126247Y-40290475D01*
X61126247Y-40290475D02*
X61173866Y-40195237D01*
X61173866Y-40195237D02*
X61173866Y-40004761D01*
X61173866Y-40004761D02*
X61126247Y-39909523D01*
X61126247Y-39909523D02*
X61078628Y-39861904D01*
X61078628Y-39861904D02*
X60983390Y-39814285D01*
X59045833Y-77859580D02*
X58998214Y-77907200D01*
X58998214Y-77907200D02*
X58855357Y-77954819D01*
X58855357Y-77954819D02*
X58760119Y-77954819D01*
X58760119Y-77954819D02*
X58617262Y-77907200D01*
X58617262Y-77907200D02*
X58522024Y-77811961D01*
X58522024Y-77811961D02*
X58474405Y-77716723D01*
X58474405Y-77716723D02*
X58426786Y-77526247D01*
X58426786Y-77526247D02*
X58426786Y-77383390D01*
X58426786Y-77383390D02*
X58474405Y-77192914D01*
X58474405Y-77192914D02*
X58522024Y-77097676D01*
X58522024Y-77097676D02*
X58617262Y-77002438D01*
X58617262Y-77002438D02*
X58760119Y-76954819D01*
X58760119Y-76954819D02*
X58855357Y-76954819D01*
X58855357Y-76954819D02*
X58998214Y-77002438D01*
X58998214Y-77002438D02*
X59045833Y-77050057D01*
X59902976Y-76954819D02*
X59712500Y-76954819D01*
X59712500Y-76954819D02*
X59617262Y-77002438D01*
X59617262Y-77002438D02*
X59569643Y-77050057D01*
X59569643Y-77050057D02*
X59474405Y-77192914D01*
X59474405Y-77192914D02*
X59426786Y-77383390D01*
X59426786Y-77383390D02*
X59426786Y-77764342D01*
X59426786Y-77764342D02*
X59474405Y-77859580D01*
X59474405Y-77859580D02*
X59522024Y-77907200D01*
X59522024Y-77907200D02*
X59617262Y-77954819D01*
X59617262Y-77954819D02*
X59807738Y-77954819D01*
X59807738Y-77954819D02*
X59902976Y-77907200D01*
X59902976Y-77907200D02*
X59950595Y-77859580D01*
X59950595Y-77859580D02*
X59998214Y-77764342D01*
X59998214Y-77764342D02*
X59998214Y-77526247D01*
X59998214Y-77526247D02*
X59950595Y-77431009D01*
X59950595Y-77431009D02*
X59902976Y-77383390D01*
X59902976Y-77383390D02*
X59807738Y-77335771D01*
X59807738Y-77335771D02*
X59617262Y-77335771D01*
X59617262Y-77335771D02*
X59522024Y-77383390D01*
X59522024Y-77383390D02*
X59474405Y-77431009D01*
X59474405Y-77431009D02*
X59426786Y-77526247D01*
X57083333Y-75959580D02*
X57035714Y-76007200D01*
X57035714Y-76007200D02*
X56892857Y-76054819D01*
X56892857Y-76054819D02*
X56797619Y-76054819D01*
X56797619Y-76054819D02*
X56654762Y-76007200D01*
X56654762Y-76007200D02*
X56559524Y-75911961D01*
X56559524Y-75911961D02*
X56511905Y-75816723D01*
X56511905Y-75816723D02*
X56464286Y-75626247D01*
X56464286Y-75626247D02*
X56464286Y-75483390D01*
X56464286Y-75483390D02*
X56511905Y-75292914D01*
X56511905Y-75292914D02*
X56559524Y-75197676D01*
X56559524Y-75197676D02*
X56654762Y-75102438D01*
X56654762Y-75102438D02*
X56797619Y-75054819D01*
X56797619Y-75054819D02*
X56892857Y-75054819D01*
X56892857Y-75054819D02*
X57035714Y-75102438D01*
X57035714Y-75102438D02*
X57083333Y-75150057D01*
X57416667Y-75054819D02*
X58083333Y-75054819D01*
X58083333Y-75054819D02*
X57654762Y-76054819D01*
X71859580Y-56542857D02*
X71907200Y-56590476D01*
X71907200Y-56590476D02*
X71954819Y-56733333D01*
X71954819Y-56733333D02*
X71954819Y-56828571D01*
X71954819Y-56828571D02*
X71907200Y-56971428D01*
X71907200Y-56971428D02*
X71811961Y-57066666D01*
X71811961Y-57066666D02*
X71716723Y-57114285D01*
X71716723Y-57114285D02*
X71526247Y-57161904D01*
X71526247Y-57161904D02*
X71383390Y-57161904D01*
X71383390Y-57161904D02*
X71192914Y-57114285D01*
X71192914Y-57114285D02*
X71097676Y-57066666D01*
X71097676Y-57066666D02*
X71002438Y-56971428D01*
X71002438Y-56971428D02*
X70954819Y-56828571D01*
X70954819Y-56828571D02*
X70954819Y-56733333D01*
X70954819Y-56733333D02*
X71002438Y-56590476D01*
X71002438Y-56590476D02*
X71050057Y-56542857D01*
X70954819Y-56209523D02*
X70954819Y-55590476D01*
X70954819Y-55590476D02*
X71335771Y-55923809D01*
X71335771Y-55923809D02*
X71335771Y-55780952D01*
X71335771Y-55780952D02*
X71383390Y-55685714D01*
X71383390Y-55685714D02*
X71431009Y-55638095D01*
X71431009Y-55638095D02*
X71526247Y-55590476D01*
X71526247Y-55590476D02*
X71764342Y-55590476D01*
X71764342Y-55590476D02*
X71859580Y-55638095D01*
X71859580Y-55638095D02*
X71907200Y-55685714D01*
X71907200Y-55685714D02*
X71954819Y-55780952D01*
X71954819Y-55780952D02*
X71954819Y-56066666D01*
X71954819Y-56066666D02*
X71907200Y-56161904D01*
X71907200Y-56161904D02*
X71859580Y-56209523D01*
X71288152Y-54733333D02*
X71954819Y-54733333D01*
X70907200Y-54971428D02*
X71621485Y-55209523D01*
X71621485Y-55209523D02*
X71621485Y-54590476D01*
X57083333Y-58359580D02*
X57035714Y-58407200D01*
X57035714Y-58407200D02*
X56892857Y-58454819D01*
X56892857Y-58454819D02*
X56797619Y-58454819D01*
X56797619Y-58454819D02*
X56654762Y-58407200D01*
X56654762Y-58407200D02*
X56559524Y-58311961D01*
X56559524Y-58311961D02*
X56511905Y-58216723D01*
X56511905Y-58216723D02*
X56464286Y-58026247D01*
X56464286Y-58026247D02*
X56464286Y-57883390D01*
X56464286Y-57883390D02*
X56511905Y-57692914D01*
X56511905Y-57692914D02*
X56559524Y-57597676D01*
X56559524Y-57597676D02*
X56654762Y-57502438D01*
X56654762Y-57502438D02*
X56797619Y-57454819D01*
X56797619Y-57454819D02*
X56892857Y-57454819D01*
X56892857Y-57454819D02*
X57035714Y-57502438D01*
X57035714Y-57502438D02*
X57083333Y-57550057D01*
X57988095Y-57454819D02*
X57511905Y-57454819D01*
X57511905Y-57454819D02*
X57464286Y-57931009D01*
X57464286Y-57931009D02*
X57511905Y-57883390D01*
X57511905Y-57883390D02*
X57607143Y-57835771D01*
X57607143Y-57835771D02*
X57845238Y-57835771D01*
X57845238Y-57835771D02*
X57940476Y-57883390D01*
X57940476Y-57883390D02*
X57988095Y-57931009D01*
X57988095Y-57931009D02*
X58035714Y-58026247D01*
X58035714Y-58026247D02*
X58035714Y-58264342D01*
X58035714Y-58264342D02*
X57988095Y-58359580D01*
X57988095Y-58359580D02*
X57940476Y-58407200D01*
X57940476Y-58407200D02*
X57845238Y-58454819D01*
X57845238Y-58454819D02*
X57607143Y-58454819D01*
X57607143Y-58454819D02*
X57511905Y-58407200D01*
X57511905Y-58407200D02*
X57464286Y-58359580D01*
X58314819Y-39600357D02*
X57838628Y-39933690D01*
X58314819Y-40171785D02*
X57314819Y-40171785D01*
X57314819Y-40171785D02*
X57314819Y-39790833D01*
X57314819Y-39790833D02*
X57362438Y-39695595D01*
X57362438Y-39695595D02*
X57410057Y-39647976D01*
X57410057Y-39647976D02*
X57505295Y-39600357D01*
X57505295Y-39600357D02*
X57648152Y-39600357D01*
X57648152Y-39600357D02*
X57743390Y-39647976D01*
X57743390Y-39647976D02*
X57791009Y-39695595D01*
X57791009Y-39695595D02*
X57838628Y-39790833D01*
X57838628Y-39790833D02*
X57838628Y-40171785D01*
X58314819Y-38647976D02*
X58314819Y-39219404D01*
X58314819Y-38933690D02*
X57314819Y-38933690D01*
X57314819Y-38933690D02*
X57457676Y-39028928D01*
X57457676Y-39028928D02*
X57552914Y-39124166D01*
X57552914Y-39124166D02*
X57600533Y-39219404D01*
X57648152Y-37790833D02*
X58314819Y-37790833D01*
X57267200Y-38028928D02*
X57981485Y-38267023D01*
X57981485Y-38267023D02*
X57981485Y-37647976D01*
X64607142Y-51304819D02*
X64273809Y-50828628D01*
X64035714Y-51304819D02*
X64035714Y-50304819D01*
X64035714Y-50304819D02*
X64416666Y-50304819D01*
X64416666Y-50304819D02*
X64511904Y-50352438D01*
X64511904Y-50352438D02*
X64559523Y-50400057D01*
X64559523Y-50400057D02*
X64607142Y-50495295D01*
X64607142Y-50495295D02*
X64607142Y-50638152D01*
X64607142Y-50638152D02*
X64559523Y-50733390D01*
X64559523Y-50733390D02*
X64511904Y-50781009D01*
X64511904Y-50781009D02*
X64416666Y-50828628D01*
X64416666Y-50828628D02*
X64035714Y-50828628D01*
X65559523Y-51304819D02*
X64988095Y-51304819D01*
X65273809Y-51304819D02*
X65273809Y-50304819D01*
X65273809Y-50304819D02*
X65178571Y-50447676D01*
X65178571Y-50447676D02*
X65083333Y-50542914D01*
X65083333Y-50542914D02*
X64988095Y-50590533D01*
X66416666Y-50304819D02*
X66226190Y-50304819D01*
X66226190Y-50304819D02*
X66130952Y-50352438D01*
X66130952Y-50352438D02*
X66083333Y-50400057D01*
X66083333Y-50400057D02*
X65988095Y-50542914D01*
X65988095Y-50542914D02*
X65940476Y-50733390D01*
X65940476Y-50733390D02*
X65940476Y-51114342D01*
X65940476Y-51114342D02*
X65988095Y-51209580D01*
X65988095Y-51209580D02*
X66035714Y-51257200D01*
X66035714Y-51257200D02*
X66130952Y-51304819D01*
X66130952Y-51304819D02*
X66321428Y-51304819D01*
X66321428Y-51304819D02*
X66416666Y-51257200D01*
X66416666Y-51257200D02*
X66464285Y-51209580D01*
X66464285Y-51209580D02*
X66511904Y-51114342D01*
X66511904Y-51114342D02*
X66511904Y-50876247D01*
X66511904Y-50876247D02*
X66464285Y-50781009D01*
X66464285Y-50781009D02*
X66416666Y-50733390D01*
X66416666Y-50733390D02*
X66321428Y-50685771D01*
X66321428Y-50685771D02*
X66130952Y-50685771D01*
X66130952Y-50685771D02*
X66035714Y-50733390D01*
X66035714Y-50733390D02*
X65988095Y-50781009D01*
X65988095Y-50781009D02*
X65940476Y-50876247D01*
X61307845Y-78674820D02*
X61307845Y-79484343D01*
X61307845Y-79484343D02*
X61355464Y-79579581D01*
X61355464Y-79579581D02*
X61403083Y-79627201D01*
X61403083Y-79627201D02*
X61498321Y-79674820D01*
X61498321Y-79674820D02*
X61688797Y-79674820D01*
X61688797Y-79674820D02*
X61784035Y-79627201D01*
X61784035Y-79627201D02*
X61831654Y-79579581D01*
X61831654Y-79579581D02*
X61879273Y-79484343D01*
X61879273Y-79484343D02*
X61879273Y-78674820D01*
X62784035Y-78674820D02*
X62593559Y-78674820D01*
X62593559Y-78674820D02*
X62498321Y-78722439D01*
X62498321Y-78722439D02*
X62450702Y-78770058D01*
X62450702Y-78770058D02*
X62355464Y-78912915D01*
X62355464Y-78912915D02*
X62307845Y-79103391D01*
X62307845Y-79103391D02*
X62307845Y-79484343D01*
X62307845Y-79484343D02*
X62355464Y-79579581D01*
X62355464Y-79579581D02*
X62403083Y-79627201D01*
X62403083Y-79627201D02*
X62498321Y-79674820D01*
X62498321Y-79674820D02*
X62688797Y-79674820D01*
X62688797Y-79674820D02*
X62784035Y-79627201D01*
X62784035Y-79627201D02*
X62831654Y-79579581D01*
X62831654Y-79579581D02*
X62879273Y-79484343D01*
X62879273Y-79484343D02*
X62879273Y-79246248D01*
X62879273Y-79246248D02*
X62831654Y-79151010D01*
X62831654Y-79151010D02*
X62784035Y-79103391D01*
X62784035Y-79103391D02*
X62688797Y-79055772D01*
X62688797Y-79055772D02*
X62498321Y-79055772D01*
X62498321Y-79055772D02*
X62403083Y-79103391D01*
X62403083Y-79103391D02*
X62355464Y-79151010D01*
X62355464Y-79151010D02*
X62307845Y-79246248D01*
X60703000Y-76161320D02*
X60703000Y-76399415D01*
X60464905Y-76304177D02*
X60703000Y-76399415D01*
X60703000Y-76399415D02*
X60941095Y-76304177D01*
X60560143Y-76589891D02*
X60703000Y-76399415D01*
X60703000Y-76399415D02*
X60845857Y-76589891D01*
X60703000Y-76161320D02*
X60703000Y-76399415D01*
X60464905Y-76304177D02*
X60703000Y-76399415D01*
X60703000Y-76399415D02*
X60941095Y-76304177D01*
X60560143Y-76589891D02*
X60703000Y-76399415D01*
X60703000Y-76399415D02*
X60845857Y-76589891D01*
X48357142Y-41959580D02*
X48309523Y-42007200D01*
X48309523Y-42007200D02*
X48166666Y-42054819D01*
X48166666Y-42054819D02*
X48071428Y-42054819D01*
X48071428Y-42054819D02*
X47928571Y-42007200D01*
X47928571Y-42007200D02*
X47833333Y-41911961D01*
X47833333Y-41911961D02*
X47785714Y-41816723D01*
X47785714Y-41816723D02*
X47738095Y-41626247D01*
X47738095Y-41626247D02*
X47738095Y-41483390D01*
X47738095Y-41483390D02*
X47785714Y-41292914D01*
X47785714Y-41292914D02*
X47833333Y-41197676D01*
X47833333Y-41197676D02*
X47928571Y-41102438D01*
X47928571Y-41102438D02*
X48071428Y-41054819D01*
X48071428Y-41054819D02*
X48166666Y-41054819D01*
X48166666Y-41054819D02*
X48309523Y-41102438D01*
X48309523Y-41102438D02*
X48357142Y-41150057D01*
X48738095Y-41150057D02*
X48785714Y-41102438D01*
X48785714Y-41102438D02*
X48880952Y-41054819D01*
X48880952Y-41054819D02*
X49119047Y-41054819D01*
X49119047Y-41054819D02*
X49214285Y-41102438D01*
X49214285Y-41102438D02*
X49261904Y-41150057D01*
X49261904Y-41150057D02*
X49309523Y-41245295D01*
X49309523Y-41245295D02*
X49309523Y-41340533D01*
X49309523Y-41340533D02*
X49261904Y-41483390D01*
X49261904Y-41483390D02*
X48690476Y-42054819D01*
X48690476Y-42054819D02*
X49309523Y-42054819D01*
X50166666Y-41054819D02*
X49976190Y-41054819D01*
X49976190Y-41054819D02*
X49880952Y-41102438D01*
X49880952Y-41102438D02*
X49833333Y-41150057D01*
X49833333Y-41150057D02*
X49738095Y-41292914D01*
X49738095Y-41292914D02*
X49690476Y-41483390D01*
X49690476Y-41483390D02*
X49690476Y-41864342D01*
X49690476Y-41864342D02*
X49738095Y-41959580D01*
X49738095Y-41959580D02*
X49785714Y-42007200D01*
X49785714Y-42007200D02*
X49880952Y-42054819D01*
X49880952Y-42054819D02*
X50071428Y-42054819D01*
X50071428Y-42054819D02*
X50166666Y-42007200D01*
X50166666Y-42007200D02*
X50214285Y-41959580D01*
X50214285Y-41959580D02*
X50261904Y-41864342D01*
X50261904Y-41864342D02*
X50261904Y-41626247D01*
X50261904Y-41626247D02*
X50214285Y-41531009D01*
X50214285Y-41531009D02*
X50166666Y-41483390D01*
X50166666Y-41483390D02*
X50071428Y-41435771D01*
X50071428Y-41435771D02*
X49880952Y-41435771D01*
X49880952Y-41435771D02*
X49785714Y-41483390D01*
X49785714Y-41483390D02*
X49738095Y-41531009D01*
X49738095Y-41531009D02*
X49690476Y-41626247D01*
X52983333Y-75859580D02*
X52935714Y-75907200D01*
X52935714Y-75907200D02*
X52792857Y-75954819D01*
X52792857Y-75954819D02*
X52697619Y-75954819D01*
X52697619Y-75954819D02*
X52554762Y-75907200D01*
X52554762Y-75907200D02*
X52459524Y-75811961D01*
X52459524Y-75811961D02*
X52411905Y-75716723D01*
X52411905Y-75716723D02*
X52364286Y-75526247D01*
X52364286Y-75526247D02*
X52364286Y-75383390D01*
X52364286Y-75383390D02*
X52411905Y-75192914D01*
X52411905Y-75192914D02*
X52459524Y-75097676D01*
X52459524Y-75097676D02*
X52554762Y-75002438D01*
X52554762Y-75002438D02*
X52697619Y-74954819D01*
X52697619Y-74954819D02*
X52792857Y-74954819D01*
X52792857Y-74954819D02*
X52935714Y-75002438D01*
X52935714Y-75002438D02*
X52983333Y-75050057D01*
X53364286Y-75050057D02*
X53411905Y-75002438D01*
X53411905Y-75002438D02*
X53507143Y-74954819D01*
X53507143Y-74954819D02*
X53745238Y-74954819D01*
X53745238Y-74954819D02*
X53840476Y-75002438D01*
X53840476Y-75002438D02*
X53888095Y-75050057D01*
X53888095Y-75050057D02*
X53935714Y-75145295D01*
X53935714Y-75145295D02*
X53935714Y-75240533D01*
X53935714Y-75240533D02*
X53888095Y-75383390D01*
X53888095Y-75383390D02*
X53316667Y-75954819D01*
X53316667Y-75954819D02*
X53935714Y-75954819D01*
X50459580Y-44242857D02*
X50507200Y-44290476D01*
X50507200Y-44290476D02*
X50554819Y-44433333D01*
X50554819Y-44433333D02*
X50554819Y-44528571D01*
X50554819Y-44528571D02*
X50507200Y-44671428D01*
X50507200Y-44671428D02*
X50411961Y-44766666D01*
X50411961Y-44766666D02*
X50316723Y-44814285D01*
X50316723Y-44814285D02*
X50126247Y-44861904D01*
X50126247Y-44861904D02*
X49983390Y-44861904D01*
X49983390Y-44861904D02*
X49792914Y-44814285D01*
X49792914Y-44814285D02*
X49697676Y-44766666D01*
X49697676Y-44766666D02*
X49602438Y-44671428D01*
X49602438Y-44671428D02*
X49554819Y-44528571D01*
X49554819Y-44528571D02*
X49554819Y-44433333D01*
X49554819Y-44433333D02*
X49602438Y-44290476D01*
X49602438Y-44290476D02*
X49650057Y-44242857D01*
X49650057Y-43861904D02*
X49602438Y-43814285D01*
X49602438Y-43814285D02*
X49554819Y-43719047D01*
X49554819Y-43719047D02*
X49554819Y-43480952D01*
X49554819Y-43480952D02*
X49602438Y-43385714D01*
X49602438Y-43385714D02*
X49650057Y-43338095D01*
X49650057Y-43338095D02*
X49745295Y-43290476D01*
X49745295Y-43290476D02*
X49840533Y-43290476D01*
X49840533Y-43290476D02*
X49983390Y-43338095D01*
X49983390Y-43338095D02*
X50554819Y-43909523D01*
X50554819Y-43909523D02*
X50554819Y-43290476D01*
X50554819Y-42814285D02*
X50554819Y-42623809D01*
X50554819Y-42623809D02*
X50507200Y-42528571D01*
X50507200Y-42528571D02*
X50459580Y-42480952D01*
X50459580Y-42480952D02*
X50316723Y-42385714D01*
X50316723Y-42385714D02*
X50126247Y-42338095D01*
X50126247Y-42338095D02*
X49745295Y-42338095D01*
X49745295Y-42338095D02*
X49650057Y-42385714D01*
X49650057Y-42385714D02*
X49602438Y-42433333D01*
X49602438Y-42433333D02*
X49554819Y-42528571D01*
X49554819Y-42528571D02*
X49554819Y-42719047D01*
X49554819Y-42719047D02*
X49602438Y-42814285D01*
X49602438Y-42814285D02*
X49650057Y-42861904D01*
X49650057Y-42861904D02*
X49745295Y-42909523D01*
X49745295Y-42909523D02*
X49983390Y-42909523D01*
X49983390Y-42909523D02*
X50078628Y-42861904D01*
X50078628Y-42861904D02*
X50126247Y-42814285D01*
X50126247Y-42814285D02*
X50173866Y-42719047D01*
X50173866Y-42719047D02*
X50173866Y-42528571D01*
X50173866Y-42528571D02*
X50126247Y-42433333D01*
X50126247Y-42433333D02*
X50078628Y-42385714D01*
X50078628Y-42385714D02*
X49983390Y-42338095D01*
X56211905Y-86304819D02*
X56211905Y-85304819D01*
X56211905Y-85304819D02*
X56450000Y-85304819D01*
X56450000Y-85304819D02*
X56592857Y-85352438D01*
X56592857Y-85352438D02*
X56688095Y-85447676D01*
X56688095Y-85447676D02*
X56735714Y-85542914D01*
X56735714Y-85542914D02*
X56783333Y-85733390D01*
X56783333Y-85733390D02*
X56783333Y-85876247D01*
X56783333Y-85876247D02*
X56735714Y-86066723D01*
X56735714Y-86066723D02*
X56688095Y-86161961D01*
X56688095Y-86161961D02*
X56592857Y-86257200D01*
X56592857Y-86257200D02*
X56450000Y-86304819D01*
X56450000Y-86304819D02*
X56211905Y-86304819D01*
X57640476Y-85638152D02*
X57640476Y-86304819D01*
X57402381Y-85257200D02*
X57164286Y-85971485D01*
X57164286Y-85971485D02*
X57783333Y-85971485D01*
X72659580Y-86792857D02*
X72707200Y-86840476D01*
X72707200Y-86840476D02*
X72754819Y-86983333D01*
X72754819Y-86983333D02*
X72754819Y-87078571D01*
X72754819Y-87078571D02*
X72707200Y-87221428D01*
X72707200Y-87221428D02*
X72611961Y-87316666D01*
X72611961Y-87316666D02*
X72516723Y-87364285D01*
X72516723Y-87364285D02*
X72326247Y-87411904D01*
X72326247Y-87411904D02*
X72183390Y-87411904D01*
X72183390Y-87411904D02*
X71992914Y-87364285D01*
X71992914Y-87364285D02*
X71897676Y-87316666D01*
X71897676Y-87316666D02*
X71802438Y-87221428D01*
X71802438Y-87221428D02*
X71754819Y-87078571D01*
X71754819Y-87078571D02*
X71754819Y-86983333D01*
X71754819Y-86983333D02*
X71802438Y-86840476D01*
X71802438Y-86840476D02*
X71850057Y-86792857D01*
X71850057Y-86411904D02*
X71802438Y-86364285D01*
X71802438Y-86364285D02*
X71754819Y-86269047D01*
X71754819Y-86269047D02*
X71754819Y-86030952D01*
X71754819Y-86030952D02*
X71802438Y-85935714D01*
X71802438Y-85935714D02*
X71850057Y-85888095D01*
X71850057Y-85888095D02*
X71945295Y-85840476D01*
X71945295Y-85840476D02*
X72040533Y-85840476D01*
X72040533Y-85840476D02*
X72183390Y-85888095D01*
X72183390Y-85888095D02*
X72754819Y-86459523D01*
X72754819Y-86459523D02*
X72754819Y-85840476D01*
X71754819Y-84935714D02*
X71754819Y-85411904D01*
X71754819Y-85411904D02*
X72231009Y-85459523D01*
X72231009Y-85459523D02*
X72183390Y-85411904D01*
X72183390Y-85411904D02*
X72135771Y-85316666D01*
X72135771Y-85316666D02*
X72135771Y-85078571D01*
X72135771Y-85078571D02*
X72183390Y-84983333D01*
X72183390Y-84983333D02*
X72231009Y-84935714D01*
X72231009Y-84935714D02*
X72326247Y-84888095D01*
X72326247Y-84888095D02*
X72564342Y-84888095D01*
X72564342Y-84888095D02*
X72659580Y-84935714D01*
X72659580Y-84935714D02*
X72707200Y-84983333D01*
X72707200Y-84983333D02*
X72754819Y-85078571D01*
X72754819Y-85078571D02*
X72754819Y-85316666D01*
X72754819Y-85316666D02*
X72707200Y-85411904D01*
X72707200Y-85411904D02*
X72659580Y-85459523D01*
X49954819Y-68488094D02*
X48954819Y-68488094D01*
X48954819Y-68488094D02*
X48954819Y-68249999D01*
X48954819Y-68249999D02*
X49002438Y-68107142D01*
X49002438Y-68107142D02*
X49097676Y-68011904D01*
X49097676Y-68011904D02*
X49192914Y-67964285D01*
X49192914Y-67964285D02*
X49383390Y-67916666D01*
X49383390Y-67916666D02*
X49526247Y-67916666D01*
X49526247Y-67916666D02*
X49716723Y-67964285D01*
X49716723Y-67964285D02*
X49811961Y-68011904D01*
X49811961Y-68011904D02*
X49907200Y-68107142D01*
X49907200Y-68107142D02*
X49954819Y-68249999D01*
X49954819Y-68249999D02*
X49954819Y-68488094D01*
X48954819Y-67011904D02*
X48954819Y-67488094D01*
X48954819Y-67488094D02*
X49431009Y-67535713D01*
X49431009Y-67535713D02*
X49383390Y-67488094D01*
X49383390Y-67488094D02*
X49335771Y-67392856D01*
X49335771Y-67392856D02*
X49335771Y-67154761D01*
X49335771Y-67154761D02*
X49383390Y-67059523D01*
X49383390Y-67059523D02*
X49431009Y-67011904D01*
X49431009Y-67011904D02*
X49526247Y-66964285D01*
X49526247Y-66964285D02*
X49764342Y-66964285D01*
X49764342Y-66964285D02*
X49859580Y-67011904D01*
X49859580Y-67011904D02*
X49907200Y-67059523D01*
X49907200Y-67059523D02*
X49954819Y-67154761D01*
X49954819Y-67154761D02*
X49954819Y-67392856D01*
X49954819Y-67392856D02*
X49907200Y-67488094D01*
X49907200Y-67488094D02*
X49859580Y-67535713D01*
X56033333Y-81709580D02*
X55985714Y-81757200D01*
X55985714Y-81757200D02*
X55842857Y-81804819D01*
X55842857Y-81804819D02*
X55747619Y-81804819D01*
X55747619Y-81804819D02*
X55604762Y-81757200D01*
X55604762Y-81757200D02*
X55509524Y-81661961D01*
X55509524Y-81661961D02*
X55461905Y-81566723D01*
X55461905Y-81566723D02*
X55414286Y-81376247D01*
X55414286Y-81376247D02*
X55414286Y-81233390D01*
X55414286Y-81233390D02*
X55461905Y-81042914D01*
X55461905Y-81042914D02*
X55509524Y-80947676D01*
X55509524Y-80947676D02*
X55604762Y-80852438D01*
X55604762Y-80852438D02*
X55747619Y-80804819D01*
X55747619Y-80804819D02*
X55842857Y-80804819D01*
X55842857Y-80804819D02*
X55985714Y-80852438D01*
X55985714Y-80852438D02*
X56033333Y-80900057D01*
X56366667Y-80804819D02*
X56985714Y-80804819D01*
X56985714Y-80804819D02*
X56652381Y-81185771D01*
X56652381Y-81185771D02*
X56795238Y-81185771D01*
X56795238Y-81185771D02*
X56890476Y-81233390D01*
X56890476Y-81233390D02*
X56938095Y-81281009D01*
X56938095Y-81281009D02*
X56985714Y-81376247D01*
X56985714Y-81376247D02*
X56985714Y-81614342D01*
X56985714Y-81614342D02*
X56938095Y-81709580D01*
X56938095Y-81709580D02*
X56890476Y-81757200D01*
X56890476Y-81757200D02*
X56795238Y-81804819D01*
X56795238Y-81804819D02*
X56509524Y-81804819D01*
X56509524Y-81804819D02*
X56414286Y-81757200D01*
X56414286Y-81757200D02*
X56366667Y-81709580D01*
X82773595Y-21654819D02*
X82773595Y-20654819D01*
X82773595Y-21131009D02*
X83345023Y-21131009D01*
X83345023Y-21654819D02*
X83345023Y-20654819D01*
X83773595Y-20750057D02*
X83821214Y-20702438D01*
X83821214Y-20702438D02*
X83916452Y-20654819D01*
X83916452Y-20654819D02*
X84154547Y-20654819D01*
X84154547Y-20654819D02*
X84249785Y-20702438D01*
X84249785Y-20702438D02*
X84297404Y-20750057D01*
X84297404Y-20750057D02*
X84345023Y-20845295D01*
X84345023Y-20845295D02*
X84345023Y-20940533D01*
X84345023Y-20940533D02*
X84297404Y-21083390D01*
X84297404Y-21083390D02*
X83725976Y-21654819D01*
X83725976Y-21654819D02*
X84345023Y-21654819D01*
X58857142Y-85659580D02*
X58809523Y-85707200D01*
X58809523Y-85707200D02*
X58666666Y-85754819D01*
X58666666Y-85754819D02*
X58571428Y-85754819D01*
X58571428Y-85754819D02*
X58428571Y-85707200D01*
X58428571Y-85707200D02*
X58333333Y-85611961D01*
X58333333Y-85611961D02*
X58285714Y-85516723D01*
X58285714Y-85516723D02*
X58238095Y-85326247D01*
X58238095Y-85326247D02*
X58238095Y-85183390D01*
X58238095Y-85183390D02*
X58285714Y-84992914D01*
X58285714Y-84992914D02*
X58333333Y-84897676D01*
X58333333Y-84897676D02*
X58428571Y-84802438D01*
X58428571Y-84802438D02*
X58571428Y-84754819D01*
X58571428Y-84754819D02*
X58666666Y-84754819D01*
X58666666Y-84754819D02*
X58809523Y-84802438D01*
X58809523Y-84802438D02*
X58857142Y-84850057D01*
X59238095Y-84850057D02*
X59285714Y-84802438D01*
X59285714Y-84802438D02*
X59380952Y-84754819D01*
X59380952Y-84754819D02*
X59619047Y-84754819D01*
X59619047Y-84754819D02*
X59714285Y-84802438D01*
X59714285Y-84802438D02*
X59761904Y-84850057D01*
X59761904Y-84850057D02*
X59809523Y-84945295D01*
X59809523Y-84945295D02*
X59809523Y-85040533D01*
X59809523Y-85040533D02*
X59761904Y-85183390D01*
X59761904Y-85183390D02*
X59190476Y-85754819D01*
X59190476Y-85754819D02*
X59809523Y-85754819D01*
X60190476Y-84850057D02*
X60238095Y-84802438D01*
X60238095Y-84802438D02*
X60333333Y-84754819D01*
X60333333Y-84754819D02*
X60571428Y-84754819D01*
X60571428Y-84754819D02*
X60666666Y-84802438D01*
X60666666Y-84802438D02*
X60714285Y-84850057D01*
X60714285Y-84850057D02*
X60761904Y-84945295D01*
X60761904Y-84945295D02*
X60761904Y-85040533D01*
X60761904Y-85040533D02*
X60714285Y-85183390D01*
X60714285Y-85183390D02*
X60142857Y-85754819D01*
X60142857Y-85754819D02*
X60761904Y-85754819D01*
X59404819Y-43742857D02*
X58928628Y-44076190D01*
X59404819Y-44314285D02*
X58404819Y-44314285D01*
X58404819Y-44314285D02*
X58404819Y-43933333D01*
X58404819Y-43933333D02*
X58452438Y-43838095D01*
X58452438Y-43838095D02*
X58500057Y-43790476D01*
X58500057Y-43790476D02*
X58595295Y-43742857D01*
X58595295Y-43742857D02*
X58738152Y-43742857D01*
X58738152Y-43742857D02*
X58833390Y-43790476D01*
X58833390Y-43790476D02*
X58881009Y-43838095D01*
X58881009Y-43838095D02*
X58928628Y-43933333D01*
X58928628Y-43933333D02*
X58928628Y-44314285D01*
X59404819Y-42790476D02*
X59404819Y-43361904D01*
X59404819Y-43076190D02*
X58404819Y-43076190D01*
X58404819Y-43076190D02*
X58547676Y-43171428D01*
X58547676Y-43171428D02*
X58642914Y-43266666D01*
X58642914Y-43266666D02*
X58690533Y-43361904D01*
X58404819Y-42457142D02*
X58404819Y-41838095D01*
X58404819Y-41838095D02*
X58785771Y-42171428D01*
X58785771Y-42171428D02*
X58785771Y-42028571D01*
X58785771Y-42028571D02*
X58833390Y-41933333D01*
X58833390Y-41933333D02*
X58881009Y-41885714D01*
X58881009Y-41885714D02*
X58976247Y-41838095D01*
X58976247Y-41838095D02*
X59214342Y-41838095D01*
X59214342Y-41838095D02*
X59309580Y-41885714D01*
X59309580Y-41885714D02*
X59357200Y-41933333D01*
X59357200Y-41933333D02*
X59404819Y-42028571D01*
X59404819Y-42028571D02*
X59404819Y-42314285D01*
X59404819Y-42314285D02*
X59357200Y-42409523D01*
X59357200Y-42409523D02*
X59309580Y-42457142D01*
X58166666Y-86304819D02*
X58166666Y-87019104D01*
X58166666Y-87019104D02*
X58119047Y-87161961D01*
X58119047Y-87161961D02*
X58023809Y-87257200D01*
X58023809Y-87257200D02*
X57880952Y-87304819D01*
X57880952Y-87304819D02*
X57785714Y-87304819D01*
X58595238Y-86400057D02*
X58642857Y-86352438D01*
X58642857Y-86352438D02*
X58738095Y-86304819D01*
X58738095Y-86304819D02*
X58976190Y-86304819D01*
X58976190Y-86304819D02*
X59071428Y-86352438D01*
X59071428Y-86352438D02*
X59119047Y-86400057D01*
X59119047Y-86400057D02*
X59166666Y-86495295D01*
X59166666Y-86495295D02*
X59166666Y-86590533D01*
X59166666Y-86590533D02*
X59119047Y-86733390D01*
X59119047Y-86733390D02*
X58547619Y-87304819D01*
X58547619Y-87304819D02*
X59166666Y-87304819D01*
X77716666Y-44704819D02*
X77716666Y-45419104D01*
X77716666Y-45419104D02*
X77669047Y-45561961D01*
X77669047Y-45561961D02*
X77573809Y-45657200D01*
X77573809Y-45657200D02*
X77430952Y-45704819D01*
X77430952Y-45704819D02*
X77335714Y-45704819D01*
X78335714Y-45133390D02*
X78240476Y-45085771D01*
X78240476Y-45085771D02*
X78192857Y-45038152D01*
X78192857Y-45038152D02*
X78145238Y-44942914D01*
X78145238Y-44942914D02*
X78145238Y-44895295D01*
X78145238Y-44895295D02*
X78192857Y-44800057D01*
X78192857Y-44800057D02*
X78240476Y-44752438D01*
X78240476Y-44752438D02*
X78335714Y-44704819D01*
X78335714Y-44704819D02*
X78526190Y-44704819D01*
X78526190Y-44704819D02*
X78621428Y-44752438D01*
X78621428Y-44752438D02*
X78669047Y-44800057D01*
X78669047Y-44800057D02*
X78716666Y-44895295D01*
X78716666Y-44895295D02*
X78716666Y-44942914D01*
X78716666Y-44942914D02*
X78669047Y-45038152D01*
X78669047Y-45038152D02*
X78621428Y-45085771D01*
X78621428Y-45085771D02*
X78526190Y-45133390D01*
X78526190Y-45133390D02*
X78335714Y-45133390D01*
X78335714Y-45133390D02*
X78240476Y-45181009D01*
X78240476Y-45181009D02*
X78192857Y-45228628D01*
X78192857Y-45228628D02*
X78145238Y-45323866D01*
X78145238Y-45323866D02*
X78145238Y-45514342D01*
X78145238Y-45514342D02*
X78192857Y-45609580D01*
X78192857Y-45609580D02*
X78240476Y-45657200D01*
X78240476Y-45657200D02*
X78335714Y-45704819D01*
X78335714Y-45704819D02*
X78526190Y-45704819D01*
X78526190Y-45704819D02*
X78621428Y-45657200D01*
X78621428Y-45657200D02*
X78669047Y-45609580D01*
X78669047Y-45609580D02*
X78716666Y-45514342D01*
X78716666Y-45514342D02*
X78716666Y-45323866D01*
X78716666Y-45323866D02*
X78669047Y-45228628D01*
X78669047Y-45228628D02*
X78621428Y-45181009D01*
X78621428Y-45181009D02*
X78526190Y-45133390D01*
X80730952Y-52781009D02*
X80873809Y-52828628D01*
X80873809Y-52828628D02*
X80921428Y-52876247D01*
X80921428Y-52876247D02*
X80969047Y-52971485D01*
X80969047Y-52971485D02*
X80969047Y-53114342D01*
X80969047Y-53114342D02*
X80921428Y-53209580D01*
X80921428Y-53209580D02*
X80873809Y-53257200D01*
X80873809Y-53257200D02*
X80778571Y-53304819D01*
X80778571Y-53304819D02*
X80397619Y-53304819D01*
X80397619Y-53304819D02*
X80397619Y-52304819D01*
X80397619Y-52304819D02*
X80730952Y-52304819D01*
X80730952Y-52304819D02*
X80826190Y-52352438D01*
X80826190Y-52352438D02*
X80873809Y-52400057D01*
X80873809Y-52400057D02*
X80921428Y-52495295D01*
X80921428Y-52495295D02*
X80921428Y-52590533D01*
X80921428Y-52590533D02*
X80873809Y-52685771D01*
X80873809Y-52685771D02*
X80826190Y-52733390D01*
X80826190Y-52733390D02*
X80730952Y-52781009D01*
X80730952Y-52781009D02*
X80397619Y-52781009D01*
X81254762Y-52304819D02*
X81826190Y-52304819D01*
X81540476Y-53304819D02*
X81540476Y-52304819D01*
X82111905Y-53257200D02*
X82254762Y-53304819D01*
X82254762Y-53304819D02*
X82492857Y-53304819D01*
X82492857Y-53304819D02*
X82588095Y-53257200D01*
X82588095Y-53257200D02*
X82635714Y-53209580D01*
X82635714Y-53209580D02*
X82683333Y-53114342D01*
X82683333Y-53114342D02*
X82683333Y-53019104D01*
X82683333Y-53019104D02*
X82635714Y-52923866D01*
X82635714Y-52923866D02*
X82588095Y-52876247D01*
X82588095Y-52876247D02*
X82492857Y-52828628D01*
X82492857Y-52828628D02*
X82302381Y-52781009D01*
X82302381Y-52781009D02*
X82207143Y-52733390D01*
X82207143Y-52733390D02*
X82159524Y-52685771D01*
X82159524Y-52685771D02*
X82111905Y-52590533D01*
X82111905Y-52590533D02*
X82111905Y-52495295D01*
X82111905Y-52495295D02*
X82159524Y-52400057D01*
X82159524Y-52400057D02*
X82207143Y-52352438D01*
X82207143Y-52352438D02*
X82302381Y-52304819D01*
X82302381Y-52304819D02*
X82540476Y-52304819D01*
X82540476Y-52304819D02*
X82683333Y-52352438D01*
X83111905Y-52781009D02*
X83445238Y-52781009D01*
X83588095Y-53304819D02*
X83111905Y-53304819D01*
X83111905Y-53304819D02*
X83111905Y-52304819D01*
X83111905Y-52304819D02*
X83588095Y-52304819D01*
X84492857Y-53304819D02*
X84016667Y-53304819D01*
X84016667Y-53304819D02*
X84016667Y-52304819D01*
X84778572Y-52400057D02*
X84826191Y-52352438D01*
X84826191Y-52352438D02*
X84921429Y-52304819D01*
X84921429Y-52304819D02*
X85159524Y-52304819D01*
X85159524Y-52304819D02*
X85254762Y-52352438D01*
X85254762Y-52352438D02*
X85302381Y-52400057D01*
X85302381Y-52400057D02*
X85350000Y-52495295D01*
X85350000Y-52495295D02*
X85350000Y-52590533D01*
X85350000Y-52590533D02*
X85302381Y-52733390D01*
X85302381Y-52733390D02*
X84730953Y-53304819D01*
X84730953Y-53304819D02*
X85350000Y-53304819D01*
X49954819Y-86292857D02*
X49478628Y-86626190D01*
X49954819Y-86864285D02*
X48954819Y-86864285D01*
X48954819Y-86864285D02*
X48954819Y-86483333D01*
X48954819Y-86483333D02*
X49002438Y-86388095D01*
X49002438Y-86388095D02*
X49050057Y-86340476D01*
X49050057Y-86340476D02*
X49145295Y-86292857D01*
X49145295Y-86292857D02*
X49288152Y-86292857D01*
X49288152Y-86292857D02*
X49383390Y-86340476D01*
X49383390Y-86340476D02*
X49431009Y-86388095D01*
X49431009Y-86388095D02*
X49478628Y-86483333D01*
X49478628Y-86483333D02*
X49478628Y-86864285D01*
X49954819Y-85340476D02*
X49954819Y-85911904D01*
X49954819Y-85626190D02*
X48954819Y-85626190D01*
X48954819Y-85626190D02*
X49097676Y-85721428D01*
X49097676Y-85721428D02*
X49192914Y-85816666D01*
X49192914Y-85816666D02*
X49240533Y-85911904D01*
X49954819Y-84864285D02*
X49954819Y-84673809D01*
X49954819Y-84673809D02*
X49907200Y-84578571D01*
X49907200Y-84578571D02*
X49859580Y-84530952D01*
X49859580Y-84530952D02*
X49716723Y-84435714D01*
X49716723Y-84435714D02*
X49526247Y-84388095D01*
X49526247Y-84388095D02*
X49145295Y-84388095D01*
X49145295Y-84388095D02*
X49050057Y-84435714D01*
X49050057Y-84435714D02*
X49002438Y-84483333D01*
X49002438Y-84483333D02*
X48954819Y-84578571D01*
X48954819Y-84578571D02*
X48954819Y-84769047D01*
X48954819Y-84769047D02*
X49002438Y-84864285D01*
X49002438Y-84864285D02*
X49050057Y-84911904D01*
X49050057Y-84911904D02*
X49145295Y-84959523D01*
X49145295Y-84959523D02*
X49383390Y-84959523D01*
X49383390Y-84959523D02*
X49478628Y-84911904D01*
X49478628Y-84911904D02*
X49526247Y-84864285D01*
X49526247Y-84864285D02*
X49573866Y-84769047D01*
X49573866Y-84769047D02*
X49573866Y-84578571D01*
X49573866Y-84578571D02*
X49526247Y-84483333D01*
X49526247Y-84483333D02*
X49478628Y-84435714D01*
X49478628Y-84435714D02*
X49383390Y-84388095D01*
X51804819Y-71092857D02*
X51328628Y-71426190D01*
X51804819Y-71664285D02*
X50804819Y-71664285D01*
X50804819Y-71664285D02*
X50804819Y-71283333D01*
X50804819Y-71283333D02*
X50852438Y-71188095D01*
X50852438Y-71188095D02*
X50900057Y-71140476D01*
X50900057Y-71140476D02*
X50995295Y-71092857D01*
X50995295Y-71092857D02*
X51138152Y-71092857D01*
X51138152Y-71092857D02*
X51233390Y-71140476D01*
X51233390Y-71140476D02*
X51281009Y-71188095D01*
X51281009Y-71188095D02*
X51328628Y-71283333D01*
X51328628Y-71283333D02*
X51328628Y-71664285D01*
X51804819Y-70140476D02*
X51804819Y-70711904D01*
X51804819Y-70426190D02*
X50804819Y-70426190D01*
X50804819Y-70426190D02*
X50947676Y-70521428D01*
X50947676Y-70521428D02*
X51042914Y-70616666D01*
X51042914Y-70616666D02*
X51090533Y-70711904D01*
X51233390Y-69569047D02*
X51185771Y-69664285D01*
X51185771Y-69664285D02*
X51138152Y-69711904D01*
X51138152Y-69711904D02*
X51042914Y-69759523D01*
X51042914Y-69759523D02*
X50995295Y-69759523D01*
X50995295Y-69759523D02*
X50900057Y-69711904D01*
X50900057Y-69711904D02*
X50852438Y-69664285D01*
X50852438Y-69664285D02*
X50804819Y-69569047D01*
X50804819Y-69569047D02*
X50804819Y-69378571D01*
X50804819Y-69378571D02*
X50852438Y-69283333D01*
X50852438Y-69283333D02*
X50900057Y-69235714D01*
X50900057Y-69235714D02*
X50995295Y-69188095D01*
X50995295Y-69188095D02*
X51042914Y-69188095D01*
X51042914Y-69188095D02*
X51138152Y-69235714D01*
X51138152Y-69235714D02*
X51185771Y-69283333D01*
X51185771Y-69283333D02*
X51233390Y-69378571D01*
X51233390Y-69378571D02*
X51233390Y-69569047D01*
X51233390Y-69569047D02*
X51281009Y-69664285D01*
X51281009Y-69664285D02*
X51328628Y-69711904D01*
X51328628Y-69711904D02*
X51423866Y-69759523D01*
X51423866Y-69759523D02*
X51614342Y-69759523D01*
X51614342Y-69759523D02*
X51709580Y-69711904D01*
X51709580Y-69711904D02*
X51757200Y-69664285D01*
X51757200Y-69664285D02*
X51804819Y-69569047D01*
X51804819Y-69569047D02*
X51804819Y-69378571D01*
X51804819Y-69378571D02*
X51757200Y-69283333D01*
X51757200Y-69283333D02*
X51709580Y-69235714D01*
X51709580Y-69235714D02*
X51614342Y-69188095D01*
X51614342Y-69188095D02*
X51423866Y-69188095D01*
X51423866Y-69188095D02*
X51328628Y-69235714D01*
X51328628Y-69235714D02*
X51281009Y-69283333D01*
X51281009Y-69283333D02*
X51233390Y-69378571D01*
X78057142Y-52109580D02*
X78009523Y-52157200D01*
X78009523Y-52157200D02*
X77866666Y-52204819D01*
X77866666Y-52204819D02*
X77771428Y-52204819D01*
X77771428Y-52204819D02*
X77628571Y-52157200D01*
X77628571Y-52157200D02*
X77533333Y-52061961D01*
X77533333Y-52061961D02*
X77485714Y-51966723D01*
X77485714Y-51966723D02*
X77438095Y-51776247D01*
X77438095Y-51776247D02*
X77438095Y-51633390D01*
X77438095Y-51633390D02*
X77485714Y-51442914D01*
X77485714Y-51442914D02*
X77533333Y-51347676D01*
X77533333Y-51347676D02*
X77628571Y-51252438D01*
X77628571Y-51252438D02*
X77771428Y-51204819D01*
X77771428Y-51204819D02*
X77866666Y-51204819D01*
X77866666Y-51204819D02*
X78009523Y-51252438D01*
X78009523Y-51252438D02*
X78057142Y-51300057D01*
X79009523Y-52204819D02*
X78438095Y-52204819D01*
X78723809Y-52204819D02*
X78723809Y-51204819D01*
X78723809Y-51204819D02*
X78628571Y-51347676D01*
X78628571Y-51347676D02*
X78533333Y-51442914D01*
X78533333Y-51442914D02*
X78438095Y-51490533D01*
X79580952Y-51633390D02*
X79485714Y-51585771D01*
X79485714Y-51585771D02*
X79438095Y-51538152D01*
X79438095Y-51538152D02*
X79390476Y-51442914D01*
X79390476Y-51442914D02*
X79390476Y-51395295D01*
X79390476Y-51395295D02*
X79438095Y-51300057D01*
X79438095Y-51300057D02*
X79485714Y-51252438D01*
X79485714Y-51252438D02*
X79580952Y-51204819D01*
X79580952Y-51204819D02*
X79771428Y-51204819D01*
X79771428Y-51204819D02*
X79866666Y-51252438D01*
X79866666Y-51252438D02*
X79914285Y-51300057D01*
X79914285Y-51300057D02*
X79961904Y-51395295D01*
X79961904Y-51395295D02*
X79961904Y-51442914D01*
X79961904Y-51442914D02*
X79914285Y-51538152D01*
X79914285Y-51538152D02*
X79866666Y-51585771D01*
X79866666Y-51585771D02*
X79771428Y-51633390D01*
X79771428Y-51633390D02*
X79580952Y-51633390D01*
X79580952Y-51633390D02*
X79485714Y-51681009D01*
X79485714Y-51681009D02*
X79438095Y-51728628D01*
X79438095Y-51728628D02*
X79390476Y-51823866D01*
X79390476Y-51823866D02*
X79390476Y-52014342D01*
X79390476Y-52014342D02*
X79438095Y-52109580D01*
X79438095Y-52109580D02*
X79485714Y-52157200D01*
X79485714Y-52157200D02*
X79580952Y-52204819D01*
X79580952Y-52204819D02*
X79771428Y-52204819D01*
X79771428Y-52204819D02*
X79866666Y-52157200D01*
X79866666Y-52157200D02*
X79914285Y-52109580D01*
X79914285Y-52109580D02*
X79961904Y-52014342D01*
X79961904Y-52014342D02*
X79961904Y-51823866D01*
X79961904Y-51823866D02*
X79914285Y-51728628D01*
X79914285Y-51728628D02*
X79866666Y-51681009D01*
X79866666Y-51681009D02*
X79771428Y-51633390D01*
X61337845Y-82454820D02*
X61337845Y-83264343D01*
X61337845Y-83264343D02*
X61385464Y-83359581D01*
X61385464Y-83359581D02*
X61433083Y-83407201D01*
X61433083Y-83407201D02*
X61528321Y-83454820D01*
X61528321Y-83454820D02*
X61718797Y-83454820D01*
X61718797Y-83454820D02*
X61814035Y-83407201D01*
X61814035Y-83407201D02*
X61861654Y-83359581D01*
X61861654Y-83359581D02*
X61909273Y-83264343D01*
X61909273Y-83264343D02*
X61909273Y-82454820D01*
X62861654Y-82454820D02*
X62385464Y-82454820D01*
X62385464Y-82454820D02*
X62337845Y-82931010D01*
X62337845Y-82931010D02*
X62385464Y-82883391D01*
X62385464Y-82883391D02*
X62480702Y-82835772D01*
X62480702Y-82835772D02*
X62718797Y-82835772D01*
X62718797Y-82835772D02*
X62814035Y-82883391D01*
X62814035Y-82883391D02*
X62861654Y-82931010D01*
X62861654Y-82931010D02*
X62909273Y-83026248D01*
X62909273Y-83026248D02*
X62909273Y-83264343D01*
X62909273Y-83264343D02*
X62861654Y-83359581D01*
X62861654Y-83359581D02*
X62814035Y-83407201D01*
X62814035Y-83407201D02*
X62718797Y-83454820D01*
X62718797Y-83454820D02*
X62480702Y-83454820D01*
X62480702Y-83454820D02*
X62385464Y-83407201D01*
X62385464Y-83407201D02*
X62337845Y-83359581D01*
X60480500Y-79853820D02*
X60480500Y-80091915D01*
X60242405Y-79996677D02*
X60480500Y-80091915D01*
X60480500Y-80091915D02*
X60718595Y-79996677D01*
X60337643Y-80282391D02*
X60480500Y-80091915D01*
X60480500Y-80091915D02*
X60623357Y-80282391D01*
X60480500Y-79853820D02*
X60480500Y-80091915D01*
X60242405Y-79996677D02*
X60480500Y-80091915D01*
X60480500Y-80091915D02*
X60718595Y-79996677D01*
X60337643Y-80282391D02*
X60480500Y-80091915D01*
X60480500Y-80091915D02*
X60623357Y-80282391D01*
X61504819Y-38416666D02*
X61028628Y-38749999D01*
X61504819Y-38988094D02*
X60504819Y-38988094D01*
X60504819Y-38988094D02*
X60504819Y-38607142D01*
X60504819Y-38607142D02*
X60552438Y-38511904D01*
X60552438Y-38511904D02*
X60600057Y-38464285D01*
X60600057Y-38464285D02*
X60695295Y-38416666D01*
X60695295Y-38416666D02*
X60838152Y-38416666D01*
X60838152Y-38416666D02*
X60933390Y-38464285D01*
X60933390Y-38464285D02*
X60981009Y-38511904D01*
X60981009Y-38511904D02*
X61028628Y-38607142D01*
X61028628Y-38607142D02*
X61028628Y-38988094D01*
X60933390Y-37845237D02*
X60885771Y-37940475D01*
X60885771Y-37940475D02*
X60838152Y-37988094D01*
X60838152Y-37988094D02*
X60742914Y-38035713D01*
X60742914Y-38035713D02*
X60695295Y-38035713D01*
X60695295Y-38035713D02*
X60600057Y-37988094D01*
X60600057Y-37988094D02*
X60552438Y-37940475D01*
X60552438Y-37940475D02*
X60504819Y-37845237D01*
X60504819Y-37845237D02*
X60504819Y-37654761D01*
X60504819Y-37654761D02*
X60552438Y-37559523D01*
X60552438Y-37559523D02*
X60600057Y-37511904D01*
X60600057Y-37511904D02*
X60695295Y-37464285D01*
X60695295Y-37464285D02*
X60742914Y-37464285D01*
X60742914Y-37464285D02*
X60838152Y-37511904D01*
X60838152Y-37511904D02*
X60885771Y-37559523D01*
X60885771Y-37559523D02*
X60933390Y-37654761D01*
X60933390Y-37654761D02*
X60933390Y-37845237D01*
X60933390Y-37845237D02*
X60981009Y-37940475D01*
X60981009Y-37940475D02*
X61028628Y-37988094D01*
X61028628Y-37988094D02*
X61123866Y-38035713D01*
X61123866Y-38035713D02*
X61314342Y-38035713D01*
X61314342Y-38035713D02*
X61409580Y-37988094D01*
X61409580Y-37988094D02*
X61457200Y-37940475D01*
X61457200Y-37940475D02*
X61504819Y-37845237D01*
X61504819Y-37845237D02*
X61504819Y-37654761D01*
X61504819Y-37654761D02*
X61457200Y-37559523D01*
X61457200Y-37559523D02*
X61409580Y-37511904D01*
X61409580Y-37511904D02*
X61314342Y-37464285D01*
X61314342Y-37464285D02*
X61123866Y-37464285D01*
X61123866Y-37464285D02*
X61028628Y-37511904D01*
X61028628Y-37511904D02*
X60981009Y-37559523D01*
X60981009Y-37559523D02*
X60933390Y-37654761D01*
X66739580Y-79630357D02*
X66787200Y-79677976D01*
X66787200Y-79677976D02*
X66834819Y-79820833D01*
X66834819Y-79820833D02*
X66834819Y-79916071D01*
X66834819Y-79916071D02*
X66787200Y-80058928D01*
X66787200Y-80058928D02*
X66691961Y-80154166D01*
X66691961Y-80154166D02*
X66596723Y-80201785D01*
X66596723Y-80201785D02*
X66406247Y-80249404D01*
X66406247Y-80249404D02*
X66263390Y-80249404D01*
X66263390Y-80249404D02*
X66072914Y-80201785D01*
X66072914Y-80201785D02*
X65977676Y-80154166D01*
X65977676Y-80154166D02*
X65882438Y-80058928D01*
X65882438Y-80058928D02*
X65834819Y-79916071D01*
X65834819Y-79916071D02*
X65834819Y-79820833D01*
X65834819Y-79820833D02*
X65882438Y-79677976D01*
X65882438Y-79677976D02*
X65930057Y-79630357D01*
X65930057Y-79249404D02*
X65882438Y-79201785D01*
X65882438Y-79201785D02*
X65834819Y-79106547D01*
X65834819Y-79106547D02*
X65834819Y-78868452D01*
X65834819Y-78868452D02*
X65882438Y-78773214D01*
X65882438Y-78773214D02*
X65930057Y-78725595D01*
X65930057Y-78725595D02*
X66025295Y-78677976D01*
X66025295Y-78677976D02*
X66120533Y-78677976D01*
X66120533Y-78677976D02*
X66263390Y-78725595D01*
X66263390Y-78725595D02*
X66834819Y-79297023D01*
X66834819Y-79297023D02*
X66834819Y-78677976D01*
X66168152Y-77820833D02*
X66834819Y-77820833D01*
X65787200Y-78058928D02*
X66501485Y-78297023D01*
X66501485Y-78297023D02*
X66501485Y-77677976D01*
X50407142Y-38659580D02*
X50359523Y-38707200D01*
X50359523Y-38707200D02*
X50216666Y-38754819D01*
X50216666Y-38754819D02*
X50121428Y-38754819D01*
X50121428Y-38754819D02*
X49978571Y-38707200D01*
X49978571Y-38707200D02*
X49883333Y-38611961D01*
X49883333Y-38611961D02*
X49835714Y-38516723D01*
X49835714Y-38516723D02*
X49788095Y-38326247D01*
X49788095Y-38326247D02*
X49788095Y-38183390D01*
X49788095Y-38183390D02*
X49835714Y-37992914D01*
X49835714Y-37992914D02*
X49883333Y-37897676D01*
X49883333Y-37897676D02*
X49978571Y-37802438D01*
X49978571Y-37802438D02*
X50121428Y-37754819D01*
X50121428Y-37754819D02*
X50216666Y-37754819D01*
X50216666Y-37754819D02*
X50359523Y-37802438D01*
X50359523Y-37802438D02*
X50407142Y-37850057D01*
X50788095Y-37850057D02*
X50835714Y-37802438D01*
X50835714Y-37802438D02*
X50930952Y-37754819D01*
X50930952Y-37754819D02*
X51169047Y-37754819D01*
X51169047Y-37754819D02*
X51264285Y-37802438D01*
X51264285Y-37802438D02*
X51311904Y-37850057D01*
X51311904Y-37850057D02*
X51359523Y-37945295D01*
X51359523Y-37945295D02*
X51359523Y-38040533D01*
X51359523Y-38040533D02*
X51311904Y-38183390D01*
X51311904Y-38183390D02*
X50740476Y-38754819D01*
X50740476Y-38754819D02*
X51359523Y-38754819D01*
X51692857Y-37754819D02*
X52359523Y-37754819D01*
X52359523Y-37754819D02*
X51930952Y-38754819D01*
X66764580Y-83080357D02*
X66812200Y-83127976D01*
X66812200Y-83127976D02*
X66859819Y-83270833D01*
X66859819Y-83270833D02*
X66859819Y-83366071D01*
X66859819Y-83366071D02*
X66812200Y-83508928D01*
X66812200Y-83508928D02*
X66716961Y-83604166D01*
X66716961Y-83604166D02*
X66621723Y-83651785D01*
X66621723Y-83651785D02*
X66431247Y-83699404D01*
X66431247Y-83699404D02*
X66288390Y-83699404D01*
X66288390Y-83699404D02*
X66097914Y-83651785D01*
X66097914Y-83651785D02*
X66002676Y-83604166D01*
X66002676Y-83604166D02*
X65907438Y-83508928D01*
X65907438Y-83508928D02*
X65859819Y-83366071D01*
X65859819Y-83366071D02*
X65859819Y-83270833D01*
X65859819Y-83270833D02*
X65907438Y-83127976D01*
X65907438Y-83127976D02*
X65955057Y-83080357D01*
X65955057Y-82699404D02*
X65907438Y-82651785D01*
X65907438Y-82651785D02*
X65859819Y-82556547D01*
X65859819Y-82556547D02*
X65859819Y-82318452D01*
X65859819Y-82318452D02*
X65907438Y-82223214D01*
X65907438Y-82223214D02*
X65955057Y-82175595D01*
X65955057Y-82175595D02*
X66050295Y-82127976D01*
X66050295Y-82127976D02*
X66145533Y-82127976D01*
X66145533Y-82127976D02*
X66288390Y-82175595D01*
X66288390Y-82175595D02*
X66859819Y-82747023D01*
X66859819Y-82747023D02*
X66859819Y-82127976D01*
X65859819Y-81794642D02*
X65859819Y-81175595D01*
X65859819Y-81175595D02*
X66240771Y-81508928D01*
X66240771Y-81508928D02*
X66240771Y-81366071D01*
X66240771Y-81366071D02*
X66288390Y-81270833D01*
X66288390Y-81270833D02*
X66336009Y-81223214D01*
X66336009Y-81223214D02*
X66431247Y-81175595D01*
X66431247Y-81175595D02*
X66669342Y-81175595D01*
X66669342Y-81175595D02*
X66764580Y-81223214D01*
X66764580Y-81223214D02*
X66812200Y-81270833D01*
X66812200Y-81270833D02*
X66859819Y-81366071D01*
X66859819Y-81366071D02*
X66859819Y-81651785D01*
X66859819Y-81651785D02*
X66812200Y-81747023D01*
X66812200Y-81747023D02*
X66764580Y-81794642D01*
X52773595Y-85654819D02*
X52773595Y-84654819D01*
X52773595Y-85131009D02*
X53345023Y-85131009D01*
X53345023Y-85654819D02*
X53345023Y-84654819D01*
X54249785Y-84988152D02*
X54249785Y-85654819D01*
X54011690Y-84607200D02*
X53773595Y-85321485D01*
X53773595Y-85321485D02*
X54392642Y-85321485D01*
X48104819Y-57966666D02*
X47628628Y-58299999D01*
X48104819Y-58538094D02*
X47104819Y-58538094D01*
X47104819Y-58538094D02*
X47104819Y-58157142D01*
X47104819Y-58157142D02*
X47152438Y-58061904D01*
X47152438Y-58061904D02*
X47200057Y-58014285D01*
X47200057Y-58014285D02*
X47295295Y-57966666D01*
X47295295Y-57966666D02*
X47438152Y-57966666D01*
X47438152Y-57966666D02*
X47533390Y-58014285D01*
X47533390Y-58014285D02*
X47581009Y-58061904D01*
X47581009Y-58061904D02*
X47628628Y-58157142D01*
X47628628Y-58157142D02*
X47628628Y-58538094D01*
X48104819Y-57014285D02*
X48104819Y-57585713D01*
X48104819Y-57299999D02*
X47104819Y-57299999D01*
X47104819Y-57299999D02*
X47247676Y-57395237D01*
X47247676Y-57395237D02*
X47342914Y-57490475D01*
X47342914Y-57490475D02*
X47390533Y-57585713D01*
X88111905Y-63054819D02*
X88111905Y-62054819D01*
X88111905Y-62054819D02*
X88350000Y-62054819D01*
X88350000Y-62054819D02*
X88492857Y-62102438D01*
X88492857Y-62102438D02*
X88588095Y-62197676D01*
X88588095Y-62197676D02*
X88635714Y-62292914D01*
X88635714Y-62292914D02*
X88683333Y-62483390D01*
X88683333Y-62483390D02*
X88683333Y-62626247D01*
X88683333Y-62626247D02*
X88635714Y-62816723D01*
X88635714Y-62816723D02*
X88588095Y-62911961D01*
X88588095Y-62911961D02*
X88492857Y-63007200D01*
X88492857Y-63007200D02*
X88350000Y-63054819D01*
X88350000Y-63054819D02*
X88111905Y-63054819D01*
X89064286Y-62150057D02*
X89111905Y-62102438D01*
X89111905Y-62102438D02*
X89207143Y-62054819D01*
X89207143Y-62054819D02*
X89445238Y-62054819D01*
X89445238Y-62054819D02*
X89540476Y-62102438D01*
X89540476Y-62102438D02*
X89588095Y-62150057D01*
X89588095Y-62150057D02*
X89635714Y-62245295D01*
X89635714Y-62245295D02*
X89635714Y-62340533D01*
X89635714Y-62340533D02*
X89588095Y-62483390D01*
X89588095Y-62483390D02*
X89016667Y-63054819D01*
X89016667Y-63054819D02*
X89635714Y-63054819D01*
X50557142Y-56059580D02*
X50509523Y-56107200D01*
X50509523Y-56107200D02*
X50366666Y-56154819D01*
X50366666Y-56154819D02*
X50271428Y-56154819D01*
X50271428Y-56154819D02*
X50128571Y-56107200D01*
X50128571Y-56107200D02*
X50033333Y-56011961D01*
X50033333Y-56011961D02*
X49985714Y-55916723D01*
X49985714Y-55916723D02*
X49938095Y-55726247D01*
X49938095Y-55726247D02*
X49938095Y-55583390D01*
X49938095Y-55583390D02*
X49985714Y-55392914D01*
X49985714Y-55392914D02*
X50033333Y-55297676D01*
X50033333Y-55297676D02*
X50128571Y-55202438D01*
X50128571Y-55202438D02*
X50271428Y-55154819D01*
X50271428Y-55154819D02*
X50366666Y-55154819D01*
X50366666Y-55154819D02*
X50509523Y-55202438D01*
X50509523Y-55202438D02*
X50557142Y-55250057D01*
X50890476Y-55154819D02*
X51509523Y-55154819D01*
X51509523Y-55154819D02*
X51176190Y-55535771D01*
X51176190Y-55535771D02*
X51319047Y-55535771D01*
X51319047Y-55535771D02*
X51414285Y-55583390D01*
X51414285Y-55583390D02*
X51461904Y-55631009D01*
X51461904Y-55631009D02*
X51509523Y-55726247D01*
X51509523Y-55726247D02*
X51509523Y-55964342D01*
X51509523Y-55964342D02*
X51461904Y-56059580D01*
X51461904Y-56059580D02*
X51414285Y-56107200D01*
X51414285Y-56107200D02*
X51319047Y-56154819D01*
X51319047Y-56154819D02*
X51033333Y-56154819D01*
X51033333Y-56154819D02*
X50938095Y-56107200D01*
X50938095Y-56107200D02*
X50890476Y-56059580D01*
X51842857Y-55154819D02*
X52461904Y-55154819D01*
X52461904Y-55154819D02*
X52128571Y-55535771D01*
X52128571Y-55535771D02*
X52271428Y-55535771D01*
X52271428Y-55535771D02*
X52366666Y-55583390D01*
X52366666Y-55583390D02*
X52414285Y-55631009D01*
X52414285Y-55631009D02*
X52461904Y-55726247D01*
X52461904Y-55726247D02*
X52461904Y-55964342D01*
X52461904Y-55964342D02*
X52414285Y-56059580D01*
X52414285Y-56059580D02*
X52366666Y-56107200D01*
X52366666Y-56107200D02*
X52271428Y-56154819D01*
X52271428Y-56154819D02*
X51985714Y-56154819D01*
X51985714Y-56154819D02*
X51890476Y-56107200D01*
X51890476Y-56107200D02*
X51842857Y-56059580D01*
X61959580Y-63242857D02*
X62007200Y-63290476D01*
X62007200Y-63290476D02*
X62054819Y-63433333D01*
X62054819Y-63433333D02*
X62054819Y-63528571D01*
X62054819Y-63528571D02*
X62007200Y-63671428D01*
X62007200Y-63671428D02*
X61911961Y-63766666D01*
X61911961Y-63766666D02*
X61816723Y-63814285D01*
X61816723Y-63814285D02*
X61626247Y-63861904D01*
X61626247Y-63861904D02*
X61483390Y-63861904D01*
X61483390Y-63861904D02*
X61292914Y-63814285D01*
X61292914Y-63814285D02*
X61197676Y-63766666D01*
X61197676Y-63766666D02*
X61102438Y-63671428D01*
X61102438Y-63671428D02*
X61054819Y-63528571D01*
X61054819Y-63528571D02*
X61054819Y-63433333D01*
X61054819Y-63433333D02*
X61102438Y-63290476D01*
X61102438Y-63290476D02*
X61150057Y-63242857D01*
X62054819Y-62290476D02*
X62054819Y-62861904D01*
X62054819Y-62576190D02*
X61054819Y-62576190D01*
X61054819Y-62576190D02*
X61197676Y-62671428D01*
X61197676Y-62671428D02*
X61292914Y-62766666D01*
X61292914Y-62766666D02*
X61340533Y-62861904D01*
X61054819Y-61671428D02*
X61054819Y-61576190D01*
X61054819Y-61576190D02*
X61102438Y-61480952D01*
X61102438Y-61480952D02*
X61150057Y-61433333D01*
X61150057Y-61433333D02*
X61245295Y-61385714D01*
X61245295Y-61385714D02*
X61435771Y-61338095D01*
X61435771Y-61338095D02*
X61673866Y-61338095D01*
X61673866Y-61338095D02*
X61864342Y-61385714D01*
X61864342Y-61385714D02*
X61959580Y-61433333D01*
X61959580Y-61433333D02*
X62007200Y-61480952D01*
X62007200Y-61480952D02*
X62054819Y-61576190D01*
X62054819Y-61576190D02*
X62054819Y-61671428D01*
X62054819Y-61671428D02*
X62007200Y-61766666D01*
X62007200Y-61766666D02*
X61959580Y-61814285D01*
X61959580Y-61814285D02*
X61864342Y-61861904D01*
X61864342Y-61861904D02*
X61673866Y-61909523D01*
X61673866Y-61909523D02*
X61435771Y-61909523D01*
X61435771Y-61909523D02*
X61245295Y-61861904D01*
X61245295Y-61861904D02*
X61150057Y-61814285D01*
X61150057Y-61814285D02*
X61102438Y-61766666D01*
X61102438Y-61766666D02*
X61054819Y-61671428D01*
X82773595Y-85654819D02*
X82773595Y-84654819D01*
X82773595Y-85131009D02*
X83345023Y-85131009D01*
X83345023Y-85654819D02*
X83345023Y-84654819D01*
X83725976Y-84654819D02*
X84345023Y-84654819D01*
X84345023Y-84654819D02*
X84011690Y-85035771D01*
X84011690Y-85035771D02*
X84154547Y-85035771D01*
X84154547Y-85035771D02*
X84249785Y-85083390D01*
X84249785Y-85083390D02*
X84297404Y-85131009D01*
X84297404Y-85131009D02*
X84345023Y-85226247D01*
X84345023Y-85226247D02*
X84345023Y-85464342D01*
X84345023Y-85464342D02*
X84297404Y-85559580D01*
X84297404Y-85559580D02*
X84249785Y-85607200D01*
X84249785Y-85607200D02*
X84154547Y-85654819D01*
X84154547Y-85654819D02*
X83868833Y-85654819D01*
X83868833Y-85654819D02*
X83773595Y-85607200D01*
X83773595Y-85607200D02*
X83725976Y-85559580D01*
X73566666Y-86354819D02*
X73566666Y-87069104D01*
X73566666Y-87069104D02*
X73519047Y-87211961D01*
X73519047Y-87211961D02*
X73423809Y-87307200D01*
X73423809Y-87307200D02*
X73280952Y-87354819D01*
X73280952Y-87354819D02*
X73185714Y-87354819D01*
X74566666Y-87354819D02*
X73995238Y-87354819D01*
X74280952Y-87354819D02*
X74280952Y-86354819D01*
X74280952Y-86354819D02*
X74185714Y-86497676D01*
X74185714Y-86497676D02*
X74090476Y-86592914D01*
X74090476Y-86592914D02*
X73995238Y-86640533D01*
X50004819Y-70942857D02*
X49528628Y-71276190D01*
X50004819Y-71514285D02*
X49004819Y-71514285D01*
X49004819Y-71514285D02*
X49004819Y-71133333D01*
X49004819Y-71133333D02*
X49052438Y-71038095D01*
X49052438Y-71038095D02*
X49100057Y-70990476D01*
X49100057Y-70990476D02*
X49195295Y-70942857D01*
X49195295Y-70942857D02*
X49338152Y-70942857D01*
X49338152Y-70942857D02*
X49433390Y-70990476D01*
X49433390Y-70990476D02*
X49481009Y-71038095D01*
X49481009Y-71038095D02*
X49528628Y-71133333D01*
X49528628Y-71133333D02*
X49528628Y-71514285D01*
X50004819Y-69990476D02*
X50004819Y-70561904D01*
X50004819Y-70276190D02*
X49004819Y-70276190D01*
X49004819Y-70276190D02*
X49147676Y-70371428D01*
X49147676Y-70371428D02*
X49242914Y-70466666D01*
X49242914Y-70466666D02*
X49290533Y-70561904D01*
X49004819Y-69657142D02*
X49004819Y-68990476D01*
X49004819Y-68990476D02*
X50004819Y-69419047D01*
X55321904Y-41450180D02*
X55321904Y-40640657D01*
X55321904Y-40640657D02*
X55274285Y-40545419D01*
X55274285Y-40545419D02*
X55226666Y-40497800D01*
X55226666Y-40497800D02*
X55131428Y-40450180D01*
X55131428Y-40450180D02*
X54940952Y-40450180D01*
X54940952Y-40450180D02*
X54845714Y-40497800D01*
X54845714Y-40497800D02*
X54798095Y-40545419D01*
X54798095Y-40545419D02*
X54750476Y-40640657D01*
X54750476Y-40640657D02*
X54750476Y-41450180D01*
X53750476Y-40450180D02*
X54321904Y-40450180D01*
X54036190Y-40450180D02*
X54036190Y-41450180D01*
X54036190Y-41450180D02*
X54131428Y-41307323D01*
X54131428Y-41307323D02*
X54226666Y-41212085D01*
X54226666Y-41212085D02*
X54321904Y-41164466D01*
X43396666Y-40184819D02*
X43396666Y-40899104D01*
X43396666Y-40899104D02*
X43349047Y-41041961D01*
X43349047Y-41041961D02*
X43253809Y-41137200D01*
X43253809Y-41137200D02*
X43110952Y-41184819D01*
X43110952Y-41184819D02*
X43015714Y-41184819D01*
X43777619Y-40184819D02*
X44396666Y-40184819D01*
X44396666Y-40184819D02*
X44063333Y-40565771D01*
X44063333Y-40565771D02*
X44206190Y-40565771D01*
X44206190Y-40565771D02*
X44301428Y-40613390D01*
X44301428Y-40613390D02*
X44349047Y-40661009D01*
X44349047Y-40661009D02*
X44396666Y-40756247D01*
X44396666Y-40756247D02*
X44396666Y-40994342D01*
X44396666Y-40994342D02*
X44349047Y-41089580D01*
X44349047Y-41089580D02*
X44301428Y-41137200D01*
X44301428Y-41137200D02*
X44206190Y-41184819D01*
X44206190Y-41184819D02*
X43920476Y-41184819D01*
X43920476Y-41184819D02*
X43825238Y-41137200D01*
X43825238Y-41137200D02*
X43777619Y-41089580D01*
X56988095Y-65857319D02*
X56988095Y-66666842D01*
X56988095Y-66666842D02*
X57035714Y-66762080D01*
X57035714Y-66762080D02*
X57083333Y-66809700D01*
X57083333Y-66809700D02*
X57178571Y-66857319D01*
X57178571Y-66857319D02*
X57369047Y-66857319D01*
X57369047Y-66857319D02*
X57464285Y-66809700D01*
X57464285Y-66809700D02*
X57511904Y-66762080D01*
X57511904Y-66762080D02*
X57559523Y-66666842D01*
X57559523Y-66666842D02*
X57559523Y-65857319D01*
X57940476Y-65857319D02*
X58559523Y-65857319D01*
X58559523Y-65857319D02*
X58226190Y-66238271D01*
X58226190Y-66238271D02*
X58369047Y-66238271D01*
X58369047Y-66238271D02*
X58464285Y-66285890D01*
X58464285Y-66285890D02*
X58511904Y-66333509D01*
X58511904Y-66333509D02*
X58559523Y-66428747D01*
X58559523Y-66428747D02*
X58559523Y-66666842D01*
X58559523Y-66666842D02*
X58511904Y-66762080D01*
X58511904Y-66762080D02*
X58464285Y-66809700D01*
X58464285Y-66809700D02*
X58369047Y-66857319D01*
X58369047Y-66857319D02*
X58083333Y-66857319D01*
X58083333Y-66857319D02*
X57988095Y-66809700D01*
X57988095Y-66809700D02*
X57940476Y-66762080D01*
X58854819Y-83166667D02*
X58378628Y-83500000D01*
X58854819Y-83738095D02*
X57854819Y-83738095D01*
X57854819Y-83738095D02*
X57854819Y-83357143D01*
X57854819Y-83357143D02*
X57902438Y-83261905D01*
X57902438Y-83261905D02*
X57950057Y-83214286D01*
X57950057Y-83214286D02*
X58045295Y-83166667D01*
X58045295Y-83166667D02*
X58188152Y-83166667D01*
X58188152Y-83166667D02*
X58283390Y-83214286D01*
X58283390Y-83214286D02*
X58331009Y-83261905D01*
X58331009Y-83261905D02*
X58378628Y-83357143D01*
X58378628Y-83357143D02*
X58378628Y-83738095D01*
X57854819Y-82309524D02*
X57854819Y-82500000D01*
X57854819Y-82500000D02*
X57902438Y-82595238D01*
X57902438Y-82595238D02*
X57950057Y-82642857D01*
X57950057Y-82642857D02*
X58092914Y-82738095D01*
X58092914Y-82738095D02*
X58283390Y-82785714D01*
X58283390Y-82785714D02*
X58664342Y-82785714D01*
X58664342Y-82785714D02*
X58759580Y-82738095D01*
X58759580Y-82738095D02*
X58807200Y-82690476D01*
X58807200Y-82690476D02*
X58854819Y-82595238D01*
X58854819Y-82595238D02*
X58854819Y-82404762D01*
X58854819Y-82404762D02*
X58807200Y-82309524D01*
X58807200Y-82309524D02*
X58759580Y-82261905D01*
X58759580Y-82261905D02*
X58664342Y-82214286D01*
X58664342Y-82214286D02*
X58426247Y-82214286D01*
X58426247Y-82214286D02*
X58331009Y-82261905D01*
X58331009Y-82261905D02*
X58283390Y-82309524D01*
X58283390Y-82309524D02*
X58235771Y-82404762D01*
X58235771Y-82404762D02*
X58235771Y-82595238D01*
X58235771Y-82595238D02*
X58283390Y-82690476D01*
X58283390Y-82690476D02*
X58331009Y-82738095D01*
X58331009Y-82738095D02*
X58426247Y-82785714D01*
X51009580Y-58442857D02*
X51057200Y-58490476D01*
X51057200Y-58490476D02*
X51104819Y-58633333D01*
X51104819Y-58633333D02*
X51104819Y-58728571D01*
X51104819Y-58728571D02*
X51057200Y-58871428D01*
X51057200Y-58871428D02*
X50961961Y-58966666D01*
X50961961Y-58966666D02*
X50866723Y-59014285D01*
X50866723Y-59014285D02*
X50676247Y-59061904D01*
X50676247Y-59061904D02*
X50533390Y-59061904D01*
X50533390Y-59061904D02*
X50342914Y-59014285D01*
X50342914Y-59014285D02*
X50247676Y-58966666D01*
X50247676Y-58966666D02*
X50152438Y-58871428D01*
X50152438Y-58871428D02*
X50104819Y-58728571D01*
X50104819Y-58728571D02*
X50104819Y-58633333D01*
X50104819Y-58633333D02*
X50152438Y-58490476D01*
X50152438Y-58490476D02*
X50200057Y-58442857D01*
X51104819Y-57490476D02*
X51104819Y-58061904D01*
X51104819Y-57776190D02*
X50104819Y-57776190D01*
X50104819Y-57776190D02*
X50247676Y-57871428D01*
X50247676Y-57871428D02*
X50342914Y-57966666D01*
X50342914Y-57966666D02*
X50390533Y-58061904D01*
X50104819Y-57157142D02*
X50104819Y-56490476D01*
X50104819Y-56490476D02*
X51104819Y-56919047D01*
X71816666Y-33754819D02*
X71816666Y-34469104D01*
X71816666Y-34469104D02*
X71769047Y-34611961D01*
X71769047Y-34611961D02*
X71673809Y-34707200D01*
X71673809Y-34707200D02*
X71530952Y-34754819D01*
X71530952Y-34754819D02*
X71435714Y-34754819D01*
X72769047Y-33754819D02*
X72292857Y-33754819D01*
X72292857Y-33754819D02*
X72245238Y-34231009D01*
X72245238Y-34231009D02*
X72292857Y-34183390D01*
X72292857Y-34183390D02*
X72388095Y-34135771D01*
X72388095Y-34135771D02*
X72626190Y-34135771D01*
X72626190Y-34135771D02*
X72721428Y-34183390D01*
X72721428Y-34183390D02*
X72769047Y-34231009D01*
X72769047Y-34231009D02*
X72816666Y-34326247D01*
X72816666Y-34326247D02*
X72816666Y-34564342D01*
X72816666Y-34564342D02*
X72769047Y-34659580D01*
X72769047Y-34659580D02*
X72721428Y-34707200D01*
X72721428Y-34707200D02*
X72626190Y-34754819D01*
X72626190Y-34754819D02*
X72388095Y-34754819D01*
X72388095Y-34754819D02*
X72292857Y-34707200D01*
X72292857Y-34707200D02*
X72245238Y-34659580D01*
D12*
%TO.C,R12*%
X66880000Y-69065121D02*
X66880000Y-68729879D01*
X67640000Y-69065121D02*
X67640000Y-68729879D01*
D13*
%TO.C,U7*%
X67077600Y-50323600D02*
X67077600Y-51105820D01*
X67077600Y-52894180D02*
X67077600Y-53676400D01*
X67077600Y-53676400D02*
X67355818Y-53676400D01*
X67355818Y-50323600D02*
X67077600Y-50323600D01*
X69644182Y-53676400D02*
X69922400Y-53676400D01*
X69922400Y-50323600D02*
X69644182Y-50323600D01*
X69922400Y-51105820D02*
X69922400Y-50323600D01*
X69922400Y-53676400D02*
X69922400Y-52894180D01*
D10*
G36*
X68440501Y-50298200D02*
G01*
X68059500Y-50298200D01*
X68059500Y-50044200D01*
X68440501Y-50044200D01*
X68440501Y-50298200D01*
G37*
D13*
%TO.C,U2*%
X48961100Y-59441000D02*
X48961100Y-59742656D01*
X48961100Y-64727344D02*
X48961100Y-65029000D01*
X48961100Y-65029000D02*
X54549100Y-65029000D01*
X54549100Y-59441000D02*
X48961100Y-59441000D01*
X54549100Y-59742656D02*
X54549100Y-59441000D01*
X54549100Y-65029000D02*
X54549100Y-64727344D01*
D12*
%TO.C,C19*%
X67146665Y-70250000D02*
X67378335Y-70250000D01*
X67146665Y-70970000D02*
X67378335Y-70970000D01*
%TO.C,C20*%
X66330000Y-66461665D02*
X66330000Y-66693335D01*
X67050000Y-66461665D02*
X67050000Y-66693335D01*
%TO.C,R15*%
X65870003Y-53965119D02*
X65870004Y-53629878D01*
X66630004Y-53965122D02*
X66630005Y-53629881D01*
%TO.C,R2*%
X53220000Y-57879879D02*
X53220000Y-58215121D01*
X53980000Y-57879879D02*
X53980000Y-58215121D01*
%TO.C,J6*%
X50590000Y-36410000D02*
X50590000Y-30990000D01*
X59310000Y-30990000D02*
X50590000Y-30990000D01*
X59310000Y-36410000D02*
X50590000Y-36410000D01*
X61010000Y-32290000D02*
X59310000Y-30990000D01*
X61010000Y-35110000D02*
X59310000Y-36410000D01*
X61010000Y-35110000D02*
X61010000Y-32290000D01*
%TO.C,C9*%
X64341665Y-75370000D02*
X64573335Y-75370000D01*
X64341665Y-76090000D02*
X64573335Y-76090000D01*
%TO.C,R7*%
X58965000Y-79119879D02*
X58965000Y-79455121D01*
X59725000Y-79119879D02*
X59725000Y-79455121D01*
%TO.C,D1*%
X90175000Y-67185000D02*
X92635000Y-67185000D01*
X92635000Y-65715000D02*
X90175000Y-65715000D01*
X92635000Y-67185000D02*
X92635000Y-65715000D01*
%TO.C,BTSEL3*%
X74936723Y-86917788D02*
X75353625Y-86723385D01*
X74936723Y-86917788D02*
X77556955Y-92536898D01*
X77556955Y-92536898D02*
X77973859Y-92342492D01*
X77873160Y-85548506D02*
X78290062Y-85354101D01*
X77973859Y-92342492D02*
X78396476Y-93248801D01*
X80493393Y-91167615D02*
X80910296Y-90973210D01*
X80910296Y-90973210D02*
X78290062Y-85354101D01*
X79010592Y-90093653D02*
X78058967Y-90537402D01*
X76854504Y-87954424D01*
X77806128Y-87510675D01*
X79010592Y-90093653D01*
%TO.C,C15*%
X64341665Y-73410000D02*
X64573335Y-73410000D01*
X64341665Y-74130000D02*
X64573335Y-74130000D01*
%TO.C,J4*%
X90620000Y-62270000D02*
X90620000Y-41730000D01*
X93270000Y-59620000D02*
X93270000Y-62270000D01*
X93270000Y-62270000D02*
X90620000Y-62270000D01*
X95920000Y-41730000D02*
X90620000Y-41730000D01*
X95920000Y-59620000D02*
X93270000Y-59620000D01*
X95920000Y-59620000D02*
X95920000Y-41730000D01*
X95920000Y-60890000D02*
X95920000Y-62270000D01*
X95920000Y-62270000D02*
X94540000Y-62270000D01*
%TO.C,C8*%
X59800000Y-65238335D02*
X59800000Y-65006665D01*
X60520000Y-65238335D02*
X60520000Y-65006665D01*
%TO.C,Y1*%
X53790000Y-76290000D02*
X53790000Y-80290000D01*
X57090000Y-76290000D02*
X53790000Y-76290000D01*
%TO.C,D3*%
X64090000Y-84590000D02*
X64090000Y-87310000D01*
X64090000Y-84590000D02*
X69150000Y-84590000D01*
X64090000Y-87310000D02*
X69150000Y-87310000D01*
%TO.C,D7*%
X49015000Y-79075000D02*
X49015000Y-81535000D01*
X49015000Y-81535000D02*
X50485000Y-81535000D01*
X50485000Y-81535000D02*
X50485000Y-79075000D01*
%TO.C,D8*%
X50765000Y-79075000D02*
X50765000Y-81535000D01*
X50765000Y-81535000D02*
X52235000Y-81535000D01*
X52235000Y-81535000D02*
X52235000Y-79075000D01*
%TO.C,J9*%
X61920000Y-22080000D02*
X61920000Y-27380000D01*
X72190000Y-22080000D02*
X61920000Y-22080000D01*
X72190000Y-22080000D02*
X72190000Y-24730000D01*
X72190000Y-24730000D02*
X74840000Y-24730000D01*
X73460000Y-22080000D02*
X74840000Y-22080000D01*
X74840000Y-22080000D02*
X74840000Y-23460000D01*
X74840000Y-24730000D02*
X74840000Y-27380000D01*
X74840000Y-27380000D02*
X61920000Y-27380000D01*
%TO.C,C14*%
X64351665Y-74340000D02*
X64583335Y-74340000D01*
X64351665Y-75060000D02*
X64583335Y-75060000D01*
%TO.C,C21*%
X67410000Y-66481665D02*
X67410000Y-66713335D01*
X68130000Y-66481665D02*
X68130000Y-66713335D01*
%TO.C,C13*%
X64331665Y-76460000D02*
X64563335Y-76460000D01*
X64331665Y-77180000D02*
X64563335Y-77180000D01*
%TO.C,R3*%
X57570000Y-64929879D02*
X57570000Y-65265121D01*
X58330000Y-64929879D02*
X58330000Y-65265121D01*
%TO.C,C4*%
X62208335Y-76450000D02*
X61976665Y-76450000D01*
X62208335Y-77170000D02*
X61976665Y-77170000D01*
%TO.C,C28*%
X56461665Y-42740000D02*
X56693335Y-42740000D01*
X56461665Y-43460000D02*
X56693335Y-43460000D01*
%TO.C,C31*%
X57420000Y-41548335D02*
X57420000Y-41316665D01*
X58140000Y-41548335D02*
X58140000Y-41316665D01*
%TO.C,C32*%
X53916233Y-53640000D02*
X54208767Y-53640000D01*
X53916233Y-54660000D02*
X54208767Y-54660000D01*
D13*
%TO.C,U4*%
X69053700Y-58242200D02*
X69053700Y-65120860D01*
X69053700Y-83109140D02*
X69053700Y-83997800D01*
X69053700Y-83997800D02*
X70460860Y-83997800D01*
X85909140Y-83997800D02*
X87316300Y-83997800D01*
X87316300Y-58242200D02*
X69053700Y-58242200D01*
X87316300Y-65120860D02*
X87316300Y-58242200D01*
X87316300Y-83997800D02*
X87316300Y-83109140D01*
D12*
%TO.C,D6*%
X50515000Y-73175000D02*
X50515000Y-75635000D01*
X50515000Y-75635000D02*
X51985000Y-75635000D01*
X51985000Y-75635000D02*
X51985000Y-73175000D01*
%TO.C,C30*%
X52626665Y-42600000D02*
X52858335Y-42600000D01*
X52626665Y-43320000D02*
X52858335Y-43320000D01*
%TO.C,R4*%
X58720000Y-64944879D02*
X58720000Y-65280121D01*
X59480000Y-64944879D02*
X59480000Y-65280121D01*
%TO.C,R20*%
X53670121Y-80820000D02*
X53334879Y-80820000D01*
X53670121Y-81580000D02*
X53334879Y-81580000D01*
%TO.C,C1*%
X62798335Y-86640000D02*
X62566665Y-86640000D01*
X62798335Y-87360000D02*
X62566665Y-87360000D01*
%TO.C,BTSEL1*%
X59750000Y-53100000D02*
X59750000Y-59300000D01*
X59750000Y-53100000D02*
X60210000Y-53100000D01*
X59750000Y-59300000D02*
X60210000Y-59300000D01*
X60210000Y-59300000D02*
X60210000Y-60300000D01*
X62990000Y-53100000D02*
X63450000Y-53100000D01*
X62990000Y-59300000D02*
X63450000Y-59300000D01*
X63450000Y-59300000D02*
X63450000Y-53100000D01*
X61050000Y-57700000D02*
X62100000Y-57700000D01*
X62100000Y-54850000D01*
X61050000Y-54850000D01*
X61050000Y-57700000D01*
D13*
%TO.C,L1*%
X51022999Y-47173000D02*
X51022999Y-50977000D01*
X51022999Y-50977000D02*
X52367259Y-52445346D01*
X52367259Y-45704654D02*
X51022999Y-47173000D01*
X56432741Y-52445346D02*
X57777001Y-50977000D01*
X57777001Y-47173000D02*
X56432741Y-45704654D01*
X57777001Y-50977000D02*
X57777001Y-47173000D01*
D12*
%TO.C,J7*%
X72640000Y-40110000D02*
X72640000Y-42610000D01*
X72640000Y-42610000D02*
X75140000Y-42610000D01*
X72940000Y-38290000D02*
X72940000Y-42310000D01*
X72940000Y-40000000D02*
X73440000Y-40000000D01*
X72940000Y-40810000D02*
X73940000Y-40810000D01*
X72940000Y-42310000D02*
X83160000Y-42310000D01*
X73440000Y-38790000D02*
X82660000Y-38790000D01*
X73440000Y-40000000D02*
X73440000Y-38790000D01*
X73940000Y-40810000D02*
X73940000Y-42310000D01*
X82160000Y-40810000D02*
X82160000Y-42310000D01*
X82660000Y-38790000D02*
X82660000Y-40000000D01*
X82660000Y-40000000D02*
X83160000Y-40000000D01*
X83160000Y-38290000D02*
X72940000Y-38290000D01*
X83160000Y-40810000D02*
X82160000Y-40810000D01*
X83160000Y-42310000D02*
X83160000Y-38290000D01*
%TO.C,R11*%
X94090121Y-63950000D02*
X93754879Y-63950000D01*
X94090121Y-64710000D02*
X93754879Y-64710000D01*
%TO.C,R9*%
X59470000Y-40479879D02*
X59470000Y-40815121D01*
X60230000Y-40479879D02*
X60230000Y-40815121D01*
%TO.C,C6*%
X59101665Y-75990000D02*
X59333335Y-75990000D01*
X59101665Y-76710000D02*
X59333335Y-76710000D01*
%TO.C,C7*%
X59096665Y-74990000D02*
X59328335Y-74990000D01*
X59096665Y-75710000D02*
X59328335Y-75710000D01*
%TO.C,C34*%
X70890000Y-52683767D02*
X70890000Y-52391233D01*
X71910000Y-52683767D02*
X71910000Y-52391233D01*
%TO.C,C5*%
X57316665Y-58840000D02*
X57548335Y-58840000D01*
X57316665Y-59560000D02*
X57548335Y-59560000D01*
%TO.C,C12*%
X62208335Y-75420000D02*
X61976665Y-75420000D01*
X62208335Y-76140000D02*
X61976665Y-76140000D01*
%TO.C,R14*%
X56310000Y-38789879D02*
X56310000Y-39125121D01*
X57070000Y-38789879D02*
X57070000Y-39125121D01*
%TO.C,R16*%
X65484879Y-51670000D02*
X65820121Y-51670000D01*
X65484879Y-52430000D02*
X65820121Y-52430000D01*
D13*
%TO.C,U6*%
X61066450Y-80858301D02*
X63073050Y-80858301D01*
X63073050Y-77581701D02*
X61066450Y-77581701D01*
X63073050Y-79583262D02*
X63073050Y-78856740D01*
D12*
%TO.C,C11*%
X62228335Y-74370000D02*
X61996665Y-74370000D01*
X62228335Y-75090000D02*
X61996665Y-75090000D01*
%TO.C,R5*%
X57330000Y-78189878D02*
X57330000Y-78525120D01*
X58090002Y-78189878D02*
X58090002Y-78525120D01*
%TO.C,C26*%
X51848335Y-41210000D02*
X51616665Y-41210000D01*
X51848335Y-41930000D02*
X51616665Y-41930000D01*
%TO.C,C2*%
X55528337Y-75280000D02*
X55296667Y-75280000D01*
X55528337Y-76000000D02*
X55296667Y-76000000D01*
%TO.C,C29*%
X54200000Y-43246665D02*
X54200000Y-43478335D01*
X54920000Y-43246665D02*
X54920000Y-43478335D01*
%TO.C,R10*%
X93120000Y-66267621D02*
X93120000Y-65932379D01*
X93880000Y-66267621D02*
X93880000Y-65932379D01*
%TO.C,D4*%
X57637500Y-82220000D02*
X52577500Y-82220000D01*
X57637500Y-84940000D02*
X52577500Y-84940000D01*
X57637500Y-84940000D02*
X57637500Y-82220000D01*
%TO.C,C25*%
X70640000Y-85998335D02*
X70640000Y-85766665D01*
X71360000Y-85998335D02*
X71360000Y-85766665D01*
%TO.C,D5*%
X48865000Y-73175000D02*
X48865000Y-75635000D01*
X48865000Y-75635000D02*
X50335000Y-75635000D01*
X50335000Y-75635000D02*
X50335000Y-73175000D01*
%TO.C,C3*%
X57340000Y-80601665D02*
X57340000Y-80833335D01*
X58060000Y-80601665D02*
X58060000Y-80833335D01*
%TO.C,C22*%
X62248335Y-85080000D02*
X62016665Y-85080000D01*
X62248335Y-85800000D02*
X62016665Y-85800000D01*
%TO.C,R13*%
X56290000Y-41234879D02*
X56290000Y-41570121D01*
X57050000Y-41234879D02*
X57050000Y-41570121D01*
%TO.C,J2*%
X56810000Y-90290000D02*
X56810000Y-88740000D01*
X56810000Y-90290000D02*
X57110000Y-90290000D01*
X57110000Y-93090000D02*
X57110000Y-90290000D01*
X59260000Y-87040000D02*
X60060000Y-87040000D01*
X59660000Y-87490000D02*
X59260000Y-87040000D01*
X60060000Y-87040000D02*
X59660000Y-87490000D01*
X64810000Y-90290000D02*
X65110000Y-90290000D01*
X64810000Y-93090000D02*
X64810000Y-90290000D01*
X65110000Y-90290000D02*
X65110000Y-88740000D01*
%TO.C,J8*%
X72640000Y-48160000D02*
X72640000Y-50660000D01*
X72640000Y-50660000D02*
X75140000Y-50660000D01*
X72940000Y-46340000D02*
X72940000Y-50360000D01*
X72940000Y-48050000D02*
X73440000Y-48050000D01*
X72940000Y-48860000D02*
X73940000Y-48860000D01*
X72940000Y-50360000D02*
X83160000Y-50360000D01*
X73440000Y-46840000D02*
X82660000Y-46840000D01*
X73440000Y-48050000D02*
X73440000Y-46840000D01*
X73940000Y-48860000D02*
X73940000Y-50360000D01*
X82160000Y-48860000D02*
X82160000Y-50360000D01*
X82660000Y-46840000D02*
X82660000Y-48050000D01*
X82660000Y-48050000D02*
X83160000Y-48050000D01*
X83160000Y-46340000D02*
X72940000Y-46340000D01*
X83160000Y-48860000D02*
X82160000Y-48860000D01*
X83160000Y-50360000D02*
X83160000Y-46340000D01*
%TO.C,BTSEL2*%
X75600000Y-54310000D02*
X75600000Y-53850000D01*
X75600000Y-57550000D02*
X75600000Y-57090000D01*
X75600000Y-57550000D02*
X81800000Y-57550000D01*
X81800000Y-53850000D02*
X75600000Y-53850000D01*
X81800000Y-54310000D02*
X81800000Y-53850000D01*
X81800000Y-57090000D02*
X82800000Y-57090000D01*
X81800000Y-57550000D02*
X81800000Y-57090000D01*
X80200000Y-56250000D02*
X77350000Y-56250000D01*
X77350000Y-55200000D01*
X80200000Y-55200000D01*
X80200000Y-56250000D01*
%TO.C,R19*%
X49020000Y-83065121D02*
X49020000Y-82729879D01*
X49780000Y-83065121D02*
X49780000Y-82729879D01*
%TO.C,R18*%
X50720000Y-77115121D02*
X50720000Y-76779879D01*
X51480000Y-77115121D02*
X51480000Y-76779879D01*
%TO.C,C18*%
X78998335Y-52640000D02*
X78766665Y-52640000D01*
X78998335Y-53360000D02*
X78766665Y-53360000D01*
D13*
%TO.C,U5*%
X61096450Y-84638301D02*
X63103050Y-84638301D01*
X63103050Y-81361701D02*
X61096450Y-81361701D01*
X63103050Y-83363262D02*
X63103050Y-82636740D01*
D12*
%TO.C,R8*%
X59470000Y-38079879D02*
X59470000Y-38415121D01*
X60230000Y-38079879D02*
X60230000Y-38415121D01*
%TO.C,C24*%
X64440000Y-78841233D02*
X64440000Y-79133767D01*
X65460000Y-78841233D02*
X65460000Y-79133767D01*
%TO.C,C27*%
X51483767Y-39440000D02*
X51191233Y-39440000D01*
X51483767Y-40460000D02*
X51191233Y-40460000D01*
%TO.C,C23*%
X64465000Y-82291233D02*
X64465000Y-82583767D01*
X65485000Y-82291233D02*
X65485000Y-82583767D01*
%TO.C,R1*%
X52070000Y-58220121D02*
X52070000Y-57884879D01*
X52830000Y-58220121D02*
X52830000Y-57884879D01*
%TO.C,D2*%
X89755000Y-64965000D02*
X92215000Y-64965000D01*
X92215000Y-63495000D02*
X89755000Y-63495000D01*
X92215000Y-64965000D02*
X92215000Y-63495000D01*
%TO.C,C33*%
X53916665Y-55240000D02*
X54148335Y-55240000D01*
X53916665Y-55960000D02*
X54148335Y-55960000D01*
%TO.C,C10*%
X60835000Y-65238335D02*
X60835000Y-65006665D01*
X61555000Y-65238335D02*
X61555000Y-65006665D01*
%TO.C,J1*%
X66500000Y-90320000D02*
X66500000Y-88770000D01*
X66500000Y-90320000D02*
X66800000Y-90320000D01*
X66800000Y-93120000D02*
X66800000Y-90320000D01*
X68950000Y-87070000D02*
X69750000Y-87070000D01*
X69350000Y-87520000D02*
X68950000Y-87070000D01*
X69750000Y-87070000D02*
X69350000Y-87520000D01*
X74500000Y-90320000D02*
X74800000Y-90320000D01*
X74500000Y-93120000D02*
X74500000Y-90320000D01*
X74800000Y-90320000D02*
X74800000Y-88770000D01*
%TO.C,R17*%
X49070000Y-77165121D02*
X49070000Y-76829879D01*
X49830000Y-77165121D02*
X49830000Y-76829879D01*
D14*
%TO.C,U1*%
X53259998Y-39805000D02*
X53259998Y-40004999D01*
X53259998Y-41805001D02*
X53259998Y-42005000D01*
X53459997Y-39805000D02*
X53259998Y-39805000D01*
X53459997Y-42005000D02*
X53259998Y-42005000D01*
X55860002Y-39805000D02*
X55660003Y-39805000D01*
X55860002Y-39805000D02*
X55860002Y-40004999D01*
X55860002Y-41805001D02*
X55860002Y-42005000D01*
X55860002Y-42005000D02*
X55260001Y-42005000D01*
D12*
%TO.C,J3*%
X41080000Y-41730000D02*
X42460000Y-41730000D01*
X41080000Y-43110000D02*
X41080000Y-41730000D01*
X41080000Y-44380000D02*
X41080000Y-62270000D01*
X41080000Y-44380000D02*
X43730000Y-44380000D01*
X41080000Y-62270000D02*
X46380000Y-62270000D01*
X43730000Y-41730000D02*
X46380000Y-41730000D01*
X43730000Y-44380000D02*
X43730000Y-41730000D01*
X46380000Y-41730000D02*
X46380000Y-62270000D01*
%TO.C,U3*%
X52915000Y-67727500D02*
X52915000Y-67317500D01*
X52915000Y-74297500D02*
X52915000Y-73647500D01*
X53565000Y-67077500D02*
X53215000Y-67077500D01*
X53565000Y-74297500D02*
X52915000Y-74297500D01*
X59485000Y-67077500D02*
X60135000Y-67077500D01*
X59485000Y-74297500D02*
X60135000Y-74297500D01*
X60135000Y-67077500D02*
X60135000Y-67727500D01*
X60135000Y-74297500D02*
X60135000Y-73647500D01*
X52915000Y-67077500D02*
X52675000Y-66747500D01*
X53155000Y-66747500D01*
X52915000Y-67077500D01*
G36*
X52915000Y-67077500D02*
G01*
X52675000Y-66747500D01*
X53155000Y-66747500D01*
X52915000Y-67077500D01*
G37*
%TO.C,C16*%
X62263335Y-73350000D02*
X62031665Y-73350000D01*
X62263335Y-74070000D02*
X62031665Y-74070000D01*
%TO.C,R6*%
X59055000Y-82884879D02*
X59055000Y-83220121D01*
X59815000Y-82884879D02*
X59815000Y-83220121D01*
%TO.C,C17*%
X54340000Y-57916665D02*
X54340000Y-58148335D01*
X55060000Y-57916665D02*
X55060000Y-58148335D01*
%TO.C,J5*%
X73540000Y-34110000D02*
X73540000Y-36610000D01*
X73540000Y-36610000D02*
X76040000Y-36610000D01*
X73840000Y-32290000D02*
X73840000Y-36310000D01*
X73840000Y-34000000D02*
X74340000Y-34000000D01*
X73840000Y-34810000D02*
X74840000Y-34810000D01*
X73840000Y-36310000D02*
X81560000Y-36310000D01*
X74340000Y-32790000D02*
X81060000Y-32790000D01*
X74340000Y-34000000D02*
X74340000Y-32790000D01*
X74840000Y-34810000D02*
X74840000Y-36310000D01*
X80560000Y-34810000D02*
X80560000Y-36310000D01*
X81060000Y-32790000D02*
X81060000Y-34000000D01*
X81060000Y-34000000D02*
X81560000Y-34000000D01*
X81560000Y-32290000D02*
X73840000Y-32290000D01*
X81560000Y-34810000D02*
X80560000Y-34810000D01*
X81560000Y-36310000D02*
X81560000Y-32290000D01*
%TD*%
M02*
