M48
; DRILL file {KiCad 9.0.1} date 2025-04-26T03:22:38-0400
; FORMAT={-:-/ absolute / metric / decimal}
; #@! TF.CreationDate,2025-04-26T03:22:38-04:00
; #@! TF.GenerationSoftware,Kicad,Pcbnew,9.0.1
; #@! TF.FileFunction,Plated,1,4,PTH
FMAT,2
METRIC
; #@! TA.AperFunction,Plated,PTH,ComponentDrill
T1C0.200
; #@! TA.AperFunction,Plated,PTH,ViaDrill
T2C0.300
; #@! TA.AperFunction,Plated,PTH,ViaDrill
T3C0.350
; #@! TA.AperFunction,Plated,PTH,ComponentDrill
T4C0.650
; #@! TA.AperFunction,Plated,PTH,ComponentDrill
T5C0.700
; #@! TA.AperFunction,Plated,PTH,ComponentDrill
T6C0.950
; #@! TA.AperFunction,Plated,PTH,ComponentDrill
T7C1.000
; #@! TA.AperFunction,Plated,PTH,ComponentDrill
T8C1.300
; #@! TA.AperFunction,Plated,PTH,ComponentDrill
T9C2.700
; #@! TA.AperFunction,Plated,PTH,ComponentDrill
T10C3.200
%
G90
G05
T1
X55.175Y-69.337
X55.175Y-72.037
X57.875Y-69.337
X57.875Y-72.037
T2
X41.45Y-44.6
X41.65Y-46.95
X41.7Y-40.35
X43.65Y-50.2
X43.65Y-54.45
X43.7Y-38.05
X43.7Y-47.6
X43.7Y-57.0
X43.75Y-48.7
X43.75Y-59.8
X43.8Y-46.25
X43.8Y-52.0
X43.8Y-63.15
X43.85Y-44.4
X45.65Y-44.5
X45.8Y-46.75
X45.9Y-40.45
X46.2Y-51.95
X46.25Y-54.6
X46.4Y-59.7
X46.5Y-50.25
X48.0Y-38.65
X48.05Y-55.55
X48.4Y-47.85
X48.4Y-52.35
X48.6Y-43.85
X49.3Y-63.55
X49.3Y-65.65
X49.4Y-64.35
X50.5Y-82.8
X50.55Y-29.85
X51.7Y-71.55
X52.0Y-68.85
X52.1Y-56.0
X52.6Y-60.85
X52.9Y-78.85
X52.95Y-80.05
X53.0Y-65.9
X53.0Y-76.45
X53.0Y-77.7
X53.45Y-60.0
X53.55Y-29.45
X53.55Y-62.6
X53.7Y-75.2
X54.5Y-70.7
X54.6Y-68.9
X55.25Y-80.75
X55.4Y-59.2
X55.45Y-21.2
X55.85Y-72.7
X55.95Y-68.65
X56.15Y-80.8
X56.2Y-55.35
X57.05Y-54.0
X58.15Y-83.5
X58.55Y-80.95
X58.65Y-62.55
X58.8Y-77.45
X59.1Y-21.2
X59.7Y-84.8
X60.0Y-81.15
X60.1Y-49.35
X60.1Y-62.1
X60.1Y-77.3
X60.6Y-85.5
X60.88Y-90.0
X60.9Y-67.5
X61.032Y-68.682
X61.062Y-69.688
X61.15Y-66.45
X61.3Y-86.3
X61.85Y-64.7
X61.85Y-83.05
X62.0Y-70.1
X62.05Y-78.9
X62.05Y-82.15
X62.05Y-83.95
X62.4Y-62.1
X62.55Y-70.75
X62.65Y-72.0
X63.3Y-72.5
X63.6Y-78.95
X63.7Y-77.55
X63.9Y-58.6
X63.9Y-86.5
X64.1Y-50.05
X64.2Y-67.7
X64.25Y-68.85
X64.65Y-52.85
X65.1Y-66.95
X65.4Y-84.9
X65.8Y-48.95
X65.8Y-73.9
X65.8Y-74.9
X65.8Y-75.8
X65.8Y-76.9
X65.8Y-92.2
X65.85Y-55.45
X65.85Y-89.6
X65.9Y-88.3
X65.95Y-90.65
X66.15Y-50.2
X66.25Y-69.0
X66.5Y-86.5
X66.55Y-57.3
X66.9Y-71.6
X66.95Y-21.3
X67.3Y-83.2
X67.35Y-36.55
X67.5Y-55.65
X67.65Y-49.5
X67.9Y-72.2
X67.95Y-73.2
X67.95Y-74.1
X67.95Y-74.9
X67.95Y-75.7
X67.95Y-77.55
X67.95Y-78.65
X67.95Y-79.9
X68.0Y-76.6
X68.0Y-81.35
X68.05Y-61.8
X68.05Y-64.0
X68.15Y-85.95
X68.2Y-60.0
X68.4Y-62.5
X68.5Y-51.85
X68.8Y-54.65
X68.95Y-48.7
X69.8Y-65.05
X69.8Y-90.0
X69.85Y-83.45
X70.5Y-49.7
X70.6Y-87.3
X71.35Y-54.65
X71.5Y-64.8
X71.6Y-72.95
X71.65Y-75.85
X71.8Y-81.05
X71.8Y-90.1
X72.05Y-86.7
X72.1Y-85.5
X72.15Y-47.55
X72.5Y-54.9
X72.75Y-68.85
X72.8Y-65.95
X73.15Y-86.3
X73.35Y-85.45
X73.35Y-87.1
X73.7Y-82.0
X73.85Y-21.3
X73.95Y-73.05
X73.95Y-73.85
X73.95Y-75.2
X74.05Y-86.0
X74.05Y-86.9
X74.35Y-51.7
X74.35Y-54.3
X74.5Y-75.9
X75.1Y-66.25
X75.5Y-53.2
X76.05Y-76.3
X76.4Y-26.0
X76.8Y-52.3
X76.95Y-82.15
X77.0Y-70.7
X77.05Y-76.1
X77.55Y-69.55
X78.1Y-76.2
X78.45Y-68.75
X78.5Y-51.1
X79.4Y-73.0
X79.4Y-74.4
X80.7Y-51.35
X80.9Y-72.0
X81.4Y-75.1
X81.6Y-78.7
X81.75Y-52.2
X81.85Y-72.0
X81.9Y-82.05
X82.15Y-21.45
X82.8Y-71.95
X83.75Y-71.95
X84.1Y-48.85
X84.2Y-50.6
X84.2Y-52.5
X84.65Y-71.9
X85.55Y-22.05
X85.55Y-71.8
X86.0Y-30.1
X86.4Y-33.2
X86.6Y-28.0
X87.6Y-35.6
X89.3Y-41.55
X89.3Y-47.9
X89.3Y-51.15
X89.525Y-55.575
X89.95Y-59.0
X90.9Y-59.6
X91.95Y-39.6
X92.85Y-59.3
X93.0Y-56.95
X93.2Y-46.95
X93.2Y-49.45
X93.35Y-52.1
X93.4Y-61.3
X93.6Y-44.5
X95.5Y-57.05
X95.7Y-55.1
T3
X56.7Y-66.1
X57.127Y-72.778
X57.227Y-68.578
X57.527Y-75.177
T6
X75.55Y-40.0
X75.55Y-48.05
X78.05Y-40.0
X78.05Y-48.05
X80.55Y-40.0
X80.55Y-48.05
T7
X42.46Y-43.11
X42.46Y-45.65
X42.46Y-48.19
X42.46Y-50.73
X42.46Y-53.27
X42.46Y-55.81
X42.46Y-58.35
X42.46Y-60.89
X45.0Y-43.11
X45.0Y-45.65
X45.0Y-48.19
X45.0Y-50.73
X45.0Y-53.27
X45.0Y-55.81
X45.0Y-58.35
X45.0Y-60.89
X63.3Y-23.46
X63.3Y-26.0
X65.84Y-23.46
X65.84Y-26.0
X68.38Y-23.46
X68.38Y-26.0
X70.92Y-23.46
X70.92Y-26.0
X73.46Y-23.46
X73.46Y-26.0
X76.45Y-34.0
X78.95Y-34.0
X92.0Y-43.11
X92.0Y-45.65
X92.0Y-48.19
X92.0Y-50.73
X92.0Y-53.27
X92.0Y-55.81
X92.0Y-58.35
X92.0Y-60.89
X94.54Y-43.11
X94.54Y-45.65
X94.54Y-48.19
X94.54Y-50.73
X94.54Y-53.27
X94.54Y-55.81
X94.54Y-58.35
X94.54Y-60.89
T8
X61.6Y-52.95
X61.6Y-59.45
X75.45Y-55.7
X76.55Y-86.0
X79.297Y-91.891
X81.95Y-55.7
T9
X53.3Y-33.7
X58.3Y-33.7
T10
X53.535Y-25.0
X53.535Y-89.0
X83.535Y-25.0
X83.535Y-89.0
T4
X58.54Y-88.67G85X58.54Y-88.27
G05
X63.38Y-88.67G85X63.38Y-88.27
G05
X68.23Y-88.7G85X68.23Y-88.3
G05
X73.07Y-88.7G85X73.07Y-88.3
G05
T5
X58.23Y-91.72G85X58.23Y-91.22
G05
X63.69Y-91.72G85X63.69Y-91.22
G05
X67.92Y-91.75G85X67.92Y-91.25
G05
X73.38Y-91.75G85X73.38Y-91.25
G05
M30
