%TF.GenerationSoftware,KiCad,Pcbnew,9.0.1*%
%TF.CreationDate,2025-04-26T03:22:34-04:00*%
%TF.ProjectId,MainBoardPCB,4d61696e-426f-4617-9264-5043422e6b69,rev?*%
%TF.SameCoordinates,Original*%
%TF.FileFunction,Profile,NP*%
%FSLAX46Y46*%
G04 Gerber Fmt 4.6, Leading zero omitted, Abs format (unit mm)*
G04 Created by KiCad (PCBNEW 9.0.1) date 2025-04-26 03:22:34*
%MOMM*%
%LPD*%
G01*
G04 APERTURE LIST*
%TA.AperFunction,Profile*%
%ADD10C,0.200000*%
%TD*%
G04 APERTURE END LIST*
D10*
X92535534Y-36101021D02*
G75*
G02*
X88535551Y-31194829I1000066J4899021D01*
G01*
X44535534Y-67898979D02*
G75*
G02*
X40535605Y-63000002I999966J4898879D01*
G01*
X92535534Y-36101021D02*
G75*
G02*
X96535622Y-41000000I-1000134J-4899179D01*
G01*
X83535400Y-20000000D02*
G75*
G02*
X88535533Y-24974410I0J-5000200D01*
G01*
X88535534Y-89000020D02*
G75*
G02*
X83535534Y-93999994I-4999974J0D01*
G01*
X88535534Y-89000020D02*
X88535534Y-73000000D01*
X48535534Y-25000030D02*
X48535534Y-31000020D01*
X88535534Y-73000000D02*
G75*
G02*
X92535523Y-68100969I5000066J0D01*
G01*
X83535400Y-20000000D02*
X53527815Y-20000000D01*
X96535534Y-63202040D02*
X96535534Y-41000000D01*
X48535534Y-31000020D02*
G75*
G02*
X44535534Y-35898978I-4999974J0D01*
G01*
X53535500Y-94000000D02*
X83535534Y-94000000D01*
X53535500Y-94000000D02*
G75*
G02*
X48535600Y-89000001I0J4999900D01*
G01*
X44535534Y-67898979D02*
G75*
G02*
X48535534Y-72809401I-1000034J-4899021D01*
G01*
X48535534Y-72809401D02*
X48535534Y-89000001D01*
X96535534Y-63202040D02*
G75*
G02*
X92535533Y-68101015I-4999994J0D01*
G01*
X88535534Y-31194829D02*
X88535534Y-24974410D01*
X48535534Y-25000030D02*
G75*
G02*
X53527815Y-20000000I5000036J0D01*
G01*
X40535534Y-40797960D02*
G75*
G02*
X44535535Y-35898984I4999996J0D01*
G01*
X40535534Y-40797960D02*
X40535534Y-63000002D01*
M02*
