%TF.GenerationSoftware,KiCad,Pcbnew,9.0.1*%
%TF.CreationDate,2025-04-26T03:22:34-04:00*%
%TF.ProjectId,MainBoardPCB,4d61696e-426f-4617-9264-5043422e6b69,rev?*%
%TF.SameCoordinates,Original*%
%TF.FileFunction,Soldermask,Bot*%
%TF.FilePolarity,Negative*%
%FSLAX46Y46*%
G04 Gerber Fmt 4.6, Leading zero omitted, Abs format (unit mm)*
G04 Created by KiCad (PCBNEW 9.0.1) date 2025-04-26 03:22:34*
%MOMM*%
%LPD*%
G01*
G04 APERTURE LIST*
G04 Aperture macros list*
%AMRoundRect*
0 Rectangle with rounded corners*
0 $1 Rounding radius*
0 $2 $3 $4 $5 $6 $7 $8 $9 X,Y pos of 4 corners*
0 Add a 4 corners polygon primitive as box body*
4,1,4,$2,$3,$4,$5,$6,$7,$8,$9,$2,$3,0*
0 Add four circle primitives for the rounded corners*
1,1,$1+$1,$2,$3*
1,1,$1+$1,$4,$5*
1,1,$1+$1,$6,$7*
1,1,$1+$1,$8,$9*
0 Add four rect primitives between the rounded corners*
20,1,$1+$1,$2,$3,$4,$5,0*
20,1,$1+$1,$4,$5,$6,$7,0*
20,1,$1+$1,$6,$7,$8,$9,0*
20,1,$1+$1,$8,$9,$2,$3,0*%
%AMRotRect*
0 Rectangle, with rotation*
0 The origin of the aperture is its center*
0 $1 length*
0 $2 width*
0 $3 Rotation angle, in degrees counterclockwise*
0 Add horizontal line*
21,1,$1,$2,0,0,$3*%
G04 Aperture macros list end*
%ADD10RoundRect,0.760000X1.140000X1.140000X-1.140000X1.140000X-1.140000X-1.140000X1.140000X-1.140000X0*%
%ADD11C,3.800000*%
%ADD12RotRect,2.250000X2.250000X205.000000*%
%ADD13C,2.250000*%
%ADD14R,1.700000X1.700000*%
%ADD15C,1.700000*%
%ADD16C,3.600000*%
%ADD17C,5.600000*%
%ADD18R,2.250000X2.250000*%
%ADD19RoundRect,0.250000X-0.600000X-0.725000X0.600000X-0.725000X0.600000X0.725000X-0.600000X0.725000X0*%
%ADD20O,1.700000X1.950000*%
%ADD21O,1.350000X1.700000*%
%ADD22O,1.100000X1.500000*%
%ADD23RoundRect,0.250000X-0.600000X-0.750000X0.600000X-0.750000X0.600000X0.750000X-0.600000X0.750000X0*%
%ADD24O,1.700000X2.000000*%
G04 APERTURE END LIST*
D10*
%TO.C,J6*%
X58300000Y-33700000D03*
D11*
X53300000Y-33700000D03*
%TD*%
D12*
%TO.C,BTSEL3*%
X79297019Y-91891000D03*
D13*
X76549999Y-86000000D03*
%TD*%
D14*
%TO.C,J4*%
X94540000Y-60890000D03*
D15*
X92000000Y-60890000D03*
X94540000Y-58350000D03*
X92000000Y-58350000D03*
X94540000Y-55810000D03*
X92000000Y-55810000D03*
X94540000Y-53270000D03*
X92000000Y-53270000D03*
X94540000Y-50730000D03*
X92000000Y-50730000D03*
X94540000Y-48190000D03*
X92000000Y-48190000D03*
X94540000Y-45650000D03*
X92000000Y-45650000D03*
X94540000Y-43110000D03*
X92000000Y-43110000D03*
%TD*%
D16*
%TO.C,H1*%
X53535500Y-25000000D03*
D17*
X53535500Y-25000000D03*
%TD*%
D14*
%TO.C,J9*%
X73460000Y-23460000D03*
D15*
X73460000Y-26000000D03*
X70920000Y-23460000D03*
X70920000Y-26000000D03*
X68380000Y-23460000D03*
X68380000Y-26000000D03*
X65840000Y-23460000D03*
X65840000Y-26000000D03*
X63300000Y-23460000D03*
X63300000Y-26000000D03*
%TD*%
D18*
%TO.C,BTSEL1*%
X61600000Y-59450000D03*
D13*
X61600000Y-52950000D03*
%TD*%
D19*
%TO.C,J7*%
X75550000Y-40000000D03*
D20*
X78050000Y-40000000D03*
X80550000Y-40000000D03*
%TD*%
D16*
%TO.C,H2*%
X83535500Y-25000000D03*
D17*
X83535500Y-25000000D03*
%TD*%
D21*
%TO.C,J2*%
X58230000Y-91470000D03*
D22*
X58540000Y-88470000D03*
X63380000Y-88470000D03*
D21*
X63690000Y-91470000D03*
%TD*%
D19*
%TO.C,J8*%
X75550000Y-48050000D03*
D20*
X78050000Y-48050000D03*
X80550000Y-48050000D03*
%TD*%
D18*
%TO.C,BTSEL2*%
X81950000Y-55700000D03*
D13*
X75450000Y-55700000D03*
%TD*%
D16*
%TO.C,H4*%
X53535500Y-89000000D03*
D17*
X53535500Y-89000000D03*
%TD*%
D16*
%TO.C,H3*%
X83535500Y-89000000D03*
D17*
X83535500Y-89000000D03*
%TD*%
D21*
%TO.C,J1*%
X67920000Y-91500000D03*
D22*
X68230000Y-88500000D03*
X73070000Y-88500000D03*
D21*
X73380000Y-91500000D03*
%TD*%
D14*
%TO.C,J3*%
X42460000Y-43110000D03*
D15*
X45000000Y-43110000D03*
X42460000Y-45650000D03*
X45000000Y-45650000D03*
X42460000Y-48190000D03*
X45000000Y-48190000D03*
X42460000Y-50730000D03*
X45000000Y-50730000D03*
X42460000Y-53270000D03*
X45000000Y-53270000D03*
X42460000Y-55810000D03*
X45000000Y-55810000D03*
X42460000Y-58350000D03*
X45000000Y-58350000D03*
X42460000Y-60890000D03*
X45000000Y-60890000D03*
%TD*%
D23*
%TO.C,J5*%
X76450000Y-34000000D03*
D24*
X78950000Y-34000000D03*
%TD*%
M02*
