%TF.GenerationSoftware,KiCad,Pcbnew,9.0.1*%
%TF.CreationDate,2025-04-26T03:22:34-04:00*%
%TF.ProjectId,MainBoardPCB,4d61696e-426f-4617-9264-5043422e6b69,rev?*%
%TF.SameCoordinates,Original*%
%TF.FileFunction,Soldermask,Top*%
%TF.FilePolarity,Negative*%
%FSLAX46Y46*%
G04 Gerber Fmt 4.6, Leading zero omitted, Abs format (unit mm)*
G04 Created by KiCad (PCBNEW 9.0.1) date 2025-04-26 03:22:34*
%MOMM*%
%LPD*%
G01*
G04 APERTURE LIST*
G04 Aperture macros list*
%AMRoundRect*
0 Rectangle with rounded corners*
0 $1 Rounding radius*
0 $2 $3 $4 $5 $6 $7 $8 $9 X,Y pos of 4 corners*
0 Add a 4 corners polygon primitive as box body*
4,1,4,$2,$3,$4,$5,$6,$7,$8,$9,$2,$3,0*
0 Add four circle primitives for the rounded corners*
1,1,$1+$1,$2,$3*
1,1,$1+$1,$4,$5*
1,1,$1+$1,$6,$7*
1,1,$1+$1,$8,$9*
0 Add four rect primitives between the rounded corners*
20,1,$1+$1,$2,$3,$4,$5,0*
20,1,$1+$1,$4,$5,$6,$7,0*
20,1,$1+$1,$6,$7,$8,$9,0*
20,1,$1+$1,$8,$9,$2,$3,0*%
%AMRotRect*
0 Rectangle, with rotation*
0 The origin of the aperture is its center*
0 $1 length*
0 $2 width*
0 $3 Rotation angle, in degrees counterclockwise*
0 Add horizontal line*
21,1,$1,$2,0,0,$3*%
G04 Aperture macros list end*
%ADD10RoundRect,0.160000X0.160000X-0.197500X0.160000X0.197500X-0.160000X0.197500X-0.160000X-0.197500X0*%
%ADD11R,0.304800X0.533400*%
%ADD12R,0.533400X0.304800*%
%ADD13R,1.524000X0.533400*%
%ADD14RoundRect,0.155000X-0.212500X-0.155000X0.212500X-0.155000X0.212500X0.155000X-0.212500X0.155000X0*%
%ADD15RoundRect,0.155000X-0.155000X0.212500X-0.155000X-0.212500X0.155000X-0.212500X0.155000X0.212500X0*%
%ADD16RoundRect,0.160000X-0.160000X0.197500X-0.160000X-0.197500X0.160000X-0.197500X0.160000X0.197500X0*%
%ADD17RoundRect,0.760000X1.140000X1.140000X-1.140000X1.140000X-1.140000X-1.140000X1.140000X-1.140000X0*%
%ADD18C,3.800000*%
%ADD19RoundRect,0.237500X0.287500X0.237500X-0.287500X0.237500X-0.287500X-0.237500X0.287500X-0.237500X0*%
%ADD20RotRect,2.250000X2.250000X205.000000*%
%ADD21C,2.250000*%
%ADD22R,1.700000X1.700000*%
%ADD23C,1.700000*%
%ADD24RoundRect,0.155000X0.155000X-0.212500X0.155000X0.212500X-0.155000X0.212500X-0.155000X-0.212500X0*%
%ADD25R,1.200000X1.400000*%
%ADD26RoundRect,0.250000X-0.450000X-0.800000X0.450000X-0.800000X0.450000X0.800000X-0.450000X0.800000X0*%
%ADD27C,3.600000*%
%ADD28C,5.600000*%
%ADD29RoundRect,0.237500X0.237500X-0.287500X0.237500X0.287500X-0.237500X0.287500X-0.237500X-0.287500X0*%
%ADD30RoundRect,0.155000X0.212500X0.155000X-0.212500X0.155000X-0.212500X-0.155000X0.212500X-0.155000X0*%
%ADD31RoundRect,0.237500X-0.300000X-0.237500X0.300000X-0.237500X0.300000X0.237500X-0.300000X0.237500X0*%
%ADD32R,1.498600X0.812800*%
%ADD33R,0.812800X1.498600*%
%ADD34R,0.889000X0.889000*%
%ADD35RoundRect,0.160000X0.197500X0.160000X-0.197500X0.160000X-0.197500X-0.160000X0.197500X-0.160000X0*%
%ADD36R,2.250000X2.250000*%
%ADD37R,3.400001X1.850000*%
%ADD38RoundRect,0.250000X-0.600000X-0.725000X0.600000X-0.725000X0.600000X0.725000X-0.600000X0.725000X0*%
%ADD39O,1.700000X1.950000*%
%ADD40RoundRect,0.237500X0.237500X-0.300000X0.237500X0.300000X-0.237500X0.300000X-0.237500X-0.300000X0*%
%ADD41RoundRect,0.160000X-0.197500X-0.160000X0.197500X-0.160000X0.197500X0.160000X-0.197500X0.160000X0*%
%ADD42R,0.977900X0.508000*%
%ADD43RoundRect,0.250000X0.450000X0.800000X-0.450000X0.800000X-0.450000X-0.800000X0.450000X-0.800000X0*%
%ADD44R,0.400000X1.650000*%
%ADD45R,1.825000X0.700000*%
%ADD46R,2.000000X1.500000*%
%ADD47R,1.350000X2.000000*%
%ADD48O,1.350000X1.700000*%
%ADD49O,1.100000X1.500000*%
%ADD50R,1.430000X2.500000*%
%ADD51RoundRect,0.237500X-0.237500X0.300000X-0.237500X-0.300000X0.237500X-0.300000X0.237500X0.300000X0*%
%ADD52RoundRect,0.237500X0.300000X0.237500X-0.300000X0.237500X-0.300000X-0.237500X0.300000X-0.237500X0*%
%ADD53R,0.549999X0.249999*%
%ADD54R,0.249999X1.000000*%
%ADD55R,0.249999X1.300000*%
%ADD56R,0.249999X0.549999*%
%ADD57RoundRect,0.050000X-0.387500X-0.050000X0.387500X-0.050000X0.387500X0.050000X-0.387500X0.050000X0*%
%ADD58RoundRect,0.050000X-0.050000X-0.387500X0.050000X-0.387500X0.050000X0.387500X-0.050000X0.387500X0*%
%ADD59R,3.200000X3.200000*%
%ADD60RoundRect,0.250000X-0.600000X-0.750000X0.600000X-0.750000X0.600000X0.750000X-0.600000X0.750000X0*%
%ADD61O,1.700000X2.000000*%
G04 APERTURE END LIST*
D10*
%TO.C,R12*%
X67260000Y-69495000D03*
X67260000Y-68300000D03*
%TD*%
D11*
%TO.C,U7*%
X67749999Y-53181100D03*
X68250000Y-53181100D03*
X68750000Y-53181100D03*
X69250001Y-53181100D03*
D12*
X69427100Y-52499999D03*
X69427100Y-52000000D03*
X69427100Y-51500001D03*
D11*
X69250001Y-50818900D03*
X68750000Y-50818900D03*
X68250000Y-50818900D03*
X67749999Y-50818900D03*
D12*
X67572900Y-51500001D03*
X67572900Y-52000000D03*
X67572900Y-52499999D03*
%TD*%
D13*
%TO.C,U2*%
X48110200Y-60330000D03*
X48110200Y-61600000D03*
X48110200Y-62870000D03*
X48110200Y-64140000D03*
X55400000Y-64140000D03*
X55400000Y-62870000D03*
X55400000Y-61600000D03*
X55400000Y-60330000D03*
%TD*%
D14*
%TO.C,C19*%
X66695000Y-70610000D03*
X67830000Y-70610000D03*
%TD*%
D15*
%TO.C,C20*%
X66690000Y-66010000D03*
X66690000Y-67145000D03*
%TD*%
D10*
%TO.C,R15*%
X66250008Y-54395000D03*
X66250000Y-53200000D03*
%TD*%
D16*
%TO.C,R2*%
X53600000Y-57450000D03*
X53600000Y-58645000D03*
%TD*%
D17*
%TO.C,J6*%
X58300000Y-33700000D03*
D18*
X53300000Y-33700000D03*
%TD*%
D14*
%TO.C,C9*%
X63890000Y-75730000D03*
X65025000Y-75730000D03*
%TD*%
D16*
%TO.C,R7*%
X59345000Y-78690000D03*
X59345000Y-79885000D03*
%TD*%
D19*
%TO.C,D1*%
X91850000Y-66450000D03*
X90100000Y-66450000D03*
%TD*%
D20*
%TO.C,BTSEL3*%
X79297019Y-91891000D03*
D21*
X76549999Y-86000000D03*
%TD*%
D14*
%TO.C,C15*%
X63890000Y-73770000D03*
X65025000Y-73770000D03*
%TD*%
D22*
%TO.C,J4*%
X94540000Y-60890000D03*
D23*
X92000000Y-60890000D03*
X94540000Y-58350000D03*
X92000000Y-58350000D03*
X94540000Y-55810000D03*
X92000000Y-55810000D03*
X94540000Y-53270000D03*
X92000000Y-53270000D03*
X94540000Y-50730000D03*
X92000000Y-50730000D03*
X94540000Y-48190000D03*
X92000000Y-48190000D03*
X94540000Y-45650000D03*
X92000000Y-45650000D03*
X94540000Y-43110000D03*
X92000000Y-43110000D03*
%TD*%
D24*
%TO.C,C8*%
X60160000Y-65690000D03*
X60160000Y-64555000D03*
%TD*%
D25*
%TO.C,Y1*%
X54590000Y-77190000D03*
X54590000Y-79390000D03*
X56290000Y-79390000D03*
X56290000Y-77190000D03*
%TD*%
D26*
%TO.C,D3*%
X65050000Y-85950000D03*
X69450000Y-85950000D03*
%TD*%
D27*
%TO.C,H1*%
X53535500Y-25000000D03*
D28*
X53535500Y-25000000D03*
%TD*%
D29*
%TO.C,D7*%
X49750000Y-80750000D03*
X49750000Y-79000000D03*
%TD*%
%TO.C,D8*%
X51500000Y-80750000D03*
X51500000Y-79000000D03*
%TD*%
D22*
%TO.C,J9*%
X73460000Y-23460000D03*
D23*
X73460000Y-26000000D03*
X70920000Y-23460000D03*
X70920000Y-26000000D03*
X68380000Y-23460000D03*
X68380000Y-26000000D03*
X65840000Y-23460000D03*
X65840000Y-26000000D03*
X63300000Y-23460000D03*
X63300000Y-26000000D03*
%TD*%
D14*
%TO.C,C14*%
X63900000Y-74700000D03*
X65035000Y-74700000D03*
%TD*%
D15*
%TO.C,C21*%
X67770000Y-66030000D03*
X67770000Y-67165000D03*
%TD*%
D14*
%TO.C,C13*%
X63880000Y-76820000D03*
X65015000Y-76820000D03*
%TD*%
D16*
%TO.C,R3*%
X57950000Y-64500000D03*
X57950000Y-65695000D03*
%TD*%
D30*
%TO.C,C4*%
X62660000Y-76810000D03*
X61525000Y-76810000D03*
%TD*%
D14*
%TO.C,C28*%
X56010000Y-43100000D03*
X57145000Y-43100000D03*
%TD*%
D24*
%TO.C,C31*%
X57780000Y-42000000D03*
X57780000Y-40865000D03*
%TD*%
D31*
%TO.C,C32*%
X53200000Y-54150000D03*
X54925000Y-54150000D03*
%TD*%
D32*
%TO.C,U4*%
X69435000Y-65860000D03*
X69435000Y-67130000D03*
X69435000Y-68400000D03*
X69435000Y-69670000D03*
X69435000Y-70940000D03*
X69435000Y-72210000D03*
X69435000Y-73480000D03*
X69435000Y-74750000D03*
X69435000Y-76020000D03*
X69435000Y-77290000D03*
X69435000Y-78560000D03*
X69435000Y-79830000D03*
X69435000Y-81100000D03*
X69435000Y-82370000D03*
D33*
X71200000Y-83620000D03*
X72470000Y-83620000D03*
X73740000Y-83620000D03*
X75010000Y-83620000D03*
X76280000Y-83620000D03*
X77550000Y-83620000D03*
X78820000Y-83620000D03*
X80090000Y-83620000D03*
X81360000Y-83620000D03*
X82630000Y-83620000D03*
X83900000Y-83620000D03*
X85170000Y-83620000D03*
D32*
X86935000Y-82370000D03*
X86935000Y-81100000D03*
X86935000Y-79830000D03*
X86935000Y-78560000D03*
X86935000Y-77290000D03*
X86935000Y-76020000D03*
X86935000Y-74750000D03*
X86935000Y-73480000D03*
X86935000Y-72210000D03*
X86935000Y-70940000D03*
X86935000Y-69670000D03*
X86935000Y-68400000D03*
X86935000Y-67130000D03*
X86935000Y-65860000D03*
D34*
X76685000Y-73580000D03*
X75285000Y-72180000D03*
X75285000Y-73580000D03*
X75285000Y-74980000D03*
X76685000Y-74980000D03*
X78085000Y-74980000D03*
X78085000Y-73580000D03*
X78085000Y-72180000D03*
X76685000Y-72180000D03*
%TD*%
D29*
%TO.C,D6*%
X51250000Y-74850000D03*
X51250000Y-73100000D03*
%TD*%
D14*
%TO.C,C30*%
X52175000Y-42960000D03*
X53310000Y-42960000D03*
%TD*%
D16*
%TO.C,R4*%
X59100000Y-64515000D03*
X59100000Y-65710000D03*
%TD*%
D35*
%TO.C,R20*%
X54100000Y-81200000D03*
X52905000Y-81200000D03*
%TD*%
D30*
%TO.C,C1*%
X63250000Y-87000000D03*
X62115000Y-87000000D03*
%TD*%
D36*
%TO.C,BTSEL1*%
X61600000Y-59450000D03*
D21*
X61600000Y-52950000D03*
%TD*%
D37*
%TO.C,L1*%
X54400000Y-46300000D03*
X54400000Y-51850000D03*
%TD*%
D38*
%TO.C,J7*%
X75550000Y-40000000D03*
D39*
X78050000Y-40000000D03*
X80550000Y-40000000D03*
%TD*%
D35*
%TO.C,R11*%
X94520000Y-64330000D03*
X93325000Y-64330000D03*
%TD*%
D16*
%TO.C,R9*%
X59850000Y-40050000D03*
X59850000Y-41245000D03*
%TD*%
D14*
%TO.C,C6*%
X58650000Y-76350000D03*
X59785000Y-76350000D03*
%TD*%
%TO.C,C7*%
X58645000Y-75350000D03*
X59780000Y-75350000D03*
%TD*%
D40*
%TO.C,C34*%
X71400000Y-53400000D03*
X71400000Y-51675000D03*
%TD*%
D14*
%TO.C,C5*%
X56865000Y-59200000D03*
X58000000Y-59200000D03*
%TD*%
D30*
%TO.C,C12*%
X62660000Y-75780000D03*
X61525000Y-75780000D03*
%TD*%
D16*
%TO.C,R14*%
X56690000Y-38360000D03*
X56690000Y-39555000D03*
%TD*%
D41*
%TO.C,R16*%
X65055000Y-52050000D03*
X66250000Y-52050000D03*
%TD*%
D42*
%TO.C,U6*%
X60704500Y-78270000D03*
X60704500Y-79220001D03*
X60704500Y-80170002D03*
X63435000Y-80170002D03*
X63435000Y-78270000D03*
%TD*%
D30*
%TO.C,C11*%
X62680000Y-74730000D03*
X61545000Y-74730000D03*
%TD*%
D16*
%TO.C,R5*%
X57710001Y-77759999D03*
X57710001Y-78954999D03*
%TD*%
D30*
%TO.C,C26*%
X52300000Y-41570000D03*
X51165000Y-41570000D03*
%TD*%
%TO.C,C2*%
X55980002Y-75640000D03*
X54845002Y-75640000D03*
%TD*%
D15*
%TO.C,C29*%
X54560000Y-42795000D03*
X54560000Y-43930000D03*
%TD*%
D10*
%TO.C,R10*%
X93500000Y-66697500D03*
X93500000Y-65502500D03*
%TD*%
D43*
%TO.C,D4*%
X56677500Y-83580000D03*
X52277500Y-83580000D03*
%TD*%
D24*
%TO.C,C25*%
X71000000Y-86450000D03*
X71000000Y-85315000D03*
%TD*%
D29*
%TO.C,D5*%
X49600000Y-74850000D03*
X49600000Y-73100000D03*
%TD*%
D15*
%TO.C,C3*%
X57700000Y-80150000D03*
X57700000Y-81285000D03*
%TD*%
D27*
%TO.C,H2*%
X83535500Y-25000000D03*
D28*
X83535500Y-25000000D03*
%TD*%
D30*
%TO.C,C22*%
X62700000Y-85440000D03*
X61565000Y-85440000D03*
%TD*%
D16*
%TO.C,R13*%
X56670000Y-40805000D03*
X56670000Y-42000000D03*
%TD*%
D44*
%TO.C,J2*%
X59660000Y-88590000D03*
X60310000Y-88590000D03*
X60960000Y-88590000D03*
X61610000Y-88590000D03*
X62260000Y-88590000D03*
D45*
X58010000Y-89790000D03*
D46*
X58110000Y-88490000D03*
D47*
X58230000Y-90540000D03*
D48*
X58230000Y-91470000D03*
D49*
X58540000Y-88470000D03*
D50*
X60000000Y-91740000D03*
X61920000Y-91740000D03*
D49*
X63380000Y-88470000D03*
D48*
X63690000Y-91470000D03*
D47*
X63710000Y-90540000D03*
D46*
X63860000Y-88470000D03*
D45*
X63960000Y-89790000D03*
%TD*%
D38*
%TO.C,J8*%
X75550000Y-48050000D03*
D39*
X78050000Y-48050000D03*
X80550000Y-48050000D03*
%TD*%
D36*
%TO.C,BTSEL2*%
X81950000Y-55700000D03*
D21*
X75450000Y-55700000D03*
%TD*%
D10*
%TO.C,R19*%
X49400000Y-83495000D03*
X49400000Y-82300000D03*
%TD*%
%TO.C,R18*%
X51100000Y-77545000D03*
X51100000Y-76350000D03*
%TD*%
D30*
%TO.C,C18*%
X79450000Y-53000000D03*
X78315000Y-53000000D03*
%TD*%
D42*
%TO.C,U5*%
X60734500Y-82050000D03*
X60734500Y-83000001D03*
X60734500Y-83950002D03*
X63465000Y-83950002D03*
X63465000Y-82050000D03*
%TD*%
D16*
%TO.C,R8*%
X59850000Y-37650000D03*
X59850000Y-38845000D03*
%TD*%
D51*
%TO.C,C24*%
X64950000Y-78125000D03*
X64950000Y-79850000D03*
%TD*%
D52*
%TO.C,C27*%
X52200000Y-39950000D03*
X50475000Y-39950000D03*
%TD*%
D51*
%TO.C,C23*%
X64975000Y-81575000D03*
X64975000Y-83300000D03*
%TD*%
D27*
%TO.C,H4*%
X53535500Y-89000000D03*
D28*
X53535500Y-89000000D03*
%TD*%
D10*
%TO.C,R1*%
X52450000Y-58650000D03*
X52450000Y-57455000D03*
%TD*%
D19*
%TO.C,D2*%
X91430000Y-64230000D03*
X89680000Y-64230000D03*
%TD*%
D14*
%TO.C,C33*%
X53465000Y-55600000D03*
X54600000Y-55600000D03*
%TD*%
D24*
%TO.C,C10*%
X61195000Y-65690000D03*
X61195000Y-64555000D03*
%TD*%
D27*
%TO.C,H3*%
X83535500Y-89000000D03*
D28*
X83535500Y-89000000D03*
%TD*%
D44*
%TO.C,J1*%
X69350000Y-88620000D03*
X70000000Y-88620000D03*
X70650000Y-88620000D03*
X71300000Y-88620000D03*
X71950000Y-88620000D03*
D45*
X67700000Y-89820000D03*
D46*
X67800000Y-88520000D03*
D47*
X67920000Y-90570000D03*
D48*
X67920000Y-91500000D03*
D49*
X68230000Y-88500000D03*
D50*
X69690000Y-91770000D03*
X71610000Y-91770000D03*
D49*
X73070000Y-88500000D03*
D48*
X73380000Y-91500000D03*
D47*
X73400000Y-90570000D03*
D46*
X73550000Y-88500000D03*
D45*
X73650000Y-89820000D03*
%TD*%
D10*
%TO.C,R17*%
X49450000Y-77595000D03*
X49450000Y-76400000D03*
%TD*%
D53*
%TO.C,U1*%
X55484997Y-41405002D03*
X55484997Y-40905003D03*
X55484997Y-40405001D03*
D54*
X54810000Y-40455001D03*
D53*
X53634998Y-40405001D03*
X53634998Y-40905003D03*
X53634998Y-41405002D03*
D55*
X54310000Y-41204999D03*
D56*
X54810000Y-41580000D03*
%TD*%
D22*
%TO.C,J3*%
X42460000Y-43110000D03*
D23*
X45000000Y-43110000D03*
X42460000Y-45650000D03*
X45000000Y-45650000D03*
X42460000Y-48190000D03*
X45000000Y-48190000D03*
X42460000Y-50730000D03*
X45000000Y-50730000D03*
X42460000Y-53270000D03*
X45000000Y-53270000D03*
X42460000Y-55810000D03*
X45000000Y-55810000D03*
X42460000Y-58350000D03*
X45000000Y-58350000D03*
X42460000Y-60890000D03*
X45000000Y-60890000D03*
%TD*%
D57*
%TO.C,U3*%
X53087500Y-68087500D03*
X53087500Y-68487500D03*
X53087500Y-68887500D03*
X53087500Y-69287500D03*
X53087500Y-69687500D03*
X53087500Y-70087500D03*
X53087500Y-70487500D03*
X53087500Y-70887500D03*
X53087500Y-71287500D03*
X53087500Y-71687500D03*
X53087500Y-72087500D03*
X53087500Y-72487500D03*
X53087500Y-72887500D03*
X53087500Y-73287500D03*
D58*
X53925000Y-74125000D03*
X54325000Y-74125000D03*
X54725000Y-74125000D03*
X55125000Y-74125000D03*
X55525000Y-74125000D03*
X55925000Y-74125000D03*
X56325000Y-74125000D03*
X56725000Y-74125000D03*
X57125000Y-74125000D03*
X57525000Y-74125000D03*
X57925000Y-74125000D03*
X58325000Y-74125000D03*
X58725000Y-74125000D03*
X59125000Y-74125000D03*
D57*
X59962500Y-73287500D03*
X59962500Y-72887500D03*
X59962500Y-72487500D03*
X59962500Y-72087500D03*
X59962500Y-71687500D03*
X59962500Y-71287500D03*
X59962500Y-70887500D03*
X59962500Y-70487500D03*
X59962500Y-70087500D03*
X59962500Y-69687500D03*
X59962500Y-69287500D03*
X59962500Y-68887500D03*
X59962500Y-68487500D03*
X59962500Y-68087500D03*
D58*
X59125000Y-67250000D03*
X58725000Y-67250000D03*
X58325000Y-67250000D03*
X57925000Y-67250000D03*
X57525000Y-67250000D03*
X57125000Y-67250000D03*
X56725000Y-67250000D03*
X56325000Y-67250000D03*
X55925000Y-67250000D03*
X55525000Y-67250000D03*
X55125000Y-67250000D03*
X54725000Y-67250000D03*
X54325000Y-67250000D03*
X53925000Y-67250000D03*
D59*
X56525000Y-70687500D03*
%TD*%
D30*
%TO.C,C16*%
X62715000Y-73710000D03*
X61580000Y-73710000D03*
%TD*%
D16*
%TO.C,R6*%
X59435000Y-82455000D03*
X59435000Y-83650000D03*
%TD*%
D15*
%TO.C,C17*%
X54700000Y-57465000D03*
X54700000Y-58600000D03*
%TD*%
D60*
%TO.C,J5*%
X76450000Y-34000000D03*
D61*
X78950000Y-34000000D03*
%TD*%
M02*
