M48
; DRILL file {KiCad 9.0.1} date 2025-04-26T02:47:18-0400
; FORMAT={-:-/ absolute / metric / decimal}
; #@! TF.CreationDate,2025-04-26T02:47:18-04:00
; #@! TF.GenerationSoftware,Kicad,Pcbnew,9.0.1
; #@! TF.FileFunction,Plated,1,2,PTH
FMAT,2
METRIC
; #@! TA.AperFunction,Plated,PTH,ViaDrill
T1C0.350
; #@! TA.AperFunction,Plated,PTH,ComponentDrill
T2C0.350
; #@! TA.AperFunction,Plated,PTH,ComponentDrill
T3C0.650
; #@! TA.AperFunction,Plated,PTH,ComponentDrill
T4C0.700
; #@! TA.AperFunction,Plated,PTH,ComponentDrill
T5C1.000
; #@! TA.AperFunction,Plated,PTH,ComponentDrill
T6C1.300
; #@! TA.AperFunction,Plated,PTH,ComponentDrill
T7C2.700
; #@! TA.AperFunction,Plated,PTH,ComponentDrill
T8C3.200
%
G90
G05
T1
X73.0Y-114.0
X75.0Y-110.0
X76.875Y-103.125
X76.875Y-104.125
X76.875Y-105.375
X76.875Y-106.375
X77.75Y-107.126
X77.875Y-102.375
X80.0Y-112.0
X80.0Y-121.0
X81.0Y-116.0
X81.0Y-118.0
X82.75Y-102.0
X83.0Y-115.0
X84.0Y-115.0
X84.25Y-104.25
X84.25Y-105.5
X84.5Y-94.75
X85.5Y-74.5
X85.75Y-108.0
X86.0Y-116.0
X86.0Y-118.0
X87.0Y-103.75
X87.25Y-81.925
X87.455Y-88.68
X89.5Y-81.0
X89.75Y-91.0
X90.0Y-109.0
X90.0Y-114.0
X90.25Y-94.247
X90.3Y-91.549
X91.0Y-74.75
X91.0Y-83.0
X91.0Y-94.25
X93.2Y-71.975
X93.27Y-101.075
X93.5Y-101.75
X93.6Y-105.55
X93.91Y-94.38
X94.75Y-83.5
X95.0Y-109.0
X95.0Y-114.0
X95.359Y-95.45
X95.4Y-73.3
X95.5Y-83.75
X96.3Y-88.45
X97.19Y-101.665
X97.2Y-91.15
X98.7Y-76.0
X99.04Y-101.76
X99.072Y-97.989
X99.4Y-105.55
X100.0Y-102.0
X100.0Y-109.0
X100.0Y-114.0
X101.121Y-101.879
X101.25Y-84.0
X102.75Y-84.75
X103.75Y-80.5
X104.25Y-82.75
X104.5Y-94.555
X104.6Y-73.3
X105.0Y-109.0
X105.0Y-114.0
X105.06Y-95.054
X105.48Y-84.96
X107.0Y-84.94
X107.0Y-95.0
X109.5Y-98.25
X110.0Y-109.0
X110.0Y-114.0
X113.0Y-83.0
X113.75Y-75.25
X113.75Y-98.25
X114.0Y-80.0
X116.0Y-93.5
X116.0Y-95.0
X116.0Y-105.0
X116.0Y-106.0
X116.0Y-107.0
X116.0Y-108.0
X116.0Y-109.0
X118.0Y-94.5
X120.0Y-105.0
X120.0Y-106.0
X120.0Y-107.0
X120.75Y-88.0
X121.0Y-81.0
X121.825Y-92.212
X121.825Y-96.712
X122.0Y-100.0
X122.312Y-86.188
X122.825Y-92.712
X122.825Y-93.712
X122.825Y-94.962
X122.825Y-95.962
X123.0Y-102.0
T2
X95.225Y-91.975
X95.225Y-93.25
X95.225Y-94.525
X96.5Y-91.975
X96.5Y-93.25
X96.5Y-94.525
X97.775Y-91.975
X97.775Y-93.25
X97.775Y-94.525
T5
X75.0Y-93.25
X75.0Y-95.79
X75.0Y-98.33
X75.0Y-100.87
X75.0Y-103.41
X75.0Y-105.95
X81.197Y-87.5
X82.993Y-85.704
X82.993Y-89.296
X84.789Y-87.5
X91.125Y-116.71
X91.125Y-119.25
X93.665Y-116.71
X93.665Y-119.25
X96.205Y-116.71
X96.205Y-119.25
X98.745Y-116.71
X98.745Y-119.25
X101.285Y-116.71
X101.285Y-119.25
X103.825Y-116.71
X103.825Y-119.25
X106.365Y-116.71
X106.365Y-119.25
X108.905Y-116.71
X108.905Y-119.25
X109.256Y-90.691
X111.052Y-88.894
X111.052Y-92.487
X112.848Y-87.098
X112.848Y-90.691
X114.644Y-85.302
X114.644Y-88.894
X116.441Y-83.506
X116.441Y-87.098
X118.237Y-85.302
X125.0Y-93.13
X125.0Y-95.67
X125.0Y-98.21
X125.0Y-100.75
X125.0Y-103.29
X125.0Y-105.83
T6
X76.721Y-86.279
X81.317Y-81.683
T7
X116.25Y-113.75
X116.25Y-118.75
T8
X75.0Y-117.795
X81.646Y-73.582
X118.354Y-73.582
X125.0Y-117.795
T3
X97.575Y-74.54G85X97.575Y-74.94
G05
X102.425Y-74.54G85X102.425Y-74.94
G05
T4
X97.275Y-71.46G85X97.275Y-71.96
G05
X102.725Y-71.46G85X102.725Y-71.96
G05
M30
