G04 #@! TF.GenerationSoftware,KiCad,Pcbnew,9.0.1*
G04 #@! TF.CreationDate,2025-04-26T02:46:57-04:00*
G04 #@! TF.ProjectId,SwerveModuleBoard,53776572-7665-44d6-9f64-756c65426f61,REV1*
G04 #@! TF.SameCoordinates,Original*
G04 #@! TF.FileFunction,Soldermask,Bot*
G04 #@! TF.FilePolarity,Negative*
%FSLAX46Y46*%
G04 Gerber Fmt 4.6, Leading zero omitted, Abs format (unit mm)*
G04 Created by KiCad (PCBNEW 9.0.1) date 2025-04-26 02:46:57*
%MOMM*%
%LPD*%
G01*
G04 APERTURE LIST*
G04 APERTURE END LIST*
G36*
X116630621Y-116836488D02*
G01*
X116877128Y-116902539D01*
X117112905Y-117000201D01*
X117333918Y-117127803D01*
X117536384Y-117283161D01*
X117716839Y-117463616D01*
X117872197Y-117666082D01*
X117999799Y-117887095D01*
X118097461Y-118122872D01*
X118163512Y-118369379D01*
X118196823Y-118622398D01*
X118196823Y-118877602D01*
X118163512Y-119130621D01*
X118097461Y-119377128D01*
X117999799Y-119612905D01*
X117872197Y-119833918D01*
X117716839Y-120036384D01*
X117536384Y-120216839D01*
X117333918Y-120372197D01*
X117112905Y-120499799D01*
X116877128Y-120597461D01*
X116630621Y-120663512D01*
X116377602Y-120696823D01*
X116122398Y-120696823D01*
X115869379Y-120663512D01*
X115622872Y-120597461D01*
X115387095Y-120499799D01*
X115166082Y-120372197D01*
X114963616Y-120216839D01*
X114783161Y-120036384D01*
X114627803Y-119833918D01*
X114500201Y-119612905D01*
X114402539Y-119377128D01*
X114336488Y-119130621D01*
X114303177Y-118877602D01*
X114303177Y-118622398D01*
X114336488Y-118369379D01*
X114402539Y-118122872D01*
X114500201Y-117887095D01*
X114627803Y-117666082D01*
X114783161Y-117463616D01*
X114963616Y-117283161D01*
X115166082Y-117127803D01*
X115387095Y-117000201D01*
X115622872Y-116902539D01*
X115869379Y-116836488D01*
X116122398Y-116803177D01*
X116377602Y-116803177D01*
X116630621Y-116836488D01*
G37*
G36*
X75477548Y-114984416D02*
G01*
X75789246Y-115055559D01*
X76091018Y-115161153D01*
X76379071Y-115299872D01*
X76649780Y-115469970D01*
X76899742Y-115669308D01*
X77125814Y-115895380D01*
X77325152Y-116145342D01*
X77495250Y-116416051D01*
X77633969Y-116704104D01*
X77739563Y-117005876D01*
X77810706Y-117317574D01*
X77846503Y-117635277D01*
X77846503Y-117954991D01*
X77810706Y-118272694D01*
X77739563Y-118584392D01*
X77633969Y-118886164D01*
X77495250Y-119174217D01*
X77325152Y-119444926D01*
X77125814Y-119694888D01*
X76899742Y-119920960D01*
X76649780Y-120120298D01*
X76379071Y-120290396D01*
X76091018Y-120429115D01*
X75789246Y-120534709D01*
X75477548Y-120605852D01*
X75159845Y-120641649D01*
X74840131Y-120641649D01*
X74522428Y-120605852D01*
X74210730Y-120534709D01*
X73908958Y-120429115D01*
X73620905Y-120290396D01*
X73350196Y-120120298D01*
X73100234Y-119920960D01*
X72874162Y-119694888D01*
X72674824Y-119444926D01*
X72504726Y-119174217D01*
X72366007Y-118886164D01*
X72260413Y-118584392D01*
X72189270Y-118272694D01*
X72153473Y-117954991D01*
X72153473Y-117635277D01*
X72189270Y-117317574D01*
X72260413Y-117005876D01*
X72366007Y-116704104D01*
X72504726Y-116416051D01*
X72674824Y-116145342D01*
X72874162Y-115895380D01*
X73100234Y-115669308D01*
X73350196Y-115469970D01*
X73620905Y-115299872D01*
X73908958Y-115161153D01*
X74210730Y-115055559D01*
X74522428Y-114984416D01*
X74840131Y-114948619D01*
X75159845Y-114948619D01*
X75477548Y-114984416D01*
G37*
G36*
X125477548Y-114984416D02*
G01*
X125789246Y-115055559D01*
X126091018Y-115161153D01*
X126379071Y-115299872D01*
X126649780Y-115469970D01*
X126899742Y-115669308D01*
X127125814Y-115895380D01*
X127325152Y-116145342D01*
X127495250Y-116416051D01*
X127633969Y-116704104D01*
X127739563Y-117005876D01*
X127810706Y-117317574D01*
X127846503Y-117635277D01*
X127846503Y-117954991D01*
X127810706Y-118272694D01*
X127739563Y-118584392D01*
X127633969Y-118886164D01*
X127495250Y-119174217D01*
X127325152Y-119444926D01*
X127125814Y-119694888D01*
X126899742Y-119920960D01*
X126649780Y-120120298D01*
X126379071Y-120290396D01*
X126091018Y-120429115D01*
X125789246Y-120534709D01*
X125477548Y-120605852D01*
X125159845Y-120641649D01*
X124840131Y-120641649D01*
X124522428Y-120605852D01*
X124210730Y-120534709D01*
X123908958Y-120429115D01*
X123620905Y-120290396D01*
X123350196Y-120120298D01*
X123100234Y-119920960D01*
X122874162Y-119694888D01*
X122674824Y-119444926D01*
X122504726Y-119174217D01*
X122366007Y-118886164D01*
X122260413Y-118584392D01*
X122189270Y-118272694D01*
X122153473Y-117954991D01*
X122153473Y-117635277D01*
X122189270Y-117317574D01*
X122260413Y-117005876D01*
X122366007Y-116704104D01*
X122504726Y-116416051D01*
X122674824Y-116145342D01*
X122874162Y-115895380D01*
X123100234Y-115669308D01*
X123350196Y-115469970D01*
X123620905Y-115299872D01*
X123908958Y-115161153D01*
X124210730Y-115055559D01*
X124522428Y-114984416D01*
X124840131Y-114948619D01*
X125159845Y-114948619D01*
X125477548Y-114984416D01*
G37*
G36*
X91386546Y-118387797D02*
G01*
X91549728Y-118455389D01*
X91696588Y-118553518D01*
X91821482Y-118678412D01*
X91919611Y-118825272D01*
X91987203Y-118988454D01*
X92021661Y-119161687D01*
X92021661Y-119338313D01*
X91987203Y-119511546D01*
X91919611Y-119674728D01*
X91821482Y-119821588D01*
X91696588Y-119946482D01*
X91549728Y-120044611D01*
X91386546Y-120112203D01*
X91213313Y-120146661D01*
X91036687Y-120146661D01*
X90863454Y-120112203D01*
X90700272Y-120044611D01*
X90553412Y-119946482D01*
X90428518Y-119821588D01*
X90330389Y-119674728D01*
X90262797Y-119511546D01*
X90228339Y-119338313D01*
X90228339Y-119161687D01*
X90262797Y-118988454D01*
X90330389Y-118825272D01*
X90428518Y-118678412D01*
X90553412Y-118553518D01*
X90700272Y-118455389D01*
X90863454Y-118387797D01*
X91036687Y-118353339D01*
X91213313Y-118353339D01*
X91386546Y-118387797D01*
G37*
G36*
X93926546Y-118387797D02*
G01*
X94089728Y-118455389D01*
X94236588Y-118553518D01*
X94361482Y-118678412D01*
X94459611Y-118825272D01*
X94527203Y-118988454D01*
X94561661Y-119161687D01*
X94561661Y-119338313D01*
X94527203Y-119511546D01*
X94459611Y-119674728D01*
X94361482Y-119821588D01*
X94236588Y-119946482D01*
X94089728Y-120044611D01*
X93926546Y-120112203D01*
X93753313Y-120146661D01*
X93576687Y-120146661D01*
X93403454Y-120112203D01*
X93240272Y-120044611D01*
X93093412Y-119946482D01*
X92968518Y-119821588D01*
X92870389Y-119674728D01*
X92802797Y-119511546D01*
X92768339Y-119338313D01*
X92768339Y-119161687D01*
X92802797Y-118988454D01*
X92870389Y-118825272D01*
X92968518Y-118678412D01*
X93093412Y-118553518D01*
X93240272Y-118455389D01*
X93403454Y-118387797D01*
X93576687Y-118353339D01*
X93753313Y-118353339D01*
X93926546Y-118387797D01*
G37*
G36*
X96466546Y-118387797D02*
G01*
X96629728Y-118455389D01*
X96776588Y-118553518D01*
X96901482Y-118678412D01*
X96999611Y-118825272D01*
X97067203Y-118988454D01*
X97101661Y-119161687D01*
X97101661Y-119338313D01*
X97067203Y-119511546D01*
X96999611Y-119674728D01*
X96901482Y-119821588D01*
X96776588Y-119946482D01*
X96629728Y-120044611D01*
X96466546Y-120112203D01*
X96293313Y-120146661D01*
X96116687Y-120146661D01*
X95943454Y-120112203D01*
X95780272Y-120044611D01*
X95633412Y-119946482D01*
X95508518Y-119821588D01*
X95410389Y-119674728D01*
X95342797Y-119511546D01*
X95308339Y-119338313D01*
X95308339Y-119161687D01*
X95342797Y-118988454D01*
X95410389Y-118825272D01*
X95508518Y-118678412D01*
X95633412Y-118553518D01*
X95780272Y-118455389D01*
X95943454Y-118387797D01*
X96116687Y-118353339D01*
X96293313Y-118353339D01*
X96466546Y-118387797D01*
G37*
G36*
X99006546Y-118387797D02*
G01*
X99169728Y-118455389D01*
X99316588Y-118553518D01*
X99441482Y-118678412D01*
X99539611Y-118825272D01*
X99607203Y-118988454D01*
X99641661Y-119161687D01*
X99641661Y-119338313D01*
X99607203Y-119511546D01*
X99539611Y-119674728D01*
X99441482Y-119821588D01*
X99316588Y-119946482D01*
X99169728Y-120044611D01*
X99006546Y-120112203D01*
X98833313Y-120146661D01*
X98656687Y-120146661D01*
X98483454Y-120112203D01*
X98320272Y-120044611D01*
X98173412Y-119946482D01*
X98048518Y-119821588D01*
X97950389Y-119674728D01*
X97882797Y-119511546D01*
X97848339Y-119338313D01*
X97848339Y-119161687D01*
X97882797Y-118988454D01*
X97950389Y-118825272D01*
X98048518Y-118678412D01*
X98173412Y-118553518D01*
X98320272Y-118455389D01*
X98483454Y-118387797D01*
X98656687Y-118353339D01*
X98833313Y-118353339D01*
X99006546Y-118387797D01*
G37*
G36*
X101546546Y-118387797D02*
G01*
X101709728Y-118455389D01*
X101856588Y-118553518D01*
X101981482Y-118678412D01*
X102079611Y-118825272D01*
X102147203Y-118988454D01*
X102181661Y-119161687D01*
X102181661Y-119338313D01*
X102147203Y-119511546D01*
X102079611Y-119674728D01*
X101981482Y-119821588D01*
X101856588Y-119946482D01*
X101709728Y-120044611D01*
X101546546Y-120112203D01*
X101373313Y-120146661D01*
X101196687Y-120146661D01*
X101023454Y-120112203D01*
X100860272Y-120044611D01*
X100713412Y-119946482D01*
X100588518Y-119821588D01*
X100490389Y-119674728D01*
X100422797Y-119511546D01*
X100388339Y-119338313D01*
X100388339Y-119161687D01*
X100422797Y-118988454D01*
X100490389Y-118825272D01*
X100588518Y-118678412D01*
X100713412Y-118553518D01*
X100860272Y-118455389D01*
X101023454Y-118387797D01*
X101196687Y-118353339D01*
X101373313Y-118353339D01*
X101546546Y-118387797D01*
G37*
G36*
X104086546Y-118387797D02*
G01*
X104249728Y-118455389D01*
X104396588Y-118553518D01*
X104521482Y-118678412D01*
X104619611Y-118825272D01*
X104687203Y-118988454D01*
X104721661Y-119161687D01*
X104721661Y-119338313D01*
X104687203Y-119511546D01*
X104619611Y-119674728D01*
X104521482Y-119821588D01*
X104396588Y-119946482D01*
X104249728Y-120044611D01*
X104086546Y-120112203D01*
X103913313Y-120146661D01*
X103736687Y-120146661D01*
X103563454Y-120112203D01*
X103400272Y-120044611D01*
X103253412Y-119946482D01*
X103128518Y-119821588D01*
X103030389Y-119674728D01*
X102962797Y-119511546D01*
X102928339Y-119338313D01*
X102928339Y-119161687D01*
X102962797Y-118988454D01*
X103030389Y-118825272D01*
X103128518Y-118678412D01*
X103253412Y-118553518D01*
X103400272Y-118455389D01*
X103563454Y-118387797D01*
X103736687Y-118353339D01*
X103913313Y-118353339D01*
X104086546Y-118387797D01*
G37*
G36*
X106626546Y-118387797D02*
G01*
X106789728Y-118455389D01*
X106936588Y-118553518D01*
X107061482Y-118678412D01*
X107159611Y-118825272D01*
X107227203Y-118988454D01*
X107261661Y-119161687D01*
X107261661Y-119338313D01*
X107227203Y-119511546D01*
X107159611Y-119674728D01*
X107061482Y-119821588D01*
X106936588Y-119946482D01*
X106789728Y-120044611D01*
X106626546Y-120112203D01*
X106453313Y-120146661D01*
X106276687Y-120146661D01*
X106103454Y-120112203D01*
X105940272Y-120044611D01*
X105793412Y-119946482D01*
X105668518Y-119821588D01*
X105570389Y-119674728D01*
X105502797Y-119511546D01*
X105468339Y-119338313D01*
X105468339Y-119161687D01*
X105502797Y-118988454D01*
X105570389Y-118825272D01*
X105668518Y-118678412D01*
X105793412Y-118553518D01*
X105940272Y-118455389D01*
X106103454Y-118387797D01*
X106276687Y-118353339D01*
X106453313Y-118353339D01*
X106626546Y-118387797D01*
G37*
G36*
X109166546Y-118387797D02*
G01*
X109329728Y-118455389D01*
X109476588Y-118553518D01*
X109601482Y-118678412D01*
X109699611Y-118825272D01*
X109767203Y-118988454D01*
X109801661Y-119161687D01*
X109801661Y-119338313D01*
X109767203Y-119511546D01*
X109699611Y-119674728D01*
X109601482Y-119821588D01*
X109476588Y-119946482D01*
X109329728Y-120044611D01*
X109166546Y-120112203D01*
X108993313Y-120146661D01*
X108816687Y-120146661D01*
X108643454Y-120112203D01*
X108480272Y-120044611D01*
X108333412Y-119946482D01*
X108208518Y-119821588D01*
X108110389Y-119674728D01*
X108042797Y-119511546D01*
X108008339Y-119338313D01*
X108008339Y-119161687D01*
X108042797Y-118988454D01*
X108110389Y-118825272D01*
X108208518Y-118678412D01*
X108333412Y-118553518D01*
X108480272Y-118455389D01*
X108643454Y-118387797D01*
X108816687Y-118353339D01*
X108993313Y-118353339D01*
X109166546Y-118387797D01*
G37*
G36*
X109774517Y-115812882D02*
G01*
X109791062Y-115823938D01*
X109802118Y-115840483D01*
X109806000Y-115860000D01*
X109806000Y-117560000D01*
X109802118Y-117579517D01*
X109791062Y-117596062D01*
X109774517Y-117607118D01*
X109755000Y-117611000D01*
X108055000Y-117611000D01*
X108035483Y-117607118D01*
X108018938Y-117596062D01*
X108007882Y-117579517D01*
X108004000Y-117560000D01*
X108004000Y-115860000D01*
X108007882Y-115840483D01*
X108018938Y-115823938D01*
X108035483Y-115812882D01*
X108055000Y-115809000D01*
X109755000Y-115809000D01*
X109774517Y-115812882D01*
G37*
G36*
X91386546Y-115847797D02*
G01*
X91549728Y-115915389D01*
X91696588Y-116013518D01*
X91821482Y-116138412D01*
X91919611Y-116285272D01*
X91987203Y-116448454D01*
X92021661Y-116621687D01*
X92021661Y-116798313D01*
X91987203Y-116971546D01*
X91919611Y-117134728D01*
X91821482Y-117281588D01*
X91696588Y-117406482D01*
X91549728Y-117504611D01*
X91386546Y-117572203D01*
X91213313Y-117606661D01*
X91036687Y-117606661D01*
X90863454Y-117572203D01*
X90700272Y-117504611D01*
X90553412Y-117406482D01*
X90428518Y-117281588D01*
X90330389Y-117134728D01*
X90262797Y-116971546D01*
X90228339Y-116798313D01*
X90228339Y-116621687D01*
X90262797Y-116448454D01*
X90330389Y-116285272D01*
X90428518Y-116138412D01*
X90553412Y-116013518D01*
X90700272Y-115915389D01*
X90863454Y-115847797D01*
X91036687Y-115813339D01*
X91213313Y-115813339D01*
X91386546Y-115847797D01*
G37*
G36*
X93926546Y-115847797D02*
G01*
X94089728Y-115915389D01*
X94236588Y-116013518D01*
X94361482Y-116138412D01*
X94459611Y-116285272D01*
X94527203Y-116448454D01*
X94561661Y-116621687D01*
X94561661Y-116798313D01*
X94527203Y-116971546D01*
X94459611Y-117134728D01*
X94361482Y-117281588D01*
X94236588Y-117406482D01*
X94089728Y-117504611D01*
X93926546Y-117572203D01*
X93753313Y-117606661D01*
X93576687Y-117606661D01*
X93403454Y-117572203D01*
X93240272Y-117504611D01*
X93093412Y-117406482D01*
X92968518Y-117281588D01*
X92870389Y-117134728D01*
X92802797Y-116971546D01*
X92768339Y-116798313D01*
X92768339Y-116621687D01*
X92802797Y-116448454D01*
X92870389Y-116285272D01*
X92968518Y-116138412D01*
X93093412Y-116013518D01*
X93240272Y-115915389D01*
X93403454Y-115847797D01*
X93576687Y-115813339D01*
X93753313Y-115813339D01*
X93926546Y-115847797D01*
G37*
G36*
X96466546Y-115847797D02*
G01*
X96629728Y-115915389D01*
X96776588Y-116013518D01*
X96901482Y-116138412D01*
X96999611Y-116285272D01*
X97067203Y-116448454D01*
X97101661Y-116621687D01*
X97101661Y-116798313D01*
X97067203Y-116971546D01*
X96999611Y-117134728D01*
X96901482Y-117281588D01*
X96776588Y-117406482D01*
X96629728Y-117504611D01*
X96466546Y-117572203D01*
X96293313Y-117606661D01*
X96116687Y-117606661D01*
X95943454Y-117572203D01*
X95780272Y-117504611D01*
X95633412Y-117406482D01*
X95508518Y-117281588D01*
X95410389Y-117134728D01*
X95342797Y-116971546D01*
X95308339Y-116798313D01*
X95308339Y-116621687D01*
X95342797Y-116448454D01*
X95410389Y-116285272D01*
X95508518Y-116138412D01*
X95633412Y-116013518D01*
X95780272Y-115915389D01*
X95943454Y-115847797D01*
X96116687Y-115813339D01*
X96293313Y-115813339D01*
X96466546Y-115847797D01*
G37*
G36*
X99006546Y-115847797D02*
G01*
X99169728Y-115915389D01*
X99316588Y-116013518D01*
X99441482Y-116138412D01*
X99539611Y-116285272D01*
X99607203Y-116448454D01*
X99641661Y-116621687D01*
X99641661Y-116798313D01*
X99607203Y-116971546D01*
X99539611Y-117134728D01*
X99441482Y-117281588D01*
X99316588Y-117406482D01*
X99169728Y-117504611D01*
X99006546Y-117572203D01*
X98833313Y-117606661D01*
X98656687Y-117606661D01*
X98483454Y-117572203D01*
X98320272Y-117504611D01*
X98173412Y-117406482D01*
X98048518Y-117281588D01*
X97950389Y-117134728D01*
X97882797Y-116971546D01*
X97848339Y-116798313D01*
X97848339Y-116621687D01*
X97882797Y-116448454D01*
X97950389Y-116285272D01*
X98048518Y-116138412D01*
X98173412Y-116013518D01*
X98320272Y-115915389D01*
X98483454Y-115847797D01*
X98656687Y-115813339D01*
X98833313Y-115813339D01*
X99006546Y-115847797D01*
G37*
G36*
X101546546Y-115847797D02*
G01*
X101709728Y-115915389D01*
X101856588Y-116013518D01*
X101981482Y-116138412D01*
X102079611Y-116285272D01*
X102147203Y-116448454D01*
X102181661Y-116621687D01*
X102181661Y-116798313D01*
X102147203Y-116971546D01*
X102079611Y-117134728D01*
X101981482Y-117281588D01*
X101856588Y-117406482D01*
X101709728Y-117504611D01*
X101546546Y-117572203D01*
X101373313Y-117606661D01*
X101196687Y-117606661D01*
X101023454Y-117572203D01*
X100860272Y-117504611D01*
X100713412Y-117406482D01*
X100588518Y-117281588D01*
X100490389Y-117134728D01*
X100422797Y-116971546D01*
X100388339Y-116798313D01*
X100388339Y-116621687D01*
X100422797Y-116448454D01*
X100490389Y-116285272D01*
X100588518Y-116138412D01*
X100713412Y-116013518D01*
X100860272Y-115915389D01*
X101023454Y-115847797D01*
X101196687Y-115813339D01*
X101373313Y-115813339D01*
X101546546Y-115847797D01*
G37*
G36*
X104086546Y-115847797D02*
G01*
X104249728Y-115915389D01*
X104396588Y-116013518D01*
X104521482Y-116138412D01*
X104619611Y-116285272D01*
X104687203Y-116448454D01*
X104721661Y-116621687D01*
X104721661Y-116798313D01*
X104687203Y-116971546D01*
X104619611Y-117134728D01*
X104521482Y-117281588D01*
X104396588Y-117406482D01*
X104249728Y-117504611D01*
X104086546Y-117572203D01*
X103913313Y-117606661D01*
X103736687Y-117606661D01*
X103563454Y-117572203D01*
X103400272Y-117504611D01*
X103253412Y-117406482D01*
X103128518Y-117281588D01*
X103030389Y-117134728D01*
X102962797Y-116971546D01*
X102928339Y-116798313D01*
X102928339Y-116621687D01*
X102962797Y-116448454D01*
X103030389Y-116285272D01*
X103128518Y-116138412D01*
X103253412Y-116013518D01*
X103400272Y-115915389D01*
X103563454Y-115847797D01*
X103736687Y-115813339D01*
X103913313Y-115813339D01*
X104086546Y-115847797D01*
G37*
G36*
X106626546Y-115847797D02*
G01*
X106789728Y-115915389D01*
X106936588Y-116013518D01*
X107061482Y-116138412D01*
X107159611Y-116285272D01*
X107227203Y-116448454D01*
X107261661Y-116621687D01*
X107261661Y-116798313D01*
X107227203Y-116971546D01*
X107159611Y-117134728D01*
X107061482Y-117281588D01*
X106936588Y-117406482D01*
X106789728Y-117504611D01*
X106626546Y-117572203D01*
X106453313Y-117606661D01*
X106276687Y-117606661D01*
X106103454Y-117572203D01*
X105940272Y-117504611D01*
X105793412Y-117406482D01*
X105668518Y-117281588D01*
X105570389Y-117134728D01*
X105502797Y-116971546D01*
X105468339Y-116798313D01*
X105468339Y-116621687D01*
X105502797Y-116448454D01*
X105570389Y-116285272D01*
X105668518Y-116138412D01*
X105793412Y-116013518D01*
X105940272Y-115915389D01*
X106103454Y-115847797D01*
X106276687Y-115813339D01*
X106453313Y-115813339D01*
X106626546Y-115847797D01*
G37*
G36*
X118169517Y-111802882D02*
G01*
X118186062Y-111813938D01*
X118197118Y-111830483D01*
X118201000Y-111850000D01*
X118201000Y-115650000D01*
X118197118Y-115669517D01*
X118186062Y-115686062D01*
X118169517Y-115697118D01*
X118150000Y-115701000D01*
X114350000Y-115701000D01*
X114330483Y-115697118D01*
X114313938Y-115686062D01*
X114302882Y-115669517D01*
X114299000Y-115650000D01*
X114299000Y-111850000D01*
X114302882Y-111830483D01*
X114313938Y-111813938D01*
X114330483Y-111802882D01*
X114350000Y-111799000D01*
X118150000Y-111799000D01*
X118169517Y-111802882D01*
G37*
G36*
X75261546Y-105087797D02*
G01*
X75424728Y-105155389D01*
X75571588Y-105253518D01*
X75696482Y-105378412D01*
X75794611Y-105525272D01*
X75862203Y-105688454D01*
X75896661Y-105861687D01*
X75896661Y-106038313D01*
X75862203Y-106211546D01*
X75794611Y-106374728D01*
X75696482Y-106521588D01*
X75571588Y-106646482D01*
X75424728Y-106744611D01*
X75261546Y-106812203D01*
X75088313Y-106846661D01*
X74911687Y-106846661D01*
X74738454Y-106812203D01*
X74575272Y-106744611D01*
X74428412Y-106646482D01*
X74303518Y-106521588D01*
X74205389Y-106374728D01*
X74137797Y-106211546D01*
X74103339Y-106038313D01*
X74103339Y-105861687D01*
X74137797Y-105688454D01*
X74205389Y-105525272D01*
X74303518Y-105378412D01*
X74428412Y-105253518D01*
X74575272Y-105155389D01*
X74738454Y-105087797D01*
X74911687Y-105053339D01*
X75088313Y-105053339D01*
X75261546Y-105087797D01*
G37*
G36*
X125869517Y-104932882D02*
G01*
X125886062Y-104943938D01*
X125897118Y-104960483D01*
X125901000Y-104980000D01*
X125901000Y-106680000D01*
X125897118Y-106699517D01*
X125886062Y-106716062D01*
X125869517Y-106727118D01*
X125850000Y-106731000D01*
X124150000Y-106731000D01*
X124130483Y-106727118D01*
X124113938Y-106716062D01*
X124102882Y-106699517D01*
X124099000Y-106680000D01*
X124099000Y-104980000D01*
X124102882Y-104960483D01*
X124113938Y-104943938D01*
X124130483Y-104932882D01*
X124150000Y-104929000D01*
X125850000Y-104929000D01*
X125869517Y-104932882D01*
G37*
G36*
X75261546Y-102547797D02*
G01*
X75424728Y-102615389D01*
X75571588Y-102713518D01*
X75696482Y-102838412D01*
X75794611Y-102985272D01*
X75862203Y-103148454D01*
X75896661Y-103321687D01*
X75896661Y-103498313D01*
X75862203Y-103671546D01*
X75794611Y-103834728D01*
X75696482Y-103981588D01*
X75571588Y-104106482D01*
X75424728Y-104204611D01*
X75261546Y-104272203D01*
X75088313Y-104306661D01*
X74911687Y-104306661D01*
X74738454Y-104272203D01*
X74575272Y-104204611D01*
X74428412Y-104106482D01*
X74303518Y-103981588D01*
X74205389Y-103834728D01*
X74137797Y-103671546D01*
X74103339Y-103498313D01*
X74103339Y-103321687D01*
X74137797Y-103148454D01*
X74205389Y-102985272D01*
X74303518Y-102838412D01*
X74428412Y-102713518D01*
X74575272Y-102615389D01*
X74738454Y-102547797D01*
X74911687Y-102513339D01*
X75088313Y-102513339D01*
X75261546Y-102547797D01*
G37*
G36*
X125261546Y-102427797D02*
G01*
X125424728Y-102495389D01*
X125571588Y-102593518D01*
X125696482Y-102718412D01*
X125794611Y-102865272D01*
X125862203Y-103028454D01*
X125896661Y-103201687D01*
X125896661Y-103378313D01*
X125862203Y-103551546D01*
X125794611Y-103714728D01*
X125696482Y-103861588D01*
X125571588Y-103986482D01*
X125424728Y-104084611D01*
X125261546Y-104152203D01*
X125088313Y-104186661D01*
X124911687Y-104186661D01*
X124738454Y-104152203D01*
X124575272Y-104084611D01*
X124428412Y-103986482D01*
X124303518Y-103861588D01*
X124205389Y-103714728D01*
X124137797Y-103551546D01*
X124103339Y-103378313D01*
X124103339Y-103201687D01*
X124137797Y-103028454D01*
X124205389Y-102865272D01*
X124303518Y-102718412D01*
X124428412Y-102593518D01*
X124575272Y-102495389D01*
X124738454Y-102427797D01*
X124911687Y-102393339D01*
X125088313Y-102393339D01*
X125261546Y-102427797D01*
G37*
G36*
X75261546Y-100007797D02*
G01*
X75424728Y-100075389D01*
X75571588Y-100173518D01*
X75696482Y-100298412D01*
X75794611Y-100445272D01*
X75862203Y-100608454D01*
X75896661Y-100781687D01*
X75896661Y-100958313D01*
X75862203Y-101131546D01*
X75794611Y-101294728D01*
X75696482Y-101441588D01*
X75571588Y-101566482D01*
X75424728Y-101664611D01*
X75261546Y-101732203D01*
X75088313Y-101766661D01*
X74911687Y-101766661D01*
X74738454Y-101732203D01*
X74575272Y-101664611D01*
X74428412Y-101566482D01*
X74303518Y-101441588D01*
X74205389Y-101294728D01*
X74137797Y-101131546D01*
X74103339Y-100958313D01*
X74103339Y-100781687D01*
X74137797Y-100608454D01*
X74205389Y-100445272D01*
X74303518Y-100298412D01*
X74428412Y-100173518D01*
X74575272Y-100075389D01*
X74738454Y-100007797D01*
X74911687Y-99973339D01*
X75088313Y-99973339D01*
X75261546Y-100007797D01*
G37*
G36*
X125261546Y-99887797D02*
G01*
X125424728Y-99955389D01*
X125571588Y-100053518D01*
X125696482Y-100178412D01*
X125794611Y-100325272D01*
X125862203Y-100488454D01*
X125896661Y-100661687D01*
X125896661Y-100838313D01*
X125862203Y-101011546D01*
X125794611Y-101174728D01*
X125696482Y-101321588D01*
X125571588Y-101446482D01*
X125424728Y-101544611D01*
X125261546Y-101612203D01*
X125088313Y-101646661D01*
X124911687Y-101646661D01*
X124738454Y-101612203D01*
X124575272Y-101544611D01*
X124428412Y-101446482D01*
X124303518Y-101321588D01*
X124205389Y-101174728D01*
X124137797Y-101011546D01*
X124103339Y-100838313D01*
X124103339Y-100661687D01*
X124137797Y-100488454D01*
X124205389Y-100325272D01*
X124303518Y-100178412D01*
X124428412Y-100053518D01*
X124575272Y-99955389D01*
X124738454Y-99887797D01*
X124911687Y-99853339D01*
X125088313Y-99853339D01*
X125261546Y-99887797D01*
G37*
G36*
X98426919Y-98819300D02*
G01*
X98492128Y-98862872D01*
X98535700Y-98928081D01*
X98551000Y-99005000D01*
X98551000Y-99305000D01*
X98535700Y-99381919D01*
X98492128Y-99447128D01*
X98426919Y-99490700D01*
X98350000Y-99506000D01*
X96700000Y-99506000D01*
X96623081Y-99490700D01*
X96557872Y-99447128D01*
X96514300Y-99381919D01*
X96499000Y-99305000D01*
X96499000Y-99005000D01*
X96514300Y-98928081D01*
X96557872Y-98862872D01*
X96623081Y-98819300D01*
X96700000Y-98804000D01*
X98350000Y-98804000D01*
X98426919Y-98819300D01*
G37*
G36*
X103376919Y-98819300D02*
G01*
X103442128Y-98862872D01*
X103485700Y-98928081D01*
X103501000Y-99005000D01*
X103501000Y-99305000D01*
X103485700Y-99381919D01*
X103442128Y-99447128D01*
X103376919Y-99490700D01*
X103300000Y-99506000D01*
X101650000Y-99506000D01*
X101573081Y-99490700D01*
X101507872Y-99447128D01*
X101464300Y-99381919D01*
X101449000Y-99305000D01*
X101449000Y-99005000D01*
X101464300Y-98928081D01*
X101507872Y-98862872D01*
X101573081Y-98819300D01*
X101650000Y-98804000D01*
X103300000Y-98804000D01*
X103376919Y-98819300D01*
G37*
G36*
X75261546Y-97467797D02*
G01*
X75424728Y-97535389D01*
X75571588Y-97633518D01*
X75696482Y-97758412D01*
X75794611Y-97905272D01*
X75862203Y-98068454D01*
X75896661Y-98241687D01*
X75896661Y-98418313D01*
X75862203Y-98591546D01*
X75794611Y-98754728D01*
X75696482Y-98901588D01*
X75571588Y-99026482D01*
X75424728Y-99124611D01*
X75261546Y-99192203D01*
X75088313Y-99226661D01*
X74911687Y-99226661D01*
X74738454Y-99192203D01*
X74575272Y-99124611D01*
X74428412Y-99026482D01*
X74303518Y-98901588D01*
X74205389Y-98754728D01*
X74137797Y-98591546D01*
X74103339Y-98418313D01*
X74103339Y-98241687D01*
X74137797Y-98068454D01*
X74205389Y-97905272D01*
X74303518Y-97758412D01*
X74428412Y-97633518D01*
X74575272Y-97535389D01*
X74738454Y-97467797D01*
X74911687Y-97433339D01*
X75088313Y-97433339D01*
X75261546Y-97467797D01*
G37*
G36*
X125261546Y-97347797D02*
G01*
X125424728Y-97415389D01*
X125571588Y-97513518D01*
X125696482Y-97638412D01*
X125794611Y-97785272D01*
X125862203Y-97948454D01*
X125896661Y-98121687D01*
X125896661Y-98298313D01*
X125862203Y-98471546D01*
X125794611Y-98634728D01*
X125696482Y-98781588D01*
X125571588Y-98906482D01*
X125424728Y-99004611D01*
X125261546Y-99072203D01*
X125088313Y-99106661D01*
X124911687Y-99106661D01*
X124738454Y-99072203D01*
X124575272Y-99004611D01*
X124428412Y-98906482D01*
X124303518Y-98781588D01*
X124205389Y-98634728D01*
X124137797Y-98471546D01*
X124103339Y-98298313D01*
X124103339Y-98121687D01*
X124137797Y-97948454D01*
X124205389Y-97785272D01*
X124303518Y-97638412D01*
X124428412Y-97513518D01*
X124575272Y-97415389D01*
X124738454Y-97347797D01*
X124911687Y-97313339D01*
X125088313Y-97313339D01*
X125261546Y-97347797D01*
G37*
G36*
X79513958Y-97159733D02*
G01*
X79559702Y-97190298D01*
X79590267Y-97236042D01*
X79601000Y-97290000D01*
X79601000Y-98610000D01*
X79590267Y-98663958D01*
X79559702Y-98709702D01*
X79513958Y-98740267D01*
X79460000Y-98751000D01*
X78740000Y-98751000D01*
X78686042Y-98740267D01*
X78640298Y-98709702D01*
X78609733Y-98663958D01*
X78599000Y-98610000D01*
X78599000Y-97290000D01*
X78609733Y-97236042D01*
X78640298Y-97190298D01*
X78686042Y-97159733D01*
X78740000Y-97149000D01*
X79460000Y-97149000D01*
X79513958Y-97159733D01*
G37*
G36*
X82813958Y-97159733D02*
G01*
X82859702Y-97190298D01*
X82890267Y-97236042D01*
X82901000Y-97290000D01*
X82901000Y-98610000D01*
X82890267Y-98663958D01*
X82859702Y-98709702D01*
X82813958Y-98740267D01*
X82760000Y-98751000D01*
X82040000Y-98751000D01*
X81986042Y-98740267D01*
X81940298Y-98709702D01*
X81909733Y-98663958D01*
X81899000Y-98610000D01*
X81899000Y-97290000D01*
X81909733Y-97236042D01*
X81940298Y-97190298D01*
X81986042Y-97159733D01*
X82040000Y-97149000D01*
X82760000Y-97149000D01*
X82813958Y-97159733D01*
G37*
G36*
X98426919Y-97549300D02*
G01*
X98492128Y-97592872D01*
X98535700Y-97658081D01*
X98551000Y-97735000D01*
X98551000Y-98035000D01*
X98535700Y-98111919D01*
X98492128Y-98177128D01*
X98426919Y-98220700D01*
X98350000Y-98236000D01*
X96700000Y-98236000D01*
X96623081Y-98220700D01*
X96557872Y-98177128D01*
X96514300Y-98111919D01*
X96499000Y-98035000D01*
X96499000Y-97735000D01*
X96514300Y-97658081D01*
X96557872Y-97592872D01*
X96623081Y-97549300D01*
X96700000Y-97534000D01*
X98350000Y-97534000D01*
X98426919Y-97549300D01*
G37*
G36*
X103376919Y-97549300D02*
G01*
X103442128Y-97592872D01*
X103485700Y-97658081D01*
X103501000Y-97735000D01*
X103501000Y-98035000D01*
X103485700Y-98111919D01*
X103442128Y-98177128D01*
X103376919Y-98220700D01*
X103300000Y-98236000D01*
X101650000Y-98236000D01*
X101573081Y-98220700D01*
X101507872Y-98177128D01*
X101464300Y-98111919D01*
X101449000Y-98035000D01*
X101449000Y-97735000D01*
X101464300Y-97658081D01*
X101507872Y-97592872D01*
X101573081Y-97549300D01*
X101650000Y-97534000D01*
X103300000Y-97534000D01*
X103376919Y-97549300D01*
G37*
G36*
X98426919Y-96279300D02*
G01*
X98492128Y-96322872D01*
X98535700Y-96388081D01*
X98551000Y-96465000D01*
X98551000Y-96765000D01*
X98535700Y-96841919D01*
X98492128Y-96907128D01*
X98426919Y-96950700D01*
X98350000Y-96966000D01*
X96700000Y-96966000D01*
X96623081Y-96950700D01*
X96557872Y-96907128D01*
X96514300Y-96841919D01*
X96499000Y-96765000D01*
X96499000Y-96465000D01*
X96514300Y-96388081D01*
X96557872Y-96322872D01*
X96623081Y-96279300D01*
X96700000Y-96264000D01*
X98350000Y-96264000D01*
X98426919Y-96279300D01*
G37*
G36*
X103376919Y-96279300D02*
G01*
X103442128Y-96322872D01*
X103485700Y-96388081D01*
X103501000Y-96465000D01*
X103501000Y-96765000D01*
X103485700Y-96841919D01*
X103442128Y-96907128D01*
X103376919Y-96950700D01*
X103300000Y-96966000D01*
X101650000Y-96966000D01*
X101573081Y-96950700D01*
X101507872Y-96907128D01*
X101464300Y-96841919D01*
X101449000Y-96765000D01*
X101449000Y-96465000D01*
X101464300Y-96388081D01*
X101507872Y-96322872D01*
X101573081Y-96279300D01*
X101650000Y-96264000D01*
X103300000Y-96264000D01*
X103376919Y-96279300D01*
G37*
G36*
X75261546Y-94927797D02*
G01*
X75424728Y-94995389D01*
X75571588Y-95093518D01*
X75696482Y-95218412D01*
X75794611Y-95365272D01*
X75862203Y-95528454D01*
X75896661Y-95701687D01*
X75896661Y-95878313D01*
X75862203Y-96051546D01*
X75794611Y-96214728D01*
X75696482Y-96361588D01*
X75571588Y-96486482D01*
X75424728Y-96584611D01*
X75261546Y-96652203D01*
X75088313Y-96686661D01*
X74911687Y-96686661D01*
X74738454Y-96652203D01*
X74575272Y-96584611D01*
X74428412Y-96486482D01*
X74303518Y-96361588D01*
X74205389Y-96214728D01*
X74137797Y-96051546D01*
X74103339Y-95878313D01*
X74103339Y-95701687D01*
X74137797Y-95528454D01*
X74205389Y-95365272D01*
X74303518Y-95218412D01*
X74428412Y-95093518D01*
X74575272Y-94995389D01*
X74738454Y-94927797D01*
X74911687Y-94893339D01*
X75088313Y-94893339D01*
X75261546Y-94927797D01*
G37*
G36*
X125261546Y-94807797D02*
G01*
X125424728Y-94875389D01*
X125571588Y-94973518D01*
X125696482Y-95098412D01*
X125794611Y-95245272D01*
X125862203Y-95408454D01*
X125896661Y-95581687D01*
X125896661Y-95758313D01*
X125862203Y-95931546D01*
X125794611Y-96094728D01*
X125696482Y-96241588D01*
X125571588Y-96366482D01*
X125424728Y-96464611D01*
X125261546Y-96532203D01*
X125088313Y-96566661D01*
X124911687Y-96566661D01*
X124738454Y-96532203D01*
X124575272Y-96464611D01*
X124428412Y-96366482D01*
X124303518Y-96241588D01*
X124205389Y-96094728D01*
X124137797Y-95931546D01*
X124103339Y-95758313D01*
X124103339Y-95581687D01*
X124137797Y-95408454D01*
X124205389Y-95245272D01*
X124303518Y-95098412D01*
X124428412Y-94973518D01*
X124575272Y-94875389D01*
X124738454Y-94807797D01*
X124911687Y-94773339D01*
X125088313Y-94773339D01*
X125261546Y-94807797D01*
G37*
G36*
X98426919Y-95009300D02*
G01*
X98492128Y-95052872D01*
X98535700Y-95118081D01*
X98551000Y-95195000D01*
X98551000Y-95495000D01*
X98535700Y-95571919D01*
X98492128Y-95637128D01*
X98426919Y-95680700D01*
X98350000Y-95696000D01*
X96700000Y-95696000D01*
X96623081Y-95680700D01*
X96557872Y-95637128D01*
X96514300Y-95571919D01*
X96499000Y-95495000D01*
X96499000Y-95195000D01*
X96514300Y-95118081D01*
X96557872Y-95052872D01*
X96623081Y-95009300D01*
X96700000Y-94994000D01*
X98350000Y-94994000D01*
X98426919Y-95009300D01*
G37*
G36*
X103376919Y-95009300D02*
G01*
X103442128Y-95052872D01*
X103485700Y-95118081D01*
X103501000Y-95195000D01*
X103501000Y-95495000D01*
X103485700Y-95571919D01*
X103442128Y-95637128D01*
X103376919Y-95680700D01*
X103300000Y-95696000D01*
X101650000Y-95696000D01*
X101573081Y-95680700D01*
X101507872Y-95637128D01*
X101464300Y-95571919D01*
X101449000Y-95495000D01*
X101449000Y-95195000D01*
X101464300Y-95118081D01*
X101507872Y-95052872D01*
X101573081Y-95009300D01*
X101650000Y-94994000D01*
X103300000Y-94994000D01*
X103376919Y-95009300D01*
G37*
G36*
X75869517Y-92352882D02*
G01*
X75886062Y-92363938D01*
X75897118Y-92380483D01*
X75901000Y-92400000D01*
X75901000Y-94100000D01*
X75897118Y-94119517D01*
X75886062Y-94136062D01*
X75869517Y-94147118D01*
X75850000Y-94151000D01*
X74150000Y-94151000D01*
X74130483Y-94147118D01*
X74113938Y-94136062D01*
X74102882Y-94119517D01*
X74099000Y-94100000D01*
X74099000Y-92400000D01*
X74102882Y-92380483D01*
X74113938Y-92363938D01*
X74130483Y-92352882D01*
X74150000Y-92349000D01*
X75850000Y-92349000D01*
X75869517Y-92352882D01*
G37*
G36*
X125261546Y-92267797D02*
G01*
X125424728Y-92335389D01*
X125571588Y-92433518D01*
X125696482Y-92558412D01*
X125794611Y-92705272D01*
X125862203Y-92868454D01*
X125896661Y-93041687D01*
X125896661Y-93218313D01*
X125862203Y-93391546D01*
X125794611Y-93554728D01*
X125696482Y-93701588D01*
X125571588Y-93826482D01*
X125424728Y-93924611D01*
X125261546Y-93992203D01*
X125088313Y-94026661D01*
X124911687Y-94026661D01*
X124738454Y-93992203D01*
X124575272Y-93924611D01*
X124428412Y-93826482D01*
X124303518Y-93701588D01*
X124205389Y-93554728D01*
X124137797Y-93391546D01*
X124103339Y-93218313D01*
X124103339Y-93041687D01*
X124137797Y-92868454D01*
X124205389Y-92705272D01*
X124303518Y-92558412D01*
X124428412Y-92433518D01*
X124575272Y-92335389D01*
X124738454Y-92267797D01*
X124911687Y-92233339D01*
X125088313Y-92233339D01*
X125261546Y-92267797D01*
G37*
G36*
X79513958Y-92259733D02*
G01*
X79559702Y-92290298D01*
X79590267Y-92336042D01*
X79601000Y-92390000D01*
X79601000Y-93710000D01*
X79590267Y-93763958D01*
X79559702Y-93809702D01*
X79513958Y-93840267D01*
X79460000Y-93851000D01*
X78740000Y-93851000D01*
X78686042Y-93840267D01*
X78640298Y-93809702D01*
X78609733Y-93763958D01*
X78599000Y-93710000D01*
X78599000Y-92390000D01*
X78609733Y-92336042D01*
X78640298Y-92290298D01*
X78686042Y-92259733D01*
X78740000Y-92249000D01*
X79460000Y-92249000D01*
X79513958Y-92259733D01*
G37*
G36*
X82813958Y-92259733D02*
G01*
X82859702Y-92290298D01*
X82890267Y-92336042D01*
X82901000Y-92390000D01*
X82901000Y-93710000D01*
X82890267Y-93763958D01*
X82859702Y-93809702D01*
X82813958Y-93840267D01*
X82760000Y-93851000D01*
X82040000Y-93851000D01*
X81986042Y-93840267D01*
X81940298Y-93809702D01*
X81909733Y-93763958D01*
X81899000Y-93710000D01*
X81899000Y-92390000D01*
X81909733Y-92336042D01*
X81940298Y-92290298D01*
X81986042Y-92259733D01*
X82040000Y-92249000D01*
X82760000Y-92249000D01*
X82813958Y-92259733D01*
G37*
G36*
X111313934Y-91624390D02*
G01*
X111477116Y-91691982D01*
X111623976Y-91790111D01*
X111748870Y-91915005D01*
X111846999Y-92061865D01*
X111914591Y-92225047D01*
X111949049Y-92398280D01*
X111949049Y-92574906D01*
X111914591Y-92748139D01*
X111846999Y-92911321D01*
X111748870Y-93058181D01*
X111623976Y-93183075D01*
X111477116Y-93281204D01*
X111313934Y-93348796D01*
X111140701Y-93383254D01*
X110964075Y-93383254D01*
X110790842Y-93348796D01*
X110627660Y-93281204D01*
X110480800Y-93183075D01*
X110355906Y-93058181D01*
X110257777Y-92911321D01*
X110190185Y-92748139D01*
X110155727Y-92574906D01*
X110155727Y-92398280D01*
X110190185Y-92225047D01*
X110257777Y-92061865D01*
X110355906Y-91915005D01*
X110480800Y-91790111D01*
X110627660Y-91691982D01*
X110790842Y-91624390D01*
X110964075Y-91589932D01*
X111140701Y-91589932D01*
X111313934Y-91624390D01*
G37*
G36*
X109517883Y-89828339D02*
G01*
X109681065Y-89895931D01*
X109827925Y-89994060D01*
X109952819Y-90118954D01*
X110050948Y-90265814D01*
X110118540Y-90428996D01*
X110152998Y-90602229D01*
X110152998Y-90778855D01*
X110118540Y-90952088D01*
X110050948Y-91115270D01*
X109952819Y-91262130D01*
X109827925Y-91387024D01*
X109681065Y-91485153D01*
X109517883Y-91552745D01*
X109344650Y-91587203D01*
X109168024Y-91587203D01*
X108994791Y-91552745D01*
X108831609Y-91485153D01*
X108684749Y-91387024D01*
X108559855Y-91262130D01*
X108461726Y-91115270D01*
X108394134Y-90952088D01*
X108359676Y-90778855D01*
X108359676Y-90602229D01*
X108394134Y-90428996D01*
X108461726Y-90265814D01*
X108559855Y-90118954D01*
X108684749Y-89994060D01*
X108831609Y-89895931D01*
X108994791Y-89828339D01*
X109168024Y-89793881D01*
X109344650Y-89793881D01*
X109517883Y-89828339D01*
G37*
G36*
X113109986Y-89828339D02*
G01*
X113273168Y-89895931D01*
X113420028Y-89994060D01*
X113544922Y-90118954D01*
X113643051Y-90265814D01*
X113710643Y-90428996D01*
X113745101Y-90602229D01*
X113745101Y-90778855D01*
X113710643Y-90952088D01*
X113643051Y-91115270D01*
X113544922Y-91262130D01*
X113420028Y-91387024D01*
X113273168Y-91485153D01*
X113109986Y-91552745D01*
X112936753Y-91587203D01*
X112760127Y-91587203D01*
X112586894Y-91552745D01*
X112423712Y-91485153D01*
X112276852Y-91387024D01*
X112151958Y-91262130D01*
X112053829Y-91115270D01*
X111986237Y-90952088D01*
X111951779Y-90778855D01*
X111951779Y-90602229D01*
X111986237Y-90428996D01*
X112053829Y-90265814D01*
X112151958Y-90118954D01*
X112276852Y-89994060D01*
X112423712Y-89895931D01*
X112586894Y-89828339D01*
X112760127Y-89793881D01*
X112936753Y-89793881D01*
X113109986Y-89828339D01*
G37*
G36*
X121763958Y-89909733D02*
G01*
X121809702Y-89940298D01*
X121840267Y-89986042D01*
X121851000Y-90040000D01*
X121851000Y-91360000D01*
X121840267Y-91413958D01*
X121809702Y-91459702D01*
X121763958Y-91490267D01*
X121710000Y-91501000D01*
X120990000Y-91501000D01*
X120936042Y-91490267D01*
X120890298Y-91459702D01*
X120859733Y-91413958D01*
X120849000Y-91360000D01*
X120849000Y-90040000D01*
X120859733Y-89986042D01*
X120890298Y-89940298D01*
X120936042Y-89909733D01*
X120990000Y-89899000D01*
X121710000Y-89899000D01*
X121763958Y-89909733D01*
G37*
G36*
X125063958Y-89909733D02*
G01*
X125109702Y-89940298D01*
X125140267Y-89986042D01*
X125151000Y-90040000D01*
X125151000Y-91360000D01*
X125140267Y-91413958D01*
X125109702Y-91459702D01*
X125063958Y-91490267D01*
X125010000Y-91501000D01*
X124290000Y-91501000D01*
X124236042Y-91490267D01*
X124190298Y-91459702D01*
X124159733Y-91413958D01*
X124149000Y-91360000D01*
X124149000Y-90040000D01*
X124159733Y-89986042D01*
X124190298Y-89940298D01*
X124236042Y-89909733D01*
X124290000Y-89899000D01*
X125010000Y-89899000D01*
X125063958Y-89909733D01*
G37*
G36*
X83254475Y-88433848D02*
G01*
X83417657Y-88501440D01*
X83564517Y-88599569D01*
X83689411Y-88724463D01*
X83787540Y-88871323D01*
X83855132Y-89034505D01*
X83889590Y-89207738D01*
X83889590Y-89384364D01*
X83855132Y-89557597D01*
X83787540Y-89720779D01*
X83689411Y-89867639D01*
X83564517Y-89992533D01*
X83417657Y-90090662D01*
X83254475Y-90158254D01*
X83081242Y-90192712D01*
X82904616Y-90192712D01*
X82731383Y-90158254D01*
X82568201Y-90090662D01*
X82421341Y-89992533D01*
X82296447Y-89867639D01*
X82198318Y-89720779D01*
X82130726Y-89557597D01*
X82096268Y-89384364D01*
X82096268Y-89207738D01*
X82130726Y-89034505D01*
X82198318Y-88871323D01*
X82296447Y-88724463D01*
X82421341Y-88599569D01*
X82568201Y-88501440D01*
X82731383Y-88433848D01*
X82904616Y-88399390D01*
X83081242Y-88399390D01*
X83254475Y-88433848D01*
G37*
G36*
X111313934Y-88032288D02*
G01*
X111477116Y-88099880D01*
X111623976Y-88198009D01*
X111748870Y-88322903D01*
X111846999Y-88469763D01*
X111914591Y-88632945D01*
X111949049Y-88806178D01*
X111949049Y-88982804D01*
X111914591Y-89156037D01*
X111846999Y-89319219D01*
X111748870Y-89466079D01*
X111623976Y-89590973D01*
X111477116Y-89689102D01*
X111313934Y-89756694D01*
X111140701Y-89791152D01*
X110964075Y-89791152D01*
X110790842Y-89756694D01*
X110627660Y-89689102D01*
X110480800Y-89590973D01*
X110355906Y-89466079D01*
X110257777Y-89319219D01*
X110190185Y-89156037D01*
X110155727Y-88982804D01*
X110155727Y-88806178D01*
X110190185Y-88632945D01*
X110257777Y-88469763D01*
X110355906Y-88322903D01*
X110480800Y-88198009D01*
X110627660Y-88099880D01*
X110790842Y-88032288D01*
X110964075Y-87997830D01*
X111140701Y-87997830D01*
X111313934Y-88032288D01*
G37*
G36*
X114906037Y-88032288D02*
G01*
X115069219Y-88099880D01*
X115216079Y-88198009D01*
X115340973Y-88322903D01*
X115439102Y-88469763D01*
X115506694Y-88632945D01*
X115541152Y-88806178D01*
X115541152Y-88982804D01*
X115506694Y-89156037D01*
X115439102Y-89319219D01*
X115340973Y-89466079D01*
X115216079Y-89590973D01*
X115069219Y-89689102D01*
X114906037Y-89756694D01*
X114732804Y-89791152D01*
X114556178Y-89791152D01*
X114382945Y-89756694D01*
X114219763Y-89689102D01*
X114072903Y-89590973D01*
X113948009Y-89466079D01*
X113849880Y-89319219D01*
X113782288Y-89156037D01*
X113747830Y-88982804D01*
X113747830Y-88806178D01*
X113782288Y-88632945D01*
X113849880Y-88469763D01*
X113948009Y-88322903D01*
X114072903Y-88198009D01*
X114219763Y-88099880D01*
X114382945Y-88032288D01*
X114556178Y-87997830D01*
X114732804Y-87997830D01*
X114906037Y-88032288D01*
G37*
G36*
X81216395Y-86250800D02*
G01*
X81232940Y-86261856D01*
X81236075Y-86264991D01*
X82431888Y-87460803D01*
X82431890Y-87460806D01*
X82435022Y-87463938D01*
X82446078Y-87480483D01*
X82449959Y-87500000D01*
X82446078Y-87519517D01*
X82435022Y-87536062D01*
X81232940Y-88738144D01*
X81216395Y-88749200D01*
X81196878Y-88753081D01*
X81177361Y-88749200D01*
X81160816Y-88738144D01*
X80618986Y-88196314D01*
X79961867Y-87539196D01*
X79961864Y-87539192D01*
X79958734Y-87536062D01*
X79947678Y-87519517D01*
X79943797Y-87500000D01*
X79947678Y-87480483D01*
X79958734Y-87463938D01*
X79961866Y-87460805D01*
X79961869Y-87460802D01*
X81157681Y-86264989D01*
X81157687Y-86264984D01*
X81160816Y-86261856D01*
X81177361Y-86250800D01*
X81196878Y-86246919D01*
X81216395Y-86250800D01*
G37*
G36*
X85050526Y-86637797D02*
G01*
X85213708Y-86705389D01*
X85360568Y-86803518D01*
X85485462Y-86928412D01*
X85583591Y-87075272D01*
X85651183Y-87238454D01*
X85685641Y-87411687D01*
X85685641Y-87588313D01*
X85651183Y-87761546D01*
X85583591Y-87924728D01*
X85485462Y-88071588D01*
X85360568Y-88196482D01*
X85213708Y-88294611D01*
X85050526Y-88362203D01*
X84877293Y-88396661D01*
X84700667Y-88396661D01*
X84527434Y-88362203D01*
X84364252Y-88294611D01*
X84217392Y-88196482D01*
X84092498Y-88071588D01*
X83994369Y-87924728D01*
X83926777Y-87761546D01*
X83892319Y-87588313D01*
X83892319Y-87411687D01*
X83926777Y-87238454D01*
X83994369Y-87075272D01*
X84092498Y-86928412D01*
X84217392Y-86803518D01*
X84364252Y-86705389D01*
X84527434Y-86637797D01*
X84700667Y-86603339D01*
X84877293Y-86603339D01*
X85050526Y-86637797D01*
G37*
G36*
X113109986Y-86236236D02*
G01*
X113273168Y-86303828D01*
X113420028Y-86401957D01*
X113544922Y-86526851D01*
X113643051Y-86673711D01*
X113710643Y-86836893D01*
X113745101Y-87010126D01*
X113745101Y-87186752D01*
X113710643Y-87359985D01*
X113643051Y-87523167D01*
X113544922Y-87670027D01*
X113420028Y-87794921D01*
X113273168Y-87893050D01*
X113109986Y-87960642D01*
X112936753Y-87995100D01*
X112760127Y-87995100D01*
X112586894Y-87960642D01*
X112423712Y-87893050D01*
X112276852Y-87794921D01*
X112151958Y-87670027D01*
X112053829Y-87523167D01*
X111986237Y-87359985D01*
X111951779Y-87186752D01*
X111951779Y-87010126D01*
X111986237Y-86836893D01*
X112053829Y-86673711D01*
X112151958Y-86526851D01*
X112276852Y-86401957D01*
X112423712Y-86303828D01*
X112586894Y-86236236D01*
X112760127Y-86201778D01*
X112936753Y-86201778D01*
X113109986Y-86236236D01*
G37*
G36*
X116702088Y-86236236D02*
G01*
X116865270Y-86303828D01*
X117012130Y-86401957D01*
X117137024Y-86526851D01*
X117235153Y-86673711D01*
X117302745Y-86836893D01*
X117337203Y-87010126D01*
X117337203Y-87186752D01*
X117302745Y-87359985D01*
X117235153Y-87523167D01*
X117137024Y-87670027D01*
X117012130Y-87794921D01*
X116865270Y-87893050D01*
X116702088Y-87960642D01*
X116528855Y-87995100D01*
X116352229Y-87995100D01*
X116178996Y-87960642D01*
X116015814Y-87893050D01*
X115868954Y-87794921D01*
X115744060Y-87670027D01*
X115645931Y-87523167D01*
X115578339Y-87359985D01*
X115543881Y-87186752D01*
X115543881Y-87010126D01*
X115578339Y-86836893D01*
X115645931Y-86673711D01*
X115744060Y-86526851D01*
X115868954Y-86401957D01*
X116015814Y-86303828D01*
X116178996Y-86236236D01*
X116352229Y-86201778D01*
X116528855Y-86201778D01*
X116702088Y-86236236D01*
G37*
G36*
X76740121Y-84641289D02*
G01*
X76756666Y-84652344D01*
X77190364Y-85086042D01*
X78344523Y-86240200D01*
X78344525Y-86240203D01*
X78347657Y-86243335D01*
X78358712Y-86259880D01*
X78362594Y-86279397D01*
X78358712Y-86298914D01*
X78347657Y-86315459D01*
X76756666Y-87906450D01*
X76740121Y-87917505D01*
X76720604Y-87921387D01*
X76701087Y-87917505D01*
X76684542Y-87906450D01*
X75581610Y-86803518D01*
X75096684Y-86318593D01*
X75096681Y-86318589D01*
X75093551Y-86315459D01*
X75082496Y-86298914D01*
X75078614Y-86279397D01*
X75082496Y-86259880D01*
X75093551Y-86243335D01*
X75463049Y-85873837D01*
X76681407Y-84655477D01*
X76681413Y-84655472D01*
X76684542Y-84652344D01*
X76701087Y-84641289D01*
X76720604Y-84637407D01*
X76740121Y-84641289D01*
G37*
G36*
X121763958Y-85009733D02*
G01*
X121809702Y-85040298D01*
X121840267Y-85086042D01*
X121851000Y-85140000D01*
X121851000Y-86460000D01*
X121840267Y-86513958D01*
X121809702Y-86559702D01*
X121763958Y-86590267D01*
X121710000Y-86601000D01*
X120990000Y-86601000D01*
X120936042Y-86590267D01*
X120890298Y-86559702D01*
X120859733Y-86513958D01*
X120849000Y-86460000D01*
X120849000Y-85140000D01*
X120859733Y-85086042D01*
X120890298Y-85040298D01*
X120936042Y-85009733D01*
X120990000Y-84999000D01*
X121710000Y-84999000D01*
X121763958Y-85009733D01*
G37*
G36*
X125063958Y-85009733D02*
G01*
X125109702Y-85040298D01*
X125140267Y-85086042D01*
X125151000Y-85140000D01*
X125151000Y-86460000D01*
X125140267Y-86513958D01*
X125109702Y-86559702D01*
X125063958Y-86590267D01*
X125010000Y-86601000D01*
X124290000Y-86601000D01*
X124236042Y-86590267D01*
X124190298Y-86559702D01*
X124159733Y-86513958D01*
X124149000Y-86460000D01*
X124149000Y-85140000D01*
X124159733Y-85086042D01*
X124190298Y-85040298D01*
X124236042Y-85009733D01*
X124290000Y-84999000D01*
X125010000Y-84999000D01*
X125063958Y-85009733D01*
G37*
G36*
X83254475Y-84841746D02*
G01*
X83417657Y-84909338D01*
X83564517Y-85007467D01*
X83689411Y-85132361D01*
X83787540Y-85279221D01*
X83855132Y-85442403D01*
X83889590Y-85615636D01*
X83889590Y-85792262D01*
X83855132Y-85965495D01*
X83787540Y-86128677D01*
X83689411Y-86275537D01*
X83564517Y-86400431D01*
X83417657Y-86498560D01*
X83254475Y-86566152D01*
X83081242Y-86600610D01*
X82904616Y-86600610D01*
X82731383Y-86566152D01*
X82568201Y-86498560D01*
X82421341Y-86400431D01*
X82296447Y-86275537D01*
X82198318Y-86128677D01*
X82130726Y-85965495D01*
X82096268Y-85792262D01*
X82096268Y-85615636D01*
X82130726Y-85442403D01*
X82198318Y-85279221D01*
X82296447Y-85132361D01*
X82421341Y-85007467D01*
X82568201Y-84909338D01*
X82731383Y-84841746D01*
X82904616Y-84807288D01*
X83081242Y-84807288D01*
X83254475Y-84841746D01*
G37*
G36*
X114906037Y-84440185D02*
G01*
X115069219Y-84507777D01*
X115216079Y-84605906D01*
X115340973Y-84730800D01*
X115439102Y-84877660D01*
X115506694Y-85040842D01*
X115541152Y-85214075D01*
X115541152Y-85390701D01*
X115506694Y-85563934D01*
X115439102Y-85727116D01*
X115340973Y-85873976D01*
X115216079Y-85998870D01*
X115069219Y-86096999D01*
X114906037Y-86164591D01*
X114732804Y-86199049D01*
X114556178Y-86199049D01*
X114382945Y-86164591D01*
X114219763Y-86096999D01*
X114072903Y-85998870D01*
X113948009Y-85873976D01*
X113849880Y-85727116D01*
X113782288Y-85563934D01*
X113747830Y-85390701D01*
X113747830Y-85214075D01*
X113782288Y-85040842D01*
X113849880Y-84877660D01*
X113948009Y-84730800D01*
X114072903Y-84605906D01*
X114219763Y-84507777D01*
X114382945Y-84440185D01*
X114556178Y-84405727D01*
X114732804Y-84405727D01*
X114906037Y-84440185D01*
G37*
G36*
X118498139Y-84440185D02*
G01*
X118661321Y-84507777D01*
X118808181Y-84605906D01*
X118933075Y-84730800D01*
X119031204Y-84877660D01*
X119098796Y-85040842D01*
X119133254Y-85214075D01*
X119133254Y-85390701D01*
X119098796Y-85563934D01*
X119031204Y-85727116D01*
X118933075Y-85873976D01*
X118808181Y-85998870D01*
X118661321Y-86096999D01*
X118498139Y-86164591D01*
X118324906Y-86199049D01*
X118148280Y-86199049D01*
X117975047Y-86164591D01*
X117811865Y-86096999D01*
X117665005Y-85998870D01*
X117540111Y-85873976D01*
X117441982Y-85727116D01*
X117374390Y-85563934D01*
X117339932Y-85390701D01*
X117339932Y-85214075D01*
X117374390Y-85040842D01*
X117441982Y-84877660D01*
X117540111Y-84730800D01*
X117665005Y-84605906D01*
X117811865Y-84507777D01*
X117975047Y-84440185D01*
X118148280Y-84405727D01*
X118324906Y-84405727D01*
X118498139Y-84440185D01*
G37*
G36*
X116460059Y-82257137D02*
G01*
X116476604Y-82268193D01*
X116479739Y-82271328D01*
X117675552Y-83467140D01*
X117675554Y-83467143D01*
X117678686Y-83470275D01*
X117689742Y-83486820D01*
X117693623Y-83506337D01*
X117689742Y-83525854D01*
X117678686Y-83542399D01*
X116476604Y-84744481D01*
X116460059Y-84755537D01*
X116440542Y-84759418D01*
X116421025Y-84755537D01*
X116404480Y-84744481D01*
X116065726Y-84405727D01*
X115205531Y-83545533D01*
X115205528Y-83545529D01*
X115202398Y-83542399D01*
X115191342Y-83525854D01*
X115187461Y-83506337D01*
X115191342Y-83486820D01*
X115202398Y-83470275D01*
X115205530Y-83467142D01*
X115205533Y-83467139D01*
X116401345Y-82271326D01*
X116401351Y-82271321D01*
X116404480Y-82268193D01*
X116421025Y-82257137D01*
X116440542Y-82253256D01*
X116460059Y-82257137D01*
G37*
G36*
X81591330Y-80539696D02*
G01*
X81766834Y-80596721D01*
X81931256Y-80680498D01*
X82080549Y-80788966D01*
X82211035Y-80919452D01*
X82319503Y-81068745D01*
X82403280Y-81233167D01*
X82460305Y-81408671D01*
X82489173Y-81590935D01*
X82489173Y-81775471D01*
X82460305Y-81957735D01*
X82403280Y-82133239D01*
X82319503Y-82297661D01*
X82211035Y-82446954D01*
X82080549Y-82577440D01*
X81931256Y-82685908D01*
X81766834Y-82769685D01*
X81591330Y-82826710D01*
X81409066Y-82855578D01*
X81224530Y-82855578D01*
X81042266Y-82826710D01*
X80866762Y-82769685D01*
X80702340Y-82685908D01*
X80553047Y-82577440D01*
X80422561Y-82446954D01*
X80314093Y-82297661D01*
X80230316Y-82133239D01*
X80173291Y-81957735D01*
X80144423Y-81775471D01*
X80144423Y-81590935D01*
X80173291Y-81408671D01*
X80230316Y-81233167D01*
X80314093Y-81068745D01*
X80422561Y-80919452D01*
X80553047Y-80788966D01*
X80702340Y-80680498D01*
X80866762Y-80596721D01*
X81042266Y-80539696D01*
X81224530Y-80510828D01*
X81409066Y-80510828D01*
X81591330Y-80539696D01*
G37*
G36*
X89413958Y-77859733D02*
G01*
X89459702Y-77890298D01*
X89490267Y-77936042D01*
X89501000Y-77990000D01*
X89501000Y-79310000D01*
X89490267Y-79363958D01*
X89459702Y-79409702D01*
X89413958Y-79440267D01*
X89360000Y-79451000D01*
X88640000Y-79451000D01*
X88586042Y-79440267D01*
X88540298Y-79409702D01*
X88509733Y-79363958D01*
X88499000Y-79310000D01*
X88499000Y-77990000D01*
X88509733Y-77936042D01*
X88540298Y-77890298D01*
X88586042Y-77859733D01*
X88640000Y-77849000D01*
X89360000Y-77849000D01*
X89413958Y-77859733D01*
G37*
G36*
X92713958Y-77859733D02*
G01*
X92759702Y-77890298D01*
X92790267Y-77936042D01*
X92801000Y-77990000D01*
X92801000Y-79310000D01*
X92790267Y-79363958D01*
X92759702Y-79409702D01*
X92713958Y-79440267D01*
X92660000Y-79451000D01*
X91940000Y-79451000D01*
X91886042Y-79440267D01*
X91840298Y-79409702D01*
X91809733Y-79363958D01*
X91799000Y-79310000D01*
X91799000Y-77990000D01*
X91809733Y-77936042D01*
X91840298Y-77890298D01*
X91886042Y-77859733D01*
X91940000Y-77849000D01*
X92660000Y-77849000D01*
X92713958Y-77859733D01*
G37*
G36*
X107663958Y-77609733D02*
G01*
X107709702Y-77640298D01*
X107740267Y-77686042D01*
X107751000Y-77740000D01*
X107751000Y-79060000D01*
X107740267Y-79113958D01*
X107709702Y-79159702D01*
X107663958Y-79190267D01*
X107610000Y-79201000D01*
X106890000Y-79201000D01*
X106836042Y-79190267D01*
X106790298Y-79159702D01*
X106759733Y-79113958D01*
X106749000Y-79060000D01*
X106749000Y-77740000D01*
X106759733Y-77686042D01*
X106790298Y-77640298D01*
X106836042Y-77609733D01*
X106890000Y-77599000D01*
X107610000Y-77599000D01*
X107663958Y-77609733D01*
G37*
G36*
X110963958Y-77609733D02*
G01*
X111009702Y-77640298D01*
X111040267Y-77686042D01*
X111051000Y-77740000D01*
X111051000Y-79060000D01*
X111040267Y-79113958D01*
X111009702Y-79159702D01*
X110963958Y-79190267D01*
X110910000Y-79201000D01*
X110190000Y-79201000D01*
X110136042Y-79190267D01*
X110090298Y-79159702D01*
X110059733Y-79113958D01*
X110049000Y-79060000D01*
X110049000Y-77740000D01*
X110059733Y-77686042D01*
X110090298Y-77640298D01*
X110136042Y-77609733D01*
X110190000Y-77599000D01*
X110910000Y-77599000D01*
X110963958Y-77609733D01*
G37*
G36*
X118831958Y-70771586D02*
G01*
X119143656Y-70842729D01*
X119445428Y-70948323D01*
X119733481Y-71087042D01*
X120004190Y-71257140D01*
X120254152Y-71456478D01*
X120480224Y-71682550D01*
X120679562Y-71932512D01*
X120849660Y-72203221D01*
X120988379Y-72491274D01*
X121093973Y-72793046D01*
X121165116Y-73104744D01*
X121200913Y-73422447D01*
X121200913Y-73742161D01*
X121165116Y-74059864D01*
X121093973Y-74371562D01*
X120988379Y-74673334D01*
X120849660Y-74961387D01*
X120679562Y-75232096D01*
X120480224Y-75482058D01*
X120254152Y-75708130D01*
X120004190Y-75907468D01*
X119733481Y-76077566D01*
X119445428Y-76216285D01*
X119143656Y-76321879D01*
X118831958Y-76393022D01*
X118514255Y-76428819D01*
X118194541Y-76428819D01*
X117876838Y-76393022D01*
X117565140Y-76321879D01*
X117263368Y-76216285D01*
X116975315Y-76077566D01*
X116704606Y-75907468D01*
X116454644Y-75708130D01*
X116228572Y-75482058D01*
X116029234Y-75232096D01*
X115859136Y-74961387D01*
X115720417Y-74673334D01*
X115614823Y-74371562D01*
X115543680Y-74059864D01*
X115507883Y-73742161D01*
X115507883Y-73422447D01*
X115543680Y-73104744D01*
X115614823Y-72793046D01*
X115720417Y-72491274D01*
X115859136Y-72203221D01*
X116029234Y-71932512D01*
X116228572Y-71682550D01*
X116454644Y-71456478D01*
X116704606Y-71257140D01*
X116975315Y-71087042D01*
X117263368Y-70948323D01*
X117565140Y-70842729D01*
X117876838Y-70771586D01*
X118194541Y-70735789D01*
X118514255Y-70735789D01*
X118831958Y-70771586D01*
G37*
G36*
X82123178Y-70771556D02*
G01*
X82434876Y-70842699D01*
X82736648Y-70948293D01*
X83024701Y-71087012D01*
X83295410Y-71257110D01*
X83545372Y-71456448D01*
X83771444Y-71682520D01*
X83970782Y-71932482D01*
X84140880Y-72203191D01*
X84279599Y-72491244D01*
X84385193Y-72793016D01*
X84456336Y-73104714D01*
X84492133Y-73422417D01*
X84492133Y-73742131D01*
X84456336Y-74059834D01*
X84385193Y-74371532D01*
X84279599Y-74673304D01*
X84140880Y-74961357D01*
X83970782Y-75232066D01*
X83771444Y-75482028D01*
X83545372Y-75708100D01*
X83295410Y-75907438D01*
X83024701Y-76077536D01*
X82736648Y-76216255D01*
X82434876Y-76321849D01*
X82123178Y-76392992D01*
X81805475Y-76428789D01*
X81485761Y-76428789D01*
X81168058Y-76392992D01*
X80856360Y-76321849D01*
X80554588Y-76216255D01*
X80266535Y-76077536D01*
X79995826Y-75907438D01*
X79745864Y-75708100D01*
X79519792Y-75482028D01*
X79320454Y-75232066D01*
X79150356Y-74961357D01*
X79011637Y-74673304D01*
X78906043Y-74371532D01*
X78834900Y-74059834D01*
X78799103Y-73742131D01*
X78799103Y-73422417D01*
X78834900Y-73104714D01*
X78906043Y-72793016D01*
X79011637Y-72491244D01*
X79150356Y-72203191D01*
X79320454Y-71932482D01*
X79519792Y-71682520D01*
X79745864Y-71456448D01*
X79995826Y-71257110D01*
X80266535Y-71087012D01*
X80554588Y-70948293D01*
X80856360Y-70842699D01*
X81168058Y-70771556D01*
X81485761Y-70735759D01*
X81805475Y-70735759D01*
X82123178Y-70771556D01*
G37*
G36*
X97641182Y-73968928D02*
G01*
X97650183Y-73968928D01*
X97676117Y-73975877D01*
X97742137Y-73989009D01*
X97773295Y-74001915D01*
X97795426Y-74007845D01*
X97815268Y-74019300D01*
X97846424Y-74032206D01*
X97902383Y-74069597D01*
X97925647Y-74083028D01*
X97932014Y-74089395D01*
X97940272Y-74094913D01*
X98020086Y-74174727D01*
X98025603Y-74182984D01*
X98031972Y-74189353D01*
X98045405Y-74212619D01*
X98082793Y-74268575D01*
X98095697Y-74299728D01*
X98107155Y-74319574D01*
X98113085Y-74341708D01*
X98125990Y-74372862D01*
X98139120Y-74438872D01*
X98146072Y-74464817D01*
X98146952Y-74478246D01*
X98148226Y-74484650D01*
X98150782Y-74536683D01*
X98151000Y-74540000D01*
X98151000Y-74940000D01*
X98150782Y-74943319D01*
X98148226Y-74995349D01*
X98146952Y-75001752D01*
X98146072Y-75015183D01*
X98139119Y-75041130D01*
X98125990Y-75107137D01*
X98113086Y-75138288D01*
X98107155Y-75160426D01*
X98095695Y-75180274D01*
X98082793Y-75211424D01*
X98045409Y-75267372D01*
X98031972Y-75290647D01*
X98025601Y-75297017D01*
X98020086Y-75305272D01*
X97940272Y-75385086D01*
X97932017Y-75390601D01*
X97925647Y-75396972D01*
X97902372Y-75410409D01*
X97846424Y-75447793D01*
X97815274Y-75460695D01*
X97795426Y-75472155D01*
X97773288Y-75478086D01*
X97742137Y-75490990D01*
X97676123Y-75504121D01*
X97650183Y-75511072D01*
X97641182Y-75511072D01*
X97631439Y-75513010D01*
X97518561Y-75513010D01*
X97508818Y-75511072D01*
X97499817Y-75511072D01*
X97473877Y-75504121D01*
X97407862Y-75490990D01*
X97376708Y-75478085D01*
X97354574Y-75472155D01*
X97334728Y-75460697D01*
X97303575Y-75447793D01*
X97247619Y-75410405D01*
X97224353Y-75396972D01*
X97217984Y-75390603D01*
X97209727Y-75385086D01*
X97129913Y-75305272D01*
X97124395Y-75297014D01*
X97118028Y-75290647D01*
X97104597Y-75267383D01*
X97067206Y-75211424D01*
X97054300Y-75180268D01*
X97042845Y-75160426D01*
X97036915Y-75138295D01*
X97024009Y-75107137D01*
X97010876Y-75041116D01*
X97003928Y-75015183D01*
X97003048Y-75001759D01*
X97001773Y-74995349D01*
X96999217Y-74943315D01*
X96999000Y-74940000D01*
X96999000Y-74540000D01*
X96999217Y-74536687D01*
X97001773Y-74484650D01*
X97003048Y-74478238D01*
X97003928Y-74464817D01*
X97010875Y-74438886D01*
X97024009Y-74372862D01*
X97036916Y-74341701D01*
X97042845Y-74319574D01*
X97054299Y-74299734D01*
X97067206Y-74268575D01*
X97104601Y-74212608D01*
X97118028Y-74189353D01*
X97124393Y-74182987D01*
X97129913Y-74174727D01*
X97209727Y-74094913D01*
X97217987Y-74089393D01*
X97224353Y-74083028D01*
X97247608Y-74069601D01*
X97303575Y-74032206D01*
X97334734Y-74019299D01*
X97354574Y-74007845D01*
X97376701Y-74001916D01*
X97407862Y-73989009D01*
X97473883Y-73975876D01*
X97499817Y-73968928D01*
X97508818Y-73968928D01*
X97518561Y-73966990D01*
X97631439Y-73966990D01*
X97641182Y-73968928D01*
G37*
G36*
X102491182Y-73968928D02*
G01*
X102500183Y-73968928D01*
X102526117Y-73975877D01*
X102592137Y-73989009D01*
X102623295Y-74001915D01*
X102645426Y-74007845D01*
X102665268Y-74019300D01*
X102696424Y-74032206D01*
X102752383Y-74069597D01*
X102775647Y-74083028D01*
X102782014Y-74089395D01*
X102790272Y-74094913D01*
X102870086Y-74174727D01*
X102875603Y-74182984D01*
X102881972Y-74189353D01*
X102895405Y-74212619D01*
X102932793Y-74268575D01*
X102945697Y-74299728D01*
X102957155Y-74319574D01*
X102963085Y-74341708D01*
X102975990Y-74372862D01*
X102989120Y-74438872D01*
X102996072Y-74464817D01*
X102996952Y-74478246D01*
X102998226Y-74484650D01*
X103000782Y-74536683D01*
X103001000Y-74540000D01*
X103001000Y-74940000D01*
X103000782Y-74943319D01*
X102998226Y-74995349D01*
X102996952Y-75001752D01*
X102996072Y-75015183D01*
X102989119Y-75041130D01*
X102975990Y-75107137D01*
X102963086Y-75138288D01*
X102957155Y-75160426D01*
X102945695Y-75180274D01*
X102932793Y-75211424D01*
X102895409Y-75267372D01*
X102881972Y-75290647D01*
X102875601Y-75297017D01*
X102870086Y-75305272D01*
X102790272Y-75385086D01*
X102782017Y-75390601D01*
X102775647Y-75396972D01*
X102752372Y-75410409D01*
X102696424Y-75447793D01*
X102665274Y-75460695D01*
X102645426Y-75472155D01*
X102623288Y-75478086D01*
X102592137Y-75490990D01*
X102526123Y-75504121D01*
X102500183Y-75511072D01*
X102491182Y-75511072D01*
X102481439Y-75513010D01*
X102368561Y-75513010D01*
X102358818Y-75511072D01*
X102349817Y-75511072D01*
X102323877Y-75504121D01*
X102257862Y-75490990D01*
X102226708Y-75478085D01*
X102204574Y-75472155D01*
X102184728Y-75460697D01*
X102153575Y-75447793D01*
X102097619Y-75410405D01*
X102074353Y-75396972D01*
X102067984Y-75390603D01*
X102059727Y-75385086D01*
X101979913Y-75305272D01*
X101974395Y-75297014D01*
X101968028Y-75290647D01*
X101954597Y-75267383D01*
X101917206Y-75211424D01*
X101904300Y-75180268D01*
X101892845Y-75160426D01*
X101886915Y-75138295D01*
X101874009Y-75107137D01*
X101860876Y-75041116D01*
X101853928Y-75015183D01*
X101853048Y-75001759D01*
X101851773Y-74995349D01*
X101849217Y-74943315D01*
X101849000Y-74940000D01*
X101849000Y-74540000D01*
X101849217Y-74536687D01*
X101851773Y-74484650D01*
X101853048Y-74478238D01*
X101853928Y-74464817D01*
X101860875Y-74438886D01*
X101874009Y-74372862D01*
X101886916Y-74341701D01*
X101892845Y-74319574D01*
X101904299Y-74299734D01*
X101917206Y-74268575D01*
X101954601Y-74212608D01*
X101968028Y-74189353D01*
X101974393Y-74182987D01*
X101979913Y-74174727D01*
X102059727Y-74094913D01*
X102067987Y-74089393D01*
X102074353Y-74083028D01*
X102097608Y-74069601D01*
X102153575Y-74032206D01*
X102184734Y-74019299D01*
X102204574Y-74007845D01*
X102226701Y-74001916D01*
X102257862Y-73989009D01*
X102323883Y-73975876D01*
X102349817Y-73968928D01*
X102358818Y-73968928D01*
X102368561Y-73966990D01*
X102481439Y-73966990D01*
X102491182Y-73968928D01*
G37*
G36*
X89413958Y-72959733D02*
G01*
X89459702Y-72990298D01*
X89490267Y-73036042D01*
X89501000Y-73090000D01*
X89501000Y-74410000D01*
X89490267Y-74463958D01*
X89459702Y-74509702D01*
X89413958Y-74540267D01*
X89360000Y-74551000D01*
X88640000Y-74551000D01*
X88586042Y-74540267D01*
X88540298Y-74509702D01*
X88509733Y-74463958D01*
X88499000Y-74410000D01*
X88499000Y-73090000D01*
X88509733Y-73036042D01*
X88540298Y-72990298D01*
X88586042Y-72959733D01*
X88640000Y-72949000D01*
X89360000Y-72949000D01*
X89413958Y-72959733D01*
G37*
G36*
X92713958Y-72959733D02*
G01*
X92759702Y-72990298D01*
X92790267Y-73036042D01*
X92801000Y-73090000D01*
X92801000Y-74410000D01*
X92790267Y-74463958D01*
X92759702Y-74509702D01*
X92713958Y-74540267D01*
X92660000Y-74551000D01*
X91940000Y-74551000D01*
X91886042Y-74540267D01*
X91840298Y-74509702D01*
X91809733Y-74463958D01*
X91799000Y-74410000D01*
X91799000Y-73090000D01*
X91809733Y-73036042D01*
X91840298Y-72990298D01*
X91886042Y-72959733D01*
X91940000Y-72949000D01*
X92660000Y-72949000D01*
X92713958Y-72959733D01*
G37*
G36*
X107663958Y-72709733D02*
G01*
X107709702Y-72740298D01*
X107740267Y-72786042D01*
X107751000Y-72840000D01*
X107751000Y-74160000D01*
X107740267Y-74213958D01*
X107709702Y-74259702D01*
X107663958Y-74290267D01*
X107610000Y-74301000D01*
X106890000Y-74301000D01*
X106836042Y-74290267D01*
X106790298Y-74259702D01*
X106759733Y-74213958D01*
X106749000Y-74160000D01*
X106749000Y-72840000D01*
X106759733Y-72786042D01*
X106790298Y-72740298D01*
X106836042Y-72709733D01*
X106890000Y-72699000D01*
X107610000Y-72699000D01*
X107663958Y-72709733D01*
G37*
G36*
X110963958Y-72709733D02*
G01*
X111009702Y-72740298D01*
X111040267Y-72786042D01*
X111051000Y-72840000D01*
X111051000Y-74160000D01*
X111040267Y-74213958D01*
X111009702Y-74259702D01*
X110963958Y-74290267D01*
X110910000Y-74301000D01*
X110190000Y-74301000D01*
X110136042Y-74290267D01*
X110090298Y-74259702D01*
X110059733Y-74213958D01*
X110049000Y-74160000D01*
X110049000Y-72840000D01*
X110059733Y-72786042D01*
X110090298Y-72740298D01*
X110136042Y-72709733D01*
X110190000Y-72699000D01*
X110910000Y-72699000D01*
X110963958Y-72709733D01*
G37*
G36*
X97478490Y-70789185D02*
G01*
X97605449Y-70841773D01*
X97719710Y-70918120D01*
X97816880Y-71015290D01*
X97893227Y-71129551D01*
X97945815Y-71256510D01*
X97972624Y-71391290D01*
X97976000Y-71460000D01*
X97976000Y-71960000D01*
X97972624Y-72028710D01*
X97945815Y-72163490D01*
X97893227Y-72290449D01*
X97816880Y-72404710D01*
X97719710Y-72501880D01*
X97605449Y-72578227D01*
X97478490Y-72630815D01*
X97343710Y-72657624D01*
X97206290Y-72657624D01*
X97071510Y-72630815D01*
X96944551Y-72578227D01*
X96830290Y-72501880D01*
X96733120Y-72404710D01*
X96656773Y-72290449D01*
X96604185Y-72163490D01*
X96577376Y-72028710D01*
X96574000Y-71960000D01*
X96574000Y-71460000D01*
X96577376Y-71391290D01*
X96604185Y-71256510D01*
X96656773Y-71129551D01*
X96733120Y-71015290D01*
X96830290Y-70918120D01*
X96944551Y-70841773D01*
X97071510Y-70789185D01*
X97206290Y-70762376D01*
X97343710Y-70762376D01*
X97478490Y-70789185D01*
G37*
G36*
X102928490Y-70789185D02*
G01*
X103055449Y-70841773D01*
X103169710Y-70918120D01*
X103266880Y-71015290D01*
X103343227Y-71129551D01*
X103395815Y-71256510D01*
X103422624Y-71391290D01*
X103426000Y-71460000D01*
X103426000Y-71960000D01*
X103422624Y-72028710D01*
X103395815Y-72163490D01*
X103343227Y-72290449D01*
X103266880Y-72404710D01*
X103169710Y-72501880D01*
X103055449Y-72578227D01*
X102928490Y-72630815D01*
X102793710Y-72657624D01*
X102656290Y-72657624D01*
X102521510Y-72630815D01*
X102394551Y-72578227D01*
X102280290Y-72501880D01*
X102183120Y-72404710D01*
X102106773Y-72290449D01*
X102054185Y-72163490D01*
X102027376Y-72028710D01*
X102024000Y-71960000D01*
X102024000Y-71460000D01*
X102027376Y-71391290D01*
X102054185Y-71256510D01*
X102106773Y-71129551D01*
X102183120Y-71015290D01*
X102280290Y-70918120D01*
X102394551Y-70841773D01*
X102521510Y-70789185D01*
X102656290Y-70762376D01*
X102793710Y-70762376D01*
X102928490Y-70789185D01*
G37*
M02*
