G04 #@! TF.GenerationSoftware,KiCad,Pcbnew,9.0.1*
G04 #@! TF.CreationDate,2025-04-26T02:46:57-04:00*
G04 #@! TF.ProjectId,SwerveModuleBoard,53776572-7665-44d6-9f64-756c65426f61,REV1*
G04 #@! TF.SameCoordinates,Original*
G04 #@! TF.FileFunction,Paste,Top*
G04 #@! TF.FilePolarity,Positive*
%FSLAX46Y46*%
G04 Gerber Fmt 4.6, Leading zero omitted, Abs format (unit mm)*
G04 Created by KiCad (PCBNEW 9.0.1) date 2025-04-26 02:46:57*
%MOMM*%
%LPD*%
G01*
G04 APERTURE LIST*
G04 Aperture macros list*
%AMRoundRect*
0 Rectangle with rounded corners*
0 $1 Rounding radius*
0 $2 $3 $4 $5 $6 $7 $8 $9 X,Y pos of 4 corners*
0 Add a 4 corners polygon primitive as box body*
4,1,4,$2,$3,$4,$5,$6,$7,$8,$9,$2,$3,0*
0 Add four circle primitives for the rounded corners*
1,1,$1+$1,$2,$3*
1,1,$1+$1,$4,$5*
1,1,$1+$1,$6,$7*
1,1,$1+$1,$8,$9*
0 Add four rect primitives between the rounded corners*
20,1,$1+$1,$2,$3,$4,$5,0*
20,1,$1+$1,$4,$5,$6,$7,0*
20,1,$1+$1,$6,$7,$8,$9,0*
20,1,$1+$1,$8,$9,$2,$3,0*%
G04 Aperture macros list end*
%ADD10C,0.000000*%
%ADD11R,0.400000X1.750000*%
%ADD12R,1.825000X0.700000*%
%ADD13R,2.000000X1.460000*%
%ADD14RoundRect,0.384800X0.265200X1.240200X-0.265200X1.240200X-0.265200X-1.240200X0.265200X-1.240200X0*%
%ADD15R,1.425000X2.400000*%
%ADD16RoundRect,0.237500X0.237500X-0.300000X0.237500X0.300000X-0.237500X0.300000X-0.237500X-0.300000X0*%
%ADD17RoundRect,0.237500X0.300000X0.237500X-0.300000X0.237500X-0.300000X-0.237500X0.300000X-0.237500X0*%
%ADD18RoundRect,0.237500X-0.237500X0.250000X-0.237500X-0.250000X0.237500X-0.250000X0.237500X0.250000X0*%
%ADD19RoundRect,0.162500X-0.650000X-0.162500X0.650000X-0.162500X0.650000X0.162500X-0.650000X0.162500X0*%
%ADD20RoundRect,0.237500X0.237500X-0.250000X0.237500X0.250000X-0.237500X0.250000X-0.237500X-0.250000X0*%
%ADD21RoundRect,0.237500X-0.300000X-0.237500X0.300000X-0.237500X0.300000X0.237500X-0.300000X0.237500X0*%
%ADD22RoundRect,0.237500X-0.237500X0.300000X-0.237500X-0.300000X0.237500X-0.300000X0.237500X0.300000X0*%
%ADD23RoundRect,0.250000X-0.292217X-0.292217X0.292217X-0.292217X0.292217X0.292217X-0.292217X0.292217X0*%
%ADD24RoundRect,0.050000X-0.387500X-0.050000X0.387500X-0.050000X0.387500X0.050000X-0.387500X0.050000X0*%
%ADD25RoundRect,0.050000X-0.050000X-0.387500X0.050000X-0.387500X0.050000X0.387500X-0.050000X0.387500X0*%
%ADD26RoundRect,0.225000X0.225000X0.250000X-0.225000X0.250000X-0.225000X-0.250000X0.225000X-0.250000X0*%
%ADD27RoundRect,0.250000X-0.412500X-0.650000X0.412500X-0.650000X0.412500X0.650000X-0.412500X0.650000X0*%
%ADD28RoundRect,0.237500X0.287500X0.237500X-0.287500X0.237500X-0.287500X-0.237500X0.287500X-0.237500X0*%
%ADD29R,1.920000X3.460000*%
%ADD30RoundRect,0.237500X0.250000X0.237500X-0.250000X0.237500X-0.250000X-0.237500X0.250000X-0.237500X0*%
%ADD31RoundRect,0.250000X-0.300000X-0.300000X0.300000X-0.300000X0.300000X0.300000X-0.300000X0.300000X0*%
%ADD32R,1.400000X1.200000*%
%ADD33RoundRect,0.250000X0.300000X-0.300000X0.300000X0.300000X-0.300000X0.300000X-0.300000X-0.300000X0*%
%ADD34RoundRect,0.200000X-0.200000X-0.275000X0.200000X-0.275000X0.200000X0.275000X-0.200000X0.275000X0*%
%ADD35RoundRect,0.150000X-0.512500X-0.150000X0.512500X-0.150000X0.512500X0.150000X-0.512500X0.150000X0*%
%ADD36RoundRect,0.237500X-0.250000X-0.237500X0.250000X-0.237500X0.250000X0.237500X-0.250000X0.237500X0*%
%ADD37RoundRect,0.225000X-0.250000X0.225000X-0.250000X-0.225000X0.250000X-0.225000X0.250000X0.225000X0*%
%ADD38R,0.249999X0.650001*%
%ADD39R,0.650001X0.249999*%
G04 APERTURE END LIST*
D10*
G36*
X122449998Y-94137498D02*
G01*
X122449998Y-94287498D01*
X122399998Y-94337498D01*
X121849999Y-94337498D01*
X121799999Y-94287498D01*
X121799999Y-94137498D01*
X121849999Y-94087498D01*
X122399998Y-94087498D01*
X122449998Y-94137498D01*
G37*
G36*
X122449998Y-94637500D02*
G01*
X122449998Y-94787500D01*
X122399998Y-94837500D01*
X121849999Y-94837500D01*
X121799999Y-94787500D01*
X121799999Y-94637500D01*
X121849999Y-94587500D01*
X122399998Y-94587500D01*
X122449998Y-94637500D01*
G37*
G36*
X122449998Y-95137499D02*
G01*
X122449998Y-95287499D01*
X122399998Y-95337499D01*
X121849999Y-95337499D01*
X121799999Y-95287499D01*
X121799999Y-95137499D01*
X121849999Y-95087499D01*
X122399998Y-95087499D01*
X122449998Y-95137499D01*
G37*
G36*
X122449998Y-93637499D02*
G01*
X122449998Y-93787499D01*
X122399998Y-93837499D01*
X121849999Y-93837499D01*
X121799999Y-93787499D01*
X121799999Y-93637499D01*
X121849999Y-93587499D01*
X122399998Y-93587499D01*
X122449998Y-93637499D01*
G37*
G36*
X118924999Y-92562500D02*
G01*
X118924999Y-92862500D01*
X119000000Y-92862500D01*
X119000000Y-94312499D01*
X118949998Y-94362499D01*
X118649998Y-94362499D01*
X118599998Y-94312499D01*
X118599998Y-92862500D01*
X118674999Y-92862500D01*
X118674999Y-92562500D01*
X118724999Y-92512500D01*
X118874999Y-92512498D01*
X118924999Y-92562500D01*
G37*
G36*
X118949998Y-94562499D02*
G01*
X119000000Y-94612499D01*
X119000000Y-96062498D01*
X118924999Y-96062498D01*
X118924999Y-96362498D01*
X118874999Y-96412498D01*
X118724999Y-96412498D01*
X118674999Y-96362498D01*
X118674999Y-96062498D01*
X118599998Y-96062498D01*
X118599998Y-94612499D01*
X118649998Y-94562496D01*
X118949998Y-94562499D01*
G37*
G36*
X119899998Y-94637500D02*
G01*
X119899998Y-96062498D01*
X119825000Y-96062498D01*
X119825000Y-96362500D01*
X119774997Y-96412500D01*
X119625000Y-96412498D01*
X119575000Y-96362498D01*
X119575000Y-96062498D01*
X119499999Y-96062498D01*
X119499999Y-94637500D01*
X119549999Y-94587500D01*
X119849998Y-94587500D01*
X119899998Y-94637500D01*
G37*
G36*
X119825000Y-92562498D02*
G01*
X119825000Y-92862500D01*
X119899998Y-92862500D01*
X119899996Y-94287498D01*
X119849998Y-94337498D01*
X119549999Y-94337498D01*
X119499999Y-94287498D01*
X119499999Y-92862500D01*
X119575000Y-92862500D01*
X119575003Y-92562500D01*
X119625003Y-92512498D01*
X119774997Y-92512498D01*
X119825000Y-92562498D01*
G37*
G36*
X120624998Y-92562498D02*
G01*
X120624998Y-92862500D01*
X120699999Y-92862500D01*
X120699997Y-94287498D01*
X120649999Y-94337498D01*
X120350000Y-94337498D01*
X120300000Y-94287498D01*
X120300000Y-92862500D01*
X120374999Y-92862500D01*
X120375001Y-92562500D01*
X120425001Y-92512500D01*
X120574998Y-92512498D01*
X120624998Y-92562498D01*
G37*
G36*
X120699997Y-94637500D02*
G01*
X120699999Y-96062498D01*
X120624998Y-96062498D01*
X120624998Y-96362500D01*
X120574998Y-96412500D01*
X120425001Y-96412498D01*
X120375001Y-96362498D01*
X120374999Y-96062498D01*
X120300000Y-96062498D01*
X120300000Y-94637500D01*
X120350000Y-94587500D01*
X120649999Y-94587500D01*
X120699997Y-94637500D01*
G37*
G36*
X121524999Y-92562500D02*
G01*
X121524999Y-92862500D01*
X121600000Y-92862500D01*
X121599997Y-94312499D01*
X121549997Y-94362499D01*
X121249998Y-94362502D01*
X121199998Y-94312499D01*
X121199998Y-92862500D01*
X121274999Y-92862500D01*
X121274999Y-92562500D01*
X121324999Y-92512500D01*
X121474999Y-92512498D01*
X121524999Y-92562500D01*
G37*
G36*
X121549997Y-94562499D02*
G01*
X121599997Y-94612499D01*
X121600000Y-96062498D01*
X121524999Y-96062498D01*
X121524999Y-96362498D01*
X121474999Y-96412500D01*
X121324999Y-96412498D01*
X121274999Y-96362498D01*
X121274999Y-96062498D01*
X121199998Y-96062498D01*
X121200001Y-94612499D01*
X121249998Y-94562496D01*
X121549997Y-94562499D01*
G37*
G36*
X78450000Y-105425000D02*
G01*
X78450000Y-105575000D01*
X78400000Y-105625000D01*
X77850001Y-105625000D01*
X77800001Y-105575000D01*
X77800001Y-105425000D01*
X77850001Y-105375000D01*
X78400000Y-105375000D01*
X78450000Y-105425000D01*
G37*
G36*
X78450000Y-103925000D02*
G01*
X78450000Y-104075000D01*
X78400000Y-104125000D01*
X77850001Y-104125000D01*
X77800001Y-104075000D01*
X77800001Y-103925000D01*
X77850001Y-103875000D01*
X78400000Y-103875000D01*
X78450000Y-103925000D01*
G37*
G36*
X78450000Y-104424999D02*
G01*
X78450000Y-104574999D01*
X78400000Y-104624999D01*
X77850001Y-104624999D01*
X77800001Y-104574999D01*
X77800001Y-104424999D01*
X77850001Y-104374999D01*
X78400000Y-104374999D01*
X78450000Y-104424999D01*
G37*
G36*
X78450000Y-104925001D02*
G01*
X78450000Y-105075001D01*
X78400000Y-105125001D01*
X77850001Y-105125001D01*
X77800001Y-105075001D01*
X77800001Y-104925001D01*
X77850001Y-104875001D01*
X78400000Y-104875001D01*
X78450000Y-104925001D01*
G37*
G36*
X78925000Y-102800001D02*
G01*
X78975000Y-102850001D01*
X78975000Y-103150001D01*
X79050001Y-103150001D01*
X79049998Y-104600000D01*
X79000001Y-104650003D01*
X78700002Y-104650000D01*
X78650002Y-104600000D01*
X78649999Y-103150001D01*
X78725000Y-103150001D01*
X78725000Y-102850001D01*
X78775000Y-102799999D01*
X78925000Y-102800001D01*
G37*
G36*
X79050001Y-104900000D02*
G01*
X79050001Y-106349999D01*
X78975000Y-106349999D01*
X78975000Y-106649999D01*
X78925000Y-106699999D01*
X78775000Y-106700001D01*
X78725000Y-106649999D01*
X78725000Y-106349999D01*
X78649999Y-106349999D01*
X78650002Y-104900000D01*
X78700002Y-104850000D01*
X79000001Y-104849997D01*
X79050001Y-104900000D01*
G37*
G36*
X79824998Y-102800001D02*
G01*
X79874998Y-102850001D01*
X79875000Y-103150001D01*
X79949999Y-103150001D01*
X79949999Y-104574999D01*
X79899999Y-104624999D01*
X79600000Y-104624999D01*
X79550002Y-104574999D01*
X79550000Y-103150001D01*
X79625001Y-103150001D01*
X79625001Y-102849999D01*
X79675001Y-102799999D01*
X79824998Y-102800001D01*
G37*
G36*
X79949999Y-104925001D02*
G01*
X79949999Y-106349999D01*
X79875000Y-106349999D01*
X79874998Y-106649999D01*
X79824998Y-106699999D01*
X79675001Y-106700001D01*
X79625001Y-106650001D01*
X79625001Y-106349999D01*
X79550000Y-106349999D01*
X79550002Y-104925001D01*
X79600000Y-104875001D01*
X79899999Y-104875001D01*
X79949999Y-104925001D01*
G37*
G36*
X80750000Y-104925001D02*
G01*
X80750000Y-106349999D01*
X80674999Y-106349999D01*
X80674996Y-106649999D01*
X80624996Y-106700001D01*
X80475002Y-106700001D01*
X80424999Y-106650001D01*
X80424999Y-106349999D01*
X80350001Y-106349999D01*
X80350003Y-104925001D01*
X80400001Y-104875001D01*
X80700000Y-104875001D01*
X80750000Y-104925001D01*
G37*
G36*
X80624999Y-102800001D02*
G01*
X80674999Y-102850001D01*
X80674999Y-103150001D01*
X80750000Y-103150001D01*
X80750000Y-104574999D01*
X80700000Y-104624999D01*
X80400001Y-104624999D01*
X80350001Y-104574999D01*
X80350001Y-103150001D01*
X80424999Y-103150001D01*
X80424999Y-102849999D01*
X80475002Y-102799999D01*
X80624999Y-102800001D01*
G37*
G36*
X81575000Y-102850001D02*
G01*
X81575000Y-103150001D01*
X81650001Y-103150001D01*
X81650001Y-104600000D01*
X81600001Y-104650003D01*
X81300001Y-104650000D01*
X81249999Y-104600000D01*
X81249999Y-103150001D01*
X81325000Y-103150001D01*
X81325000Y-102850001D01*
X81375000Y-102800001D01*
X81525000Y-102800001D01*
X81575000Y-102850001D01*
G37*
G36*
X81650001Y-104900000D02*
G01*
X81650001Y-106349999D01*
X81575000Y-106349999D01*
X81575000Y-106649999D01*
X81525000Y-106699999D01*
X81375000Y-106700001D01*
X81325000Y-106649999D01*
X81325000Y-106349999D01*
X81249999Y-106349999D01*
X81249999Y-104900000D01*
X81300001Y-104850000D01*
X81600001Y-104850000D01*
X81650001Y-104900000D01*
G37*
D11*
X101300000Y-74535000D03*
X100650000Y-74535000D03*
X100000000Y-74535000D03*
X99350000Y-74535000D03*
X98700000Y-74535000D03*
D12*
X102987500Y-73410000D03*
D13*
X102900000Y-74740000D03*
D14*
X102725000Y-72135000D03*
D15*
X100962500Y-71510000D03*
X99037500Y-71510000D03*
D14*
X97275000Y-72135000D03*
D13*
X97100000Y-74740000D03*
D12*
X97012500Y-73410000D03*
D16*
X102750000Y-87612500D03*
X102750000Y-85887500D03*
X101250000Y-87112500D03*
X101250000Y-85387500D03*
D17*
X87612500Y-94750000D03*
X85887500Y-94750000D03*
X93497500Y-75555000D03*
X91772500Y-75555000D03*
D18*
X88500000Y-74337500D03*
X88500000Y-76162500D03*
D19*
X85912500Y-78095000D03*
X85912500Y-79365000D03*
X85912500Y-80635000D03*
X85912500Y-81905000D03*
X93087500Y-81905000D03*
X93087500Y-80635000D03*
X93087500Y-79365000D03*
X93087500Y-78095000D03*
D20*
X90000000Y-76162500D03*
X90000000Y-74337500D03*
D16*
X95500000Y-86612500D03*
X95500000Y-84887500D03*
D21*
X102122500Y-94450000D03*
X103847500Y-94450000D03*
D22*
X97190000Y-99037500D03*
X97190000Y-100762500D03*
D18*
X97250000Y-85087500D03*
X97250000Y-86912500D03*
D22*
X99040000Y-99017500D03*
X99040000Y-100742500D03*
D17*
X89832500Y-88680000D03*
X88107500Y-88680000D03*
D16*
X105480000Y-87822500D03*
X105480000Y-86097500D03*
D23*
X95862500Y-92612500D03*
X95862500Y-93887500D03*
X97137500Y-92612500D03*
X97137500Y-93887500D03*
D24*
X93062500Y-90650000D03*
X93062500Y-91050000D03*
X93062500Y-91450000D03*
X93062500Y-91850000D03*
X93062500Y-92250000D03*
X93062500Y-92650000D03*
X93062500Y-93050000D03*
X93062500Y-93450000D03*
X93062500Y-93850000D03*
X93062500Y-94250000D03*
X93062500Y-94650000D03*
X93062500Y-95050000D03*
X93062500Y-95450000D03*
X93062500Y-95850000D03*
D25*
X93900000Y-96687500D03*
X94300000Y-96687500D03*
X94700000Y-96687500D03*
X95100000Y-96687500D03*
X95500000Y-96687500D03*
X95900000Y-96687500D03*
X96300000Y-96687500D03*
X96700000Y-96687500D03*
X97100000Y-96687500D03*
X97500000Y-96687500D03*
X97900000Y-96687500D03*
X98300000Y-96687500D03*
X98700000Y-96687500D03*
X99100000Y-96687500D03*
D24*
X99937500Y-95850000D03*
X99937500Y-95450000D03*
X99937500Y-95050000D03*
X99937500Y-94650000D03*
X99937500Y-94250000D03*
X99937500Y-93850000D03*
X99937500Y-93450000D03*
X99937500Y-93050000D03*
X99937500Y-92650000D03*
X99937500Y-92250000D03*
X99937500Y-91850000D03*
X99937500Y-91450000D03*
X99937500Y-91050000D03*
X99937500Y-90650000D03*
D25*
X99100000Y-89812500D03*
X98700000Y-89812500D03*
X98300000Y-89812500D03*
X97900000Y-89812500D03*
X97500000Y-89812500D03*
X97100000Y-89812500D03*
X96700000Y-89812500D03*
X96300000Y-89812500D03*
X95900000Y-89812500D03*
X95500000Y-89812500D03*
X95100000Y-89812500D03*
X94700000Y-89812500D03*
X94300000Y-89812500D03*
X93900000Y-89812500D03*
D18*
X98750000Y-85087500D03*
X98750000Y-86912500D03*
D16*
X94000000Y-86612500D03*
X94000000Y-84887500D03*
X107000000Y-87802500D03*
X107000000Y-86077500D03*
D17*
X94312500Y-73225000D03*
X92587500Y-73225000D03*
D22*
X119750000Y-87887500D03*
X119750000Y-89612500D03*
D21*
X103337499Y-92500000D03*
X105062501Y-92500000D03*
D26*
X106525000Y-83750000D03*
X104975000Y-83750000D03*
D17*
X95362500Y-102750000D03*
X93637500Y-102750000D03*
D27*
X109437500Y-75000000D03*
X112562500Y-75000000D03*
D28*
X107750000Y-97500000D03*
X106000000Y-97500000D03*
D29*
X83600000Y-111875000D03*
X83600000Y-118525000D03*
D30*
X90912500Y-97250000D03*
X89087500Y-97250000D03*
D31*
X109100000Y-81250000D03*
X111900000Y-81250000D03*
D21*
X96937500Y-102750000D03*
X98662500Y-102750000D03*
D20*
X114500000Y-97412500D03*
X114500000Y-95587500D03*
D32*
X95400000Y-106400000D03*
X97600000Y-106400000D03*
X97600000Y-104700000D03*
X95400000Y-104700000D03*
D29*
X118000000Y-100350000D03*
X118000000Y-107000000D03*
D33*
X102750000Y-79650000D03*
X102750000Y-76850000D03*
D30*
X109662500Y-99250000D03*
X107837500Y-99250000D03*
D34*
X101675000Y-81750000D03*
X103325000Y-81750000D03*
D17*
X84612500Y-108500000D03*
X82887500Y-108500000D03*
D30*
X87162500Y-104750000D03*
X85337500Y-104750000D03*
D35*
X105112500Y-80050000D03*
X105112500Y-81000000D03*
X105112500Y-81950000D03*
X107387500Y-81950000D03*
X107387500Y-80050000D03*
D36*
X106087500Y-95750000D03*
X107912500Y-95750000D03*
D37*
X104500000Y-95975000D03*
X104500000Y-97525000D03*
D18*
X95330000Y-99147500D03*
X95330000Y-100972500D03*
D38*
X117125000Y-96087500D03*
X117624999Y-96087500D03*
X118124998Y-96087500D03*
X118124998Y-92837498D03*
X117624999Y-92837498D03*
X117125000Y-92837498D03*
D39*
X116874998Y-93712498D03*
X116874998Y-94212499D03*
X116874998Y-94712499D03*
X116874998Y-95212500D03*
D36*
X102837500Y-101500000D03*
X104662500Y-101500000D03*
D28*
X107787500Y-94000000D03*
X106037500Y-94000000D03*
D38*
X83124999Y-103124999D03*
X82625000Y-103124999D03*
X82125001Y-103124999D03*
X82125001Y-106375001D03*
X82625000Y-106375001D03*
X83124999Y-106375001D03*
D39*
X83375001Y-105500001D03*
X83375001Y-105000000D03*
X83375001Y-104500000D03*
X83375001Y-103999999D03*
M02*
