%TF.GenerationSoftware,KiCad,Pcbnew,8.0.5*%
%TF.CreationDate,2025-04-11T00:05:18-04:00*%
%TF.ProjectId,RP2040_minimal_r2,52503230-3430-45f6-9d69-6e696d616c5f,REV2*%
%TF.SameCoordinates,Original*%
%TF.FileFunction,Drillmap*%
%TF.FilePolarity,Positive*%
%FSLAX45Y45*%
G04 Gerber Fmt 4.5, Leading zero omitted, Abs format (unit mm)*
G04 Created by KiCad (PCBNEW 8.0.5) date 2025-04-11 00:05:18*
%MOMM*%
%LPD*%
G01*
G04 APERTURE LIST*
%ADD10C,0.600000*%
%ADD11C,0.200000*%
%ADD12C,0.100000*%
%ADD13C,0.130000*%
%ADD14C,0.270000*%
%ADD15C,0.320000*%
G04 APERTURE END LIST*
D10*
X13200000Y-13900000D02*
X6550000Y-13900000D01*
X13500000Y-7300000D02*
X13500000Y-13600000D01*
X6550000Y-7000000D02*
X13200000Y-7000000D01*
X6250000Y-13600000D02*
X6250000Y-7300000D01*
X13500000Y-13600000D02*
G75*
G02*
X13200000Y-13900000I-300000J0D01*
G01*
X13200000Y-7000000D02*
G75*
G02*
X13500000Y-7300000I0J-300000D01*
G01*
X6250000Y-7300000D02*
G75*
G02*
X6550000Y-7000000I300000J0D01*
G01*
X6550000Y-13900000D02*
G75*
G02*
X6250000Y-13600000I0J300000D01*
G01*
D11*
D12*
X6532500Y-12032500D02*
X6567500Y-12067500D01*
X6567500Y-12032500D02*
X6532500Y-12067500D01*
X6582500Y-13532500D02*
X6617500Y-13567500D01*
X6617500Y-13532500D02*
X6582500Y-13567500D01*
X6682500Y-8232500D02*
X6717500Y-8267500D01*
X6717500Y-8232500D02*
X6682500Y-8267500D01*
X6782500Y-10782500D02*
X6817500Y-10817500D01*
X6817500Y-10782500D02*
X6782500Y-10817500D01*
X6832500Y-13532500D02*
X6867500Y-13567500D01*
X6867500Y-13532500D02*
X6832500Y-13567500D01*
X7082500Y-12032500D02*
X7117500Y-12067500D01*
X7117500Y-12032500D02*
X7082500Y-12067500D01*
X7582500Y-9882500D02*
X7617500Y-9917500D01*
X7617500Y-9882500D02*
X7582500Y-9917500D01*
X7682500Y-7282500D02*
X7717500Y-7317500D01*
X7717500Y-7282500D02*
X7682500Y-7317500D01*
X7782500Y-12107500D02*
X7817500Y-12142500D01*
X7817500Y-12107500D02*
X7782500Y-12142500D01*
X7832500Y-10732500D02*
X7867500Y-10767500D01*
X7867500Y-10732500D02*
X7832500Y-10767500D01*
X7982500Y-13732500D02*
X8017500Y-13767500D01*
X8017500Y-13732500D02*
X7982500Y-13767500D01*
X8032500Y-12232500D02*
X8067500Y-12267500D01*
X8067500Y-12232500D02*
X8032500Y-12267500D01*
X8120000Y-12820000D02*
X8155000Y-12855000D01*
X8155000Y-12820000D02*
X8120000Y-12855000D01*
X8245000Y-11395000D02*
X8280000Y-11430000D01*
X8280000Y-11395000D02*
X8245000Y-11430000D01*
X8257500Y-12032500D02*
X8292500Y-12067500D01*
X8292500Y-12032500D02*
X8257500Y-12067500D01*
X8407500Y-12057500D02*
X8442500Y-12092500D01*
X8442500Y-12057500D02*
X8407500Y-12092500D01*
X8482500Y-7932500D02*
X8517500Y-7967500D01*
X8517500Y-7932500D02*
X8482500Y-7967500D01*
X8520000Y-12795000D02*
X8555000Y-12830000D01*
X8555000Y-12795000D02*
X8520000Y-12830000D01*
X8782500Y-11732500D02*
X8817500Y-11767500D01*
X8817500Y-11732500D02*
X8782500Y-11767500D01*
X9062500Y-8902500D02*
X9097500Y-8937500D01*
X9097500Y-8902500D02*
X9062500Y-8937500D01*
X9078000Y-9525500D02*
X9113000Y-9560500D01*
X9113000Y-9525500D02*
X9078000Y-9560500D01*
X9182500Y-10102500D02*
X9217500Y-10137500D01*
X9217500Y-10102500D02*
X9182500Y-10137500D01*
X9257500Y-12033750D02*
X9292500Y-12068750D01*
X9292500Y-12033750D02*
X9257500Y-12068750D01*
X9282500Y-11182500D02*
X9317500Y-11217500D01*
X9317500Y-11182500D02*
X9282500Y-11217500D01*
X9382500Y-8282500D02*
X9417500Y-8317500D01*
X9417500Y-8282500D02*
X9382500Y-8317500D01*
X9482500Y-11532500D02*
X9517500Y-11567500D01*
X9517500Y-11532500D02*
X9482500Y-11567500D01*
X9522500Y-7312500D02*
X9557500Y-7347500D01*
X9557500Y-7312500D02*
X9522500Y-7347500D01*
X9566500Y-12033750D02*
X9601500Y-12068750D01*
X9601500Y-12033750D02*
X9566500Y-12068750D01*
X9657500Y-7907500D02*
X9692500Y-7942500D01*
X9692500Y-7907500D02*
X9657500Y-7942500D01*
X9659500Y-10764989D02*
X9694500Y-10799989D01*
X9694500Y-10764989D02*
X9659500Y-10799989D01*
X9682500Y-10832500D02*
X9717500Y-10867500D01*
X9717500Y-10832500D02*
X9682500Y-10867500D01*
X9692500Y-11212500D02*
X9727500Y-11247500D01*
X9727500Y-11212500D02*
X9692500Y-11247500D01*
X9807500Y-9007500D02*
X9842500Y-9042500D01*
X9842500Y-9007500D02*
X9807500Y-9042500D01*
X9852500Y-7582500D02*
X9887500Y-7617500D01*
X9887500Y-7582500D02*
X9852500Y-7617500D01*
X9882500Y-9032500D02*
X9917500Y-9067500D01*
X9917500Y-9032500D02*
X9882500Y-9067500D01*
X9962500Y-9502499D02*
X9997500Y-9537499D01*
X9997500Y-9502499D02*
X9962500Y-9537499D01*
X10032500Y-13782500D02*
X10067500Y-13817500D01*
X10067500Y-13782500D02*
X10032500Y-13817500D01*
X10042497Y-10192500D02*
X10077497Y-10227500D01*
X10077497Y-10192500D02*
X10042497Y-10227500D01*
X10051499Y-10824000D02*
X10086499Y-10859000D01*
X10086499Y-10824000D02*
X10051499Y-10859000D01*
X10052500Y-9772500D02*
X10087500Y-9807500D01*
X10087500Y-9772500D02*
X10052500Y-9807500D01*
X10057500Y-12130000D02*
X10092500Y-12165000D01*
X10092500Y-12130000D02*
X10057500Y-12165000D01*
X10082500Y-10432500D02*
X10117500Y-10467500D01*
X10117500Y-10432500D02*
X10082500Y-10467500D01*
X10157500Y-12130000D02*
X10192500Y-12165000D01*
X10192500Y-12130000D02*
X10157500Y-12165000D01*
X10236500Y-10833500D02*
X10271500Y-10868500D01*
X10271500Y-10833500D02*
X10236500Y-10868500D01*
X10257500Y-12130000D02*
X10292500Y-12165000D01*
X10292500Y-12130000D02*
X10257500Y-12165000D01*
X10272500Y-11212500D02*
X10307500Y-11247500D01*
X10307500Y-11212500D02*
X10272500Y-11247500D01*
X10442500Y-7312500D02*
X10477500Y-7347500D01*
X10477500Y-7312500D02*
X10442500Y-7347500D01*
X10457500Y-9057500D02*
X10492500Y-9092500D01*
X10492500Y-9057500D02*
X10457500Y-9092500D01*
X10532500Y-11432500D02*
X10567500Y-11467500D01*
X10567500Y-11432500D02*
X10532500Y-11467500D01*
X10707500Y-12033750D02*
X10742500Y-12068750D01*
X10742500Y-12033750D02*
X10707500Y-12068750D01*
X10732500Y-9232500D02*
X10767500Y-9267500D01*
X10767500Y-9232500D02*
X10732500Y-9267500D01*
X10782500Y-10113000D02*
X10817500Y-10148000D01*
X10817500Y-10113000D02*
X10782500Y-10148000D01*
X10880500Y-9153500D02*
X10915500Y-9188500D01*
X10915500Y-9153500D02*
X10880500Y-9188500D01*
X10982500Y-7782500D02*
X11017500Y-7817500D01*
X11017500Y-7782500D02*
X10982500Y-7817500D01*
X11007500Y-12033750D02*
X11042500Y-12068750D01*
X11042500Y-12033750D02*
X11007500Y-12068750D01*
X11082500Y-11432500D02*
X11117500Y-11467500D01*
X11117500Y-11432500D02*
X11082500Y-11467500D01*
X11098500Y-9151500D02*
X11133500Y-9186500D01*
X11133500Y-9151500D02*
X11098500Y-9186500D01*
X11344500Y-8928500D02*
X11379500Y-8963500D01*
X11379500Y-8928500D02*
X11344500Y-8963500D01*
X11482500Y-11832500D02*
X11517500Y-11867500D01*
X11517500Y-11832500D02*
X11482500Y-11867500D01*
X11531109Y-10783891D02*
X11566109Y-10818891D01*
X11566109Y-10783891D02*
X11531109Y-10818891D01*
X11542500Y-10945500D02*
X11577500Y-10980500D01*
X11577500Y-10945500D02*
X11542500Y-10980500D01*
X11620141Y-12144859D02*
X11655141Y-12179859D01*
X11655141Y-12144859D02*
X11620141Y-12179859D01*
X11645000Y-12795000D02*
X11680000Y-12830000D01*
X11680000Y-12795000D02*
X11645000Y-12830000D01*
X11719500Y-9971500D02*
X11754500Y-10006500D01*
X11754500Y-9971500D02*
X11719500Y-10006500D01*
X11832500Y-12057500D02*
X11867500Y-12092500D01*
X11867500Y-12057500D02*
X11832500Y-12092500D01*
X11920000Y-11545000D02*
X11955000Y-11580000D01*
X11955000Y-11545000D02*
X11920000Y-11580000D01*
X11960000Y-12057500D02*
X11995000Y-12092500D01*
X11995000Y-12057500D02*
X11960000Y-12092500D01*
X12032500Y-8932500D02*
X12067500Y-8967500D01*
X12067500Y-8932500D02*
X12032500Y-8967500D01*
X12095000Y-12795000D02*
X12130000Y-12830000D01*
X12130000Y-12795000D02*
X12095000Y-12830000D01*
X12232500Y-13682500D02*
X12267500Y-13717500D01*
X12267500Y-13682500D02*
X12232500Y-13717500D01*
X12282500Y-7882500D02*
X12317500Y-7917500D01*
X12317500Y-7882500D02*
X12282500Y-7917500D01*
X12332500Y-12132500D02*
X12367500Y-12167500D01*
X12367500Y-12132500D02*
X12332500Y-12167500D01*
X12432500Y-10382500D02*
X12467500Y-10417500D01*
X12467500Y-10382500D02*
X12432500Y-10417500D01*
X12532500Y-11232500D02*
X12567500Y-11267500D01*
X12567500Y-11232500D02*
X12532500Y-11267500D01*
X13032500Y-8732500D02*
X13067500Y-8767500D01*
X13067500Y-8732500D02*
X13032500Y-8767500D01*
X13032500Y-13432500D02*
X13067500Y-13467500D01*
X13067500Y-13432500D02*
X13032500Y-13467500D01*
X13082500Y-12032500D02*
X13117500Y-12067500D01*
X13117500Y-12032500D02*
X13082500Y-12067500D01*
X13396500Y-10614500D02*
X13431500Y-10649500D01*
X13431500Y-10614500D02*
X13396500Y-10649500D01*
X9890000Y-9872500D02*
G75*
G02*
X9855000Y-9872500I-17500J0D01*
G01*
X9855000Y-9872500D02*
G75*
G02*
X9890000Y-9872500I17500J0D01*
G01*
X9890000Y-10000000D02*
G75*
G02*
X9855000Y-10000000I-17500J0D01*
G01*
X9855000Y-10000000D02*
G75*
G02*
X9890000Y-10000000I17500J0D01*
G01*
X9890000Y-10127500D02*
G75*
G02*
X9855000Y-10127500I-17500J0D01*
G01*
X9855000Y-10127500D02*
G75*
G02*
X9890000Y-10127500I17500J0D01*
G01*
X10017500Y-9872500D02*
G75*
G02*
X9982500Y-9872500I-17500J0D01*
G01*
X9982500Y-9872500D02*
G75*
G02*
X10017500Y-9872500I17500J0D01*
G01*
X10017500Y-10000000D02*
G75*
G02*
X9982500Y-10000000I-17500J0D01*
G01*
X9982500Y-10000000D02*
G75*
G02*
X10017500Y-10000000I17500J0D01*
G01*
X10017500Y-10127500D02*
G75*
G02*
X9982500Y-10127500I-17500J0D01*
G01*
X9982500Y-10127500D02*
G75*
G02*
X10017500Y-10127500I17500J0D01*
G01*
X10145000Y-9872500D02*
G75*
G02*
X10110000Y-9872500I-17500J0D01*
G01*
X10110000Y-9872500D02*
G75*
G02*
X10145000Y-9872500I17500J0D01*
G01*
X10145000Y-10000000D02*
G75*
G02*
X10110000Y-10000000I-17500J0D01*
G01*
X10110000Y-10000000D02*
G75*
G02*
X10145000Y-10000000I17500J0D01*
G01*
X10145000Y-10127500D02*
G75*
G02*
X10110000Y-10127500I-17500J0D01*
G01*
X10110000Y-10127500D02*
G75*
G02*
X10145000Y-10127500I17500J0D01*
G01*
X9757500Y-7440500D02*
X9757500Y-7505500D01*
X9725000Y-7473000D02*
X9790000Y-7473000D01*
X9725000Y-7453000D02*
X9725000Y-7493000D01*
X9790000Y-7493000D02*
G75*
G02*
X9725000Y-7493000I-32500J0D01*
G01*
X9790000Y-7493000D02*
X9790000Y-7453000D01*
X9790000Y-7453000D02*
G75*
G03*
X9725000Y-7453000I-32500J0D01*
G01*
X10242500Y-7440500D02*
X10242500Y-7505500D01*
X10210000Y-7473000D02*
X10275000Y-7473000D01*
X10210000Y-7453000D02*
X10210000Y-7493000D01*
X10275000Y-7493000D02*
G75*
G02*
X10210000Y-7493000I-32500J0D01*
G01*
X10275000Y-7493000D02*
X10275000Y-7453000D01*
X10275000Y-7453000D02*
G75*
G03*
X10210000Y-7453000I-32500J0D01*
G01*
X9752249Y-7194749D02*
X9752249Y-7145251D01*
X9702751Y-7145251D01*
X9702751Y-7194749D01*
X9752249Y-7194749D01*
X9692500Y-7145000D02*
X9692500Y-7195000D01*
X9762500Y-7195000D02*
G75*
G02*
X9692500Y-7195000I-35000J0D01*
G01*
X9762500Y-7195000D02*
X9762500Y-7145000D01*
X9762500Y-7145000D02*
G75*
G03*
X9692500Y-7145000I-35000J0D01*
G01*
X10297249Y-7194749D02*
X10297249Y-7145251D01*
X10247751Y-7145251D01*
X10247751Y-7194749D01*
X10297249Y-7194749D01*
X10237500Y-7145000D02*
X10237500Y-7195000D01*
X10307500Y-7195000D02*
G75*
G02*
X10237500Y-7195000I-35000J0D01*
G01*
X10307500Y-7195000D02*
X10307500Y-7145000D01*
X10307500Y-7145000D02*
G75*
G03*
X10237500Y-7145000I-35000J0D01*
G01*
X6573000Y-9773000D02*
X6623000Y-9723000D01*
X6573000Y-9673000D01*
X6523000Y-9723000D01*
X6573000Y-9773000D01*
X6573000Y-10027000D02*
X6623000Y-9977000D01*
X6573000Y-9927000D01*
X6523000Y-9977000D01*
X6573000Y-10027000D01*
X6573000Y-10281000D02*
X6623000Y-10231000D01*
X6573000Y-10181000D01*
X6523000Y-10231000D01*
X6573000Y-10281000D01*
X6573000Y-10535000D02*
X6623000Y-10485000D01*
X6573000Y-10435000D01*
X6523000Y-10485000D01*
X6573000Y-10535000D01*
X6573000Y-10789000D02*
X6623000Y-10739000D01*
X6573000Y-10689000D01*
X6523000Y-10739000D01*
X6573000Y-10789000D01*
X6573000Y-11043000D02*
X6623000Y-10993000D01*
X6573000Y-10943000D01*
X6523000Y-10993000D01*
X6573000Y-11043000D01*
X7521500Y-13287500D02*
X7571500Y-13237500D01*
X7521500Y-13187500D01*
X7471500Y-13237500D01*
X7521500Y-13287500D01*
X7775500Y-13287500D02*
X7825500Y-13237500D01*
X7775500Y-13187500D01*
X7725500Y-13237500D01*
X7775500Y-13287500D01*
X8029500Y-13287500D02*
X8079500Y-13237500D01*
X8029500Y-13187500D01*
X7979500Y-13237500D01*
X8029500Y-13287500D01*
X8283500Y-13287500D02*
X8333500Y-13237500D01*
X8283500Y-13187500D01*
X8233500Y-13237500D01*
X8283500Y-13287500D01*
X8537500Y-13287500D02*
X8587500Y-13237500D01*
X8537500Y-13187500D01*
X8487500Y-13237500D01*
X8537500Y-13287500D01*
X8791500Y-13287500D02*
X8841500Y-13237500D01*
X8791500Y-13187500D01*
X8741500Y-13237500D01*
X8791500Y-13287500D01*
X9111000Y-7450000D02*
X9161000Y-7400000D01*
X9111000Y-7350000D01*
X9061000Y-7400000D01*
X9111000Y-7450000D01*
X9111000Y-7704000D02*
X9161000Y-7654000D01*
X9111000Y-7604000D01*
X9061000Y-7654000D01*
X9111000Y-7704000D01*
X11021500Y-13287500D02*
X11071500Y-13237500D01*
X11021500Y-13187500D01*
X10971500Y-13237500D01*
X11021500Y-13287500D01*
X11275500Y-13287500D02*
X11325500Y-13237500D01*
X11275500Y-13187500D01*
X11225500Y-13237500D01*
X11275500Y-13287500D01*
X11529500Y-13287500D02*
X11579500Y-13237500D01*
X11529500Y-13187500D01*
X11479500Y-13237500D01*
X11529500Y-13287500D01*
X11783500Y-13287500D02*
X11833500Y-13237500D01*
X11783500Y-13187500D01*
X11733500Y-13237500D01*
X11783500Y-13287500D01*
X12037500Y-13287500D02*
X12087500Y-13237500D01*
X12037500Y-13187500D01*
X11987500Y-13237500D01*
X12037500Y-13287500D01*
X12291500Y-13287500D02*
X12341500Y-13237500D01*
X12291500Y-13187500D01*
X12241500Y-13237500D01*
X12291500Y-13287500D01*
X13190000Y-9538000D02*
X13240000Y-9488000D01*
X13190000Y-9438000D01*
X13140000Y-9488000D01*
X13190000Y-9538000D01*
X13190000Y-9792000D02*
X13240000Y-9742000D01*
X13190000Y-9692000D01*
X13140000Y-9742000D01*
X13190000Y-9792000D01*
X13190000Y-10046000D02*
X13240000Y-9996000D01*
X13190000Y-9946000D01*
X13140000Y-9996000D01*
X13190000Y-10046000D01*
X13190000Y-10300000D02*
X13240000Y-10250000D01*
X13190000Y-10200000D01*
X13140000Y-10250000D01*
X13190000Y-10300000D01*
X13190000Y-10554000D02*
X13240000Y-10504000D01*
X13190000Y-10454000D01*
X13140000Y-10504000D01*
X13190000Y-10554000D01*
X13190000Y-10808000D02*
X13240000Y-10758000D01*
X13190000Y-10708000D01*
X13140000Y-10758000D01*
X13190000Y-10808000D01*
X13190000Y-11062000D02*
X13240000Y-11012000D01*
X13190000Y-10962000D01*
X13140000Y-11012000D01*
X13190000Y-11062000D01*
D13*
X7060000Y-8585000D02*
X7190000Y-8715000D01*
X7190000Y-8585000D02*
X7060000Y-8715000D01*
X7190000Y-8650000D02*
G75*
G02*
X7060000Y-8650000I-65000J0D01*
G01*
X7060000Y-8650000D02*
G75*
G02*
X7190000Y-8650000I65000J0D01*
G01*
X7060000Y-9085000D02*
X7190000Y-9215000D01*
X7190000Y-9085000D02*
X7060000Y-9215000D01*
X7190000Y-9150000D02*
G75*
G02*
X7060000Y-9150000I-65000J0D01*
G01*
X7060000Y-9150000D02*
G75*
G02*
X7190000Y-9150000I65000J0D01*
G01*
X8310000Y-8585000D02*
X8440000Y-8715000D01*
X8440000Y-8585000D02*
X8310000Y-8715000D01*
X8440000Y-8650000D02*
G75*
G02*
X8310000Y-8650000I-65000J0D01*
G01*
X8310000Y-8650000D02*
G75*
G02*
X8440000Y-8650000I65000J0D01*
G01*
X8310000Y-9085000D02*
X8440000Y-9215000D01*
X8440000Y-9085000D02*
X8310000Y-9215000D01*
X8440000Y-9150000D02*
G75*
G02*
X8310000Y-9150000I-65000J0D01*
G01*
X8310000Y-9150000D02*
G75*
G02*
X8440000Y-9150000I65000J0D01*
G01*
D14*
X9602500Y-13202500D02*
X9872500Y-13472500D01*
X9872500Y-13202500D02*
X9602500Y-13472500D01*
X9737500Y-13202500D02*
X9737500Y-13472500D01*
X9602500Y-13337500D02*
X9872500Y-13337500D01*
X10102500Y-13202500D02*
X10372500Y-13472500D01*
X10372500Y-13202500D02*
X10102500Y-13472500D01*
X10237500Y-13202500D02*
X10237500Y-13472500D01*
X10102500Y-13337500D02*
X10372500Y-13337500D01*
D15*
X6590000Y-7240000D02*
X6910000Y-7560000D01*
X6910000Y-7240000D02*
X6590000Y-7560000D01*
X6863138Y-7513138D02*
X6863138Y-7286862D01*
X6636862Y-7286862D01*
X6636862Y-7513138D01*
X6863138Y-7513138D01*
X6590000Y-12740000D02*
X6910000Y-13060000D01*
X6910000Y-12740000D02*
X6590000Y-13060000D01*
X6863138Y-13013138D02*
X6863138Y-12786862D01*
X6636862Y-12786862D01*
X6636862Y-13013138D01*
X6863138Y-13013138D01*
X12840000Y-7240000D02*
X13160000Y-7560000D01*
X13160000Y-7240000D02*
X12840000Y-7560000D01*
X13113138Y-7513138D02*
X13113138Y-7286862D01*
X12886862Y-7286862D01*
X12886862Y-7513138D01*
X13113138Y-7513138D01*
X12840000Y-12740000D02*
X13160000Y-13060000D01*
X13160000Y-12740000D02*
X12840000Y-13060000D01*
X13113138Y-13013138D02*
X13113138Y-12786862D01*
X12886862Y-12786862D01*
X12886862Y-13013138D01*
X13113138Y-13013138D01*
D11*
X6480777Y-14241484D02*
X6480777Y-14041484D01*
X6480777Y-14041484D02*
X6528396Y-14041484D01*
X6528396Y-14041484D02*
X6556967Y-14051008D01*
X6556967Y-14051008D02*
X6576015Y-14070055D01*
X6576015Y-14070055D02*
X6585539Y-14089103D01*
X6585539Y-14089103D02*
X6595062Y-14127198D01*
X6595062Y-14127198D02*
X6595062Y-14155769D01*
X6595062Y-14155769D02*
X6585539Y-14193865D01*
X6585539Y-14193865D02*
X6576015Y-14212912D01*
X6576015Y-14212912D02*
X6556967Y-14231960D01*
X6556967Y-14231960D02*
X6528396Y-14241484D01*
X6528396Y-14241484D02*
X6480777Y-14241484D01*
X6680777Y-14241484D02*
X6680777Y-14108150D01*
X6680777Y-14146246D02*
X6690301Y-14127198D01*
X6690301Y-14127198D02*
X6699824Y-14117674D01*
X6699824Y-14117674D02*
X6718872Y-14108150D01*
X6718872Y-14108150D02*
X6737920Y-14108150D01*
X6804586Y-14241484D02*
X6804586Y-14108150D01*
X6804586Y-14041484D02*
X6795062Y-14051008D01*
X6795062Y-14051008D02*
X6804586Y-14060531D01*
X6804586Y-14060531D02*
X6814110Y-14051008D01*
X6814110Y-14051008D02*
X6804586Y-14041484D01*
X6804586Y-14041484D02*
X6804586Y-14060531D01*
X6928396Y-14241484D02*
X6909348Y-14231960D01*
X6909348Y-14231960D02*
X6899824Y-14212912D01*
X6899824Y-14212912D02*
X6899824Y-14041484D01*
X7033158Y-14241484D02*
X7014110Y-14231960D01*
X7014110Y-14231960D02*
X7004586Y-14212912D01*
X7004586Y-14212912D02*
X7004586Y-14041484D01*
X7261729Y-14241484D02*
X7261729Y-14041484D01*
X7261729Y-14041484D02*
X7328396Y-14184341D01*
X7328396Y-14184341D02*
X7395062Y-14041484D01*
X7395062Y-14041484D02*
X7395062Y-14241484D01*
X7576015Y-14241484D02*
X7576015Y-14136722D01*
X7576015Y-14136722D02*
X7566491Y-14117674D01*
X7566491Y-14117674D02*
X7547443Y-14108150D01*
X7547443Y-14108150D02*
X7509348Y-14108150D01*
X7509348Y-14108150D02*
X7490301Y-14117674D01*
X7576015Y-14231960D02*
X7556967Y-14241484D01*
X7556967Y-14241484D02*
X7509348Y-14241484D01*
X7509348Y-14241484D02*
X7490301Y-14231960D01*
X7490301Y-14231960D02*
X7480777Y-14212912D01*
X7480777Y-14212912D02*
X7480777Y-14193865D01*
X7480777Y-14193865D02*
X7490301Y-14174817D01*
X7490301Y-14174817D02*
X7509348Y-14165293D01*
X7509348Y-14165293D02*
X7556967Y-14165293D01*
X7556967Y-14165293D02*
X7576015Y-14155769D01*
X7671253Y-14108150D02*
X7671253Y-14308150D01*
X7671253Y-14117674D02*
X7690301Y-14108150D01*
X7690301Y-14108150D02*
X7728396Y-14108150D01*
X7728396Y-14108150D02*
X7747443Y-14117674D01*
X7747443Y-14117674D02*
X7756967Y-14127198D01*
X7756967Y-14127198D02*
X7766491Y-14146246D01*
X7766491Y-14146246D02*
X7766491Y-14203388D01*
X7766491Y-14203388D02*
X7756967Y-14222436D01*
X7756967Y-14222436D02*
X7747443Y-14231960D01*
X7747443Y-14231960D02*
X7728396Y-14241484D01*
X7728396Y-14241484D02*
X7690301Y-14241484D01*
X7690301Y-14241484D02*
X7671253Y-14231960D01*
X7852205Y-14222436D02*
X7861729Y-14231960D01*
X7861729Y-14231960D02*
X7852205Y-14241484D01*
X7852205Y-14241484D02*
X7842682Y-14231960D01*
X7842682Y-14231960D02*
X7852205Y-14222436D01*
X7852205Y-14222436D02*
X7852205Y-14241484D01*
X7852205Y-14117674D02*
X7861729Y-14127198D01*
X7861729Y-14127198D02*
X7852205Y-14136722D01*
X7852205Y-14136722D02*
X7842682Y-14127198D01*
X7842682Y-14127198D02*
X7852205Y-14117674D01*
X7852205Y-14117674D02*
X7852205Y-14136722D01*
D12*
X6185000Y-14552500D02*
X6220000Y-14587500D01*
X6220000Y-14552500D02*
X6185000Y-14587500D01*
D11*
X6518872Y-14461484D02*
X6537920Y-14461484D01*
X6537920Y-14461484D02*
X6556967Y-14471008D01*
X6556967Y-14471008D02*
X6566491Y-14480531D01*
X6566491Y-14480531D02*
X6576015Y-14499579D01*
X6576015Y-14499579D02*
X6585539Y-14537674D01*
X6585539Y-14537674D02*
X6585539Y-14585293D01*
X6585539Y-14585293D02*
X6576015Y-14623388D01*
X6576015Y-14623388D02*
X6566491Y-14642436D01*
X6566491Y-14642436D02*
X6556967Y-14651960D01*
X6556967Y-14651960D02*
X6537920Y-14661484D01*
X6537920Y-14661484D02*
X6518872Y-14661484D01*
X6518872Y-14661484D02*
X6499824Y-14651960D01*
X6499824Y-14651960D02*
X6490301Y-14642436D01*
X6490301Y-14642436D02*
X6480777Y-14623388D01*
X6480777Y-14623388D02*
X6471253Y-14585293D01*
X6471253Y-14585293D02*
X6471253Y-14537674D01*
X6471253Y-14537674D02*
X6480777Y-14499579D01*
X6480777Y-14499579D02*
X6490301Y-14480531D01*
X6490301Y-14480531D02*
X6499824Y-14471008D01*
X6499824Y-14471008D02*
X6518872Y-14461484D01*
X6671253Y-14642436D02*
X6680777Y-14651960D01*
X6680777Y-14651960D02*
X6671253Y-14661484D01*
X6671253Y-14661484D02*
X6661729Y-14651960D01*
X6661729Y-14651960D02*
X6671253Y-14642436D01*
X6671253Y-14642436D02*
X6671253Y-14661484D01*
X6747443Y-14461484D02*
X6871253Y-14461484D01*
X6871253Y-14461484D02*
X6804586Y-14537674D01*
X6804586Y-14537674D02*
X6833158Y-14537674D01*
X6833158Y-14537674D02*
X6852205Y-14547198D01*
X6852205Y-14547198D02*
X6861729Y-14556722D01*
X6861729Y-14556722D02*
X6871253Y-14575769D01*
X6871253Y-14575769D02*
X6871253Y-14623388D01*
X6871253Y-14623388D02*
X6861729Y-14642436D01*
X6861729Y-14642436D02*
X6852205Y-14651960D01*
X6852205Y-14651960D02*
X6833158Y-14661484D01*
X6833158Y-14661484D02*
X6776015Y-14661484D01*
X6776015Y-14661484D02*
X6756967Y-14651960D01*
X6756967Y-14651960D02*
X6747443Y-14642436D01*
X7052205Y-14461484D02*
X6956967Y-14461484D01*
X6956967Y-14461484D02*
X6947443Y-14556722D01*
X6947443Y-14556722D02*
X6956967Y-14547198D01*
X6956967Y-14547198D02*
X6976015Y-14537674D01*
X6976015Y-14537674D02*
X7023634Y-14537674D01*
X7023634Y-14537674D02*
X7042682Y-14547198D01*
X7042682Y-14547198D02*
X7052205Y-14556722D01*
X7052205Y-14556722D02*
X7061729Y-14575769D01*
X7061729Y-14575769D02*
X7061729Y-14623388D01*
X7061729Y-14623388D02*
X7052205Y-14642436D01*
X7052205Y-14642436D02*
X7042682Y-14651960D01*
X7042682Y-14651960D02*
X7023634Y-14661484D01*
X7023634Y-14661484D02*
X6976015Y-14661484D01*
X6976015Y-14661484D02*
X6956967Y-14651960D01*
X6956967Y-14651960D02*
X6947443Y-14642436D01*
X7185539Y-14461484D02*
X7204586Y-14461484D01*
X7204586Y-14461484D02*
X7223634Y-14471008D01*
X7223634Y-14471008D02*
X7233158Y-14480531D01*
X7233158Y-14480531D02*
X7242682Y-14499579D01*
X7242682Y-14499579D02*
X7252205Y-14537674D01*
X7252205Y-14537674D02*
X7252205Y-14585293D01*
X7252205Y-14585293D02*
X7242682Y-14623388D01*
X7242682Y-14623388D02*
X7233158Y-14642436D01*
X7233158Y-14642436D02*
X7223634Y-14651960D01*
X7223634Y-14651960D02*
X7204586Y-14661484D01*
X7204586Y-14661484D02*
X7185539Y-14661484D01*
X7185539Y-14661484D02*
X7166491Y-14651960D01*
X7166491Y-14651960D02*
X7156967Y-14642436D01*
X7156967Y-14642436D02*
X7147443Y-14623388D01*
X7147443Y-14623388D02*
X7137920Y-14585293D01*
X7137920Y-14585293D02*
X7137920Y-14537674D01*
X7137920Y-14537674D02*
X7147443Y-14499579D01*
X7147443Y-14499579D02*
X7156967Y-14480531D01*
X7156967Y-14480531D02*
X7166491Y-14471008D01*
X7166491Y-14471008D02*
X7185539Y-14461484D01*
X7337920Y-14661484D02*
X7337920Y-14528150D01*
X7337920Y-14547198D02*
X7347443Y-14537674D01*
X7347443Y-14537674D02*
X7366491Y-14528150D01*
X7366491Y-14528150D02*
X7395063Y-14528150D01*
X7395063Y-14528150D02*
X7414110Y-14537674D01*
X7414110Y-14537674D02*
X7423634Y-14556722D01*
X7423634Y-14556722D02*
X7423634Y-14661484D01*
X7423634Y-14556722D02*
X7433158Y-14537674D01*
X7433158Y-14537674D02*
X7452205Y-14528150D01*
X7452205Y-14528150D02*
X7480777Y-14528150D01*
X7480777Y-14528150D02*
X7499824Y-14537674D01*
X7499824Y-14537674D02*
X7509348Y-14556722D01*
X7509348Y-14556722D02*
X7509348Y-14661484D01*
X7604586Y-14661484D02*
X7604586Y-14528150D01*
X7604586Y-14547198D02*
X7614110Y-14537674D01*
X7614110Y-14537674D02*
X7633158Y-14528150D01*
X7633158Y-14528150D02*
X7661729Y-14528150D01*
X7661729Y-14528150D02*
X7680777Y-14537674D01*
X7680777Y-14537674D02*
X7690301Y-14556722D01*
X7690301Y-14556722D02*
X7690301Y-14661484D01*
X7690301Y-14556722D02*
X7699824Y-14537674D01*
X7699824Y-14537674D02*
X7718872Y-14528150D01*
X7718872Y-14528150D02*
X7747443Y-14528150D01*
X7747443Y-14528150D02*
X7766491Y-14537674D01*
X7766491Y-14537674D02*
X7776015Y-14556722D01*
X7776015Y-14556722D02*
X7776015Y-14661484D01*
X8166491Y-14451960D02*
X7995063Y-14709103D01*
X8423634Y-14461484D02*
X8442682Y-14461484D01*
X8442682Y-14461484D02*
X8461729Y-14471008D01*
X8461729Y-14471008D02*
X8471253Y-14480531D01*
X8471253Y-14480531D02*
X8480777Y-14499579D01*
X8480777Y-14499579D02*
X8490301Y-14537674D01*
X8490301Y-14537674D02*
X8490301Y-14585293D01*
X8490301Y-14585293D02*
X8480777Y-14623388D01*
X8480777Y-14623388D02*
X8471253Y-14642436D01*
X8471253Y-14642436D02*
X8461729Y-14651960D01*
X8461729Y-14651960D02*
X8442682Y-14661484D01*
X8442682Y-14661484D02*
X8423634Y-14661484D01*
X8423634Y-14661484D02*
X8404587Y-14651960D01*
X8404587Y-14651960D02*
X8395063Y-14642436D01*
X8395063Y-14642436D02*
X8385539Y-14623388D01*
X8385539Y-14623388D02*
X8376015Y-14585293D01*
X8376015Y-14585293D02*
X8376015Y-14537674D01*
X8376015Y-14537674D02*
X8385539Y-14499579D01*
X8385539Y-14499579D02*
X8395063Y-14480531D01*
X8395063Y-14480531D02*
X8404587Y-14471008D01*
X8404587Y-14471008D02*
X8423634Y-14461484D01*
X8576015Y-14642436D02*
X8585539Y-14651960D01*
X8585539Y-14651960D02*
X8576015Y-14661484D01*
X8576015Y-14661484D02*
X8566491Y-14651960D01*
X8566491Y-14651960D02*
X8576015Y-14642436D01*
X8576015Y-14642436D02*
X8576015Y-14661484D01*
X8709348Y-14461484D02*
X8728396Y-14461484D01*
X8728396Y-14461484D02*
X8747444Y-14471008D01*
X8747444Y-14471008D02*
X8756968Y-14480531D01*
X8756968Y-14480531D02*
X8766491Y-14499579D01*
X8766491Y-14499579D02*
X8776015Y-14537674D01*
X8776015Y-14537674D02*
X8776015Y-14585293D01*
X8776015Y-14585293D02*
X8766491Y-14623388D01*
X8766491Y-14623388D02*
X8756968Y-14642436D01*
X8756968Y-14642436D02*
X8747444Y-14651960D01*
X8747444Y-14651960D02*
X8728396Y-14661484D01*
X8728396Y-14661484D02*
X8709348Y-14661484D01*
X8709348Y-14661484D02*
X8690301Y-14651960D01*
X8690301Y-14651960D02*
X8680777Y-14642436D01*
X8680777Y-14642436D02*
X8671253Y-14623388D01*
X8671253Y-14623388D02*
X8661729Y-14585293D01*
X8661729Y-14585293D02*
X8661729Y-14537674D01*
X8661729Y-14537674D02*
X8671253Y-14499579D01*
X8671253Y-14499579D02*
X8680777Y-14480531D01*
X8680777Y-14480531D02*
X8690301Y-14471008D01*
X8690301Y-14471008D02*
X8709348Y-14461484D01*
X8966491Y-14661484D02*
X8852206Y-14661484D01*
X8909348Y-14661484D02*
X8909348Y-14461484D01*
X8909348Y-14461484D02*
X8890301Y-14490055D01*
X8890301Y-14490055D02*
X8871253Y-14509103D01*
X8871253Y-14509103D02*
X8852206Y-14518627D01*
X9033158Y-14461484D02*
X9156968Y-14461484D01*
X9156968Y-14461484D02*
X9090301Y-14537674D01*
X9090301Y-14537674D02*
X9118872Y-14537674D01*
X9118872Y-14537674D02*
X9137920Y-14547198D01*
X9137920Y-14547198D02*
X9147444Y-14556722D01*
X9147444Y-14556722D02*
X9156968Y-14575769D01*
X9156968Y-14575769D02*
X9156968Y-14623388D01*
X9156968Y-14623388D02*
X9147444Y-14642436D01*
X9147444Y-14642436D02*
X9137920Y-14651960D01*
X9137920Y-14651960D02*
X9118872Y-14661484D01*
X9118872Y-14661484D02*
X9061729Y-14661484D01*
X9061729Y-14661484D02*
X9042682Y-14651960D01*
X9042682Y-14651960D02*
X9033158Y-14642436D01*
X9271253Y-14547198D02*
X9252206Y-14537674D01*
X9252206Y-14537674D02*
X9242682Y-14528150D01*
X9242682Y-14528150D02*
X9233158Y-14509103D01*
X9233158Y-14509103D02*
X9233158Y-14499579D01*
X9233158Y-14499579D02*
X9242682Y-14480531D01*
X9242682Y-14480531D02*
X9252206Y-14471008D01*
X9252206Y-14471008D02*
X9271253Y-14461484D01*
X9271253Y-14461484D02*
X9309349Y-14461484D01*
X9309349Y-14461484D02*
X9328396Y-14471008D01*
X9328396Y-14471008D02*
X9337920Y-14480531D01*
X9337920Y-14480531D02*
X9347444Y-14499579D01*
X9347444Y-14499579D02*
X9347444Y-14509103D01*
X9347444Y-14509103D02*
X9337920Y-14528150D01*
X9337920Y-14528150D02*
X9328396Y-14537674D01*
X9328396Y-14537674D02*
X9309349Y-14547198D01*
X9309349Y-14547198D02*
X9271253Y-14547198D01*
X9271253Y-14547198D02*
X9252206Y-14556722D01*
X9252206Y-14556722D02*
X9242682Y-14566246D01*
X9242682Y-14566246D02*
X9233158Y-14585293D01*
X9233158Y-14585293D02*
X9233158Y-14623388D01*
X9233158Y-14623388D02*
X9242682Y-14642436D01*
X9242682Y-14642436D02*
X9252206Y-14651960D01*
X9252206Y-14651960D02*
X9271253Y-14661484D01*
X9271253Y-14661484D02*
X9309349Y-14661484D01*
X9309349Y-14661484D02*
X9328396Y-14651960D01*
X9328396Y-14651960D02*
X9337920Y-14642436D01*
X9337920Y-14642436D02*
X9347444Y-14623388D01*
X9347444Y-14623388D02*
X9347444Y-14585293D01*
X9347444Y-14585293D02*
X9337920Y-14566246D01*
X9337920Y-14566246D02*
X9328396Y-14556722D01*
X9328396Y-14556722D02*
X9309349Y-14547198D01*
X9423634Y-14461484D02*
X9423634Y-14499579D01*
X9499825Y-14461484D02*
X9499825Y-14499579D01*
X9795063Y-14737674D02*
X9785539Y-14728150D01*
X9785539Y-14728150D02*
X9766491Y-14699579D01*
X9766491Y-14699579D02*
X9756968Y-14680531D01*
X9756968Y-14680531D02*
X9747444Y-14651960D01*
X9747444Y-14651960D02*
X9737920Y-14604341D01*
X9737920Y-14604341D02*
X9737920Y-14566246D01*
X9737920Y-14566246D02*
X9747444Y-14518627D01*
X9747444Y-14518627D02*
X9756968Y-14490055D01*
X9756968Y-14490055D02*
X9766491Y-14471008D01*
X9766491Y-14471008D02*
X9785539Y-14442436D01*
X9785539Y-14442436D02*
X9795063Y-14432912D01*
X9852206Y-14461484D02*
X9985539Y-14461484D01*
X9985539Y-14461484D02*
X9899825Y-14661484D01*
X10090301Y-14547198D02*
X10071253Y-14537674D01*
X10071253Y-14537674D02*
X10061730Y-14528150D01*
X10061730Y-14528150D02*
X10052206Y-14509103D01*
X10052206Y-14509103D02*
X10052206Y-14499579D01*
X10052206Y-14499579D02*
X10061730Y-14480531D01*
X10061730Y-14480531D02*
X10071253Y-14471008D01*
X10071253Y-14471008D02*
X10090301Y-14461484D01*
X10090301Y-14461484D02*
X10128396Y-14461484D01*
X10128396Y-14461484D02*
X10147444Y-14471008D01*
X10147444Y-14471008D02*
X10156968Y-14480531D01*
X10156968Y-14480531D02*
X10166491Y-14499579D01*
X10166491Y-14499579D02*
X10166491Y-14509103D01*
X10166491Y-14509103D02*
X10156968Y-14528150D01*
X10156968Y-14528150D02*
X10147444Y-14537674D01*
X10147444Y-14537674D02*
X10128396Y-14547198D01*
X10128396Y-14547198D02*
X10090301Y-14547198D01*
X10090301Y-14547198D02*
X10071253Y-14556722D01*
X10071253Y-14556722D02*
X10061730Y-14566246D01*
X10061730Y-14566246D02*
X10052206Y-14585293D01*
X10052206Y-14585293D02*
X10052206Y-14623388D01*
X10052206Y-14623388D02*
X10061730Y-14642436D01*
X10061730Y-14642436D02*
X10071253Y-14651960D01*
X10071253Y-14651960D02*
X10090301Y-14661484D01*
X10090301Y-14661484D02*
X10128396Y-14661484D01*
X10128396Y-14661484D02*
X10147444Y-14651960D01*
X10147444Y-14651960D02*
X10156968Y-14642436D01*
X10156968Y-14642436D02*
X10166491Y-14623388D01*
X10166491Y-14623388D02*
X10166491Y-14585293D01*
X10166491Y-14585293D02*
X10156968Y-14566246D01*
X10156968Y-14566246D02*
X10147444Y-14556722D01*
X10147444Y-14556722D02*
X10128396Y-14547198D01*
X10404587Y-14661484D02*
X10404587Y-14461484D01*
X10490301Y-14661484D02*
X10490301Y-14556722D01*
X10490301Y-14556722D02*
X10480777Y-14537674D01*
X10480777Y-14537674D02*
X10461730Y-14528150D01*
X10461730Y-14528150D02*
X10433158Y-14528150D01*
X10433158Y-14528150D02*
X10414111Y-14537674D01*
X10414111Y-14537674D02*
X10404587Y-14547198D01*
X10614111Y-14661484D02*
X10595063Y-14651960D01*
X10595063Y-14651960D02*
X10585539Y-14642436D01*
X10585539Y-14642436D02*
X10576015Y-14623388D01*
X10576015Y-14623388D02*
X10576015Y-14566246D01*
X10576015Y-14566246D02*
X10585539Y-14547198D01*
X10585539Y-14547198D02*
X10595063Y-14537674D01*
X10595063Y-14537674D02*
X10614111Y-14528150D01*
X10614111Y-14528150D02*
X10642682Y-14528150D01*
X10642682Y-14528150D02*
X10661730Y-14537674D01*
X10661730Y-14537674D02*
X10671253Y-14547198D01*
X10671253Y-14547198D02*
X10680777Y-14566246D01*
X10680777Y-14566246D02*
X10680777Y-14623388D01*
X10680777Y-14623388D02*
X10671253Y-14642436D01*
X10671253Y-14642436D02*
X10661730Y-14651960D01*
X10661730Y-14651960D02*
X10642682Y-14661484D01*
X10642682Y-14661484D02*
X10614111Y-14661484D01*
X10795063Y-14661484D02*
X10776015Y-14651960D01*
X10776015Y-14651960D02*
X10766492Y-14632912D01*
X10766492Y-14632912D02*
X10766492Y-14461484D01*
X10947444Y-14651960D02*
X10928396Y-14661484D01*
X10928396Y-14661484D02*
X10890301Y-14661484D01*
X10890301Y-14661484D02*
X10871253Y-14651960D01*
X10871253Y-14651960D02*
X10861730Y-14632912D01*
X10861730Y-14632912D02*
X10861730Y-14556722D01*
X10861730Y-14556722D02*
X10871253Y-14537674D01*
X10871253Y-14537674D02*
X10890301Y-14528150D01*
X10890301Y-14528150D02*
X10928396Y-14528150D01*
X10928396Y-14528150D02*
X10947444Y-14537674D01*
X10947444Y-14537674D02*
X10956968Y-14556722D01*
X10956968Y-14556722D02*
X10956968Y-14575769D01*
X10956968Y-14575769D02*
X10861730Y-14594817D01*
X11033158Y-14651960D02*
X11052206Y-14661484D01*
X11052206Y-14661484D02*
X11090301Y-14661484D01*
X11090301Y-14661484D02*
X11109349Y-14651960D01*
X11109349Y-14651960D02*
X11118873Y-14632912D01*
X11118873Y-14632912D02*
X11118873Y-14623388D01*
X11118873Y-14623388D02*
X11109349Y-14604341D01*
X11109349Y-14604341D02*
X11090301Y-14594817D01*
X11090301Y-14594817D02*
X11061730Y-14594817D01*
X11061730Y-14594817D02*
X11042682Y-14585293D01*
X11042682Y-14585293D02*
X11033158Y-14566246D01*
X11033158Y-14566246D02*
X11033158Y-14556722D01*
X11033158Y-14556722D02*
X11042682Y-14537674D01*
X11042682Y-14537674D02*
X11061730Y-14528150D01*
X11061730Y-14528150D02*
X11090301Y-14528150D01*
X11090301Y-14528150D02*
X11109349Y-14537674D01*
X11185539Y-14737674D02*
X11195063Y-14728150D01*
X11195063Y-14728150D02*
X11214111Y-14699579D01*
X11214111Y-14699579D02*
X11223634Y-14680531D01*
X11223634Y-14680531D02*
X11233158Y-14651960D01*
X11233158Y-14651960D02*
X11242682Y-14604341D01*
X11242682Y-14604341D02*
X11242682Y-14566246D01*
X11242682Y-14566246D02*
X11233158Y-14518627D01*
X11233158Y-14518627D02*
X11223634Y-14490055D01*
X11223634Y-14490055D02*
X11214111Y-14471008D01*
X11214111Y-14471008D02*
X11195063Y-14442436D01*
X11195063Y-14442436D02*
X11185539Y-14432912D01*
D12*
X6220000Y-14834000D02*
G75*
G02*
X6185000Y-14834000I-17500J0D01*
G01*
X6185000Y-14834000D02*
G75*
G02*
X6220000Y-14834000I17500J0D01*
G01*
D11*
X6518872Y-14725484D02*
X6537920Y-14725484D01*
X6537920Y-14725484D02*
X6556967Y-14735008D01*
X6556967Y-14735008D02*
X6566491Y-14744531D01*
X6566491Y-14744531D02*
X6576015Y-14763579D01*
X6576015Y-14763579D02*
X6585539Y-14801674D01*
X6585539Y-14801674D02*
X6585539Y-14849293D01*
X6585539Y-14849293D02*
X6576015Y-14887388D01*
X6576015Y-14887388D02*
X6566491Y-14906436D01*
X6566491Y-14906436D02*
X6556967Y-14915960D01*
X6556967Y-14915960D02*
X6537920Y-14925484D01*
X6537920Y-14925484D02*
X6518872Y-14925484D01*
X6518872Y-14925484D02*
X6499824Y-14915960D01*
X6499824Y-14915960D02*
X6490301Y-14906436D01*
X6490301Y-14906436D02*
X6480777Y-14887388D01*
X6480777Y-14887388D02*
X6471253Y-14849293D01*
X6471253Y-14849293D02*
X6471253Y-14801674D01*
X6471253Y-14801674D02*
X6480777Y-14763579D01*
X6480777Y-14763579D02*
X6490301Y-14744531D01*
X6490301Y-14744531D02*
X6499824Y-14735008D01*
X6499824Y-14735008D02*
X6518872Y-14725484D01*
X6671253Y-14906436D02*
X6680777Y-14915960D01*
X6680777Y-14915960D02*
X6671253Y-14925484D01*
X6671253Y-14925484D02*
X6661729Y-14915960D01*
X6661729Y-14915960D02*
X6671253Y-14906436D01*
X6671253Y-14906436D02*
X6671253Y-14925484D01*
X6747443Y-14725484D02*
X6871253Y-14725484D01*
X6871253Y-14725484D02*
X6804586Y-14801674D01*
X6804586Y-14801674D02*
X6833158Y-14801674D01*
X6833158Y-14801674D02*
X6852205Y-14811198D01*
X6852205Y-14811198D02*
X6861729Y-14820722D01*
X6861729Y-14820722D02*
X6871253Y-14839769D01*
X6871253Y-14839769D02*
X6871253Y-14887388D01*
X6871253Y-14887388D02*
X6861729Y-14906436D01*
X6861729Y-14906436D02*
X6852205Y-14915960D01*
X6852205Y-14915960D02*
X6833158Y-14925484D01*
X6833158Y-14925484D02*
X6776015Y-14925484D01*
X6776015Y-14925484D02*
X6756967Y-14915960D01*
X6756967Y-14915960D02*
X6747443Y-14906436D01*
X7052205Y-14725484D02*
X6956967Y-14725484D01*
X6956967Y-14725484D02*
X6947443Y-14820722D01*
X6947443Y-14820722D02*
X6956967Y-14811198D01*
X6956967Y-14811198D02*
X6976015Y-14801674D01*
X6976015Y-14801674D02*
X7023634Y-14801674D01*
X7023634Y-14801674D02*
X7042682Y-14811198D01*
X7042682Y-14811198D02*
X7052205Y-14820722D01*
X7052205Y-14820722D02*
X7061729Y-14839769D01*
X7061729Y-14839769D02*
X7061729Y-14887388D01*
X7061729Y-14887388D02*
X7052205Y-14906436D01*
X7052205Y-14906436D02*
X7042682Y-14915960D01*
X7042682Y-14915960D02*
X7023634Y-14925484D01*
X7023634Y-14925484D02*
X6976015Y-14925484D01*
X6976015Y-14925484D02*
X6956967Y-14915960D01*
X6956967Y-14915960D02*
X6947443Y-14906436D01*
X7185539Y-14725484D02*
X7204586Y-14725484D01*
X7204586Y-14725484D02*
X7223634Y-14735008D01*
X7223634Y-14735008D02*
X7233158Y-14744531D01*
X7233158Y-14744531D02*
X7242682Y-14763579D01*
X7242682Y-14763579D02*
X7252205Y-14801674D01*
X7252205Y-14801674D02*
X7252205Y-14849293D01*
X7252205Y-14849293D02*
X7242682Y-14887388D01*
X7242682Y-14887388D02*
X7233158Y-14906436D01*
X7233158Y-14906436D02*
X7223634Y-14915960D01*
X7223634Y-14915960D02*
X7204586Y-14925484D01*
X7204586Y-14925484D02*
X7185539Y-14925484D01*
X7185539Y-14925484D02*
X7166491Y-14915960D01*
X7166491Y-14915960D02*
X7156967Y-14906436D01*
X7156967Y-14906436D02*
X7147443Y-14887388D01*
X7147443Y-14887388D02*
X7137920Y-14849293D01*
X7137920Y-14849293D02*
X7137920Y-14801674D01*
X7137920Y-14801674D02*
X7147443Y-14763579D01*
X7147443Y-14763579D02*
X7156967Y-14744531D01*
X7156967Y-14744531D02*
X7166491Y-14735008D01*
X7166491Y-14735008D02*
X7185539Y-14725484D01*
X7337920Y-14925484D02*
X7337920Y-14792150D01*
X7337920Y-14811198D02*
X7347443Y-14801674D01*
X7347443Y-14801674D02*
X7366491Y-14792150D01*
X7366491Y-14792150D02*
X7395063Y-14792150D01*
X7395063Y-14792150D02*
X7414110Y-14801674D01*
X7414110Y-14801674D02*
X7423634Y-14820722D01*
X7423634Y-14820722D02*
X7423634Y-14925484D01*
X7423634Y-14820722D02*
X7433158Y-14801674D01*
X7433158Y-14801674D02*
X7452205Y-14792150D01*
X7452205Y-14792150D02*
X7480777Y-14792150D01*
X7480777Y-14792150D02*
X7499824Y-14801674D01*
X7499824Y-14801674D02*
X7509348Y-14820722D01*
X7509348Y-14820722D02*
X7509348Y-14925484D01*
X7604586Y-14925484D02*
X7604586Y-14792150D01*
X7604586Y-14811198D02*
X7614110Y-14801674D01*
X7614110Y-14801674D02*
X7633158Y-14792150D01*
X7633158Y-14792150D02*
X7661729Y-14792150D01*
X7661729Y-14792150D02*
X7680777Y-14801674D01*
X7680777Y-14801674D02*
X7690301Y-14820722D01*
X7690301Y-14820722D02*
X7690301Y-14925484D01*
X7690301Y-14820722D02*
X7699824Y-14801674D01*
X7699824Y-14801674D02*
X7718872Y-14792150D01*
X7718872Y-14792150D02*
X7747443Y-14792150D01*
X7747443Y-14792150D02*
X7766491Y-14801674D01*
X7766491Y-14801674D02*
X7776015Y-14820722D01*
X7776015Y-14820722D02*
X7776015Y-14925484D01*
X8166491Y-14715960D02*
X7995063Y-14973103D01*
X8423634Y-14725484D02*
X8442682Y-14725484D01*
X8442682Y-14725484D02*
X8461729Y-14735008D01*
X8461729Y-14735008D02*
X8471253Y-14744531D01*
X8471253Y-14744531D02*
X8480777Y-14763579D01*
X8480777Y-14763579D02*
X8490301Y-14801674D01*
X8490301Y-14801674D02*
X8490301Y-14849293D01*
X8490301Y-14849293D02*
X8480777Y-14887388D01*
X8480777Y-14887388D02*
X8471253Y-14906436D01*
X8471253Y-14906436D02*
X8461729Y-14915960D01*
X8461729Y-14915960D02*
X8442682Y-14925484D01*
X8442682Y-14925484D02*
X8423634Y-14925484D01*
X8423634Y-14925484D02*
X8404587Y-14915960D01*
X8404587Y-14915960D02*
X8395063Y-14906436D01*
X8395063Y-14906436D02*
X8385539Y-14887388D01*
X8385539Y-14887388D02*
X8376015Y-14849293D01*
X8376015Y-14849293D02*
X8376015Y-14801674D01*
X8376015Y-14801674D02*
X8385539Y-14763579D01*
X8385539Y-14763579D02*
X8395063Y-14744531D01*
X8395063Y-14744531D02*
X8404587Y-14735008D01*
X8404587Y-14735008D02*
X8423634Y-14725484D01*
X8576015Y-14906436D02*
X8585539Y-14915960D01*
X8585539Y-14915960D02*
X8576015Y-14925484D01*
X8576015Y-14925484D02*
X8566491Y-14915960D01*
X8566491Y-14915960D02*
X8576015Y-14906436D01*
X8576015Y-14906436D02*
X8576015Y-14925484D01*
X8709348Y-14725484D02*
X8728396Y-14725484D01*
X8728396Y-14725484D02*
X8747444Y-14735008D01*
X8747444Y-14735008D02*
X8756968Y-14744531D01*
X8756968Y-14744531D02*
X8766491Y-14763579D01*
X8766491Y-14763579D02*
X8776015Y-14801674D01*
X8776015Y-14801674D02*
X8776015Y-14849293D01*
X8776015Y-14849293D02*
X8766491Y-14887388D01*
X8766491Y-14887388D02*
X8756968Y-14906436D01*
X8756968Y-14906436D02*
X8747444Y-14915960D01*
X8747444Y-14915960D02*
X8728396Y-14925484D01*
X8728396Y-14925484D02*
X8709348Y-14925484D01*
X8709348Y-14925484D02*
X8690301Y-14915960D01*
X8690301Y-14915960D02*
X8680777Y-14906436D01*
X8680777Y-14906436D02*
X8671253Y-14887388D01*
X8671253Y-14887388D02*
X8661729Y-14849293D01*
X8661729Y-14849293D02*
X8661729Y-14801674D01*
X8661729Y-14801674D02*
X8671253Y-14763579D01*
X8671253Y-14763579D02*
X8680777Y-14744531D01*
X8680777Y-14744531D02*
X8690301Y-14735008D01*
X8690301Y-14735008D02*
X8709348Y-14725484D01*
X8966491Y-14925484D02*
X8852206Y-14925484D01*
X8909348Y-14925484D02*
X8909348Y-14725484D01*
X8909348Y-14725484D02*
X8890301Y-14754055D01*
X8890301Y-14754055D02*
X8871253Y-14773103D01*
X8871253Y-14773103D02*
X8852206Y-14782627D01*
X9033158Y-14725484D02*
X9156968Y-14725484D01*
X9156968Y-14725484D02*
X9090301Y-14801674D01*
X9090301Y-14801674D02*
X9118872Y-14801674D01*
X9118872Y-14801674D02*
X9137920Y-14811198D01*
X9137920Y-14811198D02*
X9147444Y-14820722D01*
X9147444Y-14820722D02*
X9156968Y-14839769D01*
X9156968Y-14839769D02*
X9156968Y-14887388D01*
X9156968Y-14887388D02*
X9147444Y-14906436D01*
X9147444Y-14906436D02*
X9137920Y-14915960D01*
X9137920Y-14915960D02*
X9118872Y-14925484D01*
X9118872Y-14925484D02*
X9061729Y-14925484D01*
X9061729Y-14925484D02*
X9042682Y-14915960D01*
X9042682Y-14915960D02*
X9033158Y-14906436D01*
X9271253Y-14811198D02*
X9252206Y-14801674D01*
X9252206Y-14801674D02*
X9242682Y-14792150D01*
X9242682Y-14792150D02*
X9233158Y-14773103D01*
X9233158Y-14773103D02*
X9233158Y-14763579D01*
X9233158Y-14763579D02*
X9242682Y-14744531D01*
X9242682Y-14744531D02*
X9252206Y-14735008D01*
X9252206Y-14735008D02*
X9271253Y-14725484D01*
X9271253Y-14725484D02*
X9309349Y-14725484D01*
X9309349Y-14725484D02*
X9328396Y-14735008D01*
X9328396Y-14735008D02*
X9337920Y-14744531D01*
X9337920Y-14744531D02*
X9347444Y-14763579D01*
X9347444Y-14763579D02*
X9347444Y-14773103D01*
X9347444Y-14773103D02*
X9337920Y-14792150D01*
X9337920Y-14792150D02*
X9328396Y-14801674D01*
X9328396Y-14801674D02*
X9309349Y-14811198D01*
X9309349Y-14811198D02*
X9271253Y-14811198D01*
X9271253Y-14811198D02*
X9252206Y-14820722D01*
X9252206Y-14820722D02*
X9242682Y-14830246D01*
X9242682Y-14830246D02*
X9233158Y-14849293D01*
X9233158Y-14849293D02*
X9233158Y-14887388D01*
X9233158Y-14887388D02*
X9242682Y-14906436D01*
X9242682Y-14906436D02*
X9252206Y-14915960D01*
X9252206Y-14915960D02*
X9271253Y-14925484D01*
X9271253Y-14925484D02*
X9309349Y-14925484D01*
X9309349Y-14925484D02*
X9328396Y-14915960D01*
X9328396Y-14915960D02*
X9337920Y-14906436D01*
X9337920Y-14906436D02*
X9347444Y-14887388D01*
X9347444Y-14887388D02*
X9347444Y-14849293D01*
X9347444Y-14849293D02*
X9337920Y-14830246D01*
X9337920Y-14830246D02*
X9328396Y-14820722D01*
X9328396Y-14820722D02*
X9309349Y-14811198D01*
X9423634Y-14725484D02*
X9423634Y-14763579D01*
X9499825Y-14725484D02*
X9499825Y-14763579D01*
X9795063Y-15001674D02*
X9785539Y-14992150D01*
X9785539Y-14992150D02*
X9766491Y-14963579D01*
X9766491Y-14963579D02*
X9756968Y-14944531D01*
X9756968Y-14944531D02*
X9747444Y-14915960D01*
X9747444Y-14915960D02*
X9737920Y-14868341D01*
X9737920Y-14868341D02*
X9737920Y-14830246D01*
X9737920Y-14830246D02*
X9747444Y-14782627D01*
X9747444Y-14782627D02*
X9756968Y-14754055D01*
X9756968Y-14754055D02*
X9766491Y-14735008D01*
X9766491Y-14735008D02*
X9785539Y-14706436D01*
X9785539Y-14706436D02*
X9795063Y-14696912D01*
X9880777Y-14925484D02*
X9918872Y-14925484D01*
X9918872Y-14925484D02*
X9937920Y-14915960D01*
X9937920Y-14915960D02*
X9947444Y-14906436D01*
X9947444Y-14906436D02*
X9966491Y-14877865D01*
X9966491Y-14877865D02*
X9976015Y-14839769D01*
X9976015Y-14839769D02*
X9976015Y-14763579D01*
X9976015Y-14763579D02*
X9966491Y-14744531D01*
X9966491Y-14744531D02*
X9956968Y-14735008D01*
X9956968Y-14735008D02*
X9937920Y-14725484D01*
X9937920Y-14725484D02*
X9899825Y-14725484D01*
X9899825Y-14725484D02*
X9880777Y-14735008D01*
X9880777Y-14735008D02*
X9871253Y-14744531D01*
X9871253Y-14744531D02*
X9861730Y-14763579D01*
X9861730Y-14763579D02*
X9861730Y-14811198D01*
X9861730Y-14811198D02*
X9871253Y-14830246D01*
X9871253Y-14830246D02*
X9880777Y-14839769D01*
X9880777Y-14839769D02*
X9899825Y-14849293D01*
X9899825Y-14849293D02*
X9937920Y-14849293D01*
X9937920Y-14849293D02*
X9956968Y-14839769D01*
X9956968Y-14839769D02*
X9966491Y-14830246D01*
X9966491Y-14830246D02*
X9976015Y-14811198D01*
X10214111Y-14925484D02*
X10214111Y-14725484D01*
X10299825Y-14925484D02*
X10299825Y-14820722D01*
X10299825Y-14820722D02*
X10290301Y-14801674D01*
X10290301Y-14801674D02*
X10271253Y-14792150D01*
X10271253Y-14792150D02*
X10242682Y-14792150D01*
X10242682Y-14792150D02*
X10223634Y-14801674D01*
X10223634Y-14801674D02*
X10214111Y-14811198D01*
X10423634Y-14925484D02*
X10404587Y-14915960D01*
X10404587Y-14915960D02*
X10395063Y-14906436D01*
X10395063Y-14906436D02*
X10385539Y-14887388D01*
X10385539Y-14887388D02*
X10385539Y-14830246D01*
X10385539Y-14830246D02*
X10395063Y-14811198D01*
X10395063Y-14811198D02*
X10404587Y-14801674D01*
X10404587Y-14801674D02*
X10423634Y-14792150D01*
X10423634Y-14792150D02*
X10452206Y-14792150D01*
X10452206Y-14792150D02*
X10471253Y-14801674D01*
X10471253Y-14801674D02*
X10480777Y-14811198D01*
X10480777Y-14811198D02*
X10490301Y-14830246D01*
X10490301Y-14830246D02*
X10490301Y-14887388D01*
X10490301Y-14887388D02*
X10480777Y-14906436D01*
X10480777Y-14906436D02*
X10471253Y-14915960D01*
X10471253Y-14915960D02*
X10452206Y-14925484D01*
X10452206Y-14925484D02*
X10423634Y-14925484D01*
X10604587Y-14925484D02*
X10585539Y-14915960D01*
X10585539Y-14915960D02*
X10576015Y-14896912D01*
X10576015Y-14896912D02*
X10576015Y-14725484D01*
X10756968Y-14915960D02*
X10737920Y-14925484D01*
X10737920Y-14925484D02*
X10699825Y-14925484D01*
X10699825Y-14925484D02*
X10680777Y-14915960D01*
X10680777Y-14915960D02*
X10671253Y-14896912D01*
X10671253Y-14896912D02*
X10671253Y-14820722D01*
X10671253Y-14820722D02*
X10680777Y-14801674D01*
X10680777Y-14801674D02*
X10699825Y-14792150D01*
X10699825Y-14792150D02*
X10737920Y-14792150D01*
X10737920Y-14792150D02*
X10756968Y-14801674D01*
X10756968Y-14801674D02*
X10766492Y-14820722D01*
X10766492Y-14820722D02*
X10766492Y-14839769D01*
X10766492Y-14839769D02*
X10671253Y-14858817D01*
X10842682Y-14915960D02*
X10861730Y-14925484D01*
X10861730Y-14925484D02*
X10899825Y-14925484D01*
X10899825Y-14925484D02*
X10918873Y-14915960D01*
X10918873Y-14915960D02*
X10928396Y-14896912D01*
X10928396Y-14896912D02*
X10928396Y-14887388D01*
X10928396Y-14887388D02*
X10918873Y-14868341D01*
X10918873Y-14868341D02*
X10899825Y-14858817D01*
X10899825Y-14858817D02*
X10871253Y-14858817D01*
X10871253Y-14858817D02*
X10852206Y-14849293D01*
X10852206Y-14849293D02*
X10842682Y-14830246D01*
X10842682Y-14830246D02*
X10842682Y-14820722D01*
X10842682Y-14820722D02*
X10852206Y-14801674D01*
X10852206Y-14801674D02*
X10871253Y-14792150D01*
X10871253Y-14792150D02*
X10899825Y-14792150D01*
X10899825Y-14792150D02*
X10918873Y-14801674D01*
X10995063Y-15001674D02*
X11004587Y-14992150D01*
X11004587Y-14992150D02*
X11023634Y-14963579D01*
X11023634Y-14963579D02*
X11033158Y-14944531D01*
X11033158Y-14944531D02*
X11042682Y-14915960D01*
X11042682Y-14915960D02*
X11052206Y-14868341D01*
X11052206Y-14868341D02*
X11052206Y-14830246D01*
X11052206Y-14830246D02*
X11042682Y-14782627D01*
X11042682Y-14782627D02*
X11033158Y-14754055D01*
X11033158Y-14754055D02*
X11023634Y-14735008D01*
X11023634Y-14735008D02*
X11004587Y-14706436D01*
X11004587Y-14706436D02*
X10995063Y-14696912D01*
D12*
X6187500Y-15065500D02*
X6187500Y-15130500D01*
X6155000Y-15098000D02*
X6220000Y-15098000D01*
D11*
X6518872Y-14989484D02*
X6537920Y-14989484D01*
X6537920Y-14989484D02*
X6556967Y-14999008D01*
X6556967Y-14999008D02*
X6566491Y-15008531D01*
X6566491Y-15008531D02*
X6576015Y-15027579D01*
X6576015Y-15027579D02*
X6585539Y-15065674D01*
X6585539Y-15065674D02*
X6585539Y-15113293D01*
X6585539Y-15113293D02*
X6576015Y-15151388D01*
X6576015Y-15151388D02*
X6566491Y-15170436D01*
X6566491Y-15170436D02*
X6556967Y-15179960D01*
X6556967Y-15179960D02*
X6537920Y-15189484D01*
X6537920Y-15189484D02*
X6518872Y-15189484D01*
X6518872Y-15189484D02*
X6499824Y-15179960D01*
X6499824Y-15179960D02*
X6490301Y-15170436D01*
X6490301Y-15170436D02*
X6480777Y-15151388D01*
X6480777Y-15151388D02*
X6471253Y-15113293D01*
X6471253Y-15113293D02*
X6471253Y-15065674D01*
X6471253Y-15065674D02*
X6480777Y-15027579D01*
X6480777Y-15027579D02*
X6490301Y-15008531D01*
X6490301Y-15008531D02*
X6499824Y-14999008D01*
X6499824Y-14999008D02*
X6518872Y-14989484D01*
X6671253Y-15170436D02*
X6680777Y-15179960D01*
X6680777Y-15179960D02*
X6671253Y-15189484D01*
X6671253Y-15189484D02*
X6661729Y-15179960D01*
X6661729Y-15179960D02*
X6671253Y-15170436D01*
X6671253Y-15170436D02*
X6671253Y-15189484D01*
X6852205Y-14989484D02*
X6814110Y-14989484D01*
X6814110Y-14989484D02*
X6795062Y-14999008D01*
X6795062Y-14999008D02*
X6785539Y-15008531D01*
X6785539Y-15008531D02*
X6766491Y-15037103D01*
X6766491Y-15037103D02*
X6756967Y-15075198D01*
X6756967Y-15075198D02*
X6756967Y-15151388D01*
X6756967Y-15151388D02*
X6766491Y-15170436D01*
X6766491Y-15170436D02*
X6776015Y-15179960D01*
X6776015Y-15179960D02*
X6795062Y-15189484D01*
X6795062Y-15189484D02*
X6833158Y-15189484D01*
X6833158Y-15189484D02*
X6852205Y-15179960D01*
X6852205Y-15179960D02*
X6861729Y-15170436D01*
X6861729Y-15170436D02*
X6871253Y-15151388D01*
X6871253Y-15151388D02*
X6871253Y-15103769D01*
X6871253Y-15103769D02*
X6861729Y-15084722D01*
X6861729Y-15084722D02*
X6852205Y-15075198D01*
X6852205Y-15075198D02*
X6833158Y-15065674D01*
X6833158Y-15065674D02*
X6795062Y-15065674D01*
X6795062Y-15065674D02*
X6776015Y-15075198D01*
X6776015Y-15075198D02*
X6766491Y-15084722D01*
X6766491Y-15084722D02*
X6756967Y-15103769D01*
X7052205Y-14989484D02*
X6956967Y-14989484D01*
X6956967Y-14989484D02*
X6947443Y-15084722D01*
X6947443Y-15084722D02*
X6956967Y-15075198D01*
X6956967Y-15075198D02*
X6976015Y-15065674D01*
X6976015Y-15065674D02*
X7023634Y-15065674D01*
X7023634Y-15065674D02*
X7042682Y-15075198D01*
X7042682Y-15075198D02*
X7052205Y-15084722D01*
X7052205Y-15084722D02*
X7061729Y-15103769D01*
X7061729Y-15103769D02*
X7061729Y-15151388D01*
X7061729Y-15151388D02*
X7052205Y-15170436D01*
X7052205Y-15170436D02*
X7042682Y-15179960D01*
X7042682Y-15179960D02*
X7023634Y-15189484D01*
X7023634Y-15189484D02*
X6976015Y-15189484D01*
X6976015Y-15189484D02*
X6956967Y-15179960D01*
X6956967Y-15179960D02*
X6947443Y-15170436D01*
X7185539Y-14989484D02*
X7204586Y-14989484D01*
X7204586Y-14989484D02*
X7223634Y-14999008D01*
X7223634Y-14999008D02*
X7233158Y-15008531D01*
X7233158Y-15008531D02*
X7242682Y-15027579D01*
X7242682Y-15027579D02*
X7252205Y-15065674D01*
X7252205Y-15065674D02*
X7252205Y-15113293D01*
X7252205Y-15113293D02*
X7242682Y-15151388D01*
X7242682Y-15151388D02*
X7233158Y-15170436D01*
X7233158Y-15170436D02*
X7223634Y-15179960D01*
X7223634Y-15179960D02*
X7204586Y-15189484D01*
X7204586Y-15189484D02*
X7185539Y-15189484D01*
X7185539Y-15189484D02*
X7166491Y-15179960D01*
X7166491Y-15179960D02*
X7156967Y-15170436D01*
X7156967Y-15170436D02*
X7147443Y-15151388D01*
X7147443Y-15151388D02*
X7137920Y-15113293D01*
X7137920Y-15113293D02*
X7137920Y-15065674D01*
X7137920Y-15065674D02*
X7147443Y-15027579D01*
X7147443Y-15027579D02*
X7156967Y-15008531D01*
X7156967Y-15008531D02*
X7166491Y-14999008D01*
X7166491Y-14999008D02*
X7185539Y-14989484D01*
X7337920Y-15189484D02*
X7337920Y-15056150D01*
X7337920Y-15075198D02*
X7347443Y-15065674D01*
X7347443Y-15065674D02*
X7366491Y-15056150D01*
X7366491Y-15056150D02*
X7395063Y-15056150D01*
X7395063Y-15056150D02*
X7414110Y-15065674D01*
X7414110Y-15065674D02*
X7423634Y-15084722D01*
X7423634Y-15084722D02*
X7423634Y-15189484D01*
X7423634Y-15084722D02*
X7433158Y-15065674D01*
X7433158Y-15065674D02*
X7452205Y-15056150D01*
X7452205Y-15056150D02*
X7480777Y-15056150D01*
X7480777Y-15056150D02*
X7499824Y-15065674D01*
X7499824Y-15065674D02*
X7509348Y-15084722D01*
X7509348Y-15084722D02*
X7509348Y-15189484D01*
X7604586Y-15189484D02*
X7604586Y-15056150D01*
X7604586Y-15075198D02*
X7614110Y-15065674D01*
X7614110Y-15065674D02*
X7633158Y-15056150D01*
X7633158Y-15056150D02*
X7661729Y-15056150D01*
X7661729Y-15056150D02*
X7680777Y-15065674D01*
X7680777Y-15065674D02*
X7690301Y-15084722D01*
X7690301Y-15084722D02*
X7690301Y-15189484D01*
X7690301Y-15084722D02*
X7699824Y-15065674D01*
X7699824Y-15065674D02*
X7718872Y-15056150D01*
X7718872Y-15056150D02*
X7747443Y-15056150D01*
X7747443Y-15056150D02*
X7766491Y-15065674D01*
X7766491Y-15065674D02*
X7776015Y-15084722D01*
X7776015Y-15084722D02*
X7776015Y-15189484D01*
X8166491Y-14979960D02*
X7995063Y-15237103D01*
X8423634Y-14989484D02*
X8442682Y-14989484D01*
X8442682Y-14989484D02*
X8461729Y-14999008D01*
X8461729Y-14999008D02*
X8471253Y-15008531D01*
X8471253Y-15008531D02*
X8480777Y-15027579D01*
X8480777Y-15027579D02*
X8490301Y-15065674D01*
X8490301Y-15065674D02*
X8490301Y-15113293D01*
X8490301Y-15113293D02*
X8480777Y-15151388D01*
X8480777Y-15151388D02*
X8471253Y-15170436D01*
X8471253Y-15170436D02*
X8461729Y-15179960D01*
X8461729Y-15179960D02*
X8442682Y-15189484D01*
X8442682Y-15189484D02*
X8423634Y-15189484D01*
X8423634Y-15189484D02*
X8404587Y-15179960D01*
X8404587Y-15179960D02*
X8395063Y-15170436D01*
X8395063Y-15170436D02*
X8385539Y-15151388D01*
X8385539Y-15151388D02*
X8376015Y-15113293D01*
X8376015Y-15113293D02*
X8376015Y-15065674D01*
X8376015Y-15065674D02*
X8385539Y-15027579D01*
X8385539Y-15027579D02*
X8395063Y-15008531D01*
X8395063Y-15008531D02*
X8404587Y-14999008D01*
X8404587Y-14999008D02*
X8423634Y-14989484D01*
X8576015Y-15170436D02*
X8585539Y-15179960D01*
X8585539Y-15179960D02*
X8576015Y-15189484D01*
X8576015Y-15189484D02*
X8566491Y-15179960D01*
X8566491Y-15179960D02*
X8576015Y-15170436D01*
X8576015Y-15170436D02*
X8576015Y-15189484D01*
X8709348Y-14989484D02*
X8728396Y-14989484D01*
X8728396Y-14989484D02*
X8747444Y-14999008D01*
X8747444Y-14999008D02*
X8756968Y-15008531D01*
X8756968Y-15008531D02*
X8766491Y-15027579D01*
X8766491Y-15027579D02*
X8776015Y-15065674D01*
X8776015Y-15065674D02*
X8776015Y-15113293D01*
X8776015Y-15113293D02*
X8766491Y-15151388D01*
X8766491Y-15151388D02*
X8756968Y-15170436D01*
X8756968Y-15170436D02*
X8747444Y-15179960D01*
X8747444Y-15179960D02*
X8728396Y-15189484D01*
X8728396Y-15189484D02*
X8709348Y-15189484D01*
X8709348Y-15189484D02*
X8690301Y-15179960D01*
X8690301Y-15179960D02*
X8680777Y-15170436D01*
X8680777Y-15170436D02*
X8671253Y-15151388D01*
X8671253Y-15151388D02*
X8661729Y-15113293D01*
X8661729Y-15113293D02*
X8661729Y-15065674D01*
X8661729Y-15065674D02*
X8671253Y-15027579D01*
X8671253Y-15027579D02*
X8680777Y-15008531D01*
X8680777Y-15008531D02*
X8690301Y-14999008D01*
X8690301Y-14999008D02*
X8709348Y-14989484D01*
X8852206Y-15008531D02*
X8861729Y-14999008D01*
X8861729Y-14999008D02*
X8880777Y-14989484D01*
X8880777Y-14989484D02*
X8928396Y-14989484D01*
X8928396Y-14989484D02*
X8947444Y-14999008D01*
X8947444Y-14999008D02*
X8956968Y-15008531D01*
X8956968Y-15008531D02*
X8966491Y-15027579D01*
X8966491Y-15027579D02*
X8966491Y-15046627D01*
X8966491Y-15046627D02*
X8956968Y-15075198D01*
X8956968Y-15075198D02*
X8842682Y-15189484D01*
X8842682Y-15189484D02*
X8966491Y-15189484D01*
X9147444Y-14989484D02*
X9052206Y-14989484D01*
X9052206Y-14989484D02*
X9042682Y-15084722D01*
X9042682Y-15084722D02*
X9052206Y-15075198D01*
X9052206Y-15075198D02*
X9071253Y-15065674D01*
X9071253Y-15065674D02*
X9118872Y-15065674D01*
X9118872Y-15065674D02*
X9137920Y-15075198D01*
X9137920Y-15075198D02*
X9147444Y-15084722D01*
X9147444Y-15084722D02*
X9156968Y-15103769D01*
X9156968Y-15103769D02*
X9156968Y-15151388D01*
X9156968Y-15151388D02*
X9147444Y-15170436D01*
X9147444Y-15170436D02*
X9137920Y-15179960D01*
X9137920Y-15179960D02*
X9118872Y-15189484D01*
X9118872Y-15189484D02*
X9071253Y-15189484D01*
X9071253Y-15189484D02*
X9052206Y-15179960D01*
X9052206Y-15179960D02*
X9042682Y-15170436D01*
X9328396Y-14989484D02*
X9290301Y-14989484D01*
X9290301Y-14989484D02*
X9271253Y-14999008D01*
X9271253Y-14999008D02*
X9261729Y-15008531D01*
X9261729Y-15008531D02*
X9242682Y-15037103D01*
X9242682Y-15037103D02*
X9233158Y-15075198D01*
X9233158Y-15075198D02*
X9233158Y-15151388D01*
X9233158Y-15151388D02*
X9242682Y-15170436D01*
X9242682Y-15170436D02*
X9252206Y-15179960D01*
X9252206Y-15179960D02*
X9271253Y-15189484D01*
X9271253Y-15189484D02*
X9309349Y-15189484D01*
X9309349Y-15189484D02*
X9328396Y-15179960D01*
X9328396Y-15179960D02*
X9337920Y-15170436D01*
X9337920Y-15170436D02*
X9347444Y-15151388D01*
X9347444Y-15151388D02*
X9347444Y-15103769D01*
X9347444Y-15103769D02*
X9337920Y-15084722D01*
X9337920Y-15084722D02*
X9328396Y-15075198D01*
X9328396Y-15075198D02*
X9309349Y-15065674D01*
X9309349Y-15065674D02*
X9271253Y-15065674D01*
X9271253Y-15065674D02*
X9252206Y-15075198D01*
X9252206Y-15075198D02*
X9242682Y-15084722D01*
X9242682Y-15084722D02*
X9233158Y-15103769D01*
X9423634Y-14989484D02*
X9423634Y-15027579D01*
X9499825Y-14989484D02*
X9499825Y-15027579D01*
X9795063Y-15265674D02*
X9785539Y-15256150D01*
X9785539Y-15256150D02*
X9766491Y-15227579D01*
X9766491Y-15227579D02*
X9756968Y-15208531D01*
X9756968Y-15208531D02*
X9747444Y-15179960D01*
X9747444Y-15179960D02*
X9737920Y-15132341D01*
X9737920Y-15132341D02*
X9737920Y-15094246D01*
X9737920Y-15094246D02*
X9747444Y-15046627D01*
X9747444Y-15046627D02*
X9756968Y-15018055D01*
X9756968Y-15018055D02*
X9766491Y-14999008D01*
X9766491Y-14999008D02*
X9785539Y-14970436D01*
X9785539Y-14970436D02*
X9795063Y-14960912D01*
X9909349Y-14989484D02*
X9928396Y-14989484D01*
X9928396Y-14989484D02*
X9947444Y-14999008D01*
X9947444Y-14999008D02*
X9956968Y-15008531D01*
X9956968Y-15008531D02*
X9966491Y-15027579D01*
X9966491Y-15027579D02*
X9976015Y-15065674D01*
X9976015Y-15065674D02*
X9976015Y-15113293D01*
X9976015Y-15113293D02*
X9966491Y-15151388D01*
X9966491Y-15151388D02*
X9956968Y-15170436D01*
X9956968Y-15170436D02*
X9947444Y-15179960D01*
X9947444Y-15179960D02*
X9928396Y-15189484D01*
X9928396Y-15189484D02*
X9909349Y-15189484D01*
X9909349Y-15189484D02*
X9890301Y-15179960D01*
X9890301Y-15179960D02*
X9880777Y-15170436D01*
X9880777Y-15170436D02*
X9871253Y-15151388D01*
X9871253Y-15151388D02*
X9861730Y-15113293D01*
X9861730Y-15113293D02*
X9861730Y-15065674D01*
X9861730Y-15065674D02*
X9871253Y-15027579D01*
X9871253Y-15027579D02*
X9880777Y-15008531D01*
X9880777Y-15008531D02*
X9890301Y-14999008D01*
X9890301Y-14999008D02*
X9909349Y-14989484D01*
X10214111Y-15189484D02*
X10214111Y-14989484D01*
X10299825Y-15189484D02*
X10299825Y-15084722D01*
X10299825Y-15084722D02*
X10290301Y-15065674D01*
X10290301Y-15065674D02*
X10271253Y-15056150D01*
X10271253Y-15056150D02*
X10242682Y-15056150D01*
X10242682Y-15056150D02*
X10223634Y-15065674D01*
X10223634Y-15065674D02*
X10214111Y-15075198D01*
X10423634Y-15189484D02*
X10404587Y-15179960D01*
X10404587Y-15179960D02*
X10395063Y-15170436D01*
X10395063Y-15170436D02*
X10385539Y-15151388D01*
X10385539Y-15151388D02*
X10385539Y-15094246D01*
X10385539Y-15094246D02*
X10395063Y-15075198D01*
X10395063Y-15075198D02*
X10404587Y-15065674D01*
X10404587Y-15065674D02*
X10423634Y-15056150D01*
X10423634Y-15056150D02*
X10452206Y-15056150D01*
X10452206Y-15056150D02*
X10471253Y-15065674D01*
X10471253Y-15065674D02*
X10480777Y-15075198D01*
X10480777Y-15075198D02*
X10490301Y-15094246D01*
X10490301Y-15094246D02*
X10490301Y-15151388D01*
X10490301Y-15151388D02*
X10480777Y-15170436D01*
X10480777Y-15170436D02*
X10471253Y-15179960D01*
X10471253Y-15179960D02*
X10452206Y-15189484D01*
X10452206Y-15189484D02*
X10423634Y-15189484D01*
X10604587Y-15189484D02*
X10585539Y-15179960D01*
X10585539Y-15179960D02*
X10576015Y-15160912D01*
X10576015Y-15160912D02*
X10576015Y-14989484D01*
X10756968Y-15179960D02*
X10737920Y-15189484D01*
X10737920Y-15189484D02*
X10699825Y-15189484D01*
X10699825Y-15189484D02*
X10680777Y-15179960D01*
X10680777Y-15179960D02*
X10671253Y-15160912D01*
X10671253Y-15160912D02*
X10671253Y-15084722D01*
X10671253Y-15084722D02*
X10680777Y-15065674D01*
X10680777Y-15065674D02*
X10699825Y-15056150D01*
X10699825Y-15056150D02*
X10737920Y-15056150D01*
X10737920Y-15056150D02*
X10756968Y-15065674D01*
X10756968Y-15065674D02*
X10766492Y-15084722D01*
X10766492Y-15084722D02*
X10766492Y-15103769D01*
X10766492Y-15103769D02*
X10671253Y-15122817D01*
X10842682Y-15179960D02*
X10861730Y-15189484D01*
X10861730Y-15189484D02*
X10899825Y-15189484D01*
X10899825Y-15189484D02*
X10918873Y-15179960D01*
X10918873Y-15179960D02*
X10928396Y-15160912D01*
X10928396Y-15160912D02*
X10928396Y-15151388D01*
X10928396Y-15151388D02*
X10918873Y-15132341D01*
X10918873Y-15132341D02*
X10899825Y-15122817D01*
X10899825Y-15122817D02*
X10871253Y-15122817D01*
X10871253Y-15122817D02*
X10852206Y-15113293D01*
X10852206Y-15113293D02*
X10842682Y-15094246D01*
X10842682Y-15094246D02*
X10842682Y-15084722D01*
X10842682Y-15084722D02*
X10852206Y-15065674D01*
X10852206Y-15065674D02*
X10871253Y-15056150D01*
X10871253Y-15056150D02*
X10899825Y-15056150D01*
X10899825Y-15056150D02*
X10918873Y-15065674D01*
X11166492Y-15113293D02*
X11318873Y-15113293D01*
X11242682Y-15189484D02*
X11242682Y-15037103D01*
X11556968Y-15008531D02*
X11566492Y-14999008D01*
X11566492Y-14999008D02*
X11585539Y-14989484D01*
X11585539Y-14989484D02*
X11633158Y-14989484D01*
X11633158Y-14989484D02*
X11652206Y-14999008D01*
X11652206Y-14999008D02*
X11661730Y-15008531D01*
X11661730Y-15008531D02*
X11671253Y-15027579D01*
X11671253Y-15027579D02*
X11671253Y-15046627D01*
X11671253Y-15046627D02*
X11661730Y-15075198D01*
X11661730Y-15075198D02*
X11547444Y-15189484D01*
X11547444Y-15189484D02*
X11671253Y-15189484D01*
X11899825Y-15179960D02*
X11918873Y-15189484D01*
X11918873Y-15189484D02*
X11956968Y-15189484D01*
X11956968Y-15189484D02*
X11976015Y-15179960D01*
X11976015Y-15179960D02*
X11985539Y-15160912D01*
X11985539Y-15160912D02*
X11985539Y-15151388D01*
X11985539Y-15151388D02*
X11976015Y-15132341D01*
X11976015Y-15132341D02*
X11956968Y-15122817D01*
X11956968Y-15122817D02*
X11928396Y-15122817D01*
X11928396Y-15122817D02*
X11909349Y-15113293D01*
X11909349Y-15113293D02*
X11899825Y-15094246D01*
X11899825Y-15094246D02*
X11899825Y-15084722D01*
X11899825Y-15084722D02*
X11909349Y-15065674D01*
X11909349Y-15065674D02*
X11928396Y-15056150D01*
X11928396Y-15056150D02*
X11956968Y-15056150D01*
X11956968Y-15056150D02*
X11976015Y-15065674D01*
X12099825Y-15189484D02*
X12080777Y-15179960D01*
X12080777Y-15179960D02*
X12071254Y-15160912D01*
X12071254Y-15160912D02*
X12071254Y-14989484D01*
X12204587Y-15189484D02*
X12185539Y-15179960D01*
X12185539Y-15179960D02*
X12176015Y-15170436D01*
X12176015Y-15170436D02*
X12166492Y-15151388D01*
X12166492Y-15151388D02*
X12166492Y-15094246D01*
X12166492Y-15094246D02*
X12176015Y-15075198D01*
X12176015Y-15075198D02*
X12185539Y-15065674D01*
X12185539Y-15065674D02*
X12204587Y-15056150D01*
X12204587Y-15056150D02*
X12233158Y-15056150D01*
X12233158Y-15056150D02*
X12252206Y-15065674D01*
X12252206Y-15065674D02*
X12261730Y-15075198D01*
X12261730Y-15075198D02*
X12271254Y-15094246D01*
X12271254Y-15094246D02*
X12271254Y-15151388D01*
X12271254Y-15151388D02*
X12261730Y-15170436D01*
X12261730Y-15170436D02*
X12252206Y-15179960D01*
X12252206Y-15179960D02*
X12233158Y-15189484D01*
X12233158Y-15189484D02*
X12204587Y-15189484D01*
X12328396Y-15056150D02*
X12404587Y-15056150D01*
X12356968Y-14989484D02*
X12356968Y-15160912D01*
X12356968Y-15160912D02*
X12366492Y-15179960D01*
X12366492Y-15179960D02*
X12385539Y-15189484D01*
X12385539Y-15189484D02*
X12404587Y-15189484D01*
X12461730Y-15179960D02*
X12480777Y-15189484D01*
X12480777Y-15189484D02*
X12518873Y-15189484D01*
X12518873Y-15189484D02*
X12537920Y-15179960D01*
X12537920Y-15179960D02*
X12547444Y-15160912D01*
X12547444Y-15160912D02*
X12547444Y-15151388D01*
X12547444Y-15151388D02*
X12537920Y-15132341D01*
X12537920Y-15132341D02*
X12518873Y-15122817D01*
X12518873Y-15122817D02*
X12490301Y-15122817D01*
X12490301Y-15122817D02*
X12471254Y-15113293D01*
X12471254Y-15113293D02*
X12461730Y-15094246D01*
X12461730Y-15094246D02*
X12461730Y-15084722D01*
X12461730Y-15084722D02*
X12471254Y-15065674D01*
X12471254Y-15065674D02*
X12490301Y-15056150D01*
X12490301Y-15056150D02*
X12518873Y-15056150D01*
X12518873Y-15056150D02*
X12537920Y-15065674D01*
X12614111Y-15265674D02*
X12623635Y-15256150D01*
X12623635Y-15256150D02*
X12642682Y-15227579D01*
X12642682Y-15227579D02*
X12652206Y-15208531D01*
X12652206Y-15208531D02*
X12661730Y-15179960D01*
X12661730Y-15179960D02*
X12671254Y-15132341D01*
X12671254Y-15132341D02*
X12671254Y-15094246D01*
X12671254Y-15094246D02*
X12661730Y-15046627D01*
X12661730Y-15046627D02*
X12652206Y-15018055D01*
X12652206Y-15018055D02*
X12642682Y-14999008D01*
X12642682Y-14999008D02*
X12623635Y-14970436D01*
X12623635Y-14970436D02*
X12614111Y-14960912D01*
D12*
X6209749Y-15386749D02*
X6209749Y-15337251D01*
X6160251Y-15337251D01*
X6160251Y-15386749D01*
X6209749Y-15386749D01*
D11*
X6518872Y-15253484D02*
X6537920Y-15253484D01*
X6537920Y-15253484D02*
X6556967Y-15263008D01*
X6556967Y-15263008D02*
X6566491Y-15272531D01*
X6566491Y-15272531D02*
X6576015Y-15291579D01*
X6576015Y-15291579D02*
X6585539Y-15329674D01*
X6585539Y-15329674D02*
X6585539Y-15377293D01*
X6585539Y-15377293D02*
X6576015Y-15415388D01*
X6576015Y-15415388D02*
X6566491Y-15434436D01*
X6566491Y-15434436D02*
X6556967Y-15443960D01*
X6556967Y-15443960D02*
X6537920Y-15453484D01*
X6537920Y-15453484D02*
X6518872Y-15453484D01*
X6518872Y-15453484D02*
X6499824Y-15443960D01*
X6499824Y-15443960D02*
X6490301Y-15434436D01*
X6490301Y-15434436D02*
X6480777Y-15415388D01*
X6480777Y-15415388D02*
X6471253Y-15377293D01*
X6471253Y-15377293D02*
X6471253Y-15329674D01*
X6471253Y-15329674D02*
X6480777Y-15291579D01*
X6480777Y-15291579D02*
X6490301Y-15272531D01*
X6490301Y-15272531D02*
X6499824Y-15263008D01*
X6499824Y-15263008D02*
X6518872Y-15253484D01*
X6671253Y-15434436D02*
X6680777Y-15443960D01*
X6680777Y-15443960D02*
X6671253Y-15453484D01*
X6671253Y-15453484D02*
X6661729Y-15443960D01*
X6661729Y-15443960D02*
X6671253Y-15434436D01*
X6671253Y-15434436D02*
X6671253Y-15453484D01*
X6747443Y-15253484D02*
X6880777Y-15253484D01*
X6880777Y-15253484D02*
X6795062Y-15453484D01*
X6995062Y-15253484D02*
X7014110Y-15253484D01*
X7014110Y-15253484D02*
X7033158Y-15263008D01*
X7033158Y-15263008D02*
X7042682Y-15272531D01*
X7042682Y-15272531D02*
X7052205Y-15291579D01*
X7052205Y-15291579D02*
X7061729Y-15329674D01*
X7061729Y-15329674D02*
X7061729Y-15377293D01*
X7061729Y-15377293D02*
X7052205Y-15415388D01*
X7052205Y-15415388D02*
X7042682Y-15434436D01*
X7042682Y-15434436D02*
X7033158Y-15443960D01*
X7033158Y-15443960D02*
X7014110Y-15453484D01*
X7014110Y-15453484D02*
X6995062Y-15453484D01*
X6995062Y-15453484D02*
X6976015Y-15443960D01*
X6976015Y-15443960D02*
X6966491Y-15434436D01*
X6966491Y-15434436D02*
X6956967Y-15415388D01*
X6956967Y-15415388D02*
X6947443Y-15377293D01*
X6947443Y-15377293D02*
X6947443Y-15329674D01*
X6947443Y-15329674D02*
X6956967Y-15291579D01*
X6956967Y-15291579D02*
X6966491Y-15272531D01*
X6966491Y-15272531D02*
X6976015Y-15263008D01*
X6976015Y-15263008D02*
X6995062Y-15253484D01*
X7185539Y-15253484D02*
X7204586Y-15253484D01*
X7204586Y-15253484D02*
X7223634Y-15263008D01*
X7223634Y-15263008D02*
X7233158Y-15272531D01*
X7233158Y-15272531D02*
X7242682Y-15291579D01*
X7242682Y-15291579D02*
X7252205Y-15329674D01*
X7252205Y-15329674D02*
X7252205Y-15377293D01*
X7252205Y-15377293D02*
X7242682Y-15415388D01*
X7242682Y-15415388D02*
X7233158Y-15434436D01*
X7233158Y-15434436D02*
X7223634Y-15443960D01*
X7223634Y-15443960D02*
X7204586Y-15453484D01*
X7204586Y-15453484D02*
X7185539Y-15453484D01*
X7185539Y-15453484D02*
X7166491Y-15443960D01*
X7166491Y-15443960D02*
X7156967Y-15434436D01*
X7156967Y-15434436D02*
X7147443Y-15415388D01*
X7147443Y-15415388D02*
X7137920Y-15377293D01*
X7137920Y-15377293D02*
X7137920Y-15329674D01*
X7137920Y-15329674D02*
X7147443Y-15291579D01*
X7147443Y-15291579D02*
X7156967Y-15272531D01*
X7156967Y-15272531D02*
X7166491Y-15263008D01*
X7166491Y-15263008D02*
X7185539Y-15253484D01*
X7337920Y-15453484D02*
X7337920Y-15320150D01*
X7337920Y-15339198D02*
X7347443Y-15329674D01*
X7347443Y-15329674D02*
X7366491Y-15320150D01*
X7366491Y-15320150D02*
X7395063Y-15320150D01*
X7395063Y-15320150D02*
X7414110Y-15329674D01*
X7414110Y-15329674D02*
X7423634Y-15348722D01*
X7423634Y-15348722D02*
X7423634Y-15453484D01*
X7423634Y-15348722D02*
X7433158Y-15329674D01*
X7433158Y-15329674D02*
X7452205Y-15320150D01*
X7452205Y-15320150D02*
X7480777Y-15320150D01*
X7480777Y-15320150D02*
X7499824Y-15329674D01*
X7499824Y-15329674D02*
X7509348Y-15348722D01*
X7509348Y-15348722D02*
X7509348Y-15453484D01*
X7604586Y-15453484D02*
X7604586Y-15320150D01*
X7604586Y-15339198D02*
X7614110Y-15329674D01*
X7614110Y-15329674D02*
X7633158Y-15320150D01*
X7633158Y-15320150D02*
X7661729Y-15320150D01*
X7661729Y-15320150D02*
X7680777Y-15329674D01*
X7680777Y-15329674D02*
X7690301Y-15348722D01*
X7690301Y-15348722D02*
X7690301Y-15453484D01*
X7690301Y-15348722D02*
X7699824Y-15329674D01*
X7699824Y-15329674D02*
X7718872Y-15320150D01*
X7718872Y-15320150D02*
X7747443Y-15320150D01*
X7747443Y-15320150D02*
X7766491Y-15329674D01*
X7766491Y-15329674D02*
X7776015Y-15348722D01*
X7776015Y-15348722D02*
X7776015Y-15453484D01*
X8166491Y-15243960D02*
X7995063Y-15501103D01*
X8423634Y-15253484D02*
X8442682Y-15253484D01*
X8442682Y-15253484D02*
X8461729Y-15263008D01*
X8461729Y-15263008D02*
X8471253Y-15272531D01*
X8471253Y-15272531D02*
X8480777Y-15291579D01*
X8480777Y-15291579D02*
X8490301Y-15329674D01*
X8490301Y-15329674D02*
X8490301Y-15377293D01*
X8490301Y-15377293D02*
X8480777Y-15415388D01*
X8480777Y-15415388D02*
X8471253Y-15434436D01*
X8471253Y-15434436D02*
X8461729Y-15443960D01*
X8461729Y-15443960D02*
X8442682Y-15453484D01*
X8442682Y-15453484D02*
X8423634Y-15453484D01*
X8423634Y-15453484D02*
X8404587Y-15443960D01*
X8404587Y-15443960D02*
X8395063Y-15434436D01*
X8395063Y-15434436D02*
X8385539Y-15415388D01*
X8385539Y-15415388D02*
X8376015Y-15377293D01*
X8376015Y-15377293D02*
X8376015Y-15329674D01*
X8376015Y-15329674D02*
X8385539Y-15291579D01*
X8385539Y-15291579D02*
X8395063Y-15272531D01*
X8395063Y-15272531D02*
X8404587Y-15263008D01*
X8404587Y-15263008D02*
X8423634Y-15253484D01*
X8576015Y-15434436D02*
X8585539Y-15443960D01*
X8585539Y-15443960D02*
X8576015Y-15453484D01*
X8576015Y-15453484D02*
X8566491Y-15443960D01*
X8566491Y-15443960D02*
X8576015Y-15434436D01*
X8576015Y-15434436D02*
X8576015Y-15453484D01*
X8709348Y-15253484D02*
X8728396Y-15253484D01*
X8728396Y-15253484D02*
X8747444Y-15263008D01*
X8747444Y-15263008D02*
X8756968Y-15272531D01*
X8756968Y-15272531D02*
X8766491Y-15291579D01*
X8766491Y-15291579D02*
X8776015Y-15329674D01*
X8776015Y-15329674D02*
X8776015Y-15377293D01*
X8776015Y-15377293D02*
X8766491Y-15415388D01*
X8766491Y-15415388D02*
X8756968Y-15434436D01*
X8756968Y-15434436D02*
X8747444Y-15443960D01*
X8747444Y-15443960D02*
X8728396Y-15453484D01*
X8728396Y-15453484D02*
X8709348Y-15453484D01*
X8709348Y-15453484D02*
X8690301Y-15443960D01*
X8690301Y-15443960D02*
X8680777Y-15434436D01*
X8680777Y-15434436D02*
X8671253Y-15415388D01*
X8671253Y-15415388D02*
X8661729Y-15377293D01*
X8661729Y-15377293D02*
X8661729Y-15329674D01*
X8661729Y-15329674D02*
X8671253Y-15291579D01*
X8671253Y-15291579D02*
X8680777Y-15272531D01*
X8680777Y-15272531D02*
X8690301Y-15263008D01*
X8690301Y-15263008D02*
X8709348Y-15253484D01*
X8852206Y-15272531D02*
X8861729Y-15263008D01*
X8861729Y-15263008D02*
X8880777Y-15253484D01*
X8880777Y-15253484D02*
X8928396Y-15253484D01*
X8928396Y-15253484D02*
X8947444Y-15263008D01*
X8947444Y-15263008D02*
X8956968Y-15272531D01*
X8956968Y-15272531D02*
X8966491Y-15291579D01*
X8966491Y-15291579D02*
X8966491Y-15310627D01*
X8966491Y-15310627D02*
X8956968Y-15339198D01*
X8956968Y-15339198D02*
X8842682Y-15453484D01*
X8842682Y-15453484D02*
X8966491Y-15453484D01*
X9033158Y-15253484D02*
X9166491Y-15253484D01*
X9166491Y-15253484D02*
X9080777Y-15453484D01*
X9328396Y-15253484D02*
X9290301Y-15253484D01*
X9290301Y-15253484D02*
X9271253Y-15263008D01*
X9271253Y-15263008D02*
X9261729Y-15272531D01*
X9261729Y-15272531D02*
X9242682Y-15301103D01*
X9242682Y-15301103D02*
X9233158Y-15339198D01*
X9233158Y-15339198D02*
X9233158Y-15415388D01*
X9233158Y-15415388D02*
X9242682Y-15434436D01*
X9242682Y-15434436D02*
X9252206Y-15443960D01*
X9252206Y-15443960D02*
X9271253Y-15453484D01*
X9271253Y-15453484D02*
X9309349Y-15453484D01*
X9309349Y-15453484D02*
X9328396Y-15443960D01*
X9328396Y-15443960D02*
X9337920Y-15434436D01*
X9337920Y-15434436D02*
X9347444Y-15415388D01*
X9347444Y-15415388D02*
X9347444Y-15367769D01*
X9347444Y-15367769D02*
X9337920Y-15348722D01*
X9337920Y-15348722D02*
X9328396Y-15339198D01*
X9328396Y-15339198D02*
X9309349Y-15329674D01*
X9309349Y-15329674D02*
X9271253Y-15329674D01*
X9271253Y-15329674D02*
X9252206Y-15339198D01*
X9252206Y-15339198D02*
X9242682Y-15348722D01*
X9242682Y-15348722D02*
X9233158Y-15367769D01*
X9423634Y-15253484D02*
X9423634Y-15291579D01*
X9499825Y-15253484D02*
X9499825Y-15291579D01*
X9795063Y-15529674D02*
X9785539Y-15520150D01*
X9785539Y-15520150D02*
X9766491Y-15491579D01*
X9766491Y-15491579D02*
X9756968Y-15472531D01*
X9756968Y-15472531D02*
X9747444Y-15443960D01*
X9747444Y-15443960D02*
X9737920Y-15396341D01*
X9737920Y-15396341D02*
X9737920Y-15358246D01*
X9737920Y-15358246D02*
X9747444Y-15310627D01*
X9747444Y-15310627D02*
X9756968Y-15282055D01*
X9756968Y-15282055D02*
X9766491Y-15263008D01*
X9766491Y-15263008D02*
X9785539Y-15234436D01*
X9785539Y-15234436D02*
X9795063Y-15224912D01*
X9909349Y-15253484D02*
X9928396Y-15253484D01*
X9928396Y-15253484D02*
X9947444Y-15263008D01*
X9947444Y-15263008D02*
X9956968Y-15272531D01*
X9956968Y-15272531D02*
X9966491Y-15291579D01*
X9966491Y-15291579D02*
X9976015Y-15329674D01*
X9976015Y-15329674D02*
X9976015Y-15377293D01*
X9976015Y-15377293D02*
X9966491Y-15415388D01*
X9966491Y-15415388D02*
X9956968Y-15434436D01*
X9956968Y-15434436D02*
X9947444Y-15443960D01*
X9947444Y-15443960D02*
X9928396Y-15453484D01*
X9928396Y-15453484D02*
X9909349Y-15453484D01*
X9909349Y-15453484D02*
X9890301Y-15443960D01*
X9890301Y-15443960D02*
X9880777Y-15434436D01*
X9880777Y-15434436D02*
X9871253Y-15415388D01*
X9871253Y-15415388D02*
X9861730Y-15377293D01*
X9861730Y-15377293D02*
X9861730Y-15329674D01*
X9861730Y-15329674D02*
X9871253Y-15291579D01*
X9871253Y-15291579D02*
X9880777Y-15272531D01*
X9880777Y-15272531D02*
X9890301Y-15263008D01*
X9890301Y-15263008D02*
X9909349Y-15253484D01*
X10214111Y-15453484D02*
X10214111Y-15253484D01*
X10299825Y-15453484D02*
X10299825Y-15348722D01*
X10299825Y-15348722D02*
X10290301Y-15329674D01*
X10290301Y-15329674D02*
X10271253Y-15320150D01*
X10271253Y-15320150D02*
X10242682Y-15320150D01*
X10242682Y-15320150D02*
X10223634Y-15329674D01*
X10223634Y-15329674D02*
X10214111Y-15339198D01*
X10423634Y-15453484D02*
X10404587Y-15443960D01*
X10404587Y-15443960D02*
X10395063Y-15434436D01*
X10395063Y-15434436D02*
X10385539Y-15415388D01*
X10385539Y-15415388D02*
X10385539Y-15358246D01*
X10385539Y-15358246D02*
X10395063Y-15339198D01*
X10395063Y-15339198D02*
X10404587Y-15329674D01*
X10404587Y-15329674D02*
X10423634Y-15320150D01*
X10423634Y-15320150D02*
X10452206Y-15320150D01*
X10452206Y-15320150D02*
X10471253Y-15329674D01*
X10471253Y-15329674D02*
X10480777Y-15339198D01*
X10480777Y-15339198D02*
X10490301Y-15358246D01*
X10490301Y-15358246D02*
X10490301Y-15415388D01*
X10490301Y-15415388D02*
X10480777Y-15434436D01*
X10480777Y-15434436D02*
X10471253Y-15443960D01*
X10471253Y-15443960D02*
X10452206Y-15453484D01*
X10452206Y-15453484D02*
X10423634Y-15453484D01*
X10604587Y-15453484D02*
X10585539Y-15443960D01*
X10585539Y-15443960D02*
X10576015Y-15424912D01*
X10576015Y-15424912D02*
X10576015Y-15253484D01*
X10756968Y-15443960D02*
X10737920Y-15453484D01*
X10737920Y-15453484D02*
X10699825Y-15453484D01*
X10699825Y-15453484D02*
X10680777Y-15443960D01*
X10680777Y-15443960D02*
X10671253Y-15424912D01*
X10671253Y-15424912D02*
X10671253Y-15348722D01*
X10671253Y-15348722D02*
X10680777Y-15329674D01*
X10680777Y-15329674D02*
X10699825Y-15320150D01*
X10699825Y-15320150D02*
X10737920Y-15320150D01*
X10737920Y-15320150D02*
X10756968Y-15329674D01*
X10756968Y-15329674D02*
X10766492Y-15348722D01*
X10766492Y-15348722D02*
X10766492Y-15367769D01*
X10766492Y-15367769D02*
X10671253Y-15386817D01*
X10842682Y-15443960D02*
X10861730Y-15453484D01*
X10861730Y-15453484D02*
X10899825Y-15453484D01*
X10899825Y-15453484D02*
X10918873Y-15443960D01*
X10918873Y-15443960D02*
X10928396Y-15424912D01*
X10928396Y-15424912D02*
X10928396Y-15415388D01*
X10928396Y-15415388D02*
X10918873Y-15396341D01*
X10918873Y-15396341D02*
X10899825Y-15386817D01*
X10899825Y-15386817D02*
X10871253Y-15386817D01*
X10871253Y-15386817D02*
X10852206Y-15377293D01*
X10852206Y-15377293D02*
X10842682Y-15358246D01*
X10842682Y-15358246D02*
X10842682Y-15348722D01*
X10842682Y-15348722D02*
X10852206Y-15329674D01*
X10852206Y-15329674D02*
X10871253Y-15320150D01*
X10871253Y-15320150D02*
X10899825Y-15320150D01*
X10899825Y-15320150D02*
X10918873Y-15329674D01*
X11166492Y-15377293D02*
X11318873Y-15377293D01*
X11242682Y-15453484D02*
X11242682Y-15301103D01*
X11556968Y-15272531D02*
X11566492Y-15263008D01*
X11566492Y-15263008D02*
X11585539Y-15253484D01*
X11585539Y-15253484D02*
X11633158Y-15253484D01*
X11633158Y-15253484D02*
X11652206Y-15263008D01*
X11652206Y-15263008D02*
X11661730Y-15272531D01*
X11661730Y-15272531D02*
X11671253Y-15291579D01*
X11671253Y-15291579D02*
X11671253Y-15310627D01*
X11671253Y-15310627D02*
X11661730Y-15339198D01*
X11661730Y-15339198D02*
X11547444Y-15453484D01*
X11547444Y-15453484D02*
X11671253Y-15453484D01*
X11899825Y-15443960D02*
X11918873Y-15453484D01*
X11918873Y-15453484D02*
X11956968Y-15453484D01*
X11956968Y-15453484D02*
X11976015Y-15443960D01*
X11976015Y-15443960D02*
X11985539Y-15424912D01*
X11985539Y-15424912D02*
X11985539Y-15415388D01*
X11985539Y-15415388D02*
X11976015Y-15396341D01*
X11976015Y-15396341D02*
X11956968Y-15386817D01*
X11956968Y-15386817D02*
X11928396Y-15386817D01*
X11928396Y-15386817D02*
X11909349Y-15377293D01*
X11909349Y-15377293D02*
X11899825Y-15358246D01*
X11899825Y-15358246D02*
X11899825Y-15348722D01*
X11899825Y-15348722D02*
X11909349Y-15329674D01*
X11909349Y-15329674D02*
X11928396Y-15320150D01*
X11928396Y-15320150D02*
X11956968Y-15320150D01*
X11956968Y-15320150D02*
X11976015Y-15329674D01*
X12099825Y-15453484D02*
X12080777Y-15443960D01*
X12080777Y-15443960D02*
X12071254Y-15424912D01*
X12071254Y-15424912D02*
X12071254Y-15253484D01*
X12204587Y-15453484D02*
X12185539Y-15443960D01*
X12185539Y-15443960D02*
X12176015Y-15434436D01*
X12176015Y-15434436D02*
X12166492Y-15415388D01*
X12166492Y-15415388D02*
X12166492Y-15358246D01*
X12166492Y-15358246D02*
X12176015Y-15339198D01*
X12176015Y-15339198D02*
X12185539Y-15329674D01*
X12185539Y-15329674D02*
X12204587Y-15320150D01*
X12204587Y-15320150D02*
X12233158Y-15320150D01*
X12233158Y-15320150D02*
X12252206Y-15329674D01*
X12252206Y-15329674D02*
X12261730Y-15339198D01*
X12261730Y-15339198D02*
X12271254Y-15358246D01*
X12271254Y-15358246D02*
X12271254Y-15415388D01*
X12271254Y-15415388D02*
X12261730Y-15434436D01*
X12261730Y-15434436D02*
X12252206Y-15443960D01*
X12252206Y-15443960D02*
X12233158Y-15453484D01*
X12233158Y-15453484D02*
X12204587Y-15453484D01*
X12328396Y-15320150D02*
X12404587Y-15320150D01*
X12356968Y-15253484D02*
X12356968Y-15424912D01*
X12356968Y-15424912D02*
X12366492Y-15443960D01*
X12366492Y-15443960D02*
X12385539Y-15453484D01*
X12385539Y-15453484D02*
X12404587Y-15453484D01*
X12461730Y-15443960D02*
X12480777Y-15453484D01*
X12480777Y-15453484D02*
X12518873Y-15453484D01*
X12518873Y-15453484D02*
X12537920Y-15443960D01*
X12537920Y-15443960D02*
X12547444Y-15424912D01*
X12547444Y-15424912D02*
X12547444Y-15415388D01*
X12547444Y-15415388D02*
X12537920Y-15396341D01*
X12537920Y-15396341D02*
X12518873Y-15386817D01*
X12518873Y-15386817D02*
X12490301Y-15386817D01*
X12490301Y-15386817D02*
X12471254Y-15377293D01*
X12471254Y-15377293D02*
X12461730Y-15358246D01*
X12461730Y-15358246D02*
X12461730Y-15348722D01*
X12461730Y-15348722D02*
X12471254Y-15329674D01*
X12471254Y-15329674D02*
X12490301Y-15320150D01*
X12490301Y-15320150D02*
X12518873Y-15320150D01*
X12518873Y-15320150D02*
X12537920Y-15329674D01*
X12614111Y-15529674D02*
X12623635Y-15520150D01*
X12623635Y-15520150D02*
X12642682Y-15491579D01*
X12642682Y-15491579D02*
X12652206Y-15472531D01*
X12652206Y-15472531D02*
X12661730Y-15443960D01*
X12661730Y-15443960D02*
X12671254Y-15396341D01*
X12671254Y-15396341D02*
X12671254Y-15358246D01*
X12671254Y-15358246D02*
X12661730Y-15310627D01*
X12661730Y-15310627D02*
X12652206Y-15282055D01*
X12652206Y-15282055D02*
X12642682Y-15263008D01*
X12642682Y-15263008D02*
X12623635Y-15234436D01*
X12623635Y-15234436D02*
X12614111Y-15224912D01*
D12*
X6170000Y-15676000D02*
X6220000Y-15626000D01*
X6170000Y-15576000D01*
X6120000Y-15626000D01*
X6170000Y-15676000D01*
D11*
X6585539Y-15717484D02*
X6471253Y-15717484D01*
X6528396Y-15717484D02*
X6528396Y-15517484D01*
X6528396Y-15517484D02*
X6509348Y-15546055D01*
X6509348Y-15546055D02*
X6490301Y-15565103D01*
X6490301Y-15565103D02*
X6471253Y-15574627D01*
X6671253Y-15698436D02*
X6680777Y-15707960D01*
X6680777Y-15707960D02*
X6671253Y-15717484D01*
X6671253Y-15717484D02*
X6661729Y-15707960D01*
X6661729Y-15707960D02*
X6671253Y-15698436D01*
X6671253Y-15698436D02*
X6671253Y-15717484D01*
X6804586Y-15517484D02*
X6823634Y-15517484D01*
X6823634Y-15517484D02*
X6842682Y-15527008D01*
X6842682Y-15527008D02*
X6852205Y-15536531D01*
X6852205Y-15536531D02*
X6861729Y-15555579D01*
X6861729Y-15555579D02*
X6871253Y-15593674D01*
X6871253Y-15593674D02*
X6871253Y-15641293D01*
X6871253Y-15641293D02*
X6861729Y-15679388D01*
X6861729Y-15679388D02*
X6852205Y-15698436D01*
X6852205Y-15698436D02*
X6842682Y-15707960D01*
X6842682Y-15707960D02*
X6823634Y-15717484D01*
X6823634Y-15717484D02*
X6804586Y-15717484D01*
X6804586Y-15717484D02*
X6785539Y-15707960D01*
X6785539Y-15707960D02*
X6776015Y-15698436D01*
X6776015Y-15698436D02*
X6766491Y-15679388D01*
X6766491Y-15679388D02*
X6756967Y-15641293D01*
X6756967Y-15641293D02*
X6756967Y-15593674D01*
X6756967Y-15593674D02*
X6766491Y-15555579D01*
X6766491Y-15555579D02*
X6776015Y-15536531D01*
X6776015Y-15536531D02*
X6785539Y-15527008D01*
X6785539Y-15527008D02*
X6804586Y-15517484D01*
X6995062Y-15517484D02*
X7014110Y-15517484D01*
X7014110Y-15517484D02*
X7033158Y-15527008D01*
X7033158Y-15527008D02*
X7042682Y-15536531D01*
X7042682Y-15536531D02*
X7052205Y-15555579D01*
X7052205Y-15555579D02*
X7061729Y-15593674D01*
X7061729Y-15593674D02*
X7061729Y-15641293D01*
X7061729Y-15641293D02*
X7052205Y-15679388D01*
X7052205Y-15679388D02*
X7042682Y-15698436D01*
X7042682Y-15698436D02*
X7033158Y-15707960D01*
X7033158Y-15707960D02*
X7014110Y-15717484D01*
X7014110Y-15717484D02*
X6995062Y-15717484D01*
X6995062Y-15717484D02*
X6976015Y-15707960D01*
X6976015Y-15707960D02*
X6966491Y-15698436D01*
X6966491Y-15698436D02*
X6956967Y-15679388D01*
X6956967Y-15679388D02*
X6947443Y-15641293D01*
X6947443Y-15641293D02*
X6947443Y-15593674D01*
X6947443Y-15593674D02*
X6956967Y-15555579D01*
X6956967Y-15555579D02*
X6966491Y-15536531D01*
X6966491Y-15536531D02*
X6976015Y-15527008D01*
X6976015Y-15527008D02*
X6995062Y-15517484D01*
X7185539Y-15517484D02*
X7204586Y-15517484D01*
X7204586Y-15517484D02*
X7223634Y-15527008D01*
X7223634Y-15527008D02*
X7233158Y-15536531D01*
X7233158Y-15536531D02*
X7242682Y-15555579D01*
X7242682Y-15555579D02*
X7252205Y-15593674D01*
X7252205Y-15593674D02*
X7252205Y-15641293D01*
X7252205Y-15641293D02*
X7242682Y-15679388D01*
X7242682Y-15679388D02*
X7233158Y-15698436D01*
X7233158Y-15698436D02*
X7223634Y-15707960D01*
X7223634Y-15707960D02*
X7204586Y-15717484D01*
X7204586Y-15717484D02*
X7185539Y-15717484D01*
X7185539Y-15717484D02*
X7166491Y-15707960D01*
X7166491Y-15707960D02*
X7156967Y-15698436D01*
X7156967Y-15698436D02*
X7147443Y-15679388D01*
X7147443Y-15679388D02*
X7137920Y-15641293D01*
X7137920Y-15641293D02*
X7137920Y-15593674D01*
X7137920Y-15593674D02*
X7147443Y-15555579D01*
X7147443Y-15555579D02*
X7156967Y-15536531D01*
X7156967Y-15536531D02*
X7166491Y-15527008D01*
X7166491Y-15527008D02*
X7185539Y-15517484D01*
X7337920Y-15717484D02*
X7337920Y-15584150D01*
X7337920Y-15603198D02*
X7347443Y-15593674D01*
X7347443Y-15593674D02*
X7366491Y-15584150D01*
X7366491Y-15584150D02*
X7395063Y-15584150D01*
X7395063Y-15584150D02*
X7414110Y-15593674D01*
X7414110Y-15593674D02*
X7423634Y-15612722D01*
X7423634Y-15612722D02*
X7423634Y-15717484D01*
X7423634Y-15612722D02*
X7433158Y-15593674D01*
X7433158Y-15593674D02*
X7452205Y-15584150D01*
X7452205Y-15584150D02*
X7480777Y-15584150D01*
X7480777Y-15584150D02*
X7499824Y-15593674D01*
X7499824Y-15593674D02*
X7509348Y-15612722D01*
X7509348Y-15612722D02*
X7509348Y-15717484D01*
X7604586Y-15717484D02*
X7604586Y-15584150D01*
X7604586Y-15603198D02*
X7614110Y-15593674D01*
X7614110Y-15593674D02*
X7633158Y-15584150D01*
X7633158Y-15584150D02*
X7661729Y-15584150D01*
X7661729Y-15584150D02*
X7680777Y-15593674D01*
X7680777Y-15593674D02*
X7690301Y-15612722D01*
X7690301Y-15612722D02*
X7690301Y-15717484D01*
X7690301Y-15612722D02*
X7699824Y-15593674D01*
X7699824Y-15593674D02*
X7718872Y-15584150D01*
X7718872Y-15584150D02*
X7747443Y-15584150D01*
X7747443Y-15584150D02*
X7766491Y-15593674D01*
X7766491Y-15593674D02*
X7776015Y-15612722D01*
X7776015Y-15612722D02*
X7776015Y-15717484D01*
X8166491Y-15507960D02*
X7995063Y-15765103D01*
X8423634Y-15517484D02*
X8442682Y-15517484D01*
X8442682Y-15517484D02*
X8461729Y-15527008D01*
X8461729Y-15527008D02*
X8471253Y-15536531D01*
X8471253Y-15536531D02*
X8480777Y-15555579D01*
X8480777Y-15555579D02*
X8490301Y-15593674D01*
X8490301Y-15593674D02*
X8490301Y-15641293D01*
X8490301Y-15641293D02*
X8480777Y-15679388D01*
X8480777Y-15679388D02*
X8471253Y-15698436D01*
X8471253Y-15698436D02*
X8461729Y-15707960D01*
X8461729Y-15707960D02*
X8442682Y-15717484D01*
X8442682Y-15717484D02*
X8423634Y-15717484D01*
X8423634Y-15717484D02*
X8404587Y-15707960D01*
X8404587Y-15707960D02*
X8395063Y-15698436D01*
X8395063Y-15698436D02*
X8385539Y-15679388D01*
X8385539Y-15679388D02*
X8376015Y-15641293D01*
X8376015Y-15641293D02*
X8376015Y-15593674D01*
X8376015Y-15593674D02*
X8385539Y-15555579D01*
X8385539Y-15555579D02*
X8395063Y-15536531D01*
X8395063Y-15536531D02*
X8404587Y-15527008D01*
X8404587Y-15527008D02*
X8423634Y-15517484D01*
X8576015Y-15698436D02*
X8585539Y-15707960D01*
X8585539Y-15707960D02*
X8576015Y-15717484D01*
X8576015Y-15717484D02*
X8566491Y-15707960D01*
X8566491Y-15707960D02*
X8576015Y-15698436D01*
X8576015Y-15698436D02*
X8576015Y-15717484D01*
X8709348Y-15517484D02*
X8728396Y-15517484D01*
X8728396Y-15517484D02*
X8747444Y-15527008D01*
X8747444Y-15527008D02*
X8756968Y-15536531D01*
X8756968Y-15536531D02*
X8766491Y-15555579D01*
X8766491Y-15555579D02*
X8776015Y-15593674D01*
X8776015Y-15593674D02*
X8776015Y-15641293D01*
X8776015Y-15641293D02*
X8766491Y-15679388D01*
X8766491Y-15679388D02*
X8756968Y-15698436D01*
X8756968Y-15698436D02*
X8747444Y-15707960D01*
X8747444Y-15707960D02*
X8728396Y-15717484D01*
X8728396Y-15717484D02*
X8709348Y-15717484D01*
X8709348Y-15717484D02*
X8690301Y-15707960D01*
X8690301Y-15707960D02*
X8680777Y-15698436D01*
X8680777Y-15698436D02*
X8671253Y-15679388D01*
X8671253Y-15679388D02*
X8661729Y-15641293D01*
X8661729Y-15641293D02*
X8661729Y-15593674D01*
X8661729Y-15593674D02*
X8671253Y-15555579D01*
X8671253Y-15555579D02*
X8680777Y-15536531D01*
X8680777Y-15536531D02*
X8690301Y-15527008D01*
X8690301Y-15527008D02*
X8709348Y-15517484D01*
X8842682Y-15517484D02*
X8966491Y-15517484D01*
X8966491Y-15517484D02*
X8899825Y-15593674D01*
X8899825Y-15593674D02*
X8928396Y-15593674D01*
X8928396Y-15593674D02*
X8947444Y-15603198D01*
X8947444Y-15603198D02*
X8956968Y-15612722D01*
X8956968Y-15612722D02*
X8966491Y-15631769D01*
X8966491Y-15631769D02*
X8966491Y-15679388D01*
X8966491Y-15679388D02*
X8956968Y-15698436D01*
X8956968Y-15698436D02*
X8947444Y-15707960D01*
X8947444Y-15707960D02*
X8928396Y-15717484D01*
X8928396Y-15717484D02*
X8871253Y-15717484D01*
X8871253Y-15717484D02*
X8852206Y-15707960D01*
X8852206Y-15707960D02*
X8842682Y-15698436D01*
X9061729Y-15717484D02*
X9099825Y-15717484D01*
X9099825Y-15717484D02*
X9118872Y-15707960D01*
X9118872Y-15707960D02*
X9128396Y-15698436D01*
X9128396Y-15698436D02*
X9147444Y-15669865D01*
X9147444Y-15669865D02*
X9156968Y-15631769D01*
X9156968Y-15631769D02*
X9156968Y-15555579D01*
X9156968Y-15555579D02*
X9147444Y-15536531D01*
X9147444Y-15536531D02*
X9137920Y-15527008D01*
X9137920Y-15527008D02*
X9118872Y-15517484D01*
X9118872Y-15517484D02*
X9080777Y-15517484D01*
X9080777Y-15517484D02*
X9061729Y-15527008D01*
X9061729Y-15527008D02*
X9052206Y-15536531D01*
X9052206Y-15536531D02*
X9042682Y-15555579D01*
X9042682Y-15555579D02*
X9042682Y-15603198D01*
X9042682Y-15603198D02*
X9052206Y-15622246D01*
X9052206Y-15622246D02*
X9061729Y-15631769D01*
X9061729Y-15631769D02*
X9080777Y-15641293D01*
X9080777Y-15641293D02*
X9118872Y-15641293D01*
X9118872Y-15641293D02*
X9137920Y-15631769D01*
X9137920Y-15631769D02*
X9147444Y-15622246D01*
X9147444Y-15622246D02*
X9156968Y-15603198D01*
X9328396Y-15584150D02*
X9328396Y-15717484D01*
X9280777Y-15507960D02*
X9233158Y-15650817D01*
X9233158Y-15650817D02*
X9356968Y-15650817D01*
X9423634Y-15517484D02*
X9423634Y-15555579D01*
X9499825Y-15517484D02*
X9499825Y-15555579D01*
X9795063Y-15793674D02*
X9785539Y-15784150D01*
X9785539Y-15784150D02*
X9766491Y-15755579D01*
X9766491Y-15755579D02*
X9756968Y-15736531D01*
X9756968Y-15736531D02*
X9747444Y-15707960D01*
X9747444Y-15707960D02*
X9737920Y-15660341D01*
X9737920Y-15660341D02*
X9737920Y-15622246D01*
X9737920Y-15622246D02*
X9747444Y-15574627D01*
X9747444Y-15574627D02*
X9756968Y-15546055D01*
X9756968Y-15546055D02*
X9766491Y-15527008D01*
X9766491Y-15527008D02*
X9785539Y-15498436D01*
X9785539Y-15498436D02*
X9795063Y-15488912D01*
X9861730Y-15536531D02*
X9871253Y-15527008D01*
X9871253Y-15527008D02*
X9890301Y-15517484D01*
X9890301Y-15517484D02*
X9937920Y-15517484D01*
X9937920Y-15517484D02*
X9956968Y-15527008D01*
X9956968Y-15527008D02*
X9966491Y-15536531D01*
X9966491Y-15536531D02*
X9976015Y-15555579D01*
X9976015Y-15555579D02*
X9976015Y-15574627D01*
X9976015Y-15574627D02*
X9966491Y-15603198D01*
X9966491Y-15603198D02*
X9852206Y-15717484D01*
X9852206Y-15717484D02*
X9976015Y-15717484D01*
X10042682Y-15517484D02*
X10176015Y-15517484D01*
X10176015Y-15517484D02*
X10090301Y-15717484D01*
X10404587Y-15717484D02*
X10404587Y-15517484D01*
X10490301Y-15717484D02*
X10490301Y-15612722D01*
X10490301Y-15612722D02*
X10480777Y-15593674D01*
X10480777Y-15593674D02*
X10461730Y-15584150D01*
X10461730Y-15584150D02*
X10433158Y-15584150D01*
X10433158Y-15584150D02*
X10414111Y-15593674D01*
X10414111Y-15593674D02*
X10404587Y-15603198D01*
X10614111Y-15717484D02*
X10595063Y-15707960D01*
X10595063Y-15707960D02*
X10585539Y-15698436D01*
X10585539Y-15698436D02*
X10576015Y-15679388D01*
X10576015Y-15679388D02*
X10576015Y-15622246D01*
X10576015Y-15622246D02*
X10585539Y-15603198D01*
X10585539Y-15603198D02*
X10595063Y-15593674D01*
X10595063Y-15593674D02*
X10614111Y-15584150D01*
X10614111Y-15584150D02*
X10642682Y-15584150D01*
X10642682Y-15584150D02*
X10661730Y-15593674D01*
X10661730Y-15593674D02*
X10671253Y-15603198D01*
X10671253Y-15603198D02*
X10680777Y-15622246D01*
X10680777Y-15622246D02*
X10680777Y-15679388D01*
X10680777Y-15679388D02*
X10671253Y-15698436D01*
X10671253Y-15698436D02*
X10661730Y-15707960D01*
X10661730Y-15707960D02*
X10642682Y-15717484D01*
X10642682Y-15717484D02*
X10614111Y-15717484D01*
X10795063Y-15717484D02*
X10776015Y-15707960D01*
X10776015Y-15707960D02*
X10766492Y-15688912D01*
X10766492Y-15688912D02*
X10766492Y-15517484D01*
X10947444Y-15707960D02*
X10928396Y-15717484D01*
X10928396Y-15717484D02*
X10890301Y-15717484D01*
X10890301Y-15717484D02*
X10871253Y-15707960D01*
X10871253Y-15707960D02*
X10861730Y-15688912D01*
X10861730Y-15688912D02*
X10861730Y-15612722D01*
X10861730Y-15612722D02*
X10871253Y-15593674D01*
X10871253Y-15593674D02*
X10890301Y-15584150D01*
X10890301Y-15584150D02*
X10928396Y-15584150D01*
X10928396Y-15584150D02*
X10947444Y-15593674D01*
X10947444Y-15593674D02*
X10956968Y-15612722D01*
X10956968Y-15612722D02*
X10956968Y-15631769D01*
X10956968Y-15631769D02*
X10861730Y-15650817D01*
X11033158Y-15707960D02*
X11052206Y-15717484D01*
X11052206Y-15717484D02*
X11090301Y-15717484D01*
X11090301Y-15717484D02*
X11109349Y-15707960D01*
X11109349Y-15707960D02*
X11118873Y-15688912D01*
X11118873Y-15688912D02*
X11118873Y-15679388D01*
X11118873Y-15679388D02*
X11109349Y-15660341D01*
X11109349Y-15660341D02*
X11090301Y-15650817D01*
X11090301Y-15650817D02*
X11061730Y-15650817D01*
X11061730Y-15650817D02*
X11042682Y-15641293D01*
X11042682Y-15641293D02*
X11033158Y-15622246D01*
X11033158Y-15622246D02*
X11033158Y-15612722D01*
X11033158Y-15612722D02*
X11042682Y-15593674D01*
X11042682Y-15593674D02*
X11061730Y-15584150D01*
X11061730Y-15584150D02*
X11090301Y-15584150D01*
X11090301Y-15584150D02*
X11109349Y-15593674D01*
X11185539Y-15793674D02*
X11195063Y-15784150D01*
X11195063Y-15784150D02*
X11214111Y-15755579D01*
X11214111Y-15755579D02*
X11223634Y-15736531D01*
X11223634Y-15736531D02*
X11233158Y-15707960D01*
X11233158Y-15707960D02*
X11242682Y-15660341D01*
X11242682Y-15660341D02*
X11242682Y-15622246D01*
X11242682Y-15622246D02*
X11233158Y-15574627D01*
X11233158Y-15574627D02*
X11223634Y-15546055D01*
X11223634Y-15546055D02*
X11214111Y-15527008D01*
X11214111Y-15527008D02*
X11195063Y-15498436D01*
X11195063Y-15498436D02*
X11185539Y-15488912D01*
D13*
X6090000Y-15825000D02*
X6220000Y-15955000D01*
X6220000Y-15825000D02*
X6090000Y-15955000D01*
X6220000Y-15890000D02*
G75*
G02*
X6090000Y-15890000I-65000J0D01*
G01*
X6090000Y-15890000D02*
G75*
G02*
X6220000Y-15890000I65000J0D01*
G01*
D11*
X6585539Y-15981484D02*
X6471253Y-15981484D01*
X6528396Y-15981484D02*
X6528396Y-15781484D01*
X6528396Y-15781484D02*
X6509348Y-15810055D01*
X6509348Y-15810055D02*
X6490301Y-15829103D01*
X6490301Y-15829103D02*
X6471253Y-15838627D01*
X6671253Y-15962436D02*
X6680777Y-15971960D01*
X6680777Y-15971960D02*
X6671253Y-15981484D01*
X6671253Y-15981484D02*
X6661729Y-15971960D01*
X6661729Y-15971960D02*
X6671253Y-15962436D01*
X6671253Y-15962436D02*
X6671253Y-15981484D01*
X6747443Y-15781484D02*
X6871253Y-15781484D01*
X6871253Y-15781484D02*
X6804586Y-15857674D01*
X6804586Y-15857674D02*
X6833158Y-15857674D01*
X6833158Y-15857674D02*
X6852205Y-15867198D01*
X6852205Y-15867198D02*
X6861729Y-15876722D01*
X6861729Y-15876722D02*
X6871253Y-15895769D01*
X6871253Y-15895769D02*
X6871253Y-15943388D01*
X6871253Y-15943388D02*
X6861729Y-15962436D01*
X6861729Y-15962436D02*
X6852205Y-15971960D01*
X6852205Y-15971960D02*
X6833158Y-15981484D01*
X6833158Y-15981484D02*
X6776015Y-15981484D01*
X6776015Y-15981484D02*
X6756967Y-15971960D01*
X6756967Y-15971960D02*
X6747443Y-15962436D01*
X6995062Y-15781484D02*
X7014110Y-15781484D01*
X7014110Y-15781484D02*
X7033158Y-15791008D01*
X7033158Y-15791008D02*
X7042682Y-15800531D01*
X7042682Y-15800531D02*
X7052205Y-15819579D01*
X7052205Y-15819579D02*
X7061729Y-15857674D01*
X7061729Y-15857674D02*
X7061729Y-15905293D01*
X7061729Y-15905293D02*
X7052205Y-15943388D01*
X7052205Y-15943388D02*
X7042682Y-15962436D01*
X7042682Y-15962436D02*
X7033158Y-15971960D01*
X7033158Y-15971960D02*
X7014110Y-15981484D01*
X7014110Y-15981484D02*
X6995062Y-15981484D01*
X6995062Y-15981484D02*
X6976015Y-15971960D01*
X6976015Y-15971960D02*
X6966491Y-15962436D01*
X6966491Y-15962436D02*
X6956967Y-15943388D01*
X6956967Y-15943388D02*
X6947443Y-15905293D01*
X6947443Y-15905293D02*
X6947443Y-15857674D01*
X6947443Y-15857674D02*
X6956967Y-15819579D01*
X6956967Y-15819579D02*
X6966491Y-15800531D01*
X6966491Y-15800531D02*
X6976015Y-15791008D01*
X6976015Y-15791008D02*
X6995062Y-15781484D01*
X7185539Y-15781484D02*
X7204586Y-15781484D01*
X7204586Y-15781484D02*
X7223634Y-15791008D01*
X7223634Y-15791008D02*
X7233158Y-15800531D01*
X7233158Y-15800531D02*
X7242682Y-15819579D01*
X7242682Y-15819579D02*
X7252205Y-15857674D01*
X7252205Y-15857674D02*
X7252205Y-15905293D01*
X7252205Y-15905293D02*
X7242682Y-15943388D01*
X7242682Y-15943388D02*
X7233158Y-15962436D01*
X7233158Y-15962436D02*
X7223634Y-15971960D01*
X7223634Y-15971960D02*
X7204586Y-15981484D01*
X7204586Y-15981484D02*
X7185539Y-15981484D01*
X7185539Y-15981484D02*
X7166491Y-15971960D01*
X7166491Y-15971960D02*
X7156967Y-15962436D01*
X7156967Y-15962436D02*
X7147443Y-15943388D01*
X7147443Y-15943388D02*
X7137920Y-15905293D01*
X7137920Y-15905293D02*
X7137920Y-15857674D01*
X7137920Y-15857674D02*
X7147443Y-15819579D01*
X7147443Y-15819579D02*
X7156967Y-15800531D01*
X7156967Y-15800531D02*
X7166491Y-15791008D01*
X7166491Y-15791008D02*
X7185539Y-15781484D01*
X7337920Y-15981484D02*
X7337920Y-15848150D01*
X7337920Y-15867198D02*
X7347443Y-15857674D01*
X7347443Y-15857674D02*
X7366491Y-15848150D01*
X7366491Y-15848150D02*
X7395063Y-15848150D01*
X7395063Y-15848150D02*
X7414110Y-15857674D01*
X7414110Y-15857674D02*
X7423634Y-15876722D01*
X7423634Y-15876722D02*
X7423634Y-15981484D01*
X7423634Y-15876722D02*
X7433158Y-15857674D01*
X7433158Y-15857674D02*
X7452205Y-15848150D01*
X7452205Y-15848150D02*
X7480777Y-15848150D01*
X7480777Y-15848150D02*
X7499824Y-15857674D01*
X7499824Y-15857674D02*
X7509348Y-15876722D01*
X7509348Y-15876722D02*
X7509348Y-15981484D01*
X7604586Y-15981484D02*
X7604586Y-15848150D01*
X7604586Y-15867198D02*
X7614110Y-15857674D01*
X7614110Y-15857674D02*
X7633158Y-15848150D01*
X7633158Y-15848150D02*
X7661729Y-15848150D01*
X7661729Y-15848150D02*
X7680777Y-15857674D01*
X7680777Y-15857674D02*
X7690301Y-15876722D01*
X7690301Y-15876722D02*
X7690301Y-15981484D01*
X7690301Y-15876722D02*
X7699824Y-15857674D01*
X7699824Y-15857674D02*
X7718872Y-15848150D01*
X7718872Y-15848150D02*
X7747443Y-15848150D01*
X7747443Y-15848150D02*
X7766491Y-15857674D01*
X7766491Y-15857674D02*
X7776015Y-15876722D01*
X7776015Y-15876722D02*
X7776015Y-15981484D01*
X8166491Y-15771960D02*
X7995063Y-16029103D01*
X8423634Y-15781484D02*
X8442682Y-15781484D01*
X8442682Y-15781484D02*
X8461729Y-15791008D01*
X8461729Y-15791008D02*
X8471253Y-15800531D01*
X8471253Y-15800531D02*
X8480777Y-15819579D01*
X8480777Y-15819579D02*
X8490301Y-15857674D01*
X8490301Y-15857674D02*
X8490301Y-15905293D01*
X8490301Y-15905293D02*
X8480777Y-15943388D01*
X8480777Y-15943388D02*
X8471253Y-15962436D01*
X8471253Y-15962436D02*
X8461729Y-15971960D01*
X8461729Y-15971960D02*
X8442682Y-15981484D01*
X8442682Y-15981484D02*
X8423634Y-15981484D01*
X8423634Y-15981484D02*
X8404587Y-15971960D01*
X8404587Y-15971960D02*
X8395063Y-15962436D01*
X8395063Y-15962436D02*
X8385539Y-15943388D01*
X8385539Y-15943388D02*
X8376015Y-15905293D01*
X8376015Y-15905293D02*
X8376015Y-15857674D01*
X8376015Y-15857674D02*
X8385539Y-15819579D01*
X8385539Y-15819579D02*
X8395063Y-15800531D01*
X8395063Y-15800531D02*
X8404587Y-15791008D01*
X8404587Y-15791008D02*
X8423634Y-15781484D01*
X8576015Y-15962436D02*
X8585539Y-15971960D01*
X8585539Y-15971960D02*
X8576015Y-15981484D01*
X8576015Y-15981484D02*
X8566491Y-15971960D01*
X8566491Y-15971960D02*
X8576015Y-15962436D01*
X8576015Y-15962436D02*
X8576015Y-15981484D01*
X8709348Y-15781484D02*
X8728396Y-15781484D01*
X8728396Y-15781484D02*
X8747444Y-15791008D01*
X8747444Y-15791008D02*
X8756968Y-15800531D01*
X8756968Y-15800531D02*
X8766491Y-15819579D01*
X8766491Y-15819579D02*
X8776015Y-15857674D01*
X8776015Y-15857674D02*
X8776015Y-15905293D01*
X8776015Y-15905293D02*
X8766491Y-15943388D01*
X8766491Y-15943388D02*
X8756968Y-15962436D01*
X8756968Y-15962436D02*
X8747444Y-15971960D01*
X8747444Y-15971960D02*
X8728396Y-15981484D01*
X8728396Y-15981484D02*
X8709348Y-15981484D01*
X8709348Y-15981484D02*
X8690301Y-15971960D01*
X8690301Y-15971960D02*
X8680777Y-15962436D01*
X8680777Y-15962436D02*
X8671253Y-15943388D01*
X8671253Y-15943388D02*
X8661729Y-15905293D01*
X8661729Y-15905293D02*
X8661729Y-15857674D01*
X8661729Y-15857674D02*
X8671253Y-15819579D01*
X8671253Y-15819579D02*
X8680777Y-15800531D01*
X8680777Y-15800531D02*
X8690301Y-15791008D01*
X8690301Y-15791008D02*
X8709348Y-15781484D01*
X8956968Y-15781484D02*
X8861729Y-15781484D01*
X8861729Y-15781484D02*
X8852206Y-15876722D01*
X8852206Y-15876722D02*
X8861729Y-15867198D01*
X8861729Y-15867198D02*
X8880777Y-15857674D01*
X8880777Y-15857674D02*
X8928396Y-15857674D01*
X8928396Y-15857674D02*
X8947444Y-15867198D01*
X8947444Y-15867198D02*
X8956968Y-15876722D01*
X8956968Y-15876722D02*
X8966491Y-15895769D01*
X8966491Y-15895769D02*
X8966491Y-15943388D01*
X8966491Y-15943388D02*
X8956968Y-15962436D01*
X8956968Y-15962436D02*
X8947444Y-15971960D01*
X8947444Y-15971960D02*
X8928396Y-15981484D01*
X8928396Y-15981484D02*
X8880777Y-15981484D01*
X8880777Y-15981484D02*
X8861729Y-15971960D01*
X8861729Y-15971960D02*
X8852206Y-15962436D01*
X9156968Y-15981484D02*
X9042682Y-15981484D01*
X9099825Y-15981484D02*
X9099825Y-15781484D01*
X9099825Y-15781484D02*
X9080777Y-15810055D01*
X9080777Y-15810055D02*
X9061729Y-15829103D01*
X9061729Y-15829103D02*
X9042682Y-15838627D01*
X9233158Y-15800531D02*
X9242682Y-15791008D01*
X9242682Y-15791008D02*
X9261729Y-15781484D01*
X9261729Y-15781484D02*
X9309349Y-15781484D01*
X9309349Y-15781484D02*
X9328396Y-15791008D01*
X9328396Y-15791008D02*
X9337920Y-15800531D01*
X9337920Y-15800531D02*
X9347444Y-15819579D01*
X9347444Y-15819579D02*
X9347444Y-15838627D01*
X9347444Y-15838627D02*
X9337920Y-15867198D01*
X9337920Y-15867198D02*
X9223634Y-15981484D01*
X9223634Y-15981484D02*
X9347444Y-15981484D01*
X9423634Y-15781484D02*
X9423634Y-15819579D01*
X9499825Y-15781484D02*
X9499825Y-15819579D01*
X9795063Y-16057674D02*
X9785539Y-16048150D01*
X9785539Y-16048150D02*
X9766491Y-16019579D01*
X9766491Y-16019579D02*
X9756968Y-16000531D01*
X9756968Y-16000531D02*
X9747444Y-15971960D01*
X9747444Y-15971960D02*
X9737920Y-15924341D01*
X9737920Y-15924341D02*
X9737920Y-15886246D01*
X9737920Y-15886246D02*
X9747444Y-15838627D01*
X9747444Y-15838627D02*
X9756968Y-15810055D01*
X9756968Y-15810055D02*
X9766491Y-15791008D01*
X9766491Y-15791008D02*
X9785539Y-15762436D01*
X9785539Y-15762436D02*
X9795063Y-15752912D01*
X9956968Y-15848150D02*
X9956968Y-15981484D01*
X9909349Y-15771960D02*
X9861730Y-15914817D01*
X9861730Y-15914817D02*
X9985539Y-15914817D01*
X10214111Y-15981484D02*
X10214111Y-15781484D01*
X10299825Y-15981484D02*
X10299825Y-15876722D01*
X10299825Y-15876722D02*
X10290301Y-15857674D01*
X10290301Y-15857674D02*
X10271253Y-15848150D01*
X10271253Y-15848150D02*
X10242682Y-15848150D01*
X10242682Y-15848150D02*
X10223634Y-15857674D01*
X10223634Y-15857674D02*
X10214111Y-15867198D01*
X10423634Y-15981484D02*
X10404587Y-15971960D01*
X10404587Y-15971960D02*
X10395063Y-15962436D01*
X10395063Y-15962436D02*
X10385539Y-15943388D01*
X10385539Y-15943388D02*
X10385539Y-15886246D01*
X10385539Y-15886246D02*
X10395063Y-15867198D01*
X10395063Y-15867198D02*
X10404587Y-15857674D01*
X10404587Y-15857674D02*
X10423634Y-15848150D01*
X10423634Y-15848150D02*
X10452206Y-15848150D01*
X10452206Y-15848150D02*
X10471253Y-15857674D01*
X10471253Y-15857674D02*
X10480777Y-15867198D01*
X10480777Y-15867198D02*
X10490301Y-15886246D01*
X10490301Y-15886246D02*
X10490301Y-15943388D01*
X10490301Y-15943388D02*
X10480777Y-15962436D01*
X10480777Y-15962436D02*
X10471253Y-15971960D01*
X10471253Y-15971960D02*
X10452206Y-15981484D01*
X10452206Y-15981484D02*
X10423634Y-15981484D01*
X10604587Y-15981484D02*
X10585539Y-15971960D01*
X10585539Y-15971960D02*
X10576015Y-15952912D01*
X10576015Y-15952912D02*
X10576015Y-15781484D01*
X10756968Y-15971960D02*
X10737920Y-15981484D01*
X10737920Y-15981484D02*
X10699825Y-15981484D01*
X10699825Y-15981484D02*
X10680777Y-15971960D01*
X10680777Y-15971960D02*
X10671253Y-15952912D01*
X10671253Y-15952912D02*
X10671253Y-15876722D01*
X10671253Y-15876722D02*
X10680777Y-15857674D01*
X10680777Y-15857674D02*
X10699825Y-15848150D01*
X10699825Y-15848150D02*
X10737920Y-15848150D01*
X10737920Y-15848150D02*
X10756968Y-15857674D01*
X10756968Y-15857674D02*
X10766492Y-15876722D01*
X10766492Y-15876722D02*
X10766492Y-15895769D01*
X10766492Y-15895769D02*
X10671253Y-15914817D01*
X10842682Y-15971960D02*
X10861730Y-15981484D01*
X10861730Y-15981484D02*
X10899825Y-15981484D01*
X10899825Y-15981484D02*
X10918873Y-15971960D01*
X10918873Y-15971960D02*
X10928396Y-15952912D01*
X10928396Y-15952912D02*
X10928396Y-15943388D01*
X10928396Y-15943388D02*
X10918873Y-15924341D01*
X10918873Y-15924341D02*
X10899825Y-15914817D01*
X10899825Y-15914817D02*
X10871253Y-15914817D01*
X10871253Y-15914817D02*
X10852206Y-15905293D01*
X10852206Y-15905293D02*
X10842682Y-15886246D01*
X10842682Y-15886246D02*
X10842682Y-15876722D01*
X10842682Y-15876722D02*
X10852206Y-15857674D01*
X10852206Y-15857674D02*
X10871253Y-15848150D01*
X10871253Y-15848150D02*
X10899825Y-15848150D01*
X10899825Y-15848150D02*
X10918873Y-15857674D01*
X10995063Y-16057674D02*
X11004587Y-16048150D01*
X11004587Y-16048150D02*
X11023634Y-16019579D01*
X11023634Y-16019579D02*
X11033158Y-16000531D01*
X11033158Y-16000531D02*
X11042682Y-15971960D01*
X11042682Y-15971960D02*
X11052206Y-15924341D01*
X11052206Y-15924341D02*
X11052206Y-15886246D01*
X11052206Y-15886246D02*
X11042682Y-15838627D01*
X11042682Y-15838627D02*
X11033158Y-15810055D01*
X11033158Y-15810055D02*
X11023634Y-15791008D01*
X11023634Y-15791008D02*
X11004587Y-15762436D01*
X11004587Y-15762436D02*
X10995063Y-15752912D01*
X6020000Y-16054000D02*
X6220000Y-16254000D01*
X6220000Y-16054000D02*
X6020000Y-16254000D01*
X6120000Y-16054000D02*
X6120000Y-16254000D01*
X6020000Y-16154000D02*
X6220000Y-16154000D01*
X6471253Y-16064531D02*
X6480777Y-16055008D01*
X6480777Y-16055008D02*
X6499824Y-16045484D01*
X6499824Y-16045484D02*
X6547443Y-16045484D01*
X6547443Y-16045484D02*
X6566491Y-16055008D01*
X6566491Y-16055008D02*
X6576015Y-16064531D01*
X6576015Y-16064531D02*
X6585539Y-16083579D01*
X6585539Y-16083579D02*
X6585539Y-16102627D01*
X6585539Y-16102627D02*
X6576015Y-16131198D01*
X6576015Y-16131198D02*
X6461729Y-16245484D01*
X6461729Y-16245484D02*
X6585539Y-16245484D01*
X6671253Y-16226436D02*
X6680777Y-16235960D01*
X6680777Y-16235960D02*
X6671253Y-16245484D01*
X6671253Y-16245484D02*
X6661729Y-16235960D01*
X6661729Y-16235960D02*
X6671253Y-16226436D01*
X6671253Y-16226436D02*
X6671253Y-16245484D01*
X6747443Y-16045484D02*
X6880777Y-16045484D01*
X6880777Y-16045484D02*
X6795062Y-16245484D01*
X6995062Y-16045484D02*
X7014110Y-16045484D01*
X7014110Y-16045484D02*
X7033158Y-16055008D01*
X7033158Y-16055008D02*
X7042682Y-16064531D01*
X7042682Y-16064531D02*
X7052205Y-16083579D01*
X7052205Y-16083579D02*
X7061729Y-16121674D01*
X7061729Y-16121674D02*
X7061729Y-16169293D01*
X7061729Y-16169293D02*
X7052205Y-16207388D01*
X7052205Y-16207388D02*
X7042682Y-16226436D01*
X7042682Y-16226436D02*
X7033158Y-16235960D01*
X7033158Y-16235960D02*
X7014110Y-16245484D01*
X7014110Y-16245484D02*
X6995062Y-16245484D01*
X6995062Y-16245484D02*
X6976015Y-16235960D01*
X6976015Y-16235960D02*
X6966491Y-16226436D01*
X6966491Y-16226436D02*
X6956967Y-16207388D01*
X6956967Y-16207388D02*
X6947443Y-16169293D01*
X6947443Y-16169293D02*
X6947443Y-16121674D01*
X6947443Y-16121674D02*
X6956967Y-16083579D01*
X6956967Y-16083579D02*
X6966491Y-16064531D01*
X6966491Y-16064531D02*
X6976015Y-16055008D01*
X6976015Y-16055008D02*
X6995062Y-16045484D01*
X7185539Y-16045484D02*
X7204586Y-16045484D01*
X7204586Y-16045484D02*
X7223634Y-16055008D01*
X7223634Y-16055008D02*
X7233158Y-16064531D01*
X7233158Y-16064531D02*
X7242682Y-16083579D01*
X7242682Y-16083579D02*
X7252205Y-16121674D01*
X7252205Y-16121674D02*
X7252205Y-16169293D01*
X7252205Y-16169293D02*
X7242682Y-16207388D01*
X7242682Y-16207388D02*
X7233158Y-16226436D01*
X7233158Y-16226436D02*
X7223634Y-16235960D01*
X7223634Y-16235960D02*
X7204586Y-16245484D01*
X7204586Y-16245484D02*
X7185539Y-16245484D01*
X7185539Y-16245484D02*
X7166491Y-16235960D01*
X7166491Y-16235960D02*
X7156967Y-16226436D01*
X7156967Y-16226436D02*
X7147443Y-16207388D01*
X7147443Y-16207388D02*
X7137920Y-16169293D01*
X7137920Y-16169293D02*
X7137920Y-16121674D01*
X7137920Y-16121674D02*
X7147443Y-16083579D01*
X7147443Y-16083579D02*
X7156967Y-16064531D01*
X7156967Y-16064531D02*
X7166491Y-16055008D01*
X7166491Y-16055008D02*
X7185539Y-16045484D01*
X7337920Y-16245484D02*
X7337920Y-16112150D01*
X7337920Y-16131198D02*
X7347443Y-16121674D01*
X7347443Y-16121674D02*
X7366491Y-16112150D01*
X7366491Y-16112150D02*
X7395063Y-16112150D01*
X7395063Y-16112150D02*
X7414110Y-16121674D01*
X7414110Y-16121674D02*
X7423634Y-16140722D01*
X7423634Y-16140722D02*
X7423634Y-16245484D01*
X7423634Y-16140722D02*
X7433158Y-16121674D01*
X7433158Y-16121674D02*
X7452205Y-16112150D01*
X7452205Y-16112150D02*
X7480777Y-16112150D01*
X7480777Y-16112150D02*
X7499824Y-16121674D01*
X7499824Y-16121674D02*
X7509348Y-16140722D01*
X7509348Y-16140722D02*
X7509348Y-16245484D01*
X7604586Y-16245484D02*
X7604586Y-16112150D01*
X7604586Y-16131198D02*
X7614110Y-16121674D01*
X7614110Y-16121674D02*
X7633158Y-16112150D01*
X7633158Y-16112150D02*
X7661729Y-16112150D01*
X7661729Y-16112150D02*
X7680777Y-16121674D01*
X7680777Y-16121674D02*
X7690301Y-16140722D01*
X7690301Y-16140722D02*
X7690301Y-16245484D01*
X7690301Y-16140722D02*
X7699824Y-16121674D01*
X7699824Y-16121674D02*
X7718872Y-16112150D01*
X7718872Y-16112150D02*
X7747443Y-16112150D01*
X7747443Y-16112150D02*
X7766491Y-16121674D01*
X7766491Y-16121674D02*
X7776015Y-16140722D01*
X7776015Y-16140722D02*
X7776015Y-16245484D01*
X8166491Y-16035960D02*
X7995063Y-16293103D01*
X8423634Y-16045484D02*
X8442682Y-16045484D01*
X8442682Y-16045484D02*
X8461729Y-16055008D01*
X8461729Y-16055008D02*
X8471253Y-16064531D01*
X8471253Y-16064531D02*
X8480777Y-16083579D01*
X8480777Y-16083579D02*
X8490301Y-16121674D01*
X8490301Y-16121674D02*
X8490301Y-16169293D01*
X8490301Y-16169293D02*
X8480777Y-16207388D01*
X8480777Y-16207388D02*
X8471253Y-16226436D01*
X8471253Y-16226436D02*
X8461729Y-16235960D01*
X8461729Y-16235960D02*
X8442682Y-16245484D01*
X8442682Y-16245484D02*
X8423634Y-16245484D01*
X8423634Y-16245484D02*
X8404587Y-16235960D01*
X8404587Y-16235960D02*
X8395063Y-16226436D01*
X8395063Y-16226436D02*
X8385539Y-16207388D01*
X8385539Y-16207388D02*
X8376015Y-16169293D01*
X8376015Y-16169293D02*
X8376015Y-16121674D01*
X8376015Y-16121674D02*
X8385539Y-16083579D01*
X8385539Y-16083579D02*
X8395063Y-16064531D01*
X8395063Y-16064531D02*
X8404587Y-16055008D01*
X8404587Y-16055008D02*
X8423634Y-16045484D01*
X8576015Y-16226436D02*
X8585539Y-16235960D01*
X8585539Y-16235960D02*
X8576015Y-16245484D01*
X8576015Y-16245484D02*
X8566491Y-16235960D01*
X8566491Y-16235960D02*
X8576015Y-16226436D01*
X8576015Y-16226436D02*
X8576015Y-16245484D01*
X8776015Y-16245484D02*
X8661729Y-16245484D01*
X8718872Y-16245484D02*
X8718872Y-16045484D01*
X8718872Y-16045484D02*
X8699825Y-16074055D01*
X8699825Y-16074055D02*
X8680777Y-16093103D01*
X8680777Y-16093103D02*
X8661729Y-16102627D01*
X8899825Y-16045484D02*
X8918872Y-16045484D01*
X8918872Y-16045484D02*
X8937920Y-16055008D01*
X8937920Y-16055008D02*
X8947444Y-16064531D01*
X8947444Y-16064531D02*
X8956968Y-16083579D01*
X8956968Y-16083579D02*
X8966491Y-16121674D01*
X8966491Y-16121674D02*
X8966491Y-16169293D01*
X8966491Y-16169293D02*
X8956968Y-16207388D01*
X8956968Y-16207388D02*
X8947444Y-16226436D01*
X8947444Y-16226436D02*
X8937920Y-16235960D01*
X8937920Y-16235960D02*
X8918872Y-16245484D01*
X8918872Y-16245484D02*
X8899825Y-16245484D01*
X8899825Y-16245484D02*
X8880777Y-16235960D01*
X8880777Y-16235960D02*
X8871253Y-16226436D01*
X8871253Y-16226436D02*
X8861729Y-16207388D01*
X8861729Y-16207388D02*
X8852206Y-16169293D01*
X8852206Y-16169293D02*
X8852206Y-16121674D01*
X8852206Y-16121674D02*
X8861729Y-16083579D01*
X8861729Y-16083579D02*
X8871253Y-16064531D01*
X8871253Y-16064531D02*
X8880777Y-16055008D01*
X8880777Y-16055008D02*
X8899825Y-16045484D01*
X9137920Y-16045484D02*
X9099825Y-16045484D01*
X9099825Y-16045484D02*
X9080777Y-16055008D01*
X9080777Y-16055008D02*
X9071253Y-16064531D01*
X9071253Y-16064531D02*
X9052206Y-16093103D01*
X9052206Y-16093103D02*
X9042682Y-16131198D01*
X9042682Y-16131198D02*
X9042682Y-16207388D01*
X9042682Y-16207388D02*
X9052206Y-16226436D01*
X9052206Y-16226436D02*
X9061729Y-16235960D01*
X9061729Y-16235960D02*
X9080777Y-16245484D01*
X9080777Y-16245484D02*
X9118872Y-16245484D01*
X9118872Y-16245484D02*
X9137920Y-16235960D01*
X9137920Y-16235960D02*
X9147444Y-16226436D01*
X9147444Y-16226436D02*
X9156968Y-16207388D01*
X9156968Y-16207388D02*
X9156968Y-16159769D01*
X9156968Y-16159769D02*
X9147444Y-16140722D01*
X9147444Y-16140722D02*
X9137920Y-16131198D01*
X9137920Y-16131198D02*
X9118872Y-16121674D01*
X9118872Y-16121674D02*
X9080777Y-16121674D01*
X9080777Y-16121674D02*
X9061729Y-16131198D01*
X9061729Y-16131198D02*
X9052206Y-16140722D01*
X9052206Y-16140722D02*
X9042682Y-16159769D01*
X9223634Y-16045484D02*
X9347444Y-16045484D01*
X9347444Y-16045484D02*
X9280777Y-16121674D01*
X9280777Y-16121674D02*
X9309349Y-16121674D01*
X9309349Y-16121674D02*
X9328396Y-16131198D01*
X9328396Y-16131198D02*
X9337920Y-16140722D01*
X9337920Y-16140722D02*
X9347444Y-16159769D01*
X9347444Y-16159769D02*
X9347444Y-16207388D01*
X9347444Y-16207388D02*
X9337920Y-16226436D01*
X9337920Y-16226436D02*
X9328396Y-16235960D01*
X9328396Y-16235960D02*
X9309349Y-16245484D01*
X9309349Y-16245484D02*
X9252206Y-16245484D01*
X9252206Y-16245484D02*
X9233158Y-16235960D01*
X9233158Y-16235960D02*
X9223634Y-16226436D01*
X9423634Y-16045484D02*
X9423634Y-16083579D01*
X9499825Y-16045484D02*
X9499825Y-16083579D01*
X9795063Y-16321674D02*
X9785539Y-16312150D01*
X9785539Y-16312150D02*
X9766491Y-16283579D01*
X9766491Y-16283579D02*
X9756968Y-16264531D01*
X9756968Y-16264531D02*
X9747444Y-16235960D01*
X9747444Y-16235960D02*
X9737920Y-16188341D01*
X9737920Y-16188341D02*
X9737920Y-16150246D01*
X9737920Y-16150246D02*
X9747444Y-16102627D01*
X9747444Y-16102627D02*
X9756968Y-16074055D01*
X9756968Y-16074055D02*
X9766491Y-16055008D01*
X9766491Y-16055008D02*
X9785539Y-16026436D01*
X9785539Y-16026436D02*
X9795063Y-16016912D01*
X9861730Y-16064531D02*
X9871253Y-16055008D01*
X9871253Y-16055008D02*
X9890301Y-16045484D01*
X9890301Y-16045484D02*
X9937920Y-16045484D01*
X9937920Y-16045484D02*
X9956968Y-16055008D01*
X9956968Y-16055008D02*
X9966491Y-16064531D01*
X9966491Y-16064531D02*
X9976015Y-16083579D01*
X9976015Y-16083579D02*
X9976015Y-16102627D01*
X9976015Y-16102627D02*
X9966491Y-16131198D01*
X9966491Y-16131198D02*
X9852206Y-16245484D01*
X9852206Y-16245484D02*
X9976015Y-16245484D01*
X10214111Y-16245484D02*
X10214111Y-16045484D01*
X10299825Y-16245484D02*
X10299825Y-16140722D01*
X10299825Y-16140722D02*
X10290301Y-16121674D01*
X10290301Y-16121674D02*
X10271253Y-16112150D01*
X10271253Y-16112150D02*
X10242682Y-16112150D01*
X10242682Y-16112150D02*
X10223634Y-16121674D01*
X10223634Y-16121674D02*
X10214111Y-16131198D01*
X10423634Y-16245484D02*
X10404587Y-16235960D01*
X10404587Y-16235960D02*
X10395063Y-16226436D01*
X10395063Y-16226436D02*
X10385539Y-16207388D01*
X10385539Y-16207388D02*
X10385539Y-16150246D01*
X10385539Y-16150246D02*
X10395063Y-16131198D01*
X10395063Y-16131198D02*
X10404587Y-16121674D01*
X10404587Y-16121674D02*
X10423634Y-16112150D01*
X10423634Y-16112150D02*
X10452206Y-16112150D01*
X10452206Y-16112150D02*
X10471253Y-16121674D01*
X10471253Y-16121674D02*
X10480777Y-16131198D01*
X10480777Y-16131198D02*
X10490301Y-16150246D01*
X10490301Y-16150246D02*
X10490301Y-16207388D01*
X10490301Y-16207388D02*
X10480777Y-16226436D01*
X10480777Y-16226436D02*
X10471253Y-16235960D01*
X10471253Y-16235960D02*
X10452206Y-16245484D01*
X10452206Y-16245484D02*
X10423634Y-16245484D01*
X10604587Y-16245484D02*
X10585539Y-16235960D01*
X10585539Y-16235960D02*
X10576015Y-16216912D01*
X10576015Y-16216912D02*
X10576015Y-16045484D01*
X10756968Y-16235960D02*
X10737920Y-16245484D01*
X10737920Y-16245484D02*
X10699825Y-16245484D01*
X10699825Y-16245484D02*
X10680777Y-16235960D01*
X10680777Y-16235960D02*
X10671253Y-16216912D01*
X10671253Y-16216912D02*
X10671253Y-16140722D01*
X10671253Y-16140722D02*
X10680777Y-16121674D01*
X10680777Y-16121674D02*
X10699825Y-16112150D01*
X10699825Y-16112150D02*
X10737920Y-16112150D01*
X10737920Y-16112150D02*
X10756968Y-16121674D01*
X10756968Y-16121674D02*
X10766492Y-16140722D01*
X10766492Y-16140722D02*
X10766492Y-16159769D01*
X10766492Y-16159769D02*
X10671253Y-16178817D01*
X10842682Y-16235960D02*
X10861730Y-16245484D01*
X10861730Y-16245484D02*
X10899825Y-16245484D01*
X10899825Y-16245484D02*
X10918873Y-16235960D01*
X10918873Y-16235960D02*
X10928396Y-16216912D01*
X10928396Y-16216912D02*
X10928396Y-16207388D01*
X10928396Y-16207388D02*
X10918873Y-16188341D01*
X10918873Y-16188341D02*
X10899825Y-16178817D01*
X10899825Y-16178817D02*
X10871253Y-16178817D01*
X10871253Y-16178817D02*
X10852206Y-16169293D01*
X10852206Y-16169293D02*
X10842682Y-16150246D01*
X10842682Y-16150246D02*
X10842682Y-16140722D01*
X10842682Y-16140722D02*
X10852206Y-16121674D01*
X10852206Y-16121674D02*
X10871253Y-16112150D01*
X10871253Y-16112150D02*
X10899825Y-16112150D01*
X10899825Y-16112150D02*
X10918873Y-16121674D01*
X10995063Y-16321674D02*
X11004587Y-16312150D01*
X11004587Y-16312150D02*
X11023634Y-16283579D01*
X11023634Y-16283579D02*
X11033158Y-16264531D01*
X11033158Y-16264531D02*
X11042682Y-16235960D01*
X11042682Y-16235960D02*
X11052206Y-16188341D01*
X11052206Y-16188341D02*
X11052206Y-16150246D01*
X11052206Y-16150246D02*
X11042682Y-16102627D01*
X11042682Y-16102627D02*
X11033158Y-16074055D01*
X11033158Y-16074055D02*
X11023634Y-16055008D01*
X11023634Y-16055008D02*
X11004587Y-16026436D01*
X11004587Y-16026436D02*
X10995063Y-16016912D01*
X6020000Y-16374000D02*
X6220000Y-16574000D01*
X6220000Y-16374000D02*
X6020000Y-16574000D01*
X6190711Y-16544711D02*
X6190711Y-16403289D01*
X6049289Y-16403289D01*
X6049289Y-16544711D01*
X6190711Y-16544711D01*
X6461729Y-16365484D02*
X6585539Y-16365484D01*
X6585539Y-16365484D02*
X6518872Y-16441674D01*
X6518872Y-16441674D02*
X6547443Y-16441674D01*
X6547443Y-16441674D02*
X6566491Y-16451198D01*
X6566491Y-16451198D02*
X6576015Y-16460722D01*
X6576015Y-16460722D02*
X6585539Y-16479769D01*
X6585539Y-16479769D02*
X6585539Y-16527388D01*
X6585539Y-16527388D02*
X6576015Y-16546436D01*
X6576015Y-16546436D02*
X6566491Y-16555960D01*
X6566491Y-16555960D02*
X6547443Y-16565484D01*
X6547443Y-16565484D02*
X6490301Y-16565484D01*
X6490301Y-16565484D02*
X6471253Y-16555960D01*
X6471253Y-16555960D02*
X6461729Y-16546436D01*
X6671253Y-16546436D02*
X6680777Y-16555960D01*
X6680777Y-16555960D02*
X6671253Y-16565484D01*
X6671253Y-16565484D02*
X6661729Y-16555960D01*
X6661729Y-16555960D02*
X6671253Y-16546436D01*
X6671253Y-16546436D02*
X6671253Y-16565484D01*
X6756967Y-16384531D02*
X6766491Y-16375008D01*
X6766491Y-16375008D02*
X6785539Y-16365484D01*
X6785539Y-16365484D02*
X6833158Y-16365484D01*
X6833158Y-16365484D02*
X6852205Y-16375008D01*
X6852205Y-16375008D02*
X6861729Y-16384531D01*
X6861729Y-16384531D02*
X6871253Y-16403579D01*
X6871253Y-16403579D02*
X6871253Y-16422627D01*
X6871253Y-16422627D02*
X6861729Y-16451198D01*
X6861729Y-16451198D02*
X6747443Y-16565484D01*
X6747443Y-16565484D02*
X6871253Y-16565484D01*
X6995062Y-16365484D02*
X7014110Y-16365484D01*
X7014110Y-16365484D02*
X7033158Y-16375008D01*
X7033158Y-16375008D02*
X7042682Y-16384531D01*
X7042682Y-16384531D02*
X7052205Y-16403579D01*
X7052205Y-16403579D02*
X7061729Y-16441674D01*
X7061729Y-16441674D02*
X7061729Y-16489293D01*
X7061729Y-16489293D02*
X7052205Y-16527388D01*
X7052205Y-16527388D02*
X7042682Y-16546436D01*
X7042682Y-16546436D02*
X7033158Y-16555960D01*
X7033158Y-16555960D02*
X7014110Y-16565484D01*
X7014110Y-16565484D02*
X6995062Y-16565484D01*
X6995062Y-16565484D02*
X6976015Y-16555960D01*
X6976015Y-16555960D02*
X6966491Y-16546436D01*
X6966491Y-16546436D02*
X6956967Y-16527388D01*
X6956967Y-16527388D02*
X6947443Y-16489293D01*
X6947443Y-16489293D02*
X6947443Y-16441674D01*
X6947443Y-16441674D02*
X6956967Y-16403579D01*
X6956967Y-16403579D02*
X6966491Y-16384531D01*
X6966491Y-16384531D02*
X6976015Y-16375008D01*
X6976015Y-16375008D02*
X6995062Y-16365484D01*
X7185539Y-16365484D02*
X7204586Y-16365484D01*
X7204586Y-16365484D02*
X7223634Y-16375008D01*
X7223634Y-16375008D02*
X7233158Y-16384531D01*
X7233158Y-16384531D02*
X7242682Y-16403579D01*
X7242682Y-16403579D02*
X7252205Y-16441674D01*
X7252205Y-16441674D02*
X7252205Y-16489293D01*
X7252205Y-16489293D02*
X7242682Y-16527388D01*
X7242682Y-16527388D02*
X7233158Y-16546436D01*
X7233158Y-16546436D02*
X7223634Y-16555960D01*
X7223634Y-16555960D02*
X7204586Y-16565484D01*
X7204586Y-16565484D02*
X7185539Y-16565484D01*
X7185539Y-16565484D02*
X7166491Y-16555960D01*
X7166491Y-16555960D02*
X7156967Y-16546436D01*
X7156967Y-16546436D02*
X7147443Y-16527388D01*
X7147443Y-16527388D02*
X7137920Y-16489293D01*
X7137920Y-16489293D02*
X7137920Y-16441674D01*
X7137920Y-16441674D02*
X7147443Y-16403579D01*
X7147443Y-16403579D02*
X7156967Y-16384531D01*
X7156967Y-16384531D02*
X7166491Y-16375008D01*
X7166491Y-16375008D02*
X7185539Y-16365484D01*
X7337920Y-16565484D02*
X7337920Y-16432150D01*
X7337920Y-16451198D02*
X7347443Y-16441674D01*
X7347443Y-16441674D02*
X7366491Y-16432150D01*
X7366491Y-16432150D02*
X7395063Y-16432150D01*
X7395063Y-16432150D02*
X7414110Y-16441674D01*
X7414110Y-16441674D02*
X7423634Y-16460722D01*
X7423634Y-16460722D02*
X7423634Y-16565484D01*
X7423634Y-16460722D02*
X7433158Y-16441674D01*
X7433158Y-16441674D02*
X7452205Y-16432150D01*
X7452205Y-16432150D02*
X7480777Y-16432150D01*
X7480777Y-16432150D02*
X7499824Y-16441674D01*
X7499824Y-16441674D02*
X7509348Y-16460722D01*
X7509348Y-16460722D02*
X7509348Y-16565484D01*
X7604586Y-16565484D02*
X7604586Y-16432150D01*
X7604586Y-16451198D02*
X7614110Y-16441674D01*
X7614110Y-16441674D02*
X7633158Y-16432150D01*
X7633158Y-16432150D02*
X7661729Y-16432150D01*
X7661729Y-16432150D02*
X7680777Y-16441674D01*
X7680777Y-16441674D02*
X7690301Y-16460722D01*
X7690301Y-16460722D02*
X7690301Y-16565484D01*
X7690301Y-16460722D02*
X7699824Y-16441674D01*
X7699824Y-16441674D02*
X7718872Y-16432150D01*
X7718872Y-16432150D02*
X7747443Y-16432150D01*
X7747443Y-16432150D02*
X7766491Y-16441674D01*
X7766491Y-16441674D02*
X7776015Y-16460722D01*
X7776015Y-16460722D02*
X7776015Y-16565484D01*
X8166491Y-16355960D02*
X7995063Y-16613103D01*
X8423634Y-16365484D02*
X8442682Y-16365484D01*
X8442682Y-16365484D02*
X8461729Y-16375008D01*
X8461729Y-16375008D02*
X8471253Y-16384531D01*
X8471253Y-16384531D02*
X8480777Y-16403579D01*
X8480777Y-16403579D02*
X8490301Y-16441674D01*
X8490301Y-16441674D02*
X8490301Y-16489293D01*
X8490301Y-16489293D02*
X8480777Y-16527388D01*
X8480777Y-16527388D02*
X8471253Y-16546436D01*
X8471253Y-16546436D02*
X8461729Y-16555960D01*
X8461729Y-16555960D02*
X8442682Y-16565484D01*
X8442682Y-16565484D02*
X8423634Y-16565484D01*
X8423634Y-16565484D02*
X8404587Y-16555960D01*
X8404587Y-16555960D02*
X8395063Y-16546436D01*
X8395063Y-16546436D02*
X8385539Y-16527388D01*
X8385539Y-16527388D02*
X8376015Y-16489293D01*
X8376015Y-16489293D02*
X8376015Y-16441674D01*
X8376015Y-16441674D02*
X8385539Y-16403579D01*
X8385539Y-16403579D02*
X8395063Y-16384531D01*
X8395063Y-16384531D02*
X8404587Y-16375008D01*
X8404587Y-16375008D02*
X8423634Y-16365484D01*
X8576015Y-16546436D02*
X8585539Y-16555960D01*
X8585539Y-16555960D02*
X8576015Y-16565484D01*
X8576015Y-16565484D02*
X8566491Y-16555960D01*
X8566491Y-16555960D02*
X8576015Y-16546436D01*
X8576015Y-16546436D02*
X8576015Y-16565484D01*
X8776015Y-16565484D02*
X8661729Y-16565484D01*
X8718872Y-16565484D02*
X8718872Y-16365484D01*
X8718872Y-16365484D02*
X8699825Y-16394055D01*
X8699825Y-16394055D02*
X8680777Y-16413103D01*
X8680777Y-16413103D02*
X8661729Y-16422627D01*
X8852206Y-16384531D02*
X8861729Y-16375008D01*
X8861729Y-16375008D02*
X8880777Y-16365484D01*
X8880777Y-16365484D02*
X8928396Y-16365484D01*
X8928396Y-16365484D02*
X8947444Y-16375008D01*
X8947444Y-16375008D02*
X8956968Y-16384531D01*
X8956968Y-16384531D02*
X8966491Y-16403579D01*
X8966491Y-16403579D02*
X8966491Y-16422627D01*
X8966491Y-16422627D02*
X8956968Y-16451198D01*
X8956968Y-16451198D02*
X8842682Y-16565484D01*
X8842682Y-16565484D02*
X8966491Y-16565484D01*
X9137920Y-16365484D02*
X9099825Y-16365484D01*
X9099825Y-16365484D02*
X9080777Y-16375008D01*
X9080777Y-16375008D02*
X9071253Y-16384531D01*
X9071253Y-16384531D02*
X9052206Y-16413103D01*
X9052206Y-16413103D02*
X9042682Y-16451198D01*
X9042682Y-16451198D02*
X9042682Y-16527388D01*
X9042682Y-16527388D02*
X9052206Y-16546436D01*
X9052206Y-16546436D02*
X9061729Y-16555960D01*
X9061729Y-16555960D02*
X9080777Y-16565484D01*
X9080777Y-16565484D02*
X9118872Y-16565484D01*
X9118872Y-16565484D02*
X9137920Y-16555960D01*
X9137920Y-16555960D02*
X9147444Y-16546436D01*
X9147444Y-16546436D02*
X9156968Y-16527388D01*
X9156968Y-16527388D02*
X9156968Y-16479769D01*
X9156968Y-16479769D02*
X9147444Y-16460722D01*
X9147444Y-16460722D02*
X9137920Y-16451198D01*
X9137920Y-16451198D02*
X9118872Y-16441674D01*
X9118872Y-16441674D02*
X9080777Y-16441674D01*
X9080777Y-16441674D02*
X9061729Y-16451198D01*
X9061729Y-16451198D02*
X9052206Y-16460722D01*
X9052206Y-16460722D02*
X9042682Y-16479769D01*
X9280777Y-16365484D02*
X9299825Y-16365484D01*
X9299825Y-16365484D02*
X9318872Y-16375008D01*
X9318872Y-16375008D02*
X9328396Y-16384531D01*
X9328396Y-16384531D02*
X9337920Y-16403579D01*
X9337920Y-16403579D02*
X9347444Y-16441674D01*
X9347444Y-16441674D02*
X9347444Y-16489293D01*
X9347444Y-16489293D02*
X9337920Y-16527388D01*
X9337920Y-16527388D02*
X9328396Y-16546436D01*
X9328396Y-16546436D02*
X9318872Y-16555960D01*
X9318872Y-16555960D02*
X9299825Y-16565484D01*
X9299825Y-16565484D02*
X9280777Y-16565484D01*
X9280777Y-16565484D02*
X9261729Y-16555960D01*
X9261729Y-16555960D02*
X9252206Y-16546436D01*
X9252206Y-16546436D02*
X9242682Y-16527388D01*
X9242682Y-16527388D02*
X9233158Y-16489293D01*
X9233158Y-16489293D02*
X9233158Y-16441674D01*
X9233158Y-16441674D02*
X9242682Y-16403579D01*
X9242682Y-16403579D02*
X9252206Y-16384531D01*
X9252206Y-16384531D02*
X9261729Y-16375008D01*
X9261729Y-16375008D02*
X9280777Y-16365484D01*
X9423634Y-16365484D02*
X9423634Y-16403579D01*
X9499825Y-16365484D02*
X9499825Y-16403579D01*
X9795063Y-16641674D02*
X9785539Y-16632150D01*
X9785539Y-16632150D02*
X9766491Y-16603579D01*
X9766491Y-16603579D02*
X9756968Y-16584531D01*
X9756968Y-16584531D02*
X9747444Y-16555960D01*
X9747444Y-16555960D02*
X9737920Y-16508341D01*
X9737920Y-16508341D02*
X9737920Y-16470246D01*
X9737920Y-16470246D02*
X9747444Y-16422627D01*
X9747444Y-16422627D02*
X9756968Y-16394055D01*
X9756968Y-16394055D02*
X9766491Y-16375008D01*
X9766491Y-16375008D02*
X9785539Y-16346436D01*
X9785539Y-16346436D02*
X9795063Y-16336912D01*
X9956968Y-16432150D02*
X9956968Y-16565484D01*
X9909349Y-16355960D02*
X9861730Y-16498817D01*
X9861730Y-16498817D02*
X9985539Y-16498817D01*
X10214111Y-16565484D02*
X10214111Y-16365484D01*
X10299825Y-16565484D02*
X10299825Y-16460722D01*
X10299825Y-16460722D02*
X10290301Y-16441674D01*
X10290301Y-16441674D02*
X10271253Y-16432150D01*
X10271253Y-16432150D02*
X10242682Y-16432150D01*
X10242682Y-16432150D02*
X10223634Y-16441674D01*
X10223634Y-16441674D02*
X10214111Y-16451198D01*
X10423634Y-16565484D02*
X10404587Y-16555960D01*
X10404587Y-16555960D02*
X10395063Y-16546436D01*
X10395063Y-16546436D02*
X10385539Y-16527388D01*
X10385539Y-16527388D02*
X10385539Y-16470246D01*
X10385539Y-16470246D02*
X10395063Y-16451198D01*
X10395063Y-16451198D02*
X10404587Y-16441674D01*
X10404587Y-16441674D02*
X10423634Y-16432150D01*
X10423634Y-16432150D02*
X10452206Y-16432150D01*
X10452206Y-16432150D02*
X10471253Y-16441674D01*
X10471253Y-16441674D02*
X10480777Y-16451198D01*
X10480777Y-16451198D02*
X10490301Y-16470246D01*
X10490301Y-16470246D02*
X10490301Y-16527388D01*
X10490301Y-16527388D02*
X10480777Y-16546436D01*
X10480777Y-16546436D02*
X10471253Y-16555960D01*
X10471253Y-16555960D02*
X10452206Y-16565484D01*
X10452206Y-16565484D02*
X10423634Y-16565484D01*
X10604587Y-16565484D02*
X10585539Y-16555960D01*
X10585539Y-16555960D02*
X10576015Y-16536912D01*
X10576015Y-16536912D02*
X10576015Y-16365484D01*
X10756968Y-16555960D02*
X10737920Y-16565484D01*
X10737920Y-16565484D02*
X10699825Y-16565484D01*
X10699825Y-16565484D02*
X10680777Y-16555960D01*
X10680777Y-16555960D02*
X10671253Y-16536912D01*
X10671253Y-16536912D02*
X10671253Y-16460722D01*
X10671253Y-16460722D02*
X10680777Y-16441674D01*
X10680777Y-16441674D02*
X10699825Y-16432150D01*
X10699825Y-16432150D02*
X10737920Y-16432150D01*
X10737920Y-16432150D02*
X10756968Y-16441674D01*
X10756968Y-16441674D02*
X10766492Y-16460722D01*
X10766492Y-16460722D02*
X10766492Y-16479769D01*
X10766492Y-16479769D02*
X10671253Y-16498817D01*
X10842682Y-16555960D02*
X10861730Y-16565484D01*
X10861730Y-16565484D02*
X10899825Y-16565484D01*
X10899825Y-16565484D02*
X10918873Y-16555960D01*
X10918873Y-16555960D02*
X10928396Y-16536912D01*
X10928396Y-16536912D02*
X10928396Y-16527388D01*
X10928396Y-16527388D02*
X10918873Y-16508341D01*
X10918873Y-16508341D02*
X10899825Y-16498817D01*
X10899825Y-16498817D02*
X10871253Y-16498817D01*
X10871253Y-16498817D02*
X10852206Y-16489293D01*
X10852206Y-16489293D02*
X10842682Y-16470246D01*
X10842682Y-16470246D02*
X10842682Y-16460722D01*
X10842682Y-16460722D02*
X10852206Y-16441674D01*
X10852206Y-16441674D02*
X10871253Y-16432150D01*
X10871253Y-16432150D02*
X10899825Y-16432150D01*
X10899825Y-16432150D02*
X10918873Y-16441674D01*
X10995063Y-16641674D02*
X11004587Y-16632150D01*
X11004587Y-16632150D02*
X11023634Y-16603579D01*
X11023634Y-16603579D02*
X11033158Y-16584531D01*
X11033158Y-16584531D02*
X11042682Y-16555960D01*
X11042682Y-16555960D02*
X11052206Y-16508341D01*
X11052206Y-16508341D02*
X11052206Y-16470246D01*
X11052206Y-16470246D02*
X11042682Y-16422627D01*
X11042682Y-16422627D02*
X11033158Y-16394055D01*
X11033158Y-16394055D02*
X11023634Y-16375008D01*
X11023634Y-16375008D02*
X11004587Y-16346436D01*
X11004587Y-16346436D02*
X10995063Y-16336912D01*
M02*
