G04 #@! TF.GenerationSoftware,KiCad,Pcbnew,8.0.5*
G04 #@! TF.CreationDate,2025-04-11T00:04:55-04:00*
G04 #@! TF.ProjectId,RP2040_minimal_r2,52503230-3430-45f6-9d69-6e696d616c5f,REV2*
G04 #@! TF.SameCoordinates,Original*
G04 #@! TF.FileFunction,Copper,L2,Bot*
G04 #@! TF.FilePolarity,Positive*
%FSLAX46Y46*%
G04 Gerber Fmt 4.6, Leading zero omitted, Abs format (unit mm)*
G04 Created by KiCad (PCBNEW 8.0.5) date 2025-04-11 00:04:55*
%MOMM*%
%LPD*%
G01*
G04 APERTURE LIST*
G04 #@! TA.AperFunction,ComponentPad*
%ADD10O,1.300000X1.800000*%
G04 #@! TD*
G04 #@! TA.AperFunction,ComponentPad*
%ADD11O,1.050000X1.450000*%
G04 #@! TD*
G04 #@! TA.AperFunction,ComponentPad*
%ADD12R,1.700000X1.700000*%
G04 #@! TD*
G04 #@! TA.AperFunction,ComponentPad*
%ADD13O,1.700000X1.700000*%
G04 #@! TD*
G04 #@! TA.AperFunction,ComponentPad*
%ADD14C,0.600000*%
G04 #@! TD*
G04 #@! TA.AperFunction,ComponentPad*
%ADD15C,3.600000*%
G04 #@! TD*
G04 #@! TA.AperFunction,ConnectorPad*
%ADD16C,5.600000*%
G04 #@! TD*
G04 #@! TA.AperFunction,ComponentPad*
%ADD17O,3.200000X1.900000*%
G04 #@! TD*
G04 #@! TA.AperFunction,ComponentPad*
%ADD18R,3.800000X3.800000*%
G04 #@! TD*
G04 #@! TA.AperFunction,ComponentPad*
%ADD19C,3.800000*%
G04 #@! TD*
G04 #@! TA.AperFunction,ViaPad*
%ADD20C,0.600000*%
G04 #@! TD*
G04 #@! TA.AperFunction,Conductor*
%ADD21C,0.600000*%
G04 #@! TD*
G04 #@! TA.AperFunction,Conductor*
%ADD22C,0.400000*%
G04 #@! TD*
G04 APERTURE END LIST*
D10*
X102725000Y-71700000D03*
D11*
X102425000Y-74730000D03*
X97575000Y-74730000D03*
D10*
X97275000Y-71700000D03*
D12*
X91110000Y-76540000D03*
D13*
X91110000Y-74000000D03*
D14*
X98725000Y-98725000D03*
X98725000Y-100000000D03*
X98725000Y-101275000D03*
X100000000Y-98725000D03*
X100000000Y-100000000D03*
X100000000Y-101275000D03*
X101275000Y-98725000D03*
X101275000Y-100000000D03*
X101275000Y-101275000D03*
D15*
X130000000Y-74000000D03*
D16*
X130000000Y-74000000D03*
D15*
X130000000Y-129000000D03*
D16*
X130000000Y-129000000D03*
D15*
X67500000Y-74000000D03*
D16*
X67500000Y-74000000D03*
D15*
X67500000Y-129000000D03*
D16*
X67500000Y-129000000D03*
D12*
X75215000Y-132375000D03*
D13*
X77755000Y-132375000D03*
X80295000Y-132375000D03*
X82835000Y-132375000D03*
X85375000Y-132375000D03*
X87915000Y-132375000D03*
D17*
X83750000Y-91500000D03*
X71250000Y-91500000D03*
X83750000Y-86500000D03*
X71250000Y-86500000D03*
D12*
X65730000Y-97230000D03*
D13*
X65730000Y-99770000D03*
X65730000Y-102310000D03*
X65730000Y-104850000D03*
X65730000Y-107390000D03*
X65730000Y-109930000D03*
D12*
X122915000Y-132375000D03*
D13*
X120375000Y-132375000D03*
X117835000Y-132375000D03*
X115295000Y-132375000D03*
X112755000Y-132375000D03*
X110215000Y-132375000D03*
D18*
X97375000Y-133375000D03*
D19*
X102375000Y-133375000D03*
D12*
X131900000Y-110120000D03*
D13*
X131900000Y-107580000D03*
X131900000Y-105040000D03*
X131900000Y-102500000D03*
X131900000Y-99960000D03*
X131900000Y-97420000D03*
X131900000Y-94880000D03*
D20*
X97100000Y-112300000D03*
X97000000Y-108500000D03*
X77000000Y-73000000D03*
X100500000Y-138000000D03*
X104750000Y-90750000D03*
X93000000Y-112000000D03*
X82750000Y-120500000D03*
X105500000Y-114500000D03*
X119375000Y-115625000D03*
X76000000Y-99000000D03*
X94000000Y-83000000D03*
X96750000Y-79250000D03*
X96770000Y-107824890D03*
X123000000Y-79000000D03*
X116625000Y-128125000D03*
X100750000Y-121475000D03*
X111160000Y-91690000D03*
X116376409Y-121623591D03*
X101750000Y-121475000D03*
X67000000Y-82500000D03*
X90955000Y-95430000D03*
X92750000Y-120512500D03*
X98700000Y-76000000D03*
X108000000Y-101305000D03*
X130500000Y-134500000D03*
X102540000Y-108510000D03*
X102900000Y-112300000D03*
X84250000Y-120750000D03*
X99000000Y-90500000D03*
X92000000Y-101200000D03*
X115486091Y-108013909D03*
X88000000Y-117500000D03*
X65500000Y-120500000D03*
X115600000Y-109630000D03*
X68500000Y-135500000D03*
X111000000Y-114500000D03*
X98250000Y-90250000D03*
X118500000Y-120750000D03*
X120500000Y-89500000D03*
X102750000Y-121475000D03*
X100689994Y-108415000D03*
X124500000Y-104000000D03*
X122500000Y-137000000D03*
X110250000Y-120512500D03*
X119775000Y-120750000D03*
X115000000Y-118500000D03*
X85000000Y-79500000D03*
X66000000Y-135500000D03*
X68000000Y-108000000D03*
X85375000Y-128125000D03*
X107500000Y-92500000D03*
X107250000Y-120512500D03*
X117370000Y-99890000D03*
X134140000Y-106320000D03*
X123500000Y-121500000D03*
X78500000Y-107500000D03*
X71000000Y-120500000D03*
X80000000Y-137500000D03*
X90800000Y-89200000D03*
X108980000Y-91710000D03*
X95000000Y-115500000D03*
X78000000Y-121250000D03*
X121125000Y-128125000D03*
X95840000Y-120512500D03*
X113620000Y-89460000D03*
X81375000Y-128375000D03*
X80500000Y-122500000D03*
X125500000Y-112500000D03*
X130500000Y-87500000D03*
X131000000Y-120500000D03*
X82625000Y-114125000D03*
X110000000Y-78000000D03*
X104600000Y-73300000D03*
X95400000Y-73300000D03*
X99800000Y-95199994D03*
X100700000Y-97900000D03*
X101000000Y-104500000D03*
X100599970Y-102100000D03*
D21*
X104600000Y-73300000D02*
X95400000Y-73300000D01*
D22*
X100590000Y-102109970D02*
X100599970Y-102100000D01*
X100590000Y-104090000D02*
X100590000Y-102109970D01*
X101000000Y-104500000D02*
X100590000Y-104090000D01*
X99800000Y-97010000D02*
X100690000Y-97900000D01*
X99800000Y-95199994D02*
X99800000Y-97010000D01*
X100690000Y-97900000D02*
X100700000Y-97900000D01*
G04 #@! TA.AperFunction,Conductor*
G36*
X96586060Y-70320185D02*
G01*
X96631815Y-70372989D01*
X96641759Y-70442147D01*
X96612734Y-70505703D01*
X96591906Y-70524819D01*
X96525824Y-70572829D01*
X96397823Y-70700830D01*
X96291434Y-70847265D01*
X96209252Y-71008552D01*
X96209251Y-71008555D01*
X96153317Y-71180706D01*
X96125000Y-71359493D01*
X96125000Y-71450000D01*
X96925000Y-71450000D01*
X96925000Y-71950000D01*
X96125000Y-71950000D01*
X96125000Y-72040506D01*
X96153317Y-72219293D01*
X96209251Y-72391444D01*
X96209252Y-72391447D01*
X96291434Y-72552734D01*
X96327674Y-72602615D01*
X96351154Y-72668421D01*
X96335328Y-72736475D01*
X96285223Y-72785170D01*
X96227356Y-72799500D01*
X95328039Y-72799500D01*
X95266145Y-72817673D01*
X95263307Y-72818469D01*
X95206817Y-72833606D01*
X95200609Y-72836177D01*
X95190985Y-72839572D01*
X95189949Y-72840045D01*
X95141915Y-72870914D01*
X95136880Y-72873983D01*
X95092689Y-72899497D01*
X95088266Y-72902892D01*
X95072945Y-72915238D01*
X95068877Y-72917852D01*
X95068868Y-72917860D01*
X95036355Y-72955383D01*
X95030324Y-72961860D01*
X94999498Y-72992686D01*
X94996364Y-72998115D01*
X94982701Y-73017303D01*
X94974623Y-73026626D01*
X94974623Y-73026627D01*
X94957088Y-73065019D01*
X94951687Y-73075495D01*
X94933607Y-73106813D01*
X94933606Y-73106816D01*
X94930046Y-73120103D01*
X94923069Y-73139511D01*
X94914835Y-73157541D01*
X94909886Y-73191956D01*
X94906925Y-73206394D01*
X94899500Y-73234105D01*
X94899500Y-73255331D01*
X94898238Y-73272977D01*
X94894353Y-73299999D01*
X94898238Y-73327020D01*
X94899500Y-73344667D01*
X94899500Y-73365894D01*
X94906923Y-73393596D01*
X94909885Y-73408037D01*
X94914835Y-73442456D01*
X94914837Y-73442464D01*
X94923069Y-73460489D01*
X94930050Y-73479907D01*
X94933607Y-73493183D01*
X94933610Y-73493190D01*
X94951681Y-73524491D01*
X94957086Y-73534974D01*
X94974623Y-73573373D01*
X94982694Y-73582687D01*
X94996368Y-73601890D01*
X94999497Y-73607310D01*
X94999501Y-73607315D01*
X95030322Y-73638136D01*
X95036354Y-73644615D01*
X95068870Y-73682141D01*
X95068874Y-73682145D01*
X95072928Y-73684750D01*
X95088211Y-73697066D01*
X95092684Y-73700498D01*
X95092686Y-73700500D01*
X95136887Y-73726019D01*
X95141871Y-73729056D01*
X95189947Y-73759953D01*
X95189950Y-73759954D01*
X95189952Y-73759955D01*
X95190994Y-73760431D01*
X95200621Y-73763827D01*
X95206811Y-73766390D01*
X95206814Y-73766392D01*
X95263246Y-73781512D01*
X95263261Y-73781516D01*
X95266098Y-73782312D01*
X95328039Y-73800500D01*
X96597690Y-73800500D01*
X96664729Y-73820185D01*
X96710484Y-73872989D01*
X96720428Y-73942147D01*
X96700792Y-73993391D01*
X96666659Y-74044473D01*
X96666652Y-74044486D01*
X96589390Y-74231016D01*
X96589387Y-74231025D01*
X96550000Y-74429041D01*
X96550000Y-74480000D01*
X97251933Y-74480000D01*
X97250000Y-74487213D01*
X97250000Y-74972787D01*
X97251933Y-74980000D01*
X96550000Y-74980000D01*
X96550000Y-75030958D01*
X96589387Y-75228974D01*
X96589390Y-75228983D01*
X96666652Y-75415513D01*
X96666659Y-75415526D01*
X96778829Y-75583399D01*
X96778832Y-75583403D01*
X96921596Y-75726167D01*
X96921600Y-75726170D01*
X97089473Y-75838340D01*
X97089486Y-75838347D01*
X97276016Y-75915609D01*
X97276025Y-75915612D01*
X97325000Y-75925353D01*
X97325000Y-75139618D01*
X97375446Y-75190064D01*
X97449555Y-75232851D01*
X97532213Y-75255000D01*
X97617787Y-75255000D01*
X97700445Y-75232851D01*
X97774554Y-75190064D01*
X97825000Y-75139618D01*
X97825000Y-75925352D01*
X97873974Y-75915612D01*
X97873983Y-75915609D01*
X98060513Y-75838347D01*
X98060526Y-75838340D01*
X98228399Y-75726170D01*
X98228403Y-75726167D01*
X98371167Y-75583403D01*
X98371170Y-75583399D01*
X98483340Y-75415526D01*
X98483347Y-75415513D01*
X98560609Y-75228983D01*
X98560612Y-75228974D01*
X98599999Y-75030958D01*
X98600000Y-75030955D01*
X98600000Y-74980000D01*
X97898067Y-74980000D01*
X97900000Y-74972787D01*
X97900000Y-74487213D01*
X97898067Y-74480000D01*
X98600000Y-74480000D01*
X98600000Y-74429045D01*
X98599999Y-74429041D01*
X98560612Y-74231025D01*
X98560609Y-74231016D01*
X98483347Y-74044486D01*
X98483340Y-74044473D01*
X98449208Y-73993391D01*
X98428330Y-73926713D01*
X98446815Y-73859333D01*
X98498793Y-73812643D01*
X98552310Y-73800500D01*
X101447690Y-73800500D01*
X101514729Y-73820185D01*
X101560484Y-73872989D01*
X101570428Y-73942147D01*
X101550792Y-73993391D01*
X101516659Y-74044473D01*
X101516652Y-74044486D01*
X101439390Y-74231016D01*
X101439387Y-74231025D01*
X101400000Y-74429041D01*
X101400000Y-74480000D01*
X102101933Y-74480000D01*
X102100000Y-74487213D01*
X102100000Y-74972787D01*
X102101933Y-74980000D01*
X101400000Y-74980000D01*
X101400000Y-75030958D01*
X101439387Y-75228974D01*
X101439390Y-75228983D01*
X101516652Y-75415513D01*
X101516659Y-75415526D01*
X101628829Y-75583399D01*
X101628832Y-75583403D01*
X101771596Y-75726167D01*
X101771600Y-75726170D01*
X101939473Y-75838340D01*
X101939486Y-75838347D01*
X102126016Y-75915609D01*
X102126025Y-75915612D01*
X102175000Y-75925353D01*
X102175000Y-75139618D01*
X102225446Y-75190064D01*
X102299555Y-75232851D01*
X102382213Y-75255000D01*
X102467787Y-75255000D01*
X102550445Y-75232851D01*
X102624554Y-75190064D01*
X102675000Y-75139618D01*
X102675000Y-75925352D01*
X102723974Y-75915612D01*
X102723983Y-75915609D01*
X102910513Y-75838347D01*
X102910526Y-75838340D01*
X103078399Y-75726170D01*
X103078403Y-75726167D01*
X103221167Y-75583403D01*
X103221170Y-75583399D01*
X103333340Y-75415526D01*
X103333347Y-75415513D01*
X103410609Y-75228983D01*
X103410612Y-75228974D01*
X103449999Y-75030958D01*
X103450000Y-75030955D01*
X103450000Y-74980000D01*
X102748067Y-74980000D01*
X102750000Y-74972787D01*
X102750000Y-74487213D01*
X102748067Y-74480000D01*
X103450000Y-74480000D01*
X103450000Y-74429045D01*
X103449999Y-74429041D01*
X103410612Y-74231025D01*
X103410609Y-74231016D01*
X103333347Y-74044486D01*
X103333340Y-74044473D01*
X103303621Y-73999996D01*
X126994415Y-73999996D01*
X126994415Y-74000003D01*
X127014738Y-74348927D01*
X127014739Y-74348938D01*
X127075428Y-74693127D01*
X127075430Y-74693134D01*
X127175674Y-75027972D01*
X127314107Y-75348895D01*
X127314113Y-75348908D01*
X127488870Y-75651597D01*
X127697584Y-75931949D01*
X127697589Y-75931955D01*
X127821463Y-76063253D01*
X127937442Y-76186183D01*
X128113903Y-76334251D01*
X128205186Y-76410847D01*
X128205194Y-76410853D01*
X128497203Y-76602911D01*
X128497207Y-76602913D01*
X128809549Y-76759777D01*
X129137989Y-76879319D01*
X129478086Y-76959923D01*
X129825241Y-77000500D01*
X129825248Y-77000500D01*
X130174752Y-77000500D01*
X130174759Y-77000500D01*
X130521914Y-76959923D01*
X130862011Y-76879319D01*
X131190451Y-76759777D01*
X131502793Y-76602913D01*
X131794811Y-76410849D01*
X132062558Y-76186183D01*
X132302412Y-75931953D01*
X132511130Y-75651596D01*
X132685889Y-75348904D01*
X132824326Y-75027971D01*
X132924569Y-74693136D01*
X132927313Y-74677578D01*
X132985260Y-74348938D01*
X132985259Y-74348938D01*
X132985262Y-74348927D01*
X133005585Y-74000000D01*
X132985262Y-73651073D01*
X132977547Y-73607316D01*
X132924571Y-73306872D01*
X132924569Y-73306865D01*
X132922514Y-73300000D01*
X132824326Y-72972029D01*
X132685889Y-72651096D01*
X132511130Y-72348404D01*
X132475095Y-72300000D01*
X132302415Y-72068050D01*
X132302410Y-72068044D01*
X132186433Y-71945117D01*
X132062558Y-71813817D01*
X131914488Y-71689572D01*
X131794813Y-71589152D01*
X131794805Y-71589146D01*
X131502796Y-71397088D01*
X131190458Y-71240226D01*
X131190452Y-71240223D01*
X130862012Y-71120681D01*
X130862009Y-71120680D01*
X130521915Y-71040077D01*
X130478519Y-71035004D01*
X130174759Y-70999500D01*
X129825241Y-70999500D01*
X129521480Y-71035004D01*
X129478085Y-71040077D01*
X129478083Y-71040077D01*
X129137990Y-71120680D01*
X129137987Y-71120681D01*
X128809547Y-71240223D01*
X128809541Y-71240226D01*
X128497203Y-71397088D01*
X128205194Y-71589146D01*
X128205186Y-71589152D01*
X127937442Y-71813817D01*
X127937440Y-71813819D01*
X127697589Y-72068044D01*
X127697584Y-72068050D01*
X127488870Y-72348402D01*
X127314113Y-72651091D01*
X127314107Y-72651104D01*
X127175674Y-72972027D01*
X127075430Y-73306865D01*
X127075428Y-73306872D01*
X127014739Y-73651061D01*
X127014738Y-73651072D01*
X126994415Y-73999996D01*
X103303621Y-73999996D01*
X103299208Y-73993391D01*
X103278330Y-73926713D01*
X103296815Y-73859333D01*
X103348793Y-73812643D01*
X103402310Y-73800500D01*
X104671963Y-73800500D01*
X104671963Y-73800499D01*
X104710226Y-73789263D01*
X104733902Y-73782312D01*
X104736681Y-73781531D01*
X104793186Y-73766392D01*
X104793189Y-73766389D01*
X104799367Y-73763832D01*
X104808996Y-73760434D01*
X104810045Y-73759955D01*
X104810053Y-73759953D01*
X104858087Y-73729082D01*
X104863102Y-73726025D01*
X104907314Y-73700500D01*
X104907321Y-73700492D01*
X104911828Y-73697035D01*
X104927067Y-73684752D01*
X104931128Y-73682143D01*
X104963653Y-73644605D01*
X104969673Y-73638140D01*
X104969677Y-73638136D01*
X105000500Y-73607314D01*
X105003628Y-73601894D01*
X105017306Y-73582687D01*
X105025377Y-73573373D01*
X105042912Y-73534974D01*
X105048311Y-73524502D01*
X105066392Y-73493186D01*
X105069952Y-73479898D01*
X105076934Y-73460479D01*
X105085164Y-73442459D01*
X105085163Y-73442459D01*
X105085165Y-73442457D01*
X105090111Y-73408053D01*
X105093074Y-73393606D01*
X105094263Y-73389165D01*
X105100500Y-73365892D01*
X105100500Y-73344667D01*
X105101762Y-73327020D01*
X105105647Y-73299999D01*
X105101762Y-73272977D01*
X105100500Y-73255331D01*
X105100500Y-73234110D01*
X105100500Y-73234108D01*
X105093073Y-73206390D01*
X105090111Y-73191946D01*
X105085165Y-73157545D01*
X105085165Y-73157543D01*
X105076928Y-73139509D01*
X105069949Y-73120091D01*
X105066392Y-73106814D01*
X105048316Y-73075506D01*
X105042911Y-73065020D01*
X105025380Y-73026633D01*
X105025379Y-73026631D01*
X105025377Y-73026627D01*
X105025372Y-73026621D01*
X105017306Y-73017312D01*
X105003628Y-72998104D01*
X105000499Y-72992685D01*
X104969677Y-72961863D01*
X104963659Y-72955401D01*
X104931128Y-72917857D01*
X104931125Y-72917854D01*
X104927066Y-72915246D01*
X104911793Y-72902937D01*
X104907318Y-72899504D01*
X104907314Y-72899500D01*
X104895404Y-72892623D01*
X104863121Y-72873984D01*
X104858085Y-72870915D01*
X104857879Y-72870782D01*
X104810053Y-72840047D01*
X104810051Y-72840046D01*
X104810049Y-72840045D01*
X104809004Y-72839567D01*
X104799375Y-72836171D01*
X104793192Y-72833610D01*
X104793187Y-72833608D01*
X104793186Y-72833608D01*
X104736701Y-72818473D01*
X104733862Y-72817675D01*
X104671963Y-72799500D01*
X104671961Y-72799500D01*
X104665892Y-72799500D01*
X103772644Y-72799500D01*
X103705605Y-72779815D01*
X103659850Y-72727011D01*
X103649906Y-72657853D01*
X103672326Y-72602615D01*
X103708565Y-72552734D01*
X103790747Y-72391447D01*
X103790748Y-72391444D01*
X103846682Y-72219293D01*
X103875000Y-72040506D01*
X103875000Y-71950000D01*
X103075000Y-71950000D01*
X103075000Y-71450000D01*
X103875000Y-71450000D01*
X103875000Y-71359493D01*
X103846682Y-71180706D01*
X103790748Y-71008555D01*
X103790747Y-71008552D01*
X103708565Y-70847265D01*
X103602176Y-70700830D01*
X103474175Y-70572829D01*
X103408094Y-70524819D01*
X103365428Y-70469489D01*
X103359449Y-70399876D01*
X103392054Y-70338080D01*
X103452893Y-70303723D01*
X103480979Y-70300500D01*
X131952405Y-70300500D01*
X131996519Y-70300500D01*
X132003472Y-70300695D01*
X132295306Y-70317084D01*
X132309103Y-70318638D01*
X132593827Y-70367015D01*
X132607382Y-70370108D01*
X132710707Y-70399876D01*
X132884899Y-70450060D01*
X132898025Y-70454653D01*
X133164841Y-70565172D01*
X133177355Y-70571198D01*
X133343444Y-70662992D01*
X133430125Y-70710899D01*
X133441899Y-70718297D01*
X133677430Y-70885415D01*
X133688302Y-70894085D01*
X133851667Y-71040077D01*
X133903642Y-71086524D01*
X133913473Y-71096355D01*
X133935211Y-71120680D01*
X134105914Y-71311697D01*
X134114584Y-71322569D01*
X134281702Y-71558100D01*
X134289100Y-71569874D01*
X134428797Y-71822637D01*
X134434830Y-71835165D01*
X134545346Y-72101975D01*
X134549939Y-72115100D01*
X134629890Y-72392615D01*
X134632984Y-72406172D01*
X134681359Y-72690885D01*
X134682916Y-72704703D01*
X134699305Y-72996527D01*
X134699500Y-73003480D01*
X134699500Y-122876000D01*
X134679815Y-122943039D01*
X134627011Y-122988794D01*
X134575500Y-123000000D01*
X115804292Y-123000000D01*
X115737253Y-122980315D01*
X115713176Y-122960107D01*
X114310075Y-121440081D01*
X109750000Y-116500000D01*
X109749999Y-116500000D01*
X92749999Y-116500000D01*
X86036319Y-123213681D01*
X85974996Y-123247166D01*
X85948638Y-123250000D01*
X62924500Y-123250000D01*
X62857461Y-123230315D01*
X62811706Y-123177511D01*
X62800500Y-123126000D01*
X62800500Y-109930000D01*
X64674417Y-109930000D01*
X64694699Y-110135932D01*
X64694700Y-110135934D01*
X64754768Y-110333954D01*
X64852315Y-110516450D01*
X64852317Y-110516452D01*
X64983589Y-110676410D01*
X65080209Y-110755702D01*
X65143550Y-110807685D01*
X65326046Y-110905232D01*
X65524066Y-110965300D01*
X65524065Y-110965300D01*
X65542529Y-110967118D01*
X65730000Y-110985583D01*
X65935934Y-110965300D01*
X66133954Y-110905232D01*
X66316450Y-110807685D01*
X66476410Y-110676410D01*
X66607685Y-110516450D01*
X66705232Y-110333954D01*
X66765300Y-110135934D01*
X66785583Y-109930000D01*
X66765300Y-109724066D01*
X66705232Y-109526046D01*
X66607685Y-109343550D01*
X66531118Y-109250252D01*
X66531114Y-109250247D01*
X130849500Y-109250247D01*
X130849500Y-110989752D01*
X130861131Y-111048229D01*
X130861132Y-111048230D01*
X130905447Y-111114552D01*
X130971769Y-111158867D01*
X130971770Y-111158868D01*
X131030247Y-111170499D01*
X131030250Y-111170500D01*
X131030252Y-111170500D01*
X132769750Y-111170500D01*
X132769751Y-111170499D01*
X132784568Y-111167552D01*
X132828229Y-111158868D01*
X132828229Y-111158867D01*
X132828231Y-111158867D01*
X132894552Y-111114552D01*
X132938867Y-111048231D01*
X132938867Y-111048229D01*
X132938868Y-111048229D01*
X132950499Y-110989752D01*
X132950500Y-110989750D01*
X132950500Y-109250249D01*
X132950499Y-109250247D01*
X132938868Y-109191770D01*
X132938867Y-109191769D01*
X132894552Y-109125447D01*
X132828230Y-109081132D01*
X132828229Y-109081131D01*
X132769752Y-109069500D01*
X132769748Y-109069500D01*
X131030252Y-109069500D01*
X131030247Y-109069500D01*
X130971770Y-109081131D01*
X130971769Y-109081132D01*
X130905447Y-109125447D01*
X130861132Y-109191769D01*
X130861131Y-109191770D01*
X130849500Y-109250247D01*
X66531114Y-109250247D01*
X66476410Y-109183589D01*
X66316452Y-109052317D01*
X66316453Y-109052317D01*
X66316450Y-109052315D01*
X66133954Y-108954768D01*
X65935934Y-108894700D01*
X65935932Y-108894699D01*
X65935934Y-108894699D01*
X65730000Y-108874417D01*
X65524067Y-108894699D01*
X65326043Y-108954769D01*
X65215898Y-109013643D01*
X65143550Y-109052315D01*
X65143548Y-109052316D01*
X65143547Y-109052317D01*
X64983589Y-109183589D01*
X64852317Y-109343547D01*
X64754769Y-109526043D01*
X64694699Y-109724067D01*
X64674417Y-109930000D01*
X62800500Y-109930000D01*
X62800500Y-107390000D01*
X64674417Y-107390000D01*
X64694699Y-107595932D01*
X64694700Y-107595934D01*
X64754768Y-107793954D01*
X64852315Y-107976450D01*
X64858475Y-107983956D01*
X64983589Y-108136410D01*
X65080209Y-108215702D01*
X65143550Y-108267685D01*
X65326046Y-108365232D01*
X65524066Y-108425300D01*
X65524065Y-108425300D01*
X65542529Y-108427118D01*
X65730000Y-108445583D01*
X65935934Y-108425300D01*
X66133954Y-108365232D01*
X66316450Y-108267685D01*
X66476410Y-108136410D01*
X66607685Y-107976450D01*
X66705232Y-107793954D01*
X66765300Y-107595934D01*
X66766869Y-107580000D01*
X130844417Y-107580000D01*
X130864699Y-107785932D01*
X130867133Y-107793956D01*
X130924768Y-107983954D01*
X131022315Y-108166450D01*
X131022317Y-108166452D01*
X131153589Y-108326410D01*
X131200895Y-108365232D01*
X131313550Y-108457685D01*
X131496046Y-108555232D01*
X131694066Y-108615300D01*
X131694065Y-108615300D01*
X131712529Y-108617118D01*
X131900000Y-108635583D01*
X132105934Y-108615300D01*
X132303954Y-108555232D01*
X132486450Y-108457685D01*
X132646410Y-108326410D01*
X132777685Y-108166450D01*
X132875232Y-107983954D01*
X132935300Y-107785934D01*
X132955583Y-107580000D01*
X132935300Y-107374066D01*
X132875232Y-107176046D01*
X132777685Y-106993550D01*
X132725702Y-106930209D01*
X132646410Y-106833589D01*
X132486452Y-106702317D01*
X132486453Y-106702317D01*
X132486450Y-106702315D01*
X132303954Y-106604768D01*
X132105934Y-106544700D01*
X132105932Y-106544699D01*
X132105934Y-106544699D01*
X131900000Y-106524417D01*
X131694067Y-106544699D01*
X131496043Y-106604769D01*
X131385898Y-106663643D01*
X131313550Y-106702315D01*
X131313548Y-106702316D01*
X131313547Y-106702317D01*
X131153589Y-106833589D01*
X131022317Y-106993547D01*
X130924769Y-107176043D01*
X130864699Y-107374067D01*
X130844417Y-107580000D01*
X66766869Y-107580000D01*
X66785583Y-107390000D01*
X66765300Y-107184066D01*
X66705232Y-106986046D01*
X66607685Y-106803550D01*
X66524604Y-106702315D01*
X66476410Y-106643589D01*
X66316452Y-106512317D01*
X66316453Y-106512317D01*
X66316450Y-106512315D01*
X66133954Y-106414768D01*
X65935934Y-106354700D01*
X65935932Y-106354699D01*
X65935934Y-106354699D01*
X65730000Y-106334417D01*
X65524067Y-106354699D01*
X65326043Y-106414769D01*
X65215898Y-106473643D01*
X65143550Y-106512315D01*
X65143548Y-106512316D01*
X65143547Y-106512317D01*
X64983589Y-106643589D01*
X64852317Y-106803547D01*
X64754769Y-106986043D01*
X64694699Y-107184067D01*
X64674417Y-107390000D01*
X62800500Y-107390000D01*
X62800500Y-104850000D01*
X64674417Y-104850000D01*
X64694699Y-105055932D01*
X64694700Y-105055934D01*
X64754768Y-105253954D01*
X64852315Y-105436450D01*
X64858475Y-105443956D01*
X64983589Y-105596410D01*
X65080209Y-105675702D01*
X65143550Y-105727685D01*
X65326046Y-105825232D01*
X65524066Y-105885300D01*
X65524065Y-105885300D01*
X65542529Y-105887118D01*
X65730000Y-105905583D01*
X65935934Y-105885300D01*
X66133954Y-105825232D01*
X66316450Y-105727685D01*
X66476410Y-105596410D01*
X66607685Y-105436450D01*
X66705232Y-105253954D01*
X66765300Y-105055934D01*
X66766869Y-105040000D01*
X130844417Y-105040000D01*
X130864699Y-105245932D01*
X130867133Y-105253956D01*
X130924768Y-105443954D01*
X131022315Y-105626450D01*
X131022317Y-105626452D01*
X131153589Y-105786410D01*
X131200895Y-105825232D01*
X131313550Y-105917685D01*
X131496046Y-106015232D01*
X131694066Y-106075300D01*
X131694065Y-106075300D01*
X131712529Y-106077118D01*
X131900000Y-106095583D01*
X132105934Y-106075300D01*
X132303954Y-106015232D01*
X132486450Y-105917685D01*
X132646410Y-105786410D01*
X132777685Y-105626450D01*
X132875232Y-105443954D01*
X132935300Y-105245934D01*
X132955583Y-105040000D01*
X132935300Y-104834066D01*
X132875232Y-104636046D01*
X132777685Y-104453550D01*
X132698895Y-104357543D01*
X132646410Y-104293589D01*
X132486452Y-104162317D01*
X132486453Y-104162317D01*
X132486450Y-104162315D01*
X132303954Y-104064768D01*
X132105934Y-104004700D01*
X132105932Y-104004699D01*
X132105934Y-104004699D01*
X131900000Y-103984417D01*
X131694067Y-104004699D01*
X131496043Y-104064769D01*
X131396726Y-104117856D01*
X131313550Y-104162315D01*
X131313548Y-104162316D01*
X131313547Y-104162317D01*
X131153589Y-104293589D01*
X131022317Y-104453547D01*
X130924769Y-104636043D01*
X130924768Y-104636045D01*
X130924768Y-104636046D01*
X130922824Y-104642456D01*
X130864699Y-104834067D01*
X130844417Y-105040000D01*
X66766869Y-105040000D01*
X66785583Y-104850000D01*
X66765300Y-104644066D01*
X66705232Y-104446046D01*
X66607685Y-104263550D01*
X66488118Y-104117856D01*
X66476410Y-104103589D01*
X66331196Y-103984417D01*
X66316450Y-103972315D01*
X66133954Y-103874768D01*
X65935934Y-103814700D01*
X65935932Y-103814699D01*
X65935934Y-103814699D01*
X65730000Y-103794417D01*
X65524067Y-103814699D01*
X65326043Y-103874769D01*
X65233740Y-103924107D01*
X65143550Y-103972315D01*
X65143548Y-103972316D01*
X65143547Y-103972317D01*
X64983589Y-104103589D01*
X64852317Y-104263547D01*
X64754769Y-104446043D01*
X64694699Y-104644067D01*
X64674417Y-104850000D01*
X62800500Y-104850000D01*
X62800500Y-102310000D01*
X64674417Y-102310000D01*
X64694699Y-102515932D01*
X64694700Y-102515934D01*
X64754768Y-102713954D01*
X64852315Y-102896450D01*
X64858475Y-102903956D01*
X64983589Y-103056410D01*
X65080209Y-103135702D01*
X65143550Y-103187685D01*
X65326046Y-103285232D01*
X65524066Y-103345300D01*
X65524065Y-103345300D01*
X65542529Y-103347118D01*
X65730000Y-103365583D01*
X65935934Y-103345300D01*
X66133954Y-103285232D01*
X66316450Y-103187685D01*
X66476410Y-103056410D01*
X66607685Y-102896450D01*
X66705232Y-102713954D01*
X66765300Y-102515934D01*
X66785583Y-102310000D01*
X66765300Y-102104066D01*
X66764067Y-102100000D01*
X100094323Y-102100000D01*
X100114804Y-102242456D01*
X100178277Y-102381440D01*
X100174708Y-102383069D01*
X100189496Y-102432001D01*
X100189500Y-102432978D01*
X100189500Y-104037273D01*
X100189500Y-104142727D01*
X100194749Y-104162317D01*
X100216793Y-104244589D01*
X100245084Y-104293589D01*
X100269520Y-104335913D01*
X100475370Y-104541762D01*
X100508854Y-104603083D01*
X100510426Y-104611794D01*
X100514834Y-104642453D01*
X100514835Y-104642458D01*
X100515570Y-104644067D01*
X100574623Y-104773373D01*
X100668872Y-104882143D01*
X100789947Y-104959953D01*
X100789950Y-104959954D01*
X100789949Y-104959954D01*
X100928036Y-105000499D01*
X100928038Y-105000500D01*
X100928039Y-105000500D01*
X101071962Y-105000500D01*
X101071962Y-105000499D01*
X101210053Y-104959953D01*
X101331128Y-104882143D01*
X101425377Y-104773373D01*
X101485165Y-104642457D01*
X101505647Y-104500000D01*
X101485165Y-104357543D01*
X101425377Y-104226627D01*
X101331128Y-104117857D01*
X101296581Y-104095655D01*
X101210051Y-104040045D01*
X101093736Y-104005893D01*
X101040990Y-103974597D01*
X101026819Y-103960426D01*
X100993334Y-103899103D01*
X100990500Y-103872745D01*
X100990500Y-102500000D01*
X130844417Y-102500000D01*
X130864699Y-102705932D01*
X130867133Y-102713956D01*
X130924768Y-102903954D01*
X131022315Y-103086450D01*
X131022317Y-103086452D01*
X131153589Y-103246410D01*
X131200895Y-103285232D01*
X131313550Y-103377685D01*
X131496046Y-103475232D01*
X131694066Y-103535300D01*
X131694065Y-103535300D01*
X131712529Y-103537118D01*
X131900000Y-103555583D01*
X132105934Y-103535300D01*
X132303954Y-103475232D01*
X132486450Y-103377685D01*
X132646410Y-103246410D01*
X132777685Y-103086450D01*
X132875232Y-102903954D01*
X132935300Y-102705934D01*
X132955583Y-102500000D01*
X132935300Y-102294066D01*
X132875232Y-102096046D01*
X132777685Y-101913550D01*
X132725702Y-101850209D01*
X132646410Y-101753589D01*
X132528677Y-101656969D01*
X132486450Y-101622315D01*
X132303954Y-101524768D01*
X132105934Y-101464700D01*
X132105932Y-101464699D01*
X132105934Y-101464699D01*
X131900000Y-101444417D01*
X131694067Y-101464699D01*
X131496043Y-101524769D01*
X131385898Y-101583643D01*
X131313550Y-101622315D01*
X131313548Y-101622316D01*
X131313547Y-101622317D01*
X131153589Y-101753589D01*
X131022317Y-101913547D01*
X130924769Y-102096043D01*
X130864699Y-102294067D01*
X130844417Y-102500000D01*
X100990500Y-102500000D01*
X100990500Y-102459837D01*
X101010185Y-102392798D01*
X101020786Y-102378636D01*
X101025347Y-102373373D01*
X101085135Y-102242457D01*
X101105617Y-102100000D01*
X101085135Y-101957543D01*
X101025347Y-101826627D01*
X100931098Y-101717857D01*
X100810023Y-101640047D01*
X100810021Y-101640046D01*
X100810019Y-101640045D01*
X100810020Y-101640045D01*
X100671933Y-101599500D01*
X100671931Y-101599500D01*
X100528009Y-101599500D01*
X100528006Y-101599500D01*
X100389919Y-101640045D01*
X100268843Y-101717856D01*
X100174593Y-101826626D01*
X100174592Y-101826628D01*
X100114804Y-101957543D01*
X100094323Y-102100000D01*
X66764067Y-102100000D01*
X66705232Y-101906046D01*
X66607685Y-101723550D01*
X66524604Y-101622315D01*
X66476410Y-101563589D01*
X66316452Y-101432317D01*
X66316453Y-101432317D01*
X66316450Y-101432315D01*
X66133954Y-101334768D01*
X65935934Y-101274700D01*
X65935932Y-101274699D01*
X65935934Y-101274699D01*
X65730000Y-101254417D01*
X65524067Y-101274699D01*
X65326043Y-101334769D01*
X65215898Y-101393643D01*
X65143550Y-101432315D01*
X65143548Y-101432316D01*
X65143547Y-101432317D01*
X64983589Y-101563589D01*
X64852317Y-101723547D01*
X64754769Y-101906043D01*
X64694699Y-102104067D01*
X64674417Y-102310000D01*
X62800500Y-102310000D01*
X62800500Y-99770000D01*
X64674417Y-99770000D01*
X64694699Y-99975932D01*
X64694700Y-99975934D01*
X64754768Y-100173954D01*
X64852315Y-100356450D01*
X64858475Y-100363956D01*
X64983589Y-100516410D01*
X65080209Y-100595702D01*
X65143550Y-100647685D01*
X65326046Y-100745232D01*
X65524066Y-100805300D01*
X65524065Y-100805300D01*
X65542529Y-100807118D01*
X65730000Y-100825583D01*
X65935934Y-100805300D01*
X66133954Y-100745232D01*
X66316450Y-100647685D01*
X66476410Y-100516410D01*
X66607685Y-100356450D01*
X66705232Y-100173954D01*
X66765300Y-99975934D01*
X66766869Y-99960000D01*
X130844417Y-99960000D01*
X130864699Y-100165932D01*
X130867133Y-100173956D01*
X130924768Y-100363954D01*
X131022315Y-100546450D01*
X131022317Y-100546452D01*
X131153589Y-100706410D01*
X131200895Y-100745232D01*
X131313550Y-100837685D01*
X131496046Y-100935232D01*
X131694066Y-100995300D01*
X131694065Y-100995300D01*
X131712529Y-100997118D01*
X131900000Y-101015583D01*
X132105934Y-100995300D01*
X132303954Y-100935232D01*
X132486450Y-100837685D01*
X132646410Y-100706410D01*
X132777685Y-100546450D01*
X132875232Y-100363954D01*
X132935300Y-100165934D01*
X132955583Y-99960000D01*
X132935300Y-99754066D01*
X132875232Y-99556046D01*
X132777685Y-99373550D01*
X132725702Y-99310209D01*
X132646410Y-99213589D01*
X132486452Y-99082317D01*
X132486453Y-99082317D01*
X132486450Y-99082315D01*
X132303954Y-98984768D01*
X132105934Y-98924700D01*
X132105932Y-98924699D01*
X132105934Y-98924699D01*
X131900000Y-98904417D01*
X131694067Y-98924699D01*
X131496043Y-98984769D01*
X131385898Y-99043643D01*
X131313550Y-99082315D01*
X131313548Y-99082316D01*
X131313547Y-99082317D01*
X131153589Y-99213589D01*
X131022317Y-99373547D01*
X130924769Y-99556043D01*
X130864699Y-99754067D01*
X130844417Y-99960000D01*
X66766869Y-99960000D01*
X66785583Y-99770000D01*
X66765300Y-99564066D01*
X66705232Y-99366046D01*
X66607685Y-99183550D01*
X66524604Y-99082315D01*
X66476410Y-99023589D01*
X66316452Y-98892317D01*
X66316453Y-98892317D01*
X66316450Y-98892315D01*
X66133954Y-98794768D01*
X65935934Y-98734700D01*
X65935932Y-98734699D01*
X65935934Y-98734699D01*
X65730000Y-98714417D01*
X65524067Y-98734699D01*
X65326043Y-98794769D01*
X65215898Y-98853643D01*
X65143550Y-98892315D01*
X65143548Y-98892316D01*
X65143547Y-98892317D01*
X64983589Y-99023589D01*
X64852317Y-99183547D01*
X64754769Y-99366043D01*
X64694699Y-99564067D01*
X64674417Y-99770000D01*
X62800500Y-99770000D01*
X62800500Y-96360247D01*
X64679500Y-96360247D01*
X64679500Y-98099752D01*
X64691131Y-98158229D01*
X64691132Y-98158230D01*
X64735447Y-98224552D01*
X64801769Y-98268867D01*
X64801770Y-98268868D01*
X64860247Y-98280499D01*
X64860250Y-98280500D01*
X64860252Y-98280500D01*
X66599750Y-98280500D01*
X66599751Y-98280499D01*
X66614568Y-98277552D01*
X66658229Y-98268868D01*
X66658229Y-98268867D01*
X66658231Y-98268867D01*
X66724552Y-98224552D01*
X66768867Y-98158231D01*
X66768867Y-98158229D01*
X66768868Y-98158229D01*
X66780499Y-98099752D01*
X66780500Y-98099750D01*
X66780500Y-96360249D01*
X66780499Y-96360247D01*
X66768868Y-96301770D01*
X66768867Y-96301769D01*
X66724552Y-96235447D01*
X66658230Y-96191132D01*
X66658229Y-96191131D01*
X66599752Y-96179500D01*
X66599748Y-96179500D01*
X64860252Y-96179500D01*
X64860247Y-96179500D01*
X64801770Y-96191131D01*
X64801769Y-96191132D01*
X64735447Y-96235447D01*
X64691132Y-96301769D01*
X64691131Y-96301770D01*
X64679500Y-96360247D01*
X62800500Y-96360247D01*
X62800500Y-95199994D01*
X99294353Y-95199994D01*
X99314834Y-95342450D01*
X99354123Y-95428479D01*
X99374623Y-95473367D01*
X99374627Y-95473372D01*
X99379418Y-95480827D01*
X99376364Y-95482789D01*
X99398235Y-95530657D01*
X99399500Y-95548326D01*
X99399500Y-97062726D01*
X99426793Y-97164589D01*
X99453156Y-97210250D01*
X99479520Y-97255913D01*
X99479522Y-97255915D01*
X100177048Y-97953441D01*
X100210533Y-98014764D01*
X100212105Y-98023472D01*
X100214834Y-98042454D01*
X100214835Y-98042456D01*
X100214835Y-98042457D01*
X100274623Y-98173373D01*
X100368872Y-98282143D01*
X100489947Y-98359953D01*
X100489950Y-98359954D01*
X100489949Y-98359954D01*
X100628036Y-98400499D01*
X100628038Y-98400500D01*
X100628039Y-98400500D01*
X100771962Y-98400500D01*
X100771962Y-98400499D01*
X100910053Y-98359953D01*
X101031128Y-98282143D01*
X101125377Y-98173373D01*
X101185165Y-98042457D01*
X101205647Y-97900000D01*
X101185165Y-97757543D01*
X101125377Y-97626627D01*
X101031128Y-97517857D01*
X100996581Y-97495655D01*
X100910051Y-97440045D01*
X100841782Y-97420000D01*
X130844417Y-97420000D01*
X130864699Y-97625932D01*
X130894734Y-97724944D01*
X130924768Y-97823954D01*
X131022315Y-98006450D01*
X131022317Y-98006452D01*
X131153589Y-98166410D01*
X131250209Y-98245702D01*
X131313550Y-98297685D01*
X131496046Y-98395232D01*
X131694066Y-98455300D01*
X131694065Y-98455300D01*
X131712529Y-98457118D01*
X131900000Y-98475583D01*
X132105934Y-98455300D01*
X132303954Y-98395232D01*
X132486450Y-98297685D01*
X132646410Y-98166410D01*
X132777685Y-98006450D01*
X132875232Y-97823954D01*
X132935300Y-97625934D01*
X132955583Y-97420000D01*
X132935300Y-97214066D01*
X132875232Y-97016046D01*
X132777685Y-96833550D01*
X132725702Y-96770209D01*
X132646410Y-96673589D01*
X132486452Y-96542317D01*
X132486453Y-96542317D01*
X132486450Y-96542315D01*
X132303954Y-96444768D01*
X132105934Y-96384700D01*
X132105932Y-96384699D01*
X132105934Y-96384699D01*
X131900000Y-96364417D01*
X131694067Y-96384699D01*
X131496043Y-96444769D01*
X131385898Y-96503643D01*
X131313550Y-96542315D01*
X131313548Y-96542316D01*
X131313547Y-96542317D01*
X131153589Y-96673589D01*
X131022317Y-96833547D01*
X130924769Y-97016043D01*
X130864699Y-97214067D01*
X130844417Y-97420000D01*
X100841782Y-97420000D01*
X100779579Y-97401736D01*
X100726833Y-97370440D01*
X100236819Y-96880426D01*
X100203334Y-96819103D01*
X100200500Y-96792745D01*
X100200500Y-95548326D01*
X100220185Y-95481287D01*
X100220901Y-95480330D01*
X100225368Y-95473376D01*
X100225377Y-95473367D01*
X100285165Y-95342451D01*
X100305647Y-95199994D01*
X100285165Y-95057537D01*
X100225377Y-94926621D01*
X100184980Y-94880000D01*
X130844417Y-94880000D01*
X130864699Y-95085932D01*
X130864700Y-95085934D01*
X130924768Y-95283954D01*
X131022315Y-95466450D01*
X131035724Y-95482789D01*
X131153589Y-95626410D01*
X131250209Y-95705702D01*
X131313550Y-95757685D01*
X131496046Y-95855232D01*
X131694066Y-95915300D01*
X131694065Y-95915300D01*
X131712529Y-95917118D01*
X131900000Y-95935583D01*
X132105934Y-95915300D01*
X132303954Y-95855232D01*
X132486450Y-95757685D01*
X132646410Y-95626410D01*
X132777685Y-95466450D01*
X132875232Y-95283954D01*
X132935300Y-95085934D01*
X132955583Y-94880000D01*
X132935300Y-94674066D01*
X132875232Y-94476046D01*
X132777685Y-94293550D01*
X132725702Y-94230209D01*
X132646410Y-94133589D01*
X132486452Y-94002317D01*
X132486453Y-94002317D01*
X132486450Y-94002315D01*
X132303954Y-93904768D01*
X132105934Y-93844700D01*
X132105932Y-93844699D01*
X132105934Y-93844699D01*
X131900000Y-93824417D01*
X131694067Y-93844699D01*
X131496043Y-93904769D01*
X131385898Y-93963643D01*
X131313550Y-94002315D01*
X131313548Y-94002316D01*
X131313547Y-94002317D01*
X131153589Y-94133589D01*
X131022317Y-94293547D01*
X130924769Y-94476043D01*
X130864699Y-94674067D01*
X130844417Y-94880000D01*
X100184980Y-94880000D01*
X100131128Y-94817851D01*
X100010053Y-94740041D01*
X100010051Y-94740040D01*
X100010049Y-94740039D01*
X100010050Y-94740039D01*
X99871963Y-94699494D01*
X99871961Y-94699494D01*
X99728039Y-94699494D01*
X99728036Y-94699494D01*
X99589949Y-94740039D01*
X99468873Y-94817850D01*
X99374623Y-94926620D01*
X99374622Y-94926622D01*
X99314834Y-95057537D01*
X99294353Y-95199994D01*
X62800500Y-95199994D01*
X62800500Y-91250000D01*
X69171522Y-91250000D01*
X70649999Y-91250000D01*
X70624979Y-91310402D01*
X70600000Y-91435981D01*
X70600000Y-91564019D01*
X70624979Y-91689598D01*
X70649999Y-91750000D01*
X69171522Y-91750000D01*
X69185704Y-91839544D01*
X69256230Y-92056604D01*
X69359849Y-92259966D01*
X69494004Y-92444614D01*
X69655385Y-92605995D01*
X69840033Y-92740150D01*
X70043395Y-92843769D01*
X70260455Y-92914295D01*
X70485884Y-92950000D01*
X71000000Y-92950000D01*
X71000000Y-92100001D01*
X71060402Y-92125021D01*
X71185981Y-92150000D01*
X71314019Y-92150000D01*
X71439598Y-92125021D01*
X71500000Y-92100001D01*
X71500000Y-92950000D01*
X72014116Y-92950000D01*
X72239544Y-92914295D01*
X72456604Y-92843769D01*
X72659966Y-92740150D01*
X72844614Y-92605995D01*
X73005995Y-92444614D01*
X73140150Y-92259966D01*
X73243769Y-92056604D01*
X73314295Y-91839544D01*
X73328478Y-91750000D01*
X71850001Y-91750000D01*
X71875021Y-91689598D01*
X71900000Y-91564019D01*
X71900000Y-91435981D01*
X71875021Y-91310402D01*
X71850001Y-91250000D01*
X73328478Y-91250000D01*
X81671522Y-91250000D01*
X83149999Y-91250000D01*
X83124979Y-91310402D01*
X83100000Y-91435981D01*
X83100000Y-91564019D01*
X83124979Y-91689598D01*
X83149999Y-91750000D01*
X81671522Y-91750000D01*
X81685704Y-91839544D01*
X81756230Y-92056604D01*
X81859849Y-92259966D01*
X81994004Y-92444614D01*
X82155385Y-92605995D01*
X82340033Y-92740150D01*
X82543395Y-92843769D01*
X82760455Y-92914295D01*
X82985884Y-92950000D01*
X83500000Y-92950000D01*
X83500000Y-92100001D01*
X83560402Y-92125021D01*
X83685981Y-92150000D01*
X83814019Y-92150000D01*
X83939598Y-92125021D01*
X84000000Y-92100001D01*
X84000000Y-92950000D01*
X84514116Y-92950000D01*
X84739544Y-92914295D01*
X84956604Y-92843769D01*
X85159966Y-92740150D01*
X85344614Y-92605995D01*
X85505995Y-92444614D01*
X85640150Y-92259966D01*
X85743769Y-92056604D01*
X85814295Y-91839544D01*
X85828478Y-91750000D01*
X84350001Y-91750000D01*
X84375021Y-91689598D01*
X84400000Y-91564019D01*
X84400000Y-91435981D01*
X84375021Y-91310402D01*
X84350001Y-91250000D01*
X85828478Y-91250000D01*
X85814295Y-91160455D01*
X85743769Y-90943395D01*
X85640150Y-90740033D01*
X85505995Y-90555385D01*
X85344614Y-90394004D01*
X85159966Y-90259849D01*
X84956604Y-90156230D01*
X84739544Y-90085704D01*
X84514116Y-90050000D01*
X84000000Y-90050000D01*
X84000000Y-90899998D01*
X83939598Y-90874979D01*
X83814019Y-90850000D01*
X83685981Y-90850000D01*
X83560402Y-90874979D01*
X83500000Y-90899998D01*
X83500000Y-90050000D01*
X82985884Y-90050000D01*
X82760455Y-90085704D01*
X82543395Y-90156230D01*
X82340033Y-90259849D01*
X82155385Y-90394004D01*
X81994004Y-90555385D01*
X81859849Y-90740033D01*
X81756230Y-90943395D01*
X81685704Y-91160455D01*
X81671522Y-91250000D01*
X73328478Y-91250000D01*
X73314295Y-91160455D01*
X73243769Y-90943395D01*
X73140150Y-90740033D01*
X73005995Y-90555385D01*
X72844614Y-90394004D01*
X72659966Y-90259849D01*
X72456604Y-90156230D01*
X72239544Y-90085704D01*
X72014116Y-90050000D01*
X71500000Y-90050000D01*
X71500000Y-90899998D01*
X71439598Y-90874979D01*
X71314019Y-90850000D01*
X71185981Y-90850000D01*
X71060402Y-90874979D01*
X71000000Y-90899998D01*
X71000000Y-90050000D01*
X70485884Y-90050000D01*
X70260455Y-90085704D01*
X70043395Y-90156230D01*
X69840033Y-90259849D01*
X69655385Y-90394004D01*
X69494004Y-90555385D01*
X69359849Y-90740033D01*
X69256230Y-90943395D01*
X69185704Y-91160455D01*
X69171522Y-91250000D01*
X62800500Y-91250000D01*
X62800500Y-86409448D01*
X69449500Y-86409448D01*
X69449500Y-86590551D01*
X69477829Y-86769410D01*
X69533787Y-86941636D01*
X69533788Y-86941639D01*
X69616006Y-87102997D01*
X69722441Y-87249494D01*
X69722445Y-87249499D01*
X69850500Y-87377554D01*
X69850505Y-87377558D01*
X69978287Y-87470396D01*
X69997006Y-87483996D01*
X70102484Y-87537740D01*
X70158360Y-87566211D01*
X70158363Y-87566212D01*
X70244476Y-87594191D01*
X70330591Y-87622171D01*
X70413429Y-87635291D01*
X70509449Y-87650500D01*
X70509454Y-87650500D01*
X71990551Y-87650500D01*
X72077259Y-87636765D01*
X72169409Y-87622171D01*
X72341639Y-87566211D01*
X72502994Y-87483996D01*
X72649501Y-87377553D01*
X72777553Y-87249501D01*
X72883996Y-87102994D01*
X72966211Y-86941639D01*
X73022171Y-86769409D01*
X73036765Y-86677259D01*
X73050500Y-86590551D01*
X73050500Y-86409448D01*
X81949500Y-86409448D01*
X81949500Y-86590551D01*
X81977829Y-86769410D01*
X82033787Y-86941636D01*
X82033788Y-86941639D01*
X82116006Y-87102997D01*
X82222441Y-87249494D01*
X82222445Y-87249499D01*
X82350500Y-87377554D01*
X82350505Y-87377558D01*
X82478287Y-87470396D01*
X82497006Y-87483996D01*
X82602484Y-87537740D01*
X82658360Y-87566211D01*
X82658363Y-87566212D01*
X82744476Y-87594191D01*
X82830591Y-87622171D01*
X82913429Y-87635291D01*
X83009449Y-87650500D01*
X83009454Y-87650500D01*
X84490551Y-87650500D01*
X84577259Y-87636765D01*
X84669409Y-87622171D01*
X84841639Y-87566211D01*
X85002994Y-87483996D01*
X85149501Y-87377553D01*
X85277553Y-87249501D01*
X85383996Y-87102994D01*
X85466211Y-86941639D01*
X85522171Y-86769409D01*
X85536765Y-86677259D01*
X85550500Y-86590551D01*
X85550500Y-86409448D01*
X85534019Y-86305397D01*
X85522171Y-86230591D01*
X85466211Y-86058361D01*
X85466211Y-86058360D01*
X85437740Y-86002484D01*
X85383996Y-85897006D01*
X85370396Y-85878287D01*
X85277558Y-85750505D01*
X85277554Y-85750500D01*
X85149499Y-85622445D01*
X85149494Y-85622441D01*
X85002997Y-85516006D01*
X85002996Y-85516005D01*
X85002994Y-85516004D01*
X84951300Y-85489664D01*
X84841639Y-85433788D01*
X84841636Y-85433787D01*
X84669410Y-85377829D01*
X84490551Y-85349500D01*
X84490546Y-85349500D01*
X83009454Y-85349500D01*
X83009449Y-85349500D01*
X82830589Y-85377829D01*
X82658363Y-85433787D01*
X82658360Y-85433788D01*
X82497002Y-85516006D01*
X82350505Y-85622441D01*
X82350500Y-85622445D01*
X82222445Y-85750500D01*
X82222441Y-85750505D01*
X82116006Y-85897002D01*
X82033788Y-86058360D01*
X82033787Y-86058363D01*
X81977829Y-86230589D01*
X81949500Y-86409448D01*
X73050500Y-86409448D01*
X73034019Y-86305397D01*
X73022171Y-86230591D01*
X72966211Y-86058361D01*
X72966211Y-86058360D01*
X72937740Y-86002484D01*
X72883996Y-85897006D01*
X72870396Y-85878287D01*
X72777558Y-85750505D01*
X72777554Y-85750500D01*
X72649499Y-85622445D01*
X72649494Y-85622441D01*
X72502997Y-85516006D01*
X72502996Y-85516005D01*
X72502994Y-85516004D01*
X72451300Y-85489664D01*
X72341639Y-85433788D01*
X72341636Y-85433787D01*
X72169410Y-85377829D01*
X71990551Y-85349500D01*
X71990546Y-85349500D01*
X70509454Y-85349500D01*
X70509449Y-85349500D01*
X70330589Y-85377829D01*
X70158363Y-85433787D01*
X70158360Y-85433788D01*
X69997002Y-85516006D01*
X69850505Y-85622441D01*
X69850500Y-85622445D01*
X69722445Y-85750500D01*
X69722441Y-85750505D01*
X69616006Y-85897002D01*
X69533788Y-86058360D01*
X69533787Y-86058363D01*
X69477829Y-86230589D01*
X69449500Y-86409448D01*
X62800500Y-86409448D01*
X62800500Y-73999996D01*
X64494415Y-73999996D01*
X64494415Y-74000003D01*
X64514738Y-74348927D01*
X64514739Y-74348938D01*
X64575428Y-74693127D01*
X64575430Y-74693134D01*
X64675674Y-75027972D01*
X64814107Y-75348895D01*
X64814113Y-75348908D01*
X64988870Y-75651597D01*
X65197584Y-75931949D01*
X65197589Y-75931955D01*
X65321463Y-76063253D01*
X65437442Y-76186183D01*
X65613903Y-76334251D01*
X65705186Y-76410847D01*
X65705194Y-76410853D01*
X65997203Y-76602911D01*
X65997207Y-76602913D01*
X66309549Y-76759777D01*
X66637989Y-76879319D01*
X66978086Y-76959923D01*
X67325241Y-77000500D01*
X67325248Y-77000500D01*
X67674752Y-77000500D01*
X67674759Y-77000500D01*
X68021914Y-76959923D01*
X68362011Y-76879319D01*
X68690451Y-76759777D01*
X69002793Y-76602913D01*
X69294811Y-76410849D01*
X69562558Y-76186183D01*
X69802412Y-75931953D01*
X70011130Y-75651596D01*
X70185889Y-75348904D01*
X70324326Y-75027971D01*
X70424569Y-74693136D01*
X70427313Y-74677578D01*
X70485260Y-74348938D01*
X70485259Y-74348938D01*
X70485262Y-74348927D01*
X70505585Y-74000000D01*
X70491024Y-73749999D01*
X89779364Y-73749999D01*
X89779364Y-73750000D01*
X90676988Y-73750000D01*
X90644075Y-73807007D01*
X90610000Y-73934174D01*
X90610000Y-74065826D01*
X90644075Y-74192993D01*
X90676988Y-74250000D01*
X89779364Y-74250000D01*
X89836567Y-74463486D01*
X89836570Y-74463492D01*
X89936399Y-74677578D01*
X90071894Y-74871082D01*
X90238917Y-75038105D01*
X90432421Y-75173600D01*
X90602948Y-75253118D01*
X90655387Y-75299290D01*
X90674539Y-75366484D01*
X90654323Y-75433365D01*
X90601158Y-75478700D01*
X90550543Y-75489500D01*
X90240247Y-75489500D01*
X90181770Y-75501131D01*
X90181769Y-75501132D01*
X90115447Y-75545447D01*
X90071132Y-75611769D01*
X90071131Y-75611770D01*
X90059500Y-75670247D01*
X90059500Y-77409752D01*
X90071131Y-77468229D01*
X90071132Y-77468230D01*
X90115447Y-77534552D01*
X90181769Y-77578867D01*
X90181770Y-77578868D01*
X90240247Y-77590499D01*
X90240250Y-77590500D01*
X90240252Y-77590500D01*
X91979750Y-77590500D01*
X91979751Y-77590499D01*
X91994568Y-77587552D01*
X92038229Y-77578868D01*
X92038229Y-77578867D01*
X92038231Y-77578867D01*
X92104552Y-77534552D01*
X92148867Y-77468231D01*
X92148867Y-77468229D01*
X92148868Y-77468229D01*
X92160499Y-77409752D01*
X92160500Y-77409750D01*
X92160500Y-75670249D01*
X92160499Y-75670247D01*
X92148868Y-75611770D01*
X92148867Y-75611769D01*
X92104552Y-75545447D01*
X92038230Y-75501132D01*
X92038229Y-75501131D01*
X91979752Y-75489500D01*
X91979748Y-75489500D01*
X91669457Y-75489500D01*
X91602418Y-75469815D01*
X91556663Y-75417011D01*
X91546719Y-75347853D01*
X91575744Y-75284297D01*
X91617052Y-75253118D01*
X91787578Y-75173600D01*
X91981082Y-75038105D01*
X92148105Y-74871082D01*
X92283600Y-74677578D01*
X92383429Y-74463492D01*
X92383432Y-74463486D01*
X92440636Y-74250000D01*
X91543012Y-74250000D01*
X91575925Y-74192993D01*
X91610000Y-74065826D01*
X91610000Y-73934174D01*
X91575925Y-73807007D01*
X91543012Y-73750000D01*
X92440636Y-73750000D01*
X92440635Y-73749999D01*
X92383432Y-73536513D01*
X92383429Y-73536507D01*
X92283600Y-73322422D01*
X92283599Y-73322420D01*
X92148113Y-73128926D01*
X92148108Y-73128920D01*
X91981082Y-72961894D01*
X91787578Y-72826399D01*
X91573492Y-72726570D01*
X91573486Y-72726567D01*
X91360000Y-72669364D01*
X91360000Y-73566988D01*
X91302993Y-73534075D01*
X91175826Y-73500000D01*
X91044174Y-73500000D01*
X90917007Y-73534075D01*
X90860000Y-73566988D01*
X90860000Y-72669364D01*
X90859999Y-72669364D01*
X90646513Y-72726567D01*
X90646507Y-72726570D01*
X90432422Y-72826399D01*
X90432420Y-72826400D01*
X90238926Y-72961886D01*
X90238920Y-72961891D01*
X90071891Y-73128920D01*
X90071886Y-73128926D01*
X89936400Y-73322420D01*
X89936399Y-73322422D01*
X89836570Y-73536507D01*
X89836567Y-73536513D01*
X89779364Y-73749999D01*
X70491024Y-73749999D01*
X70485262Y-73651073D01*
X70477547Y-73607316D01*
X70424571Y-73306872D01*
X70424569Y-73306865D01*
X70422514Y-73300000D01*
X70324326Y-72972029D01*
X70185889Y-72651096D01*
X70011130Y-72348404D01*
X69975095Y-72300000D01*
X69802415Y-72068050D01*
X69802410Y-72068044D01*
X69686433Y-71945117D01*
X69562558Y-71813817D01*
X69414488Y-71689572D01*
X69294813Y-71589152D01*
X69294805Y-71589146D01*
X69002796Y-71397088D01*
X68690458Y-71240226D01*
X68690452Y-71240223D01*
X68362012Y-71120681D01*
X68362009Y-71120680D01*
X68021915Y-71040077D01*
X67978519Y-71035004D01*
X67674759Y-70999500D01*
X67325241Y-70999500D01*
X67021480Y-71035004D01*
X66978085Y-71040077D01*
X66978083Y-71040077D01*
X66637990Y-71120680D01*
X66637987Y-71120681D01*
X66309547Y-71240223D01*
X66309541Y-71240226D01*
X65997203Y-71397088D01*
X65705194Y-71589146D01*
X65705186Y-71589152D01*
X65437442Y-71813817D01*
X65437440Y-71813819D01*
X65197589Y-72068044D01*
X65197584Y-72068050D01*
X64988870Y-72348402D01*
X64814113Y-72651091D01*
X64814107Y-72651104D01*
X64675674Y-72972027D01*
X64575430Y-73306865D01*
X64575428Y-73306872D01*
X64514739Y-73651061D01*
X64514738Y-73651072D01*
X64494415Y-73999996D01*
X62800500Y-73999996D01*
X62800500Y-73003480D01*
X62800695Y-72996527D01*
X62802722Y-72960438D01*
X62817084Y-72704691D01*
X62818638Y-72690898D01*
X62867015Y-72406167D01*
X62870109Y-72392615D01*
X62870446Y-72391447D01*
X62950061Y-72115096D01*
X62954653Y-72101975D01*
X62961645Y-72085095D01*
X63065175Y-71835151D01*
X63071195Y-71822651D01*
X63210902Y-71569868D01*
X63218297Y-71558100D01*
X63259842Y-71499548D01*
X63385422Y-71322559D01*
X63394077Y-71311705D01*
X63586534Y-71096346D01*
X63596346Y-71086534D01*
X63811705Y-70894077D01*
X63822559Y-70885422D01*
X64058105Y-70718293D01*
X64069868Y-70710902D01*
X64322651Y-70571195D01*
X64335151Y-70565175D01*
X64601979Y-70454651D01*
X64615096Y-70450061D01*
X64892621Y-70370107D01*
X64906167Y-70367015D01*
X65190898Y-70318638D01*
X65204691Y-70317084D01*
X65496528Y-70300695D01*
X65503481Y-70300500D01*
X65547595Y-70300500D01*
X96519021Y-70300500D01*
X96586060Y-70320185D01*
G37*
G04 #@! TD.AperFunction*
G04 #@! TA.AperFunction,Conductor*
G36*
X102036060Y-70320185D02*
G01*
X102081815Y-70372989D01*
X102091759Y-70442147D01*
X102062734Y-70505703D01*
X102041906Y-70524819D01*
X101975824Y-70572829D01*
X101847823Y-70700830D01*
X101741434Y-70847265D01*
X101659252Y-71008552D01*
X101659251Y-71008555D01*
X101603317Y-71180706D01*
X101575000Y-71359493D01*
X101575000Y-71450000D01*
X102375000Y-71450000D01*
X102375000Y-71950000D01*
X101575000Y-71950000D01*
X101575000Y-72040506D01*
X101603317Y-72219293D01*
X101659251Y-72391444D01*
X101659252Y-72391447D01*
X101741434Y-72552734D01*
X101777674Y-72602615D01*
X101801154Y-72668421D01*
X101785328Y-72736475D01*
X101735223Y-72785170D01*
X101677356Y-72799500D01*
X98322644Y-72799500D01*
X98255605Y-72779815D01*
X98209850Y-72727011D01*
X98199906Y-72657853D01*
X98222326Y-72602615D01*
X98258565Y-72552734D01*
X98340747Y-72391447D01*
X98340748Y-72391444D01*
X98396682Y-72219293D01*
X98425000Y-72040506D01*
X98425000Y-71950000D01*
X97625000Y-71950000D01*
X97625000Y-71450000D01*
X98425000Y-71450000D01*
X98425000Y-71359493D01*
X98396682Y-71180706D01*
X98340748Y-71008555D01*
X98340747Y-71008552D01*
X98258565Y-70847265D01*
X98152176Y-70700830D01*
X98024175Y-70572829D01*
X97958094Y-70524819D01*
X97915428Y-70469489D01*
X97909449Y-70399876D01*
X97942054Y-70338080D01*
X98002893Y-70303723D01*
X98030979Y-70300500D01*
X101969021Y-70300500D01*
X102036060Y-70320185D01*
G37*
G04 #@! TD.AperFunction*
G04 #@! TA.AperFunction,Conductor*
G36*
X109449757Y-117499227D02*
G01*
X109516486Y-117519940D01*
X109535531Y-117535531D01*
X116000000Y-124000000D01*
X134575500Y-124000000D01*
X134642539Y-124019685D01*
X134688294Y-124072489D01*
X134699500Y-124124000D01*
X134699500Y-135996519D01*
X134699305Y-136003472D01*
X134682916Y-136295296D01*
X134681359Y-136309114D01*
X134632984Y-136593827D01*
X134629890Y-136607384D01*
X134549939Y-136884899D01*
X134545346Y-136898024D01*
X134434830Y-137164834D01*
X134428797Y-137177362D01*
X134289100Y-137430125D01*
X134281702Y-137441899D01*
X134114584Y-137677430D01*
X134105914Y-137688302D01*
X133913475Y-137903642D01*
X133903642Y-137913475D01*
X133688302Y-138105914D01*
X133677430Y-138114584D01*
X133441899Y-138281702D01*
X133430125Y-138289100D01*
X133177362Y-138428797D01*
X133164834Y-138434830D01*
X132898024Y-138545346D01*
X132884899Y-138549939D01*
X132607384Y-138629890D01*
X132593827Y-138632984D01*
X132309114Y-138681359D01*
X132295296Y-138682916D01*
X132003472Y-138699305D01*
X131996519Y-138699500D01*
X65503481Y-138699500D01*
X65496528Y-138699305D01*
X65204703Y-138682916D01*
X65190885Y-138681359D01*
X64906172Y-138632984D01*
X64892615Y-138629890D01*
X64615100Y-138549939D01*
X64601975Y-138545346D01*
X64335165Y-138434830D01*
X64322637Y-138428797D01*
X64069874Y-138289100D01*
X64058100Y-138281702D01*
X63822569Y-138114584D01*
X63811697Y-138105914D01*
X63596357Y-137913475D01*
X63586524Y-137903642D01*
X63394085Y-137688302D01*
X63385415Y-137677430D01*
X63218297Y-137441899D01*
X63210899Y-137430125D01*
X63071202Y-137177362D01*
X63065172Y-137164841D01*
X62954653Y-136898024D01*
X62950060Y-136884899D01*
X62870109Y-136607384D01*
X62867015Y-136593827D01*
X62853965Y-136517020D01*
X62818638Y-136309103D01*
X62817084Y-136295306D01*
X62800695Y-136003472D01*
X62800500Y-135996519D01*
X62800500Y-128999996D01*
X64494415Y-128999996D01*
X64494415Y-129000003D01*
X64514738Y-129348927D01*
X64514739Y-129348938D01*
X64575428Y-129693127D01*
X64575430Y-129693134D01*
X64675674Y-130027972D01*
X64814107Y-130348895D01*
X64814113Y-130348908D01*
X64988870Y-130651597D01*
X65197584Y-130931949D01*
X65197589Y-130931955D01*
X65291646Y-131031649D01*
X65437442Y-131186183D01*
X65602282Y-131324500D01*
X65705186Y-131410847D01*
X65705194Y-131410853D01*
X65997203Y-131602911D01*
X65997207Y-131602913D01*
X66309549Y-131759777D01*
X66637989Y-131879319D01*
X66978086Y-131959923D01*
X67325241Y-132000500D01*
X67325248Y-132000500D01*
X67674752Y-132000500D01*
X67674759Y-132000500D01*
X68021914Y-131959923D01*
X68362011Y-131879319D01*
X68690451Y-131759777D01*
X69002793Y-131602913D01*
X69151286Y-131505247D01*
X74164500Y-131505247D01*
X74164500Y-133244752D01*
X74176131Y-133303229D01*
X74176132Y-133303230D01*
X74220447Y-133369552D01*
X74286769Y-133413867D01*
X74286770Y-133413868D01*
X74345247Y-133425499D01*
X74345250Y-133425500D01*
X74345252Y-133425500D01*
X76084750Y-133425500D01*
X76084751Y-133425499D01*
X76099568Y-133422552D01*
X76143229Y-133413868D01*
X76143229Y-133413867D01*
X76143231Y-133413867D01*
X76209552Y-133369552D01*
X76253867Y-133303231D01*
X76253867Y-133303229D01*
X76253868Y-133303229D01*
X76263922Y-133252682D01*
X76265500Y-133244748D01*
X76265500Y-132375000D01*
X76699417Y-132375000D01*
X76719699Y-132580932D01*
X76719700Y-132580934D01*
X76779768Y-132778954D01*
X76877315Y-132961450D01*
X76877317Y-132961452D01*
X77008589Y-133121410D01*
X77105209Y-133200702D01*
X77168550Y-133252685D01*
X77351046Y-133350232D01*
X77549066Y-133410300D01*
X77549065Y-133410300D01*
X77567529Y-133412118D01*
X77755000Y-133430583D01*
X77960934Y-133410300D01*
X78158954Y-133350232D01*
X78341450Y-133252685D01*
X78501410Y-133121410D01*
X78632685Y-132961450D01*
X78730232Y-132778954D01*
X78750406Y-132712446D01*
X78788702Y-132654010D01*
X78852514Y-132625553D01*
X78921581Y-132636112D01*
X78973975Y-132682336D01*
X78988841Y-132716349D01*
X79021567Y-132838486D01*
X79021570Y-132838492D01*
X79121399Y-133052578D01*
X79256894Y-133246082D01*
X79423917Y-133413105D01*
X79617421Y-133548600D01*
X79831507Y-133648429D01*
X79831516Y-133648433D01*
X80045000Y-133705634D01*
X80045000Y-132808012D01*
X80102007Y-132840925D01*
X80229174Y-132875000D01*
X80360826Y-132875000D01*
X80487993Y-132840925D01*
X80545000Y-132808012D01*
X80545000Y-133705633D01*
X80758483Y-133648433D01*
X80758492Y-133648429D01*
X80972578Y-133548600D01*
X81166082Y-133413105D01*
X81333105Y-133246082D01*
X81468600Y-133052578D01*
X81568429Y-132838492D01*
X81568433Y-132838483D01*
X81601158Y-132716350D01*
X81637522Y-132656690D01*
X81700369Y-132626160D01*
X81769745Y-132634454D01*
X81823623Y-132678939D01*
X81839593Y-132712447D01*
X81859768Y-132778954D01*
X81957315Y-132961450D01*
X81957317Y-132961452D01*
X82088589Y-133121410D01*
X82185209Y-133200702D01*
X82248550Y-133252685D01*
X82431046Y-133350232D01*
X82629066Y-133410300D01*
X82629065Y-133410300D01*
X82647529Y-133412118D01*
X82835000Y-133430583D01*
X83040934Y-133410300D01*
X83238954Y-133350232D01*
X83421450Y-133252685D01*
X83581410Y-133121410D01*
X83712685Y-132961450D01*
X83810232Y-132778954D01*
X83870300Y-132580934D01*
X83890583Y-132375000D01*
X84319417Y-132375000D01*
X84339699Y-132580932D01*
X84339700Y-132580934D01*
X84399768Y-132778954D01*
X84497315Y-132961450D01*
X84497317Y-132961452D01*
X84628589Y-133121410D01*
X84725209Y-133200702D01*
X84788550Y-133252685D01*
X84971046Y-133350232D01*
X85169066Y-133410300D01*
X85169065Y-133410300D01*
X85187529Y-133412118D01*
X85375000Y-133430583D01*
X85580934Y-133410300D01*
X85778954Y-133350232D01*
X85961450Y-133252685D01*
X86121410Y-133121410D01*
X86252685Y-132961450D01*
X86350232Y-132778954D01*
X86410300Y-132580934D01*
X86430583Y-132375000D01*
X86859417Y-132375000D01*
X86879699Y-132580932D01*
X86879700Y-132580934D01*
X86939768Y-132778954D01*
X87037315Y-132961450D01*
X87037317Y-132961452D01*
X87168589Y-133121410D01*
X87265209Y-133200702D01*
X87328550Y-133252685D01*
X87511046Y-133350232D01*
X87709066Y-133410300D01*
X87709065Y-133410300D01*
X87727529Y-133412118D01*
X87915000Y-133430583D01*
X88120934Y-133410300D01*
X88318954Y-133350232D01*
X88501450Y-133252685D01*
X88661410Y-133121410D01*
X88792685Y-132961450D01*
X88890232Y-132778954D01*
X88950300Y-132580934D01*
X88970583Y-132375000D01*
X88950300Y-132169066D01*
X88890232Y-131971046D01*
X88792685Y-131788550D01*
X88683039Y-131654945D01*
X88661410Y-131628589D01*
X88511593Y-131505639D01*
X88501450Y-131497315D01*
X88370191Y-131427155D01*
X94975000Y-131427155D01*
X94975000Y-133125000D01*
X96047769Y-133125000D01*
X96025000Y-133268753D01*
X96025000Y-133481247D01*
X96047769Y-133625000D01*
X94975000Y-133625000D01*
X94975000Y-135322844D01*
X94981401Y-135382372D01*
X94981403Y-135382379D01*
X95031645Y-135517086D01*
X95031649Y-135517093D01*
X95117809Y-135632187D01*
X95117812Y-135632190D01*
X95232906Y-135718350D01*
X95232913Y-135718354D01*
X95367620Y-135768596D01*
X95367627Y-135768598D01*
X95427155Y-135774999D01*
X95427172Y-135775000D01*
X97125000Y-135775000D01*
X97125000Y-134702231D01*
X97268753Y-134725000D01*
X97481247Y-134725000D01*
X97625000Y-134702231D01*
X97625000Y-135775000D01*
X99322828Y-135775000D01*
X99322844Y-135774999D01*
X99382372Y-135768598D01*
X99382379Y-135768596D01*
X99517086Y-135718354D01*
X99517093Y-135718350D01*
X99632187Y-135632190D01*
X99632190Y-135632187D01*
X99718350Y-135517093D01*
X99718354Y-135517086D01*
X99768596Y-135382379D01*
X99768598Y-135382372D01*
X99774999Y-135322844D01*
X99775000Y-135322827D01*
X99775000Y-133625000D01*
X98702231Y-133625000D01*
X98725000Y-133481247D01*
X98725000Y-133375000D01*
X100269592Y-133375000D01*
X100289201Y-133661680D01*
X100289201Y-133661684D01*
X100289202Y-133661686D01*
X100310984Y-133766509D01*
X100347666Y-133943034D01*
X100347667Y-133943037D01*
X100443894Y-134213793D01*
X100443893Y-134213793D01*
X100576098Y-134468935D01*
X100741812Y-134703700D01*
X100826923Y-134794831D01*
X100937947Y-134913708D01*
X101160853Y-135095055D01*
X101406382Y-135244365D01*
X101587022Y-135322827D01*
X101669942Y-135358844D01*
X101946642Y-135436371D01*
X102196920Y-135470771D01*
X102231321Y-135475500D01*
X102231322Y-135475500D01*
X102518679Y-135475500D01*
X102549370Y-135471281D01*
X102803358Y-135436371D01*
X103080058Y-135358844D01*
X103193015Y-135309779D01*
X103343617Y-135244365D01*
X103343620Y-135244363D01*
X103343625Y-135244361D01*
X103589147Y-135095055D01*
X103812053Y-134913708D01*
X104008189Y-134703698D01*
X104173901Y-134468936D01*
X104306104Y-134213797D01*
X104402334Y-133943032D01*
X104460798Y-133661686D01*
X104480408Y-133375000D01*
X104460798Y-133088314D01*
X104402334Y-132806968D01*
X104306105Y-132536206D01*
X104306106Y-132536206D01*
X104222575Y-132375000D01*
X109159417Y-132375000D01*
X109179699Y-132580932D01*
X109179700Y-132580934D01*
X109239768Y-132778954D01*
X109337315Y-132961450D01*
X109337317Y-132961452D01*
X109468589Y-133121410D01*
X109565209Y-133200702D01*
X109628550Y-133252685D01*
X109811046Y-133350232D01*
X110009066Y-133410300D01*
X110009065Y-133410300D01*
X110027529Y-133412118D01*
X110215000Y-133430583D01*
X110420934Y-133410300D01*
X110618954Y-133350232D01*
X110801450Y-133252685D01*
X110961410Y-133121410D01*
X111092685Y-132961450D01*
X111190232Y-132778954D01*
X111250300Y-132580934D01*
X111270583Y-132375000D01*
X111699417Y-132375000D01*
X111719699Y-132580932D01*
X111719700Y-132580934D01*
X111779768Y-132778954D01*
X111877315Y-132961450D01*
X111877317Y-132961452D01*
X112008589Y-133121410D01*
X112105209Y-133200702D01*
X112168550Y-133252685D01*
X112351046Y-133350232D01*
X112549066Y-133410300D01*
X112549065Y-133410300D01*
X112567529Y-133412118D01*
X112755000Y-133430583D01*
X112960934Y-133410300D01*
X113158954Y-133350232D01*
X113341450Y-133252685D01*
X113501410Y-133121410D01*
X113632685Y-132961450D01*
X113730232Y-132778954D01*
X113790300Y-132580934D01*
X113810583Y-132375000D01*
X114239417Y-132375000D01*
X114259699Y-132580932D01*
X114259700Y-132580934D01*
X114319768Y-132778954D01*
X114417315Y-132961450D01*
X114417317Y-132961452D01*
X114548589Y-133121410D01*
X114645209Y-133200702D01*
X114708550Y-133252685D01*
X114891046Y-133350232D01*
X115089066Y-133410300D01*
X115089065Y-133410300D01*
X115107529Y-133412118D01*
X115295000Y-133430583D01*
X115500934Y-133410300D01*
X115698954Y-133350232D01*
X115881450Y-133252685D01*
X116041410Y-133121410D01*
X116172685Y-132961450D01*
X116270232Y-132778954D01*
X116290406Y-132712446D01*
X116328702Y-132654010D01*
X116392514Y-132625553D01*
X116461581Y-132636112D01*
X116513975Y-132682336D01*
X116528841Y-132716349D01*
X116561567Y-132838486D01*
X116561570Y-132838492D01*
X116661399Y-133052578D01*
X116796894Y-133246082D01*
X116963917Y-133413105D01*
X117157421Y-133548600D01*
X117371507Y-133648429D01*
X117371516Y-133648433D01*
X117585000Y-133705634D01*
X117585000Y-132808012D01*
X117642007Y-132840925D01*
X117769174Y-132875000D01*
X117900826Y-132875000D01*
X118027993Y-132840925D01*
X118085000Y-132808012D01*
X118085000Y-133705633D01*
X118298483Y-133648433D01*
X118298492Y-133648429D01*
X118512578Y-133548600D01*
X118706082Y-133413105D01*
X118873105Y-133246082D01*
X119008600Y-133052578D01*
X119108429Y-132838492D01*
X119108433Y-132838483D01*
X119141158Y-132716350D01*
X119177522Y-132656690D01*
X119240369Y-132626160D01*
X119309745Y-132634454D01*
X119363623Y-132678939D01*
X119379593Y-132712447D01*
X119399768Y-132778954D01*
X119497315Y-132961450D01*
X119497317Y-132961452D01*
X119628589Y-133121410D01*
X119725209Y-133200702D01*
X119788550Y-133252685D01*
X119971046Y-133350232D01*
X120169066Y-133410300D01*
X120169065Y-133410300D01*
X120187529Y-133412118D01*
X120375000Y-133430583D01*
X120580934Y-133410300D01*
X120778954Y-133350232D01*
X120961450Y-133252685D01*
X121121410Y-133121410D01*
X121252685Y-132961450D01*
X121350232Y-132778954D01*
X121410300Y-132580934D01*
X121430583Y-132375000D01*
X121410300Y-132169066D01*
X121350232Y-131971046D01*
X121252685Y-131788550D01*
X121143039Y-131654945D01*
X121121410Y-131628589D01*
X120971593Y-131505639D01*
X120971115Y-131505247D01*
X121864500Y-131505247D01*
X121864500Y-133244752D01*
X121876131Y-133303229D01*
X121876132Y-133303230D01*
X121920447Y-133369552D01*
X121986769Y-133413867D01*
X121986770Y-133413868D01*
X122045247Y-133425499D01*
X122045250Y-133425500D01*
X122045252Y-133425500D01*
X123784750Y-133425500D01*
X123784751Y-133425499D01*
X123799568Y-133422552D01*
X123843229Y-133413868D01*
X123843229Y-133413867D01*
X123843231Y-133413867D01*
X123909552Y-133369552D01*
X123953867Y-133303231D01*
X123953867Y-133303229D01*
X123953868Y-133303229D01*
X123963922Y-133252682D01*
X123965500Y-133244748D01*
X123965500Y-131505252D01*
X123965500Y-131505249D01*
X123965499Y-131505247D01*
X123953868Y-131446770D01*
X123953867Y-131446769D01*
X123909552Y-131380447D01*
X123843230Y-131336132D01*
X123843229Y-131336131D01*
X123784752Y-131324500D01*
X123784748Y-131324500D01*
X122045252Y-131324500D01*
X122045247Y-131324500D01*
X121986770Y-131336131D01*
X121986769Y-131336132D01*
X121920447Y-131380447D01*
X121876132Y-131446769D01*
X121876131Y-131446770D01*
X121864500Y-131505247D01*
X120971115Y-131505247D01*
X120961450Y-131497315D01*
X120778954Y-131399768D01*
X120580934Y-131339700D01*
X120580932Y-131339699D01*
X120580934Y-131339699D01*
X120375000Y-131319417D01*
X120169067Y-131339699D01*
X119971043Y-131399769D01*
X119919777Y-131427172D01*
X119788550Y-131497315D01*
X119788548Y-131497316D01*
X119788547Y-131497317D01*
X119628589Y-131628589D01*
X119497317Y-131788547D01*
X119399767Y-131971046D01*
X119379593Y-132037552D01*
X119341296Y-132095990D01*
X119277483Y-132124447D01*
X119208416Y-132113886D01*
X119156023Y-132067661D01*
X119141158Y-132033649D01*
X119108433Y-131911516D01*
X119108429Y-131911507D01*
X119008600Y-131697422D01*
X119008599Y-131697420D01*
X118873113Y-131503926D01*
X118873108Y-131503920D01*
X118706082Y-131336894D01*
X118512578Y-131201399D01*
X118298492Y-131101570D01*
X118298486Y-131101567D01*
X118085000Y-131044364D01*
X118085000Y-131941988D01*
X118027993Y-131909075D01*
X117900826Y-131875000D01*
X117769174Y-131875000D01*
X117642007Y-131909075D01*
X117585000Y-131941988D01*
X117585000Y-131044364D01*
X117584999Y-131044364D01*
X117371513Y-131101567D01*
X117371507Y-131101570D01*
X117157422Y-131201399D01*
X117157420Y-131201400D01*
X116963926Y-131336886D01*
X116963920Y-131336891D01*
X116796891Y-131503920D01*
X116796886Y-131503926D01*
X116661400Y-131697420D01*
X116661399Y-131697422D01*
X116561570Y-131911507D01*
X116561567Y-131911514D01*
X116528841Y-132033650D01*
X116492476Y-132093310D01*
X116429629Y-132123839D01*
X116360253Y-132115544D01*
X116306375Y-132071059D01*
X116290406Y-132037552D01*
X116270232Y-131971046D01*
X116172685Y-131788550D01*
X116063039Y-131654945D01*
X116041410Y-131628589D01*
X115891593Y-131505639D01*
X115881450Y-131497315D01*
X115698954Y-131399768D01*
X115500934Y-131339700D01*
X115500932Y-131339699D01*
X115500934Y-131339699D01*
X115295000Y-131319417D01*
X115089067Y-131339699D01*
X114891043Y-131399769D01*
X114839777Y-131427172D01*
X114708550Y-131497315D01*
X114708548Y-131497316D01*
X114708547Y-131497317D01*
X114548589Y-131628589D01*
X114417317Y-131788547D01*
X114319769Y-131971043D01*
X114259699Y-132169067D01*
X114239417Y-132375000D01*
X113810583Y-132375000D01*
X113790300Y-132169066D01*
X113730232Y-131971046D01*
X113632685Y-131788550D01*
X113523039Y-131654945D01*
X113501410Y-131628589D01*
X113351593Y-131505639D01*
X113341450Y-131497315D01*
X113158954Y-131399768D01*
X112960934Y-131339700D01*
X112960932Y-131339699D01*
X112960934Y-131339699D01*
X112755000Y-131319417D01*
X112549067Y-131339699D01*
X112351043Y-131399769D01*
X112299777Y-131427172D01*
X112168550Y-131497315D01*
X112168548Y-131497316D01*
X112168547Y-131497317D01*
X112008589Y-131628589D01*
X111877317Y-131788547D01*
X111779769Y-131971043D01*
X111719699Y-132169067D01*
X111699417Y-132375000D01*
X111270583Y-132375000D01*
X111250300Y-132169066D01*
X111190232Y-131971046D01*
X111092685Y-131788550D01*
X110983039Y-131654945D01*
X110961410Y-131628589D01*
X110811593Y-131505639D01*
X110801450Y-131497315D01*
X110618954Y-131399768D01*
X110420934Y-131339700D01*
X110420932Y-131339699D01*
X110420934Y-131339699D01*
X110215000Y-131319417D01*
X110009067Y-131339699D01*
X109811043Y-131399769D01*
X109759777Y-131427172D01*
X109628550Y-131497315D01*
X109628548Y-131497316D01*
X109628547Y-131497317D01*
X109468589Y-131628589D01*
X109337317Y-131788547D01*
X109239769Y-131971043D01*
X109179699Y-132169067D01*
X109159417Y-132375000D01*
X104222575Y-132375000D01*
X104173901Y-132281064D01*
X104008187Y-132046299D01*
X103929554Y-131962105D01*
X103812053Y-131836292D01*
X103589147Y-131654945D01*
X103589146Y-131654944D01*
X103343617Y-131505634D01*
X103080063Y-131391158D01*
X103080061Y-131391157D01*
X103080058Y-131391156D01*
X102950578Y-131354877D01*
X102803364Y-131313630D01*
X102803359Y-131313629D01*
X102803358Y-131313629D01*
X102661018Y-131294064D01*
X102518679Y-131274500D01*
X102518678Y-131274500D01*
X102231322Y-131274500D01*
X102231321Y-131274500D01*
X101946642Y-131313629D01*
X101946635Y-131313630D01*
X101753944Y-131367620D01*
X101669942Y-131391156D01*
X101669939Y-131391156D01*
X101669936Y-131391158D01*
X101669935Y-131391158D01*
X101406382Y-131505634D01*
X101160853Y-131654944D01*
X100937950Y-131836289D01*
X100741812Y-132046299D01*
X100576098Y-132281064D01*
X100443894Y-132536206D01*
X100347667Y-132806962D01*
X100347666Y-132806965D01*
X100289201Y-133088319D01*
X100269592Y-133375000D01*
X98725000Y-133375000D01*
X98725000Y-133268753D01*
X98702231Y-133125000D01*
X99775000Y-133125000D01*
X99775000Y-131427172D01*
X99774999Y-131427155D01*
X99768598Y-131367627D01*
X99768596Y-131367620D01*
X99718354Y-131232913D01*
X99718350Y-131232906D01*
X99632190Y-131117812D01*
X99632187Y-131117809D01*
X99517093Y-131031649D01*
X99517086Y-131031645D01*
X99382379Y-130981403D01*
X99382372Y-130981401D01*
X99322844Y-130975000D01*
X97625000Y-130975000D01*
X97625000Y-132047768D01*
X97481247Y-132025000D01*
X97268753Y-132025000D01*
X97125000Y-132047768D01*
X97125000Y-130975000D01*
X95427155Y-130975000D01*
X95367627Y-130981401D01*
X95367620Y-130981403D01*
X95232913Y-131031645D01*
X95232906Y-131031649D01*
X95117812Y-131117809D01*
X95117809Y-131117812D01*
X95031649Y-131232906D01*
X95031645Y-131232913D01*
X94981403Y-131367620D01*
X94981401Y-131367627D01*
X94975000Y-131427155D01*
X88370191Y-131427155D01*
X88318954Y-131399768D01*
X88120934Y-131339700D01*
X88120932Y-131339699D01*
X88120934Y-131339699D01*
X87915000Y-131319417D01*
X87709067Y-131339699D01*
X87511043Y-131399769D01*
X87459777Y-131427172D01*
X87328550Y-131497315D01*
X87328548Y-131497316D01*
X87328547Y-131497317D01*
X87168589Y-131628589D01*
X87037317Y-131788547D01*
X86939769Y-131971043D01*
X86879699Y-132169067D01*
X86859417Y-132375000D01*
X86430583Y-132375000D01*
X86410300Y-132169066D01*
X86350232Y-131971046D01*
X86252685Y-131788550D01*
X86143039Y-131654945D01*
X86121410Y-131628589D01*
X85971593Y-131505639D01*
X85961450Y-131497315D01*
X85778954Y-131399768D01*
X85580934Y-131339700D01*
X85580932Y-131339699D01*
X85580934Y-131339699D01*
X85375000Y-131319417D01*
X85169067Y-131339699D01*
X84971043Y-131399769D01*
X84919777Y-131427172D01*
X84788550Y-131497315D01*
X84788548Y-131497316D01*
X84788547Y-131497317D01*
X84628589Y-131628589D01*
X84497317Y-131788547D01*
X84399769Y-131971043D01*
X84339699Y-132169067D01*
X84319417Y-132375000D01*
X83890583Y-132375000D01*
X83870300Y-132169066D01*
X83810232Y-131971046D01*
X83712685Y-131788550D01*
X83603039Y-131654945D01*
X83581410Y-131628589D01*
X83431593Y-131505639D01*
X83421450Y-131497315D01*
X83238954Y-131399768D01*
X83040934Y-131339700D01*
X83040932Y-131339699D01*
X83040934Y-131339699D01*
X82835000Y-131319417D01*
X82629067Y-131339699D01*
X82431043Y-131399769D01*
X82379777Y-131427172D01*
X82248550Y-131497315D01*
X82248548Y-131497316D01*
X82248547Y-131497317D01*
X82088589Y-131628589D01*
X81957317Y-131788547D01*
X81859767Y-131971046D01*
X81839593Y-132037552D01*
X81801296Y-132095990D01*
X81737483Y-132124447D01*
X81668416Y-132113886D01*
X81616023Y-132067661D01*
X81601158Y-132033649D01*
X81568433Y-131911516D01*
X81568429Y-131911507D01*
X81468600Y-131697422D01*
X81468599Y-131697420D01*
X81333113Y-131503926D01*
X81333108Y-131503920D01*
X81166082Y-131336894D01*
X80972578Y-131201399D01*
X80758492Y-131101570D01*
X80758486Y-131101567D01*
X80545000Y-131044364D01*
X80545000Y-131941988D01*
X80487993Y-131909075D01*
X80360826Y-131875000D01*
X80229174Y-131875000D01*
X80102007Y-131909075D01*
X80045000Y-131941988D01*
X80045000Y-131044364D01*
X80044999Y-131044364D01*
X79831513Y-131101567D01*
X79831507Y-131101570D01*
X79617422Y-131201399D01*
X79617420Y-131201400D01*
X79423926Y-131336886D01*
X79423920Y-131336891D01*
X79256891Y-131503920D01*
X79256886Y-131503926D01*
X79121400Y-131697420D01*
X79121399Y-131697422D01*
X79021570Y-131911507D01*
X79021567Y-131911514D01*
X78988841Y-132033650D01*
X78952476Y-132093310D01*
X78889629Y-132123839D01*
X78820253Y-132115544D01*
X78766375Y-132071059D01*
X78750406Y-132037552D01*
X78730232Y-131971046D01*
X78632685Y-131788550D01*
X78523039Y-131654945D01*
X78501410Y-131628589D01*
X78351593Y-131505639D01*
X78341450Y-131497315D01*
X78158954Y-131399768D01*
X77960934Y-131339700D01*
X77960932Y-131339699D01*
X77960934Y-131339699D01*
X77755000Y-131319417D01*
X77549067Y-131339699D01*
X77351043Y-131399769D01*
X77299777Y-131427172D01*
X77168550Y-131497315D01*
X77168548Y-131497316D01*
X77168547Y-131497317D01*
X77008589Y-131628589D01*
X76877317Y-131788547D01*
X76779769Y-131971043D01*
X76719699Y-132169067D01*
X76699417Y-132375000D01*
X76265500Y-132375000D01*
X76265500Y-131505252D01*
X76265500Y-131505249D01*
X76265499Y-131505247D01*
X76253868Y-131446770D01*
X76253867Y-131446769D01*
X76209552Y-131380447D01*
X76143230Y-131336132D01*
X76143229Y-131336131D01*
X76084752Y-131324500D01*
X76084748Y-131324500D01*
X74345252Y-131324500D01*
X74345247Y-131324500D01*
X74286770Y-131336131D01*
X74286769Y-131336132D01*
X74220447Y-131380447D01*
X74176132Y-131446769D01*
X74176131Y-131446770D01*
X74164500Y-131505247D01*
X69151286Y-131505247D01*
X69294811Y-131410849D01*
X69562558Y-131186183D01*
X69802412Y-130931953D01*
X70011130Y-130651596D01*
X70185889Y-130348904D01*
X70324326Y-130027971D01*
X70424569Y-129693136D01*
X70485262Y-129348927D01*
X70505585Y-129000000D01*
X70505585Y-128999996D01*
X126994415Y-128999996D01*
X126994415Y-129000003D01*
X127014738Y-129348927D01*
X127014739Y-129348938D01*
X127075428Y-129693127D01*
X127075430Y-129693134D01*
X127175674Y-130027972D01*
X127314107Y-130348895D01*
X127314113Y-130348908D01*
X127488870Y-130651597D01*
X127697584Y-130931949D01*
X127697589Y-130931955D01*
X127791646Y-131031649D01*
X127937442Y-131186183D01*
X128102282Y-131324500D01*
X128205186Y-131410847D01*
X128205194Y-131410853D01*
X128497203Y-131602911D01*
X128497207Y-131602913D01*
X128809549Y-131759777D01*
X129137989Y-131879319D01*
X129478086Y-131959923D01*
X129825241Y-132000500D01*
X129825248Y-132000500D01*
X130174752Y-132000500D01*
X130174759Y-132000500D01*
X130521914Y-131959923D01*
X130862011Y-131879319D01*
X131190451Y-131759777D01*
X131502793Y-131602913D01*
X131794811Y-131410849D01*
X132062558Y-131186183D01*
X132302412Y-130931953D01*
X132511130Y-130651596D01*
X132685889Y-130348904D01*
X132824326Y-130027971D01*
X132924569Y-129693136D01*
X132985262Y-129348927D01*
X133005585Y-129000000D01*
X132985262Y-128651073D01*
X132985260Y-128651061D01*
X132924571Y-128306872D01*
X132924569Y-128306865D01*
X132824325Y-127972027D01*
X132685892Y-127651104D01*
X132685889Y-127651096D01*
X132511130Y-127348404D01*
X132511129Y-127348402D01*
X132302415Y-127068050D01*
X132302410Y-127068044D01*
X132186433Y-126945117D01*
X132062558Y-126813817D01*
X131914488Y-126689572D01*
X131794813Y-126589152D01*
X131794805Y-126589146D01*
X131502796Y-126397088D01*
X131190458Y-126240226D01*
X131190452Y-126240223D01*
X130862012Y-126120681D01*
X130862009Y-126120680D01*
X130521915Y-126040077D01*
X130478519Y-126035004D01*
X130174759Y-125999500D01*
X129825241Y-125999500D01*
X129521480Y-126035004D01*
X129478085Y-126040077D01*
X129478083Y-126040077D01*
X129137990Y-126120680D01*
X129137987Y-126120681D01*
X128809547Y-126240223D01*
X128809541Y-126240226D01*
X128497203Y-126397088D01*
X128205194Y-126589146D01*
X128205186Y-126589152D01*
X127937442Y-126813817D01*
X127937440Y-126813819D01*
X127697589Y-127068044D01*
X127697584Y-127068050D01*
X127488870Y-127348402D01*
X127314113Y-127651091D01*
X127314107Y-127651104D01*
X127175674Y-127972027D01*
X127075430Y-128306865D01*
X127075428Y-128306872D01*
X127014739Y-128651061D01*
X127014738Y-128651072D01*
X126994415Y-128999996D01*
X70505585Y-128999996D01*
X70485262Y-128651073D01*
X70485260Y-128651061D01*
X70424571Y-128306872D01*
X70424569Y-128306865D01*
X70324325Y-127972027D01*
X70185892Y-127651104D01*
X70185889Y-127651096D01*
X70011130Y-127348404D01*
X70011129Y-127348402D01*
X69802415Y-127068050D01*
X69802410Y-127068044D01*
X69686433Y-126945117D01*
X69562558Y-126813817D01*
X69414488Y-126689572D01*
X69294813Y-126589152D01*
X69294805Y-126589146D01*
X69002796Y-126397088D01*
X68690458Y-126240226D01*
X68690452Y-126240223D01*
X68362012Y-126120681D01*
X68362009Y-126120680D01*
X68021915Y-126040077D01*
X67978519Y-126035004D01*
X67674759Y-125999500D01*
X67325241Y-125999500D01*
X67021480Y-126035004D01*
X66978085Y-126040077D01*
X66978083Y-126040077D01*
X66637990Y-126120680D01*
X66637987Y-126120681D01*
X66309547Y-126240223D01*
X66309541Y-126240226D01*
X65997203Y-126397088D01*
X65705194Y-126589146D01*
X65705186Y-126589152D01*
X65437442Y-126813817D01*
X65437440Y-126813819D01*
X65197589Y-127068044D01*
X65197584Y-127068050D01*
X64988870Y-127348402D01*
X64814113Y-127651091D01*
X64814107Y-127651104D01*
X64675674Y-127972027D01*
X64575430Y-128306865D01*
X64575428Y-128306872D01*
X64514739Y-128651061D01*
X64514738Y-128651072D01*
X64494415Y-128999996D01*
X62800500Y-128999996D01*
X62800500Y-124124000D01*
X62820185Y-124056961D01*
X62872989Y-124011206D01*
X62924500Y-124000000D01*
X86249999Y-124000000D01*
X86250000Y-124000000D01*
X93213176Y-117285507D01*
X93275095Y-117253146D01*
X93301143Y-117250786D01*
X109449757Y-117499227D01*
G37*
G04 #@! TD.AperFunction*
M02*
