M48
; DRILL file {KiCad 8.0.5} date 2025-04-11T00:05:16-0400
; FORMAT={-:-/ absolute / metric / decimal}
; #@! TF.CreationDate,2025-04-11T00:05:16-04:00
; #@! TF.GenerationSoftware,Kicad,Pcbnew,8.0.5
; #@! TF.FileFunction,Plated,1,2,PTH
FMAT,2
METRIC
; #@! TA.AperFunction,Plated,PTH,ViaDrill
T1C0.350
; #@! TA.AperFunction,Plated,PTH,ComponentDrill
T2C0.350
; #@! TA.AperFunction,Plated,PTH,ComponentDrill
T3C0.650
; #@! TA.AperFunction,Plated,PTH,ComponentDrill
T4C0.700
; #@! TA.AperFunction,Plated,PTH,ComponentDrill
T5C1.000
; #@! TA.AperFunction,Plated,PTH,ComponentDrill
T6C1.300
; #@! TA.AperFunction,Plated,PTH,ComponentDrill
T7C2.700
; #@! TA.AperFunction,Plated,PTH,ComponentDrill
T8C3.200
%
G90
G05
T1
X65.5Y-120.5
X66.0Y-135.5
X67.0Y-82.5
X68.0Y-108.0
X68.5Y-135.5
X71.0Y-120.5
X76.0Y-99.0
X77.0Y-73.0
X78.0Y-121.25
X78.5Y-107.5
X80.0Y-137.5
X80.5Y-122.5
X81.375Y-128.375
X82.625Y-114.125
X82.75Y-120.5
X84.25Y-120.75
X85.0Y-79.5
X85.375Y-128.125
X88.0Y-117.5
X90.8Y-89.2
X90.955Y-95.43
X92.0Y-101.2
X92.75Y-120.512
X93.0Y-112.0
X94.0Y-83.0
X95.0Y-115.5
X95.4Y-73.3
X95.84Y-120.512
X96.75Y-79.25
X96.77Y-107.825
X97.0Y-108.5
X97.1Y-112.3
X98.25Y-90.25
X98.7Y-76.0
X99.0Y-90.5
X99.8Y-95.2
X100.5Y-138.0
X100.6Y-102.1
X100.69Y-108.415
X100.7Y-97.9
X100.75Y-121.475
X101.0Y-104.5
X101.75Y-121.475
X102.54Y-108.51
X102.75Y-121.475
X102.9Y-112.3
X104.6Y-73.3
X104.75Y-90.75
X105.5Y-114.5
X107.25Y-120.512
X107.5Y-92.5
X108.0Y-101.305
X108.98Y-91.71
X110.0Y-78.0
X110.25Y-120.512
X111.0Y-114.5
X111.16Y-91.69
X113.62Y-89.46
X115.0Y-118.5
X115.486Y-108.014
X115.6Y-109.63
X116.376Y-121.624
X116.625Y-128.125
X117.37Y-99.89
X118.5Y-120.75
X119.375Y-115.625
X119.775Y-120.75
X120.5Y-89.5
X121.125Y-128.125
X122.5Y-137.0
X123.0Y-79.0
X123.5Y-121.5
X124.5Y-104.0
X125.5Y-112.5
X130.5Y-87.5
X130.5Y-134.5
X131.0Y-120.5
X134.14Y-106.32
T2
X98.725Y-98.725
X98.725Y-100.0
X98.725Y-101.275
X100.0Y-98.725
X100.0Y-100.0
X100.0Y-101.275
X101.275Y-98.725
X101.275Y-100.0
X101.275Y-101.275
T5
X65.73Y-97.23
X65.73Y-99.77
X65.73Y-102.31
X65.73Y-104.85
X65.73Y-107.39
X65.73Y-109.93
X75.215Y-132.375
X77.755Y-132.375
X80.295Y-132.375
X82.835Y-132.375
X85.375Y-132.375
X87.915Y-132.375
X91.11Y-74.0
X91.11Y-76.54
X110.215Y-132.375
X112.755Y-132.375
X115.295Y-132.375
X117.835Y-132.375
X120.375Y-132.375
X122.915Y-132.375
X131.9Y-94.88
X131.9Y-97.42
X131.9Y-99.96
X131.9Y-102.5
X131.9Y-105.04
X131.9Y-107.58
X131.9Y-110.12
T6
X71.25Y-86.5
X71.25Y-91.5
X83.75Y-86.5
X83.75Y-91.5
T7
X97.375Y-133.375
X102.375Y-133.375
T8
X67.5Y-74.0
X67.5Y-129.0
X130.0Y-74.0
X130.0Y-129.0
T3
X97.575Y-74.53G85X97.575Y-74.93
G05
X102.425Y-74.53G85X102.425Y-74.93
G05
T4
X97.275Y-71.45G85X97.275Y-71.95
G05
X102.725Y-71.45G85X102.725Y-71.95
G05
M30
